<svg width="586" height="405" viewBox="0 0 586 405" fill="none" xmlns="http://www.w3.org/2000/svg">
<g clip-path="url(#clip0_159_31162)">
<g opacity="0.3">
<path d="M531.494 372.29C529.424 370.295 527.232 368.413 524.843 366.731C524.236 366.288 523.198 366.542 522.746 367.194C522.316 367.891 522.483 368.759 523.159 369.226C523.698 369.646 524.285 370.043 524.824 370.462C525.093 370.672 525.363 370.882 525.632 371.091C525.743 371.207 525.901 371.301 526.012 371.417C525.833 371.277 526.192 371.557 526.012 371.417C526.054 371.509 526.192 371.557 526.213 371.602C527.243 372.463 528.247 373.391 529.25 374.32C529.783 374.853 530.757 374.961 531.367 374.404C531.93 373.868 532.069 372.914 531.515 372.336L531.494 372.29Z" fill="white"/>
<path d="M528.535 376.535C526.519 373.905 524.185 371.587 521.607 369.493C521.338 369.283 520.803 369.251 520.475 369.29C520.12 369.398 519.712 369.64 519.558 369.933C519.101 370.699 519.321 371.431 519.971 371.966C520.172 372.152 519.929 371.874 519.992 372.012C520.034 372.104 520.172 372.152 520.261 372.222C520.42 372.315 520.552 372.477 520.663 372.593C520.953 372.848 521.244 373.104 521.534 373.36C522.115 373.871 522.67 374.449 523.224 375.028C524.312 376.14 525.325 377.342 526.291 378.565C526.75 379.188 527.845 379.185 528.408 378.649C529.045 378.024 529.036 377.25 528.556 376.581L528.535 376.535Z" fill="white"/>
<path d="M524.533 380.65C522.165 377.125 519.336 373.98 516.018 371.28C515.437 370.769 514.325 371.113 513.921 371.743C513.464 372.508 513.684 373.24 514.334 373.775C514.175 373.681 514.376 373.867 514.445 373.891C514.535 373.961 514.625 374.031 514.735 374.147C514.915 374.286 515.116 374.472 515.316 374.658C515.697 374.983 516.008 375.285 516.389 375.61C517.102 376.283 517.767 376.978 518.432 377.672C519.05 378.389 519.667 379.105 520.285 379.822C520.591 380.237 520.876 380.606 521.182 381.021C521.224 381.113 521.266 381.205 521.356 381.275C521.272 381.091 521.398 381.366 521.419 381.412C521.524 381.642 521.746 381.873 521.899 382.081C522.31 382.725 523.178 383.105 523.898 382.663C524.545 382.311 525.034 381.364 524.554 380.696L524.533 380.65Z" fill="white"/>
<path d="M518.805 381.504C515.605 378.306 512.113 375.353 508.324 372.758C507.669 372.337 506.678 372.569 506.227 373.221C505.749 373.94 505.964 374.786 506.64 375.254C510.181 377.684 513.519 380.43 516.54 383.488C517.094 384.067 518.026 384.083 518.657 383.572C519.219 383.036 519.359 382.083 518.805 381.504Z" fill="white"/>
<path d="M509.645 382.428C507.006 379.195 503.932 376.272 500.63 373.732C500.023 373.289 498.937 373.565 498.533 374.195C498.076 374.96 498.296 375.692 498.946 376.228C499.755 376.857 500.383 377.346 501.144 377.997C501.905 378.647 502.617 379.32 503.352 380.039C504.798 381.43 506.123 382.933 507.401 384.458C507.907 385.059 508.955 385.078 509.518 384.542C510.107 383.938 510.194 383.121 509.666 382.474L509.645 382.428Z" fill="white"/>
<path d="M501.758 384.492C499.391 380.467 496.229 376.974 492.477 374.085C491.849 373.596 490.832 373.896 490.38 374.547C489.902 375.267 490.165 376.091 490.793 376.58C494.027 379.096 496.967 382.357 499.054 385.899C499.466 386.544 500.312 386.878 501.054 386.482C501.769 386.153 502.121 385.158 501.71 384.514L501.758 384.492Z" fill="white"/>
<path d="M494.667 383.636C491.652 380.465 488.488 377.472 485.129 374.681C484.5 374.192 483.669 374.017 483.012 374.597C482.476 375.065 482.283 376.154 482.864 376.665C486.223 379.456 489.434 382.427 492.401 385.62C492.956 386.199 493.887 386.216 494.519 385.704C495.129 385.147 495.173 384.237 494.667 383.636Z" fill="white"/>
<path d="M488.816 384.6C485.864 381.566 482.934 378.577 479.982 375.543C479.449 375.01 478.475 374.901 477.865 375.459C477.303 375.995 477.163 376.948 477.717 377.527C480.669 380.561 483.599 383.55 486.551 386.584C487.084 387.117 488.058 387.225 488.668 386.668C489.23 386.132 489.37 385.179 488.816 384.6Z" fill="white"/>
<path d="M479.057 387.744C476.483 384.148 473.452 380.816 470.077 377.866C469.496 377.354 468.618 377.202 467.96 377.782C467.377 378.272 467.231 379.338 467.812 379.85C471.187 382.8 474.149 386.108 476.792 389.728C477.251 390.351 478.373 390.28 478.909 389.812C479.567 389.232 479.516 388.367 479.057 387.744Z" fill="white"/>
<path d="M470.562 387.478C468.305 384.069 465.756 380.906 462.82 378.031C462.287 377.498 461.313 377.39 460.703 377.948C460.14 378.483 460.001 379.437 460.555 380.015C463.29 382.704 465.797 385.776 467.838 388.839C468.249 389.484 469.117 389.864 469.838 389.422C470.484 389.069 470.926 388.144 470.493 387.454L470.562 387.478Z" fill="white"/>
<path d="M463.285 387.096C460.667 383.908 457.805 380.944 454.673 378.27C454.092 377.759 453.213 377.607 452.556 378.187C452.041 378.701 451.806 379.697 452.408 380.254C455.54 382.928 458.402 385.892 461.019 389.08C461.526 389.68 462.574 389.699 463.137 389.163C463.726 388.56 463.812 387.742 463.285 387.096Z" fill="white"/>
<path d="M456.764 386.476C453.653 383.848 450.791 380.884 448.29 377.698C447.831 377.076 446.735 377.079 446.173 377.614C445.536 378.24 445.545 379.014 446.025 379.682C448.526 382.868 451.388 385.832 454.499 388.46C455.08 388.971 455.959 389.123 456.616 388.543C457.131 388.029 457.366 387.033 456.764 386.476Z" fill="white"/>
<path d="M447.719 388.405C445.509 384.975 442.743 381.967 439.462 379.472C438.854 379.029 437.768 379.305 437.365 379.935C436.908 380.7 437.128 381.432 437.778 381.968C437.957 382.107 438.137 382.247 438.317 382.387C438.407 382.457 438.496 382.527 438.586 382.597C438.607 382.642 438.856 382.806 438.676 382.666C439.035 382.946 439.416 383.271 439.727 383.573C440.419 384.2 441.063 384.849 441.728 385.543C442.325 386.214 442.943 386.93 443.491 387.623C443.623 387.785 443.776 387.992 443.929 388.2C443.971 388.292 444.035 388.429 444.124 388.499C444.409 388.868 444.061 388.361 444.167 388.591C444.473 389.006 444.71 389.397 444.968 389.834C445.379 390.479 446.247 390.858 446.968 390.416C447.614 390.064 448.056 389.139 447.623 388.449L447.719 388.405Z" fill="white"/>
<path d="M441.159 389.084C438.838 386.038 436.102 383.349 432.974 381.063C432.366 380.619 431.281 380.896 430.877 381.525C430.399 382.245 430.64 383.023 431.29 383.558C431.649 383.837 432.009 384.117 432.368 384.397C432.458 384.466 432.547 384.536 432.637 384.606C432.637 384.606 432.928 384.862 432.817 384.746C432.727 384.676 433.018 384.932 432.997 384.886C433.039 384.978 433.155 384.98 433.197 385.071C433.889 385.698 434.581 386.325 435.225 386.974C436.514 388.272 437.728 389.659 438.846 391.09C439.305 391.712 440.401 391.709 440.963 391.174C441.6 390.548 441.592 389.774 441.111 389.106L441.159 389.084Z" fill="white"/>
<path d="M432.788 387.704C430.328 385.111 427.799 382.494 425.339 379.901C424.805 379.368 423.832 379.259 423.221 379.817C422.659 380.353 422.519 381.306 423.073 381.885C425.534 384.478 428.063 387.095 430.523 389.688C431.057 390.221 432.03 390.33 432.64 389.772C433.203 389.236 433.343 388.283 432.788 387.704Z" fill="white"/>
<path d="M426.185 388.287C423.938 385.152 421.542 382.196 418.86 379.372C418.327 378.839 417.353 378.73 416.743 379.288C416.133 379.846 416.04 380.777 416.595 381.356C419.208 384.156 421.673 387.136 423.92 390.271C424.379 390.894 425.501 390.823 426.037 390.355C426.674 389.73 426.665 388.956 426.185 388.287Z" fill="white"/>
<path d="M420.67 388.098C418.808 385.675 416.898 383.274 415.035 380.851C414.576 380.229 413.48 380.232 412.918 380.768C412.281 381.393 412.29 382.167 412.77 382.835L418.405 390.082C418.864 390.705 419.96 390.702 420.522 390.166C421.159 389.54 421.15 388.767 420.67 388.098Z" fill="white"/>
<path d="M415.487 388.754C414.558 387.736 413.655 386.65 412.869 385.566C412.806 385.429 412.695 385.313 412.584 385.197C412.542 385.105 412.521 385.06 412.479 384.968C412.374 384.738 412.416 384.83 412.479 384.968C412.284 384.668 412.11 384.415 411.915 384.116C411.525 383.517 411.155 382.964 410.765 382.366C410.354 381.721 409.487 381.341 408.766 381.783C408.071 382.158 407.677 383.061 408.11 383.751C409.665 386.259 411.39 388.634 413.359 390.786C413.845 391.341 414.914 391.406 415.476 390.87C416.087 390.312 416.131 389.403 415.624 388.802L415.487 388.754Z" fill="white"/>
</g>
<path d="M156.247 172.57C156.247 172.57 160.839 177.972 175.079 177.059C185.402 176.399 191.447 170.366 194.124 165.809C195.463 163.522 195.964 160.835 195.499 158.225C195.234 156.789 194.862 156.313 194.734 156.272C194.254 156.755 170.852 171.818 156.247 172.57Z" fill="#F78C1E"/>
<path d="M194.752 156.253C194.752 156.253 190.822 179.792 163.414 175.801C155.231 174.609 145.811 164.223 146.054 150.301C146.181 142.895 148.018 140.162 148.018 140.162L148.713 140.408L193.874 155.945L194.771 156.254L194.752 156.253Z" fill="white"/>
<path d="M173.772 150.134C173.641 151.24 184.519 163.382 185.638 164.236C186.757 165.09 188.703 164.509 190.74 160.819C192.776 157.129 192.792 156.148 190.978 155.548C189.091 154.945 173.883 149.063 173.772 150.134Z" fill="#F99D22"/>
<path d="M172.639 153.966C172.639 153.966 171.822 151.363 172.225 150.97C172.627 150.576 174.129 152.666 177.856 156.834C181.583 161.002 185.915 165.339 185.7 166.739C185.295 169.319 180.492 171.616 178.421 171.488C176.351 171.361 176.862 170.508 175.811 166.637C174.76 162.765 172.621 153.966 172.621 153.966L172.639 153.966Z" fill="#F99D22"/>
<path d="M171.018 151.613C171.521 151.519 172.074 154.817 172.766 158.898C173.427 162.774 176.31 171.525 175.221 172.988C174.23 174.324 169.566 174.218 167.603 173.668C165.639 173.137 166.445 170.201 166.771 168.285C167.115 166.371 170.495 151.724 170.999 151.63L171.018 151.613Z" fill="#F99D22"/>
<path d="M162.598 157.655C162.598 157.655 169.099 150.249 170.065 150.69C170.411 150.85 168.743 156.757 167.936 159.73C167.128 162.703 164.799 172.163 163.624 172.381C161.685 172.758 158.532 171.241 156.636 169.323C154.345 167.001 153.997 166.897 156.313 164.198C158.63 161.5 162.598 157.655 162.598 157.655Z" fill="#F99D22"/>
<path d="M150.095 153.443C151.258 153.038 168.669 149.364 168.954 149.707C169.309 150.127 161.001 158.397 157.924 161.125C154.846 163.852 154.108 165.364 152.502 163.622C150.895 161.881 147.901 154.218 150.095 153.443Z" fill="#F99D22"/>
<path d="M151.127 141.844C152.324 142.052 168.192 147.606 168.698 147.975C169.204 148.345 168.981 148.893 167.861 149.132C166.741 149.371 150.491 153.215 149.489 152.735C148.487 152.256 148.678 141.407 151.127 141.844Z" fill="#F99D22"/>
<path d="M194.752 156.253C194.752 156.253 190.822 179.792 163.414 175.801C155.231 174.609 145.811 164.223 146.054 150.301C146.181 142.895 148.018 140.162 148.018 140.162L148.713 140.408C148.167 142.26 146.63 148.098 147.235 153.62C148.178 162.193 154.25 171.389 160.23 173.616C160.23 173.616 167.89 176.012 173.392 174.944C184.396 172.807 190.298 167.677 193.874 155.945L194.771 156.254L194.752 156.253Z" fill="#F99D22"/>
<path d="M544.552 225.393C544.48 222.952 544.3 220.344 547.004 218.237C544.336 216.514 541.503 217.369 539.224 219.054C538.925 217.202 538.397 215.232 540.183 213.267C537.178 211.876 534.46 214.611 533.15 217.098C530.529 215.819 526.628 215.126 525.074 217.917C527.728 218.506 528.562 220.398 529.478 222.044C526.584 221.94 523.748 222.821 522.684 225.711C526.183 225.917 527.687 228.112 529.152 230.109C527.092 231.164 525.497 232.934 525.425 235.601C529.476 234.254 531.632 237.109 534.104 238.55C536.335 239.858 538.905 239.253 540.17 237.237C542.448 238.164 544.904 237.236 545.871 234.925C546.956 232.384 546.9 228.877 551.019 227.706C549.286 225.598 546.907 225.07 544.569 225.357L544.552 225.393Z" fill="#8CC747"/>
<path d="M561.758 251.015C564.635 259.286 560.059 268.12 551.555 270.737C543.038 273.366 533.802 268.79 530.925 260.519C528.049 252.247 524.939 237.744 538.604 233.533C551.694 229.494 558.882 242.743 561.758 251.015Z" fill="#FCAF17"/>
<path d="M557.117 254.853C556.93 254.907 556.787 255.018 556.69 255.186C556.115 256.298 554.711 256.728 553.559 256.159C553.194 255.985 552.767 256.112 552.582 256.462C552.412 256.801 552.554 257.218 552.904 257.403C554.77 258.331 557.043 257.637 557.973 255.836C558.144 255.497 558.002 255.08 557.652 254.895C557.47 254.807 557.278 254.796 557.091 254.85L557.117 254.853Z" fill="black"/>
<path d="M548.017 257.663C547.831 257.717 547.688 257.828 547.59 257.996C547.016 259.108 545.612 259.537 544.46 258.969C544.095 258.795 543.668 258.921 543.483 259.272C543.313 259.611 543.454 260.027 543.805 260.213C545.671 261.141 547.944 260.446 548.874 258.645C549.045 258.306 548.903 257.889 548.553 257.704C548.37 257.617 548.179 257.606 547.992 257.66L548.017 257.663Z" fill="black"/>
<path d="M538.911 260.455C538.724 260.509 538.582 260.62 538.484 260.788C537.909 261.9 536.505 262.329 535.353 261.761C534.989 261.587 534.562 261.713 534.377 262.064C534.206 262.403 534.348 262.819 534.698 263.005C536.565 263.933 538.838 263.238 539.768 261.437C539.938 261.098 539.796 260.681 539.446 260.496C539.264 260.409 539.072 260.398 538.886 260.452L538.911 260.455Z" fill="black"/>
<path d="M552.883 242.634C552.696 242.688 552.554 242.799 552.456 242.967C551.881 244.079 550.477 244.508 549.325 243.94C548.961 243.765 548.533 243.892 548.349 244.242C548.178 244.581 548.32 244.998 548.67 245.183C550.537 246.111 552.809 245.417 553.739 243.616C553.91 243.277 553.768 242.86 553.418 242.675C553.236 242.588 553.044 242.577 552.857 242.631L552.883 242.634Z" fill="black"/>
<path d="M543.771 245.453C543.584 245.507 543.442 245.618 543.344 245.786C542.769 246.898 541.366 247.328 540.214 246.759C539.849 246.585 539.422 246.712 539.237 247.062C539.066 247.401 539.208 247.817 539.558 248.003C541.425 248.931 543.698 248.236 544.628 246.435C544.798 246.096 544.657 245.68 544.306 245.494C544.124 245.407 543.933 245.396 543.746 245.45L543.771 245.453Z" fill="black"/>
<path d="M534.673 248.262C534.486 248.316 534.344 248.426 534.246 248.594C533.672 249.707 532.268 250.136 531.116 249.568C530.751 249.393 530.324 249.52 530.139 249.87C529.969 250.209 530.11 250.626 530.46 250.811C532.327 251.739 534.6 251.045 535.53 249.244C535.7 248.905 535.559 248.488 535.208 248.303C535.026 248.216 534.835 248.205 534.648 248.259L534.673 248.262Z" fill="black"/>
<path d="M550.958 249.947C550.771 250.001 550.629 250.112 550.531 250.279C550.26 250.812 549.772 251.214 549.184 251.398C548.595 251.582 547.958 251.528 547.401 251.253C547.036 251.078 546.609 251.205 546.424 251.555C546.253 251.894 546.395 252.311 546.745 252.496C547.642 252.943 548.673 253.033 549.635 252.741C550.598 252.45 551.373 251.8 551.826 250.943C551.996 250.604 551.855 250.187 551.505 250.002C551.322 249.915 551.131 249.904 550.944 249.958L550.958 249.947Z" fill="black"/>
<path d="M541.852 252.739C541.665 252.793 541.523 252.904 541.425 253.072C540.85 254.184 539.446 254.614 538.294 254.045C537.93 253.871 537.502 253.998 537.318 254.348C537.147 254.687 537.289 255.103 537.639 255.289C539.506 256.217 541.778 255.523 542.708 253.721C542.879 253.382 542.737 252.966 542.387 252.78C542.205 252.693 542.013 252.682 541.826 252.736L541.852 252.739Z" fill="black"/>
<path d="M542.776 239.475C542.59 239.529 542.447 239.64 542.349 239.808C542.179 240.147 542.32 240.563 542.671 240.748C543.568 241.195 544.599 241.285 545.561 240.994C546.523 240.702 547.298 240.052 547.751 239.195C547.922 238.856 547.78 238.44 547.43 238.254C547.065 238.08 546.638 238.207 546.453 238.557C546.182 239.089 545.695 239.492 545.106 239.676C544.517 239.86 543.881 239.806 543.323 239.53C543.141 239.443 542.949 239.432 542.762 239.486L542.776 239.475Z" fill="black"/>
<path d="M537.787 241.006C537.601 241.06 537.458 241.171 537.36 241.339C536.786 242.451 535.382 242.88 534.23 242.312C533.865 242.137 533.438 242.264 533.253 242.614C533.083 242.953 533.224 243.37 533.575 243.555C535.441 244.483 537.714 243.789 538.644 241.988C538.815 241.649 538.673 241.232 538.323 241.047C538.141 240.96 537.949 240.949 537.762 241.003L537.787 241.006Z" fill="black"/>
<path d="M554.95 261.416C554.763 261.47 554.621 261.581 554.523 261.749C554.251 262.282 553.764 262.684 553.175 262.868C552.587 263.052 551.95 262.998 551.392 262.722C551.028 262.548 550.6 262.675 550.416 263.025C550.245 263.364 550.387 263.781 550.737 263.966C551.634 264.413 552.665 264.503 553.627 264.211C554.589 263.92 555.364 263.27 555.817 262.413C555.988 262.074 555.846 261.657 555.496 261.472C555.314 261.385 555.122 261.374 554.936 261.428L554.95 261.416Z" fill="black"/>
<path d="M545.855 264.223C545.668 264.277 545.525 264.387 545.428 264.555C544.853 265.668 543.449 266.097 542.297 265.528C541.933 265.354 541.505 265.481 541.32 265.831C541.15 266.17 541.292 266.587 541.642 266.772C543.509 267.7 545.781 267.006 546.711 265.205C546.882 264.866 546.74 264.449 546.39 264.264C546.208 264.177 546.016 264.166 545.829 264.219L545.855 264.223Z" fill="black"/>
<path d="M516.93 211.928C517.361 214.006 516.337 215.633 514.315 216.084C510.887 216.856 505.912 213.67 505.165 210.202C504.648 207.837 506.603 205.544 509.14 205.532C512.215 205.492 516.296 208.859 516.947 211.924L516.93 211.928ZM514.937 212.713C514.786 210.022 511.007 207.418 508.594 208.015C507.949 208.17 507.345 209.133 507.492 209.745C508.053 212.082 511.462 214.28 513.847 213.708C514.33 213.592 514.947 212.966 514.937 212.713Z" fill="white"/>
<path d="M494.521 223.018C492.011 223.211 489.451 221.354 488.987 218.994C488.645 217.287 489.689 216.099 491.461 216.168C493.921 216.259 495.748 217.337 496.695 219.65C497.437 221.465 496.496 222.868 494.537 223.014L494.521 223.018ZM494.279 220.451C494.72 219.374 494.118 218.785 493.432 218.268C492.785 217.776 492.389 217.973 491.639 219.108C492.282 220.01 493.055 220.677 494.279 220.451Z" fill="white"/>
<path d="M503.604 230.04C505.868 229.888 507.999 231.592 508.332 233.83C508.502 234.966 507.704 236.043 506.553 236.218C504.311 236.534 501.75 234.814 501.188 232.614C500.859 231.312 501.943 230.149 503.604 230.04ZM506.014 233.688C506.121 232.503 505.439 232.002 504.662 231.609C504.49 231.531 504.16 231.576 504.022 231.712C503.868 231.851 503.7 232.215 503.787 232.365C504.253 233.242 504.85 233.951 506.034 233.7L506.014 233.688Z" fill="white"/>
<path d="M109.506 174.031C110.767 172.522 112.329 171.326 113.967 170.245C117.848 167.712 122.07 166.037 126.667 165.379C127.477 165.256 128.294 165.238 129.11 165.22C129.611 165.222 130.107 165.399 130.334 165.878C130.62 166.481 130.319 166.993 129.881 167.396C129.46 167.791 129.03 168.168 128.584 168.51C125.658 170.721 122.774 173.022 119.763 175.1C117.687 176.539 115.45 177.73 113.264 178.983C112.322 179.516 111.299 179.74 110.201 179.76C108.402 179.766 107.307 178.374 107.939 176.315C108.32 175.744 108.858 174.816 109.542 174.014L109.506 174.031ZM113.612 176.234C115.585 175.081 117.507 173.867 119.403 172.599C121.897 170.896 124.34 169.131 126.782 167.365C126.961 167.238 127.079 167.029 127.241 166.866C127.049 166.783 126.912 166.631 126.797 166.663C121.389 167.945 116.487 170.202 112.368 174.021C111.598 174.734 110.957 175.58 110.307 176.409C110.29 176.418 110.28 176.444 110.271 176.47C110.025 176.913 110.435 177.413 110.92 177.335C111.924 177.163 112.794 176.708 113.612 176.234Z" fill="white"/>
<path d="M134.338 155.447C132.224 155.341 130.11 155.278 127.988 155.154C124.06 154.931 120.22 154.296 116.575 152.745C115.357 152.236 114.221 151.58 113.4 150.535C112.46 149.33 112.761 147.95 114.076 147.24C114.493 147.021 114.979 146.856 115.455 146.76C116.09 146.633 116.741 146.542 117.399 146.556C124.298 146.632 130.181 149.425 135.583 153.446C136.369 154.05 136.017 155.325 135.031 155.444C134.846 155.467 134.645 155.453 134.329 155.429L134.338 155.447ZM132.063 152.616C127.866 150.175 123.416 148.483 118.495 148.317C117.609 148.281 116.719 148.42 115.838 148.577C115.82 148.585 115.803 148.594 115.785 148.602C115.369 148.734 115.261 149.284 115.597 149.581C116.501 150.434 117.222 150.809 118.599 151.242C121.094 152.015 123.636 152.569 126.239 152.791C128.166 152.964 130.114 153.04 132.288 153.183C132.121 152.74 132.123 152.652 132.089 152.625L132.063 152.616Z" fill="white"/>
<path d="M139.377 176.621C138.767 178.908 138.201 181.196 137.486 183.445C136.705 185.922 135.828 188.379 134.968 190.827C134.51 192.152 133.739 193.32 132.744 194.291C131.22 195.795 129.127 195.18 128.6 193.106C128.519 192.797 128.464 192.454 128.506 192.13C128.695 190.694 128.77 189.204 129.195 187.808C130.131 184.65 131.797 181.841 133.748 179.223C134.86 177.719 136.109 176.323 137.359 174.928C137.503 174.773 137.647 174.618 137.799 174.48C138.604 173.751 139.862 174.48 139.646 175.538C139.577 175.896 139.456 176.236 139.369 176.603L139.377 176.621ZM136.319 178.048C134.08 180.977 132.239 184.15 131.103 187.664C130.746 188.745 130.547 189.882 130.4 190.994C130.398 191.081 130.37 191.16 130.369 191.248C130.26 192.211 131.595 192.599 132.026 191.722C132.742 190.253 133.536 188.813 134.069 187.279C135.07 184.351 135.915 181.367 136.812 178.401C136.822 178.331 136.832 178.261 136.842 178.191C136.83 177.936 136.491 177.815 136.328 178.022L136.319 178.048Z" fill="white"/>
<path d="M110.006 244.03C111.883 243.938 113.532 242.267 113.326 240.642C113.074 238.559 111.265 236.933 109.297 237.002C107.58 237.071 105.977 238.788 106 240.505C106.046 242.519 107.877 244.144 110.006 244.03Z" fill="white"/>
<path d="M240.006 45.0298C241.883 44.9382 243.532 43.2672 243.326 41.6419C243.074 39.5587 241.265 37.9334 239.297 38.0021C237.58 38.0708 235.977 39.7876 236 41.5045C236.046 43.519 237.877 45.1443 240.006 45.0298Z" fill="white"/>
<path d="M454.467 105.744C449.974 105.961 446.746 107.51 443.424 108.662C440.16 109.813 437.131 111.666 433.938 112.677C432.918 111.438 433.701 110.805 434.204 110.383C439.406 105.987 445.393 102.948 451.78 100.751C452.88 100.363 454.097 100.209 455.29 100.161C458.193 100.028 460.231 101.746 460.411 104.73C460.531 106.66 460.042 108.639 459.951 110.582C459.894 111.869 460.071 113.156 460.132 114.502C462.637 114.99 464.379 113.841 466.228 113.358C468.907 112.676 471.527 111.701 474.229 111.264C478.512 110.591 481.112 112.355 481.914 116.672C482.327 118.954 482.272 121.411 481.889 123.706C481.459 126.211 480.374 128.623 479.546 131.047C479.418 131.421 479.185 131.773 478.928 132.054C478.238 132.792 477.35 133.461 476.366 132.912C475.769 132.585 475.135 131.743 475.099 131.111C474.979 128.537 475.116 125.974 475.112 123.399C475.122 121.854 475.038 120.321 475 118.461C473.736 118.591 472.753 118.51 471.864 118.769C469.957 119.31 468.121 120.062 466.238 120.673C464.916 121.096 463.606 121.554 462.237 121.778C456.035 122.723 452.766 119.544 453.413 113.318C453.528 112.147 453.842 110.988 454.016 109.818C454.179 108.67 454.306 107.535 454.526 105.744L454.467 105.744Z" fill="white"/>
<path d="M66.006 196.03C67.8831 195.938 69.5313 194.267 69.3253 192.642C69.0735 190.559 67.2651 188.933 65.2964 189.002C63.5795 189.071 61.9771 190.788 62 192.505C62.0458 194.519 63.8771 196.144 66.006 196.03Z" fill="white"/>
<path d="M375.503 66.232C371.277 75.4718 376.072 85.0284 385.363 89.4057C394.653 93.7831 404.945 91.3179 409.17 82.0781C413.395 72.8383 410.762 60.3565 398.971 59.6591C391.501 51.1471 379.741 57.003 375.516 66.2428" fill="#C10230"/>
<path d="M397.667 63.649C398.059 63.8415 398.537 63.6644 398.716 63.262C401.709 56.7041 398.782 48.8295 392.176 45.7087C391.773 45.5293 391.307 45.6933 391.114 46.0848C390.935 46.4872 391.112 46.9648 391.514 47.1443C397.324 49.8692 399.91 56.7994 397.254 62.5786C397.075 62.981 397.252 63.4587 397.654 63.6381" fill="#262626"/>
<path d="M397.205 63.8623C398.706 64.5781 400.388 64.6505 401.927 64.0973C402.336 63.9508 402.545 63.4854 402.399 63.0772C402.252 62.669 401.785 62.4354 401.366 62.5949C400.224 63.0146 398.976 62.9501 397.867 62.4267C396.758 61.9033 395.912 60.9817 395.48 59.8288C395.32 59.4098 394.865 59.187 394.446 59.3466C394.038 59.4931 393.829 59.9585 393.975 60.3667C394.554 61.9277 395.707 63.1702 397.194 63.8753" fill="#262626"/>
</g>
<defs>
<clipPath id="clip0_159_31162">
<rect width="586" height="405" fill="white"/>
</clipPath>
</defs>
</svg>
