<svg width="274" height="320" viewBox="0 0 274 320" fill="none" xmlns="http://www.w3.org/2000/svg">
<g clip-path="url(#clip0_159_31230)">
<g opacity="0.3">
<path d="M246.601 290.126C244.762 288.603 242.829 287.181 240.747 285.938C240.216 285.609 239.372 285.884 239.039 286.452C238.726 287.056 238.918 287.764 239.508 288.109C239.98 288.423 240.491 288.715 240.963 289.029C241.199 289.185 241.435 289.342 241.672 289.499C241.771 289.588 241.908 289.656 242.007 289.745C241.849 289.64 242.164 289.849 242.007 289.745C242.047 289.818 242.164 289.849 242.185 289.886C243.091 290.534 243.98 291.24 244.869 291.947C245.344 292.355 246.157 292.384 246.627 291.884C247.06 291.405 247.116 290.607 246.621 290.162L246.601 290.126Z" fill="white"/>
<path d="M244.415 293.826C242.582 291.774 240.504 290 238.239 288.427C238.003 288.27 237.558 288.276 237.289 288.33C237.002 288.441 236.679 288.667 236.569 288.92C236.238 289.582 236.467 290.174 237.038 290.577C237.216 290.718 236.998 290.503 237.059 290.613C237.099 290.687 237.216 290.718 237.295 290.77C237.432 290.838 237.551 290.964 237.65 291.053C237.907 291.246 238.163 291.44 238.42 291.633C238.933 292.02 239.428 292.465 239.923 292.91C240.893 293.763 241.807 294.694 242.683 295.647C243.102 296.134 244.009 296.063 244.442 295.584C244.93 295.027 244.874 294.386 244.435 293.863L244.415 293.826Z" fill="white"/>
<path d="M241.358 297.483C239.178 294.712 236.638 292.284 233.723 290.256C233.21 289.869 232.31 290.223 232.015 290.77C231.684 291.432 231.912 292.024 232.484 292.427C232.347 292.359 232.524 292.5 232.583 292.516C232.661 292.568 232.74 292.62 232.839 292.709C232.997 292.814 233.174 292.955 233.352 293.096C233.688 293.342 233.964 293.572 234.3 293.818C234.932 294.331 235.526 294.864 236.12 295.398C236.676 295.953 237.233 296.508 237.789 297.062C238.068 297.387 238.327 297.675 238.606 298C238.647 298.073 238.687 298.146 238.766 298.199C238.685 298.052 238.807 298.272 238.827 298.309C238.929 298.492 239.127 298.67 239.266 298.832C239.647 299.341 240.389 299.601 240.958 299.19C241.472 298.858 241.818 298.043 241.379 297.52L241.358 297.483Z" fill="white"/>
<path d="M236.668 298.547C233.819 296.099 230.743 293.871 227.444 291.96C226.875 291.652 226.069 291.906 225.736 292.474C225.385 293.099 225.616 293.786 226.205 294.131C229.288 295.923 232.224 297.988 234.916 300.332C235.411 300.776 236.184 300.732 236.675 300.269C237.107 299.79 237.163 298.992 236.668 298.547Z" fill="white"/>
<path d="M229.14 299.885C226.754 297.372 224.026 295.144 221.133 293.246C220.602 292.917 219.721 293.214 219.425 293.76C219.095 294.423 219.323 295.015 219.894 295.418C220.603 295.888 221.154 296.254 221.825 296.745C222.495 297.237 223.128 297.75 223.78 298.299C225.065 299.361 226.256 300.523 227.409 301.706C227.866 302.172 228.735 302.122 229.167 301.643C229.617 301.106 229.638 300.424 229.161 299.921L229.14 299.885Z" fill="white"/>
<path d="M222.738 302.086C220.527 298.901 217.691 296.205 214.404 294.047C213.853 293.681 213.029 293.993 212.696 294.561C212.345 295.186 212.614 295.852 213.165 296.218C216 298.1 218.638 300.617 220.588 303.42C220.968 303.928 221.69 304.151 222.28 303.777C222.852 303.461 223.081 302.615 222.7 302.107L222.738 302.086Z" fill="white"/>
<path d="M216.813 301.819C214.118 299.381 211.312 297.1 208.356 294.999C207.805 294.633 207.106 294.54 206.597 295.061C206.183 295.482 206.091 296.396 206.604 296.783C209.56 298.885 212.405 301.144 215.061 303.604C215.556 304.048 216.328 304.004 216.819 303.541C217.29 303.041 217.27 302.285 216.813 301.819Z" fill="white"/>
<path d="M212.028 302.982C209.395 300.654 206.782 298.362 204.148 296.034C203.673 295.626 202.86 295.597 202.39 296.097C201.958 296.576 201.901 297.373 202.396 297.818C205.03 300.147 207.643 302.438 210.276 304.767C210.751 305.175 211.564 305.204 212.035 304.704C212.467 304.225 212.523 303.427 212.028 302.982Z" fill="white"/>
<path d="M204.143 306.195C201.787 303.378 199.07 300.808 196.091 298.575C195.578 298.188 194.841 298.117 194.333 298.638C193.88 299.08 193.826 299.973 194.339 300.36C197.318 302.593 199.977 305.147 202.391 307.979C202.81 308.466 203.735 308.338 204.15 307.917C204.658 307.396 204.562 306.682 204.143 306.195Z" fill="white"/>
<path d="M197.092 306.505C195.011 303.823 192.703 301.363 190.092 299.166C189.617 298.758 188.804 298.728 188.334 299.228C187.901 299.707 187.845 300.505 188.34 300.95C190.773 303.006 193.04 305.393 194.922 307.802C195.302 308.31 196.044 308.571 196.614 308.16C197.127 307.828 197.435 307.034 197.034 306.489L197.092 306.505Z" fill="white"/>
<path d="M191.042 306.643C188.676 304.166 186.121 301.89 183.361 299.872C182.848 299.485 182.111 299.414 181.602 299.935C181.208 300.392 181.075 301.233 181.609 301.656C184.369 303.675 186.924 305.951 189.291 308.427C189.748 308.893 190.617 308.843 191.049 308.364C191.499 307.827 191.52 307.145 191.042 306.643Z" fill="white"/>
<path d="M185.605 306.536C182.864 304.555 180.31 302.279 178.04 299.797C177.621 299.31 176.713 299.381 176.281 299.86C175.793 300.417 175.848 301.058 176.288 301.581C178.558 304.063 181.112 306.339 183.853 308.32C184.366 308.707 185.103 308.779 185.611 308.258C186.005 307.8 186.138 306.96 185.605 306.536Z" fill="white"/>
<path d="M178.235 308.698C176.191 305.995 173.713 303.677 170.84 301.817C170.309 301.487 169.427 301.784 169.132 302.33C168.801 302.993 169.03 303.585 169.601 303.988C169.759 304.092 169.916 304.197 170.074 304.301C170.152 304.354 170.231 304.406 170.31 304.458C170.33 304.495 170.546 304.615 170.388 304.51C170.703 304.719 171.039 304.965 171.315 305.195C171.928 305.671 172.501 306.168 173.096 306.702C173.631 307.22 174.188 307.775 174.685 308.314C174.805 308.44 174.944 308.602 175.084 308.765C175.124 308.838 175.185 308.948 175.264 309C175.523 309.288 175.203 308.89 175.305 309.074C175.584 309.398 175.805 309.707 176.046 310.053C176.427 310.561 177.169 310.821 177.738 310.41C178.252 310.078 178.56 309.285 178.158 308.74L178.235 308.698Z" fill="white"/>
<path d="M172.845 309.67C170.733 307.293 168.3 305.237 165.567 303.538C165.036 303.209 164.154 303.506 163.859 304.052C163.508 304.678 163.756 305.307 164.328 305.71C164.643 305.919 164.958 306.128 165.273 306.337C165.351 306.389 165.43 306.441 165.509 306.494C165.509 306.494 165.765 306.687 165.666 306.598C165.588 306.546 165.844 306.739 165.824 306.703C165.865 306.776 165.961 306.77 166.002 306.844C166.614 307.32 167.226 307.796 167.8 308.293C168.948 309.287 170.039 310.36 171.055 311.475C171.474 311.962 172.381 311.891 172.813 311.412C173.302 310.854 173.246 310.214 172.807 309.691L172.845 309.67Z" fill="white"/>
<path d="M165.828 309.049C163.628 307.055 161.371 305.046 159.172 303.053C158.697 302.644 157.884 302.615 157.413 303.115C156.981 303.594 156.925 304.392 157.42 304.837C159.619 306.83 161.877 308.84 164.076 310.833C164.551 311.241 165.364 311.271 165.834 310.771C166.266 310.292 166.323 309.494 165.828 309.049Z" fill="white"/>
<path d="M160.396 309.944C158.339 307.488 156.171 305.19 153.774 303.019C153.299 302.61 152.486 302.581 152.015 303.081C151.545 303.581 151.527 304.358 152.022 304.803C154.361 306.959 156.588 309.272 158.644 311.728C159.063 312.215 159.988 312.087 160.403 311.666C160.891 311.108 160.835 310.468 160.396 309.944Z" fill="white"/>
<path d="M155.818 310.132C154.124 308.242 152.392 306.373 150.699 304.483C150.28 303.996 149.373 304.067 148.94 304.545C148.452 305.103 148.508 305.743 148.947 306.267L154.066 311.916C154.485 312.403 155.392 312.332 155.824 311.853C156.312 311.296 156.257 310.656 155.818 310.132Z" fill="white"/>
<path d="M151.566 310.998C150.733 310.213 149.918 309.371 149.2 308.522C149.139 308.412 149.04 308.323 148.941 308.234C148.9 308.161 148.88 308.124 148.839 308.051C148.738 307.868 148.778 307.941 148.839 308.051C148.659 307.815 148.499 307.616 148.319 307.381C147.958 306.909 147.618 306.474 147.258 306.003C146.877 305.495 146.135 305.235 145.566 305.646C145.014 305.999 144.744 306.771 145.145 307.316C146.59 309.296 148.167 311.155 149.931 312.814C150.368 313.243 151.257 313.23 151.69 312.751C152.16 312.251 152.14 311.495 151.683 311.03L151.566 310.998Z" fill="white"/>
</g>
<path d="M45.9006 127.278C45.9006 127.278 49.4579 131.463 60.4903 130.756C68.4877 130.244 73.171 125.571 75.2455 122.04C76.283 120.268 76.6711 118.186 76.3108 116.164C76.1054 115.052 75.8169 114.683 75.7176 114.651C75.3457 115.026 57.2157 126.695 45.9006 127.278Z" fill="#F78C1E"/>
<path d="M75.7321 114.637C75.7321 114.637 72.6873 132.873 51.4536 129.782C45.1135 128.858 37.8153 120.811 38.0036 110.025C38.1025 104.288 39.5251 102.17 39.5251 102.17L40.0639 102.361L75.0516 114.398L75.7465 114.638L75.7321 114.637Z" fill="white"/>
<path d="M59.4778 109.895C59.3763 110.753 67.804 120.159 68.6708 120.821C69.5376 121.482 71.0459 121.032 72.6234 118.174C74.201 115.315 74.2131 114.555 72.8084 114.09C71.3464 113.623 59.5641 109.066 59.4778 109.895Z" fill="#F99D22"/>
<path d="M58.6003 112.865C58.6003 112.865 57.9672 110.848 58.2791 110.543C58.5911 110.238 59.7548 111.858 62.6421 115.087C65.5294 118.316 68.8858 121.676 68.7189 122.761C68.4055 124.759 64.6839 126.539 63.0799 126.44C61.476 126.341 61.8721 125.68 61.0578 122.681C60.2435 119.682 58.586 112.865 58.586 112.865L58.6003 112.865Z" fill="#F99D22"/>
<path d="M57.3441 111.041C57.7341 110.969 58.162 113.524 58.698 116.686C59.2108 119.689 61.4437 126.469 60.6006 127.602C59.8326 128.637 56.2188 128.555 54.698 128.129C53.1767 127.717 53.8011 125.442 54.0536 123.959C54.3204 122.475 56.9393 111.128 57.3293 111.055L57.3441 111.041Z" fill="#F99D22"/>
<path d="M50.8212 115.723C50.8212 115.723 55.8571 109.985 56.6059 110.327C56.8743 110.451 55.5815 115.028 54.9561 117.331C54.3306 119.634 52.5259 126.963 51.6159 127.132C50.1131 127.424 47.6712 126.249 46.2015 124.762C44.427 122.964 44.1571 122.883 45.952 120.793C47.7468 118.702 50.8212 115.723 50.8212 115.723Z" fill="#F99D22"/>
<path d="M41.1345 112.459C42.0352 112.146 55.5244 109.3 55.7448 109.566C56.0205 109.891 49.5835 116.298 47.1995 118.411C44.8154 120.524 44.2437 121.695 42.9989 120.346C41.7541 118.997 39.4345 113.061 41.1345 112.459Z" fill="#F99D22"/>
<path d="M41.934 103.474C42.8613 103.635 55.1548 107.937 55.5467 108.224C55.9386 108.51 55.766 108.934 54.8984 109.12C54.0309 109.305 41.4413 112.283 40.6649 111.911C39.8884 111.54 40.037 103.135 41.934 103.474Z" fill="#F99D22"/>
<path d="M75.7321 114.637C75.7321 114.637 72.6873 132.873 51.4536 129.782C45.1135 128.858 37.8153 120.811 38.0036 110.025C38.1025 104.288 39.5251 102.17 39.5251 102.17L40.0639 102.361C39.6409 103.796 38.4504 108.319 38.9188 112.597C39.6496 119.239 44.3534 126.363 48.9865 128.088C48.9865 128.088 54.921 129.945 59.1836 129.117C67.7087 127.462 72.2815 123.487 75.0516 114.398L75.7465 114.638L75.7321 114.637Z" fill="#F99D22"/>
<path d="M11.6884 125.41C12.6653 124.241 13.875 123.314 15.1441 122.478C18.1508 120.515 21.4223 119.217 24.9832 118.707C25.6109 118.612 26.2436 118.598 26.8764 118.584C27.264 118.586 27.6487 118.723 27.8245 119.094C28.0458 119.561 27.8131 119.957 27.4732 120.27C27.1471 120.576 26.8145 120.868 26.4688 121.133C24.2018 122.846 21.9674 124.628 19.6347 126.238C18.0265 127.354 16.2931 128.276 14.5996 129.247C13.8699 129.66 13.0773 129.833 12.2269 129.849C10.8326 129.854 9.98493 128.775 10.4743 127.18C10.7694 126.737 11.1859 126.019 11.7159 125.397L11.6884 125.41ZM14.8691 127.117C16.3977 126.224 17.8866 125.283 19.356 124.301C21.2882 122.982 23.1806 121.614 25.073 120.246C25.2111 120.147 25.3029 119.986 25.428 119.859C25.2798 119.795 25.1734 119.677 25.0845 119.702C20.8946 120.695 17.0967 122.444 13.9056 125.403C13.3091 125.955 12.8123 126.611 12.309 127.253C12.2953 127.259 12.2881 127.28 12.2809 127.3C12.09 127.643 12.4082 128.03 12.7835 127.97C13.5617 127.837 14.2356 127.484 14.8691 127.117Z" fill="white"/>
<path d="M30.9263 111.012C29.2891 110.93 27.6511 110.882 26.0073 110.785C22.9642 110.612 19.989 110.121 17.1649 108.918C16.2212 108.524 15.341 108.016 14.7052 107.207C13.9769 106.273 14.2104 105.204 15.2286 104.654C15.5518 104.484 15.9285 104.356 16.2973 104.282C16.7891 104.184 17.2939 104.113 17.8037 104.124C23.1479 104.183 27.7063 106.347 31.8908 109.461C32.4998 109.93 32.2273 110.917 31.4636 111.01C31.3204 111.027 31.1643 111.017 30.9198 110.998L30.9263 111.012ZM29.1637 108.819C25.9121 106.927 22.4647 105.617 18.6521 105.488C17.9658 105.46 17.2766 105.568 16.594 105.69C16.5802 105.696 16.5665 105.703 16.5528 105.709C16.231 105.811 16.1471 106.238 16.4075 106.468C17.1076 107.129 17.6659 107.419 18.7333 107.755C20.6657 108.353 22.6357 108.783 24.6519 108.955C26.1452 109.088 27.6538 109.147 29.338 109.258C29.2093 108.915 29.2107 108.847 29.184 108.826L29.1637 108.819Z" fill="white"/>
<path d="M34.8308 127.417C34.358 129.188 33.9192 130.961 33.3655 132.704C32.7604 134.622 32.0808 136.526 31.4149 138.423C31.06 139.449 30.4627 140.354 29.6919 141.107C28.5111 142.272 26.889 141.795 26.4809 140.189C26.418 139.949 26.3761 139.683 26.4086 139.432C26.5545 138.32 26.613 137.165 26.9419 136.084C27.667 133.637 28.9576 131.461 30.4695 129.432C31.3307 128.267 32.2989 127.186 33.2671 126.105C33.3785 125.985 33.4899 125.865 33.6077 125.758C34.2318 125.194 35.2059 125.758 35.039 126.578C34.9855 126.855 34.8915 127.119 34.8243 127.403L34.8308 127.417ZM32.4611 128.523C30.7264 130.791 29.3006 133.25 28.42 135.972C28.1439 136.81 27.9892 137.691 27.8758 138.552C27.8743 138.62 27.8526 138.681 27.8512 138.749C27.7674 139.495 28.8016 139.796 29.1356 139.116C29.6901 137.978 30.3054 136.862 30.7182 135.674C31.494 133.405 32.1482 131.093 32.8429 128.796C32.8509 128.742 32.8588 128.687 32.8668 128.633C32.8574 128.436 32.5941 128.342 32.4683 128.502L32.4611 128.523Z" fill="white"/>
<path d="M37.0063 182.03C38.8834 181.938 40.5316 180.267 40.3256 178.642C40.0738 176.559 38.2653 174.933 36.2966 175.002C34.5798 175.071 32.9774 176.788 33.0003 178.505C33.046 180.519 34.8774 182.144 37.0063 182.03Z" fill="white"/>
<path d="M95.0063 31.0298C96.8834 30.9382 98.5316 29.2672 98.3256 27.6419C98.0738 25.5587 96.2653 23.9334 94.2966 24.0021C92.5798 24.0708 90.9774 25.7876 91.0003 27.5045C91.046 29.519 92.8774 31.1443 95.0063 31.0298Z" fill="white"/>
<path d="M201.268 47.15C197.656 55.0487 201.755 63.2181 209.697 66.96C217.639 70.702 226.437 68.5947 230.049 60.696C233.661 52.7974 231.41 42.1274 221.33 41.5312C214.944 34.2547 204.892 39.2607 201.28 47.1593" fill="#C10230"/>
<path d="M220.216 44.942C220.55 45.1066 220.959 44.9552 221.112 44.6112C223.671 39.0052 221.168 32.2737 215.521 29.6058C215.177 29.4524 214.778 29.5926 214.614 29.9273C214.46 30.2713 214.612 30.6796 214.956 30.833C219.922 33.1625 222.133 39.0867 219.863 44.0271C219.709 44.371 219.861 44.7793 220.205 44.9327" fill="#262626"/>
<path d="M219.821 45.1242C221.104 45.7362 222.541 45.798 223.857 45.3252C224.206 45.1999 224.385 44.802 224.26 44.4531C224.135 44.1042 223.735 43.9045 223.377 44.0408C222.401 44.3996 221.334 44.3444 220.386 43.897C219.438 43.4496 218.715 42.6618 218.345 41.6763C218.209 41.3181 217.82 41.1276 217.462 41.264C217.113 41.3892 216.934 41.7871 217.059 42.1361C217.554 43.4705 218.539 44.5327 219.811 45.1354" fill="#262626"/>
<path d="M240.303 76.0849C237.1 76.2395 234.799 77.3439 232.431 78.1647C230.104 78.9855 227.945 80.3066 225.669 81.0272C224.942 80.1439 225.5 79.6926 225.858 79.3918C229.566 76.2582 233.835 74.0916 238.388 72.5252C239.172 72.2488 240.039 72.1392 240.89 72.1046C242.959 72.01 244.412 73.2344 244.54 75.3616C244.625 76.738 244.277 78.1484 244.212 79.5334C244.172 80.4511 244.298 81.3686 244.341 82.328C246.127 82.6759 247.369 81.8566 248.687 81.5128C250.596 81.0263 252.464 80.3312 254.391 80.0199C257.444 79.5401 259.297 80.7973 259.869 83.875C260.163 85.5014 260.124 87.2534 259.851 88.8889C259.545 90.6747 258.771 92.3943 258.181 94.1221C258.09 94.3892 257.923 94.6397 257.74 94.8401C257.249 95.3664 256.615 95.8428 255.914 95.4517C255.488 95.2187 255.037 94.6186 255.011 94.1682C254.925 92.3329 255.023 90.5057 255.02 88.6703C255.027 87.5691 254.967 86.4763 254.94 85.1499C254.039 85.2429 253.338 85.1854 252.705 85.3698C251.345 85.7555 250.036 86.2912 248.694 86.7269C247.751 87.0285 246.818 87.3552 245.842 87.515C241.421 88.1885 239.09 85.9225 239.551 81.4836C239.634 80.6492 239.858 79.823 239.982 78.9886C240.097 78.1709 240.188 77.3615 240.345 76.0848L240.303 76.0849Z" fill="white"/>
<path d="M254.941 185.499C255.125 183.779 255.248 181.931 257.348 180.71C255.639 179.246 253.569 179.575 251.808 180.54C251.776 179.211 251.593 177.777 253.035 176.569C251.058 175.305 248.889 176.965 247.731 178.586C246.014 177.437 243.341 176.577 241.984 178.388C243.791 179.055 244.195 180.463 244.681 181.706C242.659 181.356 240.584 181.703 239.56 183.631C241.997 184.11 242.843 185.794 243.68 187.336C242.133 187.88 240.844 188.97 240.538 190.835C243.511 190.277 244.751 192.488 246.348 193.736C247.789 194.868 249.651 194.689 250.732 193.394C252.243 194.263 254.055 193.846 254.955 192.317C255.96 190.637 256.257 188.17 259.26 187.742C258.245 186.096 256.626 185.498 254.957 185.476L254.941 185.499Z" fill="#8CC747"/>
<path d="M264.569 205.132C265.796 211.213 261.739 216.976 255.519 218C249.289 219.031 243.243 214.935 242.015 208.853C240.788 202.771 239.992 192.294 249.987 190.644C259.563 189.062 263.341 199.05 264.569 205.132Z" fill="#FCAF17"/>
<path d="M260.943 207.382C260.807 207.402 260.696 207.466 260.611 207.575C260.102 208.301 259.075 208.468 258.321 207.958C258.082 207.801 257.769 207.849 257.606 208.078C257.454 208.299 257.514 208.605 257.742 208.769C258.963 209.599 260.625 209.329 261.45 208.154C261.602 207.932 261.543 207.626 261.315 207.462C261.195 207.384 261.062 207.358 260.926 207.378L260.943 207.382Z" fill="black"/>
<path d="M254.287 208.484C254.151 208.504 254.04 208.568 253.955 208.676C253.446 209.402 252.419 209.569 251.665 209.06C251.426 208.903 251.113 208.951 250.95 209.179C250.798 209.401 250.858 209.707 251.086 209.87C252.307 210.7 253.969 210.431 254.794 209.255C254.946 209.033 254.887 208.727 254.659 208.564C254.539 208.485 254.406 208.459 254.269 208.479L254.287 208.484Z" fill="black"/>
<path d="M247.627 209.572C247.491 209.592 247.38 209.656 247.295 209.765C246.786 210.491 245.759 210.658 245.005 210.148C244.766 209.991 244.453 210.039 244.29 210.267C244.138 210.489 244.198 210.795 244.426 210.959C245.647 211.789 247.309 211.519 248.134 210.343C248.287 210.122 248.227 209.816 247.999 209.652C247.879 209.574 247.746 209.548 247.61 209.567L247.627 209.572Z" fill="black"/>
<path d="M259.14 198.399C259.004 198.419 258.893 198.483 258.808 198.592C258.299 199.317 257.272 199.484 256.518 198.975C256.279 198.818 255.966 198.866 255.803 199.094C255.651 199.316 255.711 199.622 255.939 199.785C257.16 200.616 258.822 200.346 259.647 199.17C259.799 198.948 259.74 198.642 259.512 198.479C259.392 198.4 259.259 198.374 259.123 198.394L259.14 198.399Z" fill="black"/>
<path d="M252.474 199.506C252.338 199.526 252.227 199.59 252.143 199.699C251.633 200.425 250.606 200.592 249.852 200.083C249.613 199.925 249.301 199.973 249.137 200.202C248.985 200.423 249.045 200.729 249.273 200.893C250.495 201.723 252.156 201.453 252.982 200.278C253.134 200.056 253.074 199.75 252.846 199.586C252.726 199.508 252.593 199.482 252.457 199.502L252.474 199.506Z" fill="black"/>
<path d="M245.819 200.607C245.683 200.627 245.572 200.691 245.488 200.8C244.978 201.526 243.951 201.693 243.197 201.184C242.958 201.026 242.646 201.075 242.482 201.303C242.33 201.524 242.39 201.83 242.618 201.994C243.84 202.824 245.501 202.554 246.327 201.379C246.479 201.157 246.419 200.851 246.191 200.687C246.071 200.609 245.938 200.583 245.802 200.603L245.819 200.607Z" fill="black"/>
<path d="M257.089 203.348C256.953 203.368 256.842 203.433 256.758 203.541C256.516 203.889 256.136 204.125 255.705 204.198C255.274 204.27 254.832 204.172 254.467 203.925C254.228 203.768 253.916 203.816 253.752 204.044C253.6 204.266 253.66 204.572 253.888 204.735C254.475 205.134 255.19 205.296 255.893 205.184C256.597 205.071 257.203 204.689 257.603 204.131C257.755 203.909 257.696 203.603 257.467 203.44C257.348 203.361 257.214 203.335 257.078 203.355L257.089 203.348Z" fill="black"/>
<path d="M250.43 204.437C250.294 204.457 250.183 204.522 250.098 204.63C249.588 205.356 248.562 205.523 247.808 205.014C247.568 204.856 247.256 204.905 247.093 205.133C246.941 205.354 247 205.66 247.229 205.824C248.45 206.654 250.112 206.384 250.937 205.209C251.089 204.987 251.03 204.681 250.802 204.517C250.682 204.439 250.549 204.413 250.412 204.433L250.43 204.437Z" fill="black"/>
<path d="M252.348 195.215C252.212 195.235 252.101 195.299 252.016 195.408C251.864 195.629 251.924 195.935 252.152 196.099C252.739 196.498 253.454 196.66 254.157 196.547C254.861 196.435 255.467 196.053 255.867 195.495C256.019 195.273 255.959 194.967 255.731 194.803C255.492 194.646 255.18 194.694 255.017 194.922C254.775 195.27 254.395 195.506 253.964 195.579C253.533 195.651 253.091 195.553 252.726 195.306C252.607 195.227 252.473 195.201 252.337 195.221L252.348 195.215Z" fill="black"/>
<path d="M248.699 195.812C248.563 195.832 248.453 195.896 248.368 196.005C247.858 196.73 246.831 196.897 246.077 196.388C245.838 196.231 245.526 196.279 245.363 196.507C245.21 196.729 245.27 197.035 245.498 197.198C246.72 198.029 248.382 197.759 249.207 196.583C249.359 196.362 249.299 196.056 249.071 195.892C248.952 195.813 248.818 195.787 248.682 195.807L248.699 195.812Z" fill="black"/>
<path d="M258.794 211.782C258.658 211.802 258.547 211.866 258.462 211.974C258.221 212.322 257.841 212.558 257.41 212.631C256.979 212.703 256.537 212.605 256.172 212.358C255.933 212.201 255.62 212.249 255.457 212.477C255.305 212.699 255.365 213.005 255.593 213.168C256.18 213.568 256.895 213.73 257.598 213.617C258.302 213.504 258.908 213.122 259.308 212.564C259.46 212.342 259.4 212.036 259.172 211.873C259.053 211.794 258.919 211.768 258.783 211.788L258.794 211.782Z" fill="black"/>
<path d="M252.141 212.881C252.005 212.901 251.894 212.965 251.809 213.074C251.3 213.8 250.273 213.967 249.519 213.458C249.28 213.3 248.967 213.348 248.804 213.577C248.652 213.798 248.712 214.104 248.94 214.268C250.161 215.098 251.823 214.828 252.648 213.653C252.8 213.431 252.741 213.125 252.513 212.961C252.393 212.883 252.26 212.857 252.123 212.877L252.141 212.881Z" fill="black"/>
<path d="M231.632 197.465C231.929 198.898 231.223 200.019 229.829 200.33C227.466 200.862 224.037 198.666 223.522 196.275C223.166 194.645 224.513 193.064 226.262 193.056C228.382 193.029 231.195 195.349 231.643 197.462L231.632 197.465ZM230.258 198.006C230.154 196.152 227.549 194.356 225.886 194.768C225.441 194.874 225.025 195.538 225.126 195.96C225.513 197.571 227.862 199.087 229.507 198.692C229.84 198.612 230.265 198.181 230.258 198.006Z" fill="white"/>
<path d="M216.184 205.11C214.454 205.243 212.69 203.963 212.37 202.336C212.134 201.159 212.854 200.34 214.076 200.388C215.771 200.451 217.03 201.194 217.683 202.788C218.195 204.04 217.546 205.006 216.195 205.107L216.184 205.11ZM216.018 203.34C216.322 202.598 215.907 202.192 215.434 201.836C214.988 201.496 214.715 201.632 214.198 202.414C214.641 203.036 215.174 203.496 216.018 203.34Z" fill="white"/>
<path d="M222.446 209.95C224.007 209.846 225.476 211.02 225.705 212.563C225.822 213.346 225.272 214.089 224.479 214.209C222.933 214.427 221.168 213.241 220.78 211.725C220.553 210.827 221.301 210.025 222.446 209.95ZM224.107 212.465C224.181 211.648 223.711 211.303 223.176 211.032C223.057 210.978 222.829 211.01 222.734 211.103C222.628 211.199 222.512 211.45 222.572 211.553C222.893 212.157 223.305 212.646 224.121 212.474L224.107 212.465Z" fill="white"/>
</g>
<defs>
<clipPath id="clip0_159_31230">
<rect width="274" height="320" fill="white"/>
</clipPath>
</defs>
</svg>
