<svg width="278" height="191" viewBox="0 0 278 191" fill="none" xmlns="http://www.w3.org/2000/svg">
<g clip-path="url(#clip0_738_882)">
<path d="M8.46012 23.6696C-2.58344 50.7881 -1.75089 120.121 14.4625 168.415C18.0779 179.183 28.9487 186.68 41.5163 184.849C143.363 170.021 203.032 205.047 257.109 183.508C265.802 180.054 272.407 171.78 273.863 161.599C280.042 118.369 276.994 64.747 270.646 34.6803C268.455 24.2598 261.485 17.3267 252.459 13.7758C208.392 -3.48296 65.5909 -1.18844 28.03 5.54746C19.0843 8.31398 12.2955 14.2423 8.43898 23.6719L8.46012 23.6696Z" fill="#FFCE00"/>
<path d="M36.9199 93.1581C41.3677 100.018 38.4881 108.217 31.3728 112.832C24.2684 117.439 15.6122 116.723 11.1557 109.853C6.70783 102.993 7.50219 92.7203 17.0526 90.7316C22.2191 83.0336 32.4525 86.2964 36.9004 93.1558" fill="#97C124"/>
<path d="M18.636 94.1564C18.3065 94.3646 17.8918 94.287 17.6922 93.9684C14.3821 88.8563 15.9936 81.9096 21.2879 78.4728C21.6174 78.2646 22.032 78.3422 22.2316 78.6608C22.4226 78.9686 22.3342 79.3919 22.0156 79.5915C17.3609 82.6097 15.9456 88.712 18.8543 93.2062C19.0453 93.514 18.9569 93.9373 18.6382 94.1369" fill="#262626"/>
<path d="M19.0463 94.272C17.8431 95.0491 16.4217 95.328 15.0437 95.0602C14.668 94.9872 14.4426 94.636 14.5351 94.2624C14.6167 93.8975 14.9896 93.6549 15.3545 93.7365C16.3761 93.9335 17.434 93.7308 18.3294 93.1447C19.214 92.5672 19.8383 91.6838 20.0742 90.6667C20.1559 90.3018 20.5288 90.0592 20.8937 90.1408C21.2695 90.2139 21.4949 90.5651 21.4024 90.9386C21.0763 92.3098 20.2495 93.4949 19.0463 94.272Z" fill="#262626"/>
<path d="M16.0147 84.3651C13.8487 81.0308 9.2917 80.1391 5.82083 82.3779C5.50217 82.5775 5.40294 83.0094 5.60478 83.3086C7.77078 86.643 12.3278 87.5347 15.7986 85.2958C16.1173 85.0962 16.2165 84.6644 16.0147 84.3651Z" fill="#97C124"/>
<path d="M269.555 124.646C271.272 129.483 267.091 139.446 262.18 141.054C257.281 142.665 247.655 137.262 245.941 132.413C242.838 123.659 249.741 121.379 254.64 119.767C259.54 118.156 266.75 116.737 269.555 124.646Z" fill="#E60005"/>
<path d="M259.812 114.571C257.932 114.502 256.3 115.368 255.656 116.64C255.177 116.557 254.685 116.573 254.212 116.721C254 116.795 253.798 116.885 253.613 117.005C252.343 116.604 250.72 116.934 249.425 117.989C247.568 119.491 245.541 123.116 246.773 124.572C247.885 125.894 251.298 124.981 253.308 123.685C254.512 125.505 256.406 127.181 257.752 126.729C259.18 126.259 259.584 123.567 259.302 121.353C259.413 121.369 259.528 121.372 259.642 121.376C262.056 121.465 266.047 120.097 266.092 118.21C266.137 116.324 262.229 114.648 259.815 114.559" fill="#B0DF30"/>
<path d="M255.447 120.576C255.097 120.692 254.721 120.506 254.602 120.168C252.998 115.643 255.42 110.72 260.011 109.21C260.362 109.094 260.738 109.28 260.857 109.618C260.976 109.956 260.793 110.32 260.455 110.439C256.549 111.726 254.498 115.897 255.852 119.743C255.971 120.081 255.788 120.445 255.45 120.564" fill="#262626"/>
<path d="M257.91 130.937C257.782 130.584 257.974 130.184 258.336 130.071C258.701 129.946 259.098 130.15 259.226 130.503C259.351 130.869 259.35 131.779 258.988 131.892C258.623 132.017 258.038 131.291 257.91 130.937Z" fill="#262626"/>
<path d="M259.592 135.662C259.464 135.309 259.656 134.909 260.018 134.796C260.383 134.671 260.78 134.875 260.908 135.228C261.033 135.593 261.032 136.504 260.669 136.616C260.304 136.741 259.72 136.015 259.592 135.662Z" fill="#262626"/>
<path d="M251.484 129.787C251.356 129.434 251.548 129.034 251.91 128.921C252.276 128.796 252.673 129 252.801 129.353C252.925 129.718 252.924 130.629 252.562 130.741C252.197 130.866 251.612 130.14 251.484 129.787Z" fill="#262626"/>
<path d="M253.504 134.186C253.307 133.854 253.426 133.436 253.768 133.254C254.109 133.072 254.527 133.191 254.724 133.523C254.91 133.852 255.077 134.754 254.736 134.936C254.395 135.118 253.701 134.519 253.507 134.174" fill="#262626"/>
<path d="M263.537 125.818C263.409 125.465 263.012 125.261 262.647 125.386C262.281 125.511 262.093 125.899 262.221 126.252C262.346 126.617 262.933 127.331 263.298 127.206C263.664 127.081 263.665 126.171 263.537 125.818Z" fill="#262626"/>
<path d="M264.731 130.496C264.672 130.122 264.315 129.864 263.929 129.919C263.542 129.975 263.288 130.32 263.346 130.694C263.405 131.068 263.853 131.875 264.239 131.82C264.625 131.764 264.789 130.87 264.731 130.496Z" fill="#262626"/>
<path d="M129.269 20.6145C130.754 19.4999 132.296 18.2446 134.804 19.0021C134.693 16.5875 132.906 15.2016 130.849 14.523C131.868 13.5255 132.858 12.3331 134.871 12.5824C134.404 10.1037 131.5 9.61358 129.373 9.88921C129.008 7.69907 127.71 4.96923 125.287 5.22689C126.097 7.13528 125.29 8.48353 124.673 9.77443C123.455 7.92937 121.651 6.5526 119.383 7.15822C120.805 9.42377 120.107 11.3213 119.515 13.1072C117.946 12.2892 116.14 12.0734 114.45 13.198C117.082 15.1261 116.262 17.7183 116.461 19.8869C116.637 21.8474 118.152 23.18 119.966 23.0825C120.398 24.9055 122.063 26.0252 123.928 25.6133C125.989 25.1742 128.144 23.6021 130.697 25.6497C131.239 23.6478 130.513 21.9371 129.299 20.6094L129.269 20.6145Z" fill="#8CC747"/>
<path d="M120.946 42.6092C117.077 48.0255 109.557 49.0534 104.16 44.9128C98.7507 40.7682 97.5025 33.0173 101.371 27.601C105.24 22.1847 112.879 13.8904 121.554 20.542C129.867 26.9121 124.815 37.1929 120.946 42.6092Z" fill="#FCAF17"/>
<path d="M116.475 41.4118C116.359 41.3193 116.227 41.2794 116.079 41.292C115.134 41.4211 114.245 40.737 114.087 39.7731C114.033 39.4706 113.765 39.2607 113.466 39.299C113.18 39.3413 112.984 39.6112 113.024 39.9097C113.276 41.4745 114.714 42.5826 116.245 42.3729C116.531 42.3306 116.727 42.0606 116.687 41.7621C116.66 41.6109 116.582 41.4871 116.466 41.3946L116.475 41.4118Z" fill="black"/>
<path d="M110.718 36.9933C110.602 36.9009 110.47 36.861 110.322 36.8735C109.377 37.0027 108.488 36.3186 108.33 35.3547C108.277 35.0522 108.008 34.8422 107.709 34.8805C107.423 34.9228 107.227 35.1928 107.267 35.4913C107.519 37.0561 108.958 38.1641 110.488 37.9544C110.774 37.9121 110.97 37.6422 110.93 37.3437C110.903 37.1925 110.825 37.0686 110.709 36.9762L110.718 36.9933Z" fill="black"/>
<path d="M104.969 32.5626C104.853 32.4702 104.721 32.4303 104.573 32.4429C103.628 32.572 102.739 31.8879 102.581 30.924C102.528 30.6215 102.259 30.4116 101.96 30.4499C101.674 30.4921 101.478 30.7621 101.518 31.0606C101.77 32.6254 103.209 33.7335 104.739 33.5238C105.025 33.4815 105.221 33.2115 105.181 32.913C105.154 32.7618 105.076 32.6379 104.96 32.5455L104.969 32.5626Z" fill="black"/>
<path d="M122.207 33.3937C122.09 33.3013 121.958 33.2614 121.811 33.274C120.865 33.4031 119.976 32.719 119.818 31.7551C119.765 31.4526 119.497 31.2426 119.197 31.2809C118.911 31.3232 118.715 31.5932 118.756 31.8917C119.007 33.4565 120.446 34.5646 121.977 34.3549C122.263 34.3126 122.459 34.0426 122.418 33.7441C122.392 33.5929 122.314 33.469 122.197 33.3766L122.207 33.3937Z" fill="black"/>
<path d="M116.437 28.9718C116.321 28.8794 116.189 28.8395 116.041 28.852C115.096 28.9812 114.207 28.2971 114.049 27.3332C113.995 27.0307 113.727 26.8207 113.428 26.859C113.142 26.9013 112.946 27.1713 112.986 27.4698C113.238 29.0346 114.676 30.1427 116.207 29.9329C116.493 29.8907 116.689 29.6207 116.649 29.3222C116.622 29.171 116.544 29.0472 116.428 28.9547L116.437 28.9718Z" fill="black"/>
<path d="M110.681 24.5539C110.565 24.4614 110.433 24.4215 110.285 24.4341C109.34 24.5632 108.451 23.8791 108.293 22.9152C108.239 22.6128 107.971 22.4028 107.672 22.4411C107.386 22.4833 107.19 22.7533 107.23 23.0518C107.482 24.6167 108.92 25.7247 110.451 25.515C110.737 25.4727 110.933 25.2027 110.893 24.9042C110.866 24.753 110.788 24.6292 110.672 24.5368L110.681 24.5539Z" fill="black"/>
<path d="M116.811 35.4206C116.695 35.3281 116.563 35.2882 116.415 35.3008C115.964 35.3648 115.498 35.2382 115.123 34.9529C114.748 34.6676 114.499 34.2488 114.423 33.7819C114.369 33.4795 114.101 33.2695 113.802 33.3078C113.516 33.35 113.32 33.6201 113.36 33.9185C113.481 34.6707 113.882 35.3503 114.489 35.8205C115.097 36.2907 115.844 36.488 116.577 36.3948C116.863 36.3526 117.059 36.0826 117.019 35.7841C116.992 35.6329 116.914 35.509 116.798 35.4166L116.811 35.4206Z" fill="black"/>
<path d="M111.062 30.9899C110.946 30.8975 110.814 30.8575 110.666 30.8701C109.721 30.9993 108.832 30.3152 108.674 29.3513C108.62 29.0488 108.352 28.8388 108.053 28.8771C107.767 28.9194 107.571 29.1894 107.611 29.4879C107.863 31.0527 109.301 32.1607 110.832 31.951C111.118 31.9087 111.314 31.6388 111.274 31.3403C111.247 31.1891 111.169 31.0652 111.053 30.9728L111.062 30.9899Z" fill="black"/>
<path d="M119.706 25.717C119.589 25.6245 119.457 25.5846 119.31 25.5972C119.024 25.6395 118.828 25.9094 118.868 26.2079C118.988 26.9601 119.389 27.6397 119.997 28.1099C120.605 28.58 121.352 28.7774 122.085 28.6842C122.371 28.642 122.567 28.372 122.527 28.0735C122.473 27.771 122.205 27.5611 121.906 27.5994C121.455 27.6634 120.989 27.5367 120.614 27.2514C120.239 26.9662 119.99 26.5473 119.913 26.0805C119.887 25.9292 119.809 25.8054 119.692 25.713L119.706 25.717Z" fill="black"/>
<path d="M116.565 23.2922C116.449 23.1997 116.317 23.1598 116.169 23.1724C115.224 23.3015 114.335 22.6174 114.177 21.6535C114.123 21.351 113.855 21.1411 113.556 21.1794C113.27 21.2216 113.074 21.4916 113.114 21.7901C113.366 23.3549 114.804 24.463 116.335 24.2533C116.621 24.211 116.817 23.941 116.777 23.6425C116.75 23.4913 116.672 23.3674 116.556 23.275L116.565 23.2922Z" fill="black"/>
<path d="M111.44 42.9572C111.324 42.8648 111.192 42.8248 111.044 42.8374C110.593 42.9014 110.127 42.7748 109.752 42.4895C109.377 42.2043 109.128 41.7854 109.052 41.3185C108.998 41.0161 108.73 40.8061 108.431 40.8444C108.145 40.8867 107.949 41.1567 107.989 41.4551C108.109 42.2073 108.511 42.887 109.118 43.3571C109.726 43.8273 110.473 44.0246 111.206 43.9315C111.492 43.8892 111.688 43.6192 111.648 43.3207C111.621 43.1695 111.543 43.0456 111.427 42.9532L111.44 42.9572Z" fill="black"/>
<path d="M105.687 38.5397C105.571 38.4473 105.439 38.4073 105.291 38.4199C104.346 38.5491 103.457 37.865 103.299 36.9011C103.245 36.5986 102.977 36.3886 102.678 36.4269C102.392 36.4692 102.196 36.7392 102.236 37.0377C102.488 38.6025 103.926 39.7105 105.457 39.5008C105.743 39.4585 105.939 39.1886 105.899 38.8901C105.872 38.7389 105.794 38.615 105.678 38.5226L105.687 38.5397Z" fill="black"/>
<mask id="mask0_738_882" style="mask-type:alpha" maskUnits="userSpaceOnUse" x="1" y="0" width="277" height="191">
<path d="M8.46084 23.6757C-2.58159 50.8039 -1.74598 120.163 14.4696 168.475C18.0855 179.248 28.9567 186.748 41.5243 184.917C143.371 170.087 203.042 205.128 257.118 183.583C265.811 180.128 272.416 171.851 273.871 161.667C280.049 118.421 276.998 64.7791 270.649 34.701C268.457 24.2765 261.487 17.3405 252.46 13.788C208.392 -3.47899 65.5908 -1.18931 28.03 5.54759C19.0844 8.31478 12.2958 14.245 8.4397 23.678L8.46084 23.6757Z" fill="#FFCE00"/>
</mask>
<g mask="url(#mask0_738_882)">
<path d="M246.014 309.539C245.587 280.335 245.865 106.75 246.127 81.2448C246.157 78.5537 246.219 76.0679 246.294 73.7719C246.541 64.6158 246.714 58.5615 243.657 55.4449C240.912 52.658 235.144 51.6793 224.378 52.1982C212.564 52.764 181.009 51.9282 147.593 51.0306C124.943 50.4198 100.66 49.7845 81.8533 49.5835C65.9949 49.4098 54.0427 49.5774 50.2389 50.3312C41.0581 52.1875 41.6335 75.0728 42.1482 95.2825C42.1967 97.3079 42.2451 99.3332 42.2876 101.321C42.5213 112.888 42.0335 162.511 41.5634 210.519C41.1052 257.91 40.6114 306.92 40.8775 316.045C41.304 330.879 47.525 331.568 62.5371 333.269C64.6688 333.515 66.9506 333.772 69.3706 334.083C89.1896 336.66 210.452 338.77 226.4 338.122L226.859 338.1C241.889 337.496 246.413 337.309 246.017 309.558L246.014 309.539ZM186.984 209.275C186.346 214.047 185.26 216.96 183.627 218.201C181.12 220.112 175.341 220.901 169.555 220.846C163.193 220.776 156.813 219.673 154.741 217.844C152.087 215.502 150.466 205.441 150.633 197.508C150.743 192.328 151.594 185.542 155.115 182.688C158.552 179.888 182.496 180.025 185.367 183.826C187.463 186.61 188.076 200.99 186.966 209.278L186.984 209.275ZM186.52 257.205C185.882 261.977 184.796 264.89 183.163 266.131C180.656 268.042 174.877 268.831 169.073 268.779C162.711 268.709 156.331 267.606 154.259 265.777C151.605 263.435 149.984 253.374 150.151 245.441C150.261 240.261 151.112 233.475 154.633 230.621C157.154 228.574 167.786 228.711 169.92 228.745C174.751 228.85 183.113 229.38 184.903 231.756C186.999 234.54 187.608 248.901 186.52 257.205ZM187.449 161.345C186.81 166.117 185.724 169.03 184.091 170.271C181.584 172.182 175.805 172.971 170.001 172.919C163.639 172.849 157.259 171.746 155.187 169.917C152.533 167.575 150.912 157.514 151.079 149.581C151.189 144.401 152.04 137.615 155.561 134.761C158.083 132.714 168.714 132.851 170.849 132.885C175.679 132.99 184.041 133.52 185.831 135.896C187.927 138.68 188.54 153.06 187.431 161.348L187.449 161.345ZM107.783 182.183C110.304 180.135 120.951 180.251 123.052 180.309C127.883 180.414 136.245 180.944 138.035 183.321C140.131 186.105 140.741 200.465 139.653 208.769C139.014 213.542 137.931 216.473 136.295 217.696C133.788 219.607 128.009 220.395 122.223 220.34C115.861 220.27 109.481 219.167 107.409 217.339C104.755 214.996 103.134 204.935 103.298 196.983C103.408 191.803 104.259 185.018 107.78 182.164L107.783 182.183ZM103.765 149.072C103.875 143.892 104.726 137.106 108.247 134.253C110.769 132.205 121.418 132.34 123.517 132.379C128.347 132.484 136.709 133.014 138.499 135.391C140.595 138.175 141.205 152.535 140.117 160.839C139.478 165.612 138.395 168.543 136.759 169.766C134.252 171.677 128.473 172.465 122.687 172.41C116.326 172.34 109.945 171.237 107.873 169.409C105.219 167.066 103.598 157.005 103.765 149.072ZM60.436 181.699C62.9575 179.651 73.6038 179.767 75.7055 179.826C80.5362 179.93 88.8979 180.46 90.6878 182.837C92.784 185.621 93.3936 199.982 92.3055 208.286C91.667 213.058 90.5838 215.989 88.9478 217.212C86.4413 219.123 80.6619 219.911 74.8764 219.857C68.5144 219.787 62.1342 218.684 60.0622 216.855C57.4076 214.513 55.7872 204.452 55.9506 196.5C56.0606 191.32 56.9118 184.534 60.433 181.68L60.436 181.699ZM56.4358 148.585C56.5457 143.405 57.3969 136.62 60.9181 133.766C63.4396 131.718 74.0889 131.853 76.1876 131.893C81.0183 131.997 89.38 132.527 91.1699 134.904C93.2661 137.688 93.8757 152.049 92.7846 160.334C92.1461 165.106 91.0629 168.037 89.4269 169.26C86.9203 171.171 81.141 171.96 75.3375 171.908C68.9755 171.838 62.5953 170.735 60.5413 168.903C57.8867 166.561 56.2663 156.5 56.4327 148.567L56.4358 148.585ZM91.3743 304.127C90.7359 308.9 89.6526 311.83 88.0166 313.054C85.5101 314.964 79.7307 315.753 73.9272 315.701C67.5652 315.631 61.185 314.528 59.113 312.699C56.4585 310.357 54.838 300.296 55.0045 292.363C55.1144 287.183 55.9656 280.397 59.4868 277.544C62.0083 275.496 72.6576 275.63 74.7563 275.67C79.5871 275.775 87.9487 276.305 89.7386 278.681C91.8348 281.465 92.4444 295.826 91.3563 304.13L91.3743 304.127ZM91.8384 256.197C91.1999 260.97 90.1167 263.9 88.4837 265.142C85.9772 267.053 80.1978 267.841 74.3943 267.79C68.0323 267.72 61.6521 266.617 59.5981 264.785C56.9436 262.443 55.3231 252.382 55.4866 244.43C55.5965 239.25 56.4477 232.464 59.9689 229.61C62.4904 227.563 73.1397 227.697 75.2384 227.737C80.0692 227.842 88.4308 228.372 90.2207 230.748C92.3169 233.532 92.9265 247.893 91.8354 256.178L91.8384 256.197ZM138.706 304.633C138.068 309.405 136.985 312.336 135.349 313.559C132.842 315.47 127.063 316.258 121.259 316.207C114.897 316.137 108.517 315.034 106.445 313.205C103.79 310.863 102.17 300.802 102.336 292.868C102.446 287.688 103.298 280.903 106.819 278.049C109.34 276.001 119.987 276.117 122.088 276.176C126.919 276.28 135.281 276.811 137.071 279.187C139.167 281.971 139.776 296.332 138.685 304.617L138.706 304.633ZM139.188 256.699C138.55 261.472 137.467 264.403 135.834 265.645C133.327 267.555 127.548 268.344 121.744 268.292C115.382 268.222 109.002 267.119 106.948 265.287C104.294 262.945 102.673 252.884 102.837 244.932C102.947 239.752 103.798 232.967 107.319 230.113C109.84 228.065 120.49 228.2 122.588 228.24C127.419 228.344 135.781 228.874 137.571 231.251C139.667 234.035 140.276 248.396 139.185 256.681L139.188 256.699ZM153.816 313.723C151.161 311.381 149.541 301.32 149.689 293.389C149.799 288.209 150.651 281.424 154.169 278.552C156.69 276.504 167.34 276.638 169.456 276.675C174.287 276.78 182.649 277.31 184.439 279.686C186.535 282.47 187.147 296.85 186.038 305.138C185.4 309.911 184.314 312.823 182.681 314.065C180.174 315.975 174.395 316.764 168.591 316.712C162.229 316.642 155.849 315.539 153.777 313.71L153.816 313.723ZM233.388 305.64C232.75 310.413 231.664 313.325 230.031 314.567C227.524 316.478 221.745 317.266 215.941 317.215C209.579 317.145 203.199 316.042 201.145 314.21C198.49 311.868 196.87 301.807 197.018 293.876C197.128 288.696 197.98 281.911 201.498 279.038C204.019 276.991 214.669 277.125 216.785 277.162C221.616 277.267 229.978 277.797 231.768 280.173C233.864 282.957 234.476 297.337 233.367 305.625L233.388 305.64ZM197.501 245.943C197.611 240.763 198.462 233.978 201.983 231.124C204.504 229.076 215.154 229.211 217.27 229.247C222.101 229.352 230.463 229.882 232.253 232.259C234.349 235.043 234.958 249.403 233.87 257.707C233.232 262.48 232.146 265.392 230.513 266.634C228.006 268.545 222.227 269.333 216.423 269.282C210.061 269.212 203.681 268.109 201.609 266.28C198.955 263.938 197.334 253.877 197.501 245.943ZM234.316 209.78C233.678 214.553 232.592 217.465 230.959 218.707C228.452 220.618 222.673 221.406 216.887 221.352C210.525 221.281 204.145 220.178 202.073 218.35C199.419 216.008 197.798 205.947 197.965 198.013C198.075 192.833 198.926 186.048 202.447 183.194C205.884 180.393 229.828 180.531 232.699 184.332C234.795 187.116 235.408 201.495 234.298 209.784L234.316 209.78ZM234.799 161.847C234.16 166.62 233.074 169.532 231.441 170.774C228.934 172.685 223.155 173.473 217.351 173.422C210.99 173.351 204.609 172.248 202.537 170.42C199.883 168.078 198.262 158.017 198.429 150.083C198.539 144.903 199.39 138.118 202.911 135.264C223.872 118.241 237.185 143.883 234.781 161.85L234.799 161.847Z" fill="#8CC747"/>
<path d="M248.874 81.2692C248.907 78.5967 248.972 76.1296 249.032 73.8554C249.306 63.9464 249.494 57.4099 245.575 53.4254C242.187 49.9822 235.999 48.8076 224.257 49.361C212.536 49.9299 181.035 49.0847 147.658 48.1995C103.737 47.0274 58.3081 45.809 49.7008 47.547C38.2413 49.855 38.8197 72.9891 39.404 95.3548C39.4524 97.3802 39.4979 99.3868 39.5404 101.375C39.783 112.883 39.2953 162.505 38.8192 210.476C38.3284 260.079 37.8761 306.933 38.1333 316.117C38.6414 333.412 47.0151 334.362 62.2344 336.085C64.3451 336.315 66.6089 336.575 69.0288 336.886C83.9509 338.833 156.112 340.493 197.992 340.944C211.938 341.084 222.512 341.097 226.505 340.944L226.965 340.922C243.853 340.246 249.185 338.633 248.77 309.504C248.343 280.3 248.63 106.771 248.874 81.2692ZM226.859 338.082L226.4 338.104C210.469 338.748 89.1925 336.66 69.3705 334.064C66.9295 333.738 64.6507 333.499 62.537 333.251C47.5279 331.568 41.3039 330.86 40.8774 316.026C40.6113 306.901 41.0871 257.895 41.5633 210.5C42.0334 162.492 42.5182 112.851 42.2875 101.303C42.245 99.3146 42.1996 97.308 42.1481 95.264C41.6364 75.0729 41.058 52.169 50.2388 50.3127C54.0396 49.5402 65.9948 49.3912 81.8532 49.5649C100.66 49.7659 124.946 50.4199 147.593 51.012C181.009 51.9096 212.564 52.7455 224.378 52.1797C235.144 51.6607 240.912 52.6394 243.657 55.4263C246.714 58.543 246.559 64.5941 246.294 73.7533C246.237 76.0462 246.156 78.5352 246.127 81.2263C245.883 106.728 245.605 280.313 246.014 309.52C246.413 337.29 241.886 337.459 226.856 338.063L226.859 338.082Z" fill="black" stroke="black" stroke-width="0.3023"/>
<path d="M235.929 296.292C235.502 267.088 235.78 93.5028 236.042 67.9978C236.072 65.3066 236.134 62.8208 236.209 60.5248C236.456 51.3687 236.629 45.3145 233.572 42.1978C230.827 39.4109 225.059 38.4322 214.293 38.9511C202.479 39.517 170.924 38.6811 137.508 37.7835C114.858 37.1727 90.5751 36.5374 71.7684 36.3364C55.91 36.1627 43.9577 36.3304 40.1539 37.0841C30.9732 38.9405 31.5485 61.8257 32.0632 82.0355C32.1117 84.0608 32.1602 86.0861 32.2026 88.0741C32.4363 99.6412 31.9486 149.264 31.4785 197.271C31.0203 244.663 30.5264 293.673 30.7926 302.798C31.2191 317.631 37.4401 318.321 52.4521 320.022C54.5839 320.267 56.8657 320.525 59.2856 320.836C79.1046 323.413 200.367 325.523 216.315 324.875L216.774 324.853C231.804 324.249 236.328 324.062 235.932 296.31L235.929 296.292ZM228.678 100.679C229.45 101.562 227.823 102.496 227.295 102.894C226.19 103.737 225.263 104.761 224.23 105.707C223.699 106.202 222.948 105.564 223.272 104.933C223.887 103.694 224.851 102.664 225.868 101.74C226.418 101.242 227.928 99.8108 228.678 100.679ZM42.9677 68.0049C43.8639 60.8087 46.529 56.3187 50.6719 55.0266C60.8432 51.8479 215.007 50.3968 221.412 57.1744C225.83 61.8401 226.821 79.2622 224.536 90.248C223.387 95.7612 221.566 99.0501 219.113 100.031C214.889 101.74 143.566 103.561 94.9938 103.058C71.4224 102.818 53.222 102.013 50.6426 100.368C44.9074 96.717 41.571 79.2208 42.9827 67.9831L42.9677 68.0049ZM176.9 196.028C176.261 200.8 175.175 203.713 173.542 204.954C171.035 206.865 165.256 207.654 159.47 207.599C153.108 207.529 146.728 206.426 144.656 204.597C142.002 202.255 140.381 192.194 140.548 184.261C140.658 179.081 141.509 172.295 145.03 169.441C148.467 166.64 172.411 166.778 175.282 170.579C177.378 173.363 177.991 187.743 176.882 196.031L176.9 196.028ZM176.435 243.958C175.797 248.73 174.711 251.643 173.078 252.884C170.571 254.795 164.792 255.584 158.988 255.532C152.626 255.462 146.246 254.359 144.174 252.53C141.52 250.188 139.899 240.127 140.066 232.194C140.176 227.014 141.027 220.228 144.548 217.374C147.069 215.327 157.701 215.464 159.835 215.498C164.666 215.603 173.028 216.133 174.818 218.509C176.914 221.293 177.524 235.654 176.435 243.958ZM177.364 148.098C176.725 152.87 175.639 155.783 174.006 157.024C171.499 158.935 165.72 159.724 159.917 159.672C153.555 159.602 147.174 158.499 145.102 156.67C142.448 154.328 140.827 144.267 140.994 136.334C141.104 131.154 141.955 124.368 145.476 121.514C147.998 119.467 158.629 119.604 160.764 119.638C165.594 119.743 173.956 120.273 175.746 122.649C177.842 125.433 178.455 139.813 177.346 148.101L177.364 148.098ZM97.698 168.936C100.22 166.888 110.866 167.004 112.968 167.062C117.798 167.167 126.16 167.697 127.95 170.074C130.046 172.858 130.656 187.218 129.568 195.522C128.929 200.295 127.846 203.226 126.21 204.449C123.703 206.36 117.924 207.148 112.138 207.093C105.776 207.023 99.3963 205.92 97.3243 204.091C94.6697 201.749 93.0493 191.688 93.2127 183.736C93.3227 178.556 94.1739 171.771 97.695 168.917L97.698 168.936ZM93.6798 135.825C93.7898 130.645 94.641 123.859 98.1621 121.006C100.684 118.958 111.333 119.092 113.432 119.132C118.262 119.237 126.624 119.767 128.414 122.144C130.51 124.928 131.12 139.288 130.032 147.592C129.393 152.365 128.31 155.296 126.674 156.519C124.167 158.43 118.388 159.218 112.603 159.163C106.241 159.093 99.8603 157.99 97.7883 156.161C95.1338 153.819 93.5133 143.758 93.6798 135.825ZM50.351 168.452C52.8725 166.404 63.5189 166.52 65.6205 166.579C70.4513 166.683 78.8129 167.213 80.6028 169.59C82.6991 172.374 83.3086 186.735 82.2205 195.038C81.5821 199.811 80.4989 202.742 78.8628 203.965C76.3563 205.876 70.577 206.664 64.7914 206.61C58.4295 206.54 52.0493 205.437 49.9773 203.608C47.3227 201.266 45.7023 191.205 45.8657 183.253C45.9757 178.073 46.8269 171.287 50.348 168.433L50.351 168.452ZM46.3508 135.338C46.4608 130.158 47.312 123.373 50.8331 120.519C53.3546 118.471 64.004 118.606 66.1026 118.646C70.9334 118.75 79.295 119.28 81.0849 121.657C83.1812 124.441 83.7907 138.801 82.6996 147.087C82.0612 151.859 80.9779 154.79 79.3419 156.013C76.8354 157.924 71.0561 158.712 65.2525 158.661C58.8906 158.591 52.5103 157.488 50.4564 155.656C47.8018 153.314 46.1814 143.253 46.3478 135.319L46.3508 135.338ZM81.2894 290.88C80.6509 295.652 79.5677 298.583 77.9317 299.806C75.4251 301.717 69.6458 302.506 63.8422 302.454C57.4803 302.384 51.1001 301.281 49.0281 299.452C46.3735 297.11 44.7531 287.049 44.9195 279.116C45.0295 273.936 45.8807 267.15 49.4018 264.296C51.9233 262.249 62.5727 262.383 64.6713 262.423C69.5021 262.528 77.8637 263.058 79.6536 265.434C81.7499 268.218 82.3594 282.579 81.2714 290.883L81.2894 290.88ZM81.7534 242.95C81.115 247.722 80.0318 250.653 78.3988 251.895C75.8922 253.806 70.1129 254.594 64.3093 254.543C57.9474 254.473 51.5672 253.37 49.5132 251.538C46.8586 249.196 45.2382 239.135 45.4016 231.183C45.5116 226.003 46.3628 219.217 49.8839 216.363C52.4054 214.316 63.0548 214.45 65.1534 214.49C69.9842 214.595 78.3458 215.125 80.1357 217.501C82.232 220.285 82.8415 234.646 81.7504 242.931L81.7534 242.95ZM128.621 291.385C127.983 296.158 126.9 299.089 125.264 300.312C122.757 302.223 116.978 303.011 111.174 302.96C104.812 302.89 98.4321 301.787 96.3601 299.958C93.7055 297.616 92.0851 287.555 92.2515 279.621C92.3615 274.441 93.2127 267.656 96.7338 264.802C99.2553 262.754 109.902 262.87 112.003 262.929C116.834 263.033 125.196 263.563 126.986 265.94C129.082 268.724 129.691 283.085 128.6 291.37L128.621 291.385ZM129.103 243.452C128.465 248.225 127.382 251.156 125.749 252.398C123.242 254.308 117.463 255.097 111.659 255.045C105.297 254.975 98.9172 253.872 96.8632 252.04C94.2086 249.698 92.5882 239.637 92.7516 231.685C92.8616 226.505 93.7128 219.719 97.2339 216.866C99.7554 214.818 110.405 214.952 112.503 214.992C117.334 215.097 125.696 215.627 127.486 218.004C129.582 220.788 130.192 235.148 129.1 243.434L129.103 243.452ZM143.731 300.476C141.077 298.134 139.456 288.073 139.605 280.142C139.714 274.962 140.566 268.177 144.084 265.304C146.605 263.257 157.255 263.391 159.371 263.428C164.202 263.533 172.564 264.063 174.354 266.439C176.45 269.223 177.062 283.603 175.953 291.891C175.315 296.664 174.229 299.576 172.596 300.818C170.089 302.728 164.31 303.517 158.506 303.465C152.144 303.395 145.764 302.292 143.692 300.463L143.731 300.476ZM206.803 321.34C200.822 322.95 193.547 321.81 187.39 321.743C180.992 321.679 174.447 321.967 168.117 320.951C167.718 320.885 167.733 320.173 168.129 320.104C174.479 319.064 181.024 319.352 187.419 319.282C193.592 319.212 200.812 318.059 206.826 319.648C207.64 319.871 207.601 321.125 206.803 321.34ZM221.264 319.05C220.562 320.092 219.289 320.121 218.151 320.298C216.758 320.501 215.299 320.753 213.906 320.61C213.321 320.539 212.915 319.631 213.588 319.322C214.86 318.719 216.265 318.476 217.628 318.201C218.724 317.993 220.132 317.538 221.102 318.272C221.333 318.443 221.481 318.782 221.283 319.047L221.264 319.05ZM223.303 292.393C222.665 297.166 221.579 300.078 219.946 301.32C217.439 303.231 211.66 304.019 205.856 303.968C199.494 303.898 193.114 302.795 191.06 300.963C188.406 298.621 186.785 288.56 186.933 280.629C187.043 275.449 187.895 268.664 191.413 265.791C193.934 263.744 204.584 263.878 206.7 263.915C211.531 264.02 219.893 264.55 221.683 266.926C223.779 269.71 224.391 284.09 223.282 292.378L223.303 292.393ZM187.416 232.696C187.526 227.516 188.377 220.731 191.898 217.877C194.419 215.829 205.069 215.964 207.185 216C212.016 216.105 220.378 216.635 222.168 219.012C224.264 221.796 224.874 236.156 223.785 244.46C223.147 249.233 222.061 252.145 220.428 253.387C217.921 255.298 212.142 256.086 206.338 256.035C199.976 255.964 193.596 254.861 191.524 253.033C188.87 250.691 187.249 240.63 187.416 232.696ZM224.232 196.533C223.593 201.306 222.507 204.218 220.874 205.46C218.367 207.371 212.588 208.159 206.802 208.105C200.44 208.034 194.06 206.931 191.988 205.103C189.334 202.761 187.713 192.7 187.88 184.766C187.99 179.586 188.841 172.801 192.362 169.947C195.799 167.146 219.743 167.284 222.614 171.085C224.71 173.869 225.323 188.248 224.214 196.536L224.232 196.533ZM224.714 148.6C224.075 153.373 222.989 156.285 221.356 157.527C218.849 159.438 213.07 160.226 207.267 160.174C200.905 160.104 194.524 159.001 192.452 157.173C189.798 154.83 188.177 144.769 188.344 136.836C188.454 131.656 189.305 124.87 192.826 122.017C195.348 119.969 205.997 120.104 208.114 120.14C212.944 120.245 221.306 120.775 223.096 123.152C225.192 125.936 225.805 140.315 224.696 148.603L224.714 148.6ZM224.838 113.852C225.946 113.027 227.063 112.259 228.203 111.524C229.044 110.995 230.008 110.08 231.019 110.385C231.233 110.444 231.365 110.69 231.308 110.911C231.014 111.959 229.777 112.326 228.903 112.765C227.69 113.397 226.448 113.957 225.202 114.499C224.769 114.689 224.457 114.129 224.838 113.852ZM232.684 115.891C232.294 116.573 231.363 116.772 230.721 117.152C229.862 117.684 229.1 118.353 228.49 119.168C228.184 119.566 227.554 119.215 227.812 118.748C228.379 117.787 229.039 116.944 229.892 116.259C230.546 115.724 231.543 114.899 232.429 115.225C232.684 115.316 232.825 115.617 232.681 115.872L232.684 115.891ZM232.972 103.773C231.67 105.572 229.415 106.633 227.662 107.934C225.3 109.705 223.054 111.628 220.854 113.601C220.368 114.03 219.704 113.359 220.16 112.858C222.093 110.72 224.183 108.747 226.386 106.908C228.133 105.454 230.156 103.416 232.375 102.937C232.789 102.865 233.294 103.353 232.972 103.773Z" fill="#C10230"/>
<path d="M52.2381 153.506C55.2831 156.202 73.6095 156.87 77.731 153.721C78.0763 153.45 79.2589 152.171 79.9873 146.692C81.2672 137.051 80.0427 124.849 78.9375 123.39C77.0185 121.247 55.0443 120.692 52.5228 122.74C50.4605 124.42 49.2005 129.013 49.0788 135.384C48.9155 144.142 50.8388 152.29 52.2381 153.506ZM74.7517 149.017C75.004 149.204 75.0671 149.481 74.929 149.773C74.5719 150.545 73.41 150.688 72.7226 151.018C71.849 151.457 70.9814 152.049 70.213 152.68C69.8377 152.995 69.2342 152.581 69.5283 152.108C70.1436 151.1 70.873 150.341 71.8426 149.693C72.5631 149.223 73.9229 148.355 74.7487 148.999L74.7517 149.017ZM68.7981 149.299C69.3592 147.609 71.0913 146.178 72.8717 146.311C73.7724 146.386 73.8687 147.559 73.0672 147.87C71.7793 148.38 70.8637 148.903 69.9872 150.014C69.54 150.571 68.5881 149.949 68.8162 149.296L68.7981 149.299Z" fill="#8EC046"/>
<path d="M99.5711 154.012C102.616 156.708 120.943 157.376 125.064 154.227C125.409 153.956 126.592 152.677 127.32 147.198C128.6 137.556 127.376 125.355 126.27 123.896C124.352 121.753 102.377 121.198 99.8558 123.246C97.7935 124.926 96.5335 129.518 96.4118 135.89C96.2455 144.629 98.1718 152.796 99.5711 154.012ZM124.585 148.496C123.715 149.414 122.352 149.803 121.289 150.448C120.004 151.207 118.738 152.078 117.582 153.065C117.159 153.426 116.624 152.866 116.999 152.436C118.032 151.26 119.125 150.227 120.427 149.349C121.529 148.603 122.925 147.613 124.288 147.684C124.681 147.712 124.889 148.194 124.603 148.493L124.585 148.496ZM115.315 150.253C116.08 149.372 117.275 148.859 118.281 148.32C119.115 147.869 120.199 147.01 121.133 147.405C121.409 147.511 121.601 147.784 121.505 148.108C121.184 149.219 119.842 149.508 118.911 149.938C117.876 150.405 116.774 151.037 115.636 151.099C115.195 151.118 115.065 150.545 115.315 150.253Z" fill="#FFCE00"/>
<path d="M147.187 123.751C145.125 125.432 143.886 130.039 143.743 136.395C143.577 145.135 145.5 153.282 146.902 154.517C149.947 157.214 168.274 157.881 172.395 154.732C172.74 154.461 173.923 153.182 174.654 147.722C175.934 138.08 174.707 125.86 173.602 124.401C171.683 122.258 149.708 121.703 147.187 123.751ZM163.897 149.218C164.744 147.805 166.073 146.52 167.286 145.428C168.112 144.69 169.205 145.844 168.469 146.681C167.392 147.923 166.125 149.255 164.744 150.108C164.204 150.431 163.579 149.772 163.897 149.218ZM170.728 148.747C169.551 149.602 168.317 150.219 167.239 151.23C166.177 152.22 165.27 153.374 164.445 154.572C164.175 154.964 163.469 154.722 163.646 154.211C164.72 151.34 167.2 148.225 170.139 147.275C170.472 147.16 170.82 147.368 171.013 147.642C171.04 147.695 171.07 147.767 171.082 147.841C171.196 148.205 170.992 148.547 170.728 148.747Z" fill="#8EC046"/>
<path d="M194.534 124.235C192.471 125.916 191.232 130.523 191.09 136.879C190.923 145.619 192.847 153.766 194.249 155.001C197.294 157.698 215.62 158.365 219.742 155.216C220.087 154.945 221.27 153.666 221.998 148.187C223.278 138.546 222.05 126.326 220.945 124.867C219.026 122.724 197.052 122.169 194.531 124.216L194.534 124.235ZM212.595 150.044C213.165 149.331 214.15 148.892 214.937 148.488C215.621 148.139 216.411 147.523 217.143 148.049C217.354 148.204 217.564 148.475 217.537 148.767C217.492 149.178 217.381 149.523 217.093 149.803C216.949 149.943 216.678 149.875 216.645 149.67C216.78 149.589 216.738 149.558 216.591 149.564C215.459 150.124 214.19 150.862 212.989 150.993C212.496 151.039 212.352 150.374 212.655 150.072C212.655 150.072 212.655 150.072 212.634 150.056L212.595 150.044ZM217.54 151.664C216.331 153.005 214.511 153.78 212.965 154.642C212.473 154.919 212.056 154.166 212.542 153.852C214.013 152.868 215.547 151.586 217.273 151.153C217.558 151.085 217.745 151.436 217.558 151.66L217.54 151.664Z" fill="#FFCE00"/>
<path d="M51.7556 201.439C54.8006 204.136 73.127 204.803 77.2486 201.654C77.5938 201.383 78.7764 200.104 79.5048 194.626C80.7847 184.984 79.5602 172.782 78.455 171.323C77.4159 170.16 70.4924 169.477 63.9623 169.398C58.435 169.337 53.184 169.727 52.0403 170.673C49.978 172.354 48.736 176.943 48.5963 183.318C48.433 192.075 50.3563 200.223 51.7556 201.439ZM66.7244 197.239C67.9461 196.202 69.2009 195.141 70.5968 194.382C70.921 194.211 71.2453 194.27 71.5065 194.512C71.6146 194.609 71.6507 194.718 71.6928 194.864C71.7679 195.1 71.6779 195.461 71.5008 195.626C70.261 196.665 68.8531 197.465 67.4392 198.228C66.8598 198.539 66.1691 197.699 66.7244 197.239ZM66.428 201.261C67.4756 200.294 68.4632 199.298 69.5559 198.38C70.4354 197.633 71.3839 196.625 72.5247 196.351C72.951 196.239 73.2874 196.718 73.0713 197.1C72.5041 198.177 71.3333 198.84 70.3877 199.521C69.244 200.352 68.0493 201.096 66.8785 201.874C66.5093 202.111 66.1038 201.548 66.428 201.261Z" fill="#5C0F8B"/>
<path d="M99.1062 201.942C102.151 204.639 120.478 205.306 124.599 202.157C124.944 201.886 126.127 200.607 126.855 195.128C128.135 185.487 126.911 173.285 125.806 171.826C124.767 170.663 117.843 169.98 111.313 169.901C105.786 169.84 100.535 170.23 99.3908 171.176C97.3286 172.857 96.0866 177.446 95.9469 183.82C95.7836 192.578 97.7069 200.726 99.1062 201.942ZM124.844 195.515C125.141 195.636 125.318 196.047 125.048 196.324C124.259 197.055 122.983 197.18 122.043 197.668C120.917 198.266 119.936 199.069 119.05 200.008C118.702 200.376 118.123 199.881 118.369 199.455C119.062 198.241 120.032 197.249 121.19 196.511C122.148 195.904 123.73 195.036 124.847 195.533L124.844 195.515ZM118.8 195.121C119.83 194.387 120.868 193.708 122.078 194.324C122.241 194.411 122.301 194.669 122.196 194.822C121.604 195.749 120.779 195.911 119.884 196.449C118.909 197.059 118.131 197.865 117.231 198.596C116.888 198.886 116.234 198.615 116.408 198.086C116.819 196.845 117.77 195.855 118.782 195.124L118.8 195.121Z" fill="#5C0F8B"/>
<path d="M146.723 171.682C144.661 173.362 143.419 177.951 143.279 184.326C143.116 193.084 145.039 201.232 146.438 202.448C149.483 205.144 167.81 205.812 171.931 202.663C172.276 202.392 173.459 201.113 174.191 195.653C175.47 186.011 174.243 173.791 173.138 172.332C171.219 170.189 149.244 169.634 146.723 171.682ZM164.043 197.6C164.862 195.789 166.817 194.587 168.741 194.581C169.666 194.574 169.873 196.092 168.94 196.273C167.342 196.588 166.103 197.167 164.875 198.281C164.407 198.707 163.8 198.16 164.046 197.618L164.043 197.6ZM171.017 197.103C169.177 198.784 166.818 199.537 164.638 200.605C164.107 200.869 163.644 200.067 164.17 199.765C166.292 198.573 168.303 197.035 170.678 196.49C171.002 196.434 171.272 196.848 170.996 197.088L171.017 197.103Z" fill="#5C0F8B"/>
<path d="M194.056 172.187C191.994 173.868 190.752 178.457 190.612 184.831C190.446 193.571 192.372 201.737 193.771 202.953C196.816 205.65 215.143 206.317 219.264 203.168C219.609 202.897 220.792 201.618 221.524 196.158C222.803 186.517 221.576 174.296 220.471 172.837C218.552 170.694 196.578 170.139 194.056 172.187ZM213.424 199.324C213.256 199.775 212.562 199.607 212.703 199.103C212.925 198.297 213.105 197.691 213.67 197.056C214.204 196.465 214.867 196.101 215.606 195.858C216.416 195.602 216.741 196.928 215.945 197.161C214.991 197.441 213.814 198.297 213.439 199.302L213.424 199.324ZM218.576 199.009C217.973 200.322 216 200.951 214.799 201.542C214.352 201.754 213.809 201.138 214.253 200.792C215.318 199.936 216.804 198.356 218.26 198.43C218.558 198.436 218.702 198.757 218.576 199.009Z" fill="#8EC046"/>
<path d="M174.042 35.7447C167.683 35.463 161.102 36.9081 154.701 37.0558C148.504 37.2065 142.295 37.0524 136.111 36.8174C124.281 36.369 111.947 34.7416 100.064 35.4537C99.833 35.2826 99.5687 35.1365 99.2175 35.1397C87.217 34.8935 75.2107 34.8403 63.2103 34.7093C55.197 34.6178 43.4004 32.4179 36.9227 38.7567C30.2529 45.2823 31.0332 57.9443 30.6988 66.5591C30.2958 77.5072 29.7008 88.7572 30.5828 99.7517C30.5378 99.817 30.4958 99.901 30.4718 99.9819C28.534 108.068 30.9497 116.745 31.3388 124.908C31.7339 133.339 30.3936 141.686 30.8488 150.146C31.3281 158.869 31.6662 167.521 31.4429 176.251C31.2196 184.981 30.1317 193.975 30.6079 202.68C30.632 203.175 31.2595 203.277 31.4426 202.804C34.11 195.34 33.5256 185.963 33.8752 178.132C34.2456 169.396 34.1477 160.741 33.6504 152.021C33.1682 143.509 34.3433 135.171 34.1434 126.687C33.9706 119.292 32.9813 111.884 32.4002 104.483C32.5083 104.349 32.5923 104.181 32.6133 103.967C33.4007 93.6812 33.0022 83.2746 33.3212 72.955C33.4762 67.8247 33.6643 62.6695 34.0054 57.5454C34.3706 52.1102 34.8554 44.8892 38.9347 40.9029C42.4377 37.4768 47.8449 37.5968 52.3304 37.6269C57.4284 37.6662 62.5354 37.7615 67.6394 37.8381C78.1416 37.9788 88.6379 38.1972 99.1431 38.2415C99.5694 38.2445 99.8936 38.0733 100.134 37.8399C111.858 39.5919 124.276 39.2095 136.054 39.6859C142.539 39.9457 149.027 40.1091 155.533 39.924C161.58 39.7609 168.54 39.977 174.292 37.8695C175.393 37.4679 175.285 35.7599 174.036 35.7073L174.042 35.7447Z" fill="white"/>
<path d="M78.6531 121.733C72.6031 120.611 66.3702 120.538 60.2696 121.055C55.9403 121.42 52.1604 121.863 50.1859 126.387C48.0913 131.2 48.6751 137.469 49.3006 142.503C49.8089 146.578 49.7623 153.417 53.5038 155.839C53.792 156.02 54.2363 155.789 54.2152 155.428C54.0494 152.215 52.9048 149.017 52.4928 145.769C51.8462 140.605 50.9803 134.768 52.2462 129.638C53.797 123.403 60.3062 123.927 65.3802 123.817C69.6975 123.723 73.9669 124.135 78.2573 124.449C79.7195 124.56 80.1273 122.034 78.638 121.754L78.6531 121.733Z" fill="white"/>
<path d="M125.529 121.587C119.479 120.465 113.246 120.392 107.146 120.91C102.816 121.275 99.0364 121.718 97.0618 126.242C94.9672 131.055 95.551 137.324 96.1766 142.357C96.6849 146.433 96.6383 153.271 100.38 155.694C100.668 155.874 101.112 155.644 101.091 155.283C100.925 152.069 99.7808 148.871 99.3688 145.623C98.7222 140.459 97.8563 134.623 99.1221 129.492C100.673 123.257 107.182 123.781 112.256 123.671C116.573 123.577 120.843 123.99 125.133 124.303C126.595 124.415 127.003 121.888 125.514 121.609L125.529 121.587Z" fill="white"/>
<path d="M172.406 121.462C166.356 120.34 160.123 120.267 154.023 120.784C149.693 121.149 145.913 121.592 143.939 126.116C141.844 130.929 142.428 137.198 143.054 142.232C143.562 146.307 143.515 153.146 147.257 155.568C147.545 155.749 147.989 155.518 147.968 155.157C147.802 151.944 146.658 148.746 146.246 145.498C145.599 140.334 144.733 134.497 145.999 129.367C147.55 123.132 154.059 123.656 159.133 123.546C163.45 123.452 167.72 123.864 172.01 124.178C173.472 124.289 173.88 121.763 172.391 121.483L172.406 121.462Z" fill="white"/>
<path d="M219.282 121.318C213.232 120.196 206.999 120.123 200.898 120.641C196.569 121.006 192.789 121.449 190.815 125.973C188.72 130.786 189.304 137.055 189.93 142.088C190.438 146.164 190.391 153.002 194.133 155.425C194.421 155.605 194.865 155.375 194.844 155.014C194.678 151.8 193.534 148.602 193.122 145.354C192.475 140.19 191.609 134.354 192.875 129.223C194.426 122.988 200.935 123.512 206.009 123.402C210.326 123.308 214.596 123.721 218.886 124.034C220.348 124.146 220.756 121.619 219.267 121.34L219.282 121.318Z" fill="white"/>
<path d="M78.1775 169.358C72.1275 168.236 65.8946 168.163 59.794 168.68C55.4647 169.045 51.6849 169.488 49.7103 174.012C47.6157 178.825 48.1995 185.094 48.825 190.128C49.3333 194.203 49.2867 201.042 53.0282 203.464C53.3164 203.645 53.7607 203.414 53.7396 203.053C53.5738 199.84 52.4293 196.642 52.0172 193.394C51.3706 188.23 50.5047 182.393 51.7706 177.263C53.3215 171.028 59.8306 171.552 64.9046 171.442C69.2219 171.348 73.4913 171.76 77.7817 172.074C79.2439 172.185 79.6517 169.659 78.1625 169.379L78.1775 169.358Z" fill="white"/>
<path d="M125.052 169.212C119.003 168.091 112.77 168.018 106.669 168.535C102.34 168.9 98.5598 169.343 96.5853 173.867C94.4907 178.68 95.0745 184.949 95.7 189.983C96.2083 194.058 96.1617 200.897 99.9032 203.319C100.191 203.5 100.636 203.269 100.615 202.908C100.449 199.695 99.3043 196.497 98.8922 193.249C98.2456 188.084 97.3797 182.248 98.6456 177.118C100.196 170.883 106.706 171.407 111.78 171.297C116.097 171.203 120.366 171.615 124.657 171.929C126.119 172.04 126.527 169.514 125.037 169.234L125.052 169.212Z" fill="white"/>
<path d="M171.927 170.335C165.878 169.213 159.645 169.14 153.544 169.657C149.215 170.022 145.435 170.465 143.46 174.989C141.366 179.803 141.949 186.071 142.575 191.105C143.083 195.18 143.037 202.019 146.778 204.441C147.066 204.622 147.511 204.391 147.49 204.031C147.324 200.817 146.179 197.619 145.767 194.371C145.121 189.207 144.255 183.37 145.521 178.24C147.071 172.005 153.581 172.529 158.655 172.419C162.972 172.325 167.241 172.737 171.532 173.051C172.994 173.162 173.402 170.636 171.912 170.356L171.927 170.335Z" fill="white"/>
<path d="M238.785 68.0212C238.818 65.3487 238.883 62.8816 238.943 60.6073C239.217 50.6984 239.405 44.1618 235.486 40.1774C232.098 36.7342 225.91 35.5596 214.168 36.113C202.447 36.6819 170.947 35.8367 137.569 34.9515C93.6479 33.7794 48.2192 32.561 39.6119 34.2989C28.1525 36.6069 28.7309 59.7411 29.3151 82.1068C29.3636 84.1321 29.409 86.1388 29.4515 88.1268C29.6942 99.6347 29.2064 149.257 28.7303 197.228C28.2396 246.831 27.7873 293.685 28.0444 302.869C28.5525 320.164 36.9263 321.114 52.1455 322.837C54.2562 323.067 56.52 323.327 58.94 323.638C73.862 325.585 146.024 327.245 187.903 327.696C201.849 327.836 212.423 327.849 216.417 327.696L216.876 327.674C233.764 326.998 239.096 325.385 238.681 296.256C238.255 267.052 238.542 93.5231 238.785 68.0212ZM216.77 324.834L216.311 324.855C200.381 325.5 79.1036 323.412 59.2816 320.816C56.8407 320.49 54.5618 320.251 52.4481 320.003C37.4391 318.32 31.2151 317.612 30.7886 302.778C30.5224 293.653 30.9983 244.647 31.4745 197.252C31.9445 149.244 32.4293 99.603 32.1986 88.0546C32.1562 86.0666 32.1107 84.0599 32.0592 82.0159C31.5475 61.8249 30.9691 38.9209 40.1499 37.0646C43.9507 36.2922 55.906 36.1432 71.7644 36.3169C90.5711 36.5179 114.857 37.1718 137.504 37.764C170.92 38.6616 202.475 39.4975 214.289 38.9316C225.055 38.4127 230.823 39.3914 233.568 42.1783C236.625 45.2949 236.47 51.3461 236.205 60.5053C236.148 62.7982 236.068 65.2871 236.038 67.9782C235.794 93.4801 235.516 267.065 235.925 296.272C236.324 324.042 231.797 324.211 216.767 324.815L216.77 324.834Z" fill="black" stroke="black" stroke-width="0.3023"/>
<path d="M219.709 170.532C213.659 169.41 207.426 169.337 201.325 169.855C196.996 170.22 193.216 170.662 191.242 175.186C189.147 180 189.731 186.269 190.356 191.302C190.865 195.378 190.818 202.216 194.559 204.639C194.848 204.819 195.292 204.589 195.271 204.228C195.105 201.014 193.961 197.816 193.548 194.568C192.902 189.404 192.036 183.568 193.302 178.437C194.853 172.202 201.362 172.726 206.436 172.616C210.753 172.522 215.023 172.935 219.313 173.248C220.775 173.36 221.183 170.833 219.694 170.554L219.709 170.532Z" fill="white"/>
<path d="M50.6257 100.372C53.205 102.018 71.4054 102.822 94.9768 103.063C143.531 103.568 214.872 101.744 219.096 100.035C221.549 99.0544 223.37 95.7655 224.519 90.2523C226.804 79.2664 225.813 61.8444 221.395 57.1787C214.99 50.4011 60.8262 51.8521 50.655 55.0309C46.512 56.323 43.8649 60.8098 42.9508 68.0092C41.5361 79.2282 44.8724 96.7244 50.6107 100.394L50.6257 100.372ZM45.692 68.3601C46.2225 64.1818 47.6355 58.9299 51.4632 57.7499C56.6269 56.1278 94.306 54.9835 137.227 55.1199C190.783 55.2973 217.135 57.2824 219.456 59.1641C222.805 62.71 224.087 78.9497 221.85 89.6587C220.563 95.8097 218.81 97.1105 218.117 97.4032C214.985 98.6545 177.721 99.9574 135.06 100.294C81.0635 100.711 54.4745 99.4382 52.0693 97.9547C48.1687 95.4636 44.2113 80.0894 45.692 68.3601Z" fill="black" stroke="black" stroke-width="0.3023"/>
<path d="M79.3434 156.032C80.9584 154.794 82.0627 151.879 82.7011 147.106C83.7922 138.821 83.1977 124.438 81.0864 121.676C79.2965 119.3 70.9349 118.769 66.1041 118.665C64.0055 118.625 53.3561 118.49 50.8346 120.538C47.3135 123.392 46.4443 130.18 46.3523 135.357C46.2039 143.288 47.8063 153.352 50.4609 155.694C52.5329 157.523 58.9131 158.626 65.257 158.699C71.0425 158.754 76.8399 157.962 79.3464 156.051L79.3434 156.032ZM78.9221 123.413C80.0273 124.871 81.2549 137.092 79.9719 146.715C79.2435 152.193 78.0609 153.472 77.7157 153.743C73.5911 156.874 55.2827 156.203 52.2228 153.528C50.8414 152.309 48.8972 144.146 49.0634 135.407C49.1851 129.035 50.4421 124.424 52.5074 122.762C55.0109 120.718 77.0032 121.269 78.9221 123.413Z" fill="black"/>
<path d="M126.672 156.519C128.287 155.281 129.391 152.365 130.029 147.593C131.117 139.289 130.526 124.925 128.412 122.144C126.622 119.768 118.26 119.238 113.429 119.133C111.331 119.093 100.681 118.959 98.1598 121.006C94.6387 123.86 93.7694 130.649 93.6775 135.826C93.5291 143.756 95.1315 153.82 97.786 156.162C99.8581 157.991 106.238 159.094 112.6 159.164C118.386 159.219 124.183 158.427 126.672 156.519ZM126.268 123.896C127.374 125.355 128.601 137.575 127.318 147.198C126.59 152.677 125.407 153.956 125.062 154.227C120.937 157.358 102.629 156.687 99.569 154.012C98.1876 152.793 96.2434 144.63 96.4096 135.89C96.5314 129.519 97.7884 124.908 99.8536 123.246C102.357 121.201 124.331 121.756 126.268 123.896Z" fill="black"/>
<path d="M175.763 122.646C173.973 120.27 165.611 119.74 160.78 119.635C158.664 119.598 148.032 119.46 145.493 121.511C141.972 124.365 141.102 131.154 141.01 136.331C140.862 144.261 142.482 154.322 145.119 156.667C147.191 158.496 153.571 159.599 159.933 159.669C165.719 159.724 171.516 158.932 174.023 157.021C175.638 155.783 176.742 152.867 177.38 148.095C178.486 139.788 177.877 125.427 175.781 122.643L175.763 122.646ZM174.654 147.722C173.926 153.201 172.743 154.48 172.395 154.732C168.27 157.863 149.962 157.192 146.902 154.517C145.521 153.298 143.579 145.153 143.743 136.395C143.864 130.024 145.121 125.413 147.187 123.751C149.69 121.706 171.664 122.261 173.601 124.401C174.706 125.86 175.934 138.08 174.654 147.722Z" fill="black"/>
<path d="M208.111 120.141C205.995 120.104 195.363 119.966 192.824 122.017C189.303 124.871 188.433 131.659 188.341 136.836C188.193 144.767 189.813 154.828 192.45 157.173C194.522 159.002 200.902 160.105 207.264 160.175C213.05 160.229 218.847 159.438 221.354 157.527C222.969 156.289 224.073 153.373 224.711 148.601C225.817 140.294 225.208 125.933 223.112 123.149C221.322 120.772 212.96 120.242 208.129 120.138L208.111 120.141ZM222 148.206C221.272 153.685 220.089 154.964 219.744 155.235C215.619 158.365 197.311 157.694 194.251 155.02C192.87 153.8 190.928 145.656 191.092 136.898C191.213 130.526 192.47 125.915 194.536 124.254C197.039 122.209 219.031 122.761 220.95 124.904C222.056 126.363 223.283 138.583 222.003 148.225L222 148.206Z" fill="black"/>
<path d="M49.9936 203.605C52.0656 205.434 58.4458 206.537 64.8078 206.607C70.5933 206.662 76.3907 205.87 78.8792 203.963C80.4942 202.724 81.5984 199.809 82.2369 195.036C83.328 186.751 82.7334 172.368 80.6192 169.587C78.8293 167.211 70.4676 166.681 65.6369 166.576C63.5352 166.518 52.8889 166.402 50.3674 168.449C46.8462 171.303 45.977 178.092 45.885 183.269C45.7366 191.199 47.342 201.282 49.9966 203.624L49.9936 203.605ZM52.0401 170.674C53.1868 169.746 58.4378 169.356 63.9622 169.398C70.4893 169.459 77.4158 170.161 78.4549 171.324C79.56 172.783 80.7876 185.003 79.5047 194.626C78.7763 200.105 77.5936 201.384 77.2484 201.655C73.1239 204.785 54.8155 204.114 51.7555 201.439C50.3742 200.22 48.4299 192.057 48.5962 183.318C48.7209 176.965 49.9779 172.354 52.0401 170.674Z" fill="black"/>
<path d="M97.3266 204.11C99.3986 205.939 105.779 207.042 112.141 207.112C117.926 207.167 123.724 206.375 126.212 204.467C127.827 203.229 128.931 200.313 129.57 195.541C130.661 187.256 130.066 172.873 127.952 170.092C126.162 167.716 117.801 167.186 112.97 167.081C110.868 167.022 100.222 166.907 97.7004 168.954C94.1792 171.808 93.31 178.597 93.218 183.774C93.0696 191.704 94.675 201.787 97.3296 204.129L97.3266 204.11ZM99.3912 171.175C100.538 170.248 105.789 169.858 111.313 169.9C117.84 169.961 124.767 170.662 125.806 171.826C126.911 173.285 128.139 185.505 126.856 195.128C126.127 200.607 124.945 201.886 124.599 202.156C120.475 205.287 102.166 204.616 99.1065 201.941C97.7252 200.722 95.7809 192.559 95.9472 183.82C96.0719 177.467 97.3289 172.856 99.3912 171.175Z" fill="black"/>
<path d="M175.298 170.576C172.406 166.759 148.483 166.637 145.046 169.438C141.525 172.292 140.656 179.081 140.564 184.258C140.415 192.188 142.018 202.252 144.672 204.594C146.744 206.423 153.124 207.526 159.486 207.596C165.272 207.651 171.069 206.859 173.558 204.951C175.173 203.713 176.277 200.797 176.916 196.025C178.022 187.718 177.412 173.357 175.316 170.573L175.298 170.576ZM174.189 195.652C173.461 201.131 172.278 202.41 171.93 202.662C167.806 205.793 149.497 205.122 146.437 202.447C145.056 201.228 143.112 193.065 143.278 184.325C143.4 177.954 144.66 173.361 146.722 171.681C149.225 169.636 171.2 170.191 173.137 172.331C174.242 173.79 175.469 186.01 174.189 195.652Z" fill="black"/>
<path d="M192.379 169.943C188.858 172.797 187.989 179.585 187.897 184.762C187.748 192.693 189.351 202.757 192.005 205.099C194.077 206.928 200.457 208.031 206.819 208.101C212.605 208.155 218.402 207.364 220.891 205.456C222.506 204.218 223.61 201.302 224.249 196.53C225.355 188.223 224.745 173.862 222.649 171.078C219.757 167.261 195.834 167.139 192.397 169.94L192.379 169.943ZM221.522 196.157C220.794 201.636 219.611 202.915 219.263 203.167C215.139 206.298 196.83 205.627 193.77 202.952C192.389 201.733 190.445 193.569 190.611 184.83C190.733 178.459 191.993 173.866 194.055 172.186C196.558 170.141 218.533 170.696 220.47 172.836C221.575 174.295 222.802 186.515 221.522 196.157Z" fill="black"/>
<path d="M164.743 150.108C166.124 149.255 167.391 147.923 168.468 146.681C169.204 145.844 168.107 144.672 167.285 145.428C166.072 146.52 164.761 147.802 163.896 149.218C163.575 149.753 164.203 150.431 164.743 150.108Z" fill="black"/>
<path d="M171.015 147.66C170.838 147.365 170.475 147.178 170.142 147.293C167.203 148.243 164.723 151.358 163.649 154.23C163.454 154.743 164.178 154.982 164.448 154.59C165.27 153.374 166.18 152.238 167.242 151.248C168.32 150.237 169.554 149.621 170.73 148.765C171.013 148.563 171.199 148.223 171.084 147.859C171.072 147.785 171.063 147.729 171.015 147.66Z" fill="black"/>
<path d="M69.9907 150.034C70.8881 148.938 71.8007 148.397 73.0706 147.889C73.8722 147.578 73.7728 146.387 72.8751 146.331C71.0947 146.197 69.3596 147.61 68.8016 149.318C68.5765 149.99 69.5284 150.612 69.9726 150.037L69.9907 150.034Z" fill="black"/>
<path d="M69.5265 152.107C69.2504 152.577 69.851 152.972 70.2112 152.68C70.9616 152.051 71.8262 151.441 72.7208 151.018C73.4083 150.688 74.5701 150.544 74.9272 149.773C75.0653 149.48 74.9872 149.225 74.7499 149.017C73.9242 148.373 72.5823 149.238 71.8438 149.711C70.8712 150.34 70.1448 151.118 69.5295 152.126L69.5265 152.107Z" fill="black"/>
<path d="M115.635 151.099C116.773 151.037 117.895 150.421 118.91 149.938C119.841 149.509 121.18 149.2 121.504 148.108C121.6 147.785 121.41 147.529 121.131 147.405C120.179 147.013 119.096 147.872 118.279 148.32C117.274 148.859 116.079 149.373 115.313 150.253C115.064 150.546 115.211 151.115 115.635 151.099Z" fill="black"/>
<path d="M116.978 152.421C116.603 152.851 117.134 153.392 117.56 153.05C118.719 152.082 119.965 151.195 121.268 150.432C122.351 149.804 123.696 149.417 124.564 148.481C124.849 148.182 124.642 147.7 124.248 147.672C122.885 147.601 121.489 148.59 120.388 149.337C119.103 150.212 118.01 151.245 116.96 152.424L116.978 152.421Z" fill="black"/>
<path d="M212.969 150.996C214.17 150.865 215.44 150.127 216.572 149.567C216.719 149.561 216.761 149.592 216.626 149.673C216.662 149.897 216.929 149.947 217.073 149.807C217.362 149.526 217.491 149.178 217.517 148.77C217.544 148.478 217.352 148.204 217.124 148.052C216.391 147.526 215.62 148.139 214.917 148.491C214.131 148.896 213.143 149.316 212.576 150.047C212.576 150.047 212.576 150.047 212.597 150.063C212.297 150.383 212.441 151.049 212.93 150.984L212.969 150.996Z" fill="black"/>
<path d="M217.252 151.138C215.529 151.59 214.013 152.869 212.521 153.837C212.053 154.148 212.452 154.904 212.944 154.627C214.49 153.765 216.31 152.99 217.519 151.649C217.705 151.424 217.537 151.07 217.234 151.141L217.252 151.138Z" fill="black"/>
<path d="M223.27 104.932C222.945 105.564 223.696 106.202 224.228 105.707C225.242 104.764 226.191 103.756 227.292 102.894C227.821 102.495 229.445 101.543 228.676 100.678C227.925 99.8105 226.415 101.242 225.866 101.74C224.845 102.645 223.882 103.675 223.27 104.932Z" fill="black"/>
<path d="M232.356 102.939C230.138 103.419 228.115 105.457 226.367 106.911C224.164 108.75 222.075 110.723 220.142 112.861C219.701 113.34 220.349 114.033 220.836 113.604C223.036 111.631 225.281 109.708 227.644 107.937C229.397 106.636 231.651 105.575 232.954 103.776C233.257 103.359 232.768 102.849 232.356 102.939Z" fill="black"/>
<path d="M225.205 114.518C226.451 113.976 227.694 113.416 228.907 112.784C229.777 112.326 231.017 111.978 231.311 110.929C231.368 110.708 231.236 110.462 231.023 110.403C230.011 110.099 229.048 111.014 228.207 111.543C227.048 112.28 225.932 113.049 224.842 113.871C224.461 114.148 224.773 114.708 225.205 114.518Z" fill="black"/>
<path d="M232.43 115.243C231.562 114.913 230.547 115.741 229.893 116.276C229.04 116.961 228.365 117.826 227.813 118.765C227.534 119.217 228.185 119.584 228.491 119.185C229.101 118.37 229.881 117.698 230.722 117.169C231.361 116.77 232.277 116.593 232.685 115.908C232.829 115.653 232.688 115.351 232.433 115.261L232.43 115.243Z" fill="black"/>
<path d="M52.1967 98.0708C54.6052 99.5306 81.28 100.795 135.448 100.33C178.261 99.9525 215.626 98.6216 218.768 97.3698C219.467 97.0958 221.242 95.7741 222.52 89.637C224.773 78.9468 223.501 62.7397 220.145 59.2037C217.8 57.3309 191.366 55.3736 137.66 55.2419C94.6029 55.1448 56.8039 56.3209 51.6226 57.9446C47.7848 59.1444 46.3599 64.3687 45.8242 68.5394C44.3471 80.2442 48.2859 95.5881 52.1967 98.0708Z" fill="#7F27BB"/>
</g>
<path d="M237.354 36.9033C236.539 37.2303 235.933 36.0986 236.645 35.5924C243.648 30.713 250.837 26.1562 258.784 22.9537C260.359 22.3308 261.261 22.2998 261.368 22.9191C261.548 24.0579 260.521 24.3281 259.829 24.7636C258.039 25.9047 256.241 27.0741 254.368 28.0718C249.247 30.7895 244.081 33.4496 238.904 36.0918C238.41 36.3532 237.933 36.6646 237.34 36.8995L237.354 36.9033Z" fill="white"/>
<path d="M230.794 31.6462C230.304 32.2875 229.279 31.8159 229.413 31.0338C229.504 30.4675 229.728 30.0276 229.952 29.5877C231.215 27.0785 232.503 24.5909 233.829 22.1288C234.137 21.5448 234.635 21.0422 235.108 20.5781C235.27 20.4246 235.665 20.3639 235.888 20.4386C236.106 20.5274 236.381 20.8586 236.356 21.064C236.278 21.9216 236.263 22.8263 235.938 23.5875C235.46 24.7471 234.821 25.833 234.143 26.8935C233.086 28.5189 231.956 30.0793 230.812 31.6359L230.794 31.6462Z" fill="white"/>
<path d="M243.12 43.8712C242.682 43.7538 242.568 43.1627 242.906 42.8596C243.007 42.7655 243.101 42.6996 243.215 42.6696C246.797 41.5693 250.422 40.6472 254.162 40.2558C254.521 40.2157 254.913 40.3359 255.284 40.4202C255.595 40.5035 255.737 41.1625 255.481 41.3818C255.265 41.5663 255.056 41.7828 254.802 41.8814C251.087 43.3096 247.222 43.9402 243.237 43.8873C243.195 43.876 243.152 43.8646 243.11 43.8532L243.12 43.8712Z" fill="white"/>
<path d="M66 11.6406C67.2591 15.0455 70.8203 17.5753 73.9774 18.5489C78.2273 19.8595 84.0195 18.8307 84.6049 16.4477C84.8513 15.4443 84.7098 14.6383 83.6293 14.0888C82.2951 13.4104 80.3407 14.891 80.9754 17.2273C81.8921 20.602 86.4457 23.07 90.5382 22.8308" stroke="white" stroke-width="2.25" stroke-linecap="round"/>
</g>
<defs>
<clipPath id="clip0_738_882">
<rect width="278" height="191" fill="white"/>
</clipPath>
</defs>
</svg>
