<svg width="740" height="318" viewBox="0 0 740 318" fill="none" xmlns="http://www.w3.org/2000/svg">
<path d="M23.7479 43.3996C-7.17632 89.2791 -8.43717 205.588 32.5296 286.068C41.6647 304.015 70.3844 316.223 104.115 312.723C377.467 284.372 535.416 341.111 681.243 303.127C704.685 297.035 722.781 282.926 727.188 265.794C745.905 193.047 740.445 103.176 724.966 52.9424C719.625 35.5322 701.319 24.1362 677.338 18.4856C560.256 -8.97224 177.916 -0.257022 77.041 12.3251C52.9577 17.2719 34.4881 27.4505 23.6912 43.4041L23.7479 43.3996Z" fill="#FFCE00"/>
<path d="M717.285 144.013C721.212 148.055 721.597 159.915 717.43 163.768C713.276 167.618 701.194 166.629 697.264 162.573C690.16 155.253 696.008 149.817 700.162 145.967C704.316 142.117 710.864 137.4 717.285 144.013Z" fill="#C10230"/>
<path d="M702.947 138.413C701.038 139.204 699.806 140.816 699.744 142.381C699.228 142.517 698.745 142.757 698.34 143.122C698.163 143.293 698.002 143.475 697.872 143.679C696.421 143.86 694.952 144.932 694.142 146.578C692.974 148.927 692.61 153.474 694.506 154.363C696.221 155.174 699.211 152.702 700.625 150.488C702.659 151.754 705.317 152.56 706.454 151.493C707.664 150.371 706.836 147.498 705.541 145.417C705.659 145.381 705.775 145.333 705.891 145.284C708.342 144.269 711.7 141.077 710.882 139.173C710.063 137.269 705.395 137.384 702.945 138.399" fill="#B0DF30"/>
<path d="M701.339 146.405C701.042 146.681 700.582 146.668 700.308 146.385C696.636 142.601 696.801 136.578 700.694 132.969C700.991 132.694 701.451 132.707 701.724 132.99C701.998 133.273 701.982 133.72 701.699 133.993C698.389 137.066 698.25 142.168 701.361 145.388C701.635 145.671 701.619 146.118 701.336 146.391" fill="#262626"/>
<path d="M708.539 155.622C708.249 155.328 708.258 154.841 708.568 154.562C708.875 154.27 709.365 154.292 709.654 154.586C709.946 154.894 710.361 155.803 710.051 156.081C709.744 156.373 708.828 155.916 708.539 155.622Z" fill="#262626"/>
<path d="M712.379 159.569C712.09 159.275 712.098 158.788 712.408 158.509C712.716 158.218 713.205 158.239 713.495 158.533C713.787 158.841 714.202 159.75 713.892 160.029C713.585 160.32 712.669 159.863 712.379 159.569Z" fill="#262626"/>
<path d="M701.596 157.414C701.307 157.12 701.315 156.633 701.625 156.355C701.932 156.063 702.422 156.085 702.711 156.379C703.003 156.686 703.419 157.595 703.109 157.874C702.801 158.166 701.885 157.708 701.596 157.414Z" fill="#262626"/>
<path d="M705.626 160.883C705.276 160.642 705.204 160.169 705.462 159.831C705.719 159.493 706.191 159.421 706.541 159.662C706.876 159.906 707.456 160.73 707.199 161.068C706.942 161.406 705.975 161.125 705.623 160.87" fill="#262626"/>
<path d="M711.813 147.937C711.524 147.643 711.034 147.621 710.727 147.913C710.419 148.205 710.408 148.678 710.698 148.972C710.989 149.28 711.903 149.724 712.21 149.432C712.518 149.14 712.102 148.231 711.813 147.937Z" fill="#262626"/>
<path d="M715.144 152.06C714.915 151.713 714.44 151.62 714.08 151.852C713.72 152.084 713.624 152.545 713.853 152.892C714.083 153.238 714.9 153.839 715.26 153.607C715.62 153.375 715.374 152.407 715.144 152.06Z" fill="#262626"/>
<path d="M42.9613 30.515C40.1365 34.9339 42.0504 40.694 46.9566 42.575C49.7815 38.1561 47.8676 32.3959 42.9613 30.515Z" fill="#97C124"/>
<path d="M27.7032 54.6507C23.4708 57.8688 17.4003 57.1639 14.1535 53.0855C10.908 48.9941 11.715 43.0776 15.9487 39.8465C20.1811 36.6284 25.2744 36.5289 28.1389 42.4504C33.1603 46.8128 31.9356 51.4325 27.7032 54.6507Z" fill="#E7194A"/>
<path d="M47.4046 62.4564C46.6824 67.7933 41.6719 71.5993 36.221 70.9701C30.7571 70.3396 26.9199 65.5089 27.6421 60.1719C28.3644 54.8349 32.0565 51.144 38.6002 53.3733C45.5697 52.9407 48.1256 57.1323 47.4046 62.4564Z" fill="#E7194A"/>
<path d="M24.6442 44.0571C23.9142 43.134 23.539 41.9331 23.7175 40.6836C23.7489 40.3731 24.0454 40.1548 24.3688 40.1875C24.6792 40.2188 24.9118 40.5037 24.8675 40.8128C24.6107 42.7078 25.9789 44.4272 27.9166 44.6492C28.24 44.6818 28.4596 44.9654 28.4153 45.2745C28.3839 45.585 28.0874 45.8033 27.7641 45.7706C26.4848 45.6283 25.3871 44.9816 24.6571 44.0584" fill="#262626"/>
<path d="M26.2205 43.459C26.1055 43.3036 26.0332 43.1133 26.0671 42.9077C27.1583 34.8246 34.788 29.0226 43.0536 29.9885C43.4805 30.0317 43.7686 30.4136 43.7138 30.8262C43.659 31.2389 43.2758 31.5399 42.8502 31.4838C35.4228 30.6287 28.5725 35.83 27.5909 43.0878C27.5361 43.5004 27.1529 43.8015 26.7273 43.7454C26.5203 43.7245 26.3354 43.6143 26.2205 43.459Z" fill="#262626"/>
<path d="M34.0612 55.0969C33.8636 54.8548 33.9131 54.4939 34.1668 54.3104C34.4219 54.1141 34.7828 54.1636 34.9818 54.3928C36.1639 55.8843 38.3979 56.1493 39.9411 54.9723C40.1962 54.776 40.5571 54.8255 40.7561 55.0547C40.9538 55.2968 40.9042 55.6577 40.6492 55.8541C38.5958 57.4238 35.6388 57.0727 34.0625 55.084" fill="#262626"/>
<path d="M36.6459 55.123C31.0348 48.0615 33.6856 36.8299 42.5608 30.0823C42.9 29.829 43.3786 29.8774 43.646 30.205C43.9005 30.5313 43.8393 31.0086 43.5 31.2618C35.3046 37.4901 32.7893 47.7683 37.8785 54.1761C38.133 54.5023 38.0717 54.9796 37.7325 55.2328C37.3933 55.4861 36.9147 55.4377 36.6472 55.1101" fill="#262626"/>
<path d="M707.88 109.226C707.562 111.839 707.378 113.916 706.993 115.976C706.926 116.361 706.072 116.73 705.536 116.83C705.301 116.864 704.732 116.227 704.681 115.842C704.531 114.552 704.564 113.246 704.497 111.956C704.447 111.018 704.313 110.08 704.212 108.958C702.588 108.522 701.08 108.137 698.986 107.584C699.891 106.914 700.276 106.462 700.779 106.294C701.834 105.926 702.923 105.691 704.045 105.39C704.799 103.413 704.497 101.437 704.782 99.5442C705.05 97.7185 704.799 95.7085 706.172 94C707.177 95.943 707.16 95.943 707.261 99.4939C707.311 101.253 707.445 103.011 707.545 104.954C709.539 105.172 711.297 105.289 712.989 105.624C713.425 105.708 713.86 106.479 713.994 106.998C714.061 107.249 713.542 107.919 713.19 108.02C711.482 108.489 709.74 108.824 707.88 109.242V109.226Z" fill="white"/>
<path d="M686.442 126.88C685.068 126.813 683.862 125.59 684.013 124.401C684.197 122.877 685.52 121.688 686.961 121.738C688.217 121.788 689.389 123.044 689.373 124.301C689.339 125.775 687.999 126.964 686.442 126.88Z" fill="white"/>
<path d="M31.8949 173.194C32.7243 175.783 34.8912 176.951 37.4304 176.18C41.7392 174.88 45.2782 168.193 43.926 163.855C43.0118 160.893 39.3869 159.568 36.5507 161.153C33.0966 163.047 30.6682 169.372 31.8744 173.2L31.8949 173.194ZM34.6121 172.814C33.0855 169.718 35.6573 164.433 38.7242 163.578C39.5405 163.344 40.8208 164.037 41.0429 164.813C41.89 167.772 39.4752 172.371 36.455 173.236C35.8428 173.411 34.7609 173.102 34.6121 172.814Z" fill="white"/>
<path d="M63.8711 171.437C66.7919 170.071 68.4753 166.387 67.5057 163.463C66.8106 161.344 64.8976 160.677 62.9651 161.871C60.2806 163.522 58.9231 165.876 59.3242 169.051C59.6404 171.544 61.5741 172.514 63.8507 171.442L63.8711 171.437ZM62.5224 168.422C61.3527 167.499 61.6525 166.464 62.0922 165.454C62.5029 164.498 63.0685 164.468 64.6201 165.261C64.4721 166.672 64.0296 167.903 62.5224 168.422Z" fill="white"/>
<path d="M43.2754 184.99C40.6549 186.248 39.3533 189.491 40.3927 192.197C40.9183 193.57 42.4873 194.269 43.8807 193.737C46.5801 192.677 48.351 189.145 47.5914 186.338C47.1386 184.679 45.1964 184.065 43.2754 184.99ZM42.8877 190.577C42.0211 189.324 42.4666 188.335 43.0843 187.407C43.227 187.212 43.6235 187.054 43.8626 187.118C44.1221 187.177 44.5393 187.477 44.5365 187.698C44.5692 188.97 44.3511 190.136 42.8731 190.603L42.8877 190.577Z" fill="white"/>
</svg>
