<svg width="586" height="405" viewBox="0 0 586 405" fill="none" xmlns="http://www.w3.org/2000/svg">
<g clip-path="url(#clip0_159_31412)">
<path d="M45.1195 237.226C45.4378 239.839 45.622 241.916 46.0073 243.976C46.0743 244.361 46.9285 244.73 47.4645 244.83C47.699 244.864 48.2685 244.227 48.3187 243.842C48.4695 242.552 48.436 241.246 48.503 239.956C48.5532 239.018 48.6872 238.08 48.7877 236.958C50.4125 236.522 51.9199 236.137 54.0137 235.584C53.1092 234.914 52.7239 234.462 52.2214 234.294C51.1662 233.926 50.0775 233.691 48.9552 233.39C48.2015 231.413 48.503 229.437 48.2182 227.544C47.9502 225.718 48.2015 223.708 46.828 222C45.823 223.943 45.8398 223.943 45.7393 227.494C45.689 229.253 45.555 231.011 45.4545 232.954C43.4613 233.172 41.7025 233.289 40.0108 233.624C39.5753 233.708 39.1398 234.479 39.0058 234.998C38.9388 235.249 39.4581 235.919 39.8098 236.02C41.5183 236.489 43.2603 236.824 45.1195 237.242V237.226Z" fill="white"/>
<path d="M66.5585 254.88C67.932 254.813 69.138 253.59 68.9872 252.401C68.803 250.877 67.4797 249.688 66.0393 249.738C64.783 249.788 63.6105 251.044 63.6273 252.301C63.6608 253.775 65.0008 254.964 66.5585 254.88Z" fill="white"/>
<g opacity="0.3">
<path d="M531.494 370.29C529.424 368.295 527.232 366.413 524.843 364.731C524.236 364.288 523.198 364.542 522.746 365.194C522.316 365.891 522.483 366.759 523.159 367.226C523.698 367.646 524.285 368.043 524.824 368.462C525.093 368.672 525.363 368.882 525.632 369.091C525.743 369.207 525.901 369.301 526.012 369.417C525.833 369.277 526.192 369.557 526.012 369.417C526.054 369.509 526.192 369.557 526.213 369.602C527.243 370.463 528.247 371.391 529.25 372.32C529.783 372.853 530.757 372.961 531.367 372.404C531.93 371.868 532.069 370.914 531.515 370.336L531.494 370.29Z" fill="white"/>
<path d="M528.535 374.535C526.519 371.905 524.185 369.587 521.607 367.493C521.338 367.283 520.803 367.251 520.475 367.29C520.12 367.398 519.712 367.64 519.558 367.933C519.101 368.699 519.321 369.431 519.971 369.966C520.172 370.152 519.929 369.874 519.992 370.012C520.034 370.104 520.172 370.152 520.261 370.222C520.42 370.315 520.552 370.477 520.663 370.593C520.953 370.848 521.244 371.104 521.534 371.36C522.115 371.871 522.67 372.449 523.224 373.028C524.312 374.14 525.325 375.342 526.291 376.565C526.75 377.188 527.845 377.185 528.408 376.649C529.045 376.024 529.036 375.25 528.556 374.581L528.535 374.535Z" fill="white"/>
<path d="M524.533 378.65C522.165 375.125 519.336 371.98 516.018 369.28C515.437 368.769 514.325 369.113 513.921 369.743C513.464 370.508 513.684 371.24 514.334 371.775C514.176 371.681 514.376 371.867 514.445 371.891C514.535 371.961 514.625 372.031 514.736 372.147C514.915 372.286 515.116 372.472 515.317 372.658C515.697 372.983 516.008 373.285 516.389 373.61C517.102 374.283 517.767 374.978 518.432 375.672C519.05 376.389 519.667 377.105 520.285 377.822C520.591 378.237 520.876 378.606 521.182 379.021C521.224 379.113 521.266 379.205 521.356 379.275C521.272 379.091 521.398 379.366 521.419 379.412C521.524 379.642 521.746 379.873 521.899 380.081C522.31 380.725 523.178 381.105 523.899 380.663C524.545 380.311 525.035 379.364 524.555 378.696L524.533 378.65Z" fill="white"/>
<path d="M518.805 379.504C515.605 376.306 512.113 373.353 508.324 370.758C507.669 370.337 506.678 370.569 506.227 371.221C505.749 371.94 505.964 372.786 506.64 373.254C510.181 375.684 513.519 378.43 516.54 381.488C517.094 382.067 518.026 382.083 518.657 381.572C519.219 381.036 519.359 380.083 518.805 379.504Z" fill="white"/>
<path d="M509.645 380.428C507.006 377.195 503.932 374.272 500.63 371.732C500.023 371.289 498.937 371.565 498.533 372.195C498.076 372.96 498.296 373.692 498.946 374.228C499.754 374.857 500.383 375.346 501.144 375.997C501.904 376.647 502.617 377.32 503.351 378.039C504.798 379.43 506.123 380.933 507.401 382.458C507.907 383.059 508.955 383.078 509.518 382.542C510.107 381.938 510.193 381.121 509.666 380.474L509.645 380.428Z" fill="white"/>
<path d="M501.758 382.492C499.391 378.467 496.229 374.974 492.477 372.085C491.849 371.596 490.832 371.896 490.38 372.547C489.902 373.267 490.165 374.091 490.793 374.58C494.027 377.096 496.967 380.357 499.054 383.899C499.466 384.544 500.312 384.878 501.054 384.482C501.769 384.153 502.121 383.158 501.71 382.514L501.758 382.492Z" fill="white"/>
<path d="M494.667 381.636C491.652 378.465 488.488 375.472 485.129 372.681C484.5 372.192 483.669 372.017 483.012 372.597C482.476 373.065 482.283 374.154 482.864 374.665C486.223 377.456 489.434 380.427 492.401 383.62C492.956 384.199 493.887 384.216 494.519 383.704C495.129 383.147 495.173 382.237 494.667 381.636Z" fill="white"/>
<path d="M488.816 382.6C485.864 379.566 482.934 376.577 479.982 373.543C479.449 373.01 478.475 372.901 477.865 373.459C477.303 373.995 477.163 374.948 477.717 375.527C480.669 378.561 483.599 381.55 486.551 384.584C487.084 385.117 488.058 385.225 488.668 384.668C489.23 384.132 489.37 383.179 488.816 382.6Z" fill="white"/>
<path d="M479.057 385.744C476.483 382.148 473.452 378.816 470.077 375.866C469.496 375.354 468.618 375.202 467.96 375.782C467.377 376.272 467.231 377.338 467.812 377.85C471.187 380.8 474.149 384.108 476.792 387.728C477.251 388.351 478.373 388.28 478.909 387.812C479.567 387.232 479.516 386.367 479.057 385.744Z" fill="white"/>
<path d="M470.562 385.478C468.305 382.069 465.756 378.906 462.82 376.031C462.287 375.498 461.313 375.39 460.703 375.948C460.14 376.483 460.001 377.437 460.555 378.015C463.29 380.704 465.797 383.776 467.838 386.839C468.249 387.484 469.117 387.864 469.838 387.422C470.484 387.069 470.926 386.144 470.493 385.454L470.562 385.478Z" fill="white"/>
<path d="M463.285 385.096C460.667 381.908 457.805 378.944 454.673 376.27C454.092 375.759 453.214 375.607 452.556 376.187C452.041 376.701 451.806 377.697 452.408 378.254C455.54 380.928 458.402 383.892 461.02 387.08C461.526 387.68 462.574 387.699 463.137 387.163C463.726 386.56 463.812 385.742 463.285 385.096Z" fill="white"/>
<path d="M456.764 384.476C453.653 381.848 450.791 378.884 448.29 375.698C447.831 375.076 446.735 375.079 446.173 375.614C445.536 376.24 445.545 377.014 446.025 377.682C448.526 380.868 451.388 383.832 454.499 386.46C455.08 386.971 455.959 387.123 456.616 386.543C457.131 386.029 457.367 385.033 456.764 384.476Z" fill="white"/>
<path d="M447.719 386.405C445.509 382.975 442.743 379.967 439.462 377.472C438.854 377.029 437.768 377.305 437.365 377.935C436.908 378.7 437.128 379.432 437.778 379.968C437.957 380.107 438.137 380.247 438.317 380.387C438.407 380.457 438.496 380.527 438.586 380.597C438.607 380.642 438.856 380.806 438.676 380.666C439.035 380.946 439.416 381.271 439.727 381.573C440.419 382.2 441.063 382.849 441.728 383.543C442.325 384.214 442.943 384.93 443.491 385.623C443.623 385.785 443.776 385.992 443.929 386.2C443.971 386.292 444.035 386.429 444.124 386.499C444.409 386.868 444.061 386.361 444.167 386.591C444.473 387.006 444.71 387.397 444.968 387.834C445.379 388.479 446.247 388.858 446.968 388.416C447.614 388.064 448.056 387.139 447.623 386.449L447.719 386.405Z" fill="white"/>
<path d="M441.159 387.084C438.837 384.038 436.102 381.349 432.974 379.063C432.366 378.619 431.281 378.896 430.877 379.525C430.399 380.245 430.64 381.023 431.29 381.558C431.649 381.837 432.008 382.117 432.368 382.397C432.458 382.466 432.547 382.536 432.637 382.606C432.637 382.606 432.928 382.862 432.817 382.746C432.727 382.676 433.017 382.932 432.996 382.886C433.039 382.978 433.155 382.98 433.197 383.071C433.889 383.698 434.581 384.325 435.225 384.974C436.513 386.272 437.728 387.659 438.846 389.09C439.305 389.712 440.401 389.709 440.963 389.174C441.6 388.548 441.591 387.774 441.111 387.106L441.159 387.084Z" fill="white"/>
<path d="M432.788 385.704C430.328 383.111 427.799 380.494 425.339 377.901C424.805 377.368 423.832 377.259 423.221 377.817C422.659 378.353 422.519 379.306 423.073 379.885C425.534 382.478 428.063 385.095 430.523 387.688C431.057 388.221 432.03 388.33 432.64 387.772C433.203 387.236 433.343 386.283 432.788 385.704Z" fill="white"/>
<path d="M426.185 386.287C423.938 383.152 421.542 380.196 418.86 377.372C418.327 376.839 417.353 376.73 416.743 377.288C416.133 377.846 416.04 378.777 416.595 379.356C419.208 382.156 421.673 385.136 423.92 388.271C424.379 388.894 425.501 388.823 426.037 388.355C426.674 387.73 426.665 386.956 426.185 386.287Z" fill="white"/>
<path d="M420.67 386.098C418.808 383.675 416.898 381.274 415.035 378.851C414.576 378.229 413.48 378.232 412.918 378.768C412.281 379.393 412.29 380.167 412.77 380.835L418.405 388.082C418.864 388.705 419.96 388.702 420.522 388.166C421.159 387.54 421.15 386.767 420.67 386.098Z" fill="white"/>
<path d="M415.487 386.754C414.558 385.736 413.655 384.65 412.869 383.566C412.806 383.429 412.695 383.313 412.584 383.197C412.542 383.105 412.521 383.06 412.479 382.968C412.374 382.738 412.416 382.83 412.479 382.968C412.284 382.668 412.11 382.415 411.915 382.116C411.525 381.517 411.155 380.964 410.765 380.366C410.354 379.721 409.487 379.341 408.766 379.783C408.071 380.158 407.677 381.061 408.11 381.751C409.665 384.259 411.39 386.634 413.359 388.786C413.845 389.341 414.914 389.406 415.477 388.87C416.087 388.312 416.131 387.403 415.625 386.802L415.487 386.754Z" fill="white"/>
</g>
<path d="M168.572 217.028C164.956 225.652 169.86 234.299 178.807 238.052C187.739 241.798 197.34 239.236 200.964 230.598C204.58 221.973 201.602 210.569 190.447 210.267C183.069 202.648 172.21 208.397 168.593 217.021" fill="#97C124"/>
<path d="M189.358 214.443C189.771 214.611 190.222 214.44 190.383 214.04C193.072 207.614 189.849 200.12 183.192 197.324C182.779 197.157 182.328 197.328 182.168 197.727C182.015 198.113 182.2 198.571 182.6 198.731C188.452 201.185 191.283 207.768 188.92 213.418C188.767 213.803 188.952 214.262 189.352 214.422" fill="#262626"/>
<path d="M188.921 214.657C190.433 215.288 192.09 215.313 193.587 214.732C193.995 214.574 194.177 214.133 193.998 213.731C193.832 213.337 193.363 213.139 192.968 213.305C191.858 213.734 190.626 213.721 189.499 213.242C188.386 212.772 187.504 211.904 187.032 210.806C186.866 210.412 186.397 210.215 186.003 210.38C185.595 210.539 185.412 210.98 185.592 211.382C186.237 212.859 187.408 214.026 188.921 214.657Z" fill="#262626"/>
<path d="M190.323 202.889C192.086 198.696 197.035 196.768 201.397 198.584C201.796 198.744 201.995 199.211 201.829 199.588C200.066 203.781 195.117 205.71 190.755 203.893C190.356 203.733 190.157 203.267 190.323 202.889Z" fill="#97C124"/>
<path d="M96.1553 133.41C96.2511 134.166 96.2861 134.899 96.2812 135.59C96.2631 136.814 96.0922 137.935 95.8131 138.968C95.8131 138.968 95.8168 138.981 95.8083 138.997C95.7901 139.07 95.7596 139.147 95.7414 139.22C95.7414 139.22 95.7452 139.233 95.7366 139.249C95.5761 139.785 95.3833 140.305 95.1545 140.795C93.6487 144.141 87.2499 149.091 82.9416 150.527C82.9046 150.539 82.8675 150.55 82.8304 150.562C82.8304 150.562 82.8181 150.565 82.8057 150.569C82.2248 150.748 81.6067 150.939 80.965 151.096C80.3023 151.273 79.6036 151.421 78.885 151.548C78.692 151.581 78.4866 151.617 78.2937 151.649C77.288 151.811 76.2348 151.905 75.1714 151.922C72.4638 151.959 69.643 151.449 67.0063 149.948C64.9905 148.797 63.3474 146.964 62.0981 144.914C62.0156 144.777 61.9294 144.627 61.8469 144.49C61.7806 144.362 61.7057 144.25 61.6393 144.121C61.5143 143.889 61.3892 143.657 61.2764 143.422C61.0898 143.033 60.9071 142.656 60.7489 142.272C60.7452 142.26 60.7376 142.235 60.7338 142.223C60.4289 141.491 60.1649 140.761 59.9456 140.044C59.3745 138.177 59.1482 136.42 59.2586 135.101C59.3981 133.435 59.6369 132.049 59.999 130.8C60.1557 130.252 60.3447 129.72 60.5499 129.197C60.9334 128.239 61.3976 127.325 61.9484 126.384C62.0122 126.283 62.0637 126.186 62.1275 126.085C62.3067 125.787 62.5266 125.489 62.7751 125.196C63.0617 124.85 63.3892 124.506 63.7328 124.17C64.4619 123.458 65.3001 122.794 66.0375 122.241C66.3125 122.035 66.5789 121.845 66.812 121.678C66.9908 121.555 67.1574 121.436 67.3153 121.333C67.8518 120.965 68.2047 120.748 68.2047 120.748C68.2047 120.748 68.2467 120.708 68.338 120.653C68.4293 120.597 68.5501 120.506 68.7204 120.399C68.766 120.372 68.8117 120.344 68.8697 120.313C68.9943 120.234 69.1437 120.147 69.3054 120.057C69.3301 120.049 69.3425 120.045 69.3634 120.025C69.8152 119.778 70.3745 119.484 71.0525 119.18C71.2798 119.083 71.5194 118.982 71.7714 118.877C72.0976 118.749 72.4485 118.614 72.8193 118.5C72.9676 118.454 73.1283 118.404 73.2767 118.359C73.3632 118.332 73.4497 118.305 73.5362 118.279C74.1789 118.08 74.8863 117.916 75.6382 117.766C75.6753 117.754 75.7248 117.739 75.7656 117.74C77.4824 117.427 79.4527 117.279 81.6192 117.464C82.215 117.51 82.7974 117.601 83.3626 117.724C83.4196 117.734 83.4766 117.743 83.5374 117.765C83.5944 117.775 83.6514 117.784 83.7122 117.806C83.7569 117.819 83.7854 117.824 83.83 117.837C83.8747 117.851 83.9032 117.855 83.9478 117.869C83.9925 117.882 84.0371 117.895 84.078 117.896C84.1065 117.901 84.135 117.906 84.1511 117.914C84.1796 117.919 84.2082 117.924 84.2404 117.941C84.2851 117.954 84.3136 117.959 84.3582 117.972L84.3706 117.968C84.4152 117.982 84.4599 117.995 84.4921 118.012C84.5368 118.025 84.5814 118.038 84.6261 118.052C84.6261 118.052 84.6546 118.057 84.6584 118.069C84.6708 118.065 84.6906 118.086 84.7154 118.078C84.7476 118.095 84.7885 118.096 84.8208 118.113C84.8493 118.118 84.8655 118.127 84.894 118.132C85.0155 118.175 85.1371 118.219 85.2587 118.263C85.8381 118.476 86.3841 118.714 86.9168 118.996C87.2235 119.158 87.5302 119.321 87.8321 119.512C87.8644 119.529 87.8843 119.55 87.9166 119.567C88.1825 119.729 88.4398 119.906 88.697 120.084C88.7853 120.152 88.8859 120.215 88.9742 120.283C89.1831 120.435 89.3795 120.591 89.576 120.747C90.0449 121.13 90.4966 121.545 90.9112 121.972C92.4701 123.575 93.7026 125.481 94.5614 127.449C94.7006 127.771 94.8275 128.097 94.9543 128.423C94.9657 128.46 94.9732 128.485 94.9846 128.522C95.6318 130.284 96.017 131.897 96.201 133.383L96.1553 133.41Z" fill="#F99D22"/>
<path d="M70.1812 122.458C70.1812 122.458 68.5743 122.641 68.6501 122.889C68.7222 123.124 69.8691 123.028 69.7597 123.332C69.6625 123.633 68.288 124.53 68.2954 124.731C68.2906 124.935 69.8618 124.018 70.2856 124.077C70.697 124.14 70.2484 125.632 70.4555 125.69C71.0113 125.871 70.8872 123.879 71.5116 123.754C72.1359 123.63 72.7794 124.758 72.9705 124.632C73.2405 124.454 72.142 123.032 72.142 123.032C72.142 123.032 73.6966 122.987 73.7632 122.764C73.8299 122.54 72.1692 122.239 72.1692 122.239C72.1692 122.239 72.9224 121.168 72.5843 120.947C72.2462 120.726 71.4044 122.082 71.2401 121.943C71.0634 121.808 69.9446 121.069 69.8341 121.414C69.7237 121.76 70.0558 122.402 70.2049 122.491L70.1812 122.458Z" fill="#8CC747"/>
<path d="M480.776 87.4963C484.486 93.0293 482.421 106.902 476.759 110.499C471.113 114.097 457.273 110.387 453.563 104.837C446.852 94.8199 454.805 89.7385 460.451 86.1413C466.097 82.544 474.711 78.4467 480.776 87.4963Z" fill="#C10230"/>
<path d="M465.29 77.9462C462.902 78.4624 461.128 80.0755 460.725 81.8822C460.096 81.9306 459.483 82.1081 458.934 82.4468C458.692 82.6081 458.466 82.7856 458.273 82.9953C456.547 82.8985 454.611 83.8341 453.321 85.5763C451.465 88.0605 450.078 93.2709 452.095 94.7066C453.917 96.0132 457.918 93.7709 460.031 91.4964C462.128 93.3999 465.048 94.9001 466.597 93.9C468.242 92.8515 467.887 89.3349 466.822 86.6409C466.968 86.6248 467.113 86.5925 467.258 86.5603C470.323 85.8989 474.904 82.8985 474.356 80.5111C473.807 78.1236 468.355 77.2687 465.29 77.9301" fill="#B0DF30"/>
<path d="M461.726 86.8993C461.323 87.1574 460.79 87.0445 460.532 86.6573C457.064 81.4792 458.532 74.5105 463.823 71.139C464.226 70.8809 464.759 70.9939 465.017 71.381C465.275 71.7682 465.162 72.2844 464.775 72.5425C460.274 75.4138 459.032 81.3179 461.968 85.7217C462.226 86.1088 462.113 86.625 461.726 86.8831" fill="#262626"/>
<path d="M468.146 99.1429C467.872 98.7396 467.985 98.175 468.404 97.9169C468.824 97.6426 469.388 97.7717 469.663 98.175C469.937 98.5944 470.227 99.7397 469.808 99.9978C469.388 100.272 468.421 99.5461 468.146 99.1429Z" fill="#262626"/>
<path d="M471.776 104.547C471.502 104.143 471.615 103.579 472.035 103.321C472.454 103.046 473.019 103.176 473.293 103.579C473.567 103.998 473.857 105.144 473.438 105.402C473.019 105.676 472.051 104.95 471.776 104.547Z" fill="#262626"/>
<path d="M459.693 99.7561C459.419 99.3529 459.532 98.7883 459.951 98.5302C460.371 98.2559 460.935 98.385 461.21 98.7883C461.484 99.2077 461.774 100.353 461.355 100.611C460.935 100.885 459.967 100.159 459.693 99.7561Z" fill="#262626"/>
<path d="M463.644 104.644C463.289 104.289 463.306 103.724 463.677 103.385C464.048 103.047 464.612 103.063 464.967 103.418C465.306 103.773 465.806 104.853 465.435 105.192C465.064 105.531 463.999 104.999 463.644 104.628" fill="#262626"/>
<path d="M473.582 90.8996C473.308 90.4963 472.743 90.3673 472.324 90.6415C471.904 90.9157 471.791 91.4642 472.066 91.8675C472.34 92.2869 473.308 92.9967 473.727 92.7224C474.147 92.4482 473.856 91.3029 473.582 90.8996Z" fill="#262626"/>
<path d="M476.583 96.4007C476.389 95.9491 475.857 95.7394 475.389 95.9329C474.921 96.1265 474.711 96.6427 474.905 97.0944C475.099 97.5461 475.921 98.4171 476.389 98.2236C476.857 98.03 476.776 96.8524 476.583 96.4007Z" fill="#262626"/>
<path d="M114.559 104.26C117.049 104.185 118.634 105.617 118.612 107.917C118.581 111.818 113.617 116.657 109.456 116.814C106.617 116.928 104.517 114.35 105.178 111.571C105.951 108.196 110.884 104.37 114.559 104.242L114.559 104.26ZM114.946 106.591C111.831 106.244 107.85 109.884 107.889 112.641C107.895 113.376 108.834 114.221 109.573 114.177C112.392 114.009 115.811 110.696 115.792 107.975C115.788 107.424 115.238 106.629 114.946 106.591Z" fill="white"/>
<path d="M121.511 132.067C121.064 134.855 118.26 137.305 115.439 137.363C113.397 137.412 112.317 136.04 112.867 134.111C113.627 131.433 115.346 129.637 118.24 129.04C120.513 128.573 121.865 129.873 121.511 132.048L121.511 132.067ZM118.533 131.84C117.419 131.151 116.586 131.698 115.812 132.352C115.077 132.967 115.197 133.438 116.294 134.477C117.497 133.945 118.465 133.224 118.533 131.84Z" fill="white"/>
<path d="M131.599 123.799C132.029 121.287 134.544 119.277 137.191 119.34C138.534 119.37 139.553 120.451 139.446 121.746C139.211 124.265 136.563 126.744 133.898 126.94C132.323 127.053 131.281 125.642 131.599 123.799ZM136.411 121.854C135.085 121.51 134.331 122.163 133.675 122.939C133.54 123.112 133.504 123.483 133.622 123.66C133.74 123.856 134.111 124.11 134.306 124.043C135.432 123.699 136.401 123.181 136.43 121.835L136.411 121.854Z" fill="white"/>
<path d="M142.337 71.0298C140.46 70.9382 138.811 69.2672 139.017 67.6419C139.269 65.5587 141.078 63.9334 143.046 64.0021C144.763 64.0708 146.366 65.7876 146.343 67.5045C146.297 69.519 144.466 71.1443 142.337 71.0298Z" fill="white"/>
<path d="M454.337 223.03C452.46 222.938 450.811 221.267 451.017 219.642C451.269 217.559 453.078 215.933 455.046 216.002C456.763 216.071 458.366 217.788 458.343 219.505C458.297 221.519 456.466 223.144 454.337 223.03Z" fill="white"/>
<path d="M420.337 87.0298C418.46 86.9382 416.811 85.2672 417.017 83.6419C417.269 81.5587 419.078 79.9334 421.046 80.0021C422.763 80.0708 424.366 81.7876 424.343 83.5045C424.297 85.519 422.466 87.1443 420.337 87.0298Z" fill="white"/>
<path d="M538.13 133.763C534.958 133.917 531.816 133.387 528.722 132.644C521.421 130.857 514.738 127.754 508.82 123.128C507.769 122.321 506.832 121.392 505.896 120.464C505.337 119.882 504.987 119.116 505.29 118.34C505.672 117.363 506.605 117.164 507.566 117.241C508.498 117.306 509.418 117.4 510.316 117.552C516.171 118.576 522.082 119.457 527.877 120.724C531.88 121.589 535.774 122.909 539.683 124.102C541.36 124.624 542.767 125.57 544.022 126.821C546.046 128.902 545.651 131.662 542.546 133.134C541.454 133.304 539.771 133.674 538.07 133.74L538.13 133.763ZM536.081 126.672C532.528 125.617 528.96 124.689 525.357 123.848C520.579 122.779 515.786 121.837 510.992 120.895C510.643 120.825 510.268 120.911 509.897 120.898C510.015 121.209 509.991 121.531 510.158 121.63C517.712 126.529 525.835 129.797 534.899 130.483C536.592 130.613 538.296 130.45 539.99 130.316C540.019 130.327 540.06 130.31 540.101 130.293C540.892 130.105 541.015 129.093 540.381 128.614C539.055 127.633 537.55 127.112 536.081 126.672Z" fill="white"/>
<path d="M488.545 125.388C490.806 127.97 493.119 130.506 495.369 133.117C499.541 137.946 503.132 143.114 505.426 149.045C506.205 151.016 506.718 153.05 506.419 155.135C506.067 157.533 504.107 158.67 501.792 157.901C501.063 157.65 500.32 157.261 499.671 156.807C498.806 156.203 497.963 155.541 497.236 154.758C489.538 146.621 486.173 136.737 484.791 126.093C484.614 124.522 486.505 123.559 487.758 124.581C487.993 124.773 488.205 125.022 488.533 125.417L488.545 125.388ZM487.792 131.098C489.666 138.632 492.705 145.654 498.066 151.579C499.023 152.653 500.191 153.541 501.37 154.401C501.4 154.413 501.429 154.424 501.459 154.436C502.083 154.779 502.851 154.311 502.82 153.599C502.8 151.623 502.427 150.377 501.379 148.301C499.47 144.555 497.249 140.988 494.572 137.71C492.598 135.273 490.49 132.917 488.203 130.224C487.871 130.895 487.766 130.988 487.774 131.057L487.792 131.098Z" fill="white"/>
<path d="M507.879 95.7763C511.251 94.0215 514.575 92.2146 518.022 90.6222C521.809 88.8625 525.682 87.2362 529.525 85.5983C531.597 84.7043 533.839 84.3438 536.101 84.4584C539.587 84.6161 541.23 87.7252 539.391 90.5782C539.12 91.0064 538.778 91.4403 538.351 91.7408C536.454 93.0697 534.619 94.59 532.503 95.5998C527.741 97.9138 522.564 98.9985 517.288 99.5442C514.268 99.8684 511.22 99.9145 508.171 99.9605C507.827 99.9598 507.483 99.9591 507.15 99.9295C505.385 99.7753 504.82 97.5201 506.305 96.6307C506.803 96.3246 507.339 96.0997 507.867 95.8052L507.879 95.7763ZM513.019 97.7799C518.983 97.2356 524.785 95.9609 530.191 93.4975C531.861 92.7476 533.421 91.7541 534.891 90.7256C534.996 90.6331 535.119 90.5812 535.224 90.4887C536.477 89.5757 535.425 87.5977 533.909 88.0408C531.377 88.789 528.791 89.4154 526.39 90.4478C521.823 92.4377 517.368 94.6712 512.876 96.8235C512.782 96.8871 512.689 96.9506 512.595 97.0142C512.31 97.3033 512.551 97.8311 512.977 97.7972L513.019 97.7799Z" fill="white"/>
<path d="M144.412 236.236C141.328 234.991 138.682 235.032 136.095 234.778C133.548 234.541 130.942 234.848 128.485 234.539C128.184 233.391 128.905 233.209 129.373 233.081C134.225 231.739 139.185 231.551 144.153 232.052C145.011 232.132 145.875 232.405 146.692 232.742C148.681 233.551 149.518 235.334 148.716 237.393C148.199 238.726 147.258 239.903 146.596 241.18C146.16 242.026 145.881 242.945 145.505 243.867C147.036 244.97 148.561 244.737 149.951 244.985C151.961 245.356 154.021 245.512 155.971 246.055C159.054 246.928 160.254 248.917 159.457 252.063C159.028 253.722 158.23 255.355 157.264 256.777C156.2 258.326 154.725 259.609 153.42 260.98C153.218 261.192 152.953 261.356 152.693 261.465C152.002 261.747 151.198 261.921 150.708 261.249C150.408 260.844 150.243 260.083 150.415 259.648C151.13 257.882 152.015 256.204 152.809 254.475C153.294 253.44 153.711 252.385 154.262 251.125C153.373 250.821 152.738 250.463 152.061 250.361C150.614 250.135 149.148 250.071 147.695 249.899C146.677 249.774 145.655 249.676 144.667 249.403C140.212 248.119 139 244.974 141.361 240.993C141.8 240.243 142.37 239.563 142.849 238.831C143.313 238.111 143.749 237.388 144.451 236.254L144.412 236.236Z" fill="white"/>
</g>
<defs>
<clipPath id="clip0_159_31412">
<rect width="586" height="405" fill="white"/>
</clipPath>
</defs>
</svg>
