<svg width="274" height="320" viewBox="0 0 274 320" fill="none" xmlns="http://www.w3.org/2000/svg">
<g clip-path="url(#clip0_159_31112)">
<path d="M103.513 40.4265C100.274 42.5446 99.8177 47.0004 102.55 49.752C105.789 47.6339 106.245 43.1781 103.513 40.4265Z" fill="#97C124"/>
<path d="M85.9364 52.0473C82.1137 52.9312 78.2422 50.6184 77.2925 46.8906C76.3476 43.1545 78.6824 39.4175 82.5099 38.5254C86.3326 37.6416 89.7902 39.1171 89.9245 43.9694C91.9824 48.4257 89.7591 51.1635 85.9364 52.0473Z" fill="#E7194A"/>
<path d="M96.8302 63.2664C94.7279 66.6391 90.2036 67.6828 86.726 65.6086C83.2402 63.5296 82.121 59.1168 84.2233 55.7441C86.3256 52.3714 89.928 51.0058 93.6562 54.4878C98.4772 56.3074 98.9277 59.902 96.8302 63.2664Z" fill="#E7194A"/>
<path d="M87.0862 43.992C86.8746 43.1497 86.9858 42.2279 87.4843 41.4412C87.5995 41.2418 87.8651 41.1846 88.0728 41.3046C88.2722 41.4197 88.3425 41.6818 88.219 41.8764C87.4723 43.0738 87.8723 44.6452 89.109 45.3814C89.3167 45.5013 89.3787 45.7587 89.2552 45.9533C89.1401 46.1527 88.8745 46.2098 88.6668 46.0899C87.849 45.6067 87.3062 44.8391 87.0945 43.9968" fill="#262626"/>
<path d="M88.3285 44.0667C88.2982 43.9273 88.3072 43.7774 88.3923 43.6493C91.5745 38.5404 98.4659 36.9467 103.735 40.0999C104.01 40.2582 104.088 40.6025 103.926 40.8636C103.764 41.1247 103.415 41.2112 103.146 41.0446C98.4066 38.2198 92.2217 39.6453 89.3631 44.232C89.2013 44.493 88.8522 44.5795 88.5828 44.4129C88.4499 44.3362 88.3588 44.2061 88.3285 44.0667Z" fill="#262626"/>
<path d="M90.0802 54.2729C90.0205 54.0501 90.1632 53.8223 90.3895 53.7757C90.6206 53.7208 90.8484 53.8634 90.9129 54.0779C91.2567 55.4396 92.6798 56.2945 94.0747 55.9698C94.3058 55.9149 94.5337 56.0576 94.5982 56.2721C94.6579 56.4949 94.5152 56.7227 94.2841 56.7776C92.427 57.212 90.5434 56.0803 90.085 54.2646" fill="#262626"/>
<path d="M91.8113 55.0735C90.174 48.6223 95.3592 41.8671 103.375 40.0142C103.68 39.9465 103.987 40.124 104.068 40.4255C104.141 40.7221 103.955 41.0247 103.65 41.0924C96.2488 42.8016 91.4434 48.9564 92.9275 54.8096C93 55.1062 92.8142 55.4088 92.5092 55.4765C92.2043 55.5442 91.8968 55.3667 91.8161 55.0652" fill="#262626"/>
<path d="M42.9359 176.857C46.3965 169.459 36.8975 163.078 33.0004 161.772C30.3893 160.891 18.0992 155.471 14.6428 162.882C11.1823 170.279 11.5309 181.52 20.4586 186.302C30.108 191.475 39.4796 184.268 42.9402 176.87L42.9359 176.857Z" fill="#975B2E"/>
<path d="M14.857 162.497C17.6757 157.163 26.2094 156.132 33.9176 160.193C41.6257 164.254 45.5893 171.869 42.7705 177.203C39.9518 182.537 31.4181 183.568 23.71 179.507C16.0018 175.446 12.0382 167.831 14.857 162.497Z" fill="#7EB73C"/>
<path d="M23.8259 166.423C24.6694 164.773 27.8424 164.704 30.913 166.268C33.9836 167.833 35.7889 170.439 34.9453 172.089C34.1018 173.739 30.9288 173.809 27.8583 172.244C24.7877 170.679 22.9823 168.073 23.8259 166.423Z" fill="#B9D988"/>
<path d="M26.5598 176.725C26.371 177.134 26.5967 177.656 27.0622 177.882C27.5278 178.109 28.0636 177.964 28.2524 177.555C28.4412 177.146 28.5031 176.024 28.0375 175.798C27.5719 175.571 26.7618 176.312 26.5598 176.725Z" fill="black"/>
<path d="M21.1238 173.102C20.6542 173.225 20.4427 173.699 20.634 174.159C20.8253 174.619 21.3602 174.881 21.8257 174.745C22.2953 174.622 23.1873 173.957 23.0002 173.51C22.8089 173.05 21.5935 172.979 21.1238 173.102Z" fill="black"/>
<path d="M37.9214 174.615C38.3869 174.841 38.9227 174.697 39.1115 174.288C39.3004 173.879 39.0748 173.357 38.6092 173.131C38.1436 172.905 36.9335 172.716 36.7447 173.125C36.5558 173.534 37.4558 174.388 37.9256 174.628L37.9214 174.615Z" fill="black"/>
<path d="M34.6619 179.604C34.8533 180.065 35.3888 180.327 35.8546 180.191C36.3247 180.068 36.5363 179.593 36.3449 179.133C36.1534 178.672 35.3327 177.748 34.8668 177.885C34.3967 178.008 34.4572 179.148 34.6576 179.591L34.6619 179.604Z" fill="black"/>
<path d="M31.9879 163.54C32.1768 163.131 31.9512 162.609 31.4856 162.383C31.02 162.156 30.4842 162.301 30.2954 162.71C30.1065 163.119 30.0447 164.241 30.5103 164.467C30.9759 164.693 31.7859 163.953 31.9879 163.54Z" fill="black"/>
<path d="M36.9283 168.644C37.398 168.521 37.6094 168.047 37.4181 167.587C37.2269 167.127 36.6919 166.865 36.2265 167.001C35.7568 167.124 34.8649 167.79 35.0519 168.236C35.2432 168.696 36.4587 168.767 36.9283 168.644Z" fill="black"/>
<path d="M19.8466 167.601C19.381 167.375 18.8453 167.519 18.6564 167.928C18.4676 168.337 18.6932 168.859 19.1588 169.085C19.6243 169.311 20.8345 169.5 21.0233 169.091C21.2121 168.682 20.3122 167.828 19.8424 167.588L19.8466 167.601Z" fill="black"/>
<path d="M23.1172 162.783C22.9258 162.323 22.3903 162.061 21.9245 162.197C21.4544 162.32 21.2428 162.795 21.4342 163.255C21.6256 163.715 22.4464 164.639 22.9123 164.503C23.3824 164.38 23.3219 163.239 23.1215 162.796L23.1172 162.783Z" fill="black"/>
<path d="M261.94 97.5494C262.027 98.1774 262.072 98.7692 262.078 99.334C262.078 100.338 261.963 101.261 261.743 102.108C261.743 102.108 261.749 102.126 261.74 102.129C261.722 102.195 261.704 102.26 261.691 102.314C261.691 102.314 261.697 102.332 261.679 102.338C261.554 102.777 261.406 103.203 261.23 103.609C260.047 106.372 254.874 110.523 251.354 111.765C251.327 111.774 251.291 111.786 251.264 111.794C251.264 111.794 251.255 111.797 251.246 111.8C250.77 111.956 250.267 112.121 249.746 112.262C249.199 112.411 248.636 112.546 248.05 112.668C247.891 112.7 247.724 112.735 247.562 112.758C246.734 112.9 245.882 113 245.003 113.02C242.78 113.092 240.457 112.709 238.276 111.514C236.604 110.6 235.226 109.122 234.162 107.452C234.085 107.339 234.016 107.222 233.948 107.105C233.886 107.006 233.833 106.904 233.774 106.814C233.664 106.631 233.56 106.436 233.46 106.251C233.297 105.936 233.146 105.627 233.005 105.316C233.002 105.307 232.996 105.289 232.993 105.28C232.709 104.717 232.482 104.115 232.294 103.54C231.797 102.023 231.583 100.581 231.655 99.4939C231.743 98.1228 231.919 96.9913 232.196 95.9558C232.315 95.4993 232.461 95.0638 232.618 94.6343C232.915 93.8411 233.287 93.093 233.724 92.3034C233.767 92.22 233.818 92.1336 233.863 92.0591C234.002 91.8148 234.179 91.5678 234.375 91.3148C234.61 91.0292 234.874 90.7437 235.15 90.4643C235.742 89.8727 236.414 89.3145 237.009 88.8515C237.231 88.6793 237.438 88.5221 237.639 88.3767C237.782 88.2699 237.92 88.175 238.04 88.086C238.475 87.7745 238.763 87.5908 238.763 87.5908C238.763 87.5908 238.802 87.5581 238.874 87.5047C238.946 87.4513 239.051 87.3771 239.183 87.2941C239.225 87.2705 239.264 87.2378 239.306 87.2141C239.405 87.1519 239.528 87.0718 239.654 87.0008C239.672 86.9949 239.69 86.989 239.705 86.9742C240.064 86.7669 240.529 86.5153 241.08 86.2553C241.272 86.1726 241.46 86.081 241.673 86.0014C241.937 85.8952 242.227 85.7802 242.52 85.6742C242.646 85.633 242.772 85.5918 242.897 85.5507C242.969 85.5271 243.041 85.5036 243.104 85.483C243.634 85.3095 244.202 85.1631 244.819 85.0408C244.854 85.0291 244.89 85.0173 244.92 85.0175C246.32 84.738 247.932 84.5881 249.721 84.708C250.208 84.7375 250.685 84.7997 251.154 84.8948C251.196 84.901 251.25 84.9133 251.291 84.9195C251.333 84.9257 251.387 84.9379 251.429 84.9441C251.462 84.9532 251.491 84.9534 251.524 84.9625C251.557 84.9717 251.59 84.9808 251.62 84.9809C251.653 84.9901 251.694 84.9963 251.727 85.0054C251.748 85.0085 251.769 85.0116 251.793 85.0237C251.814 85.0268 251.838 85.0389 251.868 85.039C251.9 85.0482 251.933 85.0573 251.966 85.0664C251.966 85.0664 251.975 85.0635 251.987 85.0695C252.02 85.0787 252.053 85.0878 252.085 85.0969C252.118 85.1061 252.163 85.1213 252.196 85.1304C252.196 85.1304 252.217 85.1335 252.229 85.1395C252.238 85.1366 252.261 85.1487 252.273 85.1547C252.306 85.1638 252.33 85.1759 252.363 85.1851C252.384 85.1882 252.396 85.1942 252.419 85.2063C252.518 85.2337 252.619 85.2701 252.721 85.3065C253.192 85.4703 253.654 85.6669 254.101 85.8785C254.361 86.0023 254.605 86.1411 254.852 86.2888C254.876 86.3009 254.9 86.313 254.924 86.325C255.147 86.4607 255.361 86.5992 255.576 86.7378C255.653 86.792 255.731 86.8462 255.808 86.9004C255.978 87.0238 256.147 87.1472 256.308 87.2736C256.698 87.5834 257.076 87.9171 257.426 88.2595C258.734 89.5513 259.775 91.0897 260.511 92.6982C260.629 92.9677 260.744 93.2283 260.85 93.4918C260.859 93.5187 260.868 93.5457 260.877 93.5726C261.437 95.0098 261.78 96.3294 261.949 97.5465L261.94 97.5494Z" fill="#FFBB29"/>
<path d="M240.372 88.9529C240.372 88.9529 239.056 89.1253 239.121 89.3228C239.186 89.5204 240.127 89.4207 240.039 89.6683C239.96 89.9129 238.857 90.6721 238.85 90.8334C238.852 90.9918 240.132 90.2246 240.476 90.2712C240.819 90.3178 240.475 91.5441 240.639 91.5898C241.092 91.7296 240.966 90.1005 241.475 89.9836C241.984 89.8668 242.523 90.7839 242.679 90.6832C242.898 90.5319 241.974 89.3826 241.974 89.3826C241.974 89.3826 243.245 89.3146 243.296 89.1386C243.348 88.9625 241.978 88.7253 241.978 88.7253C241.978 88.7253 242.574 87.8439 242.297 87.6662C242.02 87.4884 241.354 88.6114 241.199 88.503C241.053 88.3917 240.115 87.8041 240.042 88.0965C239.966 88.38 240.238 88.9074 240.366 88.9648L240.372 88.9529Z" fill="#8CC747"/>
<path d="M224.12 68.6582C224.438 66.0453 224.622 63.9683 225.007 61.9081C225.074 61.5228 225.929 61.1543 226.465 61.0538C226.699 61.0203 227.268 61.6568 227.319 62.0421C227.469 63.3318 227.436 64.6383 227.503 65.928C227.553 66.866 227.687 67.804 227.788 68.9262C229.412 69.3617 230.92 69.747 233.014 70.2997C232.109 70.9697 231.724 71.4219 231.221 71.5894C230.166 71.9579 229.077 72.1924 227.955 72.4939C227.201 74.4704 227.503 76.4469 227.218 78.3396C226.95 80.1653 227.201 82.1753 225.828 83.8838C224.823 81.9408 224.84 81.9408 224.739 78.3899C224.689 76.6311 224.555 74.8724 224.455 72.9294C222.461 72.7117 220.703 72.5944 219.011 72.2594C218.575 72.1757 218.14 71.4052 218.006 70.886C217.939 70.6347 218.458 69.9647 218.81 69.8642C220.518 69.3952 222.26 69.0602 224.12 68.6415V68.6582Z" fill="white"/>
<path d="M245.559 51.0037C246.932 51.0707 248.138 52.2935 247.987 53.4827C247.803 55.0069 246.48 56.1962 245.039 56.1459C243.783 56.0957 242.611 54.8394 242.627 53.5832C242.661 52.1092 244.001 50.92 245.559 51.0037Z" fill="white"/>
<path d="M40.7644 151.94C42.4954 151.825 43.7291 151.205 45.0018 150.737C46.252 150.271 47.4066 149.535 48.6308 149.122C49.0327 149.593 48.7352 149.843 48.5444 150.009C46.5698 151.74 44.2825 152.954 41.8355 153.847C41.4143 154.004 40.9462 154.072 40.4863 154.099C39.3683 154.17 38.5702 153.522 38.4799 152.373C38.4201 151.63 38.5947 150.863 38.616 150.114C38.6288 149.617 38.5514 149.122 38.5186 148.603C37.5493 148.433 36.8857 148.888 36.1764 149.087C35.1483 149.369 34.145 149.764 33.106 149.951C31.4596 150.241 30.4445 149.579 30.105 147.92C29.9298 147.043 29.9337 146.095 30.0653 145.208C30.2132 144.239 30.6146 143.301 30.9166 142.361C30.9634 142.216 31.051 142.079 31.1481 141.968C31.4087 141.679 31.7466 141.415 32.1298 141.62C32.3624 141.741 32.6124 142.062 32.6307 142.305C32.6954 143.297 32.6606 144.286 32.6801 145.279C32.6873 145.874 32.7305 146.465 32.7582 147.182C33.2445 147.123 33.6241 147.147 33.9651 147.041C34.6965 146.819 35.3992 146.516 36.121 146.267C36.6277 146.095 37.1296 145.909 37.6559 145.813C40.0402 145.405 41.3231 146.607 41.1176 149.013C41.0814 149.465 40.9683 149.914 40.9095 150.366C40.855 150.81 40.814 151.249 40.7418 151.941L40.7644 151.94Z" fill="white"/>
<path d="M117.006 33.0298C118.883 32.9382 120.531 31.2672 120.325 29.6419C120.074 27.5587 118.265 25.9334 116.296 26.0021C114.58 26.0708 112.977 27.7876 113 29.5045C113.046 31.519 114.877 33.1443 117.006 33.0298Z" fill="white"/>
<g opacity="0.3">
<path d="M246.601 290.126C244.762 288.603 242.829 287.181 240.747 285.938C240.216 285.609 239.372 285.884 239.039 286.452C238.726 287.056 238.918 287.764 239.508 288.109C239.98 288.423 240.491 288.715 240.963 289.029C241.199 289.185 241.435 289.342 241.672 289.499C241.771 289.588 241.908 289.656 242.007 289.745C241.849 289.64 242.164 289.849 242.007 289.745C242.047 289.818 242.164 289.849 242.185 289.886C243.091 290.534 243.98 291.24 244.869 291.947C245.344 292.355 246.157 292.384 246.627 291.884C247.06 291.405 247.116 290.607 246.621 290.162L246.601 290.126Z" fill="white"/>
<path d="M244.415 293.826C242.582 291.774 240.504 290 238.239 288.427C238.003 288.27 237.558 288.276 237.289 288.33C237.002 288.441 236.679 288.667 236.569 288.92C236.238 289.582 236.467 290.174 237.038 290.577C237.216 290.718 236.998 290.503 237.059 290.613C237.099 290.687 237.216 290.718 237.295 290.77C237.432 290.838 237.551 290.964 237.65 291.053C237.907 291.246 238.163 291.44 238.42 291.633C238.933 292.02 239.428 292.465 239.923 292.91C240.893 293.763 241.807 294.694 242.683 295.647C243.102 296.134 244.009 296.063 244.442 295.584C244.93 295.027 244.874 294.386 244.435 293.863L244.415 293.826Z" fill="white"/>
<path d="M241.358 297.483C239.178 294.712 236.638 292.284 233.723 290.256C233.21 289.869 232.31 290.223 232.015 290.77C231.684 291.432 231.912 292.024 232.484 292.427C232.347 292.359 232.524 292.5 232.583 292.516C232.661 292.568 232.74 292.62 232.839 292.709C232.997 292.814 233.174 292.955 233.352 293.096C233.688 293.342 233.964 293.572 234.3 293.818C234.932 294.331 235.526 294.864 236.12 295.398C236.676 295.953 237.233 296.508 237.789 297.062C238.068 297.387 238.327 297.675 238.606 298C238.647 298.073 238.687 298.146 238.766 298.199C238.685 298.052 238.807 298.272 238.827 298.309C238.929 298.492 239.127 298.67 239.266 298.832C239.647 299.341 240.389 299.601 240.958 299.19C241.472 298.858 241.818 298.043 241.379 297.52L241.358 297.483Z" fill="white"/>
<path d="M236.668 298.547C233.819 296.099 230.743 293.871 227.444 291.96C226.875 291.652 226.069 291.906 225.736 292.474C225.385 293.099 225.616 293.786 226.205 294.131C229.288 295.923 232.224 297.988 234.916 300.332C235.411 300.776 236.184 300.732 236.675 300.269C237.107 299.79 237.163 298.992 236.668 298.547Z" fill="white"/>
<path d="M229.14 299.885C226.754 297.372 224.026 295.144 221.133 293.246C220.602 292.917 219.721 293.214 219.425 293.76C219.095 294.423 219.323 295.015 219.894 295.418C220.603 295.888 221.154 296.254 221.825 296.745C222.495 297.237 223.128 297.75 223.78 298.299C225.065 299.361 226.256 300.523 227.409 301.706C227.866 302.172 228.735 302.122 229.167 301.643C229.617 301.106 229.638 300.424 229.161 299.921L229.14 299.885Z" fill="white"/>
<path d="M222.738 302.086C220.527 298.901 217.691 296.205 214.404 294.047C213.853 293.681 213.029 293.993 212.696 294.561C212.345 295.186 212.614 295.852 213.165 296.218C216 298.1 218.638 300.617 220.588 303.42C220.968 303.928 221.69 304.151 222.28 303.777C222.852 303.461 223.081 302.615 222.7 302.107L222.738 302.086Z" fill="white"/>
<path d="M216.813 301.819C214.118 299.381 211.312 297.1 208.356 294.999C207.805 294.633 207.106 294.54 206.597 295.061C206.183 295.482 206.091 296.396 206.604 296.783C209.56 298.885 212.405 301.144 215.061 303.604C215.556 304.048 216.328 304.004 216.819 303.541C217.29 303.041 217.27 302.285 216.813 301.819Z" fill="white"/>
<path d="M212.028 302.982C209.395 300.654 206.782 298.362 204.148 296.034C203.673 295.626 202.86 295.597 202.39 296.097C201.958 296.576 201.901 297.373 202.396 297.818C205.03 300.147 207.643 302.438 210.276 304.767C210.751 305.175 211.564 305.204 212.035 304.704C212.467 304.225 212.523 303.427 212.028 302.982Z" fill="white"/>
<path d="M204.143 306.195C201.787 303.378 199.07 300.808 196.091 298.575C195.578 298.188 194.841 298.117 194.333 298.638C193.88 299.08 193.826 299.973 194.339 300.36C197.318 302.593 199.977 305.147 202.391 307.979C202.81 308.466 203.735 308.338 204.15 307.917C204.658 307.396 204.562 306.682 204.143 306.195Z" fill="white"/>
<path d="M197.092 306.505C195.011 303.823 192.703 301.363 190.092 299.166C189.617 298.758 188.804 298.728 188.334 299.228C187.901 299.707 187.845 300.505 188.34 300.95C190.773 303.006 193.04 305.393 194.922 307.802C195.302 308.31 196.044 308.571 196.614 308.16C197.127 307.828 197.435 307.034 197.034 306.489L197.092 306.505Z" fill="white"/>
<path d="M191.042 306.643C188.676 304.166 186.121 301.89 183.361 299.872C182.848 299.485 182.111 299.414 181.602 299.935C181.208 300.392 181.075 301.233 181.609 301.656C184.369 303.675 186.924 305.951 189.291 308.427C189.748 308.893 190.617 308.843 191.049 308.364C191.499 307.827 191.52 307.145 191.042 306.643Z" fill="white"/>
<path d="M185.605 306.536C182.864 304.555 180.31 302.279 178.04 299.797C177.621 299.31 176.713 299.381 176.281 299.86C175.793 300.417 175.848 301.058 176.288 301.581C178.558 304.063 181.112 306.339 183.853 308.32C184.366 308.707 185.103 308.779 185.611 308.258C186.005 307.8 186.138 306.96 185.605 306.536Z" fill="white"/>
<path d="M178.235 308.698C176.191 305.995 173.713 303.677 170.84 301.817C170.309 301.487 169.427 301.784 169.132 302.33C168.801 302.993 169.03 303.585 169.601 303.988C169.759 304.092 169.916 304.197 170.074 304.301C170.152 304.354 170.231 304.406 170.31 304.458C170.33 304.495 170.546 304.615 170.388 304.51C170.703 304.719 171.039 304.965 171.315 305.195C171.928 305.671 172.501 306.168 173.096 306.702C173.631 307.22 174.188 307.775 174.685 308.314C174.805 308.44 174.944 308.602 175.084 308.765C175.124 308.838 175.185 308.948 175.264 309C175.523 309.288 175.203 308.89 175.305 309.074C175.584 309.398 175.805 309.707 176.046 310.053C176.427 310.561 177.169 310.821 177.738 310.41C178.252 310.078 178.56 309.285 178.158 308.74L178.235 308.698Z" fill="white"/>
<path d="M172.845 309.67C170.733 307.293 168.3 305.237 165.567 303.538C165.036 303.209 164.154 303.506 163.859 304.052C163.508 304.678 163.756 305.307 164.328 305.71C164.643 305.919 164.958 306.128 165.273 306.337C165.351 306.389 165.43 306.441 165.509 306.494C165.509 306.494 165.765 306.687 165.666 306.598C165.588 306.546 165.844 306.739 165.824 306.703C165.865 306.776 165.961 306.77 166.002 306.844C166.614 307.32 167.226 307.796 167.8 308.293C168.948 309.287 170.039 310.36 171.055 311.475C171.474 311.962 172.381 311.891 172.813 311.412C173.302 310.854 173.246 310.214 172.807 309.691L172.845 309.67Z" fill="white"/>
<path d="M165.828 309.049C163.628 307.055 161.371 305.046 159.172 303.053C158.697 302.644 157.884 302.615 157.413 303.115C156.981 303.594 156.925 304.392 157.42 304.837C159.619 306.83 161.877 308.84 164.076 310.833C164.551 311.241 165.364 311.271 165.834 310.771C166.266 310.292 166.323 309.494 165.828 309.049Z" fill="white"/>
<path d="M160.396 309.944C158.339 307.488 156.171 305.19 153.774 303.019C153.299 302.61 152.486 302.581 152.015 303.081C151.545 303.581 151.527 304.358 152.022 304.803C154.361 306.959 156.588 309.272 158.644 311.728C159.063 312.215 159.988 312.087 160.403 311.666C160.891 311.108 160.835 310.468 160.396 309.944Z" fill="white"/>
<path d="M155.818 310.132C154.124 308.242 152.392 306.373 150.699 304.483C150.28 303.996 149.373 304.067 148.94 304.545C148.452 305.103 148.508 305.743 148.947 306.267L154.066 311.916C154.485 312.403 155.392 312.332 155.824 311.853C156.312 311.296 156.257 310.656 155.818 310.132Z" fill="white"/>
<path d="M151.566 310.998C150.733 310.213 149.918 309.371 149.2 308.522C149.139 308.412 149.04 308.323 148.941 308.234C148.9 308.161 148.88 308.124 148.839 308.051C148.738 307.868 148.778 307.941 148.839 308.051C148.659 307.815 148.499 307.616 148.319 307.381C147.958 306.909 147.618 306.474 147.258 306.003C146.877 305.495 146.135 305.235 145.566 305.646C145.014 305.999 144.744 306.771 145.145 307.316C146.59 309.296 148.167 311.155 149.931 312.814C150.368 313.243 151.257 313.23 151.69 312.751C152.16 312.251 152.14 311.495 151.683 311.03L151.566 310.998Z" fill="white"/>
</g>
</g>
<defs>
<clipPath id="clip0_159_31112">
<rect width="274" height="320" fill="white"/>
</clipPath>
</defs>
</svg>
