<svg width="274" height="450" viewBox="0 0 274 450" fill="none" xmlns="http://www.w3.org/2000/svg">
<path d="M41.9785 435.895C80.3255 449.927 169.772 460.515 240.47 432.007C253.052 426.934 260.411 410.24 263.217 397.153C266.024 384.067 289.689 138.098 256.449 27.1354C251.441 16.0046 239.296 7.22739 224.949 5.42239C155.142 -3.34479 90.4732 -0.670227 48.2393 7.66718C33.6048 10.5466 22.6224 19.5716 17.7703 31.1967C-5.89004 87.8824 -4.951 353.983 14.8225 410.24C18.8659 421.714 28.6222 431.017 41.9785 435.916V435.895Z" fill="#FFCE00"/>
<path d="M59.9678 90.1371C58.8536 82.9775 63.4013 76.2688 70.5742 75.2438C83.6314 73.3781 106.7 71.1953 139.036 72.297C171.042 73.3873 192.479 75.8687 204.428 77.6606C211.158 78.6697 215.718 84.668 215.332 91.4616L213.266 127.785C212.822 135.597 206.063 141.547 198.249 141.14C183.835 140.389 160.633 139.507 139.036 140.116C120.389 140.642 95.1428 141.302 80.3226 141.685C73.2889 141.866 67.2293 136.797 66.1473 129.845L59.9678 90.1371Z" fill="#5C0F8B"/>
<path d="M225.848 108.83C224.784 109.415 225.465 111.055 226.63 110.738C237.991 107.518 249.171 103.816 259.564 98.1154C261.612 96.9748 262.436 96.0363 261.867 95.3792C260.805 94.1889 259.616 95.0511 258.543 95.4105C255.752 96.3267 252.925 97.2263 250.215 98.3568C242.817 101.457 235.441 104.656 228.076 107.881C227.363 108.181 226.611 108.419 225.84 108.848L225.848 108.83Z" fill="white"/>
<path d="M225.726 120.459C224.61 120.421 224.217 121.932 225.171 122.474C225.857 122.873 226.525 123.018 227.192 123.164C230.985 124.012 234.777 124.813 238.575 125.552C239.47 125.734 240.444 125.641 241.356 125.542C241.662 125.503 242.073 125.133 242.188 124.83C242.285 124.518 242.171 123.933 241.929 123.78C240.943 123.112 239.961 122.335 238.861 122.016C237.201 121.511 235.479 121.243 233.749 121.04C231.083 120.746 228.422 120.588 225.753 120.449L225.726 120.459Z" fill="white"/>
<path d="M223.444 96.5482C223.185 97.1201 223.718 97.7606 224.339 97.6636C224.528 97.638 224.681 97.5958 224.813 97.5C229.13 94.63 233.295 91.5577 236.992 87.8968C237.35 87.5475 237.564 87.0226 237.8 86.5513C237.983 86.1454 237.402 85.4163 236.943 85.4978C236.556 85.5674 236.14 85.6019 235.813 85.787C231.027 88.5123 226.965 92.097 223.529 96.409C223.504 96.4643 223.479 96.5197 223.454 96.575L223.444 96.5482Z" fill="white"/>
<path d="M47.4653 108.83C48.5295 109.415 47.8488 111.055 46.6835 110.738C35.3221 107.518 24.1429 103.816 13.749 98.1154C11.7011 96.9748 10.8773 96.0363 11.4468 95.3792C12.5084 94.1889 13.6975 95.0511 14.7706 95.4105C17.5612 96.3267 20.3888 97.2263 23.0985 98.3568C30.4963 101.457 37.872 104.656 45.2377 107.881C45.9507 108.181 46.7023 108.419 47.4737 108.848L47.4653 108.83Z" fill="white"/>
<path d="M47.5873 120.459C48.7032 120.421 49.0967 121.932 48.1422 122.474C47.456 122.873 46.7889 123.018 46.1218 123.164C42.3285 124.012 38.5369 124.813 34.7389 125.552C33.8438 125.734 32.869 125.641 31.9578 125.542C31.6513 125.503 31.2401 125.133 31.1252 124.83C31.0287 124.518 31.1424 123.933 31.384 123.78C32.3707 123.112 33.3525 122.335 34.4523 122.016C36.1121 121.511 37.835 121.243 39.5644 121.04C42.2306 120.746 44.8914 120.588 47.5605 120.449L47.5873 120.459Z" fill="white"/>
<path d="M49.8699 96.5482C50.1283 97.1201 49.5957 97.7606 48.9743 97.6636C48.7851 97.638 48.6327 97.5958 48.5006 97.5C44.1833 94.63 40.0188 91.5577 36.3216 87.8968C35.9639 87.5475 35.749 87.0226 35.5139 86.5513C35.3305 86.1454 35.9119 85.4163 36.3708 85.4978C36.7576 85.5674 37.173 85.6019 37.5009 85.787C42.286 88.5123 46.3487 92.097 49.7848 96.409C49.8098 96.4643 49.8348 96.5197 49.8598 96.575L49.8699 96.5482Z" fill="white"/>
</svg>
