<svg width="586" height="326" viewBox="0 0 586 326" fill="none" xmlns="http://www.w3.org/2000/svg">
<g clip-path="url(#clip0_736_709)">
<path d="M19.3701 44.6662C-5.13031 91.8073 -6.12925 211.314 26.3276 294.008C33.5651 312.448 56.3189 324.992 83.0429 321.396C299.612 292.265 424.751 350.564 540.285 311.536C558.858 305.276 573.195 290.78 576.687 273.176C591.515 198.429 587.19 106.087 574.926 54.4714C570.694 36.5824 556.191 24.8731 537.192 19.0671C444.431 -9.14584 141.514 -0.190954 61.5928 12.7371C42.5122 17.82 27.8793 28.2785 19.3252 44.6709L19.3701 44.6662Z" fill="#FFCE00"/>
<path d="M282.422 54.8559C285.438 52.5927 288.568 50.0439 293.66 51.5819C293.434 46.6795 289.806 43.8655 285.63 42.4878C287.698 40.4624 289.71 38.0413 293.795 38.5475C292.849 33.5147 286.951 32.5197 282.634 33.0793C281.891 28.6325 279.256 23.0898 274.336 23.613C275.981 27.4878 274.342 30.2252 273.089 32.8462C270.617 29.1001 266.954 26.3047 262.349 27.5343C265.237 32.1343 263.82 35.9869 262.616 39.613C259.432 37.9522 255.764 37.5141 252.333 39.7975C257.677 43.7122 256.012 48.9754 256.417 53.3785C256.774 57.3591 259.85 60.0647 263.533 59.8668C264.411 63.5683 267.792 65.8417 271.578 65.0053C275.761 64.1139 280.137 60.9218 285.32 65.0793C286.421 61.0146 284.949 57.5412 282.483 54.8454L282.422 54.8559Z" fill="#8CC747"/>
<path d="M265.523 99.5134C257.668 110.511 242.398 112.598 231.441 104.191C220.458 95.7756 217.924 80.0382 225.779 69.041C233.634 58.0438 249.144 41.203 266.758 54.7084C283.637 67.6423 273.378 88.5162 265.523 99.5134Z" fill="#FCAF17"/>
<path d="M256.444 97.0822C256.208 96.8945 255.94 96.8135 255.641 96.839C253.721 97.1012 251.916 95.7122 251.595 93.7551C251.487 93.1409 250.942 92.7147 250.335 92.7924C249.754 92.8783 249.356 93.4264 249.438 94.0324C249.948 97.2096 252.87 99.4595 255.978 99.0337C256.558 98.9478 256.956 98.3996 256.874 97.7936C256.82 97.4865 256.662 97.2351 256.426 97.0474L256.444 97.0822Z" fill="black"/>
<path d="M244.756 88.111C244.52 87.9233 244.252 87.8423 243.952 87.8678C242.033 88.13 240.227 86.741 239.907 84.7839C239.798 84.1698 239.254 83.7435 238.646 83.8212C238.065 83.9071 237.668 84.4553 237.749 85.0613C238.26 88.2385 241.181 90.4883 244.289 90.0624C244.87 89.9766 245.268 89.4285 245.186 88.8224C245.132 88.5154 244.973 88.264 244.737 88.0763L244.756 88.111Z" fill="black"/>
<path d="M233.083 79.1144C232.847 78.9268 232.579 78.8457 232.279 78.8712C230.36 79.1334 228.555 77.7444 228.234 75.7873C228.126 75.1732 227.581 74.7469 226.973 74.8246C226.392 74.9105 225.995 75.4586 226.076 76.0646C226.587 79.2419 229.508 81.4917 232.616 81.0659C233.197 80.98 233.595 80.4318 233.513 79.8258C233.459 79.5187 233.3 79.2673 233.064 79.0796L233.083 79.1144Z" fill="black"/>
<path d="M268.081 80.803C267.845 80.6153 267.577 80.5342 267.277 80.5598C265.358 80.822 263.553 79.4329 263.232 77.4758C263.124 76.8617 262.579 76.4354 261.971 76.5131C261.391 76.5989 260.993 77.1472 261.074 77.7532C261.585 80.9304 264.506 83.1802 267.614 82.7544C268.195 82.6686 268.593 82.1203 268.511 81.5143C268.457 81.2073 268.298 80.9559 268.062 80.7682L268.081 80.803Z" fill="black"/>
<path d="M256.368 71.8244C256.132 71.6367 255.864 71.5556 255.564 71.5812C253.645 71.8434 251.84 70.4544 251.519 68.4973C251.411 67.8832 250.866 67.4568 250.259 67.5346C249.678 67.6204 249.28 68.1687 249.362 68.7747C249.872 71.9519 252.793 74.2016 255.901 73.7758C256.482 73.69 256.88 73.1418 256.798 72.5358C256.744 72.2288 256.586 71.9774 256.349 71.7897L256.368 71.8244Z" fill="black"/>
<path d="M244.682 62.8542C244.446 62.6665 244.178 62.5854 243.878 62.611C241.958 62.8732 240.153 61.4842 239.833 59.5271C239.724 58.913 239.18 58.4866 238.572 58.5644C237.991 58.6502 237.593 59.1984 237.675 59.8045C238.186 62.9817 241.107 65.2314 244.215 64.8056C244.796 64.7198 245.193 64.1716 245.112 63.5656C245.058 63.2585 244.899 63.0072 244.663 62.8195L244.682 62.8542Z" fill="black"/>
<path d="M257.127 84.9177C256.891 84.73 256.623 84.6489 256.323 84.6745C255.408 84.8044 254.462 84.5473 253.7 83.9681C252.938 83.3888 252.433 82.5384 252.278 81.5906C252.17 80.9765 251.625 80.5501 251.017 80.6278C250.436 80.7137 250.039 81.2619 250.12 81.8679C250.365 83.3952 251.179 84.7751 252.413 85.7297C253.647 86.6843 255.164 87.085 256.652 86.8958C257.233 86.81 257.631 86.2618 257.549 85.6558C257.495 85.3487 257.336 85.0972 257.1 84.9096L257.127 84.9177Z" fill="black"/>
<path d="M245.453 75.9221C245.217 75.7344 244.949 75.6533 244.649 75.6788C242.73 75.9411 240.925 74.5521 240.604 72.595C240.496 71.9809 239.951 71.5545 239.344 71.6323C238.763 71.7181 238.365 72.2663 238.447 72.8723C238.957 76.0496 241.878 78.2993 244.986 77.8735C245.567 77.7876 245.965 77.2395 245.883 76.6335C245.829 76.3264 245.67 76.075 245.434 75.8873L245.453 75.9221Z" fill="black"/>
<path d="M263.005 65.2153C262.769 65.0276 262.501 64.9466 262.201 64.9721C261.62 65.058 261.222 65.6061 261.304 66.2121C261.548 67.7393 262.363 69.1193 263.597 70.0739C264.831 71.0285 266.347 71.4292 267.836 71.2401C268.417 71.1542 268.814 70.606 268.733 70C268.624 69.3858 268.08 68.9596 267.472 69.0373C266.556 69.1672 265.611 68.9102 264.849 68.3309C264.087 67.7517 263.582 66.9012 263.427 65.9533C263.373 65.6463 263.214 65.3949 262.978 65.2072L263.005 65.2153Z" fill="black"/>
<path d="M256.627 60.2922C256.391 60.1045 256.123 60.0234 255.823 60.049C253.904 60.3112 252.099 58.9221 251.778 56.965C251.67 56.3509 251.125 55.9246 250.517 56.0024C249.936 56.0882 249.539 56.6364 249.62 57.2424C250.131 60.4196 253.052 62.6694 256.16 62.2436C256.741 62.1578 257.139 61.6096 257.057 61.0035C257.003 60.6965 256.844 60.4451 256.608 60.2574L256.627 60.2922Z" fill="black"/>
<path d="M246.222 100.22C245.986 100.033 245.718 99.9517 245.418 99.9772C244.502 100.107 243.557 99.8502 242.795 99.2709C242.033 98.6917 241.528 97.8412 241.373 96.8933C241.264 96.2792 240.72 95.8528 240.112 95.9306C239.531 96.0164 239.133 96.5647 239.215 97.1707C239.46 98.6979 240.274 100.078 241.508 101.032C242.742 101.987 244.258 102.388 245.747 102.199C246.328 102.113 246.726 101.565 246.644 100.959C246.59 100.651 246.431 100.4 246.195 100.212L246.222 100.22Z" fill="black"/>
<path d="M234.541 91.2511C234.305 91.0635 234.037 90.9824 233.737 91.0079C231.818 91.2701 230.012 89.8812 229.692 87.9241C229.584 87.31 229.039 86.8836 228.431 86.9613C227.85 87.0472 227.453 87.5954 227.534 88.2014C228.045 91.3787 230.966 93.6284 234.074 93.2026C234.655 93.1167 235.053 92.5686 234.971 91.9626C234.917 91.6555 234.758 91.4041 234.522 91.2164L234.541 91.2511Z" fill="black"/>
<mask id="mask0_736_709" style="mask-type:alpha" maskUnits="userSpaceOnUse" x="1" y="0" width="586" height="326">
<path d="M19.3701 44.6657C-5.13032 91.8068 -6.12926 211.314 26.3276 294.008C33.5651 312.448 56.3189 324.992 83.0429 321.395C299.612 292.265 424.751 350.564 540.285 311.535C558.858 305.276 573.195 290.779 576.687 273.176C591.515 198.429 587.19 106.086 574.926 54.4709C570.694 36.5819 556.191 24.8726 537.192 19.0666C444.431 -9.14634 141.514 -0.191442 61.5928 12.7367C42.5122 17.8195 27.8793 28.278 19.3252 44.6704L19.3701 44.6657Z" fill="#FFCE00"/>
</mask>
<g mask="url(#mask0_736_709)">
<path d="M466.243 499.263C465.57 454.808 466.009 190.573 466.421 151.748C466.468 147.652 466.566 143.868 466.684 140.373C467.074 126.435 467.347 117.219 462.525 112.475C458.195 108.233 449.097 106.743 432.115 107.533C413.48 108.394 363.706 107.122 310.996 105.755C275.269 104.826 236.965 103.859 207.3 103.553C182.285 103.288 163.432 103.543 157.432 104.691C142.951 107.517 143.858 142.353 144.67 173.117C144.747 176.2 144.823 179.283 144.89 182.309C145.259 199.917 144.489 275.453 143.748 348.532C143.025 420.673 142.246 495.276 142.666 509.166C143.339 531.746 153.151 532.796 176.831 535.385C180.194 535.759 183.793 536.151 187.61 536.624C218.872 540.548 410.148 543.759 435.304 542.773L436.029 542.739C459.736 541.82 466.873 541.534 466.248 499.291L466.243 499.263ZM373.131 346.638C372.124 353.903 370.411 358.337 367.835 360.227C363.881 363.135 354.765 364.336 345.639 364.252C335.604 364.146 325.54 362.467 322.272 359.683C318.084 356.118 315.528 340.803 315.791 328.726C315.964 320.841 317.307 310.512 322.861 306.168C328.283 301.904 366.051 302.114 370.58 307.9C373.886 312.138 374.852 334.027 373.103 346.643L373.131 346.638ZM372.399 419.599C371.392 426.864 369.679 431.297 367.103 433.187C363.149 436.095 354.033 437.296 344.879 437.217C334.843 437.111 324.779 435.432 321.511 432.648C317.324 429.082 314.768 413.767 315.03 401.691C315.204 393.806 316.546 383.477 322.101 379.133C326.078 376.016 342.848 376.225 346.215 376.276C353.835 376.436 367.024 377.243 369.847 380.86C373.154 385.098 374.116 406.958 372.399 419.599ZM373.863 273.678C372.856 280.943 371.143 285.376 368.567 287.267C364.613 290.175 355.497 291.375 346.343 291.297C336.307 291.19 326.243 289.511 322.975 286.727C318.788 283.162 316.232 267.847 316.494 255.771C316.668 247.886 318.011 237.556 323.565 233.212C327.542 230.095 344.312 230.305 347.679 230.356C355.299 230.515 368.488 231.322 371.312 234.94C374.618 239.178 375.584 261.066 373.835 273.683L373.863 273.678ZM248.201 305.398C252.178 302.281 268.971 302.457 272.286 302.547C279.906 302.706 293.096 303.513 295.919 307.131C299.226 311.368 300.187 333.229 298.471 345.869C297.464 353.134 295.755 357.595 293.175 359.457C289.221 362.366 280.105 363.566 270.979 363.483C260.944 363.376 250.88 361.697 247.611 358.913C243.424 355.348 240.868 340.033 241.126 327.928C241.299 320.043 242.642 309.714 248.196 305.37L248.201 305.398ZM241.862 254.996C242.036 247.111 243.379 236.782 248.933 232.438C252.91 229.321 269.708 229.526 273.019 229.587C280.638 229.746 293.828 230.553 296.651 234.17C299.958 238.408 300.919 260.268 299.203 272.909C298.196 280.174 296.487 284.635 293.907 286.497C289.953 289.406 280.837 290.606 271.711 290.523C261.676 290.416 251.612 288.737 248.343 285.953C244.156 282.388 241.6 267.073 241.862 254.996ZM173.517 304.662C177.494 301.545 194.287 301.721 197.602 301.81C205.222 301.97 218.412 302.777 221.235 306.394C224.542 310.632 225.503 332.492 223.787 345.133C222.78 352.397 221.071 356.859 218.491 358.721C214.537 361.629 205.421 362.83 196.295 362.746C186.26 362.64 176.196 360.961 172.927 358.177C168.74 354.612 166.184 339.297 166.442 327.192C166.615 319.307 167.958 308.977 173.512 304.633L173.517 304.662ZM167.207 254.255C167.38 246.37 168.723 236.041 174.277 231.697C178.255 228.58 195.053 228.785 198.363 228.845C205.983 229.005 219.172 229.812 221.996 233.429C225.302 237.667 226.264 259.527 224.543 272.139C223.536 279.404 221.827 283.866 219.246 285.727C215.293 288.636 206.176 289.836 197.022 289.758C186.987 289.651 176.923 287.972 173.683 285.183C169.496 281.618 166.94 266.303 167.202 254.227L167.207 254.255ZM222.318 491.024C221.311 498.289 219.602 502.751 217.022 504.613C213.068 507.521 203.952 508.722 194.798 508.643C184.762 508.536 174.698 506.857 171.43 504.073C167.243 500.508 164.687 485.193 164.949 473.117C165.123 465.232 166.465 454.903 172.02 450.559C175.997 447.442 192.795 447.646 196.105 447.707C203.725 447.866 216.915 448.673 219.738 452.291C223.045 456.529 224.006 478.389 222.29 491.029L222.318 491.024ZM223.05 418.064C222.043 425.329 220.334 429.791 217.759 431.681C213.805 434.59 204.689 435.79 195.534 435.711C185.499 435.605 175.435 433.926 172.195 431.137C168.008 427.572 165.452 412.257 165.71 400.152C165.883 392.267 167.226 381.938 172.78 377.594C176.757 374.477 193.555 374.681 196.866 374.742C204.486 374.901 217.675 375.708 220.498 379.326C223.805 383.564 224.766 405.424 223.045 418.036L223.05 418.064ZM296.978 491.794C295.971 499.059 294.263 503.52 291.682 505.382C287.728 508.291 278.612 509.491 269.458 509.413C259.423 509.306 249.359 507.627 246.09 504.843C241.903 501.278 239.347 485.963 239.61 473.886C239.783 466.001 241.126 455.672 246.68 451.328C250.657 448.211 267.45 448.387 270.766 448.477C278.386 448.636 291.575 449.443 294.398 453.06C297.705 457.298 298.666 479.158 296.945 491.77L296.978 491.794ZM297.739 418.829C296.732 426.094 295.023 430.556 292.447 432.446C288.494 435.354 279.377 436.555 270.223 436.476C260.188 436.369 250.124 434.69 246.884 431.902C242.697 428.337 240.141 413.022 240.398 400.917C240.572 393.032 241.915 382.702 247.469 378.358C251.446 375.241 268.244 375.446 271.554 375.507C279.174 375.666 292.364 376.473 295.187 380.091C298.494 384.328 299.455 406.189 297.734 418.801L297.739 418.829ZM320.812 505.631C316.625 502.066 314.069 486.751 314.303 474.68C314.476 466.794 315.819 456.465 321.369 452.093C325.346 448.976 342.144 449.181 345.483 449.237C353.103 449.396 366.292 450.203 369.115 453.82C372.422 458.058 373.388 479.947 371.639 492.564C370.632 499.828 368.918 504.262 366.342 506.152C362.389 509.06 353.272 510.261 344.118 510.182C334.083 510.075 324.019 508.396 320.751 505.613L320.812 505.631ZM446.328 493.328C445.32 500.593 443.607 505.026 441.031 506.917C437.077 509.825 427.961 511.025 418.807 510.947C408.772 510.84 398.708 509.161 395.468 506.373C391.281 502.807 388.724 487.492 388.959 475.421C389.132 467.536 390.475 457.206 396.024 452.834C400.002 449.717 416.8 449.922 420.138 449.978C427.758 450.137 440.948 450.944 443.771 454.562C447.078 458.799 448.044 480.688 446.294 493.305L446.328 493.328ZM389.719 402.456C389.893 394.571 391.235 384.242 396.789 379.898C400.767 376.781 417.565 376.985 420.903 377.041C428.523 377.201 441.713 378.007 444.536 381.625C447.843 385.863 448.804 407.723 447.088 420.363C446.081 427.628 444.367 432.062 441.792 433.952C437.838 436.86 428.722 438.061 419.567 437.982C409.532 437.875 399.468 436.196 396.2 433.412C392.013 429.847 389.457 414.532 389.719 402.456ZM447.792 347.408C446.784 354.673 445.071 359.106 442.495 360.996C438.541 363.905 429.425 365.105 420.299 365.022C410.264 364.915 400.2 363.236 396.932 360.452C392.745 356.887 390.189 341.572 390.451 329.496C390.625 321.611 391.967 311.281 397.521 306.937C402.943 302.674 440.711 302.883 445.24 308.67C448.546 312.907 449.513 334.796 447.763 347.413L447.792 347.408ZM448.552 274.443C447.545 281.708 445.832 286.141 443.256 288.031C439.302 290.94 430.186 292.14 421.031 292.062C410.996 291.955 400.932 290.276 397.664 287.492C393.477 283.927 390.921 268.612 391.183 256.536C391.357 248.65 392.699 238.321 398.253 233.977C431.318 208.065 452.316 247.098 448.524 274.448L448.552 274.443Z" fill="#8CC747"/>
<path d="M470.753 151.786C470.804 147.718 470.908 143.962 471.002 140.501C471.434 125.417 471.73 115.467 465.549 109.402C460.205 104.16 450.444 102.372 431.923 103.215C413.434 104.081 363.746 102.794 311.098 101.447C241.817 99.6624 170.159 97.8077 156.582 100.453C138.506 103.967 139.418 139.182 140.34 173.227C140.417 176.31 140.488 179.365 140.555 182.391C140.938 199.909 140.169 275.445 139.418 348.467C138.644 423.975 137.93 495.297 138.336 509.277C139.137 535.603 152.346 537.049 176.352 539.672C179.682 540.022 183.252 540.419 187.07 540.892C210.607 543.856 324.433 546.383 390.493 547.069C412.491 547.282 429.171 547.302 435.469 547.069L436.194 547.035C462.833 546.007 471.243 543.551 470.589 499.21C469.916 454.755 470.369 190.606 470.753 151.786ZM436.027 542.712L435.302 542.745C410.174 543.726 218.875 540.548 187.609 536.596C183.758 536.1 180.164 535.736 176.83 535.358C153.155 532.796 143.337 531.719 142.664 509.138C142.244 495.248 142.995 420.65 143.746 348.504C144.488 275.425 145.252 199.861 144.888 182.281C144.821 179.255 144.75 176.201 144.669 173.089C143.861 142.354 142.949 107.489 157.431 104.663C163.426 103.487 182.284 103.261 207.298 103.525C236.964 103.831 275.272 104.827 310.994 105.728C363.704 107.094 413.478 108.367 432.113 107.505C449.096 106.715 458.194 108.205 462.523 112.447C467.345 117.192 467.101 126.403 466.683 140.345C466.593 143.836 466.466 147.624 466.42 151.721C466.035 190.54 465.597 454.775 466.241 499.235C466.871 541.507 459.73 541.764 436.022 542.683L436.027 542.712Z" fill="black" stroke="black" stroke-width="0.468411"/>
<path d="M450.334 479.099C449.661 434.644 450.099 170.409 450.512 131.584C450.559 127.488 450.657 123.704 450.775 120.209C451.165 106.271 451.438 97.0552 446.615 92.311C442.286 88.0687 433.188 86.5789 416.206 87.3688C397.57 88.2302 347.797 86.9578 295.087 85.5914C259.36 84.6617 221.056 83.6946 191.391 83.3886C166.376 83.1242 147.523 83.3794 141.523 84.5268C127.041 87.3526 127.949 122.189 128.761 152.953C128.837 156.036 128.914 159.119 128.981 162.145C129.349 179.753 128.58 255.289 127.839 328.368C127.116 400.508 126.337 475.112 126.757 489.002C127.429 511.582 137.242 512.631 160.922 515.221C164.284 515.595 167.884 515.987 171.701 516.46C202.963 520.384 394.238 523.595 419.395 522.609L420.119 522.575C443.827 521.656 450.964 521.37 450.339 479.127L450.334 479.099ZM438.897 181.332C440.114 182.677 437.548 184.098 436.714 184.704C434.972 185.988 433.509 187.546 431.88 188.987C431.042 189.74 429.858 188.769 430.369 187.808C431.34 185.923 432.859 184.355 434.465 182.948C435.331 182.19 437.713 180.011 438.897 181.332ZM145.961 131.595C147.375 120.641 151.579 113.806 158.114 111.839C174.158 107.001 417.332 104.792 427.436 115.109C434.404 122.211 435.968 148.731 432.363 165.454C430.551 173.846 427.677 178.853 423.808 180.345C417.146 182.947 304.642 185.719 228.026 184.954C190.845 184.588 162.136 183.363 158.068 180.859C149.021 175.301 143.758 148.668 145.985 131.562L145.961 131.595ZM357.222 326.474C356.215 333.739 354.502 338.172 351.926 340.063C347.972 342.971 338.856 344.171 329.73 344.088C319.695 343.982 309.631 342.303 306.362 339.519C302.175 335.954 299.619 320.638 299.882 308.562C300.055 300.677 301.398 290.348 306.952 286.004C312.373 281.74 350.142 281.95 354.67 287.736C357.977 291.974 358.943 313.863 357.194 326.479L357.222 326.474ZM356.49 399.435C355.483 406.7 353.77 411.133 351.194 413.023C347.24 415.931 338.124 417.132 328.969 417.053C318.934 416.946 308.87 415.267 305.602 412.484C301.415 408.918 298.859 393.603 299.121 381.527C299.295 373.642 300.637 363.313 306.191 358.969C310.169 355.852 326.938 356.061 330.306 356.112C337.926 356.272 351.115 357.079 353.938 360.696C357.245 364.934 358.206 386.794 356.49 399.435ZM357.954 253.514C356.947 260.779 355.234 265.212 352.658 267.102C348.704 270.011 339.588 271.211 330.433 271.133C320.398 271.026 310.334 269.347 307.066 266.563C302.879 262.998 300.323 247.683 300.585 235.607C300.759 227.721 302.101 217.392 307.656 213.048C311.633 209.931 328.402 210.141 331.77 210.192C339.39 210.351 352.579 211.158 355.402 214.776C358.709 219.014 359.675 240.902 357.926 253.519L357.954 253.514ZM232.292 285.234C236.269 282.117 253.062 282.293 256.377 282.383C263.997 282.542 277.187 283.349 280.01 286.966C283.317 291.204 284.278 313.065 282.562 325.705C281.555 332.97 279.846 337.431 277.265 339.293C273.312 342.202 264.195 343.402 255.07 343.319C245.034 343.212 234.97 341.533 231.702 338.749C227.515 335.184 224.959 319.869 225.217 307.764C225.39 299.879 226.733 289.55 232.287 285.206L232.292 285.234ZM225.953 234.832C226.127 226.947 227.469 216.618 233.024 212.274C237.001 209.157 253.799 209.362 257.109 209.423C264.729 209.582 277.919 210.389 280.742 214.006C284.049 218.244 285.01 240.104 283.294 252.745C282.287 260.01 280.578 264.471 277.997 266.333C274.044 269.242 264.928 270.442 255.802 270.359C245.766 270.252 235.702 268.573 232.434 265.789C228.247 262.224 225.691 246.909 225.953 234.832ZM157.608 284.498C161.585 281.381 178.378 281.557 181.693 281.646C189.313 281.806 202.503 282.612 205.326 286.23C208.633 290.468 209.594 312.328 207.878 324.968C206.871 332.233 205.162 336.695 202.581 338.557C198.628 341.465 189.512 342.666 180.386 342.582C170.35 342.476 160.286 340.797 157.018 338.013C152.831 334.448 150.275 319.132 150.533 307.028C150.706 299.143 152.049 288.813 157.603 284.469L157.608 284.498ZM151.298 234.091C151.471 226.206 152.814 215.877 158.368 211.533C162.345 208.416 179.143 208.621 182.454 208.681C190.074 208.841 203.263 209.648 206.087 213.265C209.393 217.503 210.355 239.363 208.634 251.975C207.626 259.24 205.918 263.702 203.337 265.563C199.383 268.472 190.267 269.672 181.113 269.594C171.078 269.487 161.014 267.808 157.774 265.019C153.586 261.454 151.03 246.139 151.293 234.063L151.298 234.091ZM206.409 470.86C205.402 478.125 203.693 482.587 201.113 484.449C197.159 487.357 188.043 488.557 178.888 488.479C168.853 488.372 158.789 486.693 155.521 483.909C151.334 480.344 148.778 465.029 149.04 452.953C149.214 445.068 150.556 434.738 156.11 430.394C160.088 427.277 176.886 427.482 180.196 427.543C187.816 427.702 201.005 428.509 203.829 432.127C207.135 436.364 208.097 458.225 206.381 470.865L206.409 470.86ZM207.141 397.9C206.134 405.165 204.425 409.627 201.849 411.517C197.896 414.426 188.779 415.626 179.625 415.547C169.59 415.441 159.526 413.762 156.286 410.973C152.099 407.408 149.543 392.093 149.801 379.988C149.974 372.103 151.317 361.774 156.871 357.43C160.848 354.313 177.646 354.517 180.957 354.578C188.576 354.737 201.766 355.544 204.589 359.162C207.896 363.4 208.857 385.26 207.136 397.872L207.141 397.9ZM281.069 471.63C280.062 478.895 278.354 483.356 275.773 485.218C271.819 488.127 262.703 489.327 253.549 489.249C243.513 489.142 233.449 487.463 230.181 484.679C225.994 481.114 223.438 465.799 223.7 453.722C223.874 445.837 225.217 435.508 230.771 431.164C234.748 428.047 251.541 428.223 254.856 428.312C262.476 428.472 275.666 429.279 278.489 432.896C281.796 437.134 282.757 458.994 281.036 471.606L281.069 471.63ZM281.83 398.665C280.823 405.93 279.114 410.391 276.538 412.282C272.584 415.19 263.468 416.391 254.314 416.312C244.279 416.205 234.215 414.526 230.975 411.738C226.787 408.173 224.231 392.857 224.489 380.753C224.663 372.868 226.005 362.538 231.56 358.194C235.537 355.077 252.335 355.282 255.645 355.343C263.265 355.502 276.455 356.309 279.278 359.927C282.585 364.164 283.546 386.025 281.825 398.637L281.83 398.665ZM304.903 485.467C300.716 481.902 298.16 466.587 298.394 454.516C298.567 446.63 299.91 436.301 305.459 431.929C309.437 428.812 326.235 429.016 329.574 429.073C337.193 429.232 350.383 430.039 353.206 433.656C356.513 437.894 357.479 459.783 355.73 472.399C354.722 479.664 353.009 484.098 350.433 485.988C346.479 488.896 337.363 490.097 328.209 490.018C318.174 489.911 308.11 488.232 304.841 485.448L304.903 485.467ZM404.391 517.227C394.957 519.678 383.482 517.942 373.769 517.84C363.677 517.743 353.353 518.181 343.369 516.635C342.74 516.535 342.763 515.451 343.388 515.347C353.404 513.763 363.728 514.201 373.815 514.094C383.552 513.988 394.942 512.233 404.428 514.651C405.711 514.992 405.65 516.9 404.391 517.227ZM427.202 513.741C426.094 515.328 424.086 515.371 422.292 515.642C420.094 515.95 417.793 516.334 415.595 516.117C414.672 516.008 414.032 514.625 415.093 514.156C417.101 513.237 419.317 512.867 421.467 512.45C423.195 512.132 425.416 511.44 426.946 512.558C427.311 512.818 427.543 513.334 427.231 513.737L427.202 513.741ZM430.418 473.164C429.411 480.429 427.698 484.862 425.122 486.752C421.168 489.661 412.052 490.861 402.898 490.783C392.862 490.676 382.798 488.997 379.559 486.209C375.371 482.643 372.815 467.328 373.049 455.257C373.223 447.372 374.566 437.042 380.115 432.67C384.092 429.553 400.89 429.758 404.229 429.814C411.849 429.973 425.039 430.78 427.862 434.397C431.168 438.635 432.135 460.524 430.385 473.141L430.418 473.164ZM373.81 382.292C373.983 374.407 375.326 364.077 380.88 359.734C384.858 356.616 401.656 356.821 404.994 356.877C412.614 357.036 425.804 357.843 428.627 361.461C431.934 365.699 432.895 387.559 431.179 400.199C430.172 407.464 428.458 411.897 425.882 413.788C421.929 416.696 412.812 417.897 403.658 417.818C393.623 417.711 383.559 416.032 380.291 413.248C376.103 409.683 373.547 394.368 373.81 382.292ZM431.882 327.244C430.875 334.509 429.162 338.942 426.586 340.832C422.632 343.741 413.516 344.941 404.39 344.858C394.355 344.751 384.291 343.072 381.023 340.288C376.835 336.723 374.279 321.408 374.542 309.332C374.715 301.446 376.058 291.117 381.612 286.773C387.034 282.51 424.802 282.719 429.331 288.506C432.637 292.743 433.603 314.632 431.854 327.249L431.882 327.244ZM432.643 254.279C431.636 261.544 429.922 265.977 427.347 267.867C423.393 270.776 414.277 271.976 405.122 271.898C395.087 271.791 385.023 270.112 381.755 267.328C377.567 263.763 375.011 248.448 375.274 236.371C375.447 228.486 376.79 218.157 382.344 213.813C386.322 210.696 403.12 210.901 406.458 210.957C414.078 211.116 427.268 211.923 430.091 215.541C433.398 219.778 434.364 241.667 432.614 254.284L432.643 254.279ZM432.839 201.385C434.587 200.129 436.348 198.959 438.148 197.841C439.473 197.036 440.993 195.643 442.589 196.107C442.926 196.197 443.134 196.571 443.044 196.907C442.58 198.503 440.629 199.062 439.251 199.73C437.338 200.692 435.378 201.545 433.413 202.37C432.731 202.659 432.238 201.806 432.839 201.385ZM445.215 204.489C444.599 205.526 443.131 205.829 442.118 206.407C440.764 207.217 439.561 208.236 438.6 209.477C438.117 210.083 437.122 209.548 437.53 208.838C438.424 207.374 439.466 206.091 440.811 205.048C441.843 204.234 443.415 202.978 444.812 203.475C445.215 203.612 445.437 204.072 445.21 204.46L445.215 204.489ZM445.67 186.043C443.615 188.78 440.059 190.396 437.294 192.376C433.567 195.072 430.026 197.999 426.555 201.002C425.788 201.656 424.741 200.633 425.461 199.871C428.51 196.617 431.805 193.613 435.281 190.814C438.037 188.602 441.228 185.499 444.727 184.769C445.381 184.66 446.177 185.403 445.67 186.043Z" fill="#C10230"/>
<path d="M160.585 261.747C165.388 265.852 194.295 266.868 200.797 262.074C201.341 261.662 203.207 259.715 204.356 251.375C206.375 236.698 204.443 218.125 202.7 215.904C199.673 212.642 165.011 211.797 161.034 214.914C157.781 217.472 155.793 224.463 155.601 234.162C155.344 247.493 158.378 259.895 160.585 261.747ZM196.097 254.914C196.495 255.199 196.595 255.62 196.377 256.065C195.814 257.24 193.981 257.458 192.896 257.96C191.518 258.628 190.15 259.528 188.938 260.49C188.346 260.969 187.394 260.339 187.858 259.619C188.828 258.084 189.979 256.929 191.508 255.943C192.645 255.228 194.79 253.906 196.092 254.886L196.097 254.914ZM186.706 255.343C187.591 252.771 190.323 250.592 193.132 250.795C194.552 250.908 194.704 252.694 193.44 253.168C191.409 253.945 189.964 254.741 188.582 256.432C187.876 257.279 186.375 256.333 186.735 255.338L186.706 255.343Z" fill="#8EC046"/>
<path d="M235.246 262.516C240.049 266.621 268.957 267.638 275.458 262.843C276.002 262.431 277.868 260.485 279.017 252.144C281.036 237.468 279.104 218.894 277.361 216.674C274.334 213.411 239.672 212.567 235.695 215.684C232.442 218.242 230.455 225.232 230.262 234.931C230 248.234 233.039 260.665 235.246 262.516ZM274.703 254.12C273.33 255.518 271.18 256.11 269.504 257.091C267.477 258.247 265.479 259.573 263.656 261.075C262.988 261.624 262.145 260.772 262.737 260.118C264.366 258.328 266.089 256.755 268.144 255.419C269.882 254.282 272.084 252.776 274.234 252.884C274.854 252.927 275.181 253.661 274.731 254.116L274.703 254.12ZM260.079 256.795C261.287 255.454 263.171 254.672 264.758 253.853C266.074 253.166 267.783 251.858 269.256 252.459C269.692 252.62 269.995 253.037 269.844 253.529C269.337 255.22 267.221 255.661 265.753 256.315C264.119 257.026 262.381 257.987 260.586 258.083C259.89 258.111 259.686 257.24 260.079 256.795Z" fill="#FFCE00"/>
<path d="M310.354 216.453C307.101 219.011 305.147 226.025 304.922 235.701C304.659 249.004 307.693 261.406 309.905 263.286C314.708 267.391 343.616 268.407 350.117 263.613C350.662 263.201 352.527 261.254 353.681 252.942C355.7 238.266 353.763 219.664 352.02 217.443C348.993 214.181 314.331 213.336 310.354 216.453ZM336.713 255.219C338.048 253.069 340.145 251.113 342.058 249.45C343.36 248.327 345.085 250.084 343.925 251.358C342.225 253.248 340.227 255.275 338.049 256.574C337.196 257.066 336.211 256.062 336.713 255.219ZM347.487 254.502C345.63 255.805 343.684 256.743 341.984 258.282C340.308 259.789 338.878 261.546 337.577 263.37C337.15 263.966 336.037 263.597 336.317 262.82C338.011 258.449 341.922 253.708 346.558 252.262C347.084 252.087 347.633 252.404 347.936 252.821C347.979 252.901 348.026 253.01 348.045 253.124C348.225 253.678 347.903 254.199 347.487 254.502Z" fill="#8EC046"/>
<path d="M385.039 217.19C381.786 219.748 379.831 226.762 379.606 236.437C379.344 249.74 382.378 262.142 384.59 264.022C389.393 268.127 418.3 269.144 424.801 264.349C425.346 263.937 427.211 261.99 428.36 253.65C430.379 238.974 428.443 220.372 426.7 218.151C423.673 214.889 389.011 214.044 385.034 217.161L385.039 217.19ZM413.528 256.476C414.428 255.392 415.981 254.723 417.222 254.108C418.302 253.577 419.547 252.639 420.703 253.439C421.034 253.676 421.366 254.088 421.323 254.533C421.252 255.158 421.077 255.684 420.623 256.11C420.395 256.323 419.969 256.219 419.917 255.907C420.13 255.783 420.064 255.736 419.832 255.746C418.046 256.598 416.043 257.721 414.149 257.921C413.373 257.992 413.145 256.978 413.623 256.519C413.623 256.519 413.623 256.519 413.59 256.495L413.528 256.476ZM421.329 258.942C419.421 260.983 416.551 262.163 414.113 263.476C413.336 263.897 412.677 262.751 413.445 262.273C415.765 260.776 418.184 258.824 420.907 258.165C421.357 258.061 421.651 258.596 421.357 258.937L421.329 258.942Z" fill="#FFCE00"/>
<path d="M159.824 334.711C164.627 338.816 193.534 339.833 200.035 335.038C200.58 334.626 202.445 332.68 203.594 324.339C205.613 309.663 203.682 291.089 201.938 288.869C200.299 287.098 189.378 286.058 179.078 285.937C170.359 285.845 162.077 286.438 160.273 287.879C157.02 290.437 155.061 297.422 154.84 307.126C154.583 320.458 157.616 332.86 159.824 334.711ZM183.435 328.317C185.362 326.74 187.341 325.125 189.543 323.968C190.055 323.708 190.566 323.798 190.978 324.167C191.149 324.314 191.206 324.48 191.272 324.702C191.39 325.062 191.248 325.611 190.969 325.862C189.014 327.445 186.793 328.662 184.562 329.823C183.648 330.297 182.559 329.018 183.435 328.317ZM182.967 334.441C184.62 332.968 186.178 331.452 187.901 330.054C189.289 328.917 190.785 327.383 192.584 326.966C193.257 326.795 193.787 327.524 193.446 328.107C192.552 329.746 190.705 330.755 189.213 331.792C187.409 333.057 185.525 334.189 183.678 335.374C183.096 335.734 182.456 334.877 182.967 334.441Z" fill="#5C0F8B"/>
<path d="M234.514 335.477C239.317 339.582 268.225 340.598 274.726 335.804C275.27 335.392 277.136 333.445 278.285 325.105C280.304 310.428 278.372 291.855 276.629 289.634C274.99 287.863 264.069 286.824 253.768 286.703C245.05 286.61 236.767 287.204 234.963 288.644C231.71 291.202 229.751 298.188 229.53 307.892C229.273 321.223 232.307 333.626 234.514 335.477ZM275.112 325.693C275.581 325.878 275.86 326.503 275.434 326.924C274.189 328.037 272.176 328.227 270.694 328.971C268.918 329.881 267.37 331.103 265.973 332.534C265.424 333.093 264.51 332.34 264.898 331.691C265.992 329.844 267.521 328.333 269.349 327.21C270.859 326.286 273.355 324.964 275.117 325.721L275.112 325.693ZM265.579 325.094C267.203 323.976 268.841 322.943 270.75 323.88C271.006 324.013 271.1 324.406 270.935 324.638C270.002 326.049 268.7 326.296 267.289 327.116C265.75 328.044 264.523 329.271 263.103 330.384C262.563 330.825 261.531 330.413 261.805 329.608C262.454 327.718 263.954 326.212 265.55 325.098L265.579 325.094Z" fill="#5C0F8B"/>
<path d="M309.625 289.414C306.372 291.972 304.413 298.958 304.192 308.662C303.935 321.993 306.968 334.395 309.176 336.247C313.979 340.352 342.886 341.368 349.388 336.574C349.932 336.162 351.798 334.215 352.951 325.903C354.97 311.227 353.034 292.625 351.291 290.404C348.264 287.142 313.602 286.297 309.625 289.414ZM336.945 328.867C338.237 326.11 341.32 324.282 344.355 324.271C345.814 324.262 346.141 326.573 344.668 326.848C342.149 327.327 340.193 328.208 338.257 329.904C337.518 330.553 336.561 329.719 336.95 328.895L336.945 328.867ZM347.946 328.111C345.043 330.669 341.321 331.816 337.884 333.441C337.045 333.844 336.316 332.622 337.144 332.163C340.492 330.348 343.665 328.008 347.411 327.179C347.922 327.093 348.348 327.723 347.913 328.088L347.946 328.111Z" fill="#5C0F8B"/>
<path d="M384.286 290.184C381.033 292.742 379.074 299.727 378.853 309.431C378.591 322.734 381.629 335.165 383.837 337.016C388.64 341.121 417.547 342.138 424.049 337.343C424.593 336.931 426.459 334.985 427.612 326.673C429.631 311.996 427.695 293.394 425.952 291.174C422.925 287.911 388.263 287.067 384.286 290.184ZM414.836 331.492C414.571 332.179 413.477 331.923 413.7 331.156C414.05 329.929 414.334 329.006 415.224 328.04C416.067 327.14 417.113 326.585 418.278 326.216C419.557 325.827 420.068 327.844 418.814 328.2C417.308 328.626 415.452 329.929 414.86 331.459L414.836 331.492ZM422.963 331.012C422.011 333.011 418.9 333.968 417.006 334.868C416.3 335.19 415.443 334.253 416.144 333.727C417.825 332.424 420.168 330.018 422.465 330.131C422.934 330.141 423.162 330.628 422.963 331.012Z" fill="#8EC046"/>
<path d="M352.717 82.4878C342.686 82.059 332.306 84.2588 322.209 84.4836C312.435 84.7131 302.641 84.4785 292.885 84.1207C274.226 83.4382 254.77 80.9609 236.026 82.0449C235.662 81.7845 235.245 81.562 234.691 81.5668C215.762 81.1922 196.823 81.1111 177.894 80.9117C165.254 80.7724 146.646 77.4236 136.429 87.0728C125.908 97.0061 127.139 116.281 126.611 129.394C125.976 146.06 125.037 163.185 126.428 179.921C126.357 180.02 126.291 180.148 126.253 180.271C123.196 192.58 127.007 205.788 127.621 218.214C128.244 231.048 126.13 243.755 126.848 256.631C127.604 269.91 128.137 283.081 127.785 296.369C127.433 309.658 125.717 323.35 126.468 336.6C126.506 337.353 127.496 337.509 127.784 336.789C131.992 325.427 131.07 311.154 131.621 299.234C132.206 285.935 132.051 272.76 131.267 259.486C130.506 246.529 132.36 233.837 132.045 220.922C131.772 209.665 130.211 198.389 129.295 187.123C129.465 186.919 129.598 186.664 129.631 186.337C130.873 170.68 130.244 154.839 130.748 139.13C130.992 131.321 131.289 123.473 131.827 115.673C132.403 107.4 133.168 96.4078 139.602 90.3398C145.128 85.1244 153.657 85.3072 160.732 85.353C168.774 85.4128 176.829 85.5578 184.88 85.6744C201.446 85.8886 218.003 86.2211 234.573 86.2885C235.246 86.2931 235.757 86.0325 236.136 85.6772C254.63 88.3441 274.217 87.762 292.796 88.4871C303.025 88.8827 313.26 89.1314 323.522 88.8497C333.06 88.6013 344.038 88.9304 353.111 85.7222C354.849 85.1109 354.678 82.511 352.708 82.4309L352.717 82.4878Z" fill="white"/>
<path d="M202.251 213.38C192.708 211.672 182.876 211.561 173.253 212.349C166.425 212.905 160.462 213.579 157.348 220.465C154.044 227.792 154.965 237.335 155.951 244.997C156.753 251.201 156.68 261.61 162.581 265.298C163.036 265.573 163.737 265.222 163.703 264.673C163.442 259.781 161.636 254.913 160.987 249.969C159.967 242.107 158.601 233.223 160.598 225.413C163.044 215.922 173.311 216.72 181.315 216.553C188.125 216.409 194.859 217.038 201.627 217.514C203.933 217.684 204.576 213.839 202.227 213.413L202.251 213.38Z" fill="white"/>
<path d="M276.191 213.159C266.648 211.451 256.816 211.34 247.193 212.128C240.364 212.684 234.402 213.358 231.287 220.244C227.983 227.571 228.904 237.114 229.891 244.776C230.692 250.98 230.619 261.389 236.521 265.077C236.975 265.351 237.676 265.001 237.643 264.451C237.381 259.559 235.576 254.691 234.926 249.747C233.906 241.886 232.54 233.002 234.537 225.192C236.983 215.701 247.251 216.499 255.254 216.332C262.064 216.188 268.799 216.816 275.566 217.293C277.873 217.463 278.516 213.618 276.167 213.192L276.191 213.159Z" fill="white"/>
<path d="M350.136 212.968C340.593 211.26 330.761 211.149 321.138 211.937C314.309 212.493 308.347 213.167 305.232 220.053C301.928 227.38 302.849 236.923 303.836 244.585C304.638 250.789 304.564 261.198 310.466 264.886C310.921 265.161 311.622 264.81 311.588 264.261C311.327 259.369 309.521 254.501 308.871 249.556C307.851 241.695 306.486 232.811 308.482 225.001C310.929 215.51 321.196 216.308 329.2 216.141C336.01 215.997 342.744 216.626 349.512 217.102C351.818 217.272 352.461 213.427 350.112 213.001L350.136 212.968Z" fill="white"/>
<path d="M424.076 212.749C414.533 211.042 404.702 210.93 395.079 211.718C388.25 212.274 382.287 212.948 379.173 219.834C375.869 227.161 376.79 236.704 377.777 244.366C378.578 250.57 378.505 260.979 384.406 264.667C384.861 264.942 385.562 264.591 385.529 264.042C385.267 259.15 383.462 254.282 382.812 249.338C381.792 241.477 380.426 232.592 382.423 224.783C384.869 215.291 395.136 216.09 403.14 215.922C409.95 215.778 416.684 216.407 423.452 216.884C425.758 217.054 426.402 213.208 424.053 212.782L424.076 212.749Z" fill="white"/>
<path d="M201.5 285.876C191.957 284.169 182.125 284.057 172.502 284.845C165.674 285.401 159.711 286.075 156.597 292.961C153.293 300.288 154.214 309.831 155.2 317.493C156.002 323.697 155.929 334.106 161.83 337.794C162.285 338.069 162.986 337.718 162.953 337.169C162.691 332.277 160.886 327.409 160.236 322.465C159.216 314.603 157.85 305.719 159.847 297.91C162.293 288.418 172.56 289.217 180.564 289.049C187.374 288.905 194.108 289.534 200.876 290.011C203.182 290.181 203.825 286.335 201.476 285.909L201.5 285.876Z" fill="white"/>
<path d="M275.44 285.655C265.897 283.948 256.065 283.836 246.442 284.625C239.613 285.18 233.651 285.854 230.536 292.741C227.232 300.068 228.153 309.61 229.14 317.272C229.942 323.476 229.868 333.886 235.77 337.573C236.224 337.848 236.925 337.497 236.892 336.948C236.63 332.056 234.825 327.188 234.175 322.244C233.155 314.383 231.789 305.499 233.786 297.689C236.232 288.198 246.5 288.996 254.503 288.828C261.313 288.685 268.048 289.313 274.815 289.79C277.122 289.96 277.765 286.114 275.416 285.689L275.44 285.655Z" fill="white"/>
<path d="M349.38 287.363C339.837 285.656 330.005 285.544 320.382 286.333C313.553 286.888 307.591 287.562 304.477 294.449C301.173 301.776 302.093 311.318 303.08 318.981C303.882 325.184 303.808 335.594 309.71 339.281C310.165 339.556 310.866 339.205 310.832 338.656C310.571 333.764 308.765 328.896 308.115 323.952C307.096 316.091 305.73 307.207 307.726 299.397C310.173 289.906 320.44 290.704 328.444 290.536C335.254 290.393 341.988 291.021 348.756 291.498C351.062 291.668 351.705 287.822 349.356 287.397L349.38 287.363Z" fill="white"/>
<path d="M454.84 131.62C454.891 127.552 454.995 123.796 455.089 120.335C455.521 105.251 455.817 95.3008 449.635 89.2356C444.292 83.9943 434.531 82.2063 416.01 83.0486C397.521 83.9147 347.833 82.6281 295.185 81.2806C225.904 79.4964 154.246 77.6417 140.669 80.2873C122.593 83.8006 123.505 119.016 124.427 153.061C124.503 156.144 124.575 159.199 124.642 162.225C125.025 179.743 124.256 255.279 123.505 328.301C122.73 403.809 122.017 475.131 122.423 489.111C123.224 515.437 136.433 516.883 160.439 519.506C163.768 519.856 167.339 520.253 171.156 520.726C194.694 523.69 308.52 526.217 374.58 526.903C396.578 527.116 413.258 527.136 419.556 526.903L420.281 526.869C446.919 525.841 455.33 523.385 454.676 479.044C454.003 434.589 454.456 170.44 454.84 131.62ZM420.114 522.546L419.389 522.579C394.261 523.56 202.962 520.382 171.695 516.43C167.845 515.934 164.251 515.57 160.916 515.192C137.242 512.63 127.424 511.553 126.751 488.972C126.331 475.082 127.082 400.484 127.833 328.338C128.575 255.259 129.339 179.695 128.975 162.115C128.908 159.089 128.837 156.035 128.755 152.923C127.948 122.188 127.036 87.323 141.518 84.4973C147.513 83.3214 166.371 83.0947 191.385 83.359C221.051 83.665 259.359 84.6605 295.081 85.5618C347.791 86.9282 397.565 88.2006 416.2 87.3393C433.183 86.5493 442.281 88.0391 446.61 92.2814C451.432 97.0256 451.188 106.237 450.769 120.179C450.68 123.669 450.553 127.458 450.507 131.555C450.122 170.374 449.684 434.609 450.328 479.069C450.958 521.341 443.817 521.598 420.109 522.517L420.114 522.546Z" fill="black" stroke="black" stroke-width="0.468411"/>
<path d="M424.75 287.664C415.207 285.956 405.375 285.845 395.752 286.633C388.924 287.189 382.961 287.862 379.847 294.749C376.543 302.076 377.464 311.618 378.45 319.281C379.252 325.485 379.179 335.894 385.08 339.582C385.535 339.856 386.236 339.506 386.202 338.956C385.941 334.064 384.136 329.196 383.486 324.252C382.466 316.391 381.1 307.507 383.097 299.697C385.543 290.206 395.81 291.004 403.814 290.837C410.624 290.693 417.358 291.321 424.126 291.798C426.432 291.968 427.076 288.123 424.726 287.697L424.75 287.664Z" fill="white"/>
<path d="M158.041 180.865C162.109 183.369 190.818 184.594 227.999 184.96C304.587 185.729 417.119 182.953 423.781 180.351C427.65 178.859 430.524 173.852 432.336 165.46C435.941 148.737 434.377 122.217 427.409 115.115C417.305 104.798 174.131 107.006 158.087 111.845C151.552 113.812 147.377 120.642 145.935 131.601C143.703 148.679 148.966 175.312 158.017 180.898L158.041 180.865ZM150.259 132.135C151.095 125.775 153.324 117.78 159.362 115.984C167.507 113.515 226.941 111.773 294.644 111.981C379.122 112.251 420.689 115.272 424.35 118.137C429.632 123.534 431.655 148.255 428.125 164.556C426.096 173.92 423.331 175.9 422.237 176.345C417.298 178.25 358.517 180.233 291.226 180.745C206.053 181.38 164.112 179.443 160.318 177.185C154.165 173.393 147.923 149.99 150.259 132.135Z" fill="black" stroke="black" stroke-width="0.468411"/>
<path d="M203.341 265.593C205.888 263.707 207.63 259.269 208.637 252.004C210.358 239.393 209.42 217.499 206.09 213.294C203.267 209.677 190.077 208.87 182.457 208.711C179.147 208.65 162.349 208.445 158.372 211.562C152.817 215.906 151.446 226.24 151.301 234.12C151.067 246.192 153.595 261.512 157.782 265.077C161.05 267.861 171.114 269.54 181.121 269.651C190.247 269.735 199.392 268.53 203.345 265.621L203.341 265.593ZM202.676 215.938C204.419 218.158 206.356 236.76 204.332 251.409C203.183 259.749 201.318 261.695 200.773 262.108C194.267 266.873 165.388 265.852 160.561 261.78C158.382 259.924 155.315 247.498 155.578 234.195C155.77 224.496 157.752 217.477 161.01 214.948C164.959 211.835 199.649 212.675 202.676 215.938Z" fill="black"/>
<path d="M277.996 266.333C280.543 264.448 282.285 260.01 283.292 252.745C285.008 240.105 284.075 218.24 280.74 214.007C277.917 210.389 264.728 209.582 257.108 209.423C253.797 209.362 236.999 209.158 233.022 212.275C227.468 216.619 226.097 226.952 225.952 234.833C225.718 246.905 228.245 262.224 232.432 265.789C235.701 268.573 245.765 270.252 255.8 270.359C264.926 270.442 274.07 269.237 277.996 266.333ZM277.36 216.674C279.103 218.894 281.039 237.496 279.016 252.145C277.867 260.485 276.001 262.432 275.457 262.844C268.951 267.609 240.071 266.588 235.245 262.516C233.066 260.66 229.999 248.234 230.261 234.931C230.453 225.232 232.436 218.213 235.694 215.684C239.643 212.571 274.304 213.416 277.36 216.674Z" fill="black"/>
<path d="M355.43 214.771C352.607 211.153 339.418 210.346 331.798 210.187C328.459 210.131 311.689 209.921 307.683 213.043C302.129 217.387 300.758 227.721 300.613 235.602C300.379 247.673 302.935 262.988 307.094 266.558C310.362 269.342 320.426 271.021 330.461 271.128C339.587 271.211 348.732 270.006 352.686 267.097C355.233 265.212 356.975 260.774 357.982 253.509C359.727 240.864 358.765 219.004 355.459 214.766L355.43 214.771ZM353.682 252.942C352.533 261.282 350.667 263.229 350.118 263.612C343.612 268.378 314.733 267.357 309.906 263.285C307.727 261.429 304.665 249.031 304.923 235.7C305.115 226.001 307.098 218.982 310.355 216.452C314.304 213.34 348.966 214.185 352.021 217.442C353.764 219.663 355.701 238.265 353.682 252.942Z" fill="black"/>
<path d="M406.456 210.957C403.117 210.901 386.347 210.692 382.342 213.814C376.788 218.158 375.416 228.492 375.271 236.372C375.037 248.444 377.593 263.759 381.752 267.329C385.02 270.113 395.084 271.792 405.12 271.898C414.246 271.981 423.39 270.776 427.344 267.868C429.891 265.982 431.633 261.545 432.64 254.28C434.385 241.635 433.424 219.774 430.117 215.536C427.294 211.919 414.104 211.112 406.484 210.953L406.456 210.957ZM428.364 253.679C427.215 262.019 425.349 263.966 424.805 264.378C418.299 269.144 389.42 268.123 384.593 264.051C382.414 262.195 379.352 249.797 379.609 236.466C379.801 226.767 381.784 219.748 385.042 217.218C388.991 214.106 423.681 214.946 426.708 218.208C428.451 220.429 430.387 239.031 428.368 253.708L428.364 253.679Z" fill="black"/>
<path d="M157.045 338.009C160.314 340.793 170.378 342.472 180.413 342.578C189.539 342.662 198.684 341.457 202.609 338.553C205.156 336.667 206.898 332.229 207.905 324.964C209.626 312.353 208.688 290.459 205.353 286.226C202.53 282.608 189.341 281.802 181.721 281.642C178.406 281.553 161.612 281.377 157.635 284.494C152.081 288.838 150.71 299.172 150.565 307.052C150.331 319.124 152.863 334.472 157.05 338.037L157.045 338.009ZM160.274 287.879C162.082 286.468 170.365 285.874 179.079 285.938C189.375 286.031 200.301 287.099 201.94 288.869C203.683 291.09 205.619 309.692 203.596 324.34C202.447 332.68 200.581 334.627 200.037 335.039C193.531 339.805 164.651 338.784 159.825 334.712C157.646 332.856 154.579 320.43 154.841 307.127C155.038 297.456 157.021 290.437 160.274 287.879Z" fill="black"/>
<path d="M231.707 338.778C234.975 341.562 245.039 343.241 255.074 343.347C264.2 343.431 273.345 342.226 277.27 339.322C279.817 337.436 281.559 332.998 282.566 325.733C284.287 313.122 283.35 291.228 280.015 286.995C277.191 283.378 264.002 282.571 256.382 282.411C253.067 282.322 236.274 282.146 232.296 285.263C226.742 289.607 225.371 299.941 225.226 307.821C224.992 319.893 227.524 335.241 231.711 338.806L231.707 338.778ZM234.963 288.644C236.772 287.232 245.055 286.638 253.769 286.703C264.064 286.795 274.99 287.863 276.629 289.634C278.372 291.854 280.309 310.456 278.285 325.105C277.136 333.445 275.271 335.391 274.726 335.804C268.22 340.569 239.341 339.548 234.514 335.476C232.335 333.62 229.268 321.194 229.531 307.891C229.728 298.221 231.71 291.202 234.963 288.644Z" fill="black"/>
<path d="M354.697 287.731C350.135 281.921 312.4 281.736 306.978 285.999C301.424 290.343 300.053 300.677 299.908 308.557C299.674 320.629 302.202 335.949 306.389 339.514C309.657 342.298 319.721 343.977 329.756 344.084C338.882 344.167 348.027 342.962 351.952 340.058C354.5 338.173 356.242 333.735 357.249 326.47C358.993 313.825 358.032 291.964 354.725 287.727L354.697 287.731ZM352.948 325.902C351.799 334.242 349.934 336.189 349.385 336.573C342.879 341.339 314 340.317 309.173 336.246C306.994 334.39 303.927 321.964 304.189 308.661C304.381 298.962 306.369 291.971 309.622 289.413C313.571 286.301 348.232 287.146 351.288 290.403C353.031 292.624 354.967 311.226 352.948 325.902Z" fill="black"/>
<path d="M381.64 286.767C376.085 291.111 374.714 301.445 374.569 309.325C374.335 321.397 376.863 336.717 381.05 340.282C384.318 343.066 394.382 344.745 404.418 344.852C413.543 344.935 422.688 343.73 426.613 340.826C429.161 338.941 430.903 334.503 431.91 327.238C433.654 314.593 432.693 292.732 429.386 288.495C424.825 282.685 387.09 282.499 381.668 286.762L381.64 286.767ZM427.61 326.67C426.461 335.01 424.595 336.957 424.046 337.341C417.54 342.107 388.661 341.085 383.834 337.014C381.655 335.158 378.588 322.732 378.85 309.429C379.042 299.73 381.03 292.739 384.283 290.181C388.232 287.069 422.894 287.914 425.949 291.171C427.692 293.392 429.628 311.994 427.61 326.67Z" fill="black"/>
<path d="M338.049 256.574C340.227 255.276 342.225 253.248 343.925 251.358C345.085 250.084 343.356 248.299 342.059 249.45C340.146 251.113 338.077 253.064 336.713 255.219C336.207 256.034 337.197 257.066 338.049 256.574Z" fill="black"/>
<path d="M347.942 252.848C347.662 252.399 347.089 252.115 346.564 252.29C341.928 253.735 338.017 258.477 336.322 262.848C336.015 263.63 337.156 263.994 337.582 263.397C338.88 261.545 340.314 259.816 341.99 258.31C343.69 256.771 345.636 255.832 347.492 254.53C347.938 254.222 348.231 253.705 348.051 253.151C348.032 253.038 348.018 252.953 347.942 252.848Z" fill="black"/>
<path d="M188.587 256.461C190.003 254.793 191.442 253.969 193.445 253.196C194.71 252.723 194.553 250.909 193.137 250.824C190.329 250.621 187.592 252.772 186.711 255.372C186.357 256.395 187.858 257.342 188.559 256.465L188.587 256.461Z" fill="black"/>
<path d="M187.857 259.617C187.421 260.332 188.369 260.933 188.937 260.488C190.121 259.531 191.484 258.603 192.895 257.958C193.98 257.456 195.812 257.238 196.376 256.063C196.594 255.618 196.47 255.23 196.096 254.913C194.794 253.933 192.677 255.25 191.512 255.97C189.978 256.927 188.832 258.111 187.862 259.645L187.857 259.617Z" fill="black"/>
<path d="M260.585 258.083C262.38 257.988 264.151 257.05 265.752 256.315C267.22 255.661 269.332 255.192 269.843 253.53C269.994 253.037 269.696 252.649 269.255 252.459C267.754 251.863 266.045 253.171 264.757 253.853C263.17 254.672 261.286 255.454 260.078 256.795C259.685 257.24 259.918 258.107 260.585 258.083Z" fill="black"/>
<path d="M262.703 260.095C262.111 260.749 262.949 261.572 263.622 261.051C265.449 259.578 267.415 258.228 269.47 257.067C271.179 256.11 273.301 255.522 274.669 254.097C275.119 253.642 274.792 252.908 274.171 252.866C272.021 252.757 269.819 254.264 268.082 255.401C266.055 256.732 264.332 258.304 262.674 260.1L262.703 260.095Z" fill="black"/>
<path d="M184.565 329.823C186.767 328.667 189.016 327.445 190.972 325.862C191.279 325.607 191.426 325.086 191.274 324.702C191.208 324.479 191.151 324.314 190.981 324.167C190.569 323.798 190.029 323.713 189.546 323.968C187.344 325.124 185.365 326.74 183.438 328.317C182.59 329.014 183.651 330.297 184.565 329.823Z" fill="black"/>
<path d="M263.103 330.384C264.495 329.275 265.721 328.048 267.288 327.115C268.699 326.295 270.002 326.049 270.934 324.637C271.1 324.405 271.005 324.012 270.749 323.88C268.845 322.971 267.202 323.975 265.578 325.093C263.982 326.206 262.482 327.713 261.833 329.603C261.559 330.408 262.558 330.796 263.131 330.379L263.103 330.384Z" fill="black"/>
<path d="M264.87 331.695C264.481 332.344 265.396 333.097 265.945 332.538C267.346 331.136 268.89 329.885 270.666 328.976C272.148 328.232 274.16 328.042 275.406 326.929C275.865 326.531 275.557 325.911 275.083 325.698C273.293 324.945 270.798 326.267 269.315 327.186C267.488 328.309 265.963 329.848 264.865 331.667L264.87 331.695Z" fill="black"/>
<path d="M338.249 329.873C340.185 328.178 342.17 327.292 344.66 326.817C346.105 326.547 345.778 324.236 344.347 324.241C341.312 324.251 338.257 326.075 336.937 328.837C336.553 329.689 337.477 330.499 338.244 329.845L338.249 329.873Z" fill="black"/>
<path d="M414.12 257.926C416.014 257.727 418.017 256.604 419.802 255.751C420.034 255.741 420.101 255.789 419.888 255.912C419.945 256.253 420.366 256.329 420.593 256.115C421.048 255.689 421.251 255.159 421.294 254.538C421.336 254.093 421.033 253.676 420.673 253.444C419.518 252.644 418.301 253.577 417.193 254.113C415.952 254.729 414.394 255.368 413.499 256.482C413.499 256.482 413.499 256.482 413.532 256.505C413.059 256.993 413.286 258.007 414.058 257.907L414.12 257.926Z" fill="black"/>
<path d="M420.874 258.142C418.156 258.829 415.765 260.776 413.411 262.25C412.673 262.723 413.303 263.874 414.079 263.452C416.518 262.14 419.388 260.96 421.296 258.919C421.589 258.578 421.324 258.038 420.846 258.147L420.874 258.142Z" fill="black"/>
<path d="M430.366 187.807C429.855 188.769 431.039 189.739 431.877 188.986C433.477 187.551 434.974 186.016 436.711 184.704C437.545 184.098 440.106 182.648 438.894 181.331C437.71 180.01 435.328 182.189 434.461 182.947C432.852 184.326 431.332 185.894 430.366 187.807Z" fill="black"/>
<path d="M444.7 184.773C441.2 185.503 438.009 188.606 435.253 190.818C431.778 193.618 428.482 196.621 425.433 199.875C424.737 200.605 425.76 201.66 426.527 201.007C429.998 198.003 433.54 195.076 437.266 192.38C440.032 190.4 443.588 188.784 445.643 186.047C446.121 185.412 445.349 184.636 444.7 184.773Z" fill="black"/>
<path d="M433.418 202.397C435.384 201.573 437.344 200.72 439.257 199.758C440.63 199.062 442.586 198.531 443.05 196.935C443.14 196.598 442.931 196.224 442.595 196.134C440.999 195.671 439.479 197.063 438.153 197.869C436.325 198.991 434.564 200.162 432.845 201.412C432.244 201.834 432.736 202.686 433.418 202.397Z" fill="black"/>
<path d="M444.815 203.502C443.446 203 441.846 204.26 440.814 205.075C439.469 206.117 438.404 207.434 437.532 208.864C437.092 209.551 438.12 210.109 438.603 209.503C439.564 208.262 440.795 207.239 442.121 206.434C443.13 205.827 444.574 205.557 445.218 204.515C445.445 204.127 445.222 203.667 444.82 203.53L444.815 203.502Z" fill="black"/>
<path d="M160.39 177.12C164.171 179.345 206.029 181.306 291.025 180.673C358.204 180.157 416.834 178.183 421.762 176.282C422.859 175.866 425.642 173.857 427.639 164.518C431.161 148.25 429.142 123.582 423.871 118.195C420.189 115.341 378.709 112.326 294.436 112.052C226.874 111.845 167.564 113.583 159.436 116.047C153.416 117.868 151.187 125.817 150.352 132.164C148.049 149.977 154.25 173.336 160.39 177.12Z" fill="#7F27BB"/>
</g>
<path d="M479.239 82.125C476.984 83.0303 475.307 79.8975 477.276 78.4962C496.661 64.9892 516.562 52.3751 538.561 43.51C542.923 41.7855 545.42 41.6998 545.715 43.4142C546.212 46.5665 543.37 47.3144 541.454 48.5201C536.498 51.6789 531.522 54.9159 526.337 57.6778C512.161 65.2008 497.86 72.5645 483.531 79.8786C482.163 80.6023 480.841 81.4643 479.2 82.1146L479.239 82.125Z" fill="white"/>
<path d="M461.081 67.573C459.725 69.3481 456.888 68.0428 457.258 65.8778C457.51 64.3101 458.13 63.0924 458.75 61.8748C462.247 54.9286 465.811 48.0426 469.482 41.2271C470.335 39.6105 471.714 38.219 473.022 36.9343C473.472 36.5096 474.565 36.3413 475.18 36.5482C475.785 36.7941 476.546 37.7108 476.478 38.2795C476.261 40.6534 476.219 43.1579 475.319 45.2649C473.997 48.475 472.227 51.481 470.351 54.4165C467.426 58.9161 464.298 63.2355 461.131 67.5443L461.081 67.573Z" fill="white"/>
<path d="M495.203 101.414C493.99 101.089 493.674 99.4528 494.612 98.6138C494.891 98.3533 495.15 98.171 495.465 98.0879C505.381 95.042 515.415 92.4893 525.769 91.406C526.763 91.295 527.848 91.6276 528.876 91.861C529.736 92.0917 530.128 93.9158 529.42 94.5229C528.822 95.0335 528.242 95.6329 527.54 95.906C517.256 99.8593 506.557 101.605 495.527 101.459C495.409 101.427 495.292 101.396 495.175 101.364L495.203 101.414Z" fill="white"/>
<path d="M534.029 212.765C541.778 217.236 547.509 235.18 542.816 242.87C538.142 250.55 519.263 254.279 511.503 249.789C497.48 241.691 504.055 230.855 508.728 223.174C513.402 215.493 521.357 205.452 534.029 212.765Z" fill="#E60005"/>
<path d="M509.706 210.43C507.135 212.466 505.952 215.462 506.536 217.878C505.806 218.309 505.173 218.886 504.712 219.62C504.516 219.957 504.349 220.305 504.24 220.672C502.102 221.578 500.324 223.853 499.8 226.717C499.036 230.81 500.451 237.912 503.732 238.448C506.703 238.943 510.196 233.87 511.396 229.877C515.051 230.929 519.459 231.007 520.733 228.884C522.095 226.645 519.584 222.617 516.704 220.001C516.87 219.896 517.026 219.771 517.182 219.646C520.484 217.033 524.228 210.702 522.152 208.15C520.077 205.597 512.999 207.797 509.697 210.41" fill="#B0DF30"/>
<path d="M510.714 223.333C510.381 223.883 509.672 224.062 509.132 223.749C501.884 219.562 499.524 210.294 503.904 203.095C504.237 202.545 504.946 202.366 505.486 202.68C506.027 202.994 506.196 203.683 505.883 204.223C502.159 210.35 504.16 218.202 510.308 221.77C510.848 222.084 511.018 222.773 510.704 223.314" fill="#262626"/>
<path d="M525.706 234.286C525.136 233.962 524.938 233.215 525.29 232.655C525.633 232.076 526.39 231.897 526.96 232.221C527.539 232.564 528.567 233.772 528.215 234.332C527.872 234.911 526.275 234.61 525.706 234.286Z" fill="#262626"/>
<path d="M533.282 238.648C532.712 238.325 532.514 237.577 532.866 237.018C533.209 236.439 533.966 236.26 534.536 236.583C535.115 236.926 536.143 238.135 535.791 238.694C535.448 239.273 533.851 238.972 533.282 238.648Z" fill="#262626"/>
<path d="M515.88 240.033C515.311 239.709 515.112 238.962 515.465 238.403C515.808 237.824 516.565 237.645 517.134 237.968C517.713 238.311 518.742 239.52 518.389 240.079C518.046 240.658 516.45 240.357 515.88 240.033Z" fill="#262626"/>
<path d="M523.54 243.582C522.902 243.364 522.587 242.674 522.833 242.046C523.08 241.418 523.77 241.103 524.408 241.321C525.027 241.548 526.27 242.554 526.023 243.182C525.777 243.81 524.178 243.799 523.53 243.562" fill="#262626"/>
<path d="M527.374 221.13C526.804 220.807 526.047 220.986 525.704 221.565C525.361 222.144 525.55 222.872 526.12 223.195C526.699 223.538 528.286 223.82 528.629 223.241C528.972 222.662 527.943 221.454 527.374 221.13Z" fill="#262626"/>
<path d="M534.249 225.982C533.748 225.553 532.982 225.615 532.533 226.126C532.084 226.636 532.137 227.383 532.638 227.812C533.139 228.242 534.646 228.805 535.095 228.294C535.545 227.784 534.75 226.412 534.249 225.982Z" fill="#262626"/>
<path d="M70.1637 167.858C76.6649 177.884 72.456 189.868 62.0559 196.614C51.6717 203.347 39.0193 202.301 32.5055 192.259C26.0043 182.233 27.1654 167.218 41.1247 164.311C48.6763 153.06 63.634 157.829 70.1353 167.855" fill="#97C124"/>
<path d="M43.4401 169.317C42.9585 169.621 42.3523 169.508 42.0606 169.042C37.2224 161.57 39.5779 151.416 47.3162 146.393C47.7978 146.089 48.4039 146.202 48.6956 146.668C48.9748 147.118 48.8456 147.736 48.3799 148.028C41.5764 152.44 39.5077 161.359 43.7591 167.928C44.0383 168.378 43.9091 168.997 43.4434 169.288" fill="#262626"/>
<path d="M44.0388 169.486C42.2802 170.622 40.2025 171.03 38.1885 170.638C37.6392 170.531 37.3098 170.018 37.445 169.472C37.5643 168.939 38.1093 168.584 38.6427 168.703C40.1359 168.991 41.6822 168.695 42.991 167.838C44.2839 166.994 45.1965 165.703 45.5413 164.217C45.6606 163.683 46.2057 163.329 46.7391 163.448C47.2884 163.555 47.6178 164.068 47.4826 164.614C47.006 166.618 45.7975 168.35 44.0388 169.486Z" fill="#262626"/>
<path d="M39.609 155.006C36.4431 150.132 29.7824 148.829 24.7092 152.101C24.2434 152.393 24.0984 153.024 24.3934 153.461C27.5594 158.335 34.2201 159.638 39.2933 156.366C39.759 156.074 39.9041 155.443 39.609 155.006Z" fill="#97C124"/>
<path d="M61.8711 57.188C63.5499 61.7278 68.2982 65.1009 72.5076 66.3991C78.1741 68.1465 85.8972 66.7748 86.6776 63.5974C87.0062 62.2595 86.8175 61.1849 85.3768 60.4523C83.5979 59.5477 80.9921 61.5218 81.8383 64.6369C83.0605 69.1364 89.132 72.4271 94.5887 72.1082" stroke="white" stroke-width="4" stroke-linecap="round"/>
<path d="M73.8238 251.935C74.3367 249.933 74.0937 248.307 74.0379 246.693C73.9742 245.105 73.5708 243.525 73.5593 241.987C74.2411 241.707 74.4129 242.137 74.5301 242.414C75.7553 245.292 76.2788 248.331 76.3788 251.431C76.4002 251.966 76.303 252.521 76.1627 253.051C75.8283 254.343 74.7986 255.005 73.4648 254.68C72.6012 254.472 71.7991 253.989 70.9588 253.686C70.4015 253.487 69.8126 253.391 69.2139 253.235C68.6607 254.269 68.9293 255.189 68.8908 256.065C68.8278 257.333 68.9011 258.615 68.727 259.86C68.4429 261.831 67.317 262.733 65.3138 262.501C64.2567 262.373 63.1856 262.017 62.2306 261.538C61.1893 261.01 60.2775 260.208 59.3259 259.517C59.1788 259.41 59.0562 259.26 58.9676 259.109C58.7369 258.706 58.5639 258.226 58.9378 257.868C59.1621 257.651 59.6171 257.487 59.8993 257.556C61.0454 257.852 62.1518 258.259 63.2822 258.606C63.9588 258.819 64.6429 258.989 65.4646 259.225C65.5784 258.652 65.7468 258.232 65.7536 257.807C65.7742 256.897 65.6929 255.989 65.6795 255.08C65.6727 254.442 65.6489 253.806 65.7358 253.174C66.1603 250.325 67.9978 249.32 70.643 250.447C71.141 250.656 71.6071 250.951 72.0972 251.186C72.5787 251.412 73.0598 251.621 73.8159 251.96L73.8238 251.935Z" fill="white"/>
</g>
<defs>
<clipPath id="clip0_736_709">
<rect width="586" height="326" fill="white"/>
</clipPath>
</defs>
</svg>
