<svg width="586" height="405" viewBox="0 0 586 405" fill="none" xmlns="http://www.w3.org/2000/svg">
<g clip-path="url(#clip0_159_31295)">
<g opacity="0.3">
<path d="M527.494 371.29C525.424 369.295 523.232 367.413 520.843 365.731C520.236 365.288 519.198 365.542 518.746 366.194C518.316 366.891 518.483 367.759 519.159 368.226C519.698 368.646 520.285 369.043 520.824 369.462C521.093 369.672 521.363 369.882 521.632 370.091C521.743 370.207 521.901 370.301 522.012 370.417C521.833 370.277 522.192 370.557 522.012 370.417C522.054 370.509 522.192 370.557 522.213 370.602C523.243 371.463 524.247 372.391 525.25 373.32C525.783 373.853 526.757 373.961 527.367 373.404C527.93 372.868 528.07 371.914 527.515 371.336L527.494 371.29Z" fill="white"/>
<path d="M524.535 375.535C522.519 372.905 520.185 370.587 517.607 368.493C517.338 368.283 516.803 368.251 516.475 368.29C516.12 368.398 515.712 368.64 515.558 368.933C515.101 369.699 515.321 370.431 515.971 370.966C516.172 371.152 515.929 370.874 515.992 371.012C516.034 371.104 516.172 371.152 516.261 371.222C516.42 371.315 516.552 371.477 516.663 371.593C516.953 371.848 517.244 372.104 517.534 372.36C518.115 372.871 518.67 373.449 519.224 374.028C520.312 375.14 521.325 376.342 522.291 377.565C522.75 378.188 523.846 378.185 524.408 377.649C525.045 377.024 525.036 376.25 524.556 375.581L524.535 375.535Z" fill="white"/>
<path d="M520.533 379.65C518.165 376.125 515.336 372.98 512.018 370.28C511.437 369.769 510.325 370.113 509.921 370.743C509.464 371.508 509.684 372.24 510.334 372.775C510.176 372.681 510.376 372.867 510.445 372.891C510.535 372.961 510.625 373.031 510.736 373.147C510.915 373.286 511.116 373.472 511.317 373.658C511.697 373.983 512.008 374.285 512.389 374.61C513.102 375.283 513.767 375.978 514.432 376.672C515.05 377.389 515.667 378.105 516.285 378.822C516.591 379.237 516.876 379.606 517.182 380.021C517.224 380.113 517.266 380.205 517.356 380.275C517.272 380.091 517.398 380.366 517.419 380.412C517.524 380.642 517.746 380.873 517.899 381.081C518.31 381.725 519.178 382.105 519.899 381.663C520.545 381.311 521.035 380.364 520.555 379.696L520.533 379.65Z" fill="white"/>
<path d="M514.805 380.504C511.605 377.306 508.113 374.353 504.324 371.758C503.669 371.337 502.678 371.569 502.227 372.221C501.749 372.94 501.964 373.786 502.64 374.254C506.181 376.684 509.519 379.43 512.54 382.488C513.094 383.067 514.026 383.083 514.657 382.572C515.219 382.036 515.359 381.083 514.805 380.504Z" fill="white"/>
<path d="M505.645 381.429C503.006 378.195 499.932 375.273 496.63 372.733C496.023 372.29 494.937 372.566 494.533 373.195C494.076 373.961 494.296 374.693 494.946 375.228C495.754 375.857 496.383 376.346 497.144 376.997C497.904 377.648 498.617 378.321 499.351 379.039C500.798 380.431 502.123 381.934 503.401 383.459C503.907 384.059 504.955 384.078 505.518 383.543C506.107 382.939 506.193 382.121 505.666 381.475L505.645 381.429Z" fill="white"/>
<path d="M497.758 383.492C495.391 379.467 492.229 375.974 488.477 373.085C487.849 372.596 486.832 372.896 486.38 373.547C485.902 374.267 486.165 375.091 486.793 375.58C490.027 378.096 492.967 381.357 495.055 384.899C495.466 385.544 496.312 385.878 497.054 385.482C497.769 385.153 498.121 384.158 497.71 383.514L497.758 383.492Z" fill="white"/>
<path d="M490.667 382.636C487.652 379.465 484.489 376.472 481.129 373.681C480.5 373.192 479.669 373.017 479.012 373.597C478.476 374.065 478.283 375.154 478.864 375.665C482.223 378.456 485.434 381.427 488.401 384.62C488.956 385.199 489.887 385.216 490.519 384.704C491.129 384.147 491.173 383.237 490.667 382.636Z" fill="white"/>
<path d="M484.816 383.6C481.864 380.566 478.934 377.577 475.982 374.543C475.449 374.01 474.475 373.901 473.865 374.459C473.303 374.995 473.163 375.948 473.717 376.527C476.669 379.561 479.599 382.55 482.551 385.584C483.084 386.117 484.058 386.225 484.668 385.668C485.23 385.132 485.37 384.179 484.816 383.6Z" fill="white"/>
<path d="M475.057 386.744C472.483 383.148 469.452 379.816 466.077 376.866C465.496 376.354 464.618 376.202 463.96 376.782C463.377 377.272 463.231 378.338 463.812 378.85C467.187 381.8 470.149 385.108 472.792 388.728C473.251 389.351 474.373 389.28 474.909 388.812C475.567 388.232 475.516 387.367 475.057 386.744Z" fill="white"/>
<path d="M466.562 386.478C464.305 383.07 461.756 379.907 458.82 377.032C458.287 376.499 457.313 376.39 456.703 376.948C456.14 377.484 456.001 378.437 456.555 379.016C459.29 381.705 461.797 384.777 463.838 387.84C464.249 388.484 465.117 388.864 465.838 388.422C466.484 388.07 466.926 387.145 466.493 386.454L466.562 386.478Z" fill="white"/>
<path d="M459.285 386.096C456.667 382.909 453.805 379.944 450.673 377.271C450.092 376.76 449.214 376.607 448.556 377.187C448.041 377.701 447.806 378.698 448.408 379.255C451.54 381.928 454.402 384.893 457.02 388.08C457.526 388.681 458.574 388.7 459.137 388.164C459.726 387.56 459.812 386.743 459.285 386.096Z" fill="white"/>
<path d="M452.764 385.476C449.653 382.848 446.791 379.884 444.29 376.699C443.831 376.076 442.735 376.079 442.173 376.615C441.536 377.241 441.545 378.014 442.025 378.683C444.526 381.868 447.388 384.832 450.499 387.46C451.08 387.971 451.959 388.124 452.616 387.544C453.131 387.03 453.367 386.033 452.764 385.476Z" fill="white"/>
<path d="M443.719 387.405C441.509 383.975 438.743 380.967 435.462 378.473C434.854 378.03 433.769 378.306 433.365 378.936C432.908 379.701 433.128 380.433 433.778 380.968C433.958 381.108 434.137 381.248 434.317 381.387C434.407 381.457 434.496 381.527 434.586 381.597C434.607 381.643 434.856 381.807 434.676 381.667C435.035 381.946 435.416 382.272 435.727 382.573C436.419 383.2 437.063 383.849 437.729 384.544C438.325 385.214 438.943 385.931 439.491 386.623C439.623 386.785 439.776 386.993 439.929 387.2C439.971 387.292 440.035 387.43 440.124 387.5C440.409 387.869 440.061 387.362 440.167 387.591C440.473 388.006 440.71 388.398 440.968 388.835C441.379 389.479 442.247 389.859 442.968 389.417C443.614 389.065 444.056 388.14 443.624 387.449L443.719 387.405Z" fill="white"/>
<path d="M437.159 388.084C434.837 385.039 432.102 382.35 428.974 380.063C428.366 379.62 427.281 379.896 426.877 380.526C426.399 381.245 426.64 382.023 427.29 382.558C427.649 382.838 428.008 383.117 428.368 383.397C428.458 383.467 428.547 383.537 428.637 383.607C428.637 383.607 428.928 383.862 428.817 383.746C428.727 383.677 429.018 383.932 428.996 383.886C429.039 383.978 429.155 383.98 429.197 384.072C429.889 384.699 430.581 385.326 431.225 385.974C432.514 387.272 433.728 388.659 434.846 390.09C435.305 390.713 436.401 390.71 436.963 390.174C437.6 389.549 437.591 388.775 437.111 388.106L437.159 388.084Z" fill="white"/>
<path d="M428.788 386.704C426.328 384.111 423.799 381.494 421.339 378.901C420.805 378.368 419.832 378.259 419.222 378.817C418.659 379.353 418.519 380.306 419.074 380.885C421.534 383.478 424.063 386.095 426.523 388.688C427.057 389.221 428.03 389.33 428.64 388.772C429.203 388.236 429.343 387.283 428.788 386.704Z" fill="white"/>
<path d="M422.185 387.287C419.938 384.152 417.542 381.196 414.86 378.372C414.327 377.839 413.353 377.73 412.743 378.288C412.133 378.846 412.04 379.777 412.595 380.356C415.208 383.156 417.673 386.136 419.92 389.271C420.379 389.894 421.501 389.823 422.037 389.355C422.674 388.73 422.665 387.956 422.185 387.287Z" fill="white"/>
<path d="M416.67 387.098C414.808 384.675 412.898 382.274 411.035 379.851C410.576 379.229 409.48 379.232 408.918 379.768C408.281 380.393 408.29 381.167 408.77 381.835L414.405 389.082C414.864 389.705 415.96 389.702 416.522 389.166C417.159 388.54 417.15 387.767 416.67 387.098Z" fill="white"/>
<path d="M411.487 387.754C410.558 386.736 409.656 385.65 408.869 384.566C408.806 384.429 408.695 384.313 408.585 384.197C408.542 384.105 408.521 384.06 408.479 383.968C408.374 383.738 408.416 383.83 408.479 383.968C408.284 383.668 408.11 383.415 407.915 383.116C407.525 382.517 407.156 381.964 406.765 381.366C406.354 380.721 405.487 380.341 404.766 380.783C404.071 381.158 403.678 382.061 404.11 382.751C405.665 385.259 407.39 387.634 409.36 389.786C409.845 390.341 410.914 390.406 411.477 389.87C412.087 389.312 412.131 388.403 411.625 387.802L411.487 387.754Z" fill="white"/>
</g>
<path d="M507.907 228.726C505.107 230.224 502.041 231.092 498.927 231.746C491.565 233.259 484.196 233.318 476.867 231.674C475.571 231.394 474.327 230.957 473.084 230.519C472.33 230.233 471.685 229.691 471.627 228.86C471.553 227.813 472.31 227.234 473.212 226.891C474.082 226.551 474.953 226.242 475.83 225.994C481.559 224.411 487.278 222.675 493.057 221.337C497.045 220.404 501.128 219.928 505.172 219.332C506.91 219.084 508.587 219.336 510.257 219.929C512.977 220.942 513.802 223.606 511.628 226.266C510.714 226.888 509.352 227.943 507.843 228.731L507.907 228.726ZM503.018 223.197C499.355 223.766 495.734 224.456 492.118 225.239C487.343 226.321 482.608 227.523 477.873 228.725C477.528 228.812 477.225 229.05 476.885 229.198C477.124 229.428 477.241 229.729 477.434 229.746C486.359 230.938 495.099 230.409 503.583 227.147C505.168 226.539 506.638 225.661 508.11 224.814C508.142 224.812 508.172 224.779 508.201 224.746C508.836 224.237 508.513 223.27 507.735 223.109C506.117 222.791 504.533 222.965 503.018 223.197Z" fill="white"/>
<path d="M459.515 242.402C462.664 243.767 465.841 245.067 468.993 246.463C474.831 249.038 480.29 252.17 484.904 256.546C486.452 257.993 487.787 259.612 488.41 261.624C489.119 263.941 487.836 265.808 485.414 266.105C484.648 266.191 483.81 266.157 483.029 266.025C481.988 265.85 480.943 265.613 479.951 265.216C469.509 261.162 462.234 253.673 456.425 244.647C455.592 243.305 456.888 241.623 458.458 242.01C458.753 242.083 459.052 242.217 459.517 242.433L459.515 242.402ZM461.281 247.884C466.203 253.889 471.956 258.932 479.339 261.989C480.664 262.549 482.1 262.852 483.533 263.123C483.565 263.121 483.597 263.119 483.629 263.117C484.339 263.16 484.833 262.408 484.499 261.777C483.635 260.001 482.764 259.035 480.928 257.608C477.598 255.041 474.064 252.769 470.24 250.954C467.412 249.597 464.498 248.372 461.278 246.919C461.266 247.667 461.211 247.796 461.247 247.855L461.281 247.884Z" fill="white"/>
<path d="M464.298 207.362C466.594 204.332 468.823 201.275 471.255 198.36C473.923 195.147 476.726 192.018 479.497 188.892C480.986 187.197 482.857 185.91 484.951 185.045C488.168 183.694 490.984 185.799 490.545 189.165C490.484 189.668 490.361 190.207 490.103 190.661C488.958 192.675 487.952 194.834 486.472 196.653C483.161 200.785 478.948 203.983 474.415 206.736C471.825 208.323 469.09 209.67 466.355 211.018C466.044 211.165 465.733 211.312 465.419 211.427C463.758 212.044 462.282 210.248 463.242 208.809C463.561 208.319 463.949 207.886 464.3 207.394L464.298 207.362ZM469.801 206.971C474.957 203.924 479.653 200.286 483.483 195.744C484.671 194.351 485.654 192.785 486.542 191.226C486.597 191.098 486.687 190.998 486.742 190.869C487.482 189.508 485.685 188.171 484.504 189.221C482.538 190.981 480.469 192.656 478.741 194.617C475.468 198.372 472.399 202.298 469.262 206.168C469.205 206.265 469.147 206.363 469.09 206.46C468.956 206.844 469.4 207.217 469.771 207.004L469.801 206.971Z" fill="white"/>
<path d="M71.2915 163.501C71.7933 160.213 71.1442 157.647 70.7971 155.072C70.4415 152.539 69.5429 150.073 69.2789 147.611C70.3261 147.054 70.6699 147.714 70.902 148.14C73.3239 152.553 74.6479 157.337 75.3032 162.286C75.4229 163.14 75.3559 164.044 75.216 164.916C74.8866 167.038 73.3433 168.263 71.1551 167.956C69.7387 167.759 68.377 167.115 66.9827 166.764C66.0584 166.534 65.0999 166.474 64.116 166.32C63.3951 168.064 63.9722 169.494 64.0507 170.904C64.1523 172.945 64.4745 174.987 64.3946 177.009C64.2542 180.21 62.5952 181.835 59.3498 181.783C57.6363 181.748 55.8638 181.347 54.2578 180.733C52.5059 180.055 50.9173 178.915 49.2827 177.96C49.0301 177.812 48.8098 177.592 48.6437 177.364C48.21 176.756 47.8561 176.015 48.3979 175.382C48.7222 174.997 49.4249 174.662 49.888 174.729C51.7708 175.019 53.6078 175.494 55.4736 175.869C56.5914 176.102 57.7143 176.266 59.0679 176.512C59.1587 175.577 59.3613 174.877 59.3042 174.195C59.1919 172.734 58.9166 171.293 58.75 169.839C58.6373 168.819 58.4975 167.803 58.5357 166.778C58.7606 162.147 61.5429 160.244 65.9594 161.626C66.7905 161.881 67.584 162.279 68.4066 162.577C69.2139 162.863 70.0178 163.121 71.283 163.543L71.2915 163.501Z" fill="white"/>
<path d="M456.559 94.2604C459.049 94.1853 460.634 95.617 460.612 97.9172C460.581 101.818 455.617 106.657 451.456 106.814C448.617 106.928 446.517 104.35 447.178 101.571C447.951 98.1956 452.884 94.3697 456.559 94.2421L456.559 94.2604ZM456.946 96.5914C453.831 96.2442 449.85 99.8844 449.889 102.641C449.895 103.376 450.834 104.221 451.573 104.177C454.392 104.009 457.811 100.696 457.792 97.9754C457.788 97.4239 457.238 96.6292 456.946 96.5914Z" fill="white"/>
<path d="M463.511 122.067C463.064 124.855 460.26 127.305 457.439 127.363C455.397 127.412 454.317 126.04 454.867 124.111C455.627 121.433 457.346 119.637 460.24 119.04C462.513 118.573 463.865 119.873 463.511 122.048L463.511 122.067ZM460.533 121.84C459.419 121.151 458.586 121.698 457.812 122.352C457.077 122.967 457.197 123.438 458.294 124.477C459.497 123.945 460.465 123.224 460.533 121.84Z" fill="white"/>
<path d="M473.599 113.799C474.029 111.287 476.544 109.277 479.191 109.34C480.534 109.37 481.553 110.451 481.446 111.746C481.211 114.265 478.563 116.744 475.898 116.94C474.323 117.053 473.281 115.642 473.599 113.799ZM478.411 111.854C477.085 111.51 476.331 112.163 475.675 112.939C475.54 113.112 475.504 113.483 475.622 113.66C475.74 113.856 476.111 114.11 476.306 114.043C477.432 113.699 478.401 113.181 478.43 111.835L478.411 111.854Z" fill="white"/>
<path d="M316.006 48.0298C317.883 47.9382 319.532 46.2672 319.326 44.6419C319.074 42.5587 317.265 40.9334 315.297 41.0021C313.58 41.0708 311.977 42.7876 312 44.5045C312.046 46.519 313.877 48.1443 316.006 48.0298Z" fill="white"/>
<path d="M94.0063 187.03C95.8834 186.938 97.5316 185.267 97.3256 183.642C97.0738 181.559 95.2653 179.933 93.2966 180.002C91.5798 180.071 89.9774 181.788 90.0003 183.505C90.046 185.519 91.8774 187.144 94.0063 187.03Z" fill="white"/>
<path d="M144.006 117.03C145.883 116.938 147.532 115.267 147.326 113.642C147.074 111.559 145.265 109.933 143.297 110.002C141.58 110.071 139.977 111.788 140 113.505C140.046 115.519 141.877 117.144 144.006 117.03Z" fill="white"/>
<path d="M441.574 61.0188C437.184 63.8891 436.565 69.9273 440.267 73.6561C444.657 70.7858 445.276 64.7476 441.574 61.0188Z" fill="#97C124"/>
<path d="M417.754 76.7667C412.574 77.9644 407.328 74.8302 406.041 69.7786C404.76 64.7157 407.924 59.6516 413.111 58.4426C418.291 57.2449 422.977 59.2445 423.159 65.82C425.947 71.8588 422.935 75.569 417.754 76.7667Z" fill="#E7194A"/>
<path d="M432.517 91.9704C429.668 96.5408 423.537 97.9552 418.824 95.1444C414.1 92.3271 412.584 86.3471 415.433 81.7767C418.281 77.2063 423.163 75.3558 428.215 80.0742C434.748 82.54 435.359 87.4113 432.517 91.9704Z" fill="#E7194A"/>
<path d="M419.312 65.8509C419.026 64.7095 419.176 63.4604 419.852 62.3942C420.008 62.124 420.368 62.0466 420.649 62.2091C420.92 62.3651 421.015 62.7203 420.847 62.984C419.836 64.6067 420.378 66.7362 422.054 67.7338C422.335 67.8963 422.419 68.245 422.252 68.5087C422.096 68.779 421.736 68.8564 421.454 68.6939C420.346 68.039 419.61 66.9988 419.324 65.8574" fill="#262626"/>
<path d="M420.995 65.952C420.954 65.7631 420.966 65.56 421.082 65.3863C425.394 58.4631 434.733 56.3035 441.874 60.5765C442.245 60.791 442.351 61.2575 442.132 61.6113C441.913 61.9651 441.44 62.0824 441.075 61.8566C434.652 58.0286 426.271 59.9603 422.397 66.1759C422.178 66.5297 421.705 66.6469 421.34 66.4212C421.16 66.3171 421.036 66.1408 420.995 65.952Z" fill="#262626"/>
<path d="M423.369 79.7826C423.288 79.4807 423.481 79.1719 423.788 79.1088C424.101 79.0344 424.41 79.2277 424.497 79.5183C424.963 81.3636 426.892 82.522 428.782 82.0821C429.095 82.0077 429.404 82.201 429.491 82.4917C429.572 82.7936 429.379 83.1024 429.066 83.1768C426.549 83.7655 423.997 82.2318 423.376 79.7714" fill="#262626"/>
<path d="M425.715 80.8677C423.497 72.1254 430.523 62.9712 441.386 60.4603C441.799 60.3686 442.216 60.6091 442.325 61.0176C442.423 61.4196 442.172 61.8297 441.758 61.9214C431.729 64.2376 425.217 72.5782 427.228 80.51C427.326 80.912 427.074 81.3221 426.661 81.4138C426.248 81.5054 425.831 81.2649 425.722 80.8564" fill="#262626"/>
<path d="M161.178 86.0292C161.293 86.8651 161.352 87.653 161.36 88.4047C161.361 89.7412 161.208 90.9694 160.915 92.0975C160.915 92.0975 160.923 92.1214 160.911 92.1253C160.887 92.2127 160.863 92.3 160.846 92.3715C160.846 92.3715 160.854 92.3954 160.83 92.4033C160.664 92.9871 160.466 93.5548 160.233 94.0945C158.658 97.7734 151.772 103.298 147.086 104.952C147.05 104.963 147.002 104.979 146.966 104.991C146.966 104.991 146.954 104.995 146.942 104.999C146.309 105.206 145.639 105.425 144.946 105.612C144.217 105.812 143.469 105.991 142.688 106.153C142.477 106.196 142.254 106.243 142.039 106.273C140.937 106.462 139.802 106.596 138.633 106.621C135.673 106.717 132.581 106.208 129.678 104.617C127.453 103.401 125.618 101.434 124.202 99.2112C124.099 99.0595 124.009 98.9039 123.918 98.7483C123.835 98.6166 123.764 98.481 123.685 98.3612C123.539 98.1178 123.401 97.8586 123.268 97.6113C123.051 97.1925 122.85 96.7818 122.662 96.3671C122.658 96.3552 122.65 96.3313 122.646 96.3193C122.268 95.5696 121.966 94.7685 121.715 94.0035C121.054 91.9835 120.77 90.0649 120.865 88.6176C120.982 86.7925 121.216 85.2863 121.585 83.9081C121.744 83.3003 121.938 82.7207 122.148 82.149C122.543 81.0931 123.037 80.0973 123.62 79.0464C123.676 78.9353 123.744 78.8203 123.804 78.7212C123.989 78.396 124.225 78.0671 124.486 77.7304C124.798 77.3502 125.15 76.9702 125.518 76.5983C126.306 75.8109 127.2 75.0678 127.991 74.4515C128.287 74.2224 128.562 74.013 128.83 73.8195C129.021 73.6773 129.205 73.551 129.365 73.4325C129.944 73.018 130.327 72.7734 130.327 72.7734C130.327 72.7734 130.379 72.7299 130.475 72.6588C130.57 72.5877 130.71 72.489 130.886 72.3786C130.942 72.347 130.993 72.3035 131.049 72.272C131.181 72.1892 131.345 72.0827 131.512 71.9881C131.536 71.9802 131.56 71.9724 131.58 71.9526C132.059 71.6767 132.677 71.3419 133.411 70.9957C133.666 70.8857 133.917 70.7637 134.2 70.6578C134.551 70.5165 134.937 70.3634 135.328 70.2222C135.495 70.1674 135.663 70.1126 135.83 70.0578C135.926 70.0265 136.021 69.9952 136.105 69.9678C136.81 69.7368 137.567 69.5419 138.387 69.3792C138.435 69.3635 138.483 69.3479 138.522 69.3481C140.386 68.976 142.531 68.7765 144.912 68.9362C145.56 68.9754 146.196 69.0583 146.82 69.1849C146.876 69.1931 146.947 69.2094 147.003 69.2176C147.059 69.2259 147.13 69.2422 147.186 69.2504C147.23 69.2626 147.269 69.2628 147.313 69.2749C147.357 69.2871 147.4 69.2993 147.44 69.2995C147.484 69.3116 147.539 69.3199 147.583 69.332C147.611 69.3362 147.639 69.3403 147.671 69.3564C147.698 69.3605 147.73 69.3766 147.77 69.3768C147.814 69.3889 147.857 69.4011 147.901 69.4133C147.901 69.4133 147.913 69.4094 147.929 69.4174C147.972 69.4296 148.016 69.4417 148.06 69.4539C148.103 69.466 148.163 69.4862 148.207 69.4984C148.207 69.4984 148.235 69.5025 148.25 69.5106C148.262 69.5066 148.294 69.5227 148.31 69.5308C148.354 69.5429 148.385 69.559 148.429 69.5712C148.457 69.5753 148.473 69.5833 148.505 69.5994C148.636 69.6359 148.771 69.6843 148.906 69.7328C149.533 69.9508 150.148 70.2126 150.743 70.4942C151.088 70.659 151.413 70.8437 151.743 71.0403C151.774 71.0564 151.806 71.0725 151.838 71.0886C152.135 71.2691 152.421 71.4536 152.706 71.638C152.809 71.7102 152.912 71.7823 153.015 71.8545C153.241 72.0187 153.467 72.183 153.681 72.3512C154.2 72.7636 154.702 73.2077 155.169 73.6636C156.91 75.383 158.296 77.4307 159.275 79.5718C159.432 79.9306 159.585 80.2774 159.727 80.6282C159.738 80.664 159.75 80.6999 159.762 80.7358C160.508 82.6489 160.964 84.4053 161.19 86.0253L161.178 86.0292Z" fill="#FFBB29"/>
<path d="M132.469 74.5863C132.469 74.5863 130.718 74.8157 130.804 75.0787C130.89 75.3417 132.144 75.209 132.026 75.5385C131.921 75.8641 130.452 76.8747 130.443 77.0894C130.446 77.3002 132.15 76.279 132.607 76.3411C133.064 76.4031 132.606 78.0355 132.824 78.0963C133.428 78.2824 133.26 76.1138 133.937 75.9583C134.614 75.8027 135.332 77.0236 135.539 76.8895C135.831 76.6881 134.602 75.1583 134.602 75.1583C134.602 75.1583 136.293 75.0678 136.362 74.8334C136.43 74.5991 134.606 74.2833 134.606 74.2833C134.606 74.2833 135.4 73.1101 135.031 72.8735C134.663 72.6369 133.776 74.1318 133.57 73.9875C133.376 73.8393 132.127 73.0571 132.029 73.4464C131.928 73.8237 132.29 74.5257 132.461 74.6021L132.469 74.5863Z" fill="#8CC747"/>
<path d="M449.007 232.355C452.748 224.358 442.48 217.461 438.267 216.049C435.445 215.097 422.159 209.237 418.423 217.248C414.683 225.245 415.059 237.395 424.71 242.565C435.14 248.156 445.271 240.366 449.011 232.369L449.007 232.355Z" fill="#975B2E"/>
<path d="M418.655 216.833C421.702 211.067 430.926 209.952 439.258 214.342C447.591 218.732 451.875 226.964 448.828 232.729C445.781 238.495 436.557 239.61 428.224 235.22C419.892 230.83 415.608 222.598 418.655 216.833Z" fill="#7EB73C"/>
<path d="M428.349 221.077C429.261 219.293 432.691 219.218 436.01 220.91C439.329 222.601 441.281 225.418 440.369 227.202C439.457 228.986 436.027 229.061 432.708 227.369C429.389 225.678 427.437 222.861 428.349 221.077Z" fill="#B9D988"/>
<path d="M431.305 232.213C431.101 232.655 431.345 233.219 431.848 233.463C432.352 233.708 432.931 233.552 433.135 233.11C433.339 232.668 433.406 231.455 432.903 231.21C432.399 230.966 431.524 231.766 431.305 232.213Z" fill="black"/>
<path d="M425.428 228.297C424.921 228.429 424.692 228.942 424.899 229.439C425.105 229.936 425.684 230.219 426.187 230.072C426.695 229.939 427.659 229.22 427.457 228.737C427.25 228.24 425.936 228.164 425.428 228.297Z" fill="black"/>
<path d="M443.586 229.932C444.089 230.176 444.668 230.02 444.872 229.578C445.076 229.136 444.833 228.572 444.329 228.327C443.826 228.083 442.518 227.879 442.314 228.321C442.11 228.763 443.082 229.687 443.59 229.946L443.586 229.932Z" fill="black"/>
<path d="M440.063 235.325C440.27 235.823 440.848 236.106 441.352 235.959C441.86 235.826 442.089 235.313 441.882 234.815C441.675 234.318 440.788 233.319 440.284 233.466C439.776 233.599 439.841 234.832 440.058 235.311L440.063 235.325Z" fill="black"/>
<path d="M437.173 217.96C437.377 217.518 437.133 216.954 436.63 216.709C436.127 216.465 435.547 216.621 435.343 217.063C435.139 217.505 435.072 218.718 435.576 218.962C436.079 219.207 436.955 218.407 437.173 217.96Z" fill="black"/>
<path d="M442.513 223.477C443.021 223.344 443.249 222.832 443.042 222.335C442.836 221.838 442.257 221.555 441.754 221.702C441.246 221.834 440.282 222.554 440.485 223.037C440.691 223.534 442.005 223.61 442.513 223.477Z" fill="black"/>
<path d="M424.048 222.35C423.545 222.105 422.966 222.261 422.762 222.703C422.558 223.145 422.801 223.709 423.305 223.954C423.808 224.199 425.116 224.402 425.32 223.96C425.524 223.518 424.552 222.595 424.044 222.336L424.048 222.35Z" fill="black"/>
<path d="M427.584 217.142C427.377 216.645 426.798 216.361 426.295 216.509C425.786 216.641 425.558 217.155 425.765 217.652C425.972 218.15 426.859 219.148 427.362 219.001C427.871 218.868 427.805 217.635 427.588 217.156L427.584 217.142Z" fill="black"/>
</g>
<defs>
<clipPath id="clip0_159_31295">
<rect width="586" height="405" fill="white"/>
</clipPath>
</defs>
</svg>
