<svg width="274" height="320" viewBox="0 0 274 320" fill="none" xmlns="http://www.w3.org/2000/svg">
<g clip-path="url(#clip0_745_1820)">
<path d="M41.9785 309.97C80.3255 319.948 169.772 327.477 240.47 307.205C253.052 303.597 260.411 291.726 263.217 282.42C266.024 273.114 289.689 98.203 256.449 19.2963C251.441 11.381 239.296 5.1395 224.949 3.85593C155.142 -2.37851 90.4732 -0.476593 48.2393 5.45221C33.6048 7.49982 22.6224 13.9176 17.7703 22.1843C-5.89004 62.4942 -4.951 251.722 14.8225 291.726C18.8659 299.886 28.6222 306.501 41.9785 309.985V309.97Z" fill="#FFCE00"/>
<g opacity="0.3">
<path d="M246.6 290.126C244.761 288.603 242.829 287.181 240.746 285.938C240.215 285.609 239.371 285.884 239.038 286.452C238.725 287.056 238.918 287.764 239.507 288.109C239.979 288.423 240.49 288.715 240.962 289.029C241.199 289.185 241.435 289.342 241.671 289.499C241.77 289.588 241.907 289.656 242.006 289.745C241.849 289.64 242.164 289.849 242.006 289.745C242.047 289.818 242.164 289.849 242.184 289.886C243.091 290.534 243.979 291.24 244.868 291.947C245.343 292.355 246.156 292.384 246.627 291.884C247.059 291.405 247.115 290.607 246.62 290.162L246.6 290.126Z" fill="white"/>
<path d="M244.414 293.826C242.581 291.774 240.504 290 238.238 288.427C238.002 288.27 237.557 288.276 237.288 288.33C237.001 288.441 236.678 288.667 236.568 288.92C236.238 289.582 236.466 290.174 237.037 290.577C237.215 290.718 236.997 290.503 237.058 290.613C237.098 290.687 237.215 290.718 237.294 290.77C237.431 290.838 237.55 290.964 237.65 291.053C237.906 291.246 238.163 291.44 238.419 291.633C238.932 292.02 239.427 292.465 239.922 292.91C240.893 293.763 241.807 294.694 242.683 295.647C243.102 296.134 244.009 296.063 244.441 295.584C244.929 295.027 244.874 294.386 244.435 293.863L244.414 293.826Z" fill="white"/>
<path d="M241.358 297.483C239.177 294.712 236.638 292.284 233.722 290.256C233.209 289.869 232.309 290.223 232.014 290.77C231.683 291.432 231.912 292.024 232.483 292.427C232.346 292.359 232.524 292.5 232.582 292.516C232.661 292.568 232.74 292.62 232.839 292.709C232.996 292.814 233.174 292.955 233.352 293.096C233.687 293.342 233.964 293.572 234.299 293.818C234.931 294.331 235.526 294.864 236.12 295.398C236.676 295.953 237.232 296.508 237.788 297.062C238.067 297.387 238.326 297.675 238.606 298C238.646 298.073 238.687 298.146 238.766 298.199C238.684 298.052 238.806 298.272 238.827 298.309C238.928 298.492 239.126 298.67 239.266 298.832C239.647 299.341 240.388 299.601 240.958 299.19C241.471 298.858 241.817 298.043 241.378 297.52L241.358 297.483Z" fill="white"/>
<path d="M236.668 298.547C233.818 296.099 230.743 293.871 227.443 291.96C226.874 291.652 226.069 291.906 225.735 292.474C225.384 293.099 225.615 293.786 226.204 294.131C229.288 295.923 232.224 297.988 234.916 300.332C235.411 300.776 236.183 300.732 236.674 300.269C237.106 299.79 237.163 298.992 236.668 298.547Z" fill="white"/>
<path d="M229.14 299.885C226.753 297.372 224.026 295.144 221.133 293.246C220.602 292.917 219.72 293.214 219.425 293.76C219.094 294.423 219.323 295.015 219.894 295.418C220.603 295.888 221.154 296.254 221.824 296.745C222.495 297.237 223.127 297.75 223.78 298.299C225.065 299.361 226.256 300.523 227.408 301.706C227.866 302.172 228.735 302.122 229.167 301.643C229.617 301.106 229.638 300.424 229.16 299.921L229.14 299.885Z" fill="white"/>
<path d="M222.738 302.086C220.527 298.901 217.69 296.205 214.404 294.047C213.853 293.681 213.029 293.993 212.696 294.561C212.345 295.186 212.614 295.852 213.165 296.218C215.999 298.1 218.638 300.617 220.587 303.42C220.968 303.928 221.69 304.151 222.279 303.777C222.851 303.461 223.081 302.615 222.7 302.107L222.738 302.086Z" fill="white"/>
<path d="M216.812 301.819C214.118 299.381 211.312 297.1 208.356 294.999C207.804 294.633 207.106 294.54 206.597 295.061C206.183 295.482 206.091 296.396 206.604 296.783C209.56 298.885 212.404 301.144 215.061 303.604C215.556 304.048 216.328 304.004 216.819 303.541C217.289 303.041 217.269 302.285 216.812 301.819Z" fill="white"/>
<path d="M212.028 302.982C209.395 300.654 206.782 298.362 204.148 296.034C203.673 295.626 202.86 295.597 202.39 296.097C201.958 296.576 201.901 297.373 202.396 297.818C205.03 300.147 207.643 302.438 210.276 304.767C210.751 305.175 211.564 305.204 212.035 304.704C212.467 304.225 212.523 303.427 212.028 302.982Z" fill="white"/>
<path d="M204.143 306.195C201.787 303.378 199.07 300.808 196.091 298.575C195.578 298.188 194.841 298.117 194.332 298.638C193.88 299.08 193.826 299.973 194.339 300.36C197.318 302.593 199.976 305.147 202.391 307.979C202.81 308.466 203.735 308.338 204.149 307.917C204.658 307.396 204.562 306.682 204.143 306.195Z" fill="white"/>
<path d="M197.092 306.505C195.01 303.823 192.702 301.363 190.091 299.166C189.617 298.758 188.803 298.728 188.333 299.228C187.901 299.707 187.844 300.505 188.34 300.95C190.772 303.006 193.04 305.393 194.921 307.802C195.302 308.31 196.044 308.571 196.613 308.16C197.127 307.828 197.435 307.034 197.034 306.489L197.092 306.505Z" fill="white"/>
<path d="M191.042 306.643C188.675 304.166 186.121 301.89 183.36 299.872C182.847 299.485 182.11 299.414 181.602 299.935C181.208 300.392 181.075 301.233 181.608 301.656C184.369 303.675 186.924 305.951 189.29 308.427C189.747 308.893 190.616 308.843 191.049 308.364C191.499 307.827 191.519 307.145 191.042 306.643Z" fill="white"/>
<path d="M185.604 306.536C182.863 304.555 180.309 302.279 178.039 299.797C177.62 299.31 176.713 299.381 176.28 299.86C175.792 300.417 175.847 301.058 176.287 301.581C178.557 304.063 181.111 306.339 183.852 308.32C184.365 308.707 185.102 308.779 185.61 308.258C186.004 307.8 186.137 306.96 185.604 306.536Z" fill="white"/>
<path d="M178.234 308.698C176.191 305.995 173.712 303.677 170.84 301.817C170.309 301.487 169.427 301.784 169.132 302.33C168.801 302.993 169.029 303.585 169.601 303.988C169.758 304.092 169.916 304.197 170.073 304.301C170.152 304.354 170.231 304.406 170.309 304.458C170.33 304.495 170.545 304.615 170.388 304.51C170.703 304.719 171.038 304.965 171.315 305.195C171.927 305.671 172.501 306.168 173.095 306.702C173.631 307.22 174.187 307.775 174.685 308.314C174.804 308.44 174.944 308.602 175.083 308.765C175.124 308.838 175.185 308.948 175.264 309C175.523 309.288 175.203 308.89 175.304 309.074C175.584 309.398 175.804 309.707 176.046 310.053C176.426 310.561 177.168 310.821 177.738 310.41C178.251 310.078 178.559 309.285 178.158 308.74L178.234 308.698Z" fill="white"/>
<path d="M172.845 309.67C170.733 307.293 168.3 305.237 165.567 303.538C165.036 303.209 164.154 303.506 163.859 304.052C163.508 304.678 163.756 305.307 164.328 305.71C164.643 305.919 164.958 306.128 165.273 306.337C165.351 306.389 165.43 306.441 165.509 306.494C165.509 306.494 165.765 306.687 165.666 306.598C165.588 306.546 165.844 306.739 165.824 306.703C165.865 306.776 165.961 306.77 166.002 306.844C166.614 307.32 167.226 307.796 167.8 308.293C168.948 309.287 170.039 310.36 171.055 311.475C171.474 311.962 172.381 311.891 172.813 311.412C173.302 310.854 173.246 310.214 172.807 309.691L172.845 309.67Z" fill="white"/>
<path d="M165.827 309.049C163.628 307.055 161.37 305.046 159.171 303.053C158.696 302.644 157.883 302.615 157.413 303.115C156.981 303.594 156.924 304.392 157.419 304.837C159.618 306.83 161.876 308.84 164.075 310.833C164.55 311.241 165.363 311.271 165.834 310.771C166.266 310.292 166.322 309.494 165.827 309.049Z" fill="white"/>
<path d="M160.395 309.944C158.339 307.488 156.17 305.19 153.773 303.019C153.298 302.61 152.485 302.581 152.015 303.081C151.544 303.581 151.526 304.358 152.021 304.803C154.36 306.959 156.587 309.272 158.643 311.728C159.062 312.215 159.987 312.087 160.402 311.666C160.89 311.108 160.835 310.468 160.395 309.944Z" fill="white"/>
<path d="M155.817 310.132C154.124 308.242 152.392 306.373 150.698 304.483C150.279 303.996 149.372 304.067 148.94 304.545C148.452 305.103 148.507 305.743 148.946 306.267L154.065 311.916C154.484 312.403 155.391 312.332 155.824 311.853C156.312 311.296 156.256 310.656 155.817 310.132Z" fill="white"/>
<path d="M151.566 310.998C150.733 310.213 149.918 309.371 149.2 308.522C149.139 308.412 149.04 308.323 148.941 308.234C148.9 308.161 148.88 308.124 148.839 308.051C148.738 307.868 148.778 307.941 148.839 308.051C148.659 307.815 148.499 307.616 148.319 307.381C147.958 306.909 147.618 306.474 147.258 306.003C146.877 305.495 146.135 305.235 145.566 305.646C145.014 305.999 144.744 306.771 145.145 307.316C146.59 309.296 148.167 311.155 149.931 312.814C150.368 313.243 151.257 313.23 151.69 312.751C152.16 312.251 152.14 311.495 151.683 311.03L151.566 310.998Z" fill="white"/>
</g>
<path d="M57.1553 83.6049C57.2524 84.3109 57.3026 84.9763 57.3094 85.6112C57.3102 86.7399 57.1804 87.7772 56.9335 88.7299C56.9335 88.7299 56.9402 88.7501 56.9301 88.7534C56.9095 88.8272 56.889 88.901 56.8752 88.9614C56.8752 88.9614 56.8818 88.9816 56.8616 88.9882C56.7213 89.4812 56.5542 89.9607 56.357 90.4165C55.0272 93.5235 49.2115 98.1891 45.2537 99.5859C45.2234 99.5958 45.183 99.609 45.1528 99.619C45.1528 99.619 45.1427 99.6223 45.1326 99.6256C44.5975 99.8008 44.0322 99.9859 43.4469 100.144C42.8313 100.312 42.199 100.463 41.5398 100.601C41.3616 100.637 41.1733 100.676 40.9917 100.702C40.0604 100.862 39.1025 100.975 38.1147 100.996C35.6151 101.077 33.0039 100.647 30.552 99.3038C28.6729 98.276 27.123 96.6152 25.9269 94.7378C25.8402 94.6097 25.7636 94.4783 25.6871 94.3469C25.6171 94.2357 25.5573 94.1212 25.4906 94.02C25.3674 93.8145 25.251 93.5955 25.1379 93.3866C24.955 93.033 24.7855 92.6861 24.6261 92.3359C24.6228 92.3258 24.6161 92.3056 24.6128 92.2955C24.2937 91.6623 24.0386 90.9858 23.827 90.3397C23.2682 88.6336 23.0282 87.0133 23.1085 85.7909C23.2073 84.2496 23.4055 82.9775 23.7173 81.8135C23.851 81.3002 24.0148 80.8107 24.192 80.3279C24.5259 79.4361 24.9435 78.5951 25.4352 77.7075C25.4827 77.6137 25.5404 77.5166 25.5912 77.4329C25.7472 77.1582 25.9468 76.8805 26.1666 76.5961C26.4303 76.275 26.7276 75.9541 27.0383 75.6399C27.7036 74.975 28.4593 74.3474 29.1272 73.8269C29.3768 73.6334 29.6095 73.4565 29.8354 73.2931C29.9973 73.1731 30.1524 73.0664 30.2873 72.9663C30.7762 72.6162 31.0998 72.4096 31.0998 72.4096C31.0998 72.4096 31.1436 72.3729 31.2246 72.3128C31.3055 72.2528 31.4235 72.1694 31.5718 72.0762C31.619 72.0495 31.6628 72.0128 31.71 71.9862C31.8212 71.9162 31.9594 71.8262 32.1009 71.7464C32.1211 71.7398 32.1413 71.7331 32.1582 71.7164C32.5625 71.4834 33.0847 71.2006 33.7043 70.9083C33.9198 70.8154 34.132 70.7123 34.3709 70.6229C34.6672 70.5035 34.9937 70.3742 35.3235 70.255C35.4649 70.2087 35.6062 70.1625 35.7475 70.1162C35.8283 70.0897 35.909 70.0633 35.9797 70.0401C36.5753 69.8451 37.2144 69.6805 37.9071 69.543C37.9475 69.5298 37.9879 69.5166 38.0215 69.5167C39.5952 69.2025 41.4067 69.034 43.4182 69.1689C43.9655 69.202 44.5026 69.272 45.0295 69.3789C45.0765 69.3859 45.1369 69.3996 45.1838 69.4066C45.2308 69.4135 45.2912 69.4273 45.3382 69.4343C45.3751 69.4445 45.4087 69.4447 45.4456 69.455C45.4825 69.4652 45.5194 69.4755 45.553 69.4757C45.5899 69.486 45.6369 69.4929 45.6738 69.5032C45.6973 69.5067 45.7208 69.5102 45.7476 69.5237C45.7711 69.5272 45.7979 69.5408 45.8315 69.541C45.8684 69.5513 45.9053 69.5615 45.9422 69.5718C45.9422 69.5718 45.9522 69.5685 45.9656 69.5753C46.0025 69.5856 46.0394 69.5958 46.0763 69.6061C46.1132 69.6164 46.1635 69.6334 46.2004 69.6437C46.2004 69.6437 46.2239 69.6472 46.2373 69.654C46.2474 69.6507 46.2742 69.6642 46.2876 69.671C46.3245 69.6813 46.3513 69.6949 46.3882 69.7051C46.4117 69.7086 46.4251 69.7154 46.4519 69.729C46.5626 69.7598 46.6766 69.8007 46.7906 69.8416C47.3204 70.0258 47.8399 70.2469 48.3425 70.4847C48.6341 70.6239 48.9087 70.7799 49.1866 70.946C49.2134 70.9595 49.2402 70.9731 49.267 70.9867C49.5182 71.1392 49.7592 71.295 50.0003 71.4507C50.0873 71.5117 50.1743 71.5726 50.2613 71.6335C50.4521 71.7722 50.6428 71.911 50.8235 72.053C51.2617 72.4013 51.6863 72.7764 52.0807 73.1614C53.5511 74.6136 54.7211 76.343 55.548 78.1512C55.6808 78.4543 55.8103 78.7472 55.9297 79.0434C55.9396 79.0737 55.9495 79.104 55.9594 79.1343C56.5892 80.75 56.9744 82.2334 57.1654 83.6016L57.1553 83.6049Z" fill="#FFBB29"/>
<path d="M32.9093 73.9407C32.9093 73.9407 31.4302 74.1345 31.503 74.3566C31.5757 74.5787 32.6344 74.4667 32.5356 74.745C32.4468 75.0199 31.2061 75.8734 31.1984 76.0547C31.2009 76.2328 32.6398 75.3703 33.0258 75.4227C33.4118 75.4752 33.025 76.8537 33.2095 76.9051C33.7193 77.0623 33.5777 75.2308 34.1495 75.0994C34.7212 74.9681 35.3272 75.9992 35.5024 75.8859C35.7486 75.7159 34.7106 74.4238 34.7106 74.4238C34.7106 74.4238 36.1387 74.3474 36.1968 74.1495C36.255 73.9516 34.7145 73.6848 34.7145 73.6848C34.7145 73.6848 35.3848 72.694 35.0735 72.4942C34.7621 72.2944 34.0131 73.5569 33.8391 73.435C33.6751 73.3099 32.6205 72.6493 32.5381 72.978C32.4525 73.2967 32.7584 73.8895 32.9025 73.9541L32.9093 73.9407Z" fill="#8CC747"/>
<path d="M30.8448 154.442C31.1928 152.163 30.7426 150.384 30.5019 148.597C30.2553 146.841 29.6322 145.131 29.4491 143.424C30.1753 143.037 30.4137 143.495 30.5746 143.79C32.2541 146.851 33.1723 150.168 33.6267 153.6C33.7097 154.192 33.6633 154.819 33.5662 155.424C33.3378 156.895 32.2676 157.745 30.7502 157.532C29.768 157.396 28.8237 156.949 27.8568 156.706C27.2158 156.546 26.5511 156.504 25.8689 156.398C25.369 157.607 25.7692 158.599 25.8236 159.577C25.894 160.992 26.1175 162.407 26.0621 163.81C25.9647 166.03 24.8142 167.157 22.5637 167.121C21.3755 167.096 20.1464 166.818 19.0326 166.393C17.8178 165.922 16.7162 165.132 15.5827 164.469C15.4075 164.367 15.2547 164.214 15.1396 164.056C14.8388 163.635 14.5934 163.12 14.9691 162.682C15.194 162.415 15.6813 162.182 16.0024 162.229C17.3081 162.43 18.5819 162.759 19.8758 163.019C20.6509 163.181 21.4296 163.295 22.3683 163.465C22.4312 162.817 22.5717 162.331 22.5321 161.858C22.4542 160.845 22.2634 159.846 22.1478 158.838C22.0697 158.131 21.9727 157.426 21.9992 156.715C22.1551 153.504 24.0846 152.184 27.1472 153.143C27.7235 153.32 28.2738 153.595 28.8442 153.802C29.404 154 29.9615 154.179 30.8389 154.472L30.8448 154.442Z" fill="white"/>
<path d="M43.006 179.03C44.8831 178.938 46.5313 177.267 46.3253 175.642C46.0735 173.559 44.2651 171.933 42.2964 172.002C40.5795 172.071 38.9771 173.788 39 175.505C39.0458 177.519 40.8771 179.144 43.006 179.03Z" fill="white"/>
<path d="M143.006 28.0298C144.883 27.9382 146.531 26.2672 146.325 24.6419C146.074 22.5587 144.265 20.9334 142.296 21.0021C140.58 21.0708 138.977 22.7876 139 24.5045C139.046 26.519 140.877 28.1443 143.006 28.0298Z" fill="white"/>
<path d="M103.006 210.03C104.883 209.938 106.531 208.267 106.325 206.642C106.074 204.559 104.265 202.933 102.296 203.002C100.58 203.071 98.9771 204.788 99 206.505C99.0458 208.519 100.877 210.144 103.006 210.03Z" fill="white"/>
<path d="M252.24 51.6134C248.846 53.8328 248.367 58.5019 251.23 61.3851C254.624 59.1657 255.102 54.4966 252.24 51.6134Z" fill="#97C124"/>
<path d="M233.822 63.7907C229.816 64.7168 225.759 62.2934 224.764 58.3871C223.774 54.4722 226.221 50.5564 230.231 49.6216C234.237 48.6955 237.86 50.2416 238.001 55.3262C240.157 59.9957 237.828 62.8646 233.822 63.7907Z" fill="#E7194A"/>
<path d="M245.236 75.5469C243.033 79.081 238.293 80.1747 234.649 78.0012C230.996 75.8227 229.823 71.1986 232.026 67.6646C234.229 64.1305 238.004 62.6995 241.911 66.3481C246.962 68.2548 247.434 72.0215 245.236 75.5469Z" fill="#E7194A"/>
<path d="M235.026 55.35C234.805 54.4674 234.921 53.5015 235.444 52.6771C235.564 52.4681 235.843 52.4083 236.06 52.5339C236.269 52.6546 236.343 52.9292 236.213 53.1332C235.431 54.3879 235.85 56.0345 237.146 56.8059C237.364 56.9316 237.429 57.2012 237.299 57.4051C237.179 57.6141 236.9 57.674 236.683 57.5483C235.826 57.042 235.257 56.2376 235.035 55.355" fill="#262626"/>
<path d="M236.328 55.4281C236.296 55.2821 236.306 55.125 236.395 54.9907C239.729 49.6374 246.95 47.9674 252.472 51.2715C252.76 51.4374 252.841 51.7982 252.672 52.0717C252.502 52.3453 252.137 52.436 251.854 52.2614C246.888 49.3014 240.407 50.7951 237.412 55.6013C237.242 55.8749 236.877 55.9655 236.594 55.7909C236.455 55.7105 236.36 55.5742 236.328 55.4281Z" fill="#262626"/>
<path d="M238.164 66.1228C238.101 65.8893 238.251 65.6506 238.488 65.6017C238.73 65.5442 238.969 65.6937 239.036 65.9184C239.396 67.3453 240.888 68.241 242.349 67.9009C242.592 67.8434 242.83 67.9928 242.898 68.2176C242.96 68.451 242.811 68.6898 242.569 68.7473C240.623 69.2025 238.649 68.0166 238.169 66.1141" fill="#262626"/>
<path d="M239.977 66.9616C238.262 60.2016 243.695 53.1231 252.095 51.1815C252.414 51.1106 252.736 51.2966 252.821 51.6125C252.897 51.9233 252.702 52.2404 252.383 52.3113C244.627 54.1024 239.592 60.5517 241.147 66.685C241.223 66.9959 241.028 67.313 240.709 67.3839C240.389 67.4548 240.067 67.2688 239.982 66.9529" fill="#262626"/>
<path d="M235.952 91.5375C237.377 90.6805 238.768 90.9962 239.507 92.3433C240.764 94.6251 239.454 99.0657 237.081 100.517C235.465 101.511 233.4 100.695 232.877 98.8604C232.224 96.642 233.847 92.8021 235.946 91.5269L235.952 91.5375ZM236.939 92.769C235.011 93.5844 233.882 97.0053 234.805 98.5978C235.049 99.0244 235.872 99.2095 236.288 98.9424C237.875 97.9232 238.784 94.8768 237.884 93.2985C237.701 92.9786 237.121 92.6955 236.939 92.769Z" fill="white"/>
<path d="M249.085 105.461C249.736 107.231 248.904 109.575 247.28 110.53C246.106 111.226 245.029 110.78 244.719 109.476C244.286 107.669 244.7 106.061 246.192 104.768C247.363 103.753 248.575 104.068 249.079 105.451L249.085 105.461ZM247.276 106.302C246.403 106.265 246.096 106.856 245.86 107.49C245.632 108.088 245.856 108.323 246.835 108.57C247.361 107.867 247.689 107.131 247.276 106.302Z" fill="white"/>
<path d="M252.26 97.3499C251.689 95.7464 252.497 93.7535 254.059 92.9252C254.851 92.504 255.798 92.8004 256.159 93.5902C256.845 95.134 256.113 97.4431 254.625 98.4279C253.744 99.0083 252.677 98.5267 252.26 97.3499ZM254.427 94.6446C253.542 94.8772 253.316 95.5039 253.187 96.1702C253.166 96.3155 253.266 96.5432 253.392 96.6078C253.525 96.6831 253.824 96.7096 253.915 96.6073C254.459 96.0392 254.854 95.4205 254.431 94.6269L254.427 94.6446Z" fill="white"/>
<path d="M220.041 204.062C222.964 197.814 214.941 192.424 211.649 191.321C209.444 190.577 199.064 185.999 196.145 192.258C193.222 198.506 193.516 208 201.057 212.039C209.206 216.408 217.122 210.321 220.044 204.073L220.041 204.062Z" fill="#975B2E"/>
<path d="M196.326 191.933C198.706 187.429 205.914 186.557 212.424 189.987C218.935 193.417 222.282 199.849 219.901 204.354C217.521 208.859 210.313 209.73 203.803 206.3C197.293 202.87 193.945 196.438 196.326 191.933Z" fill="#7EB73C"/>
<path d="M203.9 195.249C204.613 193.856 207.293 193.797 209.886 195.119C212.48 196.44 214.004 198.641 213.292 200.035C212.58 201.429 209.9 201.487 207.306 200.166C204.713 198.844 203.188 196.643 203.9 195.249Z" fill="#B9D988"/>
<path d="M206.21 203.95C206.05 204.296 206.241 204.736 206.634 204.928C207.027 205.119 207.48 204.997 207.639 204.652C207.799 204.306 207.851 203.358 207.458 203.167C207.065 202.976 206.38 203.601 206.21 203.95Z" fill="black"/>
<path d="M201.618 200.891C201.221 200.995 201.043 201.395 201.204 201.783C201.366 202.172 201.818 202.393 202.211 202.278C202.607 202.174 203.361 201.612 203.203 201.235C203.041 200.847 202.015 200.787 201.618 200.891Z" fill="black"/>
<path d="M215.805 202.168C216.198 202.359 216.651 202.237 216.81 201.892C216.97 201.546 216.779 201.106 216.386 200.915C215.993 200.724 214.971 200.564 214.811 200.91C214.652 201.255 215.412 201.977 215.809 202.179L215.805 202.168Z" fill="black"/>
<path d="M213.053 206.382C213.214 206.771 213.667 206.992 214.06 206.877C214.457 206.774 214.636 206.373 214.474 205.984C214.313 205.595 213.619 204.815 213.226 204.93C212.829 205.034 212.88 205.997 213.049 206.371L213.053 206.382Z" fill="black"/>
<path d="M210.794 192.814C210.954 192.469 210.763 192.028 210.37 191.837C209.977 191.646 209.524 191.768 209.365 192.113C209.205 192.459 209.153 193.406 209.546 193.597C209.94 193.789 210.624 193.163 210.794 192.814Z" fill="black"/>
<path d="M214.967 197.125C215.364 197.021 215.542 196.621 215.381 196.232C215.219 195.844 214.767 195.623 214.374 195.738C213.978 195.841 213.224 196.403 213.382 196.781C213.544 197.169 214.57 197.229 214.967 197.125Z" fill="black"/>
<path d="M200.539 196.244C200.146 196.053 199.694 196.175 199.534 196.52C199.375 196.866 199.565 197.306 199.958 197.497C200.352 197.689 201.374 197.848 201.533 197.502C201.693 197.157 200.933 196.435 200.536 196.233L200.539 196.244Z" fill="black"/>
<path d="M203.302 192.175C203.14 191.786 202.688 191.565 202.295 191.68C201.898 191.784 201.719 192.185 201.881 192.574C202.042 192.962 202.736 193.743 203.129 193.628C203.526 193.524 203.475 192.56 203.306 192.186L203.302 192.175Z" fill="black"/>
<path d="M255.771 201.714C254.281 202.511 252.65 202.972 250.993 203.32C247.076 204.125 243.155 204.157 239.256 203.282C238.566 203.133 237.905 202.9 237.243 202.668C236.842 202.515 236.499 202.227 236.468 201.784C236.429 201.228 236.832 200.919 237.311 200.737C237.774 200.556 238.238 200.392 238.704 200.26C241.753 199.418 244.795 198.494 247.87 197.782C249.991 197.286 252.164 197.032 254.316 196.715C255.24 196.584 256.133 196.718 257.021 197.033C258.468 197.572 258.908 198.989 257.75 200.404C257.264 200.735 256.539 201.297 255.737 201.716L255.771 201.714ZM253.169 198.771C251.221 199.074 249.294 199.442 247.37 199.858C244.83 200.433 242.31 201.073 239.791 201.713C239.608 201.759 239.447 201.886 239.265 201.964C239.393 202.087 239.455 202.247 239.558 202.256C244.306 202.89 248.956 202.609 253.47 200.873C254.313 200.55 255.096 200.083 255.879 199.632C255.896 199.631 255.912 199.613 255.927 199.596C256.265 199.325 256.093 198.811 255.679 198.725C254.818 198.555 253.976 198.648 253.169 198.771Z" fill="white"/>
<path d="M230.023 208.99C231.699 209.716 233.389 210.408 235.066 211.15C238.172 212.52 241.077 214.187 243.532 216.515C244.355 217.285 245.066 218.146 245.397 219.216C245.774 220.449 245.092 221.443 243.803 221.601C243.396 221.646 242.95 221.628 242.534 221.558C241.981 221.465 241.424 221.339 240.897 221.128C235.341 218.971 231.47 214.987 228.38 210.184C227.936 209.47 228.626 208.575 229.461 208.781C229.618 208.82 229.777 208.891 230.024 209.006L230.023 208.99ZM230.963 211.906C233.582 215.101 236.643 217.784 240.571 219.411C241.276 219.709 242.04 219.87 242.802 220.014C242.819 220.013 242.836 220.012 242.853 220.011C243.231 220.034 243.494 219.634 243.316 219.298C242.857 218.353 242.393 217.839 241.416 217.08C239.645 215.714 237.764 214.505 235.73 213.54C234.225 212.818 232.675 212.166 230.961 211.393C230.955 211.791 230.926 211.859 230.945 211.891L230.963 211.906Z" fill="white"/>
<path d="M232.569 190.347C233.79 188.735 234.976 187.108 236.27 185.557C237.69 183.848 239.182 182.183 240.656 180.52C241.448 179.618 242.443 178.933 243.557 178.473C245.269 177.754 246.767 178.874 246.534 180.665C246.501 180.933 246.436 181.219 246.299 181.461C245.69 182.532 245.154 183.681 244.367 184.649C242.605 186.847 240.364 188.549 237.952 190.013C236.574 190.858 235.119 191.575 233.664 192.292C233.498 192.37 233.332 192.448 233.166 192.51C232.282 192.838 231.496 191.882 232.007 191.116C232.177 190.856 232.383 190.625 232.57 190.363L232.569 190.347ZM235.497 190.138C238.24 188.517 240.739 186.582 242.776 184.165C243.408 183.424 243.932 182.591 244.404 181.762C244.433 181.693 244.481 181.64 244.51 181.572C244.904 180.847 243.948 180.136 243.32 180.695C242.273 181.631 241.173 182.522 240.254 183.566C238.512 185.563 236.879 187.653 235.21 189.711C235.18 189.763 235.149 189.815 235.119 189.867C235.047 190.071 235.284 190.27 235.481 190.156L235.497 190.138Z" fill="white"/>
</g>
<defs>
<clipPath id="clip0_745_1820">
<rect width="274" height="320" fill="white"/>
</clipPath>
</defs>
</svg>
