<svg width="274" height="320" viewBox="0 0 274 320" fill="none" xmlns="http://www.w3.org/2000/svg">
<g clip-path="url(#clip0_747_2144)">
<path d="M41.9785 309.97C80.3255 319.948 169.772 327.477 240.47 307.205C253.052 303.597 260.411 291.726 263.217 282.42C266.024 273.114 289.689 98.203 256.449 19.2963C251.441 11.381 239.296 5.1395 224.949 3.85593C155.142 -2.37851 90.4732 -0.476593 48.2393 5.45221C33.6048 7.49982 22.6224 13.9176 17.7703 22.1843C-5.89004 62.4942 -4.951 251.722 14.8225 291.726C18.8659 299.886 28.6222 306.501 41.9785 309.985V309.97Z" fill="#FFCE00"/>
<g opacity="0.3">
<path d="M246.6 290.126C244.762 288.603 242.829 287.181 240.746 285.938C240.215 285.609 239.372 285.884 239.038 286.452C238.726 287.056 238.918 287.764 239.507 288.109C239.98 288.423 240.49 288.715 240.963 289.029C241.199 289.185 241.435 289.342 241.671 289.499C241.77 289.588 241.908 289.656 242.007 289.745C241.849 289.64 242.164 289.849 242.007 289.745C242.047 289.818 242.164 289.849 242.184 289.886C243.091 290.534 243.98 291.24 244.869 291.947C245.344 292.355 246.157 292.384 246.627 291.884C247.059 291.405 247.116 290.607 246.621 290.162L246.6 290.126Z" fill="white"/>
<path d="M244.415 293.826C242.581 291.774 240.504 290 238.239 288.427C238.002 288.27 237.558 288.276 237.288 288.33C237.001 288.441 236.678 288.667 236.569 288.92C236.238 289.582 236.467 290.174 237.038 290.577C237.216 290.718 236.997 290.503 237.058 290.613C237.099 290.687 237.216 290.718 237.294 290.77C237.432 290.838 237.551 290.964 237.65 291.053C237.907 291.246 238.163 291.44 238.42 291.633C238.933 292.02 239.428 292.465 239.923 292.91C240.893 293.763 241.807 294.694 242.683 295.647C243.102 296.134 244.009 296.063 244.441 295.584C244.93 295.027 244.874 294.386 244.435 293.863L244.415 293.826Z" fill="white"/>
<path d="M241.358 297.483C239.178 294.712 236.638 292.284 233.723 290.256C233.21 289.869 232.31 290.223 232.015 290.77C231.684 291.432 231.912 292.024 232.484 292.427C232.347 292.359 232.524 292.5 232.583 292.516C232.661 292.568 232.74 292.62 232.839 292.709C232.997 292.814 233.174 292.955 233.352 293.096C233.688 293.342 233.964 293.572 234.3 293.818C234.932 294.331 235.526 294.864 236.12 295.398C236.676 295.953 237.233 296.508 237.789 297.062C238.068 297.387 238.327 297.675 238.606 298C238.647 298.073 238.687 298.146 238.766 298.199C238.685 298.052 238.807 298.272 238.827 298.309C238.929 298.492 239.127 298.67 239.266 298.832C239.647 299.341 240.389 299.601 240.958 299.19C241.472 298.858 241.818 298.043 241.379 297.52L241.358 297.483Z" fill="white"/>
<path d="M236.668 298.547C233.819 296.099 230.743 293.871 227.444 291.96C226.875 291.652 226.069 291.906 225.736 292.474C225.385 293.099 225.616 293.786 226.205 294.131C229.288 295.923 232.224 297.988 234.916 300.332C235.411 300.776 236.184 300.732 236.675 300.269C237.107 299.79 237.163 298.992 236.668 298.547Z" fill="white"/>
<path d="M229.14 299.885C226.754 297.372 224.026 295.144 221.133 293.246C220.602 292.917 219.721 293.214 219.425 293.76C219.095 294.423 219.323 295.015 219.894 295.418C220.603 295.888 221.154 296.254 221.825 296.745C222.495 297.237 223.128 297.75 223.78 298.299C225.065 299.361 226.256 300.523 227.409 301.706C227.866 302.172 228.735 302.122 229.167 301.643C229.617 301.106 229.638 300.424 229.161 299.921L229.14 299.885Z" fill="white"/>
<path d="M222.738 302.086C220.527 298.901 217.691 296.205 214.404 294.047C213.853 293.681 213.03 293.993 212.696 294.561C212.345 295.186 212.614 295.852 213.165 296.218C216 298.1 218.638 300.617 220.588 303.42C220.969 303.928 221.69 304.151 222.28 303.777C222.852 303.461 223.081 302.615 222.7 302.107L222.738 302.086Z" fill="white"/>
<path d="M216.813 301.819C214.119 299.381 211.312 297.1 208.356 294.999C207.805 294.633 207.106 294.54 206.598 295.061C206.183 295.482 206.091 296.396 206.604 296.783C209.56 298.885 212.405 301.144 215.061 303.604C215.556 304.048 216.329 304.004 216.819 303.541C217.29 303.041 217.27 302.285 216.813 301.819Z" fill="white"/>
<path d="M212.028 302.982C209.395 300.654 206.782 298.362 204.148 296.034C203.673 295.626 202.86 295.597 202.39 296.097C201.958 296.576 201.901 297.373 202.396 297.818C205.03 300.147 207.643 302.438 210.276 304.767C210.751 305.175 211.564 305.204 212.035 304.704C212.467 304.225 212.523 303.427 212.028 302.982Z" fill="white"/>
<path d="M204.143 306.195C201.787 303.378 199.07 300.808 196.091 298.575C195.578 298.188 194.841 298.117 194.333 298.638C193.88 299.08 193.826 299.973 194.339 300.36C197.318 302.593 199.977 305.147 202.391 307.979C202.81 308.466 203.735 308.338 204.15 307.917C204.658 307.396 204.562 306.682 204.143 306.195Z" fill="white"/>
<path d="M197.092 306.505C195.011 303.823 192.703 301.363 190.092 299.166C189.617 298.758 188.804 298.728 188.334 299.228C187.901 299.707 187.845 300.505 188.34 300.95C190.773 303.006 193.04 305.393 194.922 307.802C195.302 308.31 196.044 308.571 196.614 308.16C197.127 307.828 197.435 307.034 197.034 306.489L197.092 306.505Z" fill="white"/>
<path d="M191.042 306.643C188.676 304.166 186.121 301.89 183.361 299.872C182.848 299.485 182.111 299.414 181.602 299.935C181.208 300.392 181.075 301.233 181.609 301.656C184.369 303.675 186.924 305.951 189.291 308.427C189.748 308.893 190.617 308.843 191.049 308.364C191.499 307.827 191.52 307.145 191.042 306.643Z" fill="white"/>
<path d="M185.605 306.536C182.864 304.555 180.31 302.279 178.04 299.797C177.621 299.31 176.713 299.381 176.281 299.86C175.793 300.417 175.848 301.058 176.288 301.581C178.558 304.063 181.112 306.339 183.853 308.32C184.366 308.707 185.103 308.779 185.611 308.258C186.005 307.8 186.138 306.96 185.605 306.536Z" fill="white"/>
<path d="M178.235 308.698C176.191 305.995 173.713 303.677 170.84 301.817C170.309 301.487 169.427 301.784 169.132 302.33C168.801 302.993 169.03 303.585 169.601 303.988C169.759 304.092 169.916 304.197 170.074 304.301C170.152 304.354 170.231 304.406 170.31 304.458C170.33 304.495 170.546 304.615 170.388 304.51C170.703 304.719 171.039 304.965 171.315 305.195C171.928 305.671 172.501 306.168 173.096 306.702C173.631 307.22 174.188 307.775 174.685 308.314C174.805 308.44 174.944 308.602 175.084 308.765C175.124 308.838 175.185 308.948 175.264 309C175.523 309.288 175.203 308.89 175.305 309.074C175.584 309.398 175.805 309.707 176.046 310.053C176.427 310.561 177.169 310.821 177.738 310.41C178.252 310.078 178.56 309.285 178.158 308.74L178.235 308.698Z" fill="white"/>
<path d="M172.845 309.67C170.733 307.293 168.3 305.237 165.567 303.538C165.036 303.209 164.154 303.506 163.859 304.052C163.508 304.678 163.756 305.307 164.328 305.71C164.643 305.919 164.958 306.128 165.273 306.337C165.351 306.389 165.43 306.441 165.509 306.494C165.509 306.494 165.765 306.687 165.666 306.598C165.588 306.546 165.844 306.739 165.824 306.703C165.865 306.776 165.961 306.77 166.002 306.844C166.614 307.32 167.226 307.796 167.8 308.293C168.948 309.287 170.039 310.36 171.055 311.475C171.474 311.962 172.381 311.891 172.813 311.412C173.302 310.854 173.246 310.214 172.807 309.691L172.845 309.67Z" fill="white"/>
<path d="M165.828 309.049C163.628 307.055 161.371 305.046 159.172 303.053C158.697 302.644 157.884 302.615 157.413 303.115C156.981 303.594 156.925 304.392 157.42 304.837C159.619 306.83 161.877 308.84 164.076 310.833C164.551 311.241 165.364 311.271 165.834 310.771C166.266 310.292 166.323 309.494 165.828 309.049Z" fill="white"/>
<path d="M160.396 309.944C158.339 307.488 156.171 305.19 153.774 303.019C153.299 302.61 152.486 302.581 152.015 303.081C151.545 303.581 151.527 304.358 152.022 304.803C154.361 306.959 156.587 309.272 158.644 311.728C159.063 312.215 159.988 312.087 160.402 311.666C160.891 311.108 160.835 310.468 160.396 309.944Z" fill="white"/>
<path d="M155.818 310.132C154.124 308.242 152.392 306.373 150.699 304.483C150.28 303.996 149.373 304.067 148.94 304.545C148.452 305.103 148.508 305.743 148.947 306.267L154.066 311.916C154.485 312.403 155.392 312.332 155.824 311.853C156.312 311.296 156.257 310.656 155.818 310.132Z" fill="white"/>
<path d="M151.566 310.998C150.733 310.213 149.918 309.371 149.2 308.522C149.139 308.412 149.04 308.323 148.941 308.234C148.9 308.161 148.88 308.124 148.839 308.051C148.738 307.868 148.778 307.941 148.839 308.051C148.659 307.815 148.499 307.616 148.319 307.381C147.958 306.909 147.618 306.474 147.258 306.003C146.877 305.495 146.135 305.235 145.566 305.646C145.014 305.999 144.744 306.771 145.145 307.316C146.59 309.296 148.167 311.155 149.931 312.814C150.368 313.243 151.257 313.23 151.69 312.751C152.16 312.251 152.14 311.495 151.683 311.03L151.566 310.998Z" fill="white"/>
</g>
<path d="M79.9635 31.9058C79.9555 32.5035 79.9026 33.0776 79.8233 33.6148C79.6758 34.5641 79.4204 35.4176 79.0906 36.1905C79.0906 36.1905 79.0921 36.2005 79.0837 36.2122C79.0616 36.2671 79.0295 36.3238 79.0073 36.3787C79.0073 36.3787 79.0089 36.3888 79.0005 36.4004C78.8171 36.8001 78.6105 37.1831 78.379 37.5391C76.8427 39.9768 71.3264 43.1273 67.8192 43.7743C67.7891 43.7792 67.759 43.784 67.7289 43.7888C67.7289 43.7888 67.7189 43.7905 67.7089 43.7921C67.2376 43.868 66.7361 43.9487 66.2199 44.0009C65.6853 44.0665 65.1258 44.1052 64.553 44.1254C64.3994 44.1296 64.2358 44.1354 64.0822 44.1395C63.2825 44.1552 62.4532 44.1139 61.6243 44.0108C59.5148 43.7438 57.3769 43.0391 55.4902 41.5845C54.0482 40.4695 52.9706 38.864 52.2229 37.1334C52.1737 37.0179 52.1229 36.8924 52.0737 36.777C52.0362 36.6699 51.9902 36.5745 51.9526 36.4674C51.8807 36.2733 51.8087 36.0793 51.7468 35.8836C51.6441 35.5607 51.5431 35.248 51.4621 34.932C51.4605 34.9219 51.4573 34.9018 51.4557 34.8918C51.2985 34.2898 51.1729 33.6931 51.0806 33.1115C50.8402 31.5974 50.856 30.2067 51.0859 29.1927C51.3763 27.912 51.7133 26.8602 52.1312 25.9292C52.3129 25.5194 52.518 25.1265 52.7346 24.742C53.1374 24.0395 53.5982 23.3792 54.1292 22.7075C54.1899 22.6361 54.2405 22.5662 54.3012 22.4948C54.4731 22.282 54.6767 22.0744 54.9019 21.8736C55.1625 21.6362 55.4547 21.4041 55.7586 21.1804C56.4033 20.7064 57.1277 20.2812 57.7614 19.9324C57.9978 19.8017 58.2257 19.6828 58.4252 19.5787C58.5777 19.5027 58.7202 19.4283 58.8542 19.3656C59.3117 19.1377 59.6098 19.0075 59.6098 19.0075C59.6098 19.0075 59.6468 18.981 59.7238 18.948C59.8008 18.915 59.9048 18.8571 60.0488 18.7928C60.0874 18.7763 60.1259 18.7599 60.1744 18.7418C60.2799 18.6939 60.4055 18.6428 60.5412 18.5901C60.5612 18.5869 60.5713 18.5853 60.5897 18.572C60.9681 18.4288 61.4351 18.2611 61.9956 18.0989C62.1829 18.0481 62.3803 17.9958 62.5877 17.9418C62.8553 17.8782 63.1429 17.8113 63.4438 17.7629C63.5641 17.7435 63.6945 17.7225 63.8148 17.7031C63.885 17.6918 63.9552 17.6805 64.0254 17.6692C64.5469 17.5853 65.1148 17.5349 65.716 17.4998C65.7461 17.495 65.7862 17.4885 65.8179 17.4937C67.1872 17.4378 68.7355 17.5381 70.4001 17.9179C70.8584 18.0189 71.3014 18.1532 71.7275 18.3109C71.7708 18.3244 71.8141 18.338 71.859 18.3617C71.9023 18.3753 71.9456 18.3889 71.9905 18.4125C72.0237 18.4277 72.0454 18.4345 72.0787 18.4497C72.1119 18.4649 72.1336 18.4718 72.1668 18.487C72.2001 18.5022 72.2334 18.5174 72.265 18.5226C72.2867 18.5294 72.3083 18.5361 72.32 18.5445C72.3416 18.5513 72.3633 18.5582 72.3865 18.575C72.4198 18.5902 72.4414 18.597 72.4747 18.6122L72.4847 18.6106C72.518 18.6258 72.5512 18.641 72.5745 18.6578C72.6077 18.673 72.641 18.6882 72.6743 18.7035C72.6743 18.7035 72.6959 18.7103 72.6975 18.7203C72.7076 18.7187 72.7207 18.7371 72.7408 18.7338C72.764 18.7507 72.7957 18.7558 72.819 18.7727C72.8406 18.7795 72.8523 18.7879 72.8739 18.7947C72.9637 18.8419 73.0534 18.8892 73.1432 18.9364C73.5704 19.1659 73.9692 19.4101 74.3526 19.6877C74.5734 19.8476 74.7942 20.0074 75.0081 20.1889C75.0313 20.2058 75.0445 20.2242 75.0678 20.241C75.2569 20.3957 75.4376 20.562 75.6182 20.7283C75.6795 20.7904 75.7508 20.8509 75.8121 20.913C75.9579 21.0541 76.0937 21.1967 76.2294 21.3394C76.5522 21.6885 76.8582 22.0608 77.134 22.438C78.1713 23.8546 78.9216 25.4717 79.3748 27.0955C79.4478 27.3614 79.5109 27.6289 79.5739 27.8964C79.5787 27.9265 79.5818 27.9465 79.5866 27.9765C79.8976 29.4175 80.0211 30.7139 80.002 31.8893L79.9635 31.9058Z" fill="#F99D22"/>
<path d="M60.9601 20.5536C60.9601 20.5536 59.6905 20.5207 59.7225 20.7213C59.7529 20.912 60.6553 20.9627 60.5369 21.1875C60.4286 21.4106 59.2617 21.958 59.2456 22.1149C59.2195 22.2735 60.5415 21.7321 60.8645 21.8243C61.1776 21.9181 60.666 23.0291 60.8207 23.0969C61.2331 23.2982 61.3541 21.7354 61.8532 21.7068C62.3523 21.6781 62.7296 22.626 62.892 22.5485C63.1213 22.4397 62.4223 21.2142 62.4223 21.2142C62.4223 21.2142 63.6362 21.3487 63.7124 21.1821C63.7886 21.0155 62.53 20.6001 62.53 20.6001C62.53 20.6001 63.2327 19.8494 62.9939 19.6408C62.7551 19.4322 61.9524 20.3944 61.8398 20.2684C61.7172 20.144 60.9278 19.4475 60.8042 19.704C60.6806 19.9605 60.8688 20.4962 60.975 20.5821L60.9601 20.5536Z" fill="#8CC747"/>
<path d="M97.4584 11.2463C99.4023 11.4596 100.479 12.7461 100.211 14.5324C99.761 17.5625 95.3722 20.7839 92.119 20.4515C89.8988 20.2306 88.5475 17.9966 89.3649 15.907C90.3348 13.3668 94.5884 10.9301 97.4604 11.232L97.4584 11.2463ZM97.5043 13.1012C95.1202 12.4912 91.627 14.8875 91.3565 17.0352C91.2803 17.6076 91.9188 18.3674 92.4982 18.4137C94.7088 18.5904 97.7294 16.3877 98.0113 14.2698C98.0684 13.8405 97.7273 13.1624 97.5043 13.1012Z" fill="white"/>
<path d="M99.8288 33.6288C99.1768 35.7483 96.729 37.3478 94.529 37.0851C92.9353 36.8998 92.2453 35.7155 92.8839 34.2754C93.7667 32.2758 95.2994 31.0664 97.6157 30.9185C99.4343 30.8033 100.344 31.9617 99.8308 33.6145L99.8288 33.6288ZM97.5374 33.1272C96.7463 32.4705 96.039 32.8048 95.3661 33.2288C94.7274 33.6265 94.7693 34.0063 95.509 34.934C96.5022 34.6515 97.3334 34.1967 97.5374 33.1272Z" fill="white"/>
<path d="M108.576 28.301C109.185 26.3944 111.36 25.1055 113.412 25.4432C114.453 25.6133 115.128 26.5651 114.903 27.561C114.445 29.4941 112.115 31.1328 110.021 30.9945C108.784 30.9101 108.128 29.699 108.576 28.301ZM112.531 27.3135C111.537 26.901 110.88 27.3264 110.285 27.8582C110.161 27.9786 110.092 28.2628 110.165 28.4134C110.235 28.5784 110.496 28.8165 110.654 28.7857C111.568 28.6414 112.378 28.3441 112.548 27.3004L112.531 27.3135Z" fill="white"/>
<path d="M38.0016 160.595C34.6991 168.471 39.178 176.367 47.3479 179.794C55.5051 183.214 64.272 180.875 67.5813 172.987C70.8837 165.111 68.1646 154.697 57.9776 154.421C51.2404 147.463 41.3237 152.713 38.0212 160.589" fill="#97C124"/>
<path d="M56.9833 158.235C57.3606 158.388 57.7726 158.232 57.9188 157.867C60.3751 151.998 57.4319 145.155 51.3524 142.602C50.9751 142.449 50.5631 142.606 50.417 142.97C50.2776 143.322 50.4469 143.741 50.8114 143.887C56.1558 146.128 58.741 152.14 56.5829 157.299C56.4436 157.651 56.6128 158.069 56.9774 158.216" fill="#262626"/>
<path d="M56.5841 158.43C57.965 159.006 59.4781 159.029 60.8451 158.499C61.2179 158.354 61.3846 157.951 61.2203 157.584C61.0688 157.224 60.6405 157.044 60.2804 157.196C59.2667 157.587 58.1415 157.575 57.1124 157.138C56.096 156.708 55.2905 155.916 54.8596 154.914C54.7081 154.554 54.2798 154.373 53.9197 154.525C53.5469 154.669 53.3803 155.072 53.5445 155.439C54.1337 156.788 55.2032 157.854 56.5841 158.43Z" fill="#262626"/>
<path d="M57.8646 147.683C59.4739 143.854 63.9938 142.093 67.9768 143.752C68.3414 143.899 68.5234 144.324 68.3713 144.669C66.7619 148.498 62.2421 150.259 58.2591 148.6C57.8945 148.454 57.7125 148.028 57.8646 147.683Z" fill="#97C124"/>
<path d="M24.4729 177.299C22.1292 176.353 20.118 176.385 18.1523 176.191C16.2165 176.011 14.2356 176.245 12.3685 176.01C12.1395 175.138 12.688 174.999 13.0436 174.902C16.7312 173.882 20.5009 173.739 24.2761 174.12C24.9283 174.18 25.5854 174.388 26.2058 174.644C27.7177 175.259 28.354 176.614 27.7441 178.179C27.3512 179.192 26.6365 180.087 26.1333 181.057C25.8017 181.7 25.5895 182.399 25.3039 183.099C26.4673 183.937 27.6264 183.761 28.6829 183.949C30.2103 184.231 31.7763 184.349 33.258 184.762C35.6012 185.426 36.5133 186.937 35.9073 189.328C35.5814 190.589 34.9754 191.83 34.2405 192.911C33.4323 194.088 32.3115 195.064 31.3194 196.106C31.1659 196.267 30.9641 196.391 30.7669 196.474C30.2415 196.689 29.631 196.821 29.2581 196.309C29.0302 196.002 28.9051 195.424 29.0353 195.093C29.5791 193.751 30.2516 192.475 30.8552 191.161C31.2233 190.375 31.5409 189.573 31.9591 188.615C31.2837 188.384 30.801 188.112 30.2866 188.035C29.1865 187.863 28.0728 187.814 26.9682 187.683C26.1943 187.588 25.4181 187.514 24.667 187.307C21.2808 186.331 20.3601 183.94 22.1542 180.915C22.4883 180.345 22.9212 179.828 23.2852 179.271C23.6377 178.724 23.9695 178.175 24.5028 177.313L24.4729 177.299Z" fill="white"/>
<path d="M244.899 66.24C247.876 70.6808 246.219 81.8153 241.675 84.7024C237.143 87.5896 226.035 84.6118 223.057 80.158C217.671 72.1179 224.054 68.0396 228.585 65.1525C233.117 62.2653 240.03 58.9767 244.899 66.24Z" fill="#C10230"/>
<path d="M232.469 58.5751C230.553 58.9894 229.129 60.2841 228.805 61.7342C228.3 61.773 227.808 61.9155 227.368 62.1873C227.174 62.3168 226.992 62.4592 226.837 62.6275C225.452 62.5499 223.898 63.3008 222.862 64.6991C221.373 66.6929 220.26 70.8748 221.878 72.0271C223.341 73.0758 226.552 71.2761 228.248 69.4506C229.931 70.9784 232.275 72.1824 233.518 71.3797C234.838 70.5382 234.554 67.7157 233.699 65.5536C233.816 65.5406 233.932 65.5147 234.049 65.4888C236.509 64.958 240.185 62.5499 239.745 60.6337C239.305 58.7176 234.929 58.0314 232.469 58.5622" fill="#B0DF30"/>
<path d="M229.609 65.7608C229.285 65.968 228.858 65.8773 228.651 65.5666C225.867 61.4106 227.045 55.8175 231.292 53.1116C231.616 52.9044 232.043 52.9951 232.25 53.3058C232.457 53.6165 232.366 54.0308 232.056 54.238C228.444 56.5426 227.447 61.2812 229.803 64.8157C230.01 65.1264 229.919 65.5407 229.609 65.7479" fill="#262626"/>
<path d="M234.762 75.5875C234.541 75.2638 234.632 74.8107 234.969 74.6035C235.305 74.3834 235.758 74.487 235.979 74.8107C236.199 75.1473 236.432 76.0665 236.095 76.2737C235.758 76.4938 234.982 75.9112 234.762 75.5875Z" fill="#262626"/>
<path d="M237.675 79.9249C237.455 79.6012 237.546 79.1481 237.882 78.9409C238.219 78.7208 238.672 78.8244 238.892 79.1481C239.112 79.4847 239.345 80.4039 239.009 80.6111C238.672 80.8312 237.895 80.2486 237.675 79.9249Z" fill="#262626"/>
<path d="M227.977 76.0797C227.757 75.756 227.848 75.3029 228.185 75.0957C228.521 74.8756 228.974 74.9792 229.194 75.3029C229.415 75.6395 229.648 76.5587 229.311 76.7659C228.974 76.986 228.197 76.4033 227.977 76.0797Z" fill="#262626"/>
<path d="M231.149 80.0023C230.864 79.7175 230.877 79.2644 231.175 78.9925C231.472 78.7206 231.925 78.7335 232.21 79.0184C232.482 79.3032 232.884 80.1706 232.586 80.4425C232.288 80.7144 231.433 80.2872 231.149 79.9894" fill="#262626"/>
<path d="M239.125 68.9713C238.904 68.6476 238.451 68.5441 238.115 68.7642C237.778 68.9843 237.687 69.4245 237.908 69.7481C238.128 70.0848 238.904 70.6544 239.241 70.4343C239.578 70.2142 239.345 69.295 239.125 68.9713Z" fill="#262626"/>
<path d="M241.533 73.3865C241.378 73.0239 240.95 72.8556 240.575 73.011C240.2 73.1664 240.031 73.5807 240.187 73.9432C240.342 74.3057 241.002 75.0048 241.378 74.8495C241.753 74.6941 241.688 73.749 241.533 73.3865Z" fill="#262626"/>
<path d="M25.3367 116.03C23.4596 115.938 21.8114 114.267 22.0175 112.642C22.2693 110.559 24.0777 108.933 26.0464 109.002C27.7632 109.071 29.3657 110.788 29.3428 112.505C29.297 114.519 27.4657 116.144 25.3367 116.03Z" fill="white"/>
<path d="M249.057 118.294C247.786 117.253 246.763 115.96 245.833 114.602C243.649 111.384 242.159 107.875 241.491 104.046C241.368 103.371 241.33 102.69 241.292 102.009C241.28 101.592 241.411 101.176 241.796 100.984C242.282 100.741 242.709 100.988 243.051 101.351C243.386 101.699 243.707 102.054 244 102.424C245.892 104.848 247.857 107.236 249.642 109.732C250.879 111.452 251.917 113.309 253.004 115.123C253.467 115.905 253.679 116.756 253.727 117.672C253.783 119.173 252.674 120.095 250.971 119.584C250.493 119.27 249.718 118.829 249.042 118.264L249.057 118.294ZM250.73 114.861C249.731 113.224 248.683 111.63 247.592 110.057C246.127 107.99 244.613 105.966 243.1 103.942C242.99 103.794 242.816 103.697 242.678 103.563C242.615 103.724 242.495 103.839 242.525 103.935C243.726 108.436 245.712 112.507 248.954 115.914C249.559 116.551 250.27 117.08 250.967 117.615C250.974 117.63 250.996 117.637 251.018 117.645C251.387 117.847 251.785 117.501 251.707 117.098C251.538 116.261 251.141 115.539 250.73 114.861Z" fill="white"/>
<path d="M232.922 97.8828C232.895 99.6585 232.904 101.435 232.862 103.218C232.79 106.518 232.376 109.748 231.2 112.821C230.816 113.848 230.307 114.807 229.47 115.504C228.503 116.302 227.356 116.059 226.734 114.961C226.541 114.612 226.391 114.205 226.299 113.806C226.176 113.274 226.082 112.727 226.075 112.174C225.941 106.38 228.076 101.418 231.237 96.852C231.713 96.1874 232.774 96.4734 232.9 97.3004C232.924 97.4554 232.919 97.6249 232.908 97.89L232.922 97.8828ZM230.653 99.8145C228.76 103.357 227.492 107.107 227.495 111.242C227.491 111.986 227.631 112.732 227.785 113.471C227.793 113.486 227.8 113.5 227.808 113.515C227.928 113.863 228.385 113.95 228.62 113.666C229.298 112.9 229.587 112.292 229.904 111.132C230.47 109.031 230.855 106.892 230.964 104.704C231.051 103.084 231.058 101.448 231.114 99.6214C230.754 99.7642 230.681 99.7633 230.66 99.7925L230.653 99.8145Z" fill="white"/>
<path d="M250.615 93.2174C252.519 93.7131 254.421 94.172 256.297 94.7558C258.362 95.3937 260.413 96.1124 262.457 96.8163C263.562 97.1914 264.548 97.8304 265.377 98.659C266.66 99.9283 266.213 101.692 264.518 102.15C264.265 102.22 263.983 102.268 263.715 102.235C262.526 102.088 261.294 102.035 260.131 101.689C257.5 100.926 255.136 99.5474 252.921 97.9273C251.65 97.0046 250.463 95.965 249.276 94.9255C249.145 94.8059 249.013 94.6863 248.895 94.5595C248.271 93.8882 248.836 92.8265 249.714 92.9997C250.012 93.055 250.296 93.1544 250.601 93.2246L250.615 93.2174ZM251.894 95.7693C254.373 97.6286 257.043 99.1512 259.973 100.08C260.874 100.371 261.818 100.531 262.739 100.646C262.811 100.646 262.876 100.669 262.949 100.67C263.746 100.754 264.028 99.6298 263.292 99.2741C262.061 98.6836 260.851 98.0271 259.571 97.5908C257.127 96.7713 254.642 96.084 252.171 95.3526C252.113 95.3445 252.055 95.3364 251.997 95.3283C251.787 95.3404 251.697 95.6267 251.872 95.7616L251.894 95.7693Z" fill="white"/>
<path d="M227.337 35.0298C225.46 34.9382 223.811 33.2672 224.017 31.6419C224.269 29.5587 226.078 27.9334 228.046 28.0021C229.763 28.0708 231.366 29.7876 231.343 31.5045C231.297 33.519 229.466 35.1443 227.337 35.0298Z" fill="white"/>
</g>
<defs>
<clipPath id="clip0_747_2144">
<rect width="274" height="320" fill="white"/>
</clipPath>
</defs>
</svg>
