<svg width="320" height="262" viewBox="0 0 320 262" fill="none" xmlns="http://www.w3.org/2000/svg">
<path d="M111.435 261.211C58.9542 259.861 32.7141 259.185 10.7295 239.286C-11.2551 219.387 -14.1094 196.711 -19.8179 151.361C-20.6111 145.059 -21.3221 138.586 -21.9255 131.972C-22.9073 121.21 -23.1673 110.798 -22.903 100.878C-21.9773 66.1364 -21.5145 48.7654 0.817981 26.2535C23.1504 3.74152 46.5861 2.92926 93.4573 1.30472C115.987 0.523834 139.173 -0.0306098 159.075 0.00128102C174.798 0.0264885 192.651 0.424377 210.521 1.00296C262.864 2.69772 289.036 3.5451 310.784 23.1962C332.533 42.8474 335.403 64.1991 341.143 106.902C342.317 115.641 343.01 124.106 343 131.89C342.995 135.661 342.865 139.595 342.63 143.643C339.83 191.876 338.43 215.993 315.955 237.702C293.48 259.411 264.488 260.087 206.503 261.439C192.367 261.769 178.526 261.982 166.054 261.999C149.409 262.021 130.423 261.7 111.435 261.211Z" fill="#783FC7"/>
</svg>
