<svg width="54" height="54" viewBox="0 0 54 54" fill="none" xmlns="http://www.w3.org/2000/svg">
<path d="M22.2987 26.6314C21.9375 26.3303 21.644 26.0218 21.4182 25.7057C21.1924 25.3896 21.0193 25.081 20.8989 24.78C20.7935 24.4789 20.7183 24.2005 20.6731 23.9446C20.643 23.6737 20.628 23.4403 20.628 23.2447C20.628 22.3717 20.771 21.6868 21.0569 21.1901C21.358 20.6783 21.6741 20.2869 22.0052 20.016C22.3815 19.6999 22.8256 19.4516 23.3373 19.2709C23.8641 19.0903 24.4888 19 25.2113 19C26.3854 19 27.3412 19.3763 28.0787 20.1289C28.44 20.4902 28.7184 20.9191 28.9141 21.4158C29.1098 21.9126 29.2076 22.4921 29.2076 23.1544C29.2076 23.8468 29.0646 24.494 28.7786 25.0961C28.5077 25.6831 28.1088 26.1949 27.582 26.6314V26.7217C27.7777 26.8572 27.9884 27.0303 28.2142 27.241C28.44 27.4367 28.6432 27.6925 28.8238 28.0086C29.0195 28.3247 29.1775 28.7086 29.2979 29.1601C29.4183 29.5966 29.4786 30.1159 29.4786 30.718C29.4786 31.6061 29.3356 32.3662 29.0496 32.9984C28.7786 33.6306 28.4174 34.1499 27.9658 34.5563C27.5143 34.9476 26.995 35.2411 26.4079 35.4368C25.836 35.6174 25.2565 35.7078 24.6694 35.7078C24.0372 35.7078 23.4427 35.5949 22.8858 35.3691C22.3439 35.1282 21.8698 34.7971 21.4633 34.3756C21.072 33.9542 20.7634 33.4499 20.5376 32.8629C20.3119 32.2759 20.199 31.6211 20.199 30.8986C20.199 30.5223 20.2291 30.1385 20.2893 29.7471C20.3645 29.3407 20.4774 28.9569 20.628 28.5957C20.7935 28.2344 21.0118 27.8957 21.2827 27.5797C21.5537 27.2485 21.8923 26.9625 22.2987 26.7217V26.6314ZM25.8435 30.718C25.8435 30.0106 25.7381 29.4837 25.5274 29.1375C25.3317 28.7763 25.1059 28.5129 24.8501 28.3473C24.1577 28.9042 23.8115 29.6418 23.8115 30.56C23.8115 31.0868 23.9093 31.4631 24.105 31.6889C24.3157 31.9146 24.5565 32.0275 24.8275 32.0275C24.8877 32.0275 24.978 32.02 25.0984 32.005C25.2188 31.9748 25.3317 31.9146 25.4371 31.8243C25.5424 31.734 25.6328 31.6061 25.708 31.4405C25.7983 31.2599 25.8435 31.019 25.8435 30.718ZM23.9244 22.9963C23.9244 23.3124 24.0222 23.621 24.2179 23.922C24.4286 24.2231 24.6995 24.4714 25.0307 24.6671C25.2113 24.5015 25.3844 24.2833 25.55 24.0123C25.7155 23.7263 25.7983 23.3801 25.7983 22.9737C25.7983 22.9135 25.7908 22.8307 25.7758 22.7254C25.7607 22.605 25.7231 22.4845 25.6629 22.3641C25.6027 22.2437 25.5123 22.1383 25.3919 22.048C25.2715 21.9577 25.0984 21.9126 24.8726 21.9126C24.5264 21.9126 24.2781 22.0255 24.1276 22.2512C23.9921 22.462 23.9244 22.7103 23.9244 22.9963Z" fill="white"/>
<path d="M14.2776 19.7003C14.4883 19.4444 14.684 19.2864 14.8646 19.2262C15.0603 19.166 15.2861 19.1359 15.542 19.1359H17.2579C17.3332 19.1359 17.4084 19.1434 17.4837 19.1584C17.559 19.1584 17.6342 19.2111 17.7095 19.3165C17.7847 19.4219 17.8299 19.5423 17.8449 19.6777C17.8751 19.8132 17.8901 19.9487 17.8901 20.0841V34.1277C17.8901 34.3384 17.8901 34.5266 17.8901 34.6921C17.8901 34.8577 17.86 35.0007 17.7998 35.1211C17.7546 35.2415 17.6568 35.3394 17.5063 35.4146C17.3708 35.4748 17.1601 35.5049 16.8741 35.5049H14.7743C14.5787 35.5049 14.4357 35.4673 14.3453 35.3921C14.2701 35.3017 14.2174 35.1587 14.1873 34.9631C14.1572 34.7674 14.1421 34.519 14.1421 34.218C14.1572 33.917 14.1647 33.5482 14.1647 33.1117C14.1647 32.7655 14.1723 32.4343 14.1873 32.1182C14.2024 31.7871 14.2099 31.4484 14.2099 31.1022C14.2099 30.5604 14.2024 30.0185 14.1873 29.4766C14.1723 28.9197 14.1647 28.3703 14.1647 27.8284C14.1647 27.4521 14.1647 27.1285 14.1647 26.8576C14.1798 26.5866 14.1873 26.3082 14.1873 26.0222C14.2024 25.7362 14.2099 25.4201 14.2099 25.0739C14.2099 24.7126 14.2024 24.2686 14.1873 23.7418L13.2164 25.0739C13.1412 25.1642 13.0659 25.2244 12.9907 25.2545C12.9154 25.2846 12.8477 25.2997 12.7875 25.2997C12.6972 25.2997 12.6068 25.2696 12.5165 25.2094C12.4262 25.1491 12.351 25.0965 12.2907 25.0513L11.3876 24.2611C11.2522 24.1407 11.1618 24.0579 11.1167 24.0127C11.0866 23.9525 11.0715 23.8923 11.0715 23.8321C11.0715 23.7267 11.0866 23.6364 11.1167 23.5612C11.1618 23.4859 11.2221 23.4106 11.2973 23.3354L14.2776 19.7003Z" fill="white"/>
<path d="M33.25 29.0655C33.1191 29.084 32.9975 29.1024 32.8852 29.1209C32.7917 29.1209 32.7075 29.1209 32.6327 29.1209C32.3333 29.1209 32.1369 29.0193 32.0434 28.8161C31.9498 28.6314 31.9031 27.911 31.9031 26.6549C31.9031 26.3778 32.0153 26.1839 32.2398 26.073C32.3333 25.9992 32.6514 25.9622 33.1939 25.9622C33.2687 25.9437 33.4839 25.916 33.8393 25.8791C33.9328 25.8606 34.017 25.8514 34.0919 25.8514C34.1667 25.8514 34.2415 25.8514 34.3163 25.8514C34.466 25.8514 34.5876 25.8606 34.6811 25.8791C34.7747 25.8976 34.8495 25.9068 34.9056 25.9068C34.9805 25.9068 35.0459 25.9068 35.1021 25.9068C35.3078 25.9068 35.4575 25.8329 35.551 25.6851C35.6259 25.5928 35.6633 25.4819 35.6633 25.3526V24.1058C35.682 24.0134 35.6913 23.8841 35.6913 23.7179C35.6913 23.5516 35.682 23.4408 35.6633 23.3854C35.6446 23.1637 35.6259 22.9882 35.6072 22.8589C35.6072 22.7112 35.6072 22.6096 35.6072 22.5542C35.6072 22.3879 35.682 22.2586 35.8316 22.1662C35.9813 22.0554 36.159 22 36.3648 22C36.4583 22 36.5519 22.0092 36.6454 22.0277C36.7577 22.0277 36.8793 22.0369 37.0102 22.0554C37.1038 22.0739 37.1879 22.0831 37.2628 22.0831C37.3376 22.0831 37.4124 22.0831 37.4873 22.0831C37.6369 22.0831 37.7585 22.0739 37.8521 22.0554C37.9456 22.0369 38.0298 22.0277 38.1046 22.0277C38.1981 22.0277 38.273 22.0277 38.3291 22.0277C38.5723 22.0277 38.75 22.1293 38.8623 22.3325C38.8997 22.4064 38.9277 22.4803 38.9464 22.5542C38.9652 22.6096 38.9839 22.665 39.0026 22.7204L39.0587 24.2166C39.0587 24.2905 39.0213 24.5122 38.9464 24.8816V25.1587C38.9464 25.3804 39.0213 25.5651 39.1709 25.7128C39.2458 25.7867 39.3393 25.8237 39.4515 25.8237H40.6301C40.9107 25.8976 41.1539 25.9345 41.3597 25.9345H41.5C41.631 25.916 41.7432 25.9068 41.8368 25.9068C41.9303 25.9068 42.0145 25.9068 42.0893 25.9068C42.6318 25.9068 42.9031 26.3039 42.9031 27.0982V28.5113C42.9031 28.6591 42.8376 28.7884 42.7066 28.8992C42.5757 29.0285 42.398 29.0932 42.1735 29.0932H41.3597C41.0417 29.0932 40.7798 29.0932 40.574 29.0932C40.3682 29.0932 40.2279 29.084 40.1531 29.0655C40.0782 29.047 40.0034 29.0378 39.9286 29.0378C39.8725 29.0378 39.8163 29.0378 39.7602 29.0378C39.4422 29.0378 39.2458 29.1209 39.1709 29.2872C39.1335 29.398 39.0961 29.9337 39.0587 30.8942L39.0306 31.3375C39.0306 32.0579 39.0213 32.4458 39.0026 32.5013C38.9839 32.686 38.8997 32.806 38.75 32.8615C38.6191 32.9538 38.4133 33 38.1327 33C38.0578 33 37.9737 33 37.8801 33C37.7866 32.9815 37.6743 32.9631 37.5434 32.9446C37.4498 32.9261 37.3002 32.9169 37.0944 32.9169H36.8699C36.7203 32.9353 36.5893 32.9446 36.4771 32.9446C36.3648 32.9446 36.29 32.9446 36.2526 32.9446C35.8223 32.9446 35.6072 32.3627 35.6072 31.199C35.6072 31.1251 35.6072 30.9681 35.6072 30.728C35.6259 30.4878 35.6446 30.1646 35.6633 29.7582C35.682 29.6474 35.6633 29.5365 35.6072 29.4257C35.551 29.3149 35.4856 29.241 35.4107 29.204C35.3172 29.1486 34.9711 29.1209 34.3725 29.1209C34.1667 29.1024 33.9983 29.0932 33.8674 29.0932C33.7551 29.0747 33.6709 29.0655 33.6148 29.0655H33.25Z" fill="white"/>
<path d="M51 27C51 13.7452 40.2548 3 27 3C13.7452 3 3 13.7452 3 27C3 40.2548 13.7452 51 27 51V54C12.0883 54 0 41.9117 0 27C0 12.0883 12.0883 0 27 0C41.9117 0 54 12.0883 54 27C54 41.9117 41.9117 54 27 54V51C40.2548 51 51 40.2548 51 27Z" fill="white"/>
</svg>
