<svg width="710" height="371" viewBox="0 0 710 371" fill="none" xmlns="http://www.w3.org/2000/svg">
<path opacity="0.4" d="M5.85491 124.754C13.0556 69.0281 16.6559 41.1649 38.9754 21.2969C61.2948 1.42892 90.6216 1.06479 149.275 0.336537C207.487 -0.386234 282.481 -0.137148 365.469 3.01538C453.048 6.34233 531.615 15.5905 590.942 24.6114C643.931 32.6685 670.426 36.6971 689.734 59.0403C709.043 81.3835 709.186 107.644 709.472 160.164C709.565 177.241 709.189 194.105 708.05 209.047C707.139 221 705.556 234.146 703.596 247.567C695.844 300.664 691.967 327.213 670.274 346.573C648.581 365.932 620.108 366.826 563.164 368.615C493.899 370.791 406.971 371.799 339.545 366.922C275.435 362.284 194.267 351.446 127.799 341.536C67.7578 332.584 37.7374 328.108 18.2686 305.082C-1.20013 282.056 -0.655462 253.399 0.433868 196.085C0.638499 185.319 1.03572 174.889 1.69007 165.294C2.5458 152.745 4.02692 138.901 5.85491 124.754Z" fill="#783FC7"/>
</svg>
