<svg width="366" height="436" viewBox="0 0 366 436" fill="none" xmlns="http://www.w3.org/2000/svg">
<path opacity="0.4" d="M145.543 435.129C89.3436 433.068 61.2441 432.037 39.4534 411.797C17.6627 391.557 14.6318 364.225 8.56986 309.562C5.57099 282.519 2.85439 252.085 1.07451 219.618C-0.933981 182.981 0.0780503 148.777 2.42056 119.056C6.18473 71.297 8.06681 47.4178 29.6975 26.3983C51.3283 5.37882 77.3813 4.0753 129.487 1.46824C147.775 0.553262 165.996 -0.0406709 182.075 0.00220633C194.605 0.0356231 208.488 0.46293 222.654 1.12242C277.118 3.65791 304.35 4.92567 325.697 24.4172C347.044 43.9086 350.716 70.4824 358.061 123.63C362.561 156.194 366.023 190.648 366 219.482C365.98 245.116 363.879 275.258 361.011 304.528C355.343 362.365 352.509 391.283 330.541 411.877C308.572 432.471 279.31 433.44 220.786 435.38C209.704 435.748 198.949 435.976 189.054 435.998C175.66 436.028 160.75 435.687 145.543 435.129Z" fill="#783FC7"/>
</svg>
