<svg width="586" height="405" viewBox="0 0 586 405" fill="none" xmlns="http://www.w3.org/2000/svg">
<g clip-path="url(#clip0_159_31050)">
<g opacity="0.3">
<path d="M531.185 372.16C529.115 370.166 526.923 368.283 524.535 366.601C523.927 366.158 522.889 366.412 522.437 367.064C522.007 367.761 522.174 368.629 522.851 369.096C523.39 369.516 523.976 369.913 524.515 370.332C524.784 370.542 525.054 370.752 525.323 370.961C525.434 371.077 525.593 371.171 525.704 371.287C525.524 371.147 525.883 371.427 525.704 371.287C525.746 371.379 525.883 371.427 525.904 371.473C526.934 372.333 527.938 373.261 528.941 374.19C529.475 374.723 530.448 374.831 531.059 374.274C531.621 373.738 531.761 372.785 531.207 372.206L531.185 372.16Z" fill="white"/>
<path d="M528.226 376.405C526.211 373.775 523.877 371.457 521.299 369.363C521.029 369.153 520.495 369.121 520.166 369.16C519.811 369.268 519.403 369.511 519.249 369.804C518.792 370.569 519.012 371.301 519.662 371.836C519.863 372.022 519.62 371.744 519.683 371.882C519.725 371.974 519.863 372.022 519.953 372.092C520.111 372.186 520.243 372.347 520.354 372.463C520.645 372.719 520.935 372.974 521.226 373.23C521.807 373.741 522.361 374.32 522.915 374.898C524.003 376.01 525.016 377.212 525.982 378.435C526.441 379.058 527.537 379.055 528.099 378.519C528.736 377.894 528.727 377.12 528.247 376.451L528.226 376.405Z" fill="white"/>
<path d="M524.225 380.52C521.857 376.996 519.027 373.85 515.71 371.15C515.129 370.639 514.016 370.983 513.612 371.613C513.155 372.378 513.376 373.11 514.026 373.645C513.867 373.552 514.068 373.737 514.136 373.761C514.226 373.831 514.316 373.901 514.427 374.017C514.607 374.157 514.807 374.342 515.008 374.528C515.388 374.853 515.7 375.155 516.08 375.48C516.793 376.153 517.458 376.848 518.124 377.542C518.741 378.259 519.359 378.975 519.976 379.692C520.282 380.107 520.567 380.476 520.873 380.891C520.915 380.983 520.958 381.075 521.047 381.145C520.963 380.961 521.089 381.237 521.111 381.282C521.216 381.512 521.438 381.743 521.591 381.951C522.002 382.596 522.869 382.975 523.59 382.533C524.237 382.181 524.726 381.234 524.246 380.566L524.225 380.52Z" fill="white"/>
<path d="M518.496 381.374C515.296 378.176 511.805 375.223 508.016 372.629C507.36 372.207 506.37 372.439 505.918 373.091C505.44 373.811 505.655 374.656 506.331 375.124C509.872 377.554 513.211 380.3 516.231 383.358C516.785 383.937 517.717 383.954 518.348 383.442C518.911 382.906 519.051 381.953 518.496 381.374Z" fill="white"/>
<path d="M509.336 382.298C506.697 379.065 503.624 376.142 500.322 373.603C499.714 373.159 498.628 373.435 498.224 374.065C497.767 374.83 497.988 375.563 498.637 376.098C499.446 376.727 500.075 377.216 500.835 377.867C501.596 378.518 502.309 379.19 503.043 379.909C504.49 381.3 505.815 382.803 507.092 384.328C507.599 384.929 508.647 384.948 509.209 384.412C509.798 383.809 509.885 382.991 509.357 382.344L509.336 382.298Z" fill="white"/>
<path d="M501.449 384.362C499.082 380.337 495.92 376.844 492.169 373.955C491.54 373.466 490.523 373.766 490.071 374.417C489.593 375.137 489.856 375.961 490.485 376.45C493.718 378.966 496.658 382.227 498.746 385.769C499.157 386.414 500.003 386.748 500.745 386.352C501.461 386.023 501.813 385.029 501.401 384.384L501.449 384.362Z" fill="white"/>
<path d="M494.358 383.507C491.343 380.335 488.18 377.342 484.82 374.551C484.191 374.062 483.361 373.887 482.703 374.467C482.167 374.935 481.974 376.024 482.555 376.535C485.915 379.326 489.126 382.297 492.093 385.491C492.647 386.069 493.579 386.086 494.21 385.574C494.82 385.017 494.865 384.107 494.358 383.507Z" fill="white"/>
<path d="M488.507 384.47C485.556 381.436 482.625 378.447 479.674 375.413C479.14 374.88 478.167 374.771 477.557 375.329C476.994 375.865 476.854 376.818 477.409 377.397C480.36 380.431 483.291 383.42 486.242 386.454C486.775 386.987 487.749 387.095 488.359 386.538C488.922 386.002 489.062 385.049 488.507 384.47Z" fill="white"/>
<path d="M478.748 387.614C476.174 384.018 473.144 380.687 469.769 377.736C469.187 377.225 468.309 377.072 467.651 377.652C467.068 378.142 466.922 379.209 467.503 379.72C470.879 382.671 473.84 385.978 476.483 389.598C476.942 390.221 478.064 390.15 478.6 389.682C479.258 389.102 479.207 388.237 478.748 387.614Z" fill="white"/>
<path d="M470.254 387.348C467.996 383.94 465.447 380.776 462.511 377.902C461.978 377.369 461.004 377.26 460.394 377.818C459.832 378.354 459.692 379.307 460.246 379.886C462.982 382.575 465.488 385.646 467.529 388.709C467.941 389.354 468.808 389.734 469.529 389.292C470.176 388.939 470.617 388.014 470.185 387.324L470.254 387.348Z" fill="white"/>
<path d="M462.976 386.966C460.358 383.778 457.497 380.814 454.364 378.141C453.783 377.629 452.905 377.477 452.247 378.057C451.732 378.571 451.497 379.568 452.099 380.125C455.232 382.798 458.093 385.762 460.711 388.95C461.218 389.55 462.266 389.569 462.828 389.034C463.417 388.43 463.504 387.612 462.976 386.966Z" fill="white"/>
<path d="M456.456 386.346C453.345 383.718 450.483 380.754 447.982 377.568C447.523 376.946 446.427 376.949 445.864 377.485C445.228 378.11 445.236 378.884 445.716 379.553C448.218 382.738 451.079 385.702 454.191 388.33C454.772 388.841 455.65 388.993 456.308 388.414C456.823 387.9 457.058 386.903 456.456 386.346Z" fill="white"/>
<path d="M447.41 388.275C445.201 384.845 442.434 381.837 439.153 379.343C438.546 378.899 437.46 379.175 437.056 379.805C436.599 380.57 436.819 381.303 437.469 381.838C437.649 381.977 437.829 382.117 438.008 382.257C438.098 382.327 438.188 382.397 438.278 382.467C438.299 382.513 438.547 382.676 438.367 382.537C438.727 382.816 439.107 383.142 439.419 383.443C440.11 384.07 440.755 384.719 441.42 385.413C442.016 386.084 442.634 386.801 443.183 387.493C443.315 387.655 443.468 387.862 443.621 388.07C443.663 388.162 443.726 388.299 443.816 388.369C444.101 388.738 443.753 388.232 443.858 388.461C444.164 388.876 444.401 389.267 444.659 389.704C445.071 390.349 445.938 390.729 446.659 390.287C447.306 389.934 447.747 389.009 447.315 388.319L447.41 388.275Z" fill="white"/>
<path d="M440.85 388.954C438.529 385.908 435.793 383.219 432.665 380.933C432.058 380.49 430.972 380.766 430.568 381.395C430.09 382.115 430.332 382.893 430.981 383.428C431.341 383.708 431.7 383.987 432.059 384.267C432.149 384.337 432.239 384.406 432.329 384.476C432.329 384.476 432.619 384.732 432.508 384.616C432.418 384.546 432.709 384.802 432.688 384.756C432.73 384.848 432.846 384.85 432.889 384.942C433.58 385.568 434.272 386.195 434.916 386.844C436.205 388.142 437.419 389.529 438.538 390.96C438.997 391.582 440.092 391.58 440.655 391.044C441.291 390.418 441.283 389.644 440.803 388.976L440.85 388.954Z" fill="white"/>
<path d="M432.48 387.574C430.019 384.981 427.49 382.364 425.03 379.771C424.497 379.238 423.523 379.13 422.913 379.687C422.35 380.223 422.21 381.176 422.765 381.755C425.225 384.348 427.754 386.965 430.215 389.558C430.748 390.091 431.722 390.2 432.332 389.642C432.894 389.106 433.034 388.153 432.48 387.574Z" fill="white"/>
<path d="M425.877 388.157C423.629 385.022 421.233 382.066 418.551 379.242C418.018 378.709 417.044 378.6 416.434 379.158C415.824 379.716 415.732 380.647 416.286 381.226C418.9 384.026 421.364 387.006 423.611 390.141C424.07 390.764 425.193 390.693 425.729 390.225C426.365 389.6 426.357 388.826 425.877 388.157Z" fill="white"/>
<path d="M420.362 387.968C418.499 385.545 416.589 383.144 414.726 380.722C414.267 380.099 413.172 380.102 412.609 380.638C411.972 381.263 411.981 382.037 412.461 382.706L418.097 389.952C418.556 390.575 419.651 390.572 420.214 390.036C420.851 389.411 420.842 388.637 420.362 387.968Z" fill="white"/>
<path d="M415.178 388.624C414.249 387.606 413.347 386.52 412.561 385.437C412.498 385.299 412.387 385.183 412.276 385.067C412.234 384.976 412.213 384.93 412.171 384.838C412.065 384.608 412.107 384.7 412.171 384.838C411.975 384.539 411.801 384.285 411.606 383.986C411.216 383.387 410.847 382.834 410.457 382.236C410.045 381.591 409.178 381.211 408.457 381.653C407.763 382.028 407.369 382.931 407.801 383.621C409.357 386.129 411.082 388.504 413.051 390.656C413.537 391.211 414.606 391.276 415.168 390.74C415.778 390.182 415.823 389.273 415.316 388.672L415.178 388.624Z" fill="white"/>
</g>
<path d="M504.063 164.523C501.263 166.021 498.197 166.889 495.083 167.543C487.721 169.056 480.352 169.115 473.023 167.47C471.727 167.191 470.483 166.754 469.24 166.316C468.485 166.03 467.841 165.488 467.783 164.657C467.709 163.61 468.466 163.031 469.368 162.688C470.237 162.348 471.109 162.039 471.986 161.791C477.715 160.208 483.434 158.472 489.213 157.134C493.2 156.201 497.284 155.725 501.328 155.129C503.066 154.881 504.743 155.133 506.413 155.726C509.133 156.739 509.958 159.403 507.784 162.063C506.87 162.684 505.508 163.74 503.999 164.528L504.063 164.523ZM499.174 158.993C495.511 159.563 491.889 160.253 488.274 161.036C483.499 162.117 478.764 163.32 474.029 164.522C473.684 164.609 473.381 164.847 473.041 164.995C473.28 165.225 473.397 165.526 473.59 165.543C482.515 166.734 491.255 166.206 499.739 162.944C501.324 162.336 502.794 161.458 504.266 160.611C504.298 160.609 504.328 160.576 504.357 160.543C504.992 160.034 504.669 159.067 503.891 158.906C502.273 158.588 500.689 158.762 499.174 158.993Z" fill="white"/>
<path d="M461.206 179.273C464.355 180.638 467.532 181.938 470.684 183.334C476.522 185.909 481.981 189.041 486.595 193.417C488.143 194.864 489.478 196.483 490.102 198.495C490.811 200.812 489.527 202.679 487.105 202.976C486.34 203.062 485.501 203.028 484.721 202.897C483.68 202.721 482.635 202.484 481.643 202.088C471.201 198.033 463.925 190.544 458.117 181.518C457.283 180.176 458.58 178.494 460.15 178.881C460.444 178.954 460.743 179.088 461.208 179.304L461.206 179.273ZM462.973 184.755C467.894 190.76 473.648 195.803 481.03 198.86C482.355 199.42 483.791 199.723 485.224 199.995C485.256 199.992 485.288 199.99 485.32 199.988C486.031 200.031 486.524 199.279 486.191 198.648C485.327 196.872 484.456 195.906 482.62 194.479C479.29 191.912 475.755 189.64 471.931 187.825C469.104 186.469 466.189 185.243 462.969 183.79C462.957 184.538 462.902 184.667 462.939 184.727L462.973 184.755Z" fill="white"/>
<path d="M465.99 144.234C468.285 141.203 470.514 138.146 472.946 135.231C475.615 132.018 478.418 128.889 481.189 125.763C482.678 124.068 484.549 122.782 486.642 121.916C489.859 120.565 492.676 122.67 492.236 126.036C492.175 126.539 492.052 127.078 491.795 127.532C490.65 129.546 489.644 131.705 488.164 133.525C484.852 137.656 480.639 140.854 476.106 143.607C473.516 145.194 470.782 146.541 468.047 147.889C467.735 148.036 467.424 148.183 467.111 148.298C465.45 148.915 463.973 147.119 464.934 145.68C465.253 145.19 465.641 144.757 465.992 144.265L465.99 144.234ZM471.492 143.842C476.648 140.795 481.345 137.157 485.174 132.616C486.362 131.222 487.346 129.656 488.233 128.097C488.289 127.969 488.378 127.869 488.433 127.74C489.174 126.379 487.376 125.042 486.196 126.092C484.229 127.853 482.16 129.527 480.433 131.488C477.159 135.243 474.091 139.17 470.954 143.039C470.896 143.136 470.839 143.234 470.781 143.332C470.648 143.715 471.092 144.089 471.463 143.875L471.492 143.842Z" fill="white"/>
<path d="M74.9827 164.371C75.4845 161.083 74.8354 158.518 74.4883 155.942C74.1327 153.409 73.2341 150.943 72.97 148.481C74.0173 147.924 74.3611 148.584 74.5931 149.01C77.0151 153.423 78.339 158.207 78.9944 163.156C79.1141 164.01 79.0471 164.914 78.9072 165.786C78.5778 167.908 77.0345 169.133 74.8463 168.826C73.4299 168.629 72.0681 167.985 70.6739 167.634C69.7495 167.404 68.791 167.344 67.8072 167.19C67.0862 168.934 67.6634 170.365 67.7418 171.774C67.8434 173.815 68.1656 175.857 68.0857 177.879C67.9454 181.08 66.2863 182.705 63.0409 182.653C61.3275 182.618 59.555 182.217 57.9489 181.604C56.197 180.925 54.6085 179.785 52.9739 178.83C52.7213 178.682 52.5009 178.462 52.3349 178.234C51.9011 177.626 51.5472 176.885 52.089 176.252C52.4134 175.868 53.1161 175.532 53.5791 175.599C55.462 175.889 57.2989 176.364 59.1648 176.739C60.2825 176.973 61.4055 177.136 62.7591 177.382C62.8498 176.447 63.0524 175.747 62.9954 175.065C62.8831 173.604 62.6078 172.163 62.4412 170.709C62.3285 169.69 62.1886 168.673 62.2269 167.648C62.4517 163.017 65.2341 161.115 69.6506 162.496C70.4816 162.751 71.2752 163.149 72.0977 163.447C72.905 163.733 73.709 163.991 74.9742 164.413L74.9827 164.371Z" fill="white"/>
<path d="M132.251 201.131C134.74 201.055 136.326 202.487 136.303 204.787C136.273 208.688 131.308 213.527 127.147 213.684C124.308 213.799 122.208 211.22 122.869 208.441C123.643 205.066 128.575 201.24 132.251 201.112L132.251 201.131ZM132.637 203.462C129.522 203.114 125.542 206.755 125.581 209.511C125.586 210.246 126.526 211.091 127.264 211.047C130.083 210.879 133.503 207.566 133.483 204.845C133.479 204.294 132.929 203.499 132.637 203.462Z" fill="white"/>
<path d="M139.202 228.937C138.755 231.725 135.952 234.175 133.131 234.233C131.088 234.282 130.008 232.911 130.559 230.981C131.318 228.304 133.037 226.507 135.932 225.911C138.205 225.443 139.556 226.743 139.202 228.918L139.202 228.937ZM136.224 228.71C135.11 228.022 134.277 228.568 133.504 229.222C132.769 229.837 132.889 230.308 133.986 231.347C135.188 230.815 136.156 230.095 136.224 228.71Z" fill="white"/>
<path d="M149.29 220.67C149.72 218.158 152.236 216.147 154.882 216.21C156.225 216.24 157.245 217.321 157.137 218.616C156.902 221.135 154.254 223.614 151.59 223.81C150.014 223.923 148.973 222.512 149.29 220.67ZM154.102 218.724C152.777 218.38 152.023 219.033 151.366 219.809C151.231 219.983 151.195 220.353 151.313 220.53C151.431 220.726 151.803 220.98 151.997 220.913C153.123 220.569 154.092 220.051 154.122 218.705L154.102 218.724Z" fill="white"/>
<path d="M425.697 101.9C427.575 101.808 429.223 100.137 429.017 98.512C428.765 96.4288 426.956 94.8035 424.988 94.8722C423.271 94.9409 421.669 96.6578 421.691 98.3746C421.737 100.389 423.569 102.014 425.697 101.9Z" fill="white"/>
<path d="M93.6974 209.9C95.5746 209.808 97.2227 208.137 97.0167 206.512C96.7649 204.429 94.9565 202.804 92.9878 202.872C91.2709 202.941 89.6685 204.658 89.6914 206.375C89.7372 208.389 91.5685 210.014 93.6974 209.9Z" fill="white"/>
<path d="M147.697 117.9C149.575 117.808 151.223 116.137 151.017 114.512C150.765 112.429 148.956 110.804 146.988 110.872C145.271 110.941 143.669 112.658 143.691 114.375C143.737 116.389 145.569 118.014 147.697 117.9Z" fill="white"/>
<path d="M241.265 53.8895C236.876 56.7597 236.257 62.7979 239.959 66.5267C244.349 63.6564 244.967 57.6182 241.265 53.8895Z" fill="#97C124"/>
<path d="M217.446 69.6373C212.266 70.835 207.019 67.7008 205.732 62.6492C204.452 57.5863 207.616 52.5222 212.802 51.3132C217.983 50.1155 222.668 52.1151 222.85 58.6906C225.639 64.7294 222.626 68.4396 217.446 69.6373Z" fill="#E7194A"/>
<path d="M232.208 84.8405C229.359 89.4109 223.228 90.8253 218.516 88.0145C213.792 85.1972 212.275 79.2172 215.124 74.6468C217.973 70.0764 222.855 68.2259 227.907 72.9444C234.44 75.4101 235.051 80.2814 232.208 84.8405Z" fill="#E7194A"/>
<path d="M219.004 58.7215C218.717 57.5801 218.868 56.331 219.543 55.2648C219.699 54.9946 220.059 54.9172 220.341 55.0797C220.611 55.2357 220.706 55.5909 220.539 55.8547C219.527 57.4773 220.069 59.6068 221.745 60.6044C222.027 60.7669 222.11 61.1156 221.943 61.3793C221.787 61.6496 221.427 61.727 221.146 61.5645C220.038 60.9096 219.302 59.8694 219.015 58.728" fill="#262626"/>
<path d="M220.687 58.8226C220.646 58.6337 220.658 58.4306 220.773 58.2569C225.086 51.3337 234.424 49.1741 241.565 53.4471C241.937 53.6616 242.043 54.1281 241.824 54.4819C241.604 54.8357 241.131 54.953 240.766 54.7272C234.344 50.8992 225.963 52.8309 222.089 59.0465C221.87 59.4003 221.397 59.5175 221.032 59.2918C220.851 59.1878 220.728 59.0114 220.687 58.8226Z" fill="#262626"/>
<path d="M223.061 72.6532C222.98 72.3513 223.173 72.0425 223.48 71.9794C223.793 71.905 224.102 72.0983 224.189 72.3889C224.655 74.2342 226.583 75.3926 228.474 74.9527C228.787 74.8783 229.096 75.0716 229.183 75.3623C229.264 75.6642 229.071 75.973 228.757 76.0474C226.241 76.6361 223.688 75.1024 223.067 72.642" fill="#262626"/>
<path d="M225.407 73.7378C223.188 64.9955 230.215 55.8413 241.077 53.3304C241.491 53.2387 241.907 53.4792 242.017 53.8877C242.115 54.2897 241.863 54.6998 241.45 54.7915C231.42 57.1077 224.908 65.4483 226.919 73.3801C227.018 73.7821 226.766 74.1922 226.353 74.2839C225.939 74.3756 225.523 74.135 225.413 73.7266" fill="#262626"/>
<path d="M194.698 169.226C198.439 161.229 188.171 154.331 183.958 152.919C181.136 151.967 167.851 146.108 164.115 154.119C160.374 162.115 160.751 174.266 170.401 179.435C180.832 185.027 190.962 177.236 194.703 169.24L194.698 169.226Z" fill="#975B2E"/>
<path d="M164.346 153.703C167.393 147.937 176.618 146.822 184.95 151.212C193.282 155.602 197.566 163.834 194.519 169.599C191.472 175.365 182.248 176.48 173.916 172.09C165.584 167.701 161.299 159.468 164.346 153.703Z" fill="#7EB73C"/>
<path d="M174.041 157.947C174.952 156.163 178.382 156.088 181.701 157.78C185.021 159.471 186.972 162.288 186.06 164.072C185.148 165.856 181.719 165.931 178.399 164.239C175.08 162.548 173.129 159.731 174.041 157.947Z" fill="#B9D988"/>
<path d="M176.997 169.083C176.792 169.525 177.036 170.089 177.54 170.334C178.043 170.578 178.622 170.422 178.826 169.98C179.03 169.538 179.097 168.325 178.594 168.08C178.091 167.836 177.215 168.636 176.997 169.083Z" fill="black"/>
<path d="M171.119 165.167C170.612 165.3 170.383 165.812 170.59 166.309C170.797 166.806 171.375 167.089 171.878 166.942C172.386 166.809 173.35 166.09 173.148 165.607C172.941 165.11 171.627 165.034 171.119 165.167Z" fill="black"/>
<path d="M189.277 166.802C189.78 167.046 190.359 166.89 190.564 166.448C190.768 166.006 190.524 165.442 190.021 165.198C189.517 164.953 188.209 164.749 188.005 165.191C187.801 165.633 188.774 166.557 189.282 166.816L189.277 166.802Z" fill="black"/>
<path d="M185.754 172.195C185.961 172.693 186.54 172.976 187.043 172.829C187.551 172.696 187.78 172.183 187.573 171.685C187.366 171.188 186.479 170.189 185.975 170.336C185.467 170.469 185.533 171.702 185.749 172.181L185.754 172.195Z" fill="black"/>
<path d="M182.864 154.83C183.068 154.388 182.824 153.824 182.321 153.579C181.818 153.335 181.239 153.491 181.035 153.933C180.831 154.375 180.764 155.588 181.267 155.833C181.77 156.077 182.646 155.277 182.864 154.83Z" fill="black"/>
<path d="M188.204 160.347C188.712 160.214 188.94 159.702 188.734 159.205C188.527 158.708 187.949 158.425 187.445 158.572C186.938 158.705 185.974 159.424 186.176 159.907C186.383 160.404 187.696 160.48 188.204 160.347Z" fill="black"/>
<path d="M169.74 159.22C169.236 158.975 168.657 159.131 168.453 159.573C168.249 160.016 168.493 160.579 168.996 160.824C169.499 161.069 170.807 161.273 171.012 160.83C171.216 160.388 170.243 159.465 169.735 159.206L169.74 159.22Z" fill="black"/>
<path d="M173.275 154.012C173.068 153.515 172.489 153.231 171.986 153.379C171.478 153.512 171.249 154.025 171.456 154.522C171.663 155.02 172.55 156.019 173.054 155.871C173.562 155.738 173.496 154.505 173.28 154.026L173.275 154.012Z" fill="black"/>
<path d="M448.869 154.899C448.984 155.735 449.044 156.523 449.052 157.275C449.053 158.611 448.899 159.84 448.607 160.968C448.607 160.968 448.615 160.991 448.603 160.995C448.578 161.083 448.554 161.17 448.538 161.242C448.538 161.242 448.545 161.266 448.522 161.273C448.355 161.857 448.158 162.425 447.924 162.965C446.349 166.643 439.463 172.168 434.777 173.822C434.741 173.833 434.693 173.849 434.658 173.861C434.658 173.861 434.646 173.865 434.634 173.869C434 174.076 433.331 174.295 432.638 174.483C431.909 174.682 431.16 174.861 430.38 175.024C430.169 175.066 429.946 175.113 429.731 175.143C428.628 175.333 427.494 175.466 426.324 175.492C423.365 175.587 420.273 175.078 417.37 173.488C415.145 172.271 413.309 170.304 411.893 168.081C411.791 167.93 411.7 167.774 411.609 167.618C411.526 167.487 411.456 167.351 411.377 167.231C411.231 166.988 411.093 166.729 410.959 166.481C410.742 166.063 410.542 165.652 410.353 165.237C410.349 165.225 410.341 165.201 410.337 165.189C409.959 164.44 409.657 163.639 409.407 162.874C408.745 160.854 408.461 158.935 408.556 157.488C408.673 155.663 408.908 154.156 409.277 152.778C409.435 152.17 409.629 151.591 409.839 151.019C410.234 149.963 410.729 148.967 411.311 147.916C411.367 147.805 411.436 147.69 411.496 147.591C411.68 147.266 411.917 146.937 412.177 146.601C412.489 146.22 412.841 145.84 413.209 145.468C413.997 144.681 414.892 143.938 415.683 143.322C415.978 143.092 416.254 142.883 416.521 142.69C416.713 142.547 416.896 142.421 417.056 142.303C417.635 141.888 418.018 141.643 418.018 141.643C418.018 141.643 418.07 141.6 418.166 141.529C418.262 141.458 418.401 141.359 418.577 141.249C418.633 141.217 418.685 141.174 418.741 141.142C418.872 141.059 419.036 140.953 419.204 140.858C419.228 140.85 419.251 140.843 419.271 140.823C419.75 140.547 420.368 140.212 421.102 139.866C421.357 139.756 421.608 139.634 421.891 139.528C422.242 139.387 422.629 139.234 423.019 139.092C423.187 139.038 423.354 138.983 423.521 138.928C423.617 138.897 423.713 138.865 423.796 138.838C424.501 138.607 425.258 138.412 426.078 138.249C426.126 138.234 426.174 138.218 426.214 138.218C428.077 137.846 430.222 137.647 432.604 137.806C433.252 137.846 433.888 137.928 434.512 138.055C434.567 138.063 434.639 138.08 434.694 138.088C434.75 138.096 434.822 138.112 434.877 138.121C434.921 138.133 434.961 138.133 435.004 138.145C435.048 138.157 435.092 138.169 435.132 138.17C435.175 138.182 435.231 138.19 435.275 138.202C435.302 138.206 435.33 138.21 435.362 138.226C435.39 138.231 435.421 138.247 435.461 138.247C435.505 138.259 435.549 138.271 435.592 138.283C435.592 138.283 435.604 138.279 435.62 138.288C435.664 138.3 435.708 138.312 435.751 138.324C435.795 138.336 435.854 138.356 435.898 138.369C435.898 138.369 435.926 138.373 435.942 138.381C435.954 138.377 435.986 138.393 436.001 138.401C436.045 138.413 436.077 138.429 436.12 138.441C436.148 138.445 436.164 138.453 436.196 138.47C436.327 138.506 436.462 138.554 436.597 138.603C437.224 138.821 437.839 139.083 438.434 139.364C438.78 139.529 439.105 139.714 439.434 139.91C439.466 139.927 439.497 139.943 439.529 139.959C439.827 140.139 440.112 140.324 440.397 140.508C440.5 140.58 440.603 140.652 440.706 140.725C440.932 140.889 441.158 141.053 441.372 141.221C441.891 141.634 442.394 142.078 442.861 142.534C444.602 144.253 445.987 146.301 446.966 148.442C447.123 148.801 447.277 149.148 447.418 149.498C447.43 149.534 447.442 149.57 447.453 149.606C448.199 151.519 448.655 153.275 448.881 154.895L448.869 154.899Z" fill="#FFBB29"/>
<path d="M420.16 143.456C420.16 143.456 418.409 143.686 418.495 143.949C418.581 144.212 419.835 144.079 419.718 144.409C419.613 144.734 418.144 145.745 418.135 145.96C418.137 146.17 419.841 145.149 420.298 145.211C420.755 145.273 420.297 146.906 420.516 146.966C421.119 147.153 420.952 144.984 421.629 144.828C422.306 144.673 423.023 145.894 423.231 145.76C423.522 145.558 422.293 144.028 422.293 144.028C422.293 144.028 423.984 143.938 424.053 143.704C424.122 143.469 422.298 143.153 422.298 143.153C422.298 143.153 423.092 141.98 422.723 141.744C422.354 141.507 421.467 143.002 421.261 142.858C421.067 142.709 419.818 141.927 419.721 142.317C419.619 142.694 419.982 143.396 420.152 143.472L420.16 143.456Z" fill="#8CC747"/>
</g>
<defs>
<clipPath id="clip0_159_31050">
<rect width="586" height="405" fill="white"/>
</clipPath>
</defs>
</svg>
