<svg width="880" height="625" viewBox="0 0 880 625" fill="none" xmlns="http://www.w3.org/2000/svg">
<g clip-path="url(#clip0_736_265)">
<rect width="880" height="625" fill="#8EC046"/>
<path opacity="0.2" d="M878.857 -130C878.857 -130 813.352 -108.013 814.009 -54.5904C814.348 -26.9915 839.688 -16.3167 836.485 10.9167C833.092 39.7723 803.134 37.9702 796.597 65.7358C784.674 116.374 842.824 125.222 861.094 175.305C878.857 224 855.208 259.499 826.025 276.393C804.143 289.06 789.24 263.981 805.916 248.122C829.356 225.829 923.901 269.171 927.308 365" stroke="white" stroke-width="4" stroke-linecap="round"/>
<path opacity="0.2" d="M896.109 396.195C874.706 397.222 855.536 408.213 852.696 426.251C848.862 450.602 873.747 458.623 884.503 453.226C892.187 449.372 891.14 439.389 880.691 438.037C862.778 435.719 783.863 453.146 775.611 535.356C770.66 584.682 811.775 602.571 820.124 591.94C822.402 589.041 819.509 583.482 814.358 586.672C804.572 592.733 809.564 613.41 817.261 621.841C831.086 636.986 851.02 638.895 861.121 636.852" stroke="white" stroke-width="4" stroke-linecap="round"/>
<path opacity="0.2" d="M63.9307 -137C63.9307 -137 107.602 -35.1707 104.168 18.9423C98.0912 114.683 -2.4712 108.167 -13.2514 147.966C-16.72 160.771 -24.8762 195.341 3.43886 203.01C12.1259 205.363 19.4053 205.263 28.9973 198.536C33.0101 195.722 35.6937 191.026 33.6359 186.842C31.5782 182.659 24.101 182.188 21.9191 188.331C18.2376 198.697 46.3211 199.602 58.4178 187.856" stroke="white" stroke-width="4" stroke-linecap="round"/>
<path opacity="0.2" d="M46.7754 920.723C54.1075 860.859 121.466 863.793 134.213 804.99C146.647 747.634 74.6639 724 78.371 665.221C80.6704 628.762 100.28 624.614 96.5668 588.217C90.8943 532.618 24.4713 534.687 10.8399 480.488C-2.79141 426.288 55.5005 379.73 74.351 377.622C93.2016 375.515 97.3219 395.37 76.5943 397.687C55.8667 400.005 -3.43834 352.775 -6.88145 321.978" stroke="white" stroke-width="4" stroke-linecap="round"/>
<path d="M137.88 110.688C137.562 108.075 137.378 105.998 136.993 103.937C136.926 103.552 136.071 103.184 135.535 103.083C135.301 103.05 134.732 103.686 134.681 104.071C134.531 105.361 134.564 106.668 134.497 107.957C134.447 108.895 134.313 109.833 134.212 110.956C132.588 111.391 131.08 111.776 128.986 112.329C129.891 112.999 130.276 113.451 130.779 113.619C131.834 113.987 132.923 114.222 134.045 114.523C134.799 116.5 134.497 118.476 134.782 120.369C135.05 122.195 134.799 124.205 136.172 125.913C137.177 123.97 137.16 123.97 137.261 120.419C137.311 118.66 137.445 116.902 137.545 114.959C139.539 114.741 141.297 114.624 142.989 114.289C143.425 114.205 143.86 113.434 143.994 112.915C144.061 112.664 143.542 111.994 143.19 111.894C141.482 111.425 139.74 111.09 137.88 110.671V110.688Z" fill="white"/>
<path d="M116.441 93.033C115.068 93.1 113.862 94.3228 114.013 95.512C114.197 97.0362 115.52 98.2255 116.961 98.1752C118.217 98.125 119.389 96.8687 119.373 95.6125C119.339 94.1385 117.999 92.9493 116.441 93.033Z" fill="white"/>
<path d="M666.363 38.8084C666.798 42.3795 667.05 45.2181 667.576 48.0337C667.668 48.5602 668.835 49.0638 669.568 49.2012C669.888 49.247 670.667 48.3771 670.735 47.8506C670.941 46.0879 670.896 44.3024 670.987 42.5398C671.056 41.2578 671.239 39.9759 671.376 38.4422C673.597 37.847 675.657 37.3205 678.519 36.5651C677.282 35.6494 676.756 35.0313 676.069 34.8024C674.627 34.2988 673.139 33.9783 671.605 33.5663C670.575 30.8651 670.987 28.1639 670.598 25.5771C670.232 23.0819 670.575 20.3349 668.698 18C667.325 20.6554 667.347 20.6554 667.21 25.5084C667.141 27.912 666.958 30.3157 666.821 32.9711C664.097 33.2687 661.693 33.4289 659.381 33.8867C658.786 34.0012 658.191 35.0542 658.008 35.7639C657.916 36.1072 658.626 37.0229 659.107 37.1602C661.441 37.8012 663.822 38.259 666.363 38.8313V38.8084Z" fill="white"/>
<path d="M695.663 62.9361C697.54 62.8445 699.189 61.1734 698.983 59.5481C698.731 57.465 696.922 55.8397 694.954 55.9083C693.237 55.977 691.634 57.6939 691.657 59.4108C691.703 61.4252 693.534 63.0505 695.663 62.9361Z" fill="white"/>
<path d="M122.94 468.915C122.46 472.53 119.877 474.587 116.341 474.172C110.344 473.479 104.083 465.49 104.838 459.442C105.341 455.314 109.813 452.704 113.933 454.123C118.944 455.803 123.652 463.578 122.969 468.918L122.94 468.915ZM119.262 469.058C120.543 464.608 115.892 458.242 111.64 457.84C110.507 457.726 108.981 458.945 108.872 460.021C108.456 464.129 112.737 469.628 116.929 470.053C117.779 470.139 119.134 469.474 119.262 469.058Z" fill="white"/>
<path d="M80.3058 474.189C76.1251 473.079 73.0278 468.615 73.6134 464.525C74.0277 461.562 76.3952 460.227 79.23 461.344C83.1666 462.887 85.5179 465.672 85.7424 469.959C85.9169 473.325 83.5943 475.065 80.3341 474.192L80.3058 474.189ZM81.3706 469.889C82.6955 468.392 82.0538 467.096 81.2336 465.868C80.4643 464.703 79.7105 464.798 77.8502 466.213C78.3807 468.041 79.2573 469.561 81.3706 469.889Z" fill="white"/>
<path d="M91.0541 490.729C94.8127 491.768 97.3014 495.74 96.5715 499.559C96.2038 501.496 94.2982 502.792 92.3323 502.421C88.5167 501.663 85.3398 497.421 85.6759 493.534C85.8798 491.236 88.2981 489.964 91.0541 490.729ZM92.8928 498.013C93.7394 496.153 92.9163 494.953 91.8805 493.875C91.6456 493.651 91.0848 493.537 90.7843 493.678C90.4555 493.817 89.976 494.312 90.0323 494.604C90.291 496.29 90.856 497.778 92.9183 498.044L92.8928 498.013Z" fill="white"/>
<path d="M831.603 116.389C830.55 113.386 828.849 111.509 827.398 109.489C825.96 107.507 824.093 105.827 822.763 103.865C823.398 102.924 823.985 103.328 824.373 103.583C828.402 106.225 831.67 109.673 834.448 113.561C834.932 114.228 835.282 115.023 835.556 115.822C836.231 117.763 835.477 119.492 833.489 120.216C832.204 120.686 830.764 120.753 829.428 121.083C828.544 121.304 827.707 121.684 826.806 121.996C826.98 123.793 828.111 124.743 828.81 125.899C829.813 127.579 831.003 129.159 831.844 130.904C833.163 133.672 832.492 135.791 829.725 137.205C828.261 137.945 826.584 138.403 824.951 138.606C823.165 138.819 821.311 138.57 819.5 138.497C819.22 138.486 818.935 138.398 818.692 138.281C818.053 137.962 817.42 137.494 817.594 136.716C817.695 136.245 818.139 135.646 818.56 135.495C820.281 134.894 822.047 134.47 823.793 133.949C824.842 133.644 825.865 133.278 827.119 132.877C826.776 132.046 826.632 131.363 826.277 130.813C825.526 129.628 824.646 128.535 823.852 127.381C823.299 126.57 822.724 125.774 822.296 124.89C820.405 120.876 821.902 118.018 826.255 117.201C827.072 117.043 827.921 117.023 828.75 116.905C829.561 116.784 830.356 116.641 831.615 116.429L831.603 116.389Z" fill="white"/>
</g>
<defs>
<clipPath id="clip0_736_265">
<rect width="880" height="625" fill="white"/>
</clipPath>
</defs>
</svg>
