<svg width="296" height="555" viewBox="0 0 296 555" fill="none" xmlns="http://www.w3.org/2000/svg">
<g clip-path="url(#clip0_4004_2554)">
<rect width="296" height="555" fill="#FFCD03"/>
<path d="M56.5404 490.631C94.2987 502.936 182.372 512.22 251.985 487.222C264.373 482.773 271.62 468.133 274.383 456.658C277.146 445.182 300.448 229.489 267.719 132.185C262.787 122.424 250.829 114.727 236.702 113.144C167.966 105.456 96.6238 109.508 55.0383 116.819C40.6285 119.344 29.8147 127.258 25.0371 137.452C1.73995 187.161 10.3314 418.802 29.8013 468.133C33.7826 478.196 43.3892 486.353 56.5404 490.65V490.631Z" fill="#5C0F8B"/>
<path d="M140.61 318.864C141.044 314.455 148.235 314.549 147.794 318.994C147.28 324.208 146.766 329.422 146.241 334.634C161.011 336.193 175.828 337.051 190.686 337.183C190.531 336.774 190.477 336.286 190.531 335.746C191.438 326.788 192.343 317.842 193.239 308.882C193.98 301.569 194.459 294.157 198.555 287.739C200.976 283.952 207.137 287.535 204.699 291.343C204.597 291.495 204.518 291.651 204.425 291.817C204.744 292.33 204.889 292.982 204.76 293.79C202.349 309.438 199.937 325.087 197.514 340.733C197.218 342.61 196.011 344.131 193.858 344.126C176.608 344.09 159.407 343.085 142.277 341.126C140.469 340.917 138.537 339.619 138.737 337.601C139.361 331.356 139.976 325.096 140.6 318.85L140.61 318.864Z" fill="#F6C359"/>
<path d="M143.847 282.199C144.384 281.885 146.794 285.109 147.068 285.467C148.076 286.797 148.744 288.111 149.343 289.596C149.476 289.927 149.929 289.866 150.115 289.657C150.652 289.086 150.05 288.066 149.753 287.507C149.159 286.379 148.406 285.318 147.593 284.318C147.02 283.598 144.816 280.768 143.665 281.993C143.574 282.086 143.725 282.261 143.849 282.187L143.847 282.199Z" fill="white"/>
<path d="M202.667 286.391C201.365 285.642 199.477 287.719 198.474 288.556C197.414 289.432 194.948 291.717 195.324 293.538C195.408 293.934 195.864 294.106 196.073 293.717C196.455 292.994 196.648 292.236 197.121 291.554C197.644 290.797 198.251 290.117 198.901 289.531C199.401 289.087 199.899 288.656 200.39 288.198C201.01 287.643 201.796 286.727 202.613 286.675C202.762 286.666 202.802 286.454 202.669 286.379L202.667 286.391Z" fill="white"/>
<path d="M146.42 334.337C145.804 333.841 144.782 334.711 144.241 335.11C143.457 335.695 142.834 336.397 142.207 337.184C141.438 338.139 139.675 339.689 139.908 341.165C139.986 341.657 140.652 341.759 140.788 341.234C141.136 339.856 142.26 338.834 143.081 337.802C143.724 336.995 144.385 336.349 145.191 335.78C145.671 335.443 146.376 335.21 146.485 334.509C146.496 334.45 146.46 334.381 146.417 334.349L146.42 334.337Z" fill="white"/>
<path d="M190.68 337.671C189.592 338.309 191.881 339.662 192.231 340.071C192.987 340.986 193.881 341.756 194.626 342.668C195.378 343.607 195.761 344.744 196.473 345.7C196.795 346.128 197.504 345.749 197.4 345.264C197.081 343.661 195.749 342.037 194.574 340.945C193.844 340.28 193.283 339.365 192.462 338.793C192.041 338.493 191.004 338.284 190.86 337.754C190.838 337.677 190.753 337.611 190.67 337.657L190.68 337.671Z" fill="white"/>
<path d="M193.75 324.485C194.421 321.982 194.547 319.325 194.791 316.752C195.062 313.977 195.259 311.199 195.483 308.414C195.702 305.653 195.92 302.892 196.149 300.145C196.344 297.636 196.866 294.957 196.606 292.46C196.549 291.923 195.681 291.856 195.544 292.38C194.898 294.816 194.98 297.536 194.785 300.045C194.566 302.806 194.347 305.567 194.142 308.319C193.919 311.103 193.686 313.874 193.51 316.668C193.351 319.245 193.055 321.893 193.323 324.478C193.341 324.702 193.702 324.733 193.769 324.514L193.75 324.485Z" fill="white"/>
<path d="M160.841 289.946C163.577 290.686 166.588 290.683 169.402 290.949C172.241 291.207 175.088 291.491 177.931 291.726C183.787 292.214 189.698 292.922 195.577 293.097C196.32 293.116 196.401 292.042 195.672 291.952C189.845 291.187 183.89 290.961 178.036 290.534C175.187 290.323 172.344 290.15 169.491 289.962C166.674 289.782 163.705 289.303 160.883 289.599C160.708 289.615 160.676 289.914 160.851 289.96L160.841 289.946Z" fill="white"/>
<path d="M168.038 341.396C172.499 341.877 176.959 342.431 181.434 342.841C185.68 343.232 190.145 344.02 194.415 343.705C194.813 343.671 194.865 343.008 194.478 342.922C190.32 341.936 185.779 342.003 181.523 341.732C177.037 341.442 172.55 341.287 168.065 341.059C167.846 341.054 167.82 341.38 168.035 341.408L168.038 341.396Z" fill="white"/>
<path d="M153.556 346.244C154.765 346.193 156.007 345.523 157.116 345.097C158.516 344.555 159.766 344.353 161.217 344.126C161.798 344.029 161.819 343.213 161.305 343.017C160.166 342.568 158.633 343.293 157.574 343.716C156.209 344.264 154.566 344.857 153.401 345.774C153.228 345.912 153.309 346.258 153.556 346.244Z" fill="white"/>
<path d="M159.361 347.066C162.102 345.714 165.073 345.41 167.91 344.395C168.486 344.198 168.154 343.303 167.584 343.403C164.679 343.94 161.536 344.958 159.105 346.674C158.88 346.827 159.119 347.179 159.361 347.066Z" fill="white"/>
<path d="M166.696 347.567C169.099 346.64 171.486 345.931 173.943 345.175C174.684 344.948 174.503 343.775 173.71 343.955C171.213 344.533 168.431 345.522 166.375 347.065C166.089 347.28 166.404 347.682 166.708 347.569L166.696 347.567Z" fill="white"/>
<path d="M174.366 347.96C175.575 347.713 176.64 347.132 177.744 346.607C178.349 346.318 178.971 346.008 179.635 345.865C180.223 345.732 180.786 345.864 181.323 345.611C181.605 345.481 181.738 345.041 181.488 344.81C179.665 343.068 175.855 346.628 174.133 347.316C173.762 347.466 173.97 348.044 174.352 347.97L174.366 347.96Z" fill="white"/>
<path d="M182.046 348.257C182.905 347.661 183.856 347.169 184.831 346.804C185.752 346.465 186.734 346.321 187.644 345.98C188.156 345.796 187.996 344.896 187.442 344.913C185.46 344.977 182.895 346.362 181.67 347.916C181.479 348.149 181.823 348.398 182.034 348.255L182.046 348.257Z" fill="white"/>
<path d="M187.69 348.571C190.31 347.857 193.04 347.018 195.462 345.801C196.195 345.426 195.668 344.396 194.919 344.67C192.416 345.602 189.811 346.624 187.472 347.917C187.157 348.09 187.293 348.667 187.681 348.557L187.69 348.571Z" fill="white"/>
<path d="M192.157 349.016C194.083 348.991 195.61 347.849 197.312 347.071C199.404 346.11 201.6 345.438 203.721 344.52C204.28 344.283 203.985 343.322 203.379 343.488C201.452 344.027 199.569 344.795 197.777 345.654C196 346.504 194.126 348.252 192.14 348.462C191.841 348.491 191.864 349.01 192.171 349.007L192.157 349.016Z" fill="white"/>
<path d="M204.162 338.973C203.077 338.951 202.135 339.335 201.23 339.909C200.41 340.427 199.173 341.011 198.607 341.797C198.342 342.163 198.688 342.657 199.119 342.58C199.979 342.437 200.683 341.568 201.321 341.04C202.18 340.322 203.091 339.712 204.18 339.393C204.401 339.325 204.419 338.973 204.152 338.959L204.162 338.973Z" fill="white"/>
<path d="M203.022 336.492C202.109 336.722 201.177 336.863 200.286 337.171C199.564 337.426 198.477 337.868 198.386 338.732C198.347 339.067 198.751 339.389 199.07 339.192C199.372 339.017 199.532 338.754 199.785 338.52C200.114 338.204 200.534 337.99 200.938 337.797C201.654 337.444 202.415 337.172 203.131 336.819C203.307 336.73 203.215 336.443 203.022 336.492Z" fill="white"/>
<path d="M144.225 281.622C148.908 282.549 153.803 282.684 158.549 283.084C163.427 283.497 168.31 283.887 173.193 284.277C177.977 284.672 182.765 285.044 187.551 285.427C189.939 285.612 192.337 285.811 194.725 285.995C197.184 286.193 199.728 286.591 202.194 286.497C202.995 286.466 203.072 285.416 202.293 285.267C199.873 284.795 197.294 284.782 194.832 284.596C192.541 284.417 190.237 284.236 187.946 284.058C183.063 283.668 178.19 283.293 173.305 282.915C168.516 282.543 163.728 282.172 158.949 281.814C154.109 281.457 149.144 280.795 144.285 280.985C143.878 281.005 143.838 281.536 144.237 281.624L144.225 281.622Z" fill="white"/>
<path d="M143.671 281.578C142.903 283.684 142.897 286.033 142.711 288.237C142.496 290.718 142.272 293.184 142.058 295.665C141.593 300.876 141.2 306.101 140.783 311.321C140.37 316.456 139.968 321.594 139.555 326.729C139.353 329.212 139.164 331.685 138.961 334.168C138.778 336.483 138.379 338.904 138.55 341.225C138.596 341.821 139.596 341.901 139.744 341.317C140.258 339.127 140.255 336.764 140.424 334.519C140.613 332.046 140.816 329.563 141.004 327.09L142.232 311.425C142.633 306.287 143.058 301.154 143.412 296.008C143.589 293.532 143.756 291.043 143.933 288.567C144.098 286.285 144.485 283.862 144.046 281.6C144.006 281.421 143.754 281.398 143.685 281.568L143.671 281.578Z" fill="white"/>
<path d="M202.682 286.113C201.712 290.959 201.444 295.913 201.059 300.834C200.663 305.813 200.265 310.805 199.87 315.784C199.478 320.74 199.087 325.696 198.693 330.664C198.31 335.45 197.541 340.395 197.684 345.183C197.705 345.971 198.753 346.06 198.901 345.28C199.797 340.567 199.818 335.565 200.19 330.777C200.581 325.821 200.972 320.865 201.366 315.897C201.761 310.918 202.148 305.924 202.544 300.945C202.928 296.024 203.449 291.093 203.251 286.147C203.236 285.777 202.752 285.746 202.685 286.101L202.682 286.113Z" fill="white"/>
<path d="M138.86 341.529C143.507 342.645 148.486 342.722 153.244 343.125C158.12 343.55 163.005 343.928 167.876 344.315C172.759 344.705 177.632 345.08 182.515 345.47C185 345.661 187.494 345.866 189.979 346.056C192.464 346.247 194.969 346.589 197.449 346.485C198.213 346.459 198.293 345.458 197.537 345.314C195.096 344.826 192.563 344.761 190.09 344.572C187.617 344.383 185.11 344.176 182.625 343.985C177.743 343.596 172.869 343.22 167.987 342.831C163.104 342.441 158.231 342.065 153.341 341.711C148.584 341.37 143.653 340.653 138.881 341.031C138.634 341.045 138.602 341.468 138.848 341.527L138.86 341.529Z" fill="white"/>
<path d="M149.62 288.914C152.71 289.66 156.002 289.723 159.155 290.004C162.599 290.304 166.047 290.58 169.492 290.868C172.841 291.149 176.195 291.407 179.546 291.677C182.921 291.952 186.507 292.597 189.896 292.409C190.7 292.366 190.772 291.339 189.995 291.179C186.772 290.493 183.233 290.567 179.943 290.296C176.495 290.02 173.045 289.756 169.595 289.492C166.241 289.234 162.888 288.976 159.53 288.742C156.281 288.516 152.906 288.045 149.652 288.296C149.341 288.322 149.306 288.83 149.608 288.912L149.62 288.914Z" fill="white"/>
<path d="M148.855 289.466C148.16 290.998 148.166 292.835 148.021 294.497C147.851 296.423 147.671 298.335 147.501 300.261C147.138 304.23 146.834 308.212 146.518 312.191C146.209 316.073 145.899 319.955 145.587 323.849C145.429 325.777 145.285 327.696 145.126 329.624C144.983 331.408 144.657 333.316 144.844 335.102C144.914 335.764 145.867 335.835 146.038 335.194C146.486 333.542 146.455 331.712 146.594 330.013C146.739 328.094 146.897 326.166 147.042 324.248C147.357 320.269 147.661 316.288 147.977 312.309C148.275 308.424 148.61 304.535 148.858 300.653C148.993 298.721 149.114 296.797 149.249 294.865C149.362 293.112 149.69 291.191 149.23 289.488C149.172 289.281 148.955 289.265 148.869 289.456L148.855 289.466Z" fill="white"/>
<path d="M194.868 297.87C194.031 301.113 193.881 304.475 193.614 307.814C193.334 311.347 193.054 314.88 192.774 318.413C192.499 321.922 192.209 325.441 191.934 328.95C191.674 332.181 191.056 335.625 191.311 338.856C191.357 339.452 192.346 339.53 192.494 338.946C193.265 335.788 193.182 332.296 193.442 329.066C193.717 325.556 193.995 322.035 194.27 318.526C194.55 314.993 194.83 311.46 195.098 307.925C195.363 304.598 195.73 301.253 195.422 297.914C195.401 297.641 194.943 297.603 194.879 297.872L194.868 297.87Z" fill="white"/>
<path d="M145.371 335.031C148.852 336.036 152.778 336.048 156.389 336.367C160.373 336.72 164.352 337.036 168.331 337.352C172.202 337.659 176.084 337.969 179.954 338.276C183.692 338.57 187.717 339.287 191.443 339.003C192.089 338.955 192.158 338.013 191.536 337.871C187.998 337.039 184.032 337.105 180.391 336.817C176.412 336.501 172.433 336.185 168.442 335.867C164.451 335.549 160.69 335.25 156.812 334.979C153.093 334.712 149.09 334.074 145.404 334.536C145.117 334.567 145.092 334.954 145.371 335.031Z" fill="white"/>
<mask id="mask0_4004_2554" style="mask-type:luminance" maskUnits="userSpaceOnUse" x="146" y="273" width="97" height="65">
<path d="M149.692 289.687L146.216 333.92C146.216 333.92 146.163 334.717 147.016 334.475C147.87 334.234 176.71 336.595 179.01 336.726C181.31 336.858 188.269 337.274 189.456 337.402C190.644 337.53 191.204 337.735 191.204 337.735L193.301 336.554L242.188 331.576L161.907 273.075L154.134 289.883L149.694 289.675L149.692 289.687Z" fill="white"/>
</mask>
<g mask="url(#mask0_4004_2554)">
<path d="M195.237 321.856C194.874 320.612 194.344 319.41 193.762 318.222C193.64 314.613 192.481 311.051 190.602 307.61C189.164 304.999 187.682 301.914 185.28 300.062C182.665 298.048 179.029 297.087 175.965 296.015C168.448 293.387 160.715 291.44 152.86 290.142C152.423 290.059 152.032 290.12 151.648 290.206C146.83 288.384 141.892 286.931 136.865 285.817C133.517 284.825 130.17 283.822 126.822 282.831C126.45 282.723 126.073 282.713 125.705 282.716C125.343 282.305 124.917 281.967 124.392 281.769C122.428 281.029 120.221 281.821 119.358 283.786C117.442 288.134 115.313 292.38 112.997 296.518C112.535 297.335 112.635 298.676 112.98 299.501C113.147 299.912 113.427 300.308 113.763 300.665C113.39 301.855 113.076 303.056 112.83 304.282C112.575 304.723 112.415 305.244 112.357 305.869C112.305 306.532 112.25 307.207 112.209 307.873C112.189 307.979 112.169 308.085 112.148 308.192C111.024 316.937 110.538 325.804 110.139 334.601C110.053 336.408 111.044 337.698 112.314 338.356C111.968 339.979 111.588 341.596 111.302 343.23C111.026 344.806 111.672 345.981 112.686 346.7C112.358 347.972 112.052 349.26 111.77 350.553C111.698 350.931 111.732 351.268 111.775 351.619C111.12 353.073 110.454 354.513 109.798 355.967C108.138 359.617 112.623 362.612 115.65 360.531C119.464 357.915 123.971 357.45 128.639 357.811C129.114 357.95 129.603 358.018 130.093 357.952C130.74 358.026 131.387 358.1 132.029 358.198C132.245 359.83 133.261 361.308 135.16 361.363C135.502 361.367 135.849 361.347 136.191 361.351C136.191 361.351 136.191 361.351 136.188 361.363C136.46 361.353 136.742 361.346 137.014 361.336C138.202 361.33 139.393 361.311 140.581 361.243C141.847 361.215 143.101 361.184 144.369 361.143C145.483 363.399 148.665 364.493 150.625 362.1C151.987 363.95 155.361 364.359 156.964 362.363C157.446 361.757 157.927 361.162 158.409 360.557C158.84 360.541 159.272 360.525 159.703 360.509C161.109 362.318 163.691 363.029 165.403 360.527C165.487 360.409 165.571 360.29 165.642 360.169C170.351 359.803 175.058 359.315 179.748 358.787C181.411 358.601 182.337 357.59 182.727 356.379C183.262 355.881 183.783 355.331 184.245 354.636C187.521 349.763 189.196 343.142 191.406 337.7C193.385 332.825 196.822 327.236 195.242 321.832L195.237 321.856Z" fill="#5C0F8B"/>
<path d="M195.037 320.214C191.007 316.756 191.788 310.136 189.815 305.575C187.247 299.64 181.302 297.69 175.478 296.265C175.057 296.161 174.707 296.265 174.407 296.429C170.34 294.383 165.778 293.467 161.182 292.789C157.962 291.895 154.744 290.99 151.524 290.096C150.282 289.676 149.025 289.266 147.781 288.858L125.949 281.893C125.764 281.834 125.594 281.826 125.424 281.818C125.405 281.79 125.388 281.75 125.36 281.708C124.809 280.869 123.433 280.705 122.675 281.345C121.833 282.041 121.723 283.134 122.311 284.029C122.568 284.421 122.812 284.81 123.054 285.211C123.109 285.307 123.176 285.405 123.229 285.513C123.267 285.569 123.255 285.567 123.274 285.595C123.274 285.595 123.274 285.595 123.282 285.621C123.39 285.825 123.51 286.032 123.62 286.224C124.071 287.069 124.495 287.932 124.88 288.801C125.256 289.656 125.595 290.516 125.893 291.393C126.048 291.863 126.204 292.333 126.348 292.801C126.375 292.916 126.416 293.022 126.443 293.137C126.448 293.175 126.543 293.511 126.494 293.318C126.445 293.125 126.528 293.459 126.545 293.499C126.58 293.641 126.614 293.782 126.648 293.923C126.71 294.179 126.821 294.433 126.974 294.658C127.838 297.772 128.834 300.837 129.922 303.871C130.154 305.225 130.464 306.557 131.243 307.611C131.253 307.625 131.274 307.641 131.284 307.655C131.31 307.709 131.325 307.761 131.339 307.813C131.622 308.515 132.149 308.835 132.722 308.908C134.005 309.69 135.56 310.01 137.031 310.388C140.288 311.215 143.531 312.052 146.789 312.879C152.987 314.461 159.174 316.041 165.37 317.635C167.845 318.264 170.55 319.293 173.149 319.53C173.333 319.846 173.612 320.119 174.045 320.287C175.694 320.882 177.294 321.223 179.063 321.254C179.308 321.251 179.525 321.207 179.732 321.148C184.379 321.811 188.992 322.59 193.572 323.608C195.545 324.044 196.354 321.334 195.015 320.198L195.037 320.214Z" fill="#8A54AB"/>
<path d="M174.836 295.776C173.664 295.309 171.836 294.753 169.354 294.098C166.871 293.442 164.456 292.689 162.125 291.818C159.792 290.958 156.58 290.017 152.491 288.995C148.399 287.985 145.108 287.078 142.589 286.293C140.07 285.508 136.927 284.592 133.149 283.544C129.382 282.497 126.592 281.661 124.807 281.003C123.021 280.358 121.949 280.007 121.602 279.966C121.255 279.924 120.9 279.991 120.522 280.177C120.144 280.362 119.583 281.381 118.813 283.242C118.043 285.103 117.046 287.324 115.806 289.916C114.567 292.508 112.811 296.788 110.534 302.781C108.256 308.774 105.784 314.631 103.129 320.356C100.475 326.081 78.6499 377.217 77.0898 380.788C75.5298 384.359 73.8327 388.394 72.0177 392.92C70.2027 397.446 67.8101 403.723 64.8732 411.769C61.9245 419.812 60.4524 423.951 60.4615 424.161C60.4706 424.37 60.7543 425.196 61.3387 426.628C61.9113 428.059 62.5796 429.887 63.3201 432.109C64.0605 434.33 64.6663 436.036 65.1398 437.216C65.6015 438.393 66.2297 439.724 66.989 441.202C67.7601 442.683 68.906 444.639 70.4362 447.084C71.9664 449.529 76.849 452.109 85.0719 454.823C93.3067 457.538 99.0933 459.483 102.456 460.66C105.818 461.838 108.638 462.778 110.918 463.468C113.197 464.159 115.644 464.808 118.232 465.422C120.823 466.024 123.926 466.504 129.766 467.651C135.609 468.786 137.011 468.685 137.483 468.714C137.953 468.754 144.234 452.838 157.349 421.122C168.957 388.9 195.759 326.325 196.085 325.64C196.411 324.955 196.579 324.265 196.587 323.581C196.585 322.883 196.259 321.83 195.592 320.381C194.922 318.944 193.979 316.501 192.746 313.072C191.515 309.631 190.594 307.204 189.981 305.79C189.369 304.377 188.789 303.116 188.226 302.018C187.664 300.919 187.301 300.251 187.129 299.998C186.957 299.745 185.979 299.351 184.212 298.795C183.323 298.515 182.443 298.25 181.554 297.971C181.839 297.242 175.385 295.978 174.805 295.746L174.836 295.776ZM185.801 300.48C185.927 300.528 186.032 300.621 186.108 300.734C186.185 300.846 186.478 301.428 187.006 302.447C187.535 303.465 188.285 305.186 189.26 307.587C189.741 308.792 190.236 309.988 190.729 311.195C188.823 310.723 186.916 310.263 185.011 309.79C181.198 308.857 166.451 304.537 163.009 303.65C159.567 302.763 154.266 301.29 147.11 299.208C139.955 297.126 134.947 295.721 132.079 294.968C129.209 294.226 127.729 293.835 127.627 293.791C127.525 293.747 126.981 292.493 126.004 290.031C125.028 287.569 124.165 285.544 123.437 283.962C123.074 283.171 122.71 282.38 122.346 281.588C123.219 281.889 124.092 282.189 124.965 282.49C126.712 283.091 129.329 283.87 132.807 284.825C136.285 285.78 139.684 286.769 143.016 287.782C146.348 288.794 149.791 289.743 153.37 290.619C156.936 291.492 159.916 292.365 162.306 293.248C164.696 294.13 166.948 294.84 169.05 295.374C171.151 295.908 172.868 296.406 174.2 296.867C174.945 297.131 182.749 299.667 183.414 299.842C184.896 300.222 185.7 300.436 185.825 300.484L185.801 300.48ZM148.308 290.782C143.64 289.65 138.85 288.324 133.956 286.769C129.059 285.226 126.51 284.473 126.319 284.51C126.129 284.547 125.986 284.655 125.933 284.804C125.88 284.953 125.875 285.111 125.933 285.256C125.991 285.402 126.323 285.587 126.926 285.825C127.53 286.062 129.184 286.633 131.904 287.517C134.624 288.402 137.084 289.175 139.3 289.817C141.516 290.458 144.04 291.085 146.857 291.718C149.674 292.352 151.79 292.876 153.194 293.278C154.599 293.68 155.445 293.865 155.732 293.834C156.02 293.803 156.2 293.69 156.272 293.508C156.343 293.326 156.339 293.154 156.246 293.001C156.152 292.849 155.981 292.718 155.721 292.608C155.46 292.497 152.993 291.893 148.324 290.761L148.308 290.782ZM121.534 282.902C122.327 284.779 123.121 286.656 123.913 288.544C124.67 290.353 125.952 294.17 125.952 294.17C125.952 294.17 123.05 298.037 121.341 300.074C119.695 302.038 118.035 304.011 116.389 305.975C116.37 305.946 116.348 305.93 116.329 305.902C116.289 305.858 116.399 305.083 116.659 303.59C116.918 302.097 117.314 300.08 117.832 297.547C118.35 295.014 118.807 292.996 119.191 291.49C119.575 289.984 120.011 288.463 120.503 286.905C120.996 285.346 121.292 284.301 121.4 283.734C121.454 283.45 121.505 283.179 121.559 282.895L121.534 282.902ZM119.961 283.901C119.534 285.435 119.108 286.97 118.684 288.493C117.831 291.562 117.045 294.864 116.336 298.401C115.626 301.938 115.214 304.172 115.088 305.091C114.963 306.009 114.917 306.698 114.952 307.158C114.987 307.617 114.953 307.929 114.864 308.071C114.776 308.214 114.768 308.384 114.845 308.557C114.923 308.731 115.044 308.864 115.193 308.917C115.342 308.97 115.569 309.001 115.84 308.991C115.977 308.98 116.111 308.982 116.248 308.971C116.138 309.293 116.03 309.602 115.92 309.924C115.702 310.556 115.099 312.118 114.115 314.587C113.132 317.056 111.269 321.255 108.503 327.179C105.737 333.103 83.4738 385.514 81.139 391.423C78.8042 397.331 75.3954 405.348 70.9362 415.479C68.7018 420.538 66.4769 425.61 64.2425 430.669C64.0077 430.036 63.7847 429.407 63.55 428.774C63.0922 427.512 62.6576 426.451 62.2793 425.608C61.8892 424.763 61.7765 424.068 61.9292 423.522C62.082 422.976 62.6523 421.456 63.6402 418.964C64.6281 416.471 65.8395 413.189 67.2559 409.15C68.6723 405.111 70.2866 400.803 72.0943 396.251C73.902 391.699 75.589 387.589 77.1529 383.933C78.7168 380.277 100.638 328.891 103.48 322.761C106.322 316.631 108.105 312.723 108.792 311.042C109.491 309.363 110.625 306.36 112.213 302.06C113.801 297.76 115.488 293.65 117.272 289.742C118.168 287.795 119.052 285.846 119.951 283.887L119.961 283.901ZM191.019 312.242C191.019 312.242 192.016 314.855 192.358 315.825C193.12 317.929 193.811 319.639 194.444 320.946C195.077 322.254 195.389 323.06 195.375 323.388C195.37 323.546 195.362 323.716 195.356 323.874C192.683 323.451 190 323.014 187.326 322.592C181.97 321.733 177.672 320.904 174.398 320.098C171.136 319.294 168.552 318.595 166.641 318.024C164.73 317.452 162.639 316.737 160.351 315.898C158.065 315.047 156.136 314.374 154.554 313.878C152.974 313.369 151.221 312.865 149.29 312.339C147.358 311.812 144.118 311.025 139.568 309.977C135.019 308.928 132.691 308.168 132.606 307.711C132.522 307.254 132.283 306.45 131.89 305.298C131.497 304.146 130.757 302.182 129.657 299.403C129.113 298.014 128.558 296.624 128.014 295.235C129.144 295.536 130.276 295.824 131.406 296.125C133.669 296.714 138.639 298.124 146.305 300.352C153.972 302.581 159.413 304.092 162.611 304.908C165.809 305.724 169.247 306.696 172.925 307.823C176.603 308.951 180.57 310.035 184.825 311.089C187.127 311.661 190.993 312.249 190.993 312.249L191.019 312.242ZM190.5 314.714C190.355 314.772 190.247 314.886 190.192 315.047C190.137 315.208 190.122 315.352 190.159 315.481C190.195 315.61 190.539 316.569 191.195 318.334C191.851 320.099 192.233 321.052 192.331 321.181C192.429 321.31 192.559 321.396 192.725 321.427C192.89 321.459 193.024 321.46 193.144 321.409C193.252 321.356 193.346 321.252 193.417 321.069C193.488 320.887 193.491 320.68 193.437 320.449C193.383 320.218 192.994 319.239 192.294 317.514C191.593 315.79 191.155 314.875 190.977 314.78C190.8 314.685 190.644 314.667 190.498 314.725L190.5 314.714ZM119.639 291.905C119.469 291.959 119.332 292.104 119.239 292.331C119.147 292.558 118.919 293.629 118.556 295.542C118.192 297.456 118.035 298.54 118.066 298.827C118.097 299.115 118.207 299.307 118.385 299.402C118.563 299.497 118.718 299.514 118.864 299.456C119.01 299.398 119.142 299.216 119.258 298.932C119.373 298.647 119.529 297.955 119.714 296.852C119.899 295.749 120.069 294.729 120.197 293.798C120.325 292.868 120.312 292.29 120.138 292.11C119.964 291.93 119.806 291.864 119.627 291.903L119.639 291.905ZM126.745 295.533C127.195 296.646 127.644 297.76 128.095 298.861C128.994 301.088 129.769 303.194 130.415 305.202C130.738 306.205 131.062 307.209 131.399 308.203C130.234 308.215 129.071 308.214 127.918 308.227C125.591 308.238 123.145 308.164 120.561 307.979C119.268 307.893 117.986 307.808 116.696 307.71C116.847 307.494 116.984 307.287 117.135 307.071C117.424 306.649 118.592 305.267 120.626 302.937C122.66 300.606 124.192 298.792 125.224 297.483C125.739 296.835 126.256 296.174 126.771 295.525L126.745 295.533ZM194.714 325.061C194.816 325.105 168.216 387.389 156.533 419.682C145.781 445.666 136.585 467.062 136.585 467.062C136.585 467.062 131.19 466.6 129.834 466.33C123.708 465.141 120.524 464.634 118.052 464.053C115.582 463.462 113.137 462.801 110.756 462.067C108.362 461.33 105.739 460.452 102.859 459.44C99.9816 458.416 96.3218 457.194 91.8914 455.776C87.461 454.359 83.3872 452.997 79.6796 451.705C75.972 450.412 74.1718 449.581 74.2577 449.193C74.3555 448.808 75.6906 445.39 78.2726 438.953C80.8569 432.505 83.2492 426.938 85.4753 422.245C87.6896 417.55 89.4739 413.508 90.8326 410.094C92.1795 406.678 94.0278 402.428 96.3775 397.342C98.7295 392.245 120.365 341.269 121.858 337.404C123.352 333.539 124.901 329.831 126.494 326.279C128.088 322.726 129.07 320.453 129.467 319.463C129.863 318.474 130.303 317.126 130.796 315.432C131.291 313.727 131.738 312.344 132.126 311.267C132.23 310.981 132.644 309.701 132.644 309.701C132.644 309.701 137.475 310.815 142.07 311.945C148.303 313.473 152.14 314.472 153.585 314.918C155.03 315.364 157.339 316.158 160.501 317.297C163.664 318.425 170.13 320.339 170.13 320.339C170.13 320.339 176.274 321.948 178.774 322.447C181.283 322.961 184.545 323.508 188.555 324.111C192.567 324.702 194.624 325.02 194.726 325.063L194.714 325.061ZM190.652 328.144C190.439 328.3 189.33 330.977 187.338 336.18C185.334 341.38 184.191 344.43 183.895 345.341C183.6 346.252 183.454 346.763 183.467 346.887C183.48 347.012 183.566 347.139 183.727 347.255C183.887 347.383 184.052 347.415 184.221 347.361C184.39 347.308 185.665 344.209 188.031 338.074C190.396 331.939 191.587 328.763 191.578 328.553C191.569 328.343 191.466 328.177 191.267 328.065C191.068 327.954 190.865 327.989 190.655 328.133L190.652 328.144ZM186.925 329.015C186.712 329.109 186.346 329.872 185.843 331.294C185.341 332.716 185.117 333.505 185.175 333.651C185.233 333.797 185.347 333.904 185.508 333.959C185.669 334.014 185.815 334.018 185.961 333.96C186.106 333.902 186.451 333.184 186.976 331.839C187.501 330.495 187.762 329.7 187.731 329.474C187.701 329.248 187.608 329.095 187.465 329.007C187.323 328.919 187.139 328.921 186.925 329.015ZM122.737 306.447C120.365 306.436 119.099 306.465 118.951 306.535C118.803 306.605 118.698 306.707 118.642 306.868C118.587 307.029 118.584 307.175 118.687 307.342C118.79 307.508 118.871 307.597 118.973 307.641C119.075 307.684 120.29 307.732 122.62 307.771C124.95 307.81 126.224 307.807 126.419 307.746C126.614 307.686 126.759 307.566 126.826 307.408C126.893 307.249 126.896 307.103 126.859 306.973C126.823 306.844 126.723 306.727 126.547 306.62C126.372 306.514 125.107 306.469 122.723 306.456L122.737 306.447ZM131.304 309.348C130.938 310.564 130.586 311.77 130.221 312.985C129.503 315.407 128.848 317.375 128.242 318.888C127.648 320.403 126.783 322.38 125.669 324.824C124.556 327.269 123.182 330.569 121.573 334.718C119.964 338.868 98.2787 389.981 95.9334 395.043C93.6 400.107 91.5741 404.776 89.8484 409.026C88.1323 413.289 86.3042 417.434 84.3715 421.485C82.4387 425.535 80.1083 430.906 77.4037 437.601C74.6873 444.293 73.2943 447.823 73.2129 448.187C73.1792 448.364 73.1315 448.551 73.086 448.726L73.0033 448.71C73.0033 448.71 72.1344 447.357 70.5506 444.743C68.9669 442.129 67.7957 439.985 67.0509 438.301C66.3061 436.617 65.7482 435.238 65.389 434.167C65.0297 433.095 65.0114 432.161 65.3176 431.387C65.6239 430.613 67.8375 425.599 71.9444 416.356C76.0513 407.113 79.4742 399.086 82.199 392.285C84.926 385.472 107.387 332.597 110.158 326.649C112.929 320.701 114.682 316.824 115.409 314.992C116.137 313.16 116.652 311.74 116.974 310.688C117.07 310.375 117.539 309.069 117.539 309.069C117.539 309.069 119.781 309.251 121.84 309.361C124.759 309.524 126.741 309.595 127.792 309.599C128.844 309.603 129.697 309.557 130.326 309.468C130.639 309.43 130.965 309.394 131.28 309.344L131.304 309.348ZM73.0174 397.834C72.8487 397.949 72.3536 399.201 71.5344 401.579C70.7153 403.957 69.8281 406.371 68.9009 408.801C67.9738 411.232 66.6847 414.279 65.0594 417.936C63.4342 421.593 62.7004 423.521 62.8602 423.711C63.02 423.9 63.2231 423.927 63.4531 423.811C63.6831 423.696 64.0226 423.198 64.4953 422.321C64.9539 421.453 65.6036 420.096 66.4185 418.256C67.2333 416.415 68.206 414.067 69.3321 411.233C70.4582 408.4 71.5045 405.6 72.4664 402.858C73.4305 400.104 73.9018 398.59 73.8567 398.312C73.8257 398.025 73.7131 397.844 73.5309 397.773C73.3486 397.701 73.1742 397.717 73.0055 397.832L73.0174 397.834ZM94.1106 413.324C93.8975 413.479 93.5743 413.957 93.1432 414.744C92.7121 415.531 90.9417 419.049 87.8342 425.288C84.7268 431.527 82.9042 435.256 82.3641 436.488C81.8241 437.719 81.2593 439.08 80.7053 440.578C80.1394 442.074 79.6782 443.406 79.2956 444.582C78.9248 445.76 78.7665 446.464 78.8206 446.695C78.8746 446.925 79.0175 447.075 79.2397 447.129C79.4619 447.184 79.6385 447.156 79.774 447.023C79.9095 446.889 80.2225 446.08 80.6894 444.59C81.1584 443.088 81.8321 441.282 82.7009 439.159C83.5696 437.035 84.7729 434.375 86.3083 431.191C87.8437 428.007 89.6647 424.351 91.7853 420.213C93.9036 416.088 94.9534 413.913 94.9562 413.705C94.9471 413.495 94.8677 413.333 94.69 413.239C94.5122 413.144 94.3238 413.169 94.1106 413.324ZM85.2269 437.717C85.102 437.73 84.9918 437.795 84.8867 437.897C84.7793 438.012 84.3972 438.991 83.71 440.868C83.0251 442.733 82.661 443.875 82.5869 444.265C82.5128 444.655 82.5838 444.925 82.7667 445.058C82.9495 445.191 83.1408 445.215 83.3263 445.14C83.5119 445.065 83.9637 443.976 84.7031 441.889C85.4425 439.802 85.828 438.676 85.8594 438.511C85.8908 438.345 85.8278 438.162 85.6657 437.984C85.4941 437.792 85.3517 437.704 85.2269 437.717Z" fill="#010101"/>
<path d="M162.207 301.686C162.207 301.686 162.226 301.653 162.244 301.62C162.24 301.643 162.224 301.665 162.207 301.686Z" fill="white"/>
<path d="M172.154 307.567C173.794 306.018 175.419 304.038 176.039 301.806C175.973 301.769 175.877 301.824 175.792 301.821C175.828 301.632 175.901 301.437 175.904 301.23C175.914 301.048 175.892 300.909 175.885 300.749C178.571 295.764 167.368 286.254 161.697 287.759C160.559 287.824 159.523 288.251 158.631 288.951C158.705 288.818 158.803 288.69 158.865 288.555C156.31 289.636 154.743 291.957 153.488 294.374C152.866 295.198 152.32 296.074 151.957 297.021C151.816 297.373 151.772 297.732 151.743 298.081C151.673 297.481 151.727 296.879 152.082 296.298C148.021 302.98 161.075 312.792 167.346 311.806C169.384 311.642 170.12 310.411 170.97 309.092C171.276 308.709 171.557 308.322 171.818 307.919C171.927 307.793 172.025 307.665 172.146 307.541L172.154 307.567Z" fill="white"/>
<path d="M176.007 300.491C176.224 299.736 176.112 298.907 175.884 298.179C175.611 297.295 175.139 296.495 174.662 295.719C174.197 294.945 173.704 294.19 173.155 293.474C172.073 292.02 170.81 290.678 169.35 289.605C167.825 288.483 166.072 287.66 164.21 287.282C163.303 287.097 162.361 287.029 161.433 287.085C160.789 287.121 160.123 287.215 159.486 287.412C159.405 287.323 159.282 287.263 159.149 287.25C158.345 287.171 157.909 287.786 157.659 288.46C157.645 288.47 157.628 288.491 157.614 288.501C157.509 288.603 157.466 288.766 157.486 288.917C155.628 291.097 153.907 293.389 152.338 295.784C151.959 296.36 151.594 296.927 151.237 297.52C151.122 297.609 151.038 297.727 151.023 297.871C150.972 297.947 150.919 298.035 150.879 298.113C150.717 298.388 150.694 298.763 150.984 298.978C151.008 298.982 151.027 299.01 151.051 299.015C151.207 300.379 151.771 301.661 152.488 302.85C153.262 304.123 154.23 305.274 155.322 306.289C157.518 308.322 160.248 309.734 163.153 310.421C164.782 310.804 166.459 310.927 168.125 310.791C168.184 310.802 168.234 310.8 168.3 310.775C169.048 310.575 169.707 310.198 170.27 309.681C170.82 309.174 171.286 308.589 171.744 307.979C172.764 306.606 173.706 305.194 174.597 303.723C175.115 302.867 175.613 301.983 176.086 301.106C176.183 300.916 176.143 300.676 176.017 300.505L176.007 300.491ZM158.007 306.848C157.496 306.506 157.005 306.131 156.543 305.726C156.282 305.492 156.02 305.259 155.772 305.016C155.722 304.958 155.658 304.909 155.608 304.85C155.608 304.85 155.596 304.848 155.587 304.834C155.568 304.806 155.534 304.787 155.515 304.759C155.382 304.624 155.251 304.476 155.12 304.329C154.657 303.8 154.223 303.253 153.833 302.665C153.357 301.95 152.99 301.305 152.661 300.459C152.576 300.259 152.506 300.05 152.447 299.843C152.44 299.817 152.433 299.792 152.425 299.766C152.425 299.766 152.398 299.65 152.391 299.624C152.362 299.521 152.347 299.408 152.329 299.307C152.285 299.09 152.264 298.878 152.243 298.666C152.239 298.555 152.236 298.445 152.233 298.334C152.235 298.322 152.237 298.31 152.239 298.298C152.244 298.275 152.248 298.251 152.253 298.227C153.809 295.708 155.519 293.279 157.388 290.979C157.42 291.328 157.465 291.667 157.549 292.001C157.62 292.333 157.716 292.669 157.825 292.996C157.733 293.027 157.646 293.096 157.581 293.182C156.214 295.162 154.86 297.132 153.492 299.112C153.308 299.37 153.317 299.776 153.597 299.976C153.856 300.16 154.261 300.151 154.462 299.871C155.748 297.998 157.032 296.137 158.33 294.267C158.537 294.722 158.772 295.158 159.019 295.597C158.928 295.629 158.853 295.7 158.79 295.774C157.136 297.969 155.623 300.263 154.24 302.644C154.078 302.919 154.278 303.349 154.564 303.452C154.907 303.579 155.194 303.425 155.372 303.129C155.553 302.82 155.66 302.645 155.839 302.348C156.015 302.064 156.18 301.777 156.357 301.492C156.71 300.923 157.072 300.367 157.437 299.8C158.141 298.735 158.893 297.678 159.664 296.65C159.776 296.83 159.891 296.999 160.004 297.179C160.126 297.374 160.262 297.559 160.396 297.756C160.394 297.768 160.379 297.777 160.363 297.799C159.138 299.671 157.913 301.543 156.689 303.415C156.514 303.688 156.501 304.078 156.793 304.28C157.04 304.462 157.47 304.457 157.658 304.175C158.832 302.379 160.005 300.582 161.177 298.798C161.585 299.291 162.035 299.756 162.515 300.19C162.41 300.232 162.325 300.289 162.246 300.384C160.768 302.429 159.385 304.552 158.081 306.715C158.048 306.758 158.027 306.803 158.016 306.862L158.007 306.848ZM164.59 309.042C164.521 309.151 164.47 309.288 164.469 309.423C164.268 309.385 164.056 309.344 163.855 309.306C163.512 309.241 163.172 309.164 162.834 309.075C162.81 309.071 162.763 309.062 162.751 309.06C162.739 309.057 162.727 309.055 162.704 309.051C162.621 309.035 162.529 309.005 162.448 308.978C162.276 308.92 162.101 308.875 161.919 308.804C161.251 308.579 160.605 308.309 159.977 308.006C159.664 307.849 159.352 307.691 159.043 307.51C159.043 307.51 159.032 307.508 159.02 307.506C159.02 307.506 159.024 307.482 159.036 307.485C160.329 305.319 161.724 303.198 163.201 301.153C163.267 301.068 163.299 300.964 163.319 300.857C163.459 300.957 163.599 301.057 163.751 301.16C163.979 301.313 164.221 301.457 164.465 301.589C163.491 302.848 162.615 304.175 161.803 305.55C161.64 305.825 161.84 306.255 162.126 306.358C162.469 306.485 162.756 306.331 162.934 306.035C163.009 305.902 163.076 305.805 163.183 305.629C163.276 305.463 163.378 305.311 163.482 305.148C163.692 304.82 163.901 304.493 164.119 304.179C164.545 303.55 164.994 302.926 165.462 302.329C165.509 302.277 165.534 302.209 165.562 302.128C165.811 302.237 166.073 302.335 166.324 302.432C165.154 304.082 164.081 305.8 163.086 307.557C162.923 307.832 163.123 308.261 163.409 308.365C163.753 308.491 164.051 308.34 164.218 308.041C164.7 307.178 165.164 306.41 165.708 305.546C166.247 304.706 166.795 303.88 167.38 303.061C167.445 302.976 167.477 302.871 167.497 302.765C167.837 302.842 168.178 302.919 168.513 302.958C168.572 302.97 168.643 302.983 168.702 302.994C167.294 304.991 165.929 307.02 164.588 309.054L164.59 309.042ZM173.818 302.608L173.813 302.632C173.809 302.655 173.792 302.677 173.776 302.698C173.361 303.402 172.922 304.102 172.473 304.788C172.011 305.483 171.538 306.165 171.057 306.832C170.642 307.402 170.226 307.984 169.738 308.491C169.707 308.522 169.691 308.543 169.661 308.574L169.644 308.595C169.644 308.595 169.642 308.607 169.628 308.617C169.567 308.679 169.495 308.738 169.434 308.8C169.287 308.931 169.13 309.048 168.973 309.165C168.917 309.204 168.846 309.251 168.778 309.287L168.75 309.307C168.708 309.335 168.656 309.35 168.614 309.379C168.534 309.412 168.455 309.446 168.375 309.48C168.335 309.497 168.295 309.514 168.255 309.531C168.229 309.538 168.048 309.589 168.177 309.553C168.165 309.55 168.151 309.56 168.126 309.567C168.078 309.558 168.043 309.552 167.991 309.566C167.642 309.598 167.284 309.615 166.942 309.612C166.895 309.603 166.857 309.608 166.808 309.61C166.808 309.61 166.808 309.61 166.796 309.608C166.711 309.604 166.624 309.612 166.527 309.606C166.357 309.598 166.176 309.588 166.006 309.58C165.923 309.565 165.848 309.575 165.765 309.559C167.143 307.459 168.567 305.38 170.009 303.328C170.06 303.252 170.1 303.174 170.115 303.092C170.53 303.097 170.948 303.091 171.36 303.047C170.381 304.525 169.393 305.99 168.414 307.468C168.24 307.741 168.239 308.132 168.519 308.332C168.778 308.516 169.195 308.51 169.384 308.228C170.477 306.599 171.56 304.957 172.653 303.329C172.753 303.189 172.786 303.012 172.771 302.837C173.076 302.773 173.387 302.685 173.697 302.597C173.775 302.576 173.841 302.551 173.921 302.518C173.902 302.551 173.884 302.584 173.865 302.617L173.818 302.608ZM174.834 300.096C174.834 300.096 174.831 300.108 174.829 300.12C174.829 300.12 174.827 300.132 174.825 300.144C174.816 300.191 174.793 300.248 174.772 300.293C174.763 300.34 174.728 300.395 174.707 300.44C174.707 300.44 174.672 300.494 174.654 300.527C174.635 300.56 174.605 300.591 174.617 300.594C174.584 300.636 174.552 300.679 174.519 300.722C174.5 300.755 174.472 300.774 174.442 300.805C174.442 300.805 174.44 300.817 174.426 300.827C174.426 300.827 174.412 300.836 174.398 300.846C174.311 300.915 174.236 300.986 174.14 301.042C174.112 301.061 174.084 301.08 174.056 301.099C174.056 301.099 174.042 301.109 174.028 301.118C174.028 301.118 174.016 301.116 173.999 301.137C173.917 301.183 173.837 301.217 173.755 301.262C173.568 301.349 173.384 301.412 173.189 301.473C173.111 301.495 173.046 301.519 172.968 301.541C172.956 301.539 172.879 301.561 172.865 301.57C172.827 301.575 172.787 301.592 172.761 301.599C172.568 301.648 172.366 301.683 172.175 301.721C171.782 301.793 171.381 301.839 170.985 301.862C170.799 301.875 170.627 301.879 170.443 301.881C170.396 301.872 170.358 301.877 170.309 301.88C170.309 301.88 170.297 301.878 170.285 301.875C170.177 301.867 170.066 301.87 169.957 301.862C169.181 301.825 168.395 301.712 167.636 301.519C167.601 301.512 167.565 301.505 167.53 301.499C167.518 301.496 167.412 301.476 167.423 301.478C167.352 301.465 167.284 301.44 167.215 301.414C167.019 301.352 166.834 301.293 166.64 301.219C166.285 301.091 165.923 300.936 165.587 300.774C165.418 300.693 165.241 300.598 165.075 300.506C164.985 300.464 164.909 300.413 164.821 300.359C164.821 300.359 164.821 300.359 164.809 300.357C164.755 300.322 164.7 300.287 164.646 300.253C164.318 300.044 163.993 299.823 163.684 299.58C163.387 299.34 163.104 299.091 162.825 298.817C162.814 298.815 162.804 298.801 162.794 298.787C162.794 298.787 162.783 298.785 162.775 298.759C162.744 298.729 162.713 298.698 162.682 298.668C162.611 298.593 162.54 298.518 162.47 298.432C162.308 298.254 162.149 298.065 162.001 297.877C161.437 297.17 160.93 296.425 160.465 295.652C160.362 295.485 160.25 295.305 160.149 295.126C160.139 295.112 160.13 295.098 160.132 295.087C160.132 295.087 160.125 295.061 160.115 295.047C160.087 295.004 160.07 294.964 160.043 294.911C159.978 294.8 159.926 294.692 159.873 294.584C159.666 294.19 159.471 293.798 159.305 293.387C159.134 293 158.991 292.593 158.871 292.191L158.844 292.076C158.849 292.052 158.829 292.024 158.822 291.998C158.802 291.909 158.773 291.805 158.756 291.704C158.711 291.487 158.676 291.285 158.646 291.059C158.625 290.847 158.604 290.635 158.597 290.413C158.597 290.413 158.604 290.378 158.606 290.366C158.615 290.319 158.61 290.281 158.607 290.231C158.618 290.111 158.614 290 158.637 289.882C158.656 289.715 158.674 289.559 158.705 289.393C158.876 289.205 159.036 289.003 159.207 288.816C159.301 288.772 159.383 288.727 159.474 288.695C159.648 288.618 159.829 288.567 159.999 288.513C159.999 288.513 160.01 288.515 160.022 288.518C160.022 288.518 160.022 288.518 160.034 288.52C160.086 288.505 160.123 288.5 160.175 288.486C160.291 288.459 160.392 288.441 160.507 288.414C160.914 288.332 161.338 288.291 161.758 288.272C161.857 288.267 161.956 288.261 162.053 288.267C162.064 288.269 162.076 288.272 162.088 288.274C162.088 288.274 162.112 288.278 162.123 288.281C162.171 288.29 162.22 288.287 162.27 288.284C162.501 288.291 162.73 288.31 162.947 288.327C163.367 288.37 163.771 288.435 164.182 288.525C164.277 288.543 164.383 288.563 164.475 288.593C164.534 288.604 164.593 288.616 164.652 288.627C164.652 288.627 164.676 288.631 164.7 288.636C164.896 288.698 165.104 288.762 165.3 288.823C165.714 288.963 166.112 289.124 166.505 289.309C166.697 289.395 166.887 289.492 167.076 289.589C167.166 289.631 167.254 289.684 167.342 289.738C167.387 289.758 167.43 289.791 167.475 289.812C167.486 289.814 167.574 289.868 167.596 289.884C168.31 290.313 168.984 290.821 169.614 291.369C169.771 291.509 169.916 291.647 170.073 291.787C170.147 291.85 170.219 291.925 170.292 291.988C170.323 292.018 170.364 292.062 170.395 292.093C170.406 292.095 170.478 292.17 170.487 292.184C170.776 292.471 171.038 292.766 171.31 293.074C171.86 293.718 172.379 294.404 172.857 295.106C173.087 295.444 173.314 295.793 173.539 296.154C173.642 296.32 173.745 296.487 173.846 296.665C173.901 296.761 173.956 296.858 174.014 296.942C174.014 296.942 174.023 296.956 174.021 296.968C174.021 296.968 174.021 296.968 174.028 296.994C174.055 297.048 174.083 297.09 174.11 297.144C174.319 297.526 174.513 297.918 174.656 298.325C174.688 298.416 174.719 298.508 174.751 298.6C174.768 298.64 174.773 298.677 174.79 298.717C174.788 298.729 174.797 298.743 174.807 298.757C174.807 298.757 174.802 298.781 174.812 298.795C174.859 299 174.905 299.204 174.914 299.414C174.917 299.464 174.918 299.525 174.921 299.574C174.921 299.574 174.916 299.598 174.914 299.61C174.912 299.683 174.908 299.768 174.895 299.839C174.879 299.921 174.861 300.016 174.846 300.099L174.834 300.096Z" fill="#010101"/>
<path d="M171.072 294.204C171.035 293.879 170.763 293.704 170.467 293.648C169.924 293.545 169.484 293.155 169.059 292.818C168.567 292.443 168.075 292.068 167.586 291.681C167.106 291.308 166.616 290.86 165.97 290.909C165.833 290.919 165.737 290.975 165.648 291.056C165.729 290.826 165.669 290.558 165.444 290.393C165.316 290.295 165.174 290.268 165.023 290.288C164.988 290.281 164.969 290.253 164.935 290.235L164.912 290.23C164.653 290.046 164.359 289.917 164.052 289.859C164.031 289.842 164.012 289.814 163.99 289.798C163.867 289.738 163.714 289.709 163.57 289.755C163.53 289.772 163.5 289.803 163.469 289.834C163.206 289.869 162.979 290.034 162.951 290.31C162.942 290.357 162.97 290.4 162.985 290.451C162.948 290.518 162.913 290.572 162.864 290.636C162.783 290.743 162.701 290.85 162.61 290.943C162.517 291.048 162.454 291.183 162.463 291.331C162.462 291.466 162.531 291.614 162.624 291.705C162.729 291.798 162.864 291.86 163.012 291.852C163.149 291.841 163.292 291.795 163.386 291.69C163.575 291.469 163.754 291.234 163.91 290.994C163.957 291.003 164.004 291.012 164.037 291.031C164.037 291.031 164.057 291.059 164.066 291.073C164.066 291.073 164.066 291.073 164.064 291.085C164.101 291.214 164.198 291.343 164.322 291.403C164.443 291.475 164.61 291.495 164.742 291.446C164.794 291.432 164.824 291.401 164.866 291.372C164.89 291.376 164.921 291.407 164.944 291.411C165.121 291.445 165.296 291.429 165.448 291.336C165.476 291.317 165.495 291.283 165.525 291.252C165.415 291.574 165.591 291.999 166.027 291.96C166.362 291.938 166.698 292.295 166.942 292.489C167.178 292.668 167.401 292.845 167.636 293.025C167.592 293.065 167.561 293.096 167.527 293.151C167.457 293.26 167.385 293.381 167.315 293.49C166.957 293.312 166.614 293.124 166.256 292.946C166.012 292.814 165.656 292.881 165.52 293.148C165.423 293.338 165.441 293.562 165.556 293.731L165.414 293.704C165.313 293.721 165.235 293.743 165.153 293.789C165.125 293.808 165.083 293.837 165.055 293.856C164.987 293.892 164.942 293.932 164.905 293.999C164.859 294.051 164.822 294.117 164.808 294.188C164.795 294.259 164.781 294.33 164.805 294.396C164.804 294.469 164.828 294.535 164.866 294.591C164.885 294.619 164.916 294.649 164.935 294.677C164.924 294.675 164.9 294.671 164.874 294.678C164.745 294.715 164.616 294.813 164.556 294.936C164.549 294.971 164.542 295.007 164.536 295.042C164.488 295.033 164.439 295.036 164.399 295.053C164.267 295.101 164.155 295.178 164.081 295.311C163.946 295.567 163.812 295.822 163.668 296.064C163.473 295.929 163.281 295.783 163.089 295.636C163.213 295.623 163.333 295.572 163.413 295.477C163.536 295.342 163.653 295.18 163.743 295.026C163.836 294.86 163.907 294.678 163.976 294.507C163.985 294.46 163.992 294.425 163.977 294.373C163.994 294.352 164.022 294.332 164.038 294.311L164.401 293.756C164.401 293.756 164.495 293.774 164.537 293.745C164.669 293.697 164.793 293.622 164.856 293.487C164.918 293.352 164.943 293.222 164.899 293.067C164.862 292.938 164.811 292.818 164.761 292.698C164.708 292.59 164.651 292.506 164.581 292.419C164.433 292.232 164.245 292.062 164.02 291.958C163.897 291.898 163.744 291.868 163.6 291.915C163.471 291.951 163.342 292.049 163.282 292.172C163.222 292.296 163.193 292.449 163.239 292.593C163.287 292.724 163.362 292.848 163.497 292.911C163.532 292.918 163.563 292.948 163.606 292.98C163.606 292.98 163.617 292.983 163.627 292.997L163.109 293.792C163.058 293.868 163.051 293.964 163.057 294.063C163.022 294.118 162.976 294.17 162.962 294.241C162.962 294.241 162.964 294.229 162.967 294.218C162.897 294.388 162.807 294.542 162.707 294.682C162.702 294.706 162.674 294.725 162.66 294.735C162.567 294.839 162.505 294.974 162.513 295.123C162.506 295.158 162.523 295.198 162.54 295.238C162.421 295.154 162.303 295.07 162.194 295.001C162.075 294.917 161.966 294.847 161.847 294.764C161.804 294.731 161.759 294.71 161.716 294.678C161.805 294.535 161.905 294.395 161.963 294.284C162.109 294.03 162.253 293.788 162.399 293.534C162.747 292.927 161.806 292.406 161.46 293.001C161.2 293.466 160.896 293.91 160.659 294.379C160.403 294.893 160.654 295.247 161.088 295.537C161.999 296.151 162.906 296.789 163.785 297.445C164.664 298.102 165.496 298.811 166.358 299.489C166.71 299.764 167.17 299.986 167.616 299.764C167.658 299.736 167.688 299.705 167.73 299.676C167.908 299.71 168.112 299.663 168.236 299.527C168.236 299.527 168.238 299.516 168.252 299.506C168.362 299.38 168.405 299.217 168.385 299.066C168.403 299.033 168.434 299.002 168.45 298.981C168.506 298.881 168.573 298.784 168.629 298.684C168.733 298.52 168.828 298.343 168.933 298.179C169.149 297.816 169.376 297.455 169.592 297.093C170.036 296.369 170.47 295.632 170.913 294.908C170.969 294.808 170.985 294.726 170.979 294.627C171.091 294.489 171.148 294.316 171.132 294.142L171.072 294.204ZM165.583 294.813C165.583 294.813 165.653 294.765 165.681 294.746C165.749 294.71 165.794 294.669 165.831 294.603C165.877 294.551 165.915 294.484 165.928 294.413C165.941 294.342 165.955 294.272 165.931 294.206C165.921 294.13 165.908 294.067 165.87 294.011C165.87 294.011 165.87 294.011 165.86 293.997C166.15 294.149 166.429 294.288 166.718 294.441C166.595 294.638 166.474 294.823 166.351 295.02C166.281 295.129 166.266 295.273 166.303 295.403C166.248 295.368 166.182 295.331 166.127 295.296C166.096 295.265 166.077 295.237 166.044 295.219C165.833 295.105 165.636 294.982 165.425 294.869C165.477 294.854 165.538 294.853 165.581 294.825L165.583 294.813ZM168.342 297.039C168.091 297.456 167.84 297.873 167.576 298.3C167.557 298.334 167.525 298.376 167.506 298.41C167.398 298.401 167.296 298.419 167.2 298.474C167.09 298.538 167.022 298.636 166.993 298.728C166.993 298.728 166.969 298.724 166.959 298.709C166.853 298.628 166.748 298.535 166.643 298.441C166.515 298.343 166.401 298.236 166.272 298.138C166.332 298.15 166.393 298.149 166.447 298.122C166.487 298.106 166.527 298.089 166.567 298.072C166.649 298.026 166.712 297.953 166.763 297.877C166.9 297.67 167.051 297.454 167.188 297.248C167.225 297.181 167.251 297.113 167.252 297.039C167.266 296.969 167.268 296.895 167.243 296.83C167.219 296.764 167.195 296.698 167.143 296.651C167.104 296.595 167.052 296.549 166.986 296.511C166.862 296.451 166.709 296.422 166.565 296.468C166.526 296.485 166.486 296.502 166.446 296.519C166.364 296.565 166.301 296.638 166.249 296.714C166.112 296.921 165.961 297.137 165.824 297.343C165.787 297.41 165.762 297.478 165.76 297.551C165.749 297.61 165.761 297.674 165.773 297.737C165.348 297.4 164.921 297.074 164.493 296.747C164.646 296.458 164.813 296.16 164.966 295.87C164.966 295.87 164.966 295.87 164.968 295.859C165.276 296.04 165.582 296.232 165.879 296.411C166.121 296.555 166.481 296.464 166.615 296.208C166.691 296.064 166.695 295.918 166.648 295.774C166.684 295.781 166.724 295.764 166.759 295.771C166.737 295.889 166.762 296.016 166.829 296.114C166.915 296.241 167.024 296.311 167.161 296.361C167.185 296.366 167.196 296.368 167.22 296.372C167.447 296.465 167.668 296.592 167.872 296.741C167.924 296.788 167.979 296.823 168.029 296.881C168.112 296.958 168.238 297.006 168.346 297.015C168.346 297.015 168.344 297.027 168.342 297.039ZM169.57 295.02C169.555 294.907 169.506 294.775 169.423 294.698C169.319 294.605 169.184 294.543 169.035 294.551C168.986 294.554 168.946 294.571 168.896 294.574C168.804 294.605 168.722 294.651 168.662 294.713C168.482 294.948 168.305 295.171 168.126 295.406C168.079 295.459 168.044 295.513 168.019 295.582C167.829 295.485 167.64 295.387 167.444 295.326C167.778 294.789 168.112 294.253 168.459 293.719C168.704 293.913 168.939 294.092 169.2 294.264C169.385 294.385 169.572 294.494 169.778 294.57C169.802 294.574 169.825 294.579 169.861 294.586L169.594 295.024L169.57 295.02Z" fill="#010101"/>
<path d="M180.537 334.483C180.057 329.863 172.661 327.882 167.906 326.501C161.724 324.702 154.84 323.834 147.738 323.977C145.22 324.025 142.102 323.946 139.633 325.215C137.312 326.413 136.552 328.288 135.971 330.124C135.875 330.24 135.772 330.331 135.707 330.478C132.935 336.499 129.766 342.481 127.629 348.77C126.86 351.01 125.597 354.05 126.774 356.355C128.033 358.809 130.773 358.559 133.082 358.263C139.352 357.472 145.601 358.207 151.747 359.547C155.015 360.254 158.228 361.122 161.451 362.004C161.522 362.017 161.612 362.059 161.683 362.072C163.043 362.771 164.522 363.359 166.167 363.402C168.712 363.47 170.57 361.999 171.573 360.134C173.075 357.323 174.318 354.45 175.496 351.602C176.72 348.64 177.812 345.666 178.745 342.685C179.578 340.041 180.811 337.032 180.539 334.471L180.537 334.483Z" fill="#C10230"/>
<path d="M157.923 331.702C156.626 332.667 155.328 333.632 154.043 334.599C153.805 333.599 153.63 332.587 153.606 331.554C153.592 330.854 152.666 330.446 152.051 330.977C151.216 331.7 150.618 332.529 150.133 333.403C149.922 333.486 149.732 333.645 149.636 333.896C148.951 335.565 148.257 337.22 147.573 338.889C147.209 339.775 148.745 340.385 149.239 339.524C149.276 339.458 149.301 339.389 149.339 339.323C149.339 339.323 149.341 339.311 149.343 339.299C150.305 337.524 150.82 335.456 151.945 333.723C152.074 334.592 152.264 335.461 152.557 336.3C152.759 336.913 153.522 337.083 154.091 336.665C154.96 336.022 155.831 335.368 156.699 334.725C155.913 336.864 155.127 339.004 154.341 341.143C153.96 342.184 155.683 342.585 156.119 341.579C156.275 341.205 156.432 340.83 156.589 340.456C156.637 340.331 156.66 340.213 156.654 340.114C157.59 337.575 158.523 335.047 159.447 332.506C159.755 331.658 158.632 331.188 157.935 331.704L157.923 331.702Z" fill="white"/>
<path d="M163.84 332.827C162.691 332.755 161.496 333.116 160.747 333.965C160.5 334.236 160.352 334.563 160.24 334.896C160.047 335.006 159.884 335.159 159.834 335.358C159.565 336.384 159.37 337.411 159.269 338.457C159.172 339.356 159.061 340.388 159.811 341.081C161.198 342.348 163.742 341.326 165.105 340.399C166.57 339.392 167.665 337.813 167.803 336.187C167.988 334.117 165.905 332.974 163.826 332.836L163.84 332.827ZM165.946 336.36C165.758 337.414 165.057 338.333 164.13 339.026C163.718 339.327 163.146 339.634 162.652 339.785C162.417 339.863 162.019 339.959 161.871 339.967C161.734 339.978 161.574 339.984 161.441 339.971C161.43 339.969 161.43 339.969 161.371 339.958C161.241 339.933 161.319 339.972 161.21 339.903C161.134 339.852 161.075 339.645 161.073 339.461C161.072 339.081 161.109 338.696 161.157 338.314C161.204 337.87 161.325 337.428 161.41 336.979C161.512 336.962 161.601 336.942 161.695 336.898C162.129 336.675 162.341 336.14 162.083 335.761C162.054 335.718 162.025 335.676 162.008 335.636C162.013 335.613 161.977 335.545 161.981 335.521C161.977 335.545 161.98 335.398 161.985 335.375C162.009 335.245 162.113 335.02 162.251 334.875C162.387 334.741 162.513 334.655 162.762 334.568C163.089 334.459 163.433 334.451 163.759 334.476C164.349 334.527 164.976 334.707 165.441 335.028C165.908 335.337 166.04 335.803 165.946 336.36Z" fill="white"/>
<path d="M174.147 333.782C174.172 333.395 173.933 333.105 173.533 332.956C172.755 332.673 171.764 332.864 171.07 333.295C170.277 333.793 169.801 334.498 169.433 335.273C169.068 336.036 168.818 336.833 168.946 337.64C169.032 338.158 169.31 338.627 169.733 338.977C169.419 339.211 169.098 339.419 168.784 339.653C168.271 340.033 167.768 340.427 167.274 340.835C167.015 341.043 166.719 341.244 166.536 341.503C166.215 341.968 166.264 342.418 166.602 342.825C166.893 343.162 167.586 343.122 167.913 342.817C168.105 342.645 168.193 342.442 168.205 342.248C168.292 342.179 168.378 342.11 168.451 342.05C168.669 341.871 168.884 341.704 169.113 341.527C169.558 341.184 170.003 340.84 170.445 340.508C170.689 340.321 170.954 340.152 171.209 339.967C171.034 340.632 170.87 341.298 170.733 341.958C170.733 341.958 170.73 341.969 170.728 341.981C170.715 342.052 170.699 342.135 170.686 342.206C170.609 342.607 171.054 342.973 171.45 343.012C171.929 343.066 172.321 342.81 172.506 342.417C172.566 342.294 172.616 342.157 172.677 342.033C172.741 341.887 172.733 341.738 172.687 341.595C173.188 339.279 173.93 336.984 174.866 334.763C175.106 334.209 174.664 333.832 174.161 333.773L174.147 333.782ZM171.309 337.832C171.309 337.832 171.297 337.83 171.285 337.828C171.285 337.828 171.262 337.823 171.25 337.821C171.226 337.817 171.214 337.814 171.191 337.81C171.167 337.805 171.155 337.803 171.132 337.799C171.096 337.792 171.053 337.759 171.02 337.741C170.999 337.725 170.977 337.708 170.968 337.694C170.949 337.666 170.916 337.647 170.896 337.619C170.956 337.692 170.966 337.706 170.927 337.65C170.901 337.596 170.863 337.54 170.836 337.486C170.829 337.46 170.812 337.42 170.795 337.38C170.78 337.328 170.775 337.29 170.761 337.239C170.761 337.239 170.751 337.163 170.75 337.102C170.754 337.017 170.758 336.932 170.764 336.835C170.771 336.8 170.773 336.788 170.775 336.776C170.775 336.776 170.78 336.753 170.789 336.705C170.804 336.623 170.834 336.531 170.862 336.45C170.919 336.277 170.988 336.107 171.055 335.948C171.094 335.87 171.122 335.79 171.161 335.711C171.161 335.711 171.217 335.612 171.221 335.588C171.296 335.455 171.37 335.323 171.468 335.194C171.516 335.13 171.565 335.066 171.617 334.99C171.635 334.957 171.649 334.947 171.651 334.936C171.651 334.936 171.654 334.924 171.694 334.907C171.754 334.845 171.815 334.783 171.885 334.735C171.913 334.716 171.986 334.657 172 334.647C172.056 334.609 172.11 334.582 172.176 334.558C172.216 334.541 172.282 334.517 172.308 334.51C172.385 334.488 172.449 334.475 172.526 334.453C172.55 334.458 172.588 334.453 172.614 334.445C172.637 334.45 172.661 334.454 172.699 334.449C172.781 334.465 172.876 334.483 172.954 334.522C172.966 334.525 172.978 334.527 172.989 334.529C172.604 335.459 172.267 336.399 171.95 337.355C171.95 337.355 171.95 337.355 171.939 337.352C171.728 337.496 171.54 337.644 171.33 337.787C171.33 337.787 171.33 337.787 171.306 337.783L171.309 337.832Z" fill="white"/>
<path d="M148.232 329.431C148.093 328.23 147.236 327.076 145.826 326.893C144.119 326.667 142.697 327.902 141.615 328.957C140.354 330.186 139.253 331.531 138.307 332.967C136.276 336.057 134.79 339.495 133.783 342.926C132.803 346.277 132.237 350.159 133.553 353.408C134.084 354.733 135.402 355.718 137.053 354.955C138.046 354.495 138.97 353.753 139.877 353.166C140.993 352.448 142.109 351.73 143.213 351.01C144.19 350.375 143.337 348.94 142.345 349.584C140.616 350.699 138.884 351.827 137.154 352.942C136.903 353.103 136.372 353.577 136.08 353.57C135.592 353.563 135.422 353.103 135.289 352.771C134.988 352.041 134.85 351.219 134.767 350.432C134.352 346.951 135.398 343.38 136.715 340.057C137.915 337.029 139.421 334.06 141.628 331.468C142.322 330.646 144.314 328.087 145.708 328.609C146.508 328.908 146.469 329.953 146.227 330.58C145.819 330.539 145.386 330.69 145.225 331.149C145.03 331.723 144.833 332.31 144.626 332.883C144.296 333.848 145.653 334.241 146.293 333.518C147.326 332.331 148.391 330.979 148.218 329.441L148.232 329.431Z" fill="white"/>
</g>
<path d="M129.716 307.572C129.375 307.661 129.048 307.749 128.706 307.824C128.05 307.957 127.396 308.133 126.723 308.21C125.735 308.33 124.729 308.365 123.739 308.443C123.121 308.474 122.506 308.561 121.886 308.563C121.108 308.558 120.328 308.51 119.548 308.462C118.884 308.423 118.218 308.369 117.566 308.286C116.986 308.214 116.42 308.127 115.852 307.996C115.648 307.949 115.454 307.8 115.302 307.649C115.241 307.58 115.319 307.403 115.284 307.275C115.211 306.962 115.262 306.844 115.561 306.758C116.143 306.585 116.725 306.427 117.307 306.254C118.13 305.997 118.953 305.741 119.776 305.484C120.017 305.414 120.257 305.316 120.499 305.247C121.023 305.077 121.534 304.922 122.059 304.752C122.059 304.752 122.057 304.723 122.07 304.68C121.968 304.656 121.879 304.617 121.778 304.608C120.736 304.5 119.692 304.379 118.638 304.316C118.016 304.274 117.401 304.348 116.782 304.364C116.064 304.399 115.342 304.363 114.626 304.456C113.609 304.578 112.611 304.786 111.611 304.95C111.283 305.01 110.955 305.069 110.628 305.171C110.132 305.326 109.65 305.493 109.17 305.675C108.505 305.924 107.839 306.144 107.191 306.436C106.43 306.79 105.671 307.159 104.958 307.612C104.079 308.173 103.23 308.777 102.426 309.422C101.747 309.974 101.055 310.526 100.499 311.231C100.092 311.755 99.582 312.212 99.1908 312.75C98.6371 313.497 98.143 314.285 97.6345 315.074C97.4338 315.386 97.2928 315.739 97.077 316.037C96.9828 316.172 96.7551 316.226 96.602 316.334C96.3928 316.474 96.1902 316.455 96.1063 316.215C96.0389 316.016 95.9838 315.774 96.017 315.571C96.1166 314.961 96.2592 314.349 96.4026 313.752C96.4732 313.431 96.6172 313.136 96.7029 312.829C96.7886 312.523 96.8154 312.19 96.9162 311.897C97.1436 311.252 97.3999 310.606 97.6711 309.973C97.9295 309.37 98.2166 308.765 98.5166 308.131C98.4447 308.134 98.342 308.096 98.2572 308.129C97.931 308.232 97.6055 308.348 97.2807 308.48C96.8711 308.644 96.4622 308.822 96.054 309.015C95.2807 309.399 94.5066 309.769 93.7491 310.181C92.9083 310.654 92.1758 311.281 91.2402 311.586C90.9851 311.671 90.7179 311.511 90.7763 311.235C90.9148 310.536 91.2004 309.903 91.634 309.349C91.6743 309.289 91.7296 309.243 91.7555 309.184C92.0353 308.724 92.2993 308.235 92.6093 307.802C93.094 307.116 93.6081 306.443 94.1381 305.797C94.5867 305.256 95.0505 304.729 95.5602 304.258C96.1252 303.74 96.7506 303.277 97.3608 302.801C97.8877 302.386 98.4139 301.957 98.9875 301.611C99.7012 301.187 100.461 300.819 101.206 300.451C101.628 300.242 102.068 300.12 102.506 299.94C102.972 299.759 103.437 299.534 103.919 299.381C104.656 299.143 105.396 298.948 106.135 298.753C106.504 298.648 106.889 298.557 107.26 298.496C107.76 298.413 108.277 298.374 108.779 298.334C109.698 298.275 110.616 298.201 111.522 298.17C112.169 298.153 112.82 298.207 113.47 298.247C113.918 298.268 114.367 298.318 114.802 298.383C115.281 298.446 115.76 298.538 116.226 298.63C117.317 298.85 118.407 299.055 119.499 299.29C119.994 299.395 120.478 299.573 121.033 299.718C120.984 299.605 120.967 299.549 120.937 299.521C120.16 298.666 119.397 297.797 118.621 296.956C118.073 296.364 117.498 295.802 116.922 295.225C116.68 294.978 116.422 294.717 116.165 294.47C115.636 293.963 115.078 293.458 114.562 292.936C114.35 292.716 114.365 292.427 114.556 292.216C114.748 292.019 114.978 292.022 115.187 292.171C116.035 292.719 116.897 293.253 117.732 293.831C118.523 294.383 119.286 294.965 120.064 295.546C120.304 295.735 120.53 295.94 120.77 296.145C121.191 296.498 121.625 296.837 122.019 297.221C122.427 297.604 122.793 298.033 123.187 298.416C123.535 298.759 123.939 299.071 124.274 299.429C124.837 300.035 125.386 300.67 125.922 301.306C126.366 301.832 126.795 302.372 127.225 302.899C127.593 303.356 127.947 303.814 128.301 304.286C128.656 304.758 128.982 305.246 129.309 305.734C129.542 306.069 129.774 306.403 129.979 306.753C130.216 307.188 130.084 307.439 129.63 307.562L129.716 307.572Z" fill="#84B240"/>
<path d="M99.3509 309.257C99.0508 309.891 98.7638 310.495 98.5054 311.099C98.2341 311.731 97.9779 312.378 97.7504 313.023C97.6496 313.316 97.6228 313.649 97.5371 313.955C97.4514 314.262 97.3226 314.571 97.2369 314.877C97.0935 315.475 96.9508 316.087 96.8512 316.697C96.8181 316.9 96.8732 317.142 96.9406 317.341C97.0244 317.581 97.2277 317.615 97.4362 317.46C97.5893 317.352 97.8027 317.298 97.9113 317.163C98.127 316.864 98.2681 316.512 98.4687 316.199C98.9772 315.411 99.4713 314.623 100.025 313.876C100.416 313.338 100.927 312.881 101.333 312.357C101.889 311.652 102.567 311.1 103.26 310.547C104.063 309.889 104.926 309.284 105.793 308.737C106.505 308.285 107.264 307.916 108.025 307.562C108.659 307.271 109.338 307.036 110.004 306.801C110.485 306.619 110.966 306.452 111.463 306.297C111.774 306.196 112.117 306.136 112.446 306.076C113.445 305.897 114.458 305.703 115.46 305.582C116.176 305.489 116.897 305.511 117.616 305.49C118.234 305.459 118.851 305.4 119.472 305.442C120.527 305.505 121.57 305.626 122.612 305.733C122.713 305.743 122.802 305.782 122.904 305.805C122.905 305.834 122.907 305.877 122.893 305.878C122.368 306.048 121.857 306.203 121.333 306.373C121.092 306.457 120.851 306.54 120.61 306.61C119.787 306.867 118.964 307.123 118.142 307.38C117.56 307.553 116.977 307.711 116.395 307.884C116.097 307.97 116.046 308.102 116.118 308.401C116.152 308.515 116.075 308.706 116.136 308.775C116.288 308.926 116.482 309.075 116.686 309.122C117.255 309.253 117.821 309.34 118.4 309.412C119.053 309.495 119.718 309.549 120.382 309.588C121.162 309.636 121.943 309.684 122.721 309.689C123.34 309.687 123.956 309.614 124.573 309.569C125.563 309.491 126.569 309.456 127.557 309.336C128.231 309.259 128.884 309.083 129.54 308.95C129.882 308.875 130.209 308.787 130.551 308.698C131.02 308.574 131.152 308.323 130.9 307.889C130.71 307.538 130.463 307.205 130.23 306.87C129.904 306.382 129.563 305.895 129.223 305.422C128.882 304.949 128.514 304.492 128.146 304.035C127.716 303.494 127.286 302.954 126.843 302.442C126.308 301.806 125.758 301.171 125.195 300.565C124.86 300.207 124.471 299.895 124.107 299.538C123.713 299.14 123.347 298.726 122.939 298.343C122.547 297.973 122.112 297.634 121.691 297.266C121.45 297.062 121.238 296.856 120.984 296.667C120.207 296.086 119.443 295.505 118.653 294.953C117.818 294.375 116.956 293.841 116.108 293.292C115.884 293.145 115.654 293.142 115.476 293.338C115.284 293.535 115.27 293.838 115.483 294.058C116.013 294.579 116.556 295.085 117.085 295.592C117.342 295.839 117.585 296.086 117.843 296.347C118.404 296.924 118.994 297.486 119.541 298.078C120.332 298.918 121.095 299.787 121.857 300.643C121.888 300.685 121.904 300.727 121.953 300.84C121.412 300.679 120.929 300.516 120.42 300.411C119.328 300.177 118.237 299.957 117.146 299.752C116.681 299.659 116.201 299.568 115.723 299.505C115.273 299.441 114.839 299.404 114.391 299.369C113.741 299.329 113.09 299.275 112.442 299.292C111.521 299.309 110.618 299.382 109.699 299.456C109.197 299.481 108.681 299.549 108.181 299.617C107.795 299.68 107.425 299.77 107.055 299.874C106.316 300.069 105.563 300.279 104.839 300.502C104.357 300.656 103.893 300.88 103.426 301.062C102.988 301.227 102.548 301.364 102.127 301.572C101.367 301.941 100.622 302.309 99.9079 302.733C99.3344 303.078 98.8082 303.507 98.2813 303.922C97.671 304.399 97.045 304.847 96.4806 305.379C95.9709 305.851 95.4928 306.379 95.0585 306.919C94.5286 307.564 94.0144 308.238 93.5297 308.924C93.2205 309.372 92.9558 309.845 92.676 310.306C92.6357 310.365 92.5954 310.425 92.5545 310.47C92.1065 311.025 91.8208 311.659 91.6968 312.356C91.6384 312.633 91.9055 312.792 92.1606 312.708C93.0811 312.389 93.828 311.761 94.6696 311.302C95.412 310.877 96.2004 310.507 96.9744 310.137C97.3683 309.945 97.7772 309.766 98.2011 309.601C98.526 309.47 98.8522 309.368 99.1777 309.251C99.2625 309.218 99.3501 309.242 99.4371 309.252L99.3509 309.257ZM118.921 296.308C118.921 296.308 118.962 296.263 118.989 296.233C119.394 296.544 119.812 296.855 120.217 297.18C120.892 297.723 121.581 298.251 122.243 298.823C122.89 299.396 123.512 300.028 124.132 300.632C124.465 300.946 124.797 301.261 125.102 301.606C125.621 302.186 126.111 302.795 126.601 303.376C126.968 303.805 127.349 304.232 127.688 304.691C128.289 305.468 128.861 306.261 129.447 307.053C129.802 307.525 130.157 308.012 130.544 308.555C125.963 309.14 121.449 309.305 116.925 308.405C117.05 308.312 117.176 308.248 117.304 308.213C118.199 307.953 119.11 307.735 120.003 307.446C120.628 307.257 121.234 306.997 121.856 306.765C122.168 306.648 122.493 306.531 122.788 306.387C123.338 306.144 123.859 305.902 124.465 306.218C124.598 306.284 124.781 306.203 124.955 306.209C124.953 306.18 124.952 306.151 124.95 306.122C124.713 305.99 124.476 305.843 124.239 305.725C123.103 305.162 121.891 304.833 120.633 304.736C119.563 304.659 118.495 304.611 117.426 304.549C117.224 304.544 117.022 304.54 116.807 304.55C116.376 304.572 115.947 304.636 115.516 304.672C115.187 304.702 114.871 304.732 114.542 304.777C114.013 304.847 113.482 304.887 112.969 304.999C112.455 305.096 111.945 305.265 111.432 305.377C110.805 305.523 110.176 305.626 109.567 305.829C108.844 306.066 108.154 306.374 107.464 306.711C106.831 307.015 106.229 307.362 105.627 307.723C104.619 308.306 103.658 308.972 102.773 309.722C102.027 310.363 101.251 310.978 100.565 311.674C99.9745 312.265 99.4761 312.967 98.9612 313.626C98.7175 313.94 98.5039 314.282 98.2752 314.61C98.2457 314.597 98.2019 314.585 98.1725 314.572C98.2215 314.397 98.2567 314.237 98.3064 314.076C98.3568 313.929 98.4065 313.768 98.4569 313.622C98.5563 313.3 98.6406 312.965 98.7694 312.656C99.0263 312.024 99.312 311.39 99.5976 310.757C99.8322 310.256 100.066 309.74 100.344 309.251C100.542 308.881 100.545 308.362 100.239 308.277C100.02 308.215 99.7646 308.3 99.5347 308.311C98.7315 308.38 98.0128 308.703 97.2777 308.984C96.6561 309.231 96.051 309.52 95.4774 309.865C94.6243 310.383 93.8178 310.97 92.9812 311.529C93.0834 311.265 93.1562 310.988 93.3172 310.75C93.692 310.169 94.1112 309.616 94.516 309.063C94.7188 308.794 94.9065 308.511 95.1244 308.255C95.6831 307.608 96.2417 306.961 96.8162 306.342C97.1447 305.995 97.5185 305.688 97.8629 305.369C98.1663 305.095 98.4682 304.792 98.8024 304.559C99.3041 304.218 99.8216 303.904 100.354 303.604C101.251 303.099 102.147 302.579 103.075 302.116C103.496 301.894 103.964 301.741 104.418 301.589C104.87 301.423 105.337 301.256 105.807 301.132C106.445 300.942 107.086 300.78 107.726 300.619C108.196 300.51 108.679 300.385 109.166 300.318C109.767 300.245 110.356 300.216 110.959 300.172C111.677 300.136 112.409 300.072 113.129 300.079C113.923 300.098 114.718 300.159 115.499 300.236C116.411 300.321 117.323 300.42 118.237 300.548C118.846 300.633 119.457 300.747 120.067 300.861C120.431 300.929 120.794 300.983 121.142 301.038C121.577 301.103 121.998 301.155 122.491 301.231C121.562 299.332 120.331 297.737 118.905 296.28L118.921 296.308Z" fill="white"/>
<path d="M-11.4884 550.073C44.9774 546.938 69.4224 490.679 56.0022 477.12C46.4543 467.473 31.8415 476.556 39.5682 489.31C49.873 506.319 73.5609 547.678 103.5 541.5C135 535 139.793 498.82 157.256 496.289C180.428 492.931 203.516 526.989 219.721 532.56C241.215 539.948 251.347 503.242 266.066 496.289C280.843 489.309 308.029 511.742 335.249 508.38C363.962 504.833 402.416 477.119 402.416 477.119" stroke="white" stroke-width="2.35084" stroke-linecap="round"/>
<path d="M276.713 527.703C276.864 527.857 276.96 527.964 277 528.024C277.041 528.083 277.067 528.124 277.077 528.146C277.092 528.178 277.096 528.216 277.09 528.258C277.078 528.29 277.067 528.322 277.055 528.353C277.021 528.422 276.972 528.471 276.907 528.501C276.858 528.537 276.801 528.57 276.736 528.6C276.563 528.681 276.387 528.756 276.209 528.826C276.036 528.906 275.862 528.987 275.689 529.067C275.538 529.137 275.392 529.205 275.251 529.271C275.115 529.347 274.972 529.42 274.82 529.49C274.701 529.546 274.588 529.572 274.482 529.569C274.37 529.555 274.213 529.43 274.012 529.195L271.968 526.75L271.822 526.818L272.518 529.929C272.579 530.203 272.55 530.394 272.429 530.503C272.319 530.607 272.205 530.686 272.086 530.741C271.934 530.812 271.786 530.874 271.64 530.929C271.5 530.967 271.36 531.02 271.219 531.085C271.089 531.145 270.959 531.219 270.828 531.306C270.704 531.377 270.576 531.443 270.446 531.503L270.154 531.639C270.089 531.669 270.017 531.683 269.937 531.681C269.857 531.678 269.782 531.602 269.711 531.45C269.681 531.385 269.657 531.291 269.639 531.168C269.627 531.029 269.619 530.927 269.616 530.863L269.03 524.76L267.624 523.262C267.308 522.922 267.069 522.678 266.908 522.529C266.758 522.375 266.615 522.224 266.481 522.076C266.201 521.785 265.988 521.568 265.843 521.425C265.703 521.267 265.556 521.105 265.4 520.94C265.219 520.748 265.092 520.617 265.019 520.545C264.957 520.469 264.914 520.403 264.889 520.349C264.843 520.252 264.83 520.166 264.848 520.092C264.877 520.012 264.913 519.949 264.957 519.903C265.007 519.84 265.059 519.796 265.113 519.771C265.178 519.741 265.222 519.721 265.243 519.711C265.384 519.645 265.522 519.588 265.657 519.538C265.797 519.473 265.932 519.41 266.062 519.35C266.181 519.294 266.3 519.239 266.419 519.184C266.533 519.118 266.65 519.057 266.769 519.002C267.072 518.861 267.294 518.83 267.436 518.909C267.578 518.987 267.688 519.081 267.765 519.19L269.547 521.54L269.726 521.457L268.992 518.561C268.939 518.362 268.949 518.199 269.022 518.073C269.09 517.936 269.186 517.846 269.31 517.801L269.714 517.653C269.736 517.643 269.766 517.635 269.803 517.631C269.836 517.616 269.863 517.604 269.884 517.594C269.917 517.578 269.952 517.569 269.989 517.564C270.033 517.544 270.07 517.527 270.103 517.512C270.146 517.492 270.187 517.479 270.224 517.475C270.267 517.455 270.311 517.435 270.354 517.415C270.484 517.354 270.609 517.283 270.728 517.201C270.848 517.119 270.976 517.054 271.11 517.004C271.165 516.979 271.229 516.962 271.304 516.954C271.374 516.934 271.433 516.933 271.48 516.951C271.575 516.985 271.648 517.057 271.698 517.165C271.724 517.219 271.751 517.391 271.78 517.68L272.26 523.259L276.713 527.703ZM276.99 526.292C276.914 526.129 276.868 525.973 276.851 525.823C276.834 525.673 276.857 525.511 276.921 525.337L277.43 524.054C277.58 523.669 277.697 523.226 277.78 522.727C277.859 522.217 277.898 521.705 277.897 521.193C277.901 520.664 277.865 520.162 277.788 519.684C277.716 519.191 277.6 518.771 277.439 518.425C277.369 518.273 277.296 518.13 277.219 517.994C277.149 517.843 277.065 517.718 276.966 517.619C276.867 517.52 276.757 517.453 276.635 517.417C276.525 517.376 276.393 517.391 276.242 517.462C276.025 517.562 275.933 517.717 275.964 517.926C275.991 518.125 276.067 518.359 276.192 518.629L276.441 519.165C276.481 519.252 276.524 519.344 276.569 519.441C276.61 519.528 276.634 519.622 276.641 519.723C276.655 519.809 276.642 519.894 276.602 519.979C276.562 520.063 276.472 520.138 276.331 520.203L275.098 520.776C274.99 520.826 274.895 520.864 274.814 520.888C274.739 520.897 274.665 520.879 274.592 520.834C274.529 520.784 274.459 520.705 274.382 520.596C274.316 520.482 274.235 520.322 274.14 520.116L273.8 519.386C273.619 518.996 273.493 518.64 273.423 518.318C273.357 517.98 273.326 517.685 273.328 517.434C273.34 517.178 273.373 516.966 273.426 516.796C273.474 516.616 273.515 516.479 273.55 516.384C273.642 516.157 273.76 515.957 273.904 515.785C274.058 515.608 274.212 515.458 274.365 515.334C274.529 515.205 274.684 515.1 274.83 515.019C274.988 514.933 275.126 514.862 275.245 514.807C275.721 514.585 276.17 514.462 276.593 514.437C277.021 514.396 277.454 514.478 277.891 514.682C278.144 514.802 278.372 514.952 278.575 515.134C278.784 515.3 278.968 515.485 279.127 515.687C279.298 515.884 279.441 516.093 279.558 516.316C279.685 516.533 279.796 516.744 279.892 516.95C280.345 517.924 280.573 518.982 280.578 520.125C280.577 521.256 280.32 522.501 279.806 523.858L281.705 522.976C281.9 522.885 282.056 522.839 282.174 522.837C282.297 522.819 282.392 522.841 282.46 522.901C282.533 522.946 282.593 523.017 282.638 523.114C282.694 523.207 282.752 523.318 282.813 523.448L283.439 524.795C283.469 524.86 283.494 524.927 283.513 524.997C283.532 525.067 283.528 525.142 283.499 525.221C283.48 525.295 283.43 525.371 283.348 525.449C283.266 525.527 283.143 525.603 282.981 525.679L278.322 527.843C278.29 527.859 278.239 527.876 278.169 527.895C278.11 527.909 278.046 527.913 277.976 527.906C277.902 527.887 277.826 527.851 277.747 527.795C277.68 527.734 277.616 527.639 277.555 527.509L276.99 526.292Z" fill="#68A60B"/>
<path d="M164.246 535.994C164.219 536.281 164.192 536.471 164.165 536.565C164.139 536.659 164.12 536.72 164.106 536.749C164.086 536.793 164.051 536.829 164.002 536.859C163.959 536.875 163.917 536.89 163.874 536.906C163.775 536.93 163.681 536.922 163.594 536.881C163.515 536.862 163.432 536.832 163.345 536.791C163.113 536.683 162.884 536.568 162.659 536.445C162.427 536.337 162.195 536.229 161.963 536.12C161.76 536.026 161.564 535.934 161.376 535.847C161.18 535.773 160.981 535.689 160.778 535.594C160.619 535.52 160.494 535.427 160.405 535.315C160.323 535.188 160.316 534.92 160.383 534.51L161.127 530.302L160.932 530.211L158.34 533.61C158.112 533.91 157.89 534.045 157.675 534.015C157.474 533.992 157.294 533.943 157.134 533.869C156.931 533.774 156.739 533.676 156.557 533.573C156.396 533.463 156.222 533.364 156.033 533.276C155.859 533.195 155.671 533.125 155.469 533.066C155.289 532.999 155.111 532.926 154.937 532.844L154.546 532.662C154.459 532.621 154.382 532.559 154.315 532.475C154.248 532.391 154.262 532.247 154.357 532.044C154.398 531.957 154.473 531.851 154.584 531.727C154.717 531.594 154.814 531.498 154.877 531.439L160.633 525.57L160.955 522.834C161.032 522.216 161.076 521.76 161.09 521.467C161.118 521.18 161.15 520.903 161.185 520.637C161.242 520.099 161.281 519.693 161.302 519.421C161.345 519.14 161.383 518.849 161.418 518.548C161.459 518.196 161.484 517.952 161.495 517.816C161.52 517.686 161.549 517.585 161.583 517.513C161.644 517.382 161.72 517.294 161.812 517.249C161.918 517.21 162.014 517.193 162.101 517.198C162.208 517.195 162.298 517.21 162.37 517.244C162.457 517.285 162.515 517.312 162.544 517.325C162.733 517.413 162.911 517.505 163.078 517.601C163.266 517.688 163.448 517.773 163.622 517.854C163.781 517.929 163.941 518.003 164.1 518.077C164.266 518.137 164.429 518.204 164.589 518.279C164.995 518.468 165.219 518.669 165.26 518.883C165.302 519.097 165.3 519.29 165.255 519.463L164.383 523.32L164.622 523.432L166.96 520.179C167.119 519.952 167.294 519.822 167.486 519.789C167.685 519.74 167.861 519.76 168.014 519.849L168.516 520.136C168.545 520.15 168.578 520.174 168.614 520.209C168.658 520.229 168.694 520.246 168.723 520.259C168.767 520.28 168.807 520.307 168.844 520.342C168.902 520.369 168.952 520.393 168.996 520.413C169.054 520.44 169.101 520.471 169.138 520.506C169.196 520.533 169.254 520.56 169.312 520.587C169.486 520.668 169.667 520.735 169.854 520.787C170.042 520.839 170.219 520.913 170.386 521.008C170.459 521.042 170.532 521.094 170.605 521.164C170.686 521.219 170.737 521.278 170.761 521.342C170.807 521.469 170.796 521.606 170.729 521.751C170.695 521.823 170.542 521.999 170.271 522.279L164.962 527.588L164.246 535.994ZM165.933 535.059C166.034 534.841 166.155 534.659 166.294 534.512C166.433 534.365 166.619 534.249 166.853 534.164L168.609 533.579C169.134 533.4 169.688 533.138 170.273 532.793C170.865 532.433 171.423 532.031 171.947 531.587C172.493 531.136 172.978 530.664 173.401 530.173C173.846 529.674 174.176 529.193 174.392 528.729C174.487 528.526 174.571 528.326 174.644 528.131C174.739 527.928 174.795 527.733 174.811 527.547C174.827 527.36 174.801 527.189 174.733 527.034C174.678 526.885 174.55 526.763 174.347 526.668C174.057 526.533 173.818 526.572 173.631 526.785C173.45 526.983 173.275 527.263 173.106 527.626L172.771 528.343C172.717 528.459 172.66 528.583 172.599 528.713C172.545 528.829 172.469 528.935 172.371 529.031C172.295 529.119 172.196 529.179 172.076 529.211C171.955 529.243 171.8 529.215 171.612 529.127L169.959 528.356C169.813 528.288 169.694 528.224 169.599 528.162C169.525 528.092 169.48 528 169.462 527.886C169.46 527.779 169.481 527.639 169.526 527.466C169.586 527.3 169.68 527.079 169.809 526.803L170.265 525.824C170.509 525.302 170.765 524.866 171.035 524.515C171.325 524.156 171.6 523.869 171.859 523.655C172.133 523.447 172.379 523.297 172.599 523.205C172.825 523.099 173.002 523.022 173.129 522.976C173.441 522.874 173.748 522.823 174.048 522.822C174.363 522.828 174.651 522.856 174.91 522.906C175.183 522.963 175.425 523.031 175.635 523.111C175.859 523.198 176.051 523.279 176.21 523.353C176.848 523.651 177.363 524.005 177.753 524.417C178.165 524.821 178.455 525.336 178.622 525.961C178.718 526.323 178.76 526.687 178.749 527.053C178.759 527.41 178.729 527.758 178.659 528.097C178.604 528.442 178.513 528.77 178.386 529.081C178.273 529.399 178.152 529.696 178.023 529.972C177.415 531.277 176.526 532.425 175.358 533.416C174.197 534.392 172.698 535.203 170.861 535.847L173.406 537.034C173.667 537.156 173.849 537.276 173.953 537.395C174.078 537.506 174.138 537.622 174.134 537.744C174.152 537.858 174.13 537.98 174.069 538.111C174.023 538.248 173.959 538.404 173.878 538.578L173.036 540.383C172.995 540.47 172.948 540.554 172.893 540.634C172.838 540.714 172.757 540.774 172.651 540.813C172.559 540.858 172.437 540.872 172.287 540.855C172.136 540.837 171.952 540.778 171.734 540.677L165.491 537.766C165.448 537.745 165.386 537.708 165.306 537.653C165.24 537.604 165.181 537.542 165.129 537.464C165.083 537.372 165.055 537.262 165.045 537.134C165.048 537.012 165.091 536.864 165.172 536.69L165.933 535.059Z" fill="white"/>
<path d="M100.689 524.221C100.844 524.406 100.943 524.533 100.983 524.604C101.024 524.674 101.049 524.722 101.059 524.747C101.073 524.785 101.075 524.827 101.064 524.874C101.048 524.909 101.032 524.943 101.017 524.978C100.973 525.051 100.913 525.102 100.838 525.131C100.78 525.167 100.714 525.199 100.638 525.227C100.438 525.303 100.235 525.372 100.03 525.435C99.829 525.51 99.6284 525.586 99.4278 525.661C99.2523 525.727 99.0831 525.791 98.9201 525.852C98.7618 525.926 98.595 525.996 98.4194 526.062C98.2815 526.114 98.153 526.134 98.0339 526.121C97.91 526.096 97.7452 525.944 97.5395 525.663L95.4575 522.754L95.2882 522.818L95.8048 526.359C95.8506 526.671 95.8015 526.883 95.6573 526.994C95.5258 527.101 95.391 527.18 95.2531 527.232C95.0776 527.298 94.906 527.356 94.7383 527.404C94.5784 527.436 94.417 527.482 94.254 527.544C94.1036 527.6 93.9516 527.672 93.7981 527.758C93.6523 527.827 93.5043 527.89 93.3538 527.947L93.0153 528.074C92.9401 528.102 92.8578 528.112 92.7684 528.103C92.6791 528.093 92.6014 528.001 92.5353 527.825C92.507 527.75 92.4881 527.643 92.4785 527.503C92.4768 527.346 92.4767 527.232 92.4782 527.16L92.3365 520.279L90.8883 518.484C90.5633 518.077 90.3169 517.783 90.1489 517.603C89.9935 517.418 89.8467 517.237 89.7086 517.06C89.4197 516.711 89.2 516.45 89.0493 516.278C88.9064 516.089 88.7549 515.895 88.5948 515.698C88.4079 515.468 88.2769 515.309 88.2015 515.223C88.1387 515.132 88.0955 515.056 88.0719 514.993C88.0295 514.88 88.0215 514.783 88.0481 514.701C88.0872 514.615 88.1334 514.548 88.1866 514.499C88.2477 514.433 88.3096 514.388 88.3722 514.365C88.4475 514.336 88.4976 514.318 88.5227 514.308C88.6857 514.247 88.8447 514.194 88.9999 514.15C89.1629 514.089 89.3196 514.03 89.47 513.973C89.6079 513.921 89.7458 513.869 89.8837 513.817C90.0169 513.753 90.1524 513.695 90.2904 513.643C90.6414 513.511 90.893 513.495 91.0452 513.595C91.1973 513.695 91.3119 513.81 91.3889 513.938L93.1862 516.718L93.3931 516.64L92.8156 513.337C92.7731 513.11 92.7979 512.928 92.8903 512.794C92.9779 512.646 93.093 512.553 93.2357 512.513L93.7011 512.381C93.7262 512.372 93.7599 512.366 93.8022 512.365C93.8398 512.35 93.8712 512.339 93.8963 512.329C93.9339 512.315 93.9738 512.307 94.0162 512.305C94.0663 512.287 94.1102 512.27 94.1478 512.256C94.1979 512.237 94.2442 512.227 94.2865 512.225C94.3367 512.206 94.3868 512.187 94.437 512.169C94.5874 512.112 94.7331 512.043 94.8741 511.961C95.0151 511.88 95.1632 511.817 95.3184 511.773C95.381 511.749 95.4547 511.736 95.5394 511.732C95.6193 511.717 95.6852 511.72 95.7369 511.744C95.8404 511.791 95.9158 511.877 95.963 512.002C95.9865 512.065 96.0024 512.259 96.0106 512.585L96.0787 518.871L100.689 524.221ZM101.117 522.664C101.046 522.476 101.008 522.298 101.001 522.128C100.995 521.959 101.035 521.779 101.121 521.59L101.799 520.197C101.999 519.778 102.167 519.293 102.303 518.741C102.434 518.176 102.52 517.607 102.562 517.033C102.611 516.442 102.613 515.876 102.567 515.335C102.529 514.777 102.434 514.297 102.283 513.896C102.217 513.721 102.147 513.554 102.073 513.396C102.007 513.22 101.923 513.073 101.821 512.954C101.719 512.835 101.602 512.75 101.468 512.7C101.347 512.645 101.199 512.651 101.024 512.717C100.773 512.811 100.656 512.977 100.674 513.214C100.687 513.438 100.752 513.707 100.87 514.02L101.104 514.641C101.141 514.741 101.181 514.848 101.224 514.96C101.262 515.061 101.28 515.168 101.281 515.282C101.289 515.38 101.267 515.474 101.215 515.565C101.163 515.656 101.056 515.732 100.893 515.793L99.464 516.331C99.3386 516.378 99.2297 516.412 99.1372 516.432C99.0526 516.436 98.971 516.409 98.8926 516.353C98.8267 516.292 98.7552 516.197 98.6783 516.068C98.6138 515.935 98.5368 515.75 98.4472 515.511L98.1288 514.665C97.959 514.214 97.848 513.805 97.7959 513.438C97.7515 513.054 97.741 512.722 97.7642 512.441C97.7999 512.156 97.8545 511.92 97.928 511.735C97.9968 511.538 98.0546 511.387 98.1015 511.284C98.2235 511.037 98.3722 510.824 98.5476 510.643C98.7356 510.458 98.9204 510.303 99.1021 510.177C99.2964 510.047 99.4789 509.942 99.6497 509.864C99.833 509.781 99.9936 509.713 100.132 509.661C100.683 509.453 101.196 509.353 101.671 509.361C102.154 509.351 102.632 509.479 103.104 509.745C103.377 509.9 103.619 510.088 103.831 510.308C104.051 510.512 104.242 510.734 104.403 510.973C104.578 511.208 104.721 511.455 104.832 511.714C104.956 511.967 105.063 512.213 105.153 512.452C105.577 513.58 105.744 514.784 105.653 516.063C105.557 517.33 105.165 518.701 104.475 520.177L106.675 519.349C106.901 519.265 107.079 519.226 107.211 519.234C107.351 519.224 107.456 519.256 107.526 519.33C107.605 519.386 107.665 519.471 107.708 519.583C107.763 519.692 107.818 519.821 107.875 519.971L108.462 521.532C108.491 521.607 108.513 521.685 108.528 521.765C108.544 521.845 108.532 521.928 108.493 522.014C108.467 522.096 108.404 522.177 108.306 522.257C108.207 522.337 108.063 522.412 107.875 522.483L102.478 524.514C102.441 524.528 102.382 524.543 102.302 524.558C102.235 524.569 102.163 524.568 102.086 524.554C102.004 524.527 101.922 524.48 101.839 524.411C101.768 524.337 101.704 524.225 101.648 524.075L101.117 522.664Z" fill="#C10230"/>
<path d="M18.2566 517.485C18.2216 517.693 18.1922 517.831 18.1684 517.899C18.1446 517.966 18.127 518.01 18.1157 518.03C18.0986 518.061 18.0713 518.086 18.0337 518.106C18.0018 518.115 17.97 518.124 17.9381 518.133C17.864 518.146 17.7962 518.135 17.7346 518.101C17.6776 518.083 17.6183 518.057 17.5567 518.023C17.3924 517.932 17.231 517.836 17.0724 517.735C16.9081 517.644 16.7439 517.553 16.5796 517.462C16.4359 517.383 16.2973 517.306 16.1638 517.232C16.0247 517.168 15.8832 517.097 15.7395 517.017C15.6266 516.955 15.5404 516.88 15.481 516.794C15.4273 516.697 15.4355 516.501 15.5056 516.204L16.2627 513.163L16.1241 513.087L14.0564 515.443C13.8744 515.65 13.7053 515.738 13.5491 515.705C13.4032 515.678 13.2738 515.633 13.1609 515.571C13.0171 515.491 12.8814 515.409 12.7536 515.325C12.6418 515.236 12.5191 515.155 12.3856 515.081C12.2625 515.013 12.1284 514.952 11.9836 514.899C11.8547 514.841 11.7287 514.778 11.6055 514.71L11.3283 514.557C11.2667 514.523 11.2136 514.473 11.1691 514.408C11.1245 514.343 11.142 514.239 11.2215 514.095C11.2556 514.034 11.3164 513.96 11.404 513.875C11.5076 513.784 11.5838 513.719 11.6328 513.679L16.1403 509.676L16.5146 507.691C16.6016 507.243 16.6574 506.912 16.6821 506.698C16.7171 506.489 16.7543 506.288 16.7939 506.096C16.8627 505.705 16.9117 505.41 16.941 505.212C16.9863 505.009 17.0292 504.798 17.0698 504.579C17.1172 504.324 17.1483 504.146 17.1629 504.047C17.1878 503.954 17.2145 503.881 17.2429 503.83C17.294 503.738 17.3543 503.677 17.4238 503.648C17.5035 503.626 17.5747 503.618 17.6374 503.626C17.716 503.629 17.781 503.645 17.8324 503.673C17.8939 503.708 17.935 503.73 17.9555 503.742C18.089 503.815 18.2145 503.892 18.332 503.97C18.4655 504.044 18.5938 504.115 18.717 504.183C18.8299 504.245 18.9429 504.308 19.0558 504.37C19.1744 504.423 19.2902 504.48 19.4031 504.542C19.6906 504.702 19.8441 504.86 19.8638 505.019C19.8834 505.177 19.8723 505.318 19.8303 505.443L18.9976 508.22L19.167 508.314L21.0417 506.052C21.169 505.895 21.3039 505.809 21.4464 505.794C21.5945 505.768 21.7221 505.792 21.8294 505.865L22.1819 506.1C22.2025 506.111 22.2253 506.131 22.2504 506.158C22.2812 506.175 22.3069 506.189 22.3274 506.201C22.3582 506.218 22.3862 506.24 22.4113 506.267C22.4524 506.29 22.4883 506.31 22.5191 506.327C22.5602 506.349 22.5933 506.374 22.6184 506.402C22.6594 506.425 22.7005 506.447 22.7416 506.47C22.8648 506.538 22.9936 506.596 23.1282 506.644C23.2628 506.691 23.3888 506.754 23.5063 506.833C23.5576 506.861 23.6084 506.903 23.6587 506.957C23.7146 507.002 23.7494 507.048 23.7632 507.096C23.7907 507.191 23.7761 507.29 23.7193 507.393C23.6909 507.444 23.5703 507.565 23.3575 507.756L19.2048 511.372L18.2566 517.485ZM19.5375 516.886C19.6227 516.732 19.72 516.605 19.8292 516.504C19.9384 516.404 20.0807 516.328 20.2561 516.278L21.5701 515.939C21.9631 515.835 22.3822 515.671 22.8274 515.448C23.2782 515.215 23.7068 514.949 24.1131 514.651C24.5354 514.348 24.9138 514.028 25.2482 513.69C25.5986 513.347 25.8647 513.012 26.0465 512.683C26.126 512.539 26.1975 512.398 26.2611 512.259C26.3406 512.115 26.3911 511.975 26.4125 511.84C26.4339 511.704 26.4234 511.578 26.3811 511.46C26.349 511.349 26.2611 511.253 26.1173 511.174C25.912 511.06 25.7354 511.076 25.5875 511.222C25.4453 511.358 25.3032 511.555 25.1612 511.811L24.88 512.319C24.8346 512.402 24.7863 512.489 24.7352 512.581C24.6897 512.663 24.6289 512.737 24.5526 512.802C24.4923 512.863 24.4172 512.901 24.3272 512.919C24.2372 512.936 24.1255 512.908 23.992 512.834L22.8216 512.186C22.719 512.129 22.6345 512.076 22.5684 512.026C22.5181 511.971 22.4895 511.902 22.4825 511.818C22.4858 511.739 22.5084 511.638 22.5504 511.513C22.6026 511.395 22.6826 511.238 22.7906 511.043L23.174 510.35C23.3785 509.98 23.5882 509.674 23.8031 509.431C24.034 509.183 24.2497 508.987 24.45 508.843C24.6606 508.705 24.8484 508.608 25.0136 508.552C25.1844 508.485 25.3176 508.438 25.4133 508.411C25.6468 508.352 25.8736 508.33 26.0936 508.345C26.3238 508.365 26.5324 508.4 26.7194 508.449C26.9166 508.505 27.09 508.567 27.2394 508.637C27.3991 508.712 27.5354 508.78 27.6483 508.843C28.1 509.093 28.4583 509.378 28.7233 509.699C29.0042 510.015 29.1901 510.406 29.2809 510.872C29.3327 511.142 29.3451 511.411 29.3182 511.677C29.3073 511.94 29.2679 512.193 29.1999 512.437C29.1422 512.686 29.0589 512.922 28.9499 513.143C28.8511 513.37 28.7478 513.581 28.6399 513.776C28.1287 514.7 27.4206 515.495 26.5158 516.161C25.6167 516.817 24.4791 517.334 23.1031 517.712L24.9049 518.709C25.0897 518.811 25.2169 518.909 25.2866 519.001C25.3722 519.088 25.4106 519.177 25.4016 519.266C25.4086 519.35 25.3865 519.438 25.3354 519.531C25.2945 519.629 25.24 519.739 25.1719 519.863L24.4647 521.141C24.4306 521.202 24.3914 521.261 24.3471 521.317C24.3027 521.373 24.2407 521.412 24.1609 521.435C24.0915 521.464 24.002 521.468 23.8926 521.448C23.7831 521.427 23.6514 521.375 23.4974 521.289L19.0777 518.844C19.0469 518.827 19.0036 518.796 18.9476 518.752C18.902 518.713 18.862 518.664 18.8277 518.605C18.7991 518.536 18.7842 518.454 18.7829 518.359C18.7918 518.27 18.8304 518.164 18.8985 518.041L19.5375 516.886Z" fill="#5C0F8B"/>
</g>
<defs>
<clipPath id="clip0_4004_2554">
<rect width="296" height="555" fill="white"/>
</clipPath>
</defs>
</svg>
