<svg width="128" height="110" viewBox="0 0 128 110" fill="none" xmlns="http://www.w3.org/2000/svg">
<path d="M108.831 105.642C91.3203 109.865 50.4759 113.252 18.1923 104.672C12.4471 103.145 9.08647 98.1209 7.805 94.1824C6.52353 90.2439 -4.09743 45.503 11.0808 12.107C13.3679 8.75703 18.7283 6.21541 25.28 5.67216C57.1566 3.03354 86.6865 3.73849 105.972 6.24777C112.655 7.11438 117.67 9.83059 119.885 13.3293C130.69 30.3898 130.261 81.1898 121.231 98.1209C119.385 101.574 114.93 104.174 108.831 105.649L108.831 105.642Z" fill="white"/>
<path d="M19.169 101.642C36.6797 105.865 77.5241 109.252 109.808 100.672C115.553 99.1453 118.914 94.1209 120.195 90.1824C121.476 86.2439 132.097 41.503 116.919 8.10705C114.632 4.75704 109.272 2.21541 102.72 1.67217C70.8434 -0.966453 41.3135 -0.261509 22.0279 2.24777C15.3452 3.11437 10.3302 5.83059 8.11459 9.32935C-2.68963 26.3898 -2.2608 77.1898 6.76853 94.1209C8.6149 97.5744 13.07 100.174 19.169 101.649V101.642Z" fill="#C10230"/>
</svg>
