<svg width="366" height="664" viewBox="0 0 366 664" fill="none" xmlns="http://www.w3.org/2000/svg">
<path d="M148.368 662.828C92.051 659.829 63.8926 658.329 42.4021 637.567C20.9116 616.806 18.3534 587.712 13.2368 529.526C8.54818 476.207 3.75171 408.836 1.07451 334.464C-1.76376 255.618 1.4298 184.168 5.88597 128.931C10.1644 75.898 12.3036 49.3814 33.3248 28.5299C54.346 7.67842 80.6338 5.77199 133.21 1.95918C150.238 0.724195 167.088 -0.0576048 182.075 0.0033083C193.997 0.0517702 207.143 0.643201 220.594 1.56563C274.435 5.25807 301.356 7.10426 322.317 27.2553C343.279 47.4064 346.338 75.6553 352.457 132.153C359.324 195.567 366.032 273.188 366 334.257C365.97 392.054 361.381 464.896 356.49 526.202C351.667 586.647 349.255 616.87 327.608 637.868C305.961 658.866 277.172 660.283 219.594 663.116C208.933 663.64 198.594 663.965 189.054 663.997C176.49 664.04 162.593 663.586 148.368 662.828Z" fill="#783FC7"/>
</svg>
