<svg width="163" height="239" viewBox="0 0 163 239" fill="none" xmlns="http://www.w3.org/2000/svg">
<g clip-path="url(#clip0_67_1125)">
<path d="M142.577 160.913C137.487 152.392 130.77 144.712 124.753 136.858C118.604 128.829 112.455 120.8 106.32 112.751C99.4048 103.72 92.5093 94.7037 85.6113 85.6703C85.2254 85.0902 84.8247 84.53 84.4389 83.9499C82.084 80.4399 78.4853 80.3846 75.7077 82.066C70.9205 82.4683 66.6235 88.6178 69.9959 94.1185C70.001 94.1531 70.0407 94.1827 70.0631 94.2148C70.1089 94.5264 70.1546 94.8381 70.2574 95.1767C70.3852 95.5648 70.5154 95.9702 70.6457 96.3755C65.3298 95.1044 59.3568 96.7067 54.7198 101.986C51.9775 105.113 50.4624 108.767 49.1952 112.543C44.0924 122.119 40.4454 131.852 37.2418 142.315C36.7042 144.074 36.4361 145.741 36.4052 147.338C36.2702 147.623 36.1352 147.908 36.0373 148.205C32.8683 156.736 29.5877 165.23 26.193 173.67C24.6569 175.134 23.4339 176.923 22.7094 178.975C21.7964 181.55 21.5346 184.224 21.8365 186.762C21.3891 190.701 22.4373 194.827 25.0228 198.463C26.0033 199.84 26.9863 201.234 27.9199 202.653C28.3307 203.283 28.7441 203.93 29.1574 204.577C31.1508 208.034 33.1661 211.399 36.3549 213.601C36.6981 215.939 38.0456 218.129 40.0817 219.227C40.1117 219.311 40.1219 219.38 40.1693 219.462C41.9579 223.09 46.0058 224.76 49.7912 223.196C53.0947 221.844 56.3983 220.492 59.7192 219.138C61.4884 218.418 62.8534 216.873 63.5468 215.091C65.0809 215.662 66.8851 215.662 68.8412 214.65C70.4688 213.81 72.1239 213.036 73.7668 212.299C74.9629 212.495 76.3017 212.458 77.7403 212.017C93.5632 207.27 109.185 206.09 125.564 206.338C127.865 206.708 130.156 207.132 132.424 207.647C133.247 207.827 134.127 207.557 134.867 207.059C137.766 206.686 140.454 204.753 141.036 201.006C141.651 197.007 142.143 193.008 142.597 188.997C143.295 187.727 143.973 186.442 144.56 185.136C148.245 176.865 147.136 168.592 142.539 160.9L142.577 160.913ZM129.375 167.733C128.898 167.732 128.413 167.803 127.951 167.907C127.912 167.523 127.871 167.123 127.832 166.739C128.361 167.086 128.894 167.344 129.451 167.527C129.427 167.602 129.402 167.676 129.395 167.748L129.375 167.733Z" fill="#FFC20E"/>
<path d="M64.1038 170.101C67.6497 168.714 69.8273 165.475 72.6392 163.064C74.1956 161.739 75.8366 160.507 77.3956 159.199C78.9077 157.934 80.1861 156.402 81.7033 155.171C82.8727 154.221 81.4778 152.551 80.2535 153.367C78.7551 154.366 77.7023 155.988 76.3607 157.211C74.8465 158.583 73.2081 159.832 71.6741 161.189C68.7761 163.737 66.4942 166.867 63.7627 169.585C63.531 169.814 63.733 170.226 64.0691 170.106L64.1038 170.101Z" fill="white"/>
<path d="M100.843 165.202C100.59 163.841 99.5602 163.091 98.4044 162.447C96.2466 161.242 94.126 160.05 92.0099 158.769C90.0675 157.587 87.9702 156.674 85.932 155.682C84.3501 154.906 82.9403 153.858 81.3929 153.077C80.4184 152.583 79.7373 153.727 79.9806 154.54C80.3317 155.726 81.8709 156.332 82.8704 156.875C84.7131 157.86 86.6367 158.674 88.5064 159.602C90.5669 160.626 92.4161 162.017 94.4594 163.044C96.3886 164.016 98.4988 164.414 100.374 165.5C100.585 165.611 100.904 165.493 100.846 165.219L100.843 165.202Z" fill="white"/>
<path d="M107.508 148.799C106.21 151.767 105.282 154.963 104.079 157.97C103.199 160.168 100.872 162.632 101.379 165.123C101.566 166.033 102.69 166.097 103.108 165.329C104.439 162.834 105.718 159.975 106.63 157.277C107.506 154.689 108.902 151.672 108.317 148.893C108.239 148.48 107.679 148.403 107.508 148.799Z" fill="white"/>
<path d="M107.394 150.762C109.252 152.452 110.957 154.306 112.847 155.975C115.124 157.992 117.694 159.596 120.178 161.336C123.511 163.677 126.894 168.168 131.163 168.69C132.532 168.861 132.881 167.023 131.738 166.466C127.292 164.253 123.757 160.775 119.638 158.019C117.363 156.496 115.075 155.011 112.915 153.311C111.314 152.043 109.658 150.641 107.593 150.308C107.32 150.259 107.23 150.609 107.411 150.759L107.394 150.762Z" fill="white"/>
<path d="M127.102 159.01C130.629 161.464 133.834 164.265 137.523 166.5C139.195 167.528 141.015 168.358 142.64 169.428C144.032 170.356 145.118 171.965 146.76 172.431C148.034 172.792 149.383 171.02 148.006 170.197C146.513 169.302 145.32 168.044 143.809 167.152C142.128 166.178 140.321 165.435 138.612 164.519C134.847 162.489 131.27 160.291 127.38 158.492C127.077 158.36 126.824 158.804 127.1 158.993L127.102 159.01Z" fill="white"/>
<path d="M52.6687 160.39C49.5882 164.344 45.7286 167.812 42.2779 171.414C39.7761 174.01 36.7832 177.598 35.874 181.163C35.7181 181.787 36.6382 182.271 37.0894 181.851C38.5664 180.467 39.3729 178.491 40.4874 176.806C41.6906 175.002 43.0602 173.369 44.5439 171.789C47.7995 168.304 50.607 164.779 53.0857 160.7C53.2553 160.41 52.8755 160.112 52.6687 160.39Z" fill="white"/>
<path d="M51.7413 161.57C52.8387 163.743 55.5236 164.923 57.3188 166.428C58.9327 167.783 60.8158 170.248 62.9875 170.584C64.0721 170.743 64.7451 169.423 64.0935 168.599C63.4591 167.773 62.4276 167.252 61.6109 166.629C60.5957 165.859 59.6396 165.009 58.5948 164.278C56.7385 162.958 54.3546 161.54 52.0861 161.148C51.8682 161.109 51.6762 161.367 51.7759 161.565L51.7413 161.57Z" fill="white"/>
<path d="M37.3585 168.634C35.6319 170.126 34.441 171.893 33.0225 173.675C31.1756 176.033 29.0583 178.237 27.0724 180.492C25.2368 182.565 21.1751 185.62 21.5462 188.75C21.6997 190.036 23.62 189.984 23.7883 188.721C24.156 185.925 27.5296 183.484 29.2389 181.394C30.8571 179.405 32.5817 177.419 34.0187 175.28C35.3252 173.337 35.9435 170.681 37.6695 169.066C37.9186 168.835 37.5953 168.44 37.3437 168.654L37.3585 168.634Z" fill="white"/>
<path d="M77.8883 134.259C79.5439 148.183 80.7107 162.392 83.5931 176.118C83.8098 177.112 85.2469 176.901 85.1687 175.887C83.9657 161.914 81.0156 147.967 78.5982 134.155C78.532 133.704 77.8568 133.804 77.9056 134.256L77.8883 134.259Z" fill="white"/>
<path d="M54.1399 148.146C52.76 152.841 50.9437 157.335 51.3766 162.33C51.4853 163.553 53.427 163.285 53.2638 162.053C52.6475 157.616 53.6278 152.608 54.6181 148.271C54.6838 147.996 54.2255 147.886 54.1399 148.146Z" fill="white"/>
<path d="M57.753 181.664C57.3215 175.112 53.638 169.18 52.4472 162.757C52.2702 161.793 51.0481 161.902 50.8238 162.783C50.2026 165.298 52.0117 168.463 52.7929 170.772C53.3287 172.374 53.7903 173.951 54.4942 175.492C55.4328 177.548 56.767 179.527 57.3053 181.748C57.3659 182.039 57.7814 181.978 57.7555 181.681L57.753 181.664Z" fill="white"/>
<path d="M103.239 138.991C104.044 141.579 104.623 144.2 105.514 146.775C106.188 148.71 106.657 150.941 107.99 152.549C108.676 153.368 109.975 152.576 109.582 151.59C107.845 147.229 105.858 142.975 103.741 138.793C103.589 138.48 103.142 138.687 103.242 139.008L103.239 138.991Z" fill="white"/>
<path d="M110.063 170.144C110.446 164.322 111.565 158.692 110.529 152.848C110.33 151.728 108.596 151.965 108.763 153.107C109.585 158.7 109.409 164.491 109.585 170.143C109.588 170.408 110.046 170.394 110.063 170.144Z" fill="white"/>
<path d="M60.6174 196.348C60.2586 197.639 59.4298 198.981 58.9051 200.226C57.9977 202.358 57.0705 204.475 56.2029 206.636C55.6562 207.972 52.6313 213.51 54.8381 214.566C55.6736 214.956 56.429 213.837 55.8868 213.156C56.1679 213.504 55.9755 213.037 56.1416 212.482C56.3688 211.741 56.5813 211.02 56.8284 210.294C57.4842 208.376 58.254 206.512 59.0014 204.616C59.8344 202.459 61.9734 198.838 61.3552 196.435C61.2748 196.128 60.7544 195.957 60.6347 196.346L60.6174 196.348Z" fill="white"/>
<path d="M60.8511 197.339C64.9145 200.439 69.2143 203.222 73.2951 206.319C74.4691 207.208 75.7639 205.426 74.6393 204.512C70.7388 201.317 66.0638 198.148 61.1756 196.779C60.8263 196.689 60.536 197.12 60.8537 197.357L60.8511 197.339Z" fill="white"/>
<path d="M85.6903 189.076C84.8842 191.777 82.2332 194.2 80.703 196.547C79.1138 198.974 77.6294 201.633 76.5758 204.334C76.0882 205.591 78.0638 206.397 78.5315 205.126C79.7288 201.837 81.5158 198.709 83.3033 195.705C84.4662 193.748 86.143 191.556 86.2056 189.212C86.2021 188.948 85.808 188.793 85.7102 189.091L85.6903 189.076Z" fill="white"/>
<path d="M85.7685 189.612C87.4993 192.365 90.2252 194.547 92.6563 196.648C93.8507 197.676 95.124 198.638 96.2864 199.688C97.1259 200.467 97.6293 201.366 98.7078 201.844C100.106 202.453 100.91 200.583 99.9268 199.667C95.8085 195.832 91.2014 191.68 86.0639 189.215C85.816 189.092 85.6514 189.417 85.7685 189.612Z" fill="white"/>
<path d="M110.624 188.191C108.61 190.255 106.81 192.448 105.002 194.712C103.386 196.718 101.664 198.598 100.539 200.938C100.363 201.301 100.451 201.783 100.707 202.081L100.814 202.207C101.304 202.772 102.17 202.768 102.631 202.17C103.153 201.51 102.932 200.729 102.203 200.341C101.724 200.092 101.181 200.367 100.86 200.715C100.828 200.737 100.816 200.774 100.784 200.796C101.383 200.779 101.984 200.779 102.6 200.76C102.561 200.73 102.536 200.681 102.496 200.651L102.664 201.794C103.63 199.459 105.31 197.532 106.76 195.479C108.345 193.266 109.724 190.976 111.096 188.634C111.251 188.364 110.922 187.935 110.661 188.203L110.624 188.191Z" fill="white"/>
<path d="M109.923 189.426C111.252 190.044 111.983 192.378 112.703 193.546C113.869 195.462 115.41 197.163 116.879 198.858C118.838 201.117 120.709 203.495 122.761 205.67C123.094 206.01 123.581 206.31 124.095 206.199C127.648 205.342 122.016 200.597 121.072 199.586C118.823 197.157 116.401 194.877 114.31 192.319C113.188 190.945 112.02 189.012 110.084 188.836C109.725 188.801 109.6 189.279 109.923 189.426Z" fill="white"/>
<path d="M127.036 193.723C127.565 194.07 128.162 196.21 128.461 196.803C129.215 198.32 129.933 199.842 130.704 201.356C132.026 203.974 133.274 207.416 135.215 209.554C136.227 210.662 138.336 209.609 137.588 208.127C135.902 204.837 133.816 201.588 131.885 198.441C131.235 197.386 128.903 192.582 127.091 193.255C126.888 193.32 126.862 193.624 127.039 193.74L127.036 193.723Z" fill="white"/>
<path d="M47.1278 206.501C47.0909 207.815 46.3247 209.342 45.9609 210.598C45.3968 212.538 44.8846 214.471 44.4122 216.433C44.2491 217.129 42.581 224.077 45.6382 222.373C46.179 222.081 46.4638 221.491 46.2164 220.89C46.5687 221.723 46.2052 221.175 46.2379 220.675C46.2803 220.12 46.3028 219.551 46.3625 218.994C46.5293 217.36 46.8225 215.743 47.0983 214.128C47.4949 211.77 48.2558 208.882 47.6773 206.508C47.602 206.236 47.1513 206.179 47.1477 206.515L47.1278 206.501Z" fill="white"/>
<path d="M51.4114 218.2C51.0873 219.486 51.7448 221.193 52.101 222.414C52.5173 223.804 53.0522 225.158 53.9798 226.295C54.3453 226.736 54.9696 226.892 55.5033 226.673C55.8368 226.535 56.0339 226.312 56.1786 225.972C56.3503 225.575 56.2888 225.036 55.9905 224.691C55.1378 223.702 54.613 222.417 54.101 221.219C53.6612 220.151 53.3784 218.707 52.546 217.856C52.1311 217.44 51.5577 217.63 51.4089 218.183L51.4114 218.2Z" fill="white"/>
<path d="M74.9594 207.896C75.3659 209.34 75.1151 211.004 75.2818 212.501C75.4876 214.504 75.8691 216.5 76.2827 218.474C76.9232 221.51 76.7941 225.208 78.5789 227.847C79.3231 228.94 81.2441 227.809 80.5763 226.634C79.6493 225.019 79.5239 223.321 79.1703 221.516C78.8041 219.624 78.2128 217.766 77.7106 215.911C77.0399 213.392 76.9469 209.868 75.4065 207.689C75.2721 207.497 74.8866 207.642 74.9568 207.879L74.9594 207.896Z" fill="white"/>
<path d="M99.527 204.643C100.251 206.199 99.7898 209.203 99.8312 210.93C99.871 212.888 99.9628 214.837 100.055 216.787C100.167 218.999 99.785 222.54 102.108 223.667C102.567 223.9 103.306 223.509 103.296 222.962C103.303 221.563 102.642 220.316 102.491 218.923C102.286 217.167 102.096 215.391 101.926 213.629C101.653 210.928 101.925 206.519 99.9344 204.406C99.7654 204.219 99.4196 204.393 99.5443 204.64L99.527 204.643Z" fill="white"/>
<path d="M64.5021 213.907C61.6899 217.522 58.1191 220.788 56.2723 225.074C56.0074 225.679 56.7742 226.203 57.2652 225.812C58.9627 224.484 59.7341 222.39 60.7564 220.559C61.9877 218.345 63.5514 216.346 64.9389 214.232C65.1259 213.94 64.7262 213.627 64.5021 213.907Z" fill="white"/>
<path d="M64.7722 214.38C68.7167 218.718 73.5067 222.189 77.2195 226.755C78.2117 227.972 80.1261 226.435 79.1192 225.238C75.2328 220.574 69.7674 217.803 65.2183 213.926C64.9353 213.684 64.5212 214.117 64.7747 214.398L64.7722 214.38Z" fill="white"/>
<path d="M87.1003 213.011C85.0687 212.425 83.6248 215.963 82.9025 217.307C81.8164 219.306 78.603 222.838 79.9092 225.228C80.2258 225.818 81.1393 225.896 81.4088 225.202C81.8302 224.097 82.0163 222.955 82.512 221.874C82.9807 220.85 83.5833 219.895 84.0866 218.866C84.8747 217.247 85.4232 214.478 87.1124 213.576C87.3075 213.459 87.3778 213.094 87.1003 213.011Z" fill="white"/>
<path d="M91.4441 211.985C92.3565 214.946 95.1528 216.764 97.0797 219.046C98.5367 220.777 99.8254 223.772 102.311 224.079C103.176 224.182 103.995 223.018 103.292 222.325C102.442 221.477 101.482 220.84 100.706 219.893C99.9329 218.963 99.2212 217.971 98.3368 217.128C96.3172 215.178 93.97 213.648 91.9947 211.639C91.7264 211.377 91.3362 211.612 91.4416 211.968L91.4441 211.985Z" fill="white"/>
<path d="M109.552 206.903C108.125 208.386 99.8035 221.334 103.222 222.088C104.374 222.344 104.484 221.408 104.639 220.66C104.992 219.087 105.558 217.642 106.188 216.152C107.422 213.229 109.306 210.282 110.093 207.212C110.159 206.937 109.755 206.714 109.552 206.903Z" fill="white"/>
<path d="M110.059 207.96C113.134 210.834 117.329 212.659 120.68 215.244C121.737 216.061 124.523 218.889 125.792 216.934C126.397 215.996 125.685 215.004 124.646 215.033C125.265 215.031 124.371 214.843 124.192 214.711C123.683 214.378 123.162 214.083 122.654 213.751C121.656 213.102 120.644 212.472 119.602 211.882C118.271 211.123 116.926 210.401 115.538 209.738C113.882 208.937 111.979 208.509 110.49 207.401C110.113 207.121 109.734 207.672 110.062 207.977L110.059 207.96Z" fill="white"/>
<path d="M125.951 206.67C125.362 208.083 125.176 209.702 124.776 211.194C124.388 212.648 123.879 214.12 123.798 215.617C123.717 217.115 125.688 217.285 126.049 215.888C126.48 214.251 126.667 212.508 126.826 210.822C126.962 209.458 127.092 207.935 126.515 206.658C126.408 206.408 126.039 206.427 125.951 206.67Z" fill="white"/>
<path d="M71.2218 93.9204C71.5546 92.3327 71.4719 90.806 71.2008 89.2009C70.8891 87.3188 70.8135 85.7203 71.0858 83.8409C71.1868 83.0832 70.1282 82.6196 69.6754 83.2697C67.5345 86.3964 70.4912 90.6317 70.6031 93.9227C70.6244 94.3087 71.1636 94.2473 71.2391 93.9178L71.2218 93.9204Z" fill="white"/>
<path d="M83.9836 96.1321C82.4303 91.9384 81.2371 87.4265 79.2342 83.4226C78.7303 82.4 77.1663 83.0719 77.6061 84.1393C79.305 88.2409 80.4599 93.0944 83.5909 96.349C83.76 96.5364 84.0538 96.3694 83.9637 96.1173L83.9836 96.1321Z" fill="white"/>
<path d="M61.5755 99.2813C63.3932 95.1586 63.6422 90.4703 64.5531 86.0739C64.7983 84.8528 62.7233 84.5739 62.6069 85.8291C62.4216 87.8196 61.8499 89.7076 61.7736 91.7175C61.6743 94.1729 61.6667 96.6502 61.0103 99.046C60.9054 99.4151 61.4186 99.6581 61.5928 99.2788L61.5755 99.2813Z" fill="white"/>
<path d="M113.504 186.247C115.925 187.802 117.798 190.799 119.719 192.922C120.731 194.03 123.255 197.727 125.082 197.405C125.377 197.362 125.683 197.158 125.781 196.861C126.054 195.954 125.269 195.786 124.678 195.378C123.361 194.475 122.203 193.336 121.053 192.249C118.793 190.105 116.569 187.371 113.902 185.711C113.533 185.482 113.134 186.018 113.504 186.247Z" fill="white"/>
<path d="M114.609 180.407C119.19 183.537 121.033 190.306 126.16 192.577C127.218 193.041 127.923 191.576 127.113 190.881C124.767 188.873 122.67 186.882 120.612 184.549C118.956 182.669 117.156 181.006 114.904 179.886C114.599 179.736 114.351 180.215 114.624 180.387L114.609 180.407Z" fill="white"/>
<path d="M118.521 177.887C121.701 181.594 124.681 185.507 127.989 189.125C128.792 190.015 130.171 188.929 129.462 187.954C126.544 183.978 122.618 180.734 119.076 177.328C118.748 177.022 118.26 177.554 118.538 177.884L118.521 177.887Z" fill="white"/>
<path d="M128.451 187.448C131.773 190.197 133.238 195.235 135.452 198.872C136.057 199.862 138.59 205.062 140.316 202.845C140.705 202.363 140.469 201.602 139.907 201.384C140.715 201.707 140.254 201.58 139.791 200.959C139.373 200.401 138.906 199.868 138.488 199.31C137.717 198.274 136.963 197.235 136.241 196.174C133.966 192.847 132.298 189.2 128.923 186.813C128.509 186.52 128.048 187.118 128.451 187.448Z" fill="white"/>
<path d="M129.959 182.557C132.348 185.213 134.269 188.539 136.13 191.574C137.427 193.665 138.783 196.632 141.317 197.392C142.15 197.641 143.139 196.664 142.425 195.902C140.492 193.816 138.823 191.85 137.127 189.57C135.141 186.89 132.936 184.402 130.561 182.08C130.211 181.742 129.604 182.185 129.945 182.577L129.959 182.557Z" fill="white"/>
<path d="M134.65 179.569C136.115 181.954 137.801 184.165 139.377 186.463C140.549 188.183 141.572 190.209 143.427 191.28C144.278 191.774 145.563 190.772 144.748 189.919C141.468 186.492 138.076 182.904 135.252 179.092C134.946 178.694 134.396 179.164 134.65 179.569Z" fill="white"/>
<path d="M140.624 179.311C141.859 181.217 143.398 182.901 144.712 184.742C145.115 185.319 146.09 184.734 145.769 184.109C144.681 182.005 142.921 180.495 141.495 178.617C141.055 178.027 140.239 178.731 140.624 179.311Z" fill="white"/>
<path d="M86.6267 185.1C89.1435 186.34 90.8555 188.724 92.7072 190.733C93.9921 192.137 95.919 194.418 97.9584 194.455C98.8791 194.461 99.2811 193.465 98.6055 192.839C97.7262 192.03 96.5195 191.642 95.5613 190.898C94.5608 190.107 93.6516 189.215 92.7275 188.343C90.9466 186.694 89.2161 185.268 86.8473 184.554C86.4782 184.449 86.2846 184.938 86.6267 185.1Z" fill="white"/>
<path d="M88.4733 180.213C90.9039 182.191 93.3135 184.508 95.3794 186.893C96.4684 188.165 97.7537 190.294 99.6633 190.049C100.549 189.936 100.644 188.896 100.09 188.376C99.4341 187.765 98.6037 187.41 97.9306 186.801C97.1384 186.104 96.4252 185.342 95.6009 184.667C93.431 182.898 91.1307 181.326 88.8599 179.714C88.5249 179.48 88.1704 179.957 88.4906 180.21L88.4733 180.213Z" fill="white"/>
<path d="M90.6868 176.616C94.2436 179.277 97.2585 182.584 100.281 185.819C101.143 186.754 102.653 185.595 101.847 184.563C98.9424 180.922 94.9363 178.574 91.189 175.941C90.7374 175.635 90.25 176.291 90.6868 176.616Z" fill="white"/>
<path d="M57.4914 195.286C55.9388 198.203 54.302 201.149 52.9973 204.188C52.4186 205.547 51.9712 206.957 51.5039 208.352C51.2935 208.967 50.9766 209.579 51.333 210.199C51.6196 210.705 52.4032 211.103 52.9109 210.586C54.3381 209.103 54.4666 205.883 55.1671 204.029C56.2549 201.198 57.5458 198.427 58.1305 195.422C58.2131 195.021 57.6535 194.944 57.4864 195.252L57.4914 195.286Z" fill="white"/>
<path d="M55.0122 192.024C54.3852 194.982 51.8896 197.258 50.0895 199.575C48.8116 201.23 47.0462 203.541 47.4582 205.745C47.597 206.45 48.5925 206.604 48.8621 205.91C49.4505 204.497 49.6529 203.105 50.4644 201.766C51.1602 200.602 52.0124 199.54 52.8075 198.45C54.25 196.47 55.4205 194.564 55.7128 192.098C55.7705 191.648 55.107 191.586 55.0096 192.007L55.0122 192.024Z" fill="white"/>
<path d="M51.8706 189.32C49.8596 192.127 48.1857 195.061 46.4874 198.07C45.9123 199.091 47.3435 199.925 47.9135 198.868C49.5279 195.89 50.6783 192.643 52.4663 189.763C52.7245 189.354 52.1487 188.925 51.8706 189.32Z" fill="white"/>
<path d="M44.8958 204.547C44.9198 206.878 42.9878 209.019 42.0454 211.032C41.1717 212.912 40.0652 215.373 39.7638 217.416C39.6577 218.139 40.5406 218.611 41.0932 218.159C43.025 216.619 43.0064 213.12 43.9086 210.953C44.7569 208.901 46.0131 206.735 45.5018 204.458C45.4087 204.065 44.8745 204.161 44.8958 204.547Z" fill="white"/>
<path d="M41.6286 201.206C41.2635 203.418 40.3536 205.532 39.4682 207.573C38.7422 209.253 37.4622 211.015 37.2714 212.848C37.1785 213.781 38.2686 214.098 38.833 213.485C40.1909 212.012 40.7128 209.424 41.2846 207.536C41.9052 205.499 42.2758 203.446 42.4952 201.327C42.5524 200.752 41.7056 200.647 41.6113 201.209L41.6286 201.206Z" fill="white"/>
<path d="M37.4388 198.709C36.8262 200.921 35.6928 202.838 34.51 204.781C33.5559 206.354 32.4903 207.89 32.1931 209.72C32.087 210.443 33.1008 210.842 33.5093 210.252C34.6956 208.574 35.4797 206.566 36.3386 204.707C37.2149 202.845 37.9277 200.954 38.2463 198.908C38.3188 198.438 37.5433 198.216 37.4189 198.694L37.4388 198.709Z" fill="white"/>
<path d="M83.6352 209.169C86.4349 209.324 88.9753 209.641 91.0529 207.408C91.6788 206.732 90.6234 205.808 89.9399 206.333C87.9781 207.789 85.9519 207.962 83.6349 208.444C83.2565 208.517 83.207 209.144 83.6352 209.169Z" fill="white"/>
<path d="M71.6406 93.1691C72.1785 92.135 72.744 91.1677 73.205 90.0918C73.6539 89.0531 74.4576 88.2629 74.8942 87.2613C75.1469 86.6936 74.6072 86.03 74.0038 86.1363C72.7103 86.3616 72.1789 87.8016 71.8467 88.9116C71.4706 90.205 71.5482 91.6969 71.0953 92.9485C70.9704 93.3029 71.4562 93.4792 71.6233 93.1717L71.6406 93.1691Z" fill="white"/>
<path d="M72.1374 97.7303C73.2093 97.8028 73.7606 96.3776 74.1238 95.5991C74.46 94.8776 74.7367 94.1118 75.0357 93.3781C75.2416 92.8526 75.6521 92.1556 75.6747 91.5863C75.7039 90.8215 74.8103 90.1568 74.1518 90.731C73.3354 91.4346 73.1685 93.0687 72.8877 94.0473C72.6997 94.694 72.5091 95.3234 72.3211 95.97C72.2869 96.0988 72.0168 97.2705 72.0489 97.2481C71.834 97.3504 71.8701 97.7165 72.1201 97.7329L72.1374 97.7303Z" fill="white"/>
<path d="M73.1925 104.438C74.6402 104.42 75.408 102.663 75.9159 101.544C76.6938 99.856 77.2462 98.0769 77.9894 96.3936C78.4556 95.3523 76.9602 94.5638 76.2929 95.44C75.4459 96.5372 75.2648 98.3148 74.9085 99.6229C74.5916 100.837 74.287 103.34 73.0745 103.996C72.8275 104.12 72.9476 104.457 73.2124 104.453L73.1925 104.438Z" fill="white"/>
<path d="M75.5803 109.252C76.9538 108.608 77.751 107.412 78.4982 106.117C79.2308 104.843 80.113 103.263 79.872 101.742C79.7093 100.633 78.2646 100.793 78.0358 101.764C77.731 102.94 77.4461 104.132 77.0324 105.289C76.6676 106.298 76.1845 108.067 75.2739 108.731C75.0024 108.93 75.2788 109.367 75.5777 109.235L75.5803 109.252Z" fill="white"/>
<path d="M72.5116 85.3472C72.8915 85.0438 73.1574 84.6864 73.2446 84.1961C73.3053 83.8865 73.0787 83.5483 72.7987 83.4479C72.4962 83.3155 72.1601 83.4356 71.9483 83.6789C71.8744 83.7782 71.798 83.8602 71.7241 83.9594C71.6946 83.9992 71.6676 84.0562 71.6207 84.0985C71.6207 84.0985 71.5 84.24 71.5617 84.1779C71.2856 84.4661 71.1709 84.8897 71.4494 85.2202C71.708 85.536 72.176 85.5911 72.4918 85.3325L72.5116 85.3472Z" fill="white"/>
<path d="M56.0931 23.4121C56.5529 20.7622 62.9574 20.653 64.7844 20.8092C67.4185 21.0415 68.8034 22.0409 70.6612 23.7313C71.2548 24.2809 72.0366 23.5824 72.0118 22.9316C71.8297 19.4032 66.1821 18.7645 63.5642 18.8836C61.6837 18.9652 54.2346 20.2714 55.3832 23.5163C55.5084 23.8871 56.0375 23.7563 56.0931 23.4121Z" fill="white"/>
<path d="M49.7191 21.6772C49.7191 21.6772 49.7613 21.7241 49.7812 21.7388C49.9451 21.8916 50.1335 21.9701 50.351 21.8851C52.0804 21.1359 53.5067 18.804 54.6868 17.4456C57.5768 14.1205 60.5442 10.9609 63.844 8.01781C64.4704 7.46595 63.7144 6.53345 63.0406 7.00383C59.7038 9.33332 57.0583 12.5164 54.452 15.6053C53.0059 17.321 50.8556 19.2994 49.7324 21.2862C49.6611 21.4028 49.6346 21.5835 49.7389 21.692L49.7191 21.6772Z" fill="white"/>
<path d="M65.7761 8.28234C62.6174 10.621 60.1573 13.7415 57.5429 16.6547C56.6755 17.6134 58.2813 18.7926 59.1512 17.8512C61.7116 15.0521 63.6239 11.6937 66.3854 9.05956C66.8341 8.62224 66.2869 7.90664 65.7587 8.28488L65.7761 8.28234Z" fill="white"/>
<path d="M71.4404 9.04264C69.9672 9.48892 69.0193 10.7424 67.9319 11.7688C66.5633 13.0487 64.9494 14.2231 63.9286 15.8233C63.3555 16.7388 64.4643 18.0263 65.3719 17.2209C66.6396 16.0974 67.6884 14.6875 68.7896 13.3938C69.8317 12.1796 70.5607 10.6398 71.7469 9.56359C72.0132 9.32991 71.7643 8.9597 71.4404 9.04264Z" fill="white"/>
<path d="M55.0138 10.1635C52.5619 12.8583 49.4877 15.2907 47.5572 18.4042C47.0406 19.2229 48.1103 20.0032 48.7485 19.2904C51.2203 16.6104 53.5348 13.5821 55.5499 10.5623C55.7959 10.1901 55.3021 9.83818 55.0138 10.1635Z" fill="white"/>
<path d="M74.7297 11.9375C73.4195 12.2891 72.1839 13.3903 71.1826 14.2802C70.1639 15.1727 68.8667 16.336 68.7783 17.7816C68.7364 18.4599 69.5455 19.0309 70.1276 18.5386C71.0846 17.7082 71.7061 16.5204 72.5017 15.5545C73.312 14.5689 74.4595 13.7106 75.1309 12.6215C75.303 12.3486 75.1229 11.8444 74.7323 11.9548L74.7297 11.9375Z" fill="white"/>
<path d="M76.7501 15.6739C74.7256 17.5454 72.333 18.958 70.6613 21.1844C70.2009 21.7827 71.0231 22.564 71.6103 22.1063C73.7468 20.3953 75.5056 18.2798 77.2893 16.2138C77.5603 15.891 77.0659 15.4153 76.7527 15.6912L76.7501 15.6739Z" fill="white"/>
<path d="M61.6033 29.3947C62.3027 38.0119 63.5144 46.6245 64.6839 55.1903C65.8385 63.7759 66.872 72.3793 68.5608 80.8688C68.8462 82.3303 70.9932 82.015 70.8463 80.5332C70.0231 71.9166 68.5395 63.3792 67.1771 54.8241C65.8172 46.2863 64.5189 37.6864 62.7114 29.232C62.5552 28.5298 61.551 28.6772 61.6033 29.3947Z" fill="white"/>
<path d="M57.7475 86.5959C55.1525 93.8573 53.6212 101.617 51.6903 109.064C49.6839 116.84 47.6775 124.617 45.7083 132.405C41.75 147.967 37.7546 163.518 34.0713 179.146C33.823 180.226 35.6836 180.731 35.9838 179.643C40.0719 164.362 43.8503 149.021 47.6833 133.689C49.5888 126.069 51.477 118.452 53.3454 110.819C55.282 102.93 57.7381 94.9633 58.9614 86.9129C59.0725 86.2244 58.0048 85.9391 57.7673 86.6107L57.7475 86.5959Z" fill="white"/>
<path d="M66.1057 82.8034C65.0838 89.8161 65.1419 97.0771 64.7809 104.134C64.4128 111.263 64.0793 118.387 63.7459 125.511C63.0815 139.776 62.3799 154.029 62.0001 168.305C61.9729 169.565 63.887 169.832 63.9809 168.545C64.8526 154.126 65.3877 139.703 65.9921 125.27C66.2884 118.133 66.5674 111 66.829 103.869C67.0764 96.8814 67.7638 89.7586 67.3405 82.7812C67.3055 82.0612 66.1995 82.1175 66.1057 82.8034Z" fill="white"/>
<path d="M33.8463 179.886C35.9155 186.268 39.6294 192.408 42.6178 198.425C45.6586 204.558 48.6648 210.696 51.9526 216.705C52.5558 217.801 54.3076 217.084 53.7808 215.906C50.8455 209.527 47.6336 203.313 44.434 197.062C41.4288 191.171 38.7526 184.631 34.903 179.253C34.4601 178.646 33.6483 179.26 33.8463 179.886Z" fill="white"/>
<path d="M19.7094 189.762C22.7355 195.915 27.3509 201.569 31.2386 207.207C35.333 213.167 39.3979 219.168 43.7342 224.969C44.5054 226.006 45.9707 224.782 45.286 223.733C41.4416 217.789 37.3406 212.023 33.2716 206.236C31.328 203.479 29.3869 200.74 27.4285 198.003C25.2934 195.026 23.2985 191.8 20.7662 189.129C20.3065 188.648 19.3801 189.085 19.7094 189.762Z" fill="white"/>
<path d="M43.9379 224.656C45.816 223.956 47.4433 222.39 48.9951 221.154C50.6259 219.854 52.2617 218.588 53.7036 217.085C54.5466 216.2 53.1566 215.166 52.2827 215.719C50.488 216.867 48.9096 218.284 47.2916 219.671C45.8782 220.887 44.1828 222.109 43.1793 223.706C42.8497 224.232 43.3324 224.869 43.9379 224.656Z" fill="white"/>
<path d="M53.0889 216.503C56.7737 215.82 60.4608 213.828 63.8927 212.387C67.7076 210.783 71.5128 209.234 75.2004 207.366C76.3366 206.792 75.595 205.115 74.4013 205.538C70.5213 206.939 66.7787 208.673 62.9913 210.344C59.5696 211.855 55.6249 213.177 52.5921 215.408C52.096 215.764 52.4706 216.629 53.0715 216.505L53.0889 216.503Z" fill="white"/>
<path d="M53.9404 94.0348C50.3397 101.674 47.823 109.95 44.9188 117.876C42.0514 125.69 39.1864 133.522 36.3561 141.348C30.6145 157.172 24.8332 172.967 19.3543 188.894C18.9482 190.104 20.7379 190.849 21.196 189.632C27.1897 173.718 32.8687 157.708 38.6022 141.708C41.459 133.701 44.3158 125.693 47.1553 117.689C49.8797 109.984 53.099 102.277 55.1396 94.3717C55.3174 93.6558 54.2278 93.462 53.9455 94.0695L53.9404 94.0348Z" fill="white"/>
<path d="M81.6978 83.574C85.0893 90.7699 89.6397 97.548 93.6907 104.417C97.7666 111.336 101.84 118.237 105.948 125.133C114.029 138.733 122.059 152.34 130.365 165.783C130.945 166.724 132.622 165.735 132.054 164.757C124.033 150.848 115.736 137.103 107.47 123.335C103.42 116.59 99.3719 109.862 95.2894 103.139C91.2043 96.3985 87.432 89.2585 82.7693 82.9214C82.3488 82.3464 81.4082 82.9267 81.7126 83.5541L81.6978 83.574Z" fill="white"/>
<path d="M131.267 165.085C129.146 171.357 128.446 178.393 127.259 184.882C126.009 191.787 124.702 198.664 123.724 205.617C123.541 206.9 125.428 207.101 125.705 205.857C127.127 199.157 128.241 192.414 129.39 185.665C130.525 179.061 132.317 172.112 132.462 165.387C132.471 164.731 131.515 164.359 131.267 165.085Z" fill="white"/>
<path d="M61.9543 168.365C63.0554 174.659 65.7999 180.942 67.838 186.993C70.0187 193.411 72.1301 199.84 74.5802 206.166C75.0428 207.389 76.7596 206.553 76.4084 205.367C74.488 199.034 72.2487 192.818 70.0588 186.578C67.9239 180.471 66.1949 173.756 63.1434 168.031C62.8268 167.441 61.8302 167.64 61.9543 168.365Z" fill="white"/>
<path d="M72.5659 82.598C74.141 89.2293 76.7724 95.7055 78.9581 102.159C81.319 109.082 83.6773 115.987 86.0702 122.887C90.7812 136.54 95.4576 150.198 100.438 163.758C100.881 164.966 102.655 164.157 102.266 162.958C97.7981 149.394 93.0285 135.945 88.291 122.473C85.981 115.896 83.6735 109.337 81.3314 102.783C78.8968 95.9596 76.8222 88.8179 73.7524 82.2468C73.4679 81.6342 72.3898 81.8809 72.5633 82.5806L72.5659 82.598Z" fill="white"/>
<path d="M124.788 205.39C121.244 204.142 117.085 204.01 113.371 203.529C109.281 203.016 105.198 202.43 101.061 202.207C99.7766 202.13 99.5486 203.95 100.822 204.187C104.891 204.916 108.998 205.304 113.095 205.745C116.817 206.154 120.901 206.987 124.626 206.581C125.235 206.51 125.348 205.591 124.77 205.393L124.788 205.39Z" fill="white"/>
<path d="M101.077 163.045C99.8152 169.385 100.092 176.331 99.786 182.796C99.4826 189.403 99.1421 195.997 99.1062 202.618C99.0937 203.858 100.978 204.164 101.087 202.857C101.598 196.097 101.789 189.33 102.032 182.555C102.245 176.174 103.07 169.385 102.312 163.023C102.223 162.293 101.208 162.371 101.077 163.045Z" fill="white"/>
<path d="M147.744 171.049C145.009 177.111 143.707 184.147 141.923 190.546C140.161 196.854 138.381 203.164 136.877 209.54C136.631 210.638 138.452 211.113 138.789 210.038C140.808 203.551 142.513 196.968 144.271 190.396C145.925 184.192 148.248 177.731 148.958 171.366C149.03 170.648 148.059 170.419 147.764 171.064L147.744 171.049Z" fill="white"/>
<path d="M138.538 209.897C136.572 208.559 134.107 207.913 131.869 207.127C129.557 206.317 127.277 205.484 124.865 204.954C123.73 204.696 123.383 206.428 124.367 206.867C126.661 207.91 129.079 208.598 131.472 209.361C133.586 210.023 135.842 210.93 138.067 211.028C138.653 211.048 139.071 210.279 138.52 209.9L138.538 209.897Z" fill="white"/>
<path d="M87.5612 90.1593C91.7908 97.1614 97.0899 103.617 101.912 110.196C106.933 117.047 111.971 123.895 117.01 130.743C127.101 144.419 137.143 158.12 147.459 171.639C148.245 172.656 149.762 171.425 149.011 170.403C139.187 156.741 129.106 143.258 119.057 129.752C114.079 123.072 109.101 116.392 104.108 109.732C99.05 102.993 94.2578 95.7732 88.6128 89.4919C88.1704 89.0086 87.1626 89.4927 87.5561 90.1247L87.5612 90.1593Z" fill="white"/>
<path d="M74.863 206.744C79.0661 206.339 83.2494 205.919 87.4272 205.341C91.5703 204.768 95.8605 204.474 99.9304 203.522C101.11 203.243 100.883 201.578 99.6558 201.652C95.4842 201.911 91.2906 202.863 87.1577 203.505C82.9901 204.153 78.8602 204.936 74.7206 205.774C74.1024 205.9 74.2371 206.818 74.8655 206.761L74.863 206.744Z" fill="white"/>
<path d="M43.3537 224.901C44.7778 225.807 46.5386 226.114 48.1736 226.528C50.1951 227.045 52.2069 227.616 54.2865 227.806C55.3807 227.911 55.8694 226.3 54.7839 225.894C52.9697 225.223 51.0973 224.879 49.2026 224.502C47.397 224.131 45.4743 223.564 43.634 223.799C43.1319 223.873 42.8873 224.616 43.3562 224.919L43.3537 224.901Z" fill="white"/>
<path d="M54.586 227.762C58.3861 228.708 62.7654 228.418 66.6762 228.551C70.4805 228.683 74.2874 228.831 78.0857 228.68C79.2116 228.639 79.1722 226.805 78.0606 226.703C74.0302 226.357 69.9789 226.351 65.9373 226.29C62.2694 226.245 58.1866 225.783 54.5786 226.507C53.8565 226.649 53.922 227.577 54.6008 227.742L54.586 227.762Z" fill="white"/>
<path d="M125.996 215.666C122.314 216.012 118.552 217.608 115.054 218.723C111.183 219.946 107.322 221.115 103.561 222.604C102.541 223.002 102.998 224.792 104.106 224.505C107.802 223.538 111.388 222.304 114.997 221.102C118.687 219.853 122.982 218.868 126.349 216.87C126.935 216.519 126.748 215.609 126.016 215.681L125.996 215.666Z" fill="white"/>
<path d="M138.079 209.789C135.873 210.183 133.782 211.357 131.763 212.308C129.678 213.286 127.591 214.247 125.651 215.487C124.648 216.13 125.668 217.536 126.677 217.176C128.911 216.37 130.99 215.234 133.095 214.147C134.952 213.184 137.017 212.315 138.561 210.903C138.998 210.503 138.717 209.677 138.082 209.806L138.079 209.789Z" fill="white"/>
<path d="M78.0311 228.316C82.2342 227.911 86.4175 227.492 90.5953 226.913C94.7384 226.34 99.0286 226.047 103.098 225.095C104.278 224.816 104.051 223.151 102.824 223.225C98.6523 223.484 94.4587 224.436 90.3258 225.078C86.1582 225.726 82.0283 226.509 77.8887 227.347C77.2705 227.473 77.4052 228.391 78.0336 228.334L78.0311 228.316Z" fill="white"/>
<path d="M76.4462 206.705C73.1995 213.744 85.0905 214.863 89.253 214.181C92.3272 213.677 95.5188 212.165 97.7649 209.995C100.152 207.699 101.153 203.802 97.7457 201.915C96.9942 201.495 95.8666 202.368 96.1124 203.198C96.4462 204.388 96.9598 205.356 96.3928 206.553C95.9312 207.505 94.8525 208.23 93.9985 208.797C92.3076 209.93 90.3831 210.796 88.3625 211.128C84.2494 211.785 78.4754 211.731 77.3648 206.818C77.2615 206.356 76.6474 206.269 76.4462 206.705Z" fill="white"/>
<path d="M53.868 95.3367C55.8126 95.8117 57.2702 92.0071 57.9605 90.6853C58.8841 88.9048 59.7765 87.3941 61.6114 86.3995C62.987 85.6492 64.4847 85.1286 65.9101 84.4771C67.7679 83.6383 69.6469 83.7868 71.641 83.6355C73.9865 83.4679 76.3179 82.8426 78.6173 83.5661C80.1016 84.038 81.5818 84.7227 82.7736 85.7327C83.8861 86.6836 84.6211 87.9553 85.8395 88.7846C86.703 89.3652 87.7787 88.4998 87.4087 87.5459C86.2936 84.6498 83.1175 82.5339 80.2971 81.5154C78.3567 80.8275 76.4461 80.8251 74.4127 81.0706C71.9959 81.3548 69.3399 81.2142 66.9933 81.7356C65.2822 82.1284 63.5935 83.1547 62 83.8662C60.4905 84.5477 59.0707 85.3576 57.9669 86.634C56.8337 87.9501 56.1224 89.611 55.3588 91.1558C54.7867 92.3188 53.5399 93.7046 53.5747 95.026C53.5829 95.2017 53.7565 95.3 53.9052 95.3489L53.868 95.3367Z" fill="white"/>
<path d="M53.2321 34.1793C56.2377 38.2659 62.0038 36.9416 66.1415 35.6088C70.3138 34.271 76.9893 30.7083 73.2614 25.4366C69.9565 20.7573 62.4475 21.294 57.745 23.1165C53.5467 24.7589 47.8082 30.6071 53.1883 34.3627C53.563 34.626 54.1406 34.2228 53.9161 33.7783C51.5787 29.0629 56.7928 25.7856 60.7811 24.8816C64.0326 24.1388 70.1062 23.583 71.6412 27.5318C73.1512 31.4312 66.2387 33.2598 63.5764 34.0399C60.3702 34.9706 56.6945 35.475 53.661 33.7272C53.3708 33.5576 53.028 33.8733 53.2469 34.1595L53.2321 34.1793Z" fill="white"/>
<path d="M51.0213 22.3527C50.1479 23.0293 50.6843 24.7546 50.8017 25.6748C50.9064 26.5084 51.0483 27.3542 51.153 28.1878C51.2552 29.0041 51.2016 29.8433 51.6078 30.5619C51.9941 31.2657 53.0686 31.3556 53.3896 30.5302C54.0611 28.8397 53.0391 26.3367 52.5623 24.6557C52.4493 24.2478 51.9243 21.6364 51.0188 22.3354L51.0213 22.3527Z" fill="white"/>
<path d="M71.1192 19.2599C70.5408 21.3435 71.4982 23.7675 71.5807 25.8956C71.6461 27.4248 74.2014 27.1203 73.9874 25.5422C73.7194 23.4767 72.7764 20.9091 71.5867 19.1913C71.4747 19.0308 71.1605 19.0593 71.1192 19.2599Z" fill="white"/>
<path d="M51.3211 23.4407C53.7436 20.1843 56.7203 18.7743 60.6877 18.2094C62.3152 17.9704 63.955 17.6943 65.6058 17.7348C67.7914 17.803 68.6737 18.7523 70.255 20.0058C70.8757 20.4984 71.7618 19.9084 71.6871 19.1588C71.1061 14.2387 63.5195 15.8126 60.433 16.3543C56.9681 16.9692 50.5007 18.6972 50.6943 23.2674C50.7055 23.5842 51.1587 23.6591 51.3359 23.4209L51.3211 23.4407Z" fill="white"/>
<path d="M80.8406 112.565C80.8406 112.565 80.7464 112.526 80.7093 112.514C80.585 112.391 80.4583 112.25 80.334 112.127C80.1874 111.971 80.0382 111.799 79.857 111.648C76.0924 103.959 72.476 96.1947 69.0251 88.3531C69.0471 88.2614 69.0888 88.1846 69.071 88.0634C68.6872 82.3183 67.9225 76.6292 66.7943 70.9934C66.7119 70.1919 66.6123 69.3929 66.5325 68.6087C66.4553 67.8418 65.4558 67.2988 64.812 67.8532C64.3878 68.2162 64.0205 68.6062 63.7302 69.038C62.4255 69.5479 61.2877 70.3517 60.0558 71.1163C58.4189 72.1349 56.6946 72.9188 55.1697 74.0978C54.088 74.6811 53.0786 75.3954 52.196 76.2502C51.292 76.719 50.3682 77.173 49.4693 77.6764C49.2249 77.8184 49.097 78.0318 49.0287 78.2894C47.6689 79.2673 46.9403 81.5322 46.5275 82.937C45.807 85.3776 45.6364 87.9496 45.78 90.4931C45.5026 94.8673 46.0964 99.2726 47.6619 103.429C47.837 103.899 48.1302 104.209 48.4479 104.446C48.7558 105.338 49.081 106.228 49.3742 107.14C49.3649 107.318 49.3384 107.499 49.3863 107.704C50.1685 112.188 51.4672 116.454 53.2231 120.583C53.5905 122.121 53.9552 123.641 54.288 125.184C54.0665 129.939 54.1246 134.671 54.5193 139.406C54.4177 140.642 54.2988 141.879 54.1997 143.132C54.1656 143.261 54.134 143.407 54.0825 143.538C54.0825 143.538 54.0825 143.538 54.0652 143.541C54.0729 143.593 54.0459 143.65 54.0362 143.704C52.4947 148.866 51.6713 154.098 51.5536 159.439C50.6813 161.69 50.027 163.979 49.5733 166.31C42.8756 173.696 51.6278 184.756 60.4024 183.203C62.6431 182.803 64.7081 181.81 66.5268 180.464C67.007 180.482 67.5066 180.391 67.998 180.124C72.1761 177.742 74.8693 173.437 75.2292 168.662C75.2742 168.125 75.1388 167.685 74.9367 167.272C74.9902 167.034 75.0463 166.814 75.0825 166.579C77.8808 160.702 79.2586 154.186 78.9508 147.634L80.9106 141.226C81.9947 141.261 83.1085 140.656 83.5065 139.271C84.5394 135.705 84.9557 132.036 84.8449 128.391C85.0747 127.667 85.2872 126.946 85.517 126.223C86.8613 121.285 85.2757 115.787 80.8386 112.672L80.8406 112.565Z" fill="#8CC747"/>
<path d="M85.0642 81.5936C85.0489 81.4897 85.0337 81.3858 85.0036 81.3017C84.9731 81.094 84.8438 80.9361 84.7023 80.8154C84.6845 80.6942 84.6667 80.573 84.6514 80.4691C84.6057 80.1574 84.4366 79.97 84.2432 79.8569C84.2295 79.5229 84.0549 79.1771 83.6705 78.9682C80.2082 77.0712 77.0409 74.6533 74.2581 71.8429C73.6136 70.947 72.9716 70.0685 72.3271 69.1726C72.1057 68.8691 71.8083 68.7713 71.5115 68.7972C71.5115 68.7972 71.489 68.7651 71.4692 68.7503C70.7555 67.8647 69.3086 68.7316 69.7631 69.7791C69.7931 69.8631 69.8257 69.9645 69.8731 70.046C69.7574 70.2221 69.7014 70.4426 69.7395 70.7023C70.0146 72.696 70.3737 74.6596 70.8046 76.6303C70.8065 77.1253 70.8604 77.6126 70.897 78.1025C70.8083 78.2217 70.7396 78.3556 70.7278 78.5165C70.69 78.9819 70.6945 79.4941 70.8151 79.954C70.8339 80.3227 70.8699 80.6888 70.8862 81.0401C70.941 81.775 71.9217 81.9493 72.3928 81.5441C73.2819 81.6965 74.3024 81.299 75.1284 81.1424C75.6774 81.0264 76.2141 80.9475 76.7733 80.9008C76.8949 81.0068 77.0314 81.0929 77.2442 81.097C79.3432 81.1779 81.3871 81.7267 83.2053 82.7862C83.245 82.8158 83.2796 82.8107 83.3168 82.8229C83.3993 83.0231 83.5459 83.1784 83.717 83.2594C84.1089 84.1216 85.3723 83.8122 85.3634 82.7877C85.3517 82.3472 85.2388 81.9393 85.0963 81.5711L85.0642 81.5936Z" fill="#8CC747"/>
<path d="M78.175 79.3864C78.9496 79.3611 79.3169 78.3698 78.8964 77.7948C77.0205 75.258 74.7844 73.0394 72.2601 71.1461C72.0906 70.8349 71.9064 70.5436 71.7542 70.2299C71.7241 70.1459 71.662 70.0842 71.6172 70.0201C71.5262 69.5205 71.4326 69.0036 71.3242 68.5066C71.2108 67.975 70.8106 67.5385 70.2194 67.6076C69.7321 67.6615 69.207 68.1808 69.3204 68.7125C69.4339 69.2441 70.782 77.9428 70.9321 80.8922C70.959 81.4366 71.515 81.8502 72.037 81.7912C72.0716 81.7861 72.0889 81.7836 72.1235 81.7785C72.2152 81.8004 72.3043 81.805 72.3909 81.7923C73.2713 81.6453 74.1742 81.5304 75.0597 81.4181C75.4926 81.3545 75.9305 81.3256 76.3685 81.2966C76.5762 81.2661 76.7891 81.2702 76.9994 81.257C77.0513 81.2494 77.1404 81.254 77.1379 81.2367C77.1379 81.2367 77.1552 81.2341 77.1725 81.2316C77.1725 81.2316 77.1725 81.2316 77.2295 81.2586C77.6338 81.4823 78.2169 81.2374 78.3861 80.8234C78.5822 80.3525 78.3751 79.9054 77.9509 79.667C77.8542 79.6104 77.7427 79.5737 77.6312 79.5371C77.6261 79.5024 77.6184 79.4505 77.5787 79.4209C77.7692 79.393 77.9795 79.3798 78.175 79.3864Z" fill="#71993F"/>
<path d="M80.8511 80.6209C80.5121 79.9986 80.141 79.3986 79.7378 78.8211C79.6233 78.6434 79.494 78.4855 79.3646 78.3276C79.1081 77.9054 78.8541 77.5005 78.5827 77.0982C78.4483 76.9056 78.26 76.8272 78.0619 76.8032C77.9499 76.6428 77.8379 76.4824 77.7259 76.322C77.4744 75.9344 76.8308 75.8874 76.5028 76.1832C76.1106 76.5238 76.0927 77.004 76.364 77.4063C76.7998 78.0852 77.2875 78.7564 77.7405 79.4327C77.3912 79.3425 77.0567 79.2325 76.7074 79.1423C76.2664 79.0302 75.7658 79.4751 75.7229 79.9059C75.6754 80.4258 76.0084 80.766 76.4865 80.8904C76.7615 80.9561 77.0538 81.0193 77.3313 81.1024C77.3659 81.0973 77.4056 81.1269 77.4229 81.1243C77.4973 81.1488 77.5691 81.1559 77.6434 81.1804C77.7895 81.212 77.9209 81.2634 78.0671 81.295C78.4907 81.4097 78.8996 81.5442 79.3059 81.6614C79.5294 81.8585 79.8365 81.9019 80.1257 81.824C80.336 81.8108 80.5412 81.763 80.7114 81.5965C80.9431 81.3679 81.0578 80.9443 80.8883 80.6331L80.8511 80.6209Z" fill="#71993F"/>
<path d="M86.8567 79.9329C86.8684 79.772 86.8629 79.6137 86.788 79.4655C86.6857 79.2506 86.4744 79.0163 86.2514 78.9429C86.0284 78.8695 85.7784 78.8532 85.5609 78.9382C80.2464 75.509 75.3109 71.529 70.9127 66.9925C70.0157 66.063 68.4317 67.3214 69.3461 68.2484C73.9306 72.9698 79.0352 77.1372 84.5803 80.6917C84.5095 80.932 84.4361 81.155 84.348 81.3979C84.2624 81.6581 84.2486 81.9255 84.356 82.175C84.4583 82.3899 84.6695 82.6242 84.8926 82.6976C85.1354 82.7857 85.44 82.8117 85.6696 82.6896C85.9019 82.5847 86.1214 82.3933 86.1922 82.153C86.3023 81.8185 86.4123 81.4839 86.5224 81.1494C86.8876 80.8658 87.0786 80.3602 86.8592 79.9503L86.8567 79.9329Z" fill="black"/>
<path d="M78.4658 77.4862C78.1979 77.3487 77.9301 77.2111 77.6796 77.071C77.563 76.9997 77.449 76.9457 77.3324 76.8744C77.3324 76.8744 77.3324 76.8744 77.2926 76.8448C77.2331 76.8005 77.1587 76.7761 77.0992 76.7318C76.6129 76.4318 76.1241 76.1144 75.6501 75.7772C74.7021 75.1028 73.8132 74.349 72.9884 73.5503C72.5984 73.1831 71.859 73.3271 71.586 73.7563C71.2539 74.2649 71.3846 74.7941 71.7996 75.2107C73.5535 76.9164 75.5462 78.3217 77.7209 79.3997C78.197 79.6305 78.8615 79.3383 79.0353 78.8353C79.2187 78.2777 78.9815 77.7465 78.4658 77.4862Z" fill="black"/>
<path d="M76.4085 160.919C77.196 159.777 75.8983 158.287 74.6963 159.136C69.8097 162.595 64.9057 166.057 60.0216 169.533C58.228 170.327 56.4395 171.156 54.6784 172.051C52.7485 172.158 50.8028 172.037 48.8856 171.628C47.3723 171.32 46.9726 173.537 48.3159 174.011C48.1187 174.235 47.9837 174.52 48.0544 174.881C48.9205 180.538 55.5343 182.697 60.541 182.103C64.1031 181.669 67.5488 179.96 69.8347 177.219C70.4362 176.618 70.9705 175.92 71.3633 175.102C71.8444 175.367 72.4779 175.345 72.8966 174.824C74.4705 172.894 74.8473 170.522 74.9888 168.114C75.0721 166.633 75.0832 165.022 75.3941 163.526C75.6396 163.03 75.8231 162.473 75.9469 161.871C76.0942 161.548 76.2042 161.214 76.4085 160.919Z" fill="white"/>
<path d="M85.0269 121.201C85.2167 119.722 85.0077 118.179 84.4428 116.741C83.2304 113.664 80.6059 111.45 78.1478 109.405C77.2614 108.669 76.1063 109.475 76.1178 110.517C76.1522 111.715 76.0282 112.918 75.8101 114.082C74.7866 116.266 73.7433 118.436 72.7198 120.62C71.7457 120.25 70.4857 121.426 71.2646 122.514C71.5782 122.963 71.9065 123.393 72.2349 123.822C72.3884 125.108 73.3868 126.005 74.3455 126.873C75.8382 128.245 77.3483 129.615 78.841 130.988C79.3079 131.397 79.7977 131.361 80.1853 131.109C80.236 132.057 80.3214 132.999 80.3375 133.952C80.3698 135.256 82.2091 135.375 82.7099 134.329C84.443 130.714 85.2193 126.726 84.9711 122.748C85.0186 122.228 85.0487 121.71 85.0244 121.183L85.0269 121.201Z" fill="white"/>
<path d="M66.8943 81.3081C62.0543 83.3984 57.2891 85.637 52.6012 88.041C51.186 88.7618 52.1601 91.0596 53.5927 90.3363C58.2805 87.9322 63.0432 85.6764 67.8858 83.6033C69.3484 82.964 68.3742 80.6662 66.8943 81.3081Z" fill="#71993F"/>
<path d="M68.5011 85.9891C63.1324 88.3339 57.886 90.9085 52.7443 93.7152C52.1541 94.0319 51.768 94.6546 52.0454 95.339C52.2703 95.9074 53.0641 96.3745 53.6691 96.038C58.8107 93.2312 64.0572 90.6567 69.4259 88.3118C70.8885 87.6726 69.981 85.3473 68.5184 85.9865L68.5011 85.9891Z" fill="#71993F"/>
<path d="M69.779 91.1962C66.1195 92.6534 62.5673 94.36 59.1572 96.3111C58.5695 96.6451 58.4863 97.524 58.8473 98.0547C59.2703 98.647 60.0031 98.6985 60.5908 98.3646C63.8231 96.528 67.1777 94.9211 70.6371 93.5464C72.1246 92.9565 71.2839 90.6038 69.779 91.1962Z" fill="#71993F"/>
<path d="M71.2386 95.368C66.3109 97.8249 61.4006 100.279 56.4729 102.736C55.0378 103.442 56.0292 105.738 57.4817 105.029C62.4093 102.572 67.3197 100.118 72.2474 97.6607C73.6825 96.9547 72.691 94.6594 71.2386 95.368Z" fill="#71993F"/>
<path d="M72.8882 99.9546C68.2366 102.123 63.702 104.487 59.2723 107.083C58.6846 107.417 58.3555 108.067 58.6477 108.732C58.9072 109.295 59.7082 109.69 60.2959 109.356C64.7256 106.76 69.2601 104.396 73.9118 102.227C75.3693 101.554 74.3457 99.2807 72.8882 99.9546Z" fill="#71993F"/>
<path d="M74.271 104.456C70.8527 106.232 67.4197 108.027 64.0015 109.802C62.5715 110.543 63.7927 112.716 65.2227 111.975C68.6409 110.2 72.0739 108.405 75.4921 106.629C76.9222 105.889 75.701 103.715 74.271 104.456Z" fill="#71993F"/>
<path d="M81.2119 138.812L66.0534 144.469C64.5434 145.027 65.4682 147.35 66.9608 146.794C72.007 144.904 77.0731 143.028 82.1193 141.137C83.6293 140.579 82.7045 138.256 81.2119 138.812Z" fill="#71993F"/>
<path d="M78.2598 145.1C73.5253 146.945 68.7632 148.723 63.9788 150.469C62.4663 151.009 63.3737 153.335 64.8862 152.794C69.6732 151.065 74.4154 149.272 79.1673 147.425C80.6574 146.852 79.7499 144.527 78.2598 145.1Z" fill="#71993F"/>
<path d="M76.7389 151.372C72.4427 153.312 68.1267 155.237 63.8306 157.176C62.3705 157.833 63.278 160.158 64.738 159.502C69.0342 157.562 73.3502 155.637 77.6464 153.697C79.1064 153.041 78.199 150.715 76.7389 151.372Z" fill="#71993F"/>
<path d="M87.7625 119.72C86.5996 114.09 82.3816 110.057 78.0544 106.607C78.0346 106.592 77.9974 106.58 77.9776 106.565C74.2774 97.6281 70.9974 88.541 68.1695 79.2813C67.6958 77.7413 65.373 78.6661 65.8443 80.1887C68.7046 89.5497 72.0198 98.7556 75.7872 107.789C75.9221 108.105 76.1456 108.302 76.391 108.408C76.4307 108.437 76.4383 108.489 76.4979 108.533C80.3856 111.641 84.4983 115.318 85.3797 120.477C86.2281 125.411 84.3639 130.301 82.3892 134.801C82.3765 134.714 82.3638 134.627 82.3312 134.526C80.1146 129.669 76.4485 125.662 71.8621 122.975C74.5876 119.373 76.5316 115.267 77.6034 110.883C77.7716 110.221 77.1948 109.545 76.5782 109.441C75.8724 109.333 75.3076 109.823 75.1369 110.467C74.1624 114.43 72.3606 118.179 69.8861 121.443C69.3961 122.081 69.6439 122.805 70.1429 123.192C70.0665 123.274 70.0074 123.353 69.9509 123.45C69.659 124.112 69.9857 124.772 70.5809 125.091C74.6934 127.441 78.029 131.125 80.0059 135.434C80.3755 136.264 81.2839 136.307 81.8838 135.936C81.8151 136.07 81.7662 136.219 81.6974 136.352C81.4717 136.863 81.6071 137.303 81.883 137.616C81.5866 137.766 81.3426 138.032 81.2427 138.436C78.4846 149.524 76.1623 160.689 74.2066 171.943C70.9024 176.301 66.7205 180.223 61.1408 181.131C58.0665 181.635 54.8102 181.141 52.3129 179.19C50.4561 177.747 49.104 175.647 48.7979 173.322C55.3673 173.613 61.8928 171.558 67.0342 167.424C68.2851 166.427 66.8021 164.399 65.5538 165.413C60.7307 169.305 54.5143 171.297 48.3254 170.826C48.3229 170.809 48.3005 170.777 48.2806 170.762C48.4692 169.638 48.9252 168.527 49.2625 167.452C49.7563 165.876 50.2302 164.285 50.6868 162.697C51.6046 159.432 52.4307 156.144 53.1478 152.838C54.3925 147.101 55.2904 141.292 55.8838 135.456C56.3554 135.175 56.6825 134.631 56.5166 133.984C56.3858 133.454 56.2551 132.925 56.1218 132.379C56.109 132.292 56.0989 132.223 56.0714 132.156C52.7504 118.936 49.4468 105.714 46.1259 92.494C46.1697 92.3107 46.1764 92.1151 46.1087 91.8951C44.7048 86.6713 47.2424 81.187 50.802 77.6044C54.3815 74.0366 59.0036 71.9075 63.5696 69.9988C64.7062 70.1503 65.6397 69.6418 66.1379 68.5782C66.5821 67.6286 65.5583 66.5585 64.6417 66.9407C58.8524 69.3119 52.8385 71.84 48.4792 76.6013C45.0193 80.3815 42.9187 85.5894 43.5577 90.784C43.3856 91.0569 43.2979 91.4236 43.391 91.8167C46.8101 105.464 50.2293 119.112 53.6459 132.743C53.0365 139.553 52.0136 146.318 50.535 152.991C49.8005 156.301 48.9744 159.588 48.0368 162.839C47.5338 164.593 46.9937 166.335 46.4189 168.082C45.9323 169.586 45.4727 171.033 45.6893 172.628C45.7554 173.078 46.009 173.36 46.3165 173.527C47.0882 179.745 53.1211 183.971 59.4064 183.773C65.4467 183.594 70.3532 180.149 74.2242 175.796C74.9064 176.226 75.9947 176.049 76.1614 175.016C76.2873 174.308 76.4132 173.6 76.5392 172.891C76.965 172.298 77.4081 171.702 77.8166 171.112C78.3555 170.325 77.8745 169.458 77.2101 169.149C79.0387 158.958 81.1943 148.825 83.6818 138.785C83.7817 138.381 83.6815 138.06 83.4875 137.823C83.6652 137.708 83.8206 137.562 83.926 137.316C86.3622 131.865 88.9788 125.714 87.7101 119.604L87.7625 119.72Z" fill="black"/>
</g>
<defs>
<clipPath id="clip0_67_1125">
<rect width="162.051" height="238.544" fill="white"/>
</clipPath>
</defs>
</svg>
