<svg width="926" height="976" viewBox="0 0 926 976" fill="none" xmlns="http://www.w3.org/2000/svg">
<path d="M176.618 765.5C176.618 742.527 187.883 727.317 204.491 717.553C220.94 707.882 242.638 703.519 263.918 701.808C300.131 698.895 343.57 706.455 390.877 718.141C438.129 729.813 489.808 745.761 542.083 759.666C647.051 787.588 755.227 807.493 842.155 771.193C866.151 761.173 881.32 738.323 887.737 711.596C894.153 684.871 891.704 654.652 880.838 630.526C870.001 606.463 853.445 593.589 832.279 587.235C810.933 580.828 784.821 581.03 754.943 583.485C695.46 588.373 621.55 602.196 544.663 587.958C513.153 582.123 493.216 560.794 484.446 535.434C475.705 510.157 477.989 480.723 490.953 458.251C506.287 431.671 525.132 419.523 544.169 411.712C602.872 387.625 667.945 404.916 726.272 423.219C755.591 432.419 783.157 441.865 807.762 446.782C832.391 451.704 853.464 451.952 869.955 443.287C905.591 424.563 922.611 394.47 920.527 362.663C917.988 323.914 887.321 285.521 848.762 279.975C812.59 274.772 776.607 277.489 740.362 281.051C704.202 284.604 667.719 289.009 630.981 286.996C593.979 284.969 563.364 273.316 541.974 253.128C520.552 232.909 508.617 204.345 508.617 169C508.617 123.521 527.727 81.1389 569.76 50.2061C611.714 19.3326 676.305 8.82149e-06 767.118 0V5C676.931 5.00001 613.521 24.2098 572.724 54.2324C532.008 84.1957 513.617 125.064 513.617 169C513.617 203.155 525.113 230.337 545.406 249.491C565.732 268.676 595.117 280.024 631.254 282.004C667.516 283.991 703.534 279.646 739.874 276.074C776.128 272.511 812.645 269.728 849.473 275.025C890.741 280.961 922.849 321.624 925.516 362.337C927.748 396.403 909.395 428.212 872.281 447.713C854.22 457.202 831.707 456.667 806.783 451.686C781.834 446.699 753.878 437.121 724.775 427.989C666.258 409.627 602.882 393.026 546.067 416.337C527.815 423.826 509.947 435.33 495.283 460.749C483.09 481.885 480.873 509.802 489.171 533.8C497.441 557.713 516.083 577.581 545.573 583.042C621.593 597.12 694.39 583.444 754.534 578.502C784.469 576.042 811.4 575.748 833.716 582.447C856.214 589.201 873.941 603.037 885.397 628.474C896.746 653.672 899.256 685.031 892.598 712.764C885.941 740.494 870.002 764.982 844.081 775.807C755.399 812.839 645.642 792.387 540.797 764.498C488.165 750.498 436.967 734.676 389.677 722.994C342.442 711.326 299.672 703.948 264.318 706.792C243.304 708.482 222.503 712.763 207.025 721.863C191.706 730.87 181.618 744.56 181.618 765.5C181.618 786.37 188.381 800.492 198.132 811.233C207.992 822.093 220.962 829.58 233.693 837.03C246.245 844.376 258.721 851.76 266.559 862.383C274.575 873.247 277.567 887.199 272.027 907.168C266.309 927.78 245.723 941.947 219.31 951.772C192.745 961.654 159.486 967.447 127.062 970.799C94.6085 974.154 62.8479 975.078 39.2125 975.164C27.3917 975.207 17.5956 975.041 10.7516 974.863C7.32963 974.775 4.64497 974.684 2.81405 974.614C1.89857 974.58 1.19554 974.55 0.721278 974.529C0.484488 974.519 0.304511 974.511 0.183192 974.506C0.122656 974.503 0.0765829 974.5 0.0454963 974.499C0.0299513 974.498 0.0174212 974.498 0.00936353 974.498C0.00554781 974.498 0.00252143 974.497 0.000574473 974.497C-0.00170006 974.497 -0.00306441 974.497 0.117762 972C0.238588 969.503 0.239306 969.503 0.240809 969.503C0.242556 969.503 0.24521 969.504 0.248621 969.504C0.255649 969.504 0.266535 969.504 0.280848 969.505C0.309776 969.506 0.353477 969.508 0.411707 969.511C0.528873 969.516 0.705312 969.524 0.938074 969.534C1.40356 969.554 2.09654 969.583 3.00253 969.617C4.81485 969.686 7.47957 969.777 10.8805 969.865C17.6828 970.041 27.43 970.207 39.1949 970.164C62.7313 970.078 94.3148 969.159 126.548 965.826C158.812 962.491 191.584 956.752 217.566 947.087C243.699 937.366 262.177 923.969 267.209 905.832C272.419 887.051 269.473 874.753 262.536 865.352C255.42 855.708 243.927 848.813 231.168 841.346C218.587 833.983 204.9 826.126 194.431 814.595C183.855 802.946 176.618 787.63 176.618 765.5Z" fill="white"/>
</svg>
