<svg width="381" height="594" viewBox="0 0 381 594" fill="none" xmlns="http://www.w3.org/2000/svg">
<path d="M3.43935 0C6.06584 12.9636 13.9698 25.3883 25.1786 36.7705C36.3791 48.1442 50.7992 58.395 66.2929 67.0098C97.3272 84.2654 132.367 94.7979 153.97 94.7979C180.171 94.7978 209.85 91.0622 239.714 88.25C269.506 85.4446 299.445 83.5648 325.894 87.3691C355.418 91.6157 378.427 120.729 380.339 149.898C381.936 174.269 368.813 197.048 342.204 211.029C329.334 217.792 309.933 218.218 287.094 215.56C264.174 212.892 237.417 207.063 209.618 200.985C181.785 194.9 152.883 188.559 125.556 184.821C98.2143 181.082 72.5795 179.969 51.2655 184.269C37.3511 187.075 17.4882 195.826 9.3954 220.761C-0.503016 251.259 1.7377 271.84 11.6522 285.808C21.6125 299.84 39.6101 307.632 62.2421 311.823C89.5598 316.882 119.171 316.783 148.791 314.873C178.503 312.958 207.859 309.256 235.156 307.115C262.308 304.986 287.211 304.425 307.375 308.921C327.602 313.431 343.235 323.077 351.506 341.442C359.64 359.504 361.443 381.993 356.668 401.882C351.893 421.769 340.474 439.287 321.943 447.025C312.619 450.919 299.486 451.46 284.502 450.48C269.47 449.498 252.302 446.961 234.807 444.516C217.278 442.066 199.398 439.706 182.82 439.045C166.225 438.383 151.076 439.432 138.969 443.712C124.154 448.95 116.251 458.047 115.076 467.486C113.904 476.902 119.345 487.357 132.749 495.517C138.198 498.834 144.519 500.057 151.198 500.48C154.534 500.692 157.926 500.702 161.322 500.686C164.702 500.669 168.102 500.626 171.377 500.736C177.904 500.957 184.215 501.79 189.387 504.859C194.643 507.979 198.519 513.281 200.434 521.976C203.807 537.284 197.193 555.205 189.987 569.053C186.359 576.025 182.529 582.061 179.607 586.353C178.146 588.5 176.91 590.214 176.037 591.393C175.601 591.982 175.255 592.438 175.017 592.748C174.899 592.903 174.807 593.022 174.744 593.103C174.713 593.143 174.689 593.173 174.673 593.194C174.665 593.205 174.658 593.213 174.653 593.219C174.651 593.221 174.648 593.225 174.648 593.225L174.647 593.227C174.647 593.227 174.646 593.228 173.47 592.298C172.307 591.379 172.292 591.368 172.292 591.368L172.293 591.367L172.312 591.343C172.327 591.325 172.348 591.297 172.377 591.26C172.435 591.185 172.523 591.073 172.637 590.924C172.865 590.626 173.2 590.183 173.626 589.607C174.478 588.456 175.691 586.776 177.128 584.665C180.003 580.441 183.767 574.508 187.326 567.668C194.495 553.891 200.631 536.813 197.504 522.621C195.729 514.566 192.26 510.054 187.855 507.439C183.366 504.775 177.7 503.951 171.275 503.734C168.074 503.626 164.754 503.669 161.337 503.686C157.936 503.702 154.454 503.693 151.008 503.475C144.122 503.038 137.24 501.762 131.189 498.079C117.174 489.548 110.732 478.103 112.1 467.116C113.464 456.153 122.52 446.346 137.97 440.884C150.612 436.414 166.212 435.38 182.939 436.047C199.685 436.715 217.703 439.097 235.222 441.545C252.773 443.998 269.804 446.514 284.697 447.487C299.638 448.464 312.157 447.861 320.787 444.258C338.163 437.002 349.121 420.467 353.751 401.182C358.38 381.898 356.615 360.092 348.77 342.674C341.005 325.432 326.348 316.226 306.723 311.85C287.034 307.459 262.523 307.978 235.391 310.106C208.403 312.223 178.604 315.958 148.984 317.867C119.272 319.783 89.3738 319.898 61.6962 314.772C38.8283 310.538 19.8554 302.547 9.20595 287.544C-1.48905 272.477 -3.49848 250.77 6.54189 219.835C15.0948 193.483 36.1664 184.253 50.6727 181.327C72.4802 176.928 98.5102 178.094 125.963 181.849C153.43 185.605 182.452 191.975 210.259 198.055C238.1 204.142 264.699 209.932 287.44 212.579C310.261 215.235 328.825 214.669 340.809 208.373C366.531 194.858 378.854 173.109 377.346 150.095C375.512 122.104 353.366 94.3508 325.468 90.3379C299.406 86.5893 269.784 88.4313 239.995 91.2363C210.279 94.0346 180.358 97.7978 153.97 97.7979C131.674 97.7979 96.1217 87.0269 64.8349 69.6309C49.1681 60.9198 34.4955 50.5077 23.0409 38.876C11.5945 27.2525 3.28128 14.3287 0.498918 0.595703L3.43935 0Z" fill="white"/>
</svg>
