<svg width="1210" height="1693" viewBox="0 0 1210 1693" fill="none" xmlns="http://www.w3.org/2000/svg">
<path d="M911.098 306.702C911.098 312.953 909.093 317.639 905.653 321.301C902.15 325.03 897.015 327.846 890.544 329.996C877.539 334.316 860.076 335.662 842.153 337.065C824.443 338.451 806.275 339.892 792.552 344.598C785.657 346.963 779.661 350.22 775.376 354.9C771.034 359.642 768.598 365.688 768.598 373.278C768.598 385.635 782.376 404.955 822.456 405C836.591 406.526 853.435 407.361 871.897 408.53C890.456 409.705 910.74 411.221 931.861 414.115C974.109 419.904 1019.59 431.193 1061.05 456.179C1143.74 506.005 1211.39 610.894 1204.1 838.421C1200.9 938.023 1162.89 1001.11 1102.43 1040.6C1041.78 1080.22 958.239 1096.29 863.667 1101.01C769.135 1105.73 663.998 1099.09 560.317 1093.6C456.722 1088.11 354.574 1083.76 266.331 1093.14C125.936 1108.06 25.6102 1208.98 6.12624 1332.11C-11.1408 1441.23 8.90651 1522.5 56.0071 1581.03C103.056 1639.49 176.785 1674.85 266.101 1692.88C267.454 1693.15 268.773 1692.28 269.046 1690.92C269.319 1689.57 268.443 1688.25 267.09 1687.98C178.406 1670.08 105.947 1635.1 59.9026 1577.89C13.9093 1520.74 -6.04396 1441.01 11.0647 1332.89C30.1901 1212.02 128.68 1112.79 266.86 1098.11C354.645 1088.79 456.403 1093.1 560.053 1098.59C663.617 1104.08 769.064 1110.73 863.916 1106C958.729 1101.27 1043.37 1085.15 1105.17 1044.79C1167.16 1004.29 1205.86 939.602 1209.09 838.581C1216.42 609.993 1148.42 502.988 1063.63 451.897C1021.36 426.425 975.142 414.999 932.539 409.161C911.234 406.241 890.805 404.717 872.212 403.54C853.579 402.36 836.88 401.534 822.865 400.015L822.731 400.001H822.596C783.788 400.001 773.598 381.684 773.598 373.278C773.598 366.868 775.614 362.047 779.065 358.277C782.573 354.445 787.71 351.545 794.174 349.328C807.169 344.871 824.627 343.453 842.542 342.05C860.244 340.665 878.407 339.296 892.12 334.741C899.009 332.453 905.007 329.291 909.297 324.724C913.649 320.091 916.098 314.163 916.098 306.702C916.098 297.211 912.943 289.788 907.139 284.182C901.415 278.654 893.304 275.073 883.676 272.785C864.465 268.218 838.178 268.569 809.723 269.979C781.112 271.397 750.205 273.894 721.23 273.797C692.234 273.701 665.606 270.994 645.601 262.212C635.53 257.79 629.132 253.238 625.415 248.695C621.771 244.241 620.639 239.725 621.218 235.025C621.812 230.205 624.232 225.008 628.077 219.403C631.909 213.817 637.025 208.011 642.78 201.976C654.173 190.029 668.185 177.103 678.486 163.948C688.78 150.801 696.028 136.643 693.045 122.002C690.171 107.892 681.607 94.2524 670.559 81.5768C659.489 68.8757 645.757 56.9526 632.272 46.2897C618.816 35.6501 605.42 26.1267 595.212 18.4127C590.073 14.5289 585.747 11.109 582.533 8.18616C580.928 6.72583 579.639 5.42542 578.68 4.28381C577.701 3.1189 577.168 2.23853 576.937 1.62268C576.452 0.329834 575.011 -0.324951 573.718 0.15979C572.425 0.644531 571.77 2.08569 572.255 3.37854C572.774 4.76257 573.717 6.14807 574.853 7.49963C576.008 8.87463 577.472 10.3419 579.169 11.8854C582.561 14.9702 587.04 18.5037 592.198 22.401C602.583 30.2495 615.751 39.6011 629.17 50.2115C642.56 60.7985 656.016 72.5006 666.789 84.8619C677.585 97.2487 685.52 110.109 688.146 123C690.663 135.359 684.661 147.951 674.549 160.866C664.443 173.773 650.893 186.223 639.161 198.525C633.354 204.615 628.017 210.653 623.954 216.575C619.905 222.478 616.989 228.453 616.255 234.414C615.506 240.495 617.053 246.37 621.545 251.861C625.965 257.263 633.162 262.211 643.591 266.79C664.586 276.007 692.084 278.7 721.213 278.797C750.363 278.895 781.582 276.38 809.971 274.973C838.516 273.559 864.106 273.272 882.52 277.649C891.704 279.833 898.843 283.12 903.665 287.778C908.408 292.359 911.098 298.443 911.098 306.702Z" fill="white"/>
</svg>
