<svg width="560" height="1896" viewBox="0 0 560 1896" fill="none" xmlns="http://www.w3.org/2000/svg">
<path d="M216.523 440.83C216.523 435.676 218.013 431.852 220.852 429.228C223.647 426.644 227.538 425.423 231.942 424.99C240.697 424.129 252.362 426.322 263.971 428.471C275.729 430.647 287.491 432.794 296.86 432.104C301.524 431.761 305.448 430.721 308.439 428.743C311.384 426.796 313.535 423.866 314.562 419.487C317.947 405.049 313.121 390.005 304.165 374.422C295.21 358.84 282.306 343.017 269.891 327.028C257.529 311.108 245.651 295.023 239.024 279.104C232.372 263.128 230.937 247.137 239.716 231.593C243.214 225.399 248.16 220.653 253.43 216.613C258.642 212.617 264.391 209.161 269.275 205.794C274.253 202.361 278.451 198.952 281.097 194.843C283.694 190.81 284.853 186.011 283.553 179.63C282.877 176.313 281.656 174.134 280.123 172.683C278.588 171.229 276.611 170.385 274.206 169.967C271.785 169.546 269.001 169.568 265.936 169.801C262.856 170.034 259.644 170.464 256.268 170.824C249.644 171.531 242.531 171.96 236.415 169.572C230.144 167.124 225.165 161.825 222.57 151.703C220.842 144.964 223.011 138.984 227.102 133.57C231.16 128.2 237.22 123.231 243.584 118.394C250.012 113.508 256.748 108.757 262.455 103.7C268.162 98.6432 272.627 93.4561 274.608 87.832C277.832 78.6736 274.961 68.8457 268.412 59.0264C261.873 49.2213 251.831 39.6852 241.268 31.3008C230.721 22.9287 219.732 15.7657 211.373 10.6924C207.196 8.15702 203.68 6.1461 201.21 4.77051C199.976 4.08279 199.003 3.55352 198.34 3.19727C198.009 3.01922 197.755 2.88499 197.584 2.79492C197.499 2.74989 197.435 2.71573 197.392 2.69336C197.371 2.6822 197.354 2.6734 197.344 2.66797C197.339 2.66543 197.336 2.66335 197.333 2.66211L197.33 2.66113C197.33 2.66113 197.33 2.66062 198.023 1.33008C198.689 0.0496247 198.714 0.00133711 198.716 0L198.72 0.00195312C198.723 0.00358903 198.728 0.00667977 198.734 0.00976562C198.745 0.0159078 198.763 0.0243199 198.785 0.0361328C198.831 0.0599954 198.898 0.0959984 198.987 0.142578C199.163 0.235712 199.423 0.373393 199.76 0.554688C200.435 0.917585 201.422 1.45389 202.67 2.14941C205.167 3.54039 208.716 5.56952 212.93 8.12695C221.353 13.2392 232.455 20.4739 243.133 28.9502C253.796 37.4141 264.116 47.1779 270.908 57.3613C277.689 67.5304 281.116 78.3807 277.438 88.8281C275.199 95.1854 270.265 100.788 264.446 105.945C258.626 111.102 251.706 115.989 245.4 120.782C239.03 125.623 233.277 130.374 229.495 135.379C225.746 140.34 224.049 145.393 225.476 150.958C227.88 160.335 232.304 164.746 237.506 166.777C242.864 168.869 249.295 168.55 255.949 167.841C259.213 167.493 262.573 167.047 265.709 166.81C268.86 166.571 271.934 166.526 274.72 167.011C277.523 167.498 280.104 168.534 282.186 170.504C284.27 172.476 285.725 175.265 286.492 179.03C287.943 186.149 286.656 191.75 283.619 196.467C280.631 201.107 276.006 204.797 270.978 208.264C265.855 211.796 260.412 215.04 255.255 218.994C250.155 222.904 245.552 227.36 242.328 233.067C234.148 247.55 235.366 262.513 241.793 277.951C248.245 293.447 259.875 309.238 272.261 325.188C284.593 341.07 297.678 357.113 306.767 372.927C315.855 388.739 321.129 404.622 317.483 420.173C316.293 425.246 313.72 428.848 310.094 431.246C306.513 433.614 302.019 434.733 297.08 435.097C287.243 435.821 275.059 433.575 263.425 431.421C251.642 429.24 240.469 427.166 232.235 427.976C228.144 428.378 225.002 429.476 222.888 431.431C220.818 433.344 219.523 436.276 219.523 440.83C219.523 443.9 220.381 446.048 221.788 447.623C223.224 449.23 225.359 450.382 228.153 451.191C233.806 452.829 241.515 452.903 249.874 453.095C258.101 453.284 266.88 453.593 274.229 455.866C281.66 458.165 287.806 462.532 290.452 470.877C293.06 479.098 291.421 486.426 286.942 492.812C282.509 499.13 275.317 504.505 266.801 509.071C249.76 518.208 226.884 524.38 208.329 528.271C201.251 529.755 192.633 535.396 185.539 543.251C178.459 551.091 173.121 560.89 172.321 570.455C170.303 594.582 171.405 610.083 179.373 624.568C187.391 639.144 202.452 652.874 228.934 673.139C235.873 678.449 244.407 682.727 253.324 686.638C262.129 690.499 271.548 694.095 279.715 697.851C287.94 701.633 295.327 705.756 300.371 710.927C305.485 716.169 308.211 722.517 307.006 730.553C305.783 738.709 301.738 744.24 296.207 748.185C290.742 752.082 283.842 754.419 276.893 756.327C269.84 758.264 262.834 759.742 256.672 761.936C250.538 764.119 245.634 766.893 242.768 771.166C237.785 778.594 238.478 786.383 242.255 793.978C246.063 801.633 252.945 808.928 260 815.002C275.151 828.046 287.171 831.733 305.996 838.003C328.39 845.461 363.178 858.291 397.725 875.991C432.24 893.676 466.666 916.298 488.197 943.397C576.567 1054.63 583.495 1187.89 503.26 1305.18C477.306 1343.12 441.737 1357.99 401.491 1361.29C361.343 1364.59 316.418 1356.38 271.596 1348.11C226.672 1339.83 181.847 1331.5 141.549 1334.32C101.341 1337.14 65.7775 1351.05 39.2317 1387.22C-3.84229 1445.9 -2.76688 1504.72 12.9817 1566.98C20.8651 1598.15 32.406 1630.11 43.9134 1663.35C55.4104 1696.56 66.86 1731.01 74.4895 1767.02C80.6616 1796.15 94.2463 1812.81 111.519 1822.09C128.881 1831.41 150.168 1833.39 171.918 1832.71C182.778 1832.36 193.704 1831.36 204.265 1830.3C214.807 1829.24 225.01 1828.12 234.345 1827.57C243.675 1827.01 252.239 1827.01 259.513 1828.21C266.783 1829.41 272.923 1831.84 277.236 1836.29C285.44 1844.75 288.575 1852.8 288.424 1860.19C288.274 1867.54 284.878 1873.95 280.565 1879.16C276.25 1884.38 270.933 1888.5 266.727 1891.31C264.618 1892.72 262.774 1893.81 261.454 1894.54C260.794 1894.91 260.264 1895.19 259.897 1895.38C259.713 1895.48 259.57 1895.55 259.472 1895.6C259.423 1895.63 259.384 1895.65 259.358 1895.66C259.344 1895.66 259.334 1895.67 259.326 1895.67C259.323 1895.68 259.32 1895.68 259.318 1895.68L259.315 1895.68C259.312 1895.67 259.275 1895.6 258.658 1894.33L258.004 1892.98C258.004 1892.98 258.007 1892.98 258.009 1892.98C258.014 1892.98 258.021 1892.97 258.032 1892.97C258.052 1892.96 258.085 1892.94 258.128 1892.92C258.215 1892.88 258.346 1892.81 258.517 1892.72C258.859 1892.54 259.362 1892.28 259.992 1891.92C261.255 1891.22 263.028 1890.17 265.06 1888.82C269.135 1886.1 274.193 1882.16 278.253 1877.25C282.315 1872.34 285.294 1866.56 285.425 1860.13C285.556 1853.73 282.877 1846.41 275.082 1838.37C271.395 1834.57 265.968 1832.31 259.024 1831.17C252.083 1830.02 243.784 1830.01 234.524 1830.56C225.268 1831.11 215.152 1832.22 204.565 1833.29C193.996 1834.35 182.983 1835.36 172.013 1835.7C150.104 1836.39 128.169 1834.43 110.1 1824.73C91.9407 1814.98 77.8828 1797.51 71.555 1767.64C63.9676 1731.83 52.5729 1697.53 41.0784 1664.33C29.5942 1631.16 17.9967 1599.05 10.0735 1567.72C-5.79096 1504.99 -6.99884 1445.13 36.8128 1385.44C64.0095 1348.39 100.497 1334.19 141.34 1331.33C182.093 1328.47 227.32 1336.9 272.14 1345.16C317.062 1353.44 361.572 1361.56 401.245 1358.3C440.82 1355.06 475.457 1340.51 500.784 1303.48C580.252 1187.32 573.426 1055.5 485.848 945.264C464.719 918.669 430.749 896.283 396.357 878.661C361.995 861.055 327.363 848.28 305.048 840.849C286.251 834.589 273.695 830.751 258.043 817.275C250.878 811.107 243.641 803.5 239.57 795.313C235.468 787.066 234.521 778.073 240.277 769.494C243.689 764.408 249.346 761.36 255.666 759.109C261.959 756.869 269.3 755.301 276.099 753.434C283.002 751.538 289.459 749.312 294.465 745.742C299.406 742.219 302.949 737.377 304.039 730.107C305.084 723.144 302.791 717.703 298.224 713.021C293.587 708.269 286.632 704.333 278.462 700.576C270.234 696.793 261.206 693.37 252.119 689.385C243.145 685.449 234.343 681.056 227.111 675.521C200.668 655.286 185.107 641.214 176.745 626.014C168.335 610.723 167.301 594.474 169.331 570.205C170.204 559.77 175.963 549.378 183.313 541.24C190.649 533.117 199.792 526.995 207.714 525.334C226.206 521.457 248.735 515.354 265.384 506.427C273.713 501.961 280.439 496.857 284.486 491.089C288.485 485.388 289.889 479.022 287.593 471.783C285.33 464.647 280.144 460.837 273.342 458.732C266.458 456.603 258.101 456.284 249.805 456.094C241.642 455.906 233.442 455.847 227.318 454.073C224.223 453.177 221.5 451.802 219.552 449.622C217.575 447.41 216.523 444.51 216.523 440.83Z" fill="white"/>
</svg>
