<svg width="104" height="65" viewBox="0 0 104 65" fill="none" xmlns="http://www.w3.org/2000/svg">
<path d="M4.27632 10.2106C0.132943 19.538 -3.19191 41.2955 5.22809 58.4908C6.96665 62.044 10.761 64.6963 15.5199 64.0237C54.1173 58.5669 75.5766 69.8613 96.046 62.2788C99.3328 61.0605 101.826 58.2052 102.359 54.7154C104.948 37.7358 104.257 22.0063 101.795 11.7335C100.944 8.17386 98.2795 5.50256 94.8468 4.32236C78.1083 -1.43267 28.2673 -1.20425 11.6557 3.60536C8.2674 4.58886 5.71666 6.96194 4.26997 10.2106H4.27632Z" fill="#C10230"/>
<path d="M98.4698 34.8805C99.2693 34.8805 99.9101 35.5404 99.9101 36.3526C99.9101 37.1647 99.2629 37.8246 98.4698 37.8246C97.6766 37.8246 97.0294 37.1647 97.0294 36.3526C97.0294 35.5404 97.6766 34.8805 98.4698 34.8805ZM98.4698 37.501C99.0979 37.501 99.5929 36.9871 99.5929 36.3526C99.5929 35.7181 99.0916 35.1977 98.4698 35.1977C97.8479 35.1977 97.3467 35.7181 97.3467 36.3526C97.3467 36.9871 97.8416 37.501 98.4698 37.501ZM98.5015 35.5658C98.6347 35.5658 98.7934 35.5785 98.9076 35.6863C99.0281 35.8005 99.0345 35.9401 99.0345 36.067C99.0345 36.1559 99.0218 36.4033 98.8061 36.5175L99.0281 37.0251C99.0472 37.0759 99.0281 37.1076 98.9774 37.1076H98.6982C98.6982 37.1076 98.6157 37.1076 98.5967 37.0569L98.419 36.5683C98.419 36.5683 98.3873 36.5366 98.3682 36.5366H98.3492C98.3492 36.5366 98.3238 36.5366 98.3238 36.562V37.0251C98.3238 37.1013 98.2731 37.1013 98.235 37.1013H98.032C98.032 37.1013 97.9368 37.1013 97.9368 37.0251V35.6356C97.9368 35.5531 98.0066 35.5594 98.032 35.5594H98.5078L98.5015 35.5658ZM98.3175 36.1622C98.3175 36.2257 98.3556 36.2574 98.4 36.2574H98.4698C98.5332 36.2574 98.5903 36.1939 98.5903 36.0861C98.5903 35.9338 98.4951 35.9147 98.4317 35.9147H98.3936C98.3556 35.9147 98.3175 35.9528 98.3175 35.9972V36.1622Z" fill="white"/>
<path d="M77.2834 41.3779C76.1984 40.7244 74.9865 40.4071 73.7809 40.4198C73.7555 39.0239 73.7302 37.6216 73.6794 36.2194C73.6413 35.0899 74.0538 33.9478 71.7251 34.0049C69.6439 34.0557 69.2442 34.0049 69.2505 35.6229C69.2505 35.8196 69.333 45.4388 69.2315 49.8043C68.4764 50.6545 68.0069 51.3969 68.432 51.8093C71.2556 54.5631 76.0715 54.5949 78.9015 51.8093C79.6058 51.1241 80.1134 50.2738 80.4243 49.3474C80.7733 48.3005 80.7415 47.1647 80.5702 46.0924C80.2593 44.1381 78.9712 42.3805 77.2898 41.3716L77.2834 41.3779ZM76.7187 48.421C76.5093 49.0619 75.3101 50.1025 73.7302 50.1025C73.7619 48.7002 73.8063 46.1749 73.8063 44.2079C73.8063 44.2079 75.253 44.284 76.1413 45.331C76.6933 45.9782 77.1312 47.1584 76.7187 48.4147V48.421ZM94.8848 34.2968C94.3899 33.9795 93.7173 33.8082 93.1272 33.6876C92.258 33.5036 91.3506 33.4085 90.4559 33.3894C88.4826 33.345 86.2935 33.7003 84.6438 34.7156C83.6222 35.3437 82.7212 36.1559 82.1755 37.1648C81.541 38.3323 81.1921 39.6521 81.2618 40.9592C81.3824 43.3005 82.7276 45.3056 84.8722 46.6C84.8405 46.6698 83.5968 49.3601 81.3824 50.9908C80.4306 51.6888 81.0905 52.2218 82.0359 53.0086C82.9941 53.8081 83.5715 54.6456 84.555 53.8525C86.89 51.9616 88.1653 50.2992 89.1362 48.015C89.3963 48.0403 89.6628 48.0594 89.923 48.0657C89.9293 49.4363 89.9483 50.8639 89.9801 52.4312C89.9991 53.5606 90.5067 53.8144 92.5435 53.6494C93.5587 53.567 94.4788 53.8652 94.4724 52.869C94.4724 52.5263 94.4724 52.2789 94.4851 52.0885C94.5168 51.3779 94.4851 43.8526 94.593 38.4148C95.1006 38.4973 95.4115 38.4655 95.7097 37.1838C95.8303 36.6635 96.1539 35.7942 96.1729 35.4326C96.1983 34.8805 95.3925 34.6204 94.8912 34.2968H94.8848ZM89.9293 44.0175C89.9293 44.0175 85.6209 43.7764 85.7669 40.5658C85.9128 37.4376 88.8443 37.5011 90.0879 37.4376C90.0372 38.9224 89.9547 41.9236 89.9293 44.0175ZM64.7518 36.397C64.2379 34.7029 64.4345 34.1445 62.4105 34.1318C61.1668 34.1191 59.7899 33.8717 59.4346 34.9503C59.0602 36.0925 56.5666 42.7485 56.3953 43.1609C55.7861 41.1939 53.8255 36.5556 53.21 35.1216C52.8864 34.3666 52.4359 34.3095 51.0209 34.3095C49.9994 34.3095 49.0159 34.0303 48.5971 35.1216C48.2291 36.0861 46.4017 48.4655 46.1923 52.2408C46.1352 53.2687 46.0844 53.7319 48.1847 53.7319C50.5831 53.7319 50.6466 53.3576 50.7164 52.723C50.9194 50.9083 51.9346 41.2257 51.9854 40.9655C52.1186 41.4604 54.1745 47.6152 54.5552 49.0809C54.6884 49.6012 54.6821 50.0327 56.3826 50.0771C57.9879 50.1152 58.1846 49.7853 58.3623 49.119C58.965 46.8411 60.0945 43.0531 60.9701 40.8576C61.2112 42.1203 61.9346 50.2802 62.2899 52.723C62.366 53.2433 62.3724 53.8588 64.6312 53.7256C66.7061 53.605 66.8711 53.8906 66.5348 50.5657C66.1477 46.7269 65.2721 38.1483 64.7328 36.397H64.7518ZM41.9157 35.7625C40.4817 34.6331 38.7368 33.9922 36.8713 34.1128C34.9487 34.2333 33.2546 34.9123 31.8015 36.1369C30.8815 36.911 29.0097 39.0937 28.5084 42.85C27.9564 47.0124 29.3015 49.4109 30.4881 50.8703C31.5033 52.1203 33.0515 52.9832 34.6441 53.3195C36.922 53.8017 39.2444 53.5225 41.2938 52.4248C42.2139 51.9299 43.1657 51.2573 43.8256 50.4451C44.2126 49.9693 44.606 49.6647 44.606 49.0302C44.606 48.4908 43.9207 48.0276 43.5019 47.6533C43.0705 47.2726 42.5502 46.5619 42.0489 46.581C41.8395 46.5873 40.7735 47.3678 39.9233 48.0403C39.422 48.4337 38.1974 49.3665 36.1162 49.1317C35.7545 49.0683 34.5299 48.935 33.7558 47.8183C33.6226 47.6279 33.2038 46.987 32.9944 45.5467C34.2825 45.8132 35.5959 45.9718 36.9347 45.9972C39.0096 46.0353 41.1352 45.7244 43.0895 45.0327C43.6479 44.836 44.5045 44.5759 44.8154 44.0619C45.0882 43.6114 44.6758 40.2485 44.3014 39.246C43.8065 37.9262 43.0514 36.6572 41.9157 35.7625ZM33.5401 41.6444C33.9398 40.4579 35.0312 38.2435 37.1695 38.2117C39.6568 38.1673 40.1454 41.4033 40.2088 41.784C38.8002 42.2282 36.1797 42.4693 33.5401 41.6508V41.6444ZM20.9069 38.8018C21.5224 40.7625 22.1062 48.1926 18.9209 48.2117C14.7902 48.237 13.2357 41.2701 13.5148 31.5176C13.7496 23.3197 15.9894 16.8413 19.1684 16.9175C22.3473 16.9936 21.6303 20.5278 20.5135 24.6902C20.1328 26.0989 21.4272 26.4796 23.0706 26.34C24.53 26.2194 25.5072 26.2765 25.8815 24.76C26.681 21.505 26.7889 20.458 26.3574 17.3743C25.945 14.3667 23.6353 10.3185 18.6481 11.0672C11.0847 12.1967 7.86133 21.7588 7.84864 34.2143C7.8423 45.2612 10.7166 54.9248 19.5427 53.8081C28.3434 52.6977 26.8269 40.0011 26.2115 38.2752C25.7356 36.93 20.5262 37.5836 20.9133 38.8209L20.9069 38.8018ZM76.852 20.5786C76.852 12.6218 72.1756 10.731 67.4929 10.731C62.8102 10.731 58.1338 12.6281 58.1338 20.5786C58.1338 28.5291 62.8102 30.4262 67.4929 30.4262C72.1756 30.4262 76.852 28.5291 76.852 20.5786ZM67.4929 25.9085C64.7137 25.9085 63.3876 23.9161 63.3876 20.5786C63.3876 17.2411 64.7137 15.2487 67.4929 15.2487C70.2721 15.2487 71.5982 17.2411 71.5982 20.5786C71.5982 23.9161 70.2721 25.9085 67.4929 25.9085ZM50.3039 19.1827V29.392C50.3039 29.741 50.5831 30.0202 50.9321 30.0202H54.7455C55.0945 30.0202 55.3737 29.741 55.3737 29.392V11.7589C55.3737 11.4099 55.0945 11.1307 54.7455 11.1307H49.0857C48.8255 11.1307 48.5971 11.2893 48.5019 11.5304L44.1365 22.5837L39.771 11.5304C39.6758 11.2893 39.4411 11.1307 39.1873 11.1307H33.5274C33.1784 11.1307 32.8992 11.4099 32.8992 11.7589V29.392C32.8992 29.741 33.1784 30.0202 33.5274 30.0202H37.3408C37.6898 30.0202 37.969 29.741 37.969 29.392V19.1827H38.2418L42.2393 29.6204C42.3344 29.8615 42.5692 30.0265 42.8294 30.0265H45.4563C45.7164 30.0265 45.9512 29.8679 46.0463 29.6204L50.0438 19.1827H50.3166H50.3039ZM79.3837 30.0202H83.8507C84.1933 30.0202 84.5042 29.8361 84.6755 29.5379L87.0105 25.4009H89.4598V29.3856C89.4598 29.7346 89.7389 30.0138 90.0879 30.0138H93.9014C94.2503 30.0138 94.5295 29.7346 94.5295 29.3856V11.9111C94.5295 11.6066 94.3138 11.3464 94.0156 11.2893C92.7338 11.0482 90.4623 10.7183 89.0537 10.7183C82.442 10.7183 79.022 13.066 79.022 17.9073C79.022 22.3045 81.8964 23.637 82.22 23.84L78.9141 29.1763C78.6857 29.5443 78.9522 30.0202 79.3837 30.0202ZM89.4598 15.0393V20.9847C87.8037 21.2575 84.2187 21.3019 84.2187 17.9707C84.2187 14.335 87.8481 14.5063 89.4598 15.0456V15.0393Z" fill="white"/>
</svg>
