<svg width="296" height="222" viewBox="0 0 296 222" fill="none" xmlns="http://www.w3.org/2000/svg">
<path d="M12.1687 46.8148C0.375939 75.7265 -9.08116 143.164 14.8776 196.467C19.1414 205.953 33.1718 211.501 44.1699 213.617C55.1681 215.733 180.105 233.269 273.361 208.209C282.716 204.432 289.814 195.582 291.331 184.765C298.699 132.134 296.73 83.3772 289.723 51.5351C287.303 40.5015 279.718 32.2213 269.948 28.5631C222.308 10.7245 80.4512 11.4325 33.1718 26.3407C23.5281 29.3892 16.2682 36.7449 12.1507 46.8148H12.1687Z" fill="url(#paint0_linear_69_1633)"/>
<path d="M12.1687 46.8148C0.375939 75.7265 -9.08116 143.164 14.8776 196.467C19.1414 205.953 33.1718 211.501 44.1699 213.617C55.1681 215.733 180.105 233.269 273.361 208.209C282.716 204.432 289.814 195.582 291.331 184.765C298.699 132.134 296.73 83.3772 289.723 51.5351C287.303 40.5015 279.718 32.2213 269.948 28.5631C222.308 10.7245 80.4512 11.4325 33.1718 26.3407C23.5281 29.3892 16.2682 36.7449 12.1507 46.8148H12.1687Z" fill="#6722A3" fill-opacity="0.5"/>
<path d="M32.0277 23.8932C28.4259 15.6717 33.3935 6.41456 42.3037 5.33072C62.1623 2.91515 98.968 -0.317768 151.966 0.0251745C205.224 0.369794 239.726 2.57017 257.767 4.12376C265.973 4.8304 271.397 12.6086 269.54 20.6328L267.923 27.6136C266.397 34.2068 260.395 38.769 253.633 38.4916C232.467 37.6232 186.432 35.988 148.914 36.4242C117.256 36.7922 68.4435 38.1367 48.0764 38.7233C42.365 38.8877 37.144 35.5717 34.8512 30.3382L32.0277 23.8932Z" fill="#C10230"/>
<path d="M76.243 159.67C47.3357 182.696 34.8614 166.808 27.7544 153.212C20.6474 139.616 13.5982 114.907 25.868 95.7971C33.2022 84.3669 45.1944 78.4967 57.6833 78.773L57.6766 78.7586C70.9716 79.1606 88.3562 76.1444 99.7608 69.5314L99.7975 69.6106C110.941 63.2497 125.977 63.5937 137.677 72.7015C158.625 89.0338 138.987 118.568 156.232 137.99C185.585 171.049 105.15 136.644 76.243 159.67Z" fill="#5C0F8B"/>
<path d="M42.423 71.8657C41.1185 72.2876 40.5021 71.9888 39.9274 70.6969C39.7383 70.2716 39.5714 69.8434 39.4093 69.4091C38.2806 66.3736 37.1265 63.358 35.6617 60.4601C35.4582 60.0534 35.2947 59.608 35.1816 59.1619C34.9554 58.2697 35.326 57.6113 36.1769 57.2856C36.4178 57.1937 36.6864 57.1431 36.9439 57.0939C38.113 56.8855 39.282 56.6771 40.4462 56.4748C40.77 56.4174 41.1001 56.3647 41.4262 56.3687C42.1572 56.378 42.7074 56.7749 42.8861 57.471C42.993 57.9123 43.0191 58.3805 43.039 58.8439C43.2071 62.2694 43.3641 65.6964 43.5211 69.1233C43.5539 69.7759 43.5709 70.4362 43.6028 71.2574C43.1122 71.5042 42.7826 71.7364 42.4106 71.856L42.423 71.8657ZM37.2787 59.0559C37.3174 59.3149 37.296 59.587 37.4002 59.7873C38.994 62.9048 40.1772 66.1917 41.3176 69.4952C41.381 69.6837 41.4443 69.8723 41.5332 70.0407C41.7721 70.5047 42.1189 70.4949 42.6327 70.1666C42.5059 69.2619 42.361 68.3034 42.232 67.3372C42.0931 66.2937 41.948 65.2454 41.8533 64.1963C41.7609 63.2087 41.7362 62.2239 41.6658 61.2335C41.5969 60.2542 41.5107 59.2715 41.4141 58.0318C39.9118 58.3999 38.6498 58.7155 37.2725 59.0511L37.2787 59.0559Z" fill="white"/>
<path d="M33.9171 74.2215C33.6089 74.1816 33.2612 74.0512 33.0389 73.849C32.1977 73.1071 31.3903 72.3218 30.5829 71.5364C29.0241 70.0091 27.4797 68.4631 25.9271 66.9406C25.407 66.4279 24.8484 65.9648 24.3428 65.4334C23.4091 64.4506 23.4525 63.6482 24.518 62.7625C25.5324 61.9169 26.5607 61.0919 27.6278 60.307C28.8796 59.3867 29.3509 59.4735 30.2403 60.6807C30.5938 61.1639 30.9474 61.6471 31.2375 62.1607C32.3409 64.1211 33.4285 66.0892 34.4891 68.0662C35.05 69.1182 35.5474 70.2007 36.1578 71.4205C36.7689 72.382 34.8982 74.3453 33.9109 74.2166L33.9171 74.2215ZM28.9479 61.6791C27.7619 62.4116 26.7716 63.2261 25.7879 64.225C26.5629 65.2839 27.6622 65.9372 28.5121 66.8352C29.4146 67.7938 30.3123 68.7587 31.21 69.7235C32.0565 70.6387 32.8871 71.5615 33.8202 72.5837C34.2764 72.2009 34.6527 71.8956 35.0786 71.5391C33.1541 68.1159 31.2991 64.7962 28.9527 61.6729L28.9479 61.6791Z" fill="white"/>
<path d="M30.7944 77.1171C29.789 78.736 29.602 78.8099 27.7386 78.2806C26.4054 77.9035 25.0741 77.4982 23.7341 77.1557C21.112 76.4859 18.4735 75.863 15.8548 75.1758C14.6357 74.8574 14.3241 74.3073 14.658 73.1431C15.0036 71.9381 15.4196 70.758 15.8405 69.5716C16.6165 67.3867 17.4725 67.2345 19.1939 68.4101C21.5422 70.0122 23.9132 71.5721 26.2519 73.1866C27.8267 74.2684 29.3629 75.4 31.0181 76.584C30.8925 76.8747 30.859 77.008 30.7944 77.1171ZM28.8148 76.2488C25.1458 74.0605 21.6803 71.5324 17.8348 69.4561C17.0861 70.7565 16.7768 72.0692 16.4402 73.5199C16.902 73.7089 17.2942 73.9234 17.7068 74.0344C20.0007 74.6388 22.2999 75.1976 24.5889 75.8083C25.797 76.1281 26.9867 76.5231 28.188 76.8774C28.4969 76.9677 28.8226 77.1008 29.0887 76.6802C29.0041 76.5449 28.949 76.333 28.8148 76.2488Z" fill="white"/>
<path d="M233.011 116.671C225.792 139.073 222.531 147.991 217.34 170.939C217.036 172.321 216.806 173.044 216.469 173.435C198.395 168.415 180.122 164.197 161.669 160.782C164.146 153.073 165.584 145.051 165.915 136.843C166.159 130.854 156.835 129.747 156.587 135.793C156.054 148.777 152.694 160.997 146.562 172.456C145.191 175.026 147.563 178.795 150.392 178.856C162.255 179.145 174.115 179.699 185.954 180.518C195.595 182.621 205.303 184.368 215.126 185.173C215.674 185.218 216.194 185.147 216.7 184.998C217.418 185.057 218.136 185.116 218.854 185.175C219.1 185.195 219.31 185.174 219.54 185.155C220.261 186.336 221.491 187.103 222.849 187.252C223.502 188.561 224.372 189.773 225.496 190.912C229.662 195.076 236.706 189.891 232.822 185.065C226.249 176.862 239.259 163.398 234.557 154.873C237.044 142.639 236.638 144.108 238.282 131.71C238.301 131.483 238.316 131.294 238.296 131.083C239.413 127.428 240.548 123.794 241.722 120.143C243.561 114.418 234.853 110.908 233.013 116.652L233.011 116.671Z" fill="#F99D22"/>
<path d="M202.215 179.569C210.165 181.191 218.156 183.006 226.205 184.123C226.938 184.221 227.121 183.152 226.411 182.999C218.47 181.264 210.342 180.197 202.322 178.969C201.927 178.918 201.822 179.499 202.214 179.588L202.215 179.569Z" fill="white"/>
<path d="M228.08 169.385C227.192 173.953 225.619 178.522 225.181 183.164C225.104 184.109 226.378 184.346 226.625 183.416C227.831 178.912 227.924 174.07 228.681 169.473C228.752 169.079 228.152 168.973 228.063 169.365L228.08 169.385Z" fill="white"/>
<path d="M206.836 191.188C208.862 190.365 210.89 189.523 212.933 188.74C214.954 187.974 217.277 187.708 219.2 186.762C219.755 186.485 219.858 185.466 219.083 185.403C216.929 185.226 214.713 186.28 212.76 187.128C210.572 188.071 208.497 189.251 206.491 190.532C206.129 190.768 206.422 191.363 206.835 191.207L206.836 191.188Z" fill="white"/>
<path d="M213.091 191.891C216.746 191.62 221.377 190.346 224.251 187.995C224.863 187.493 224.378 186.446 223.595 186.724C221.792 187.375 220.14 188.494 218.366 189.262C216.591 190.029 214.804 190.719 212.923 191.155C212.497 191.253 212.671 191.914 213.091 191.891Z" fill="white"/>
<path d="M226.6 196.251C230.356 194.049 234.639 193.069 238.345 190.786C239.106 190.316 238.45 189.045 237.622 189.396C233.623 191.084 229.276 192.61 226.042 195.635C225.671 195.985 226.219 196.486 226.617 196.272L226.6 196.251Z" fill="white"/>
<path d="M221.454 193.794C223.566 193.549 225.581 192.174 227.295 190.983C227.94 190.541 227.389 189.374 226.637 189.731C224.718 190.639 222.938 191.938 221.22 193.166C220.958 193.354 221.11 193.823 221.456 193.775L221.454 193.794Z" fill="white"/>
<path d="M164.556 94.0736C168.13 95.4887 172.165 95.9148 175.929 96.6229C179.843 97.3623 214.707 103.588 218.623 104.308C222.539 105.029 226.456 105.731 230.373 106.432C234.16 107.104 238.119 108.228 241.971 108.334C242.882 108.352 243.16 106.815 242.289 106.535C238.644 105.304 234.524 104.985 230.737 104.313C226.82 103.611 222.901 102.929 218.963 102.244C215.044 101.561 180.181 95.336 176.24 94.6895C172.469 94.0569 168.537 93.0688 164.689 93.1525C164.212 93.1705 164.076 93.9011 164.518 94.0705L164.556 94.0736Z" fill="white"/>
<path d="M161.98 95.0987C161.018 96.3891 160.82 97.8753 160.522 99.4294C160.101 101.544 159.699 103.66 159.28 105.756C158.436 110.023 152.553 143.26 151.783 147.552C151.042 151.713 150.282 155.873 149.542 160.034C149.157 162.171 148.773 164.308 148.39 166.425C148.046 168.299 147.528 170.215 147.599 172.123C147.637 173.058 149.043 173.307 149.399 172.442C150.847 168.928 151.035 164.55 151.683 160.819C152.435 156.525 153.205 152.233 153.955 147.958C154.696 143.797 160.587 110.694 161.252 106.526C161.597 104.405 161.944 102.266 162.27 100.143C162.54 98.4729 162.938 96.8699 162.446 95.213C162.386 95.0179 162.087 94.9553 161.958 95.1349L161.98 95.0987Z" fill="white"/>
<path d="M243.568 110.177C242.042 113.703 241.518 117.54 240.848 121.308C240.118 125.337 234.276 158.311 233.546 162.341C232.837 166.352 232.11 170.344 231.401 174.355C230.763 177.955 229.506 181.921 229.641 185.603C229.68 186.519 231.086 186.768 231.422 185.92C232.823 182.517 233.03 178.369 233.668 174.769C234.377 170.758 235.085 166.765 235.794 162.753C236.505 158.722 242.367 125.75 243.078 121.719C243.748 117.951 244.59 114.179 244.372 110.338C244.35 109.918 243.714 109.79 243.547 110.194L243.568 110.177Z" fill="white"/>
<path d="M149.977 174.619C153.314 176.376 157.608 176.653 161.278 177.353C165.191 178.111 200.055 184.337 203.973 185.019C207.891 185.721 211.808 186.423 215.744 187.126C219.436 187.79 223.586 189.138 227.351 188.915C228.229 188.873 228.472 187.542 227.664 187.191C224.211 185.69 219.851 185.523 216.14 184.857L204.369 182.751C200.451 182.049 165.588 175.824 161.647 175.177C157.95 174.57 153.829 173.338 150.099 173.831C149.715 173.875 149.615 174.399 149.961 174.58L149.977 174.619Z" fill="white"/>
<path d="M172.767 108.726C174.648 109.679 176.852 109.935 178.91 110.351C181.081 110.777 214.202 116.688 216.375 117.095C220.571 117.876 225.011 119.153 229.282 119.256C230.193 119.274 230.47 117.756 229.601 117.457C225.568 116.08 220.955 115.739 216.753 115.033C214.577 114.665 181.456 108.753 179.26 108.402C177.196 108.062 175.049 107.562 172.937 107.808C172.457 107.863 172.346 108.52 172.767 108.726Z" fill="white"/>
<path d="M172.62 108.181C171.223 109.208 171.233 111.643 170.893 113.232C170.393 115.625 164.817 146.966 164.392 149.366C163.947 151.783 163.522 154.182 163.076 156.599C162.69 158.755 161.883 161.18 162.084 163.364C162.159 164.302 163.491 164.526 163.884 163.683C164.827 161.687 164.922 159.147 165.289 156.99C165.715 154.571 166.142 152.153 166.567 149.753C166.992 147.354 172.531 115.99 172.899 113.586C173.124 112.007 173.96 109.698 173.032 108.253C172.947 108.132 172.76 108.098 172.639 108.183L172.62 108.181Z" fill="white"/>
<path d="M229.162 118.163C228.119 119.751 227.779 121.568 227.456 123.424C227.007 125.879 221.445 157.297 220.995 159.771C220.576 162.095 220.157 164.419 219.738 166.743C219.38 168.786 218.557 171.172 218.824 173.248C218.958 174.172 220.175 174.405 220.605 173.565C221.528 171.815 221.587 169.481 221.937 167.531C222.366 165.075 222.815 162.621 223.245 160.165C223.663 157.841 229.198 126.534 229.617 124.21C229.968 122.242 230.358 120.277 229.892 118.299C229.823 117.989 229.316 117.909 229.143 118.161L229.162 118.163Z" fill="white"/>
<path d="M162.669 163.659C164.138 164.769 166.063 164.946 167.839 165.32C170.232 165.82 203.577 171.788 205.995 172.215C208.264 172.61 210.531 173.024 212.8 173.419C215.069 173.814 217.274 174.528 219.458 174.327C220.34 174.247 220.576 172.992 219.771 172.603C217.903 171.727 215.65 171.599 213.627 171.224C211.208 170.797 208.809 170.372 206.392 169.927C204.125 169.513 170.91 163.593 168.636 163.255C166.739 162.966 164.674 162.397 162.785 162.946C162.511 163.038 162.439 163.45 162.672 163.622L162.669 163.659Z" fill="white"/>
<path d="M242.606 108.672C243.427 107.94 243.355 106.965 243.958 106.101C244.648 105.112 245.83 105.532 246.463 106.402C246.908 107.009 246.954 107.83 246.503 108.459C245.903 109.285 245.058 109.158 244.154 109.046C242.8 108.859 242.006 110.886 243.387 111.437C247.288 113.031 251.121 108.267 248.331 104.957C247.049 103.426 244.681 102.623 242.992 103.968C241.751 104.95 240.571 107.744 242.376 108.691C242.449 108.735 242.564 108.725 242.625 108.673L242.606 108.672Z" fill="white"/>
<path d="M163.934 94.0036C164.775 94.4149 165.633 94.3902 166.093 93.4199C166.457 92.6891 166.201 91.8693 165.719 91.2592C164.514 89.715 162.161 88.9515 160.314 89.6748C158.467 90.3982 157.513 92.2978 157.905 94.2319C158.257 95.9724 160.037 98.1534 162.022 97.8407C163.081 97.6803 163.304 96.3483 162.378 95.8159C161.524 95.3274 160.712 95.2608 160.282 94.2367C159.963 93.4878 160.019 92.5795 160.709 92.0465C161.521 91.4284 162.511 91.6428 163.308 92.1265C163.615 92.3229 164.012 92.5836 164.173 92.9392C164.287 93.1767 164.234 92.659 164.175 92.9203C164.141 93.1077 163.896 93.544 163.806 93.7079C163.74 93.8166 163.803 93.9739 163.914 94.021L163.934 94.0036Z" fill="white"/>
<path d="M147.879 171.461C147.879 171.461 147.879 171.461 147.951 171.505C148.134 171.596 148.329 171.536 148.455 171.395C148.496 171.36 148.517 171.324 148.558 171.289C148.745 171.095 148.734 170.771 148.6 170.551C148.114 169.75 146.896 169.764 146.092 170.06C145.19 170.385 144.497 171.184 144.086 172.025C143.24 173.762 143.345 176.187 144.709 177.649C146.143 179.174 148.536 179.218 150.258 178.161C151.859 177.189 152.969 174.56 150.853 173.455C150.124 173.072 149.309 173.728 149.361 174.493C149.422 175.373 149.622 175.712 148.691 176.168C147.84 176.574 146.656 176.629 146.14 175.731C145.656 174.912 145.736 173.701 146.146 172.879C146.673 171.781 147.624 172.011 148.437 171.374C148.245 171.396 148.036 171.398 147.844 171.42C147.645 171.29 147.82 170.791 147.656 171.158C147.608 171.287 147.688 171.465 147.861 171.441L147.879 171.461Z" fill="white"/>
<path d="M227.299 186.818C224.661 186.983 225.509 191.255 226.76 192.461C228.418 194.042 231.609 193.867 233.222 192.287C234.566 190.971 234.875 188.828 234.161 187.096C233.48 185.424 231.295 183.78 229.696 185.418C229.28 185.859 229.41 186.821 230.04 187.024C230.725 187.252 231.244 187.18 231.629 187.82C232.013 188.479 232.022 189.526 231.628 190.159C231.1 191.029 229.778 191.149 228.864 190.922C227.578 190.607 227.24 188.697 227.894 187.685C228.175 187.271 227.702 186.776 227.282 186.798L227.299 186.818Z" fill="white"/>
<mask id="mask0_69_1633" style="mask-type:luminance" maskUnits="userSpaceOnUse" x="161" y="71" width="113" height="115">
<path d="M190.097 183.786L174.06 177.355C174.06 177.355 161.306 176.804 161.652 176.052C161.999 175.301 168.43 139.788 168.43 139.788L178.27 81.9617L222.326 71.4061L273.845 90.6749L254.79 185.041L225.004 184.614L190.097 183.786Z" fill="white"/>
</mask>
<g mask="url(#mask0_69_1633)">
<path d="M242.937 150.54C243.651 148.791 244.329 147.021 244.971 145.229C245.515 143.695 246.482 141.873 246.201 140.195C245.906 138.459 244.134 137.572 242.683 136.94C241.801 136.563 240.894 136.261 239.98 136.052C239.824 135.868 239.608 135.718 239.351 135.601C224.66 128.976 210.034 122.262 195.435 115.454C195.181 115.072 194.787 114.773 194.225 114.67C194.093 114.659 193.964 114.61 193.833 114.581C193.62 114.392 193.408 114.203 193.195 114.015C192.525 113.37 191.744 113.382 191.126 113.731C189.246 113.006 187.437 112.097 185.58 111.317C185.35 111.108 185.042 110.931 184.672 110.805L184.615 110.801C184.432 110.481 184.15 110.211 183.803 110.03C183.275 109.74 182.726 109.486 182.154 109.268C181.951 109.194 181.727 109.137 181.52 109.12C180.571 108.624 179.396 109.041 178.879 110.007C178.633 110.462 178.541 110.892 178.549 111.254C178.327 111.407 178.12 111.618 177.964 111.891C176.436 114.523 175.311 117.341 174.577 120.266C174.577 120.266 174.575 120.285 174.573 120.304C171.188 127.729 167.801 135.173 164.415 142.597C163.674 144.21 162.639 145.932 163.059 147.773C163.424 149.344 164.63 150.413 165.952 151.225C167.437 152.126 169.119 152.721 170.699 153.402C172.591 154.223 174.485 155.006 176.38 155.789C178.791 156.766 181.204 157.725 183.639 158.647C183.811 159.099 184.142 159.468 184.581 159.675C197.008 165.145 209.274 170.962 221.357 177.145C222.707 177.846 224.063 178.699 225.482 179.252C227.196 179.925 228.512 179.178 229.396 177.672C231.144 174.677 232.714 171.534 234.336 168.453C237.425 162.564 240.367 156.605 242.887 150.46L242.937 150.54Z" fill="#C10230"/>
<path d="M237.178 142.365C233.493 140.693 229.857 138.874 226.308 136.928C225.216 136.325 223.743 137.136 223.568 138.339C223.557 138.471 223.546 138.603 223.497 138.732C222.368 139.286 222.063 140.688 221.846 141.944C221.674 142.881 222.37 144.136 223.412 144.184C224.018 144.214 224.561 144.316 225.155 144.498C225.396 144.575 225.624 144.574 225.857 144.517C226.353 144.729 226.869 144.924 227.326 145.151C229.788 146.437 231.96 148.023 234.721 148.668C235.543 148.849 236.46 148.335 236.806 147.602C237.24 146.706 237.656 145.808 238.09 144.931C238.528 143.997 238.133 142.785 237.18 142.346L237.178 142.365Z" fill="#FFC20E"/>
<path d="M232.231 175.337C233.963 172.074 235.695 168.812 237.371 165.526C239.296 161.766 241.147 157.981 242.834 154.107C244.33 150.711 245.737 147.232 246.735 143.643C247.282 141.615 247.772 139.354 246.299 137.598C245.554 136.719 244.495 136.176 243.47 135.692C242.334 135.161 241.197 134.65 240.061 134.119C235.388 131.967 230.713 129.834 226.04 127.682C221.293 125.505 216.546 123.328 211.778 121.168C207.048 119.012 202.337 116.857 197.607 114.7C192.951 112.569 188.275 110.454 183.618 108.342C182.499 107.832 181.34 107.128 180.065 107.366C179.022 107.565 178.252 108.377 177.705 109.245C177.091 110.241 176.695 111.349 176.228 112.414C175.688 113.663 175.15 114.893 174.61 116.142C172.457 121.063 170.305 125.964 168.171 130.886C167.094 133.346 166.017 135.806 164.942 138.248C164.402 139.497 163.864 140.727 163.324 141.976C162.809 143.151 162.257 144.322 161.797 145.521C161.432 146.499 161.307 147.554 161.663 148.553C161.972 149.415 162.521 150.145 163.196 150.733C164.564 151.91 166.198 152.614 167.854 153.302C170.355 154.344 172.832 155.441 175.31 156.538C178.282 157.865 180.978 159.076 183.947 160.441C187.082 161.877 190.214 163.332 193.327 164.805C196.439 166.277 199.552 167.75 202.664 169.222C205.501 170.577 208.336 171.951 211.171 173.324C213.512 174.467 215.871 175.612 218.19 176.791C219.815 177.609 221.46 178.428 223.065 179.263C223.539 179.512 223.994 179.758 224.448 180.024C225.647 180.711 226.863 181.648 228.317 181.082C229.377 180.675 230.077 179.572 230.666 178.651C231.365 177.548 231.919 176.357 232.325 175.116C232.701 174.006 230.956 173.482 230.58 174.593C230.179 175.777 229.65 176.894 228.955 177.94C228.52 178.608 227.92 179.662 227.011 179.378C226.344 179.171 225.72 178.663 225.102 178.309C223.866 177.618 222.587 176.98 221.327 176.344C216.743 174.028 212.115 171.785 207.487 169.542C201.486 166.653 195.444 163.799 189.399 160.983C183.719 158.35 178.019 155.733 172.272 153.227C171.114 152.732 169.958 152.219 168.799 151.744C167.347 151.13 166.001 150.62 164.729 149.66C164.192 149.255 163.683 148.737 163.394 148.086C163.362 148.008 163.316 147.871 163.275 147.677C163.234 147.484 163.235 147.465 163.235 147.236C163.241 146.704 163.435 146.188 163.646 145.71C164.639 143.339 165.706 140.992 166.737 138.623C168.843 133.813 170.95 129.003 173.057 124.174C174.109 121.788 175.141 119.4 176.191 117.033C176.728 115.821 177.246 114.609 177.784 113.379C178.252 112.314 178.624 111.26 179.197 110.299C179.572 109.665 180.061 109.039 180.777 109.117C181.248 109.174 181.703 109.421 182.125 109.608C182.711 109.884 183.318 110.143 183.904 110.419C186.159 111.441 188.415 112.463 190.67 113.484C195.291 115.575 199.892 117.683 204.512 119.793C213.715 123.99 222.935 128.207 232.137 132.423C234.446 133.488 236.737 134.531 239.046 135.596C240.146 136.104 241.247 136.594 242.327 137.101C243.261 137.539 244.31 137.967 244.985 138.783C246.073 140.128 245.273 142.23 244.848 143.698C244.348 145.387 243.773 147.071 243.125 148.71C240.298 156.048 236.661 163.053 233.011 169.999C232.244 171.458 231.48 172.898 230.715 174.338C230.489 174.775 230.559 175.314 231.013 175.579C231.411 175.821 232.028 175.719 232.254 175.282L232.231 175.337Z" fill="black"/>
<path d="M237.374 143.693C236.524 145.468 235.674 147.262 234.824 149.038C234.619 149.458 234.648 150.031 235.122 150.279C235.503 150.501 236.153 150.459 236.363 149.982C237.213 148.207 238.063 146.413 238.913 144.637C239.118 144.217 239.089 143.644 238.615 143.396C238.234 143.174 237.584 143.216 237.374 143.693Z" fill="black"/>
<path d="M238.942 142.206C236.709 140.672 234.367 139.32 231.913 138.168C230.65 137.57 229.363 137.027 228.052 136.539C227.407 136.296 226.741 136.07 226.073 135.863C225.777 135.763 225.479 135.681 225.183 135.581C224.868 135.479 224.536 135.357 224.212 135.368C223.299 135.369 222.998 136.257 222.638 136.932L221.712 138.719C221.396 139.321 221.08 139.923 220.765 140.525C220.471 141.09 220.215 141.659 220.182 142.303C220.122 143.724 221.271 144.56 222.447 145.056C223.661 145.555 224.921 145.962 226.155 146.463C228.969 147.626 231.707 149.029 234.334 150.614C234.733 150.856 235.331 150.753 235.576 150.317C235.819 149.899 235.715 149.32 235.278 149.075C233.03 147.731 230.715 146.514 228.33 145.443C227.155 144.928 225.979 144.433 224.779 143.992C224.207 143.774 223.632 143.594 223.06 143.376C223.004 143.371 222.95 143.328 222.895 143.305C222.876 143.303 222.694 143.212 222.804 143.259C222.895 143.305 222.749 143.236 222.749 143.236C222.694 143.212 222.638 143.189 222.585 143.146C222.476 143.08 222.386 143.016 222.278 142.95C222.134 142.843 222.224 142.908 222.278 142.95C222.207 142.887 222.155 142.826 222.103 142.764C222.019 142.624 222.085 142.744 222.103 142.764C222.068 142.724 222.054 142.665 222.021 142.606C222.103 142.764 221.978 142.431 221.989 142.527C221.983 142.602 222.012 142.244 222.006 142.319C221.998 142.414 222.012 142.244 222.014 142.225C222.02 142.149 222.045 142.075 222.07 142.001C222.073 141.963 222.213 141.651 222.144 141.798C222.191 141.688 222.257 141.579 222.304 141.469C222.461 141.177 222.599 140.884 222.756 140.593C223.345 139.443 223.932 138.312 224.54 137.164C224.54 137.164 224.628 137.019 224.631 136.981C224.628 137.019 223.838 137.601 224.214 137.194C224.03 137.122 224.194 137.211 224.214 137.194C224.288 137.219 224.362 137.244 224.438 137.25C224.753 137.352 225.069 137.435 225.384 137.537C225.995 137.74 226.587 137.94 227.197 138.161C228.323 138.577 229.501 139.054 230.565 139.522C233.15 140.704 235.622 142.104 237.961 143.723C238.357 144.002 238.979 143.844 239.203 143.425C239.448 142.989 239.339 142.466 238.905 142.184L238.942 142.206Z" fill="black"/>
<path d="M172.656 143.692C175.971 144.782 179.107 146.199 182.119 147.967C182.518 148.209 183.116 148.106 183.361 147.67C183.604 147.252 183.518 146.675 183.063 146.428C179.942 144.594 176.605 143.084 173.159 141.964C172.696 141.812 172.177 142.112 172.025 142.575C171.89 143.059 172.173 143.557 172.636 143.709L172.656 143.692Z" fill="black"/>
<path d="M187.029 150.215C190.402 151.518 193.627 153.247 196.633 155.319C197.03 155.58 197.65 155.441 197.875 155.022C198.12 154.585 198.01 154.063 197.577 153.78C194.445 151.621 191.072 149.842 187.534 148.468C187.072 148.297 186.531 148.633 186.399 149.079C186.244 149.58 186.55 150.023 187.01 150.213L187.029 150.215Z" fill="black"/>
<path d="M201.77 157.624C202.616 157.75 203.602 158.249 204.446 158.623C205.344 159.039 206.295 159.497 207.209 159.953C209.107 160.926 210.94 161.989 212.749 163.127C213.146 163.387 213.764 163.267 213.99 162.829C214.235 162.393 214.128 161.851 213.693 161.587C211.831 160.408 209.925 159.301 207.953 158.302C206.93 157.781 205.905 157.297 204.859 156.831C203.868 156.388 202.914 155.968 201.824 155.802C201.336 155.724 200.895 156.24 200.897 156.677C200.872 157.208 201.282 157.546 201.772 157.605L201.77 157.624Z" fill="black"/>
<path d="M217.925 165.434C219.509 166.059 221.012 166.753 222.505 167.56C223.27 167.965 224.014 168.406 224.758 168.847C225.101 169.066 225.463 169.286 225.807 169.504C225.988 169.614 226.168 169.743 226.349 169.853C226.439 169.917 226.547 169.983 226.637 170.048C226.673 170.07 226.709 170.092 226.727 170.112C226.888 170.239 226.872 170.2 226.624 169.971C226.599 169.816 226.553 169.679 226.528 169.525C226.526 169.544 226.525 169.563 226.523 169.582C226.617 169.361 226.71 169.16 226.823 168.941C226.823 168.941 226.823 168.941 226.802 168.958C227.018 168.881 227.234 168.803 227.449 168.726C227.506 168.731 227.562 168.735 227.619 168.74L228.035 169.002C228.035 169.002 228.035 169.002 228.018 168.982C228.082 169.12 228.166 169.26 228.231 169.399C228.231 169.399 228.231 169.399 228.232 169.38C228.151 169.677 228.052 169.954 227.971 170.252C227.971 170.252 227.971 170.252 227.991 170.235C228.34 169.921 228.391 169.298 228.04 168.945C227.688 168.593 227.14 168.548 226.75 168.897C226.75 168.897 226.75 168.897 226.73 168.914C226.504 169.124 226.38 169.475 226.468 169.787C226.705 170.605 227.752 170.824 228.249 170.104C228.507 169.745 228.397 169.222 228.12 168.895C227.946 168.691 227.674 168.535 227.439 168.383C226.521 167.756 225.561 167.164 224.58 166.608C222.619 165.477 220.568 164.51 218.467 163.691C218.005 163.52 217.464 163.856 217.333 164.302C217.178 164.803 217.484 165.246 217.943 165.436L217.925 165.434Z" fill="black"/>
<path d="M244.472 138.342C243.44 138.637 242.422 138.991 241.434 139.443C241.177 139.555 241.071 139.927 241.202 140.185C241.352 140.444 241.667 140.546 241.944 140.417C242.18 140.322 242.417 140.208 242.653 140.113C242.771 140.066 242.889 140.019 243.007 139.971C243.065 139.957 243.125 139.924 243.183 139.91C243.105 139.941 243.262 139.878 243.183 139.91C243.221 139.913 243.262 139.878 243.281 139.88C243.751 139.709 244.239 139.559 244.727 139.409C244.999 139.336 245.213 139.049 245.142 138.758C245.069 138.486 244.782 138.272 244.491 138.343L244.472 138.342Z" fill="black"/>
<path d="M245.318 140.028C244.088 140.193 242.901 140.514 241.743 140.952C241.625 140.999 241.517 141.161 241.47 141.272C241.44 141.402 241.445 141.574 241.513 141.675C241.68 141.955 241.96 142.016 242.254 141.907C242.352 141.877 242.217 141.904 242.273 141.908C242.311 141.911 242.352 141.877 242.391 141.861C242.451 141.828 242.528 141.815 242.586 141.801C242.723 141.755 242.86 141.709 242.997 141.663C243.271 141.572 243.562 141.5 243.853 141.429C244.416 141.285 244.996 141.181 245.573 141.095C245.861 141.061 246.061 140.716 245.988 140.444C245.899 140.132 245.644 139.998 245.337 140.029L245.318 140.028Z" fill="black"/>
<path d="M245.937 142.019C244.349 142.136 242.8 142.465 241.309 143.027C241.035 143.119 240.944 143.53 241.077 143.769C241.244 144.049 241.524 144.11 241.818 144.001C241.759 144.034 241.856 144.004 241.877 143.987C241.916 143.971 241.955 143.955 242.014 143.941C242.092 143.909 242.19 143.879 242.287 143.849C242.464 143.788 242.619 143.743 242.796 143.682C243.146 143.577 243.496 143.492 243.845 143.406C244.193 143.34 244.541 143.273 244.888 143.207C245.08 143.184 245.254 143.161 245.446 143.138C245.483 143.141 245.521 143.145 245.56 143.129C245.485 143.123 245.598 143.132 245.617 143.133C245.712 143.141 245.828 143.113 245.924 143.102C246.211 143.087 246.494 142.882 246.481 142.577C246.483 142.311 246.263 141.988 245.956 142.02L245.937 142.019Z" fill="black"/>
<path d="M245.167 143.971C243.534 144.408 241.928 144.98 240.384 145.709C240.126 145.84 240.021 146.193 240.152 146.451C240.301 146.729 240.617 146.812 240.894 146.683C242.338 146.003 243.849 145.442 245.403 145.037C245.694 144.965 245.87 144.676 245.818 144.386C245.745 144.114 245.458 143.9 245.167 143.971Z" fill="black"/>
<path d="M243.799 146.997C242.257 147.251 240.737 147.697 239.3 148.283C239.044 148.395 238.936 148.785 239.068 149.024C239.235 149.304 239.516 149.365 239.81 149.256C240.164 149.114 240.439 149.004 240.792 148.88C241.144 148.757 241.495 148.653 241.865 148.55C242.585 148.343 243.32 148.194 244.054 148.064C244.343 148.012 244.541 147.685 244.468 147.413C244.378 147.121 244.126 146.948 243.818 146.998L243.799 146.997Z" fill="black"/>
<path d="M243.031 149.863C241.279 149.89 239.555 150.263 237.922 150.927C237.647 151.038 237.559 151.411 237.69 151.669C237.839 151.947 238.157 152.012 238.432 151.901C239.848 151.333 241.455 150.989 242.997 150.963C243.284 150.949 243.548 150.742 243.554 150.438C243.577 150.155 243.315 149.867 243.029 149.882L243.031 149.863Z" fill="black"/>
<path d="M241.455 151.921C239.864 152.304 238.305 152.765 236.775 153.325C236.5 153.435 236.291 153.665 236.361 153.975C236.416 154.227 236.738 154.482 237.011 154.39C238.541 153.831 240.102 153.35 241.691 152.986C241.982 152.915 242.158 152.625 242.106 152.335C242.034 152.044 241.745 151.868 241.455 151.921Z" fill="black"/>
<path d="M240.697 153.951C239.162 154.338 237.647 154.727 236.113 155.115C235.841 155.188 235.627 155.475 235.698 155.766C235.771 156.038 236.058 156.252 236.349 156.18C237.883 155.793 239.398 155.404 240.933 155.016C241.205 154.943 241.419 154.656 241.347 154.365C241.275 154.093 240.988 153.879 240.697 153.951Z" fill="black"/>
<path d="M239.945 157.578C238.295 157.747 236.649 158.107 235.065 158.643C234.791 158.734 234.581 158.983 234.65 159.293C234.704 159.564 235.027 159.8 235.301 159.708C236.885 159.172 238.511 158.83 240.181 158.644C240.469 158.61 240.651 158.245 240.596 157.993C240.526 157.683 240.233 157.545 239.945 157.578Z" fill="black"/>
<path d="M238.303 160.183C236.773 160.285 235.27 160.523 233.791 160.935C233.519 161.007 233.305 161.294 233.377 161.585C233.449 161.858 233.736 162.071 234.027 162C235.409 161.619 236.874 161.378 238.251 161.281C238.538 161.267 238.821 161.062 238.808 160.757C238.81 160.49 238.588 160.187 238.283 160.2L238.303 160.183Z" fill="black"/>
<path d="M236.847 162.402C235.324 162.658 233.829 163.03 232.38 163.538C232.106 163.63 231.896 163.879 231.965 164.189C232.04 164.442 232.323 164.694 232.616 164.604C234.065 164.095 235.56 163.723 237.083 163.468C237.373 163.415 237.571 163.089 237.498 162.817C237.408 162.524 237.156 162.351 236.847 162.402Z" fill="black"/>
<path d="M235.45 164.361C234.02 164.871 232.525 165.243 231.024 165.462C230.736 165.496 230.536 165.84 230.609 166.113C230.698 166.424 230.953 166.559 231.26 166.527C232.761 166.308 234.256 165.936 235.686 165.426C235.96 165.334 236.17 165.085 236.101 164.775C236.027 164.522 235.743 164.271 235.45 164.361Z" fill="black"/>
<path d="M234.43 167.548C232.902 167.632 231.41 167.966 229.993 168.554C229.736 168.666 229.628 169.056 229.761 169.295C229.928 169.575 230.208 169.636 230.502 169.527C230.581 169.496 230.66 169.464 230.738 169.433C230.778 169.417 230.817 169.401 230.856 169.385C230.875 169.387 230.974 169.338 230.896 169.369C231.053 169.306 231.229 169.245 231.385 169.2C231.717 169.094 232.048 169.008 232.397 168.922C232.726 168.854 233.074 168.787 233.401 168.738C233.478 168.725 233.574 168.714 233.67 168.703C233.708 168.706 233.765 168.711 233.804 168.695C233.977 168.671 233.747 168.69 233.842 168.698C234.034 168.676 234.205 168.671 234.396 168.668C234.682 168.653 234.965 168.448 234.952 168.143C234.955 167.877 234.733 167.573 234.427 167.586L234.43 167.548Z" fill="black"/>
<path d="M233.453 169.731C232.03 169.919 230.649 170.3 229.327 170.876C229.071 170.989 228.963 171.379 229.095 171.618C229.244 171.897 229.543 171.959 229.837 171.85C229.994 171.787 230.152 171.724 230.309 171.661C230.348 171.645 230.388 171.629 230.427 171.613C230.427 171.613 230.564 171.567 230.506 171.582C230.466 171.598 230.603 171.552 230.584 171.55C230.622 171.553 230.644 171.517 230.682 171.52C231.014 171.414 231.346 171.308 231.676 171.221C232.337 171.047 233.014 170.913 233.688 170.816C233.976 170.782 234.175 170.437 234.102 170.165C234.014 169.853 233.759 169.718 233.452 169.75L233.453 169.731Z" fill="black"/>
<path d="M231.468 172.117C230.169 172.429 228.848 172.758 227.549 173.07C227.276 173.143 227.063 173.429 227.134 173.721C227.207 173.993 227.493 174.206 227.785 174.135C229.084 173.823 230.405 173.494 231.704 173.182C231.977 173.11 232.19 172.823 232.119 172.532C232.046 172.26 231.759 172.046 231.468 172.117Z" fill="black"/>
<path d="M230.451 174.297C229.013 174.445 227.606 174.672 226.19 175.012C225.918 175.085 225.704 175.372 225.775 175.663C225.846 175.954 226.135 176.149 226.426 176.078C227.822 175.755 229.249 175.511 230.687 175.362C230.975 175.329 231.158 174.963 231.102 174.712C231.014 174.4 230.758 174.265 230.451 174.297Z" fill="black"/>
<path d="M229.382 175.997C228.247 176.151 227.111 176.324 225.976 176.478C225.688 176.512 225.489 176.857 225.562 177.129C225.65 177.441 225.905 177.576 226.212 177.544L229.618 177.062C229.906 177.029 230.106 176.684 230.033 176.412C229.944 176.1 229.689 175.965 229.382 175.997Z" fill="black"/>
<path d="M228.647 177.743C228.144 177.854 227.623 177.945 227.124 177.999C227.067 177.994 227.009 178.008 226.951 178.023C226.913 178.02 226.894 178.018 226.856 178.015C226.762 178.007 226.8 178.01 226.856 178.015C226.723 178.023 226.608 178.033 226.474 178.041C226.206 178.057 225.958 178.074 225.69 178.09C225.403 178.105 225.12 178.31 225.133 178.615C225.129 178.9 225.353 179.185 225.658 179.172C226.765 179.13 227.859 179.01 228.924 178.774C229.195 178.72 229.412 178.396 229.339 178.123C229.268 177.832 228.978 177.656 228.688 177.709L228.647 177.743Z" fill="black"/>
<path d="M198.257 121.866C195.541 120.426 192.781 119.059 189.995 117.784C187.374 116.58 184.693 115.181 181.79 114.867C181.375 114.833 180.94 114.797 180.542 115.012C180.083 115.279 179.836 115.734 179.738 116.239C179.574 117.082 179.428 117.926 179.263 118.787C179.166 119.273 179.373 119.766 179.873 119.921C180.3 120.051 180.91 119.797 181.007 119.31C181.14 118.618 181.273 117.925 181.387 117.23C181.4 117.079 181.45 116.931 181.483 116.763C181.489 116.687 181.555 116.579 181.541 116.52C181.55 116.407 181.578 116.523 181.522 116.519C181.484 116.516 181.317 116.692 181.284 116.632L181.473 116.648C181.643 116.662 181.832 116.677 182.002 116.691C183.15 116.842 184.425 117.289 185.548 117.743C188.07 118.767 190.538 119.978 192.987 121.187C194.432 121.895 195.873 122.641 197.295 123.385C197.714 123.609 198.29 123.542 198.537 123.087C198.76 122.687 198.696 122.073 198.239 121.846L198.257 121.866Z" fill="black"/>
</g>
<path d="M263.823 91.7528C264.685 90.0781 265.543 88.43 266.39 86.7667C267.982 83.6467 269.593 80.5265 271.155 77.3914C272.584 74.524 273.987 71.6338 275.367 68.7324C275.683 68.071 275.896 67.3494 276.085 66.6355C276.208 66.1736 276.049 65.6677 275.609 65.4991C275.235 65.3528 274.686 65.3107 274.352 65.4881C273.702 65.8239 273.118 66.3154 272.557 66.7992C270.92 68.216 269.31 69.6555 267.68 71.0761C263.413 74.8079 259.142 78.5283 254.863 82.2449C254.647 82.433 254.377 82.5567 253.952 82.8224C253.871 82.0226 253.764 81.3716 253.752 80.72C253.711 77.9649 253.701 75.2058 253.664 72.443C253.647 71.5514 253.603 70.656 253.506 69.7725C253.461 69.304 253.154 68.8868 252.651 68.8862C252.319 68.8846 251.893 69.0359 251.681 69.2736C251.103 69.948 250.616 70.7058 250.095 71.437C248.576 73.5581 247.062 75.6906 245.532 77.7965C245.32 78.0913 245.017 78.3219 244.619 78.7246C244.356 78.0632 244.109 77.5427 243.934 76.9912C243.081 74.2071 242.248 71.4228 241.403 68.6423C241.27 68.2164 241.134 67.779 240.915 67.3955C240.425 66.5373 239.266 66.4228 238.657 67.1775C238.287 67.641 237.996 68.1726 237.722 68.6927C236.893 70.2796 236.103 71.8853 235.275 73.4722C235.046 73.9196 234.732 74.3256 234.355 74.9187C234.009 74.5018 233.748 74.2595 233.575 73.9748C232.408 72.0616 231.267 70.1329 230.097 68.2273C229.785 67.7225 229.457 67.2101 229.051 66.7821C228.368 66.0662 227.218 66.3175 226.874 67.2686C226.698 67.7423 226.614 68.2802 226.598 68.7948C226.502 71.6346 226.139 74.4381 225.509 77.2051C225.198 78.5905 224.737 79.9312 224.453 81.3202C224.276 82.1826 224.274 83.0935 224.283 83.9814C224.288 84.1833 224.625 84.4441 224.874 84.5569C225.019 84.6283 225.361 84.5118 225.46 84.3702C225.845 83.838 226.264 83.2941 226.512 82.6942C227.683 79.8512 228.369 76.8742 228.703 73.8194C228.79 73.0262 228.861 72.2445 229.099 71.2597C230.005 72.3133 230.545 73.2817 231.088 74.2423C231.566 75.0853 232.037 75.9436 232.575 76.7404C233.66 78.3569 235.021 78.371 236.089 76.7026C236.968 75.3211 237.682 73.8302 238.466 72.3922C238.778 71.8148 238.922 71.1164 239.717 70.7378C239.867 71.0684 240.048 71.3759 240.146 71.6993C240.769 73.7722 241.362 75.8492 241.992 77.926C242.234 78.7095 242.471 79.5007 242.823 80.2339C243.549 81.7499 244.865 81.9319 246.061 80.7161C246.58 80.1831 247.041 79.5932 247.479 78.9921C248.613 77.4222 249.719 75.8297 250.848 74.2485C250.92 74.1413 251.084 74.0984 251.209 74.0175C251.735 74.1056 251.651 74.5482 251.656 74.8836C251.667 77.0443 251.639 79.2054 251.645 81.3738C251.65 82.1931 251.682 83.0161 251.745 83.8351C251.774 84.2007 251.833 84.5815 251.969 84.9236C252.298 85.798 253.128 86.1966 253.96 85.7987C254.621 85.4782 255.251 85.0473 255.812 84.5635C260.814 80.2058 265.794 75.8177 270.788 71.4372C270.951 71.2989 271.157 71.21 271.328 71.1136C271.779 71.3736 271.51 71.6688 271.397 71.8982C268.365 78.0611 265.368 84.2314 261.884 90.1533C261.432 90.9184 261.007 91.7252 260.692 92.5581C260.175 93.9181 260.906 94.9995 262.339 95.0018C263.07 95.0009 263.824 94.8969 264.536 94.7056C266.476 94.1786 268.397 93.5755 270.337 93.0105C270.759 92.8858 271.189 92.822 271.916 92.6573C270.685 94.4259 269.198 95.5369 267.941 96.856C266.651 98.2057 265.367 99.5593 264.088 100.905C262.85 102.205 261.608 103.494 260.401 104.809C259.163 106.147 257.65 107.235 256.627 108.812C257.354 109.169 257.778 108.789 258.169 108.478C259.56 107.348 260.951 106.219 262.285 105.033C263.346 104.092 264.33 103.076 265.349 102.086C268.838 98.7214 272.322 95.3453 275.803 91.9768C276.178 91.6199 276.545 91.2403 276.847 90.8191C277.115 90.4477 277.257 89.9476 276.904 89.584C276.677 89.3492 276.265 89.1651 275.937 89.1748C275.354 89.2014 274.761 89.3653 274.19 89.5214C271.242 90.3217 268.29 91.1486 265.341 91.9489C264.934 92.062 264.513 92.3391 263.835 91.749L263.823 91.7528Z" fill="white"/>
<defs>
<linearGradient id="paint0_linear_69_1633" x1="148" y1="15.1653" x2="148" y2="221.551" gradientUnits="userSpaceOnUse">
<stop stop-color="#B152F2"/>
<stop offset="1" stop-color="#8427C4"/>
</linearGradient>
</defs>
</svg>
