<svg width="24" height="30" viewBox="0 0 24 30" fill="none" xmlns="http://www.w3.org/2000/svg">
<path d="M3.61969 28.5524C1.99329 30.0838 -0.594151 28.3352 0.122911 26.259C0.626438 24.7531 1.4357 23.6522 2.24497 22.5514C6.8229 16.2651 11.4579 10.0491 16.187 3.92011C17.2906 2.46342 18.8775 1.31427 20.3773 0.259128C20.8896 -0.0870207 21.9957 -0.0755223 22.5695 0.22851C23.1265 0.569443 23.7283 1.59746 23.5683 2.14747C22.969 4.45469 22.5208 6.91915 21.2906 8.85205C19.4656 11.805 17.2311 14.4838 14.9026 17.0756C11.286 21.0406 7.49812 24.7947 3.6733 28.5322L3.61969 28.5524Z" fill="white"/>
</svg>
