<svg width="18" height="6" viewBox="0 0 18 6" fill="none" xmlns="http://www.w3.org/2000/svg">
<path d="M1.09333 0.0104658C-0.0225406 -0.0271257 -0.416048 1.48329 0.538495 2.02554C1.22465 2.42433 1.89178 2.57021 2.55891 2.71607C6.3522 3.56328 10.1437 4.36525 13.9418 5.10355C14.8368 5.28574 15.8117 5.19298 16.7228 5.09368C17.0293 5.05443 17.4406 4.68488 17.5555 4.38137C17.6519 4.06953 17.5383 3.4851 17.2967 3.33154C16.31 2.66371 15.3281 1.88699 14.2284 1.56791C12.5686 1.06249 10.8457 0.795125 9.11626 0.591437C6.4501 0.297802 3.78928 0.139858 1.12013 0.000362413L1.09333 0.0104658Z" fill="white"/>
</svg>
