<svg width="327" height="110" viewBox="0 0 327 110" fill="none" xmlns="http://www.w3.org/2000/svg">
<path d="M40.7828 57.6716C39.9655 48.3664 39.5569 43.7138 41.3773 40.137C42.4454 38.0382 44.0565 36.2133 46.0067 34.8933C49.3303 32.6435 53.967 32.4734 63.2405 32.1332C88.2043 31.2172 128.288 30 165.009 30C207.259 30 243.052 31.9836 264.417 33.5179C271.57 34.0316 275.147 34.2884 277.973 35.9508C280.503 37.4393 282.603 39.8284 283.753 42.5291C285.039 45.5452 284.829 49.2131 284.408 56.5489C283.973 64.1569 283.755 67.961 282.16 70.7905C280.694 73.3929 278.483 75.4218 275.764 76.6595C272.808 78.0052 268.978 77.8952 261.318 77.6753C237.823 77.0008 199.171 76.1637 164.597 76.6733C135.526 77.1018 91.539 78.421 65.128 79.2638C56.537 79.5379 52.2414 79.675 48.944 77.9172C46.9889 76.875 45.3166 75.3915 44.0488 73.5746C41.9104 70.5102 41.5345 66.2307 40.7828 57.6716Z" fill="#FFD200"/>
<path d="M310.16 19.8953C309.581 21.5647 308.651 23.068 307.62 24.4988C305.171 27.8676 302.163 30.6268 298.52 32.6536C297.881 33.0171 297.202 33.2943 296.523 33.5715C296.104 33.7307 295.632 33.7416 295.29 33.4134C294.86 33 294.95 32.475 295.19 31.9963C295.417 31.5303 295.658 31.0765 295.923 30.647C297.675 27.8547 299.364 25.0016 301.229 22.2939C302.512 20.4213 304.01 18.7057 305.445 16.9542C306.065 16.2052 306.852 15.6889 307.765 15.3191C309.271 14.7363 310.628 15.5515 310.75 17.4786C310.612 18.0795 310.455 19.0294 310.135 19.9208L310.16 19.8953ZM306.023 19.3687C304.735 20.9674 303.509 22.602 302.321 24.2731C300.771 26.5005 299.283 28.7637 297.795 31.0269C297.686 31.1913 297.653 31.4038 297.569 31.5925C297.756 31.6006 297.919 31.684 298.004 31.6197C302.13 28.8097 305.523 25.3444 307.765 20.8225C308.185 19.9785 308.454 19.0633 308.736 18.1603C308.748 18.1476 308.748 18.1227 308.747 18.0978C308.814 17.648 308.311 17.3609 307.93 17.5814C307.143 18.0479 306.558 18.7089 306.023 19.3687Z" fill="white"/>
<path d="M295.277 43.4515C297.083 42.8614 298.876 42.2342 300.695 41.6563C304.06 40.5816 307.481 39.8797 311.03 40.0104C312.213 40.0456 313.373 40.231 314.393 40.8436C315.563 41.5526 315.748 42.8079 314.871 43.8256C314.59 44.1438 314.235 44.4387 313.866 44.6717C313.374 44.9822 312.856 45.2684 312.3 45.4682C306.491 47.6215 300.672 47.1688 294.868 45.531C294.017 45.2761 293.908 44.0939 294.697 43.6768C294.845 43.5986 295.018 43.5447 295.29 43.4637L295.277 43.4515ZM298.083 45.0957C302.376 45.7954 306.644 45.7849 310.823 44.3423C311.578 44.0881 312.28 43.6854 312.969 43.2706C312.981 43.2578 312.993 43.2451 313.006 43.2323C313.312 42.9884 313.228 42.4915 312.852 42.3504C311.824 41.9251 311.101 41.8419 309.808 41.9214C307.472 42.0747 305.164 42.4268 302.911 43.077C301.24 43.5518 299.583 44.1135 297.714 44.6926C297.994 45.0104 298.02 45.0846 298.058 45.0962L298.083 45.0957Z" fill="white"/>
<path d="M284.26 27.2854C284.046 25.1701 283.796 23.0683 283.682 20.9508C283.552 18.6217 283.509 16.2781 283.454 13.9472C283.418 12.6885 283.694 11.46 284.221 10.3255C285.023 8.57367 286.973 8.41672 288.073 9.98784C288.239 10.221 288.393 10.4918 288.46 10.7771C288.757 12.0424 289.167 13.3175 289.253 14.625C289.469 17.5757 288.962 20.4681 288.156 23.2926C287.7 24.9118 287.095 26.4846 286.489 28.0574C286.417 28.2336 286.346 28.4098 286.262 28.5739C285.818 29.4446 284.532 29.2371 284.377 28.2804C284.322 27.9574 284.316 27.6332 284.272 27.2975L284.26 27.2854ZM286.372 25.1044C287.322 21.9274 287.859 18.6726 287.699 15.359C287.655 14.3374 287.462 13.3192 287.232 12.3392C287.206 12.265 287.205 12.1902 287.178 12.1159C286.964 11.2728 285.721 11.3761 285.638 12.251C285.503 13.7132 285.293 15.1772 285.333 16.6354C285.421 19.4144 285.659 22.19 285.847 24.9667C285.861 25.0288 285.874 25.0909 285.888 25.1529C285.979 25.3628 286.302 25.3554 286.373 25.1293L286.372 25.1044Z" fill="white"/>
<path d="M12.0188 90.0041C13.7821 90.1164 15.5281 89.8408 17.2463 89.4442C21.3007 88.4891 25.0088 86.7835 28.2874 84.2092C28.8701 83.76 29.3884 83.2415 29.9066 82.7231C30.2158 82.3976 30.4086 81.9665 30.2381 81.5246C30.0234 80.968 29.5045 80.8477 28.9703 80.8836C28.4525 80.9133 27.941 80.9593 27.4422 81.0381C24.1896 81.5727 20.9053 82.0254 17.6868 82.6972C15.4634 83.1562 13.3018 83.8733 11.1314 84.5186C10.2007 84.8007 9.4204 85.3258 8.72603 86.0247C7.60589 87.1877 7.83231 88.7547 9.56203 89.6129C10.1696 89.718 11.1062 89.941 12.0518 89.9914L12.0188 90.0041ZM13.134 85.9863C15.1068 85.4168 17.0884 84.9191 19.089 84.4706C21.7429 83.9027 24.4056 83.4067 27.0683 82.9107C27.262 82.8739 27.4708 82.9253 27.6772 82.9212C27.6124 83.0964 27.6262 83.2791 27.5337 83.3334C23.3461 86.0499 18.8378 87.8372 13.8004 88.1548C12.8598 88.2153 11.9117 88.1094 10.9699 88.0199C10.9535 88.0262 10.9307 88.0162 10.9079 88.0061C10.4675 87.8933 10.3972 87.3189 10.7481 87.0527C11.4828 86.5075 12.3185 86.2242 13.134 85.9863Z" fill="white"/>
<path d="M39.4988 85.3976C38.2558 86.8344 36.9837 88.2448 35.747 89.698C33.4538 92.3848 31.4825 95.268 30.2295 98.5909C29.8043 99.6952 29.526 100.837 29.6965 102.014C29.8973 103.368 30.9832 104.024 32.2611 103.609C32.663 103.473 33.0725 103.26 33.4301 103.01C33.9069 102.676 34.371 102.31 34.7705 101.874C39.0041 97.3515 40.8388 91.8102 41.5748 85.8247C41.6691 84.9415 40.6211 84.3835 39.9312 84.9494C39.8019 85.0555 39.6852 85.1943 39.5051 85.414L39.4988 85.3976ZM39.9292 88.6206C38.9128 92.8503 37.2514 96.7816 34.3038 100.077C33.7775 100.674 33.1345 101.166 32.4853 101.641C32.4688 101.647 32.4523 101.653 32.4358 101.66C32.0922 101.848 31.6665 101.578 31.6819 101.177C31.6876 100.064 31.8908 99.3652 32.4644 98.2041C33.51 96.1089 34.728 94.117 36.1993 92.2914C37.2838 90.9342 38.4431 89.6236 39.7001 88.125C39.8849 88.5058 39.9432 88.5587 39.9394 88.5978L39.9292 88.6206Z" fill="white"/>
<path d="M28.8564 68.9821C26.9885 67.9669 25.1472 66.9227 23.2387 65.9984C21.1414 64.9772 18.9971 64.0304 16.8693 63.0773C15.7224 62.5573 14.4829 62.3364 13.233 62.383C11.3074 62.4441 10.4078 64.1821 11.4311 65.8037C11.5818 66.047 11.7718 66.2941 12.0088 66.4667C13.0605 67.2303 14.0778 68.1012 15.25 68.6868C17.8872 70.028 20.7503 70.6801 23.6669 71.0295C25.3362 71.2361 27.0209 71.2863 28.7055 71.3364C28.8956 71.3388 29.0858 71.3411 29.2696 71.327C30.2444 71.2542 30.5506 69.9886 29.7282 69.4758C29.452 69.2995 29.1554 69.1685 28.8627 68.9984L28.8564 68.9821ZM26.0277 70.0861C22.7309 69.7321 19.5217 68.968 16.5284 67.5375C15.6033 67.1019 14.7392 66.5299 13.9244 65.9389C13.8661 65.886 13.7977 65.8557 13.7394 65.8028C13.045 65.2786 13.6212 64.1729 14.4602 64.4345C15.8606 64.8761 17.2915 65.2495 18.6209 65.8501C21.1492 67.0072 23.6164 68.3006 26.1041 69.5486C26.156 69.5851 26.208 69.6216 26.2599 69.6582C26.4183 69.8233 26.2863 70.1186 26.0505 70.0961L26.0277 70.0861Z" fill="white"/>
</svg>
