<svg width="127" height="136" viewBox="0 0 127 136" fill="none" xmlns="http://www.w3.org/2000/svg">
<path d="M36.8084 20.6702C37.5357 12.5106 50.3093 12.5787 49.6501 20.8747C48.3091 38.194 46.9681 45.649 45.6498 62.9456C44.9907 71.3325 44.3543 79.7421 43.6952 88.129C43.3088 93.0612 40.4677 104.085 43.3997 109.221C58.1734 111.04 72.788 112.949 87.5162 114.153C92.4938 114.04 97.4714 113.926 102.449 113.812C104.154 102.107 105.426 90.3336 106.29 78.5374C106.904 70.3324 119.746 70.4688 119.132 78.7421C118.2 91.1519 116.791 103.494 115.018 115.813C120.95 117.949 120.064 128.291 112.609 128.245C102.813 128.2 93.0165 128.154 83.2204 128.132C81.8794 128.132 80.7657 127.745 79.8793 127.177C64.3101 127.518 48.741 127.882 33.1718 128.223C29.8761 128.291 26.535 125.063 26.8532 121.699C30.1716 84.7425 33.4673 57.6499 36.7857 20.693L36.8084 20.6702Z" fill="#C10230"/>
<path d="M104.926 116.54C107.153 119.063 109.812 120.881 112.335 123.109C114.313 124.859 116.631 127.541 116.017 130.382C115.813 131.359 114.267 131.337 113.904 130.496C113.313 129.109 113.131 127.814 112.131 126.586C111.085 125.291 109.79 124.2 108.54 123.086C106.744 121.495 104.335 119.518 104.108 116.927C104.062 116.495 104.562 116.177 104.88 116.54H104.926Z" fill="white"/>
<path d="M41.7619 113.381C39.5118 113.926 37.398 117.245 35.9206 118.859C34.2387 120.654 32.3977 122.541 29.9884 123.245C28.0792 123.813 27.1019 120.768 28.8747 119.972C33.5113 117.859 36.2388 112.494 41.671 112.222C42.3528 112.176 42.3528 113.245 41.7392 113.381H41.7619Z" fill="white"/>
<path d="M37.9683 2.78303C40.7412 3.7149 43.2413 5.03316 45.4915 6.89692C47.3325 8.44247 49.8554 10.329 50.4918 12.7155C50.81 13.8974 49.2645 14.852 48.3099 14.1474C46.5143 12.8064 45.2642 10.5334 43.6504 8.94242C41.7412 7.05594 39.7638 5.12405 37.5364 3.60123C37.1046 3.30575 37.4455 2.60118 37.9683 2.76028V2.78303Z" fill="white"/>
<path d="M124.452 9.82872C122.133 11.647 119.633 13.2607 117.179 14.8972C115.269 16.1927 112.928 18.443 110.564 18.4202C109.883 18.4202 109.246 17.5337 109.564 16.8973C110.633 14.7608 113.542 13.6244 115.519 12.3743C117.997 10.806 120.542 9.12418 123.27 8.0332C124.338 7.60135 125.475 9.01048 124.452 9.82872Z" fill="white"/>
<path d="M61.6066 135.496C59.811 133.973 57.97 132.518 55.9699 131.291C54.8562 130.609 53.7197 129.927 52.4924 129.404C51.5605 128.995 50.674 128.791 49.9694 128.018C49.3103 127.291 49.8331 126.336 50.6513 126.063C52.7878 125.381 55.9016 127.95 57.4245 129.154C59.3791 130.677 61.4929 132.405 62.5612 134.655C62.8339 135.2 62.1294 135.928 61.6066 135.473V135.496Z" fill="white"/>
<path d="M75.1969 135.473C72.8559 134.337 70.4921 133.2 68.1283 132.041C66.1737 131.064 63.8099 130.245 62.4234 128.495C61.7415 127.654 62.5825 126.586 63.5598 126.836C65.8327 127.404 67.9692 129.154 69.992 130.336C72.0831 131.564 74.0378 132.882 75.8333 134.518C76.2424 134.905 75.7197 135.677 75.1969 135.427V135.473Z" fill="white"/>
<path d="M50.514 135.2C48.082 134.678 45.7182 132.496 43.6272 131.2C40.9906 129.541 38.0586 128.495 35.4448 126.904C34.3311 126.222 35.013 124.404 36.2858 124.518C39.3087 124.813 42.2862 127.177 44.6727 128.882C46.741 130.359 49.8093 132.268 51.0367 134.609C51.2185 134.973 50.8549 135.269 50.514 135.2Z" fill="white"/>
<path d="M126.337 8.46513C127.496 12.829 126.814 17.852 126.564 22.3296C126.269 27.3299 125.928 32.3302 125.587 37.3305C124.905 47.5584 124.133 57.7863 123.382 68.0142C122.632 78.0149 121.905 88.0155 121.155 98.0162C120.405 108.221 120.041 118.54 118.428 128.655C118.109 130.609 115.041 130.382 115.336 128.427C115.405 128.018 115.473 127.632 115.518 127.223C115.814 125.382 118.382 125.563 118.405 127.427C118.405 127.836 118.405 128.245 118.405 128.632C118.405 130.632 115.336 130.382 115.314 128.404C115.223 118.381 116.382 108.358 117.132 98.3799C117.905 88.152 118.678 77.9241 119.45 67.6962C120.2 57.6955 120.951 47.6949 121.769 37.6942C122.178 32.6939 122.564 27.6935 123.019 22.7159C123.451 18.0566 123.496 12.7153 125.36 8.37412C125.542 7.91955 126.155 7.96507 126.292 8.44238L126.337 8.46513Z" fill="white"/>
<path d="M38.0587 0.896305C38.7406 5.76025 38.2633 10.6469 37.9451 15.5109C37.6269 20.7157 37.2405 25.8978 36.8541 31.1027C36.1041 41.4216 35.354 51.7404 34.6267 62.0592C33.8766 72.3781 33.1039 82.697 32.3311 92.9931C31.5584 103.357 31.422 114.017 29.6946 124.245C29.3537 126.268 26.1262 126.063 26.4671 123.995C26.5353 123.609 26.6035 123.2 26.6716 122.813C26.9898 120.904 29.6264 121.086 29.6718 123.04C29.6718 123.45 29.6718 123.836 29.6718 124.245C29.7173 126.313 26.4899 126.063 26.4444 123.995C26.2626 113.608 27.7172 103.062 28.49 92.6976C29.2628 82.3788 30.0355 72.0599 30.831 61.7637C31.6265 51.4449 32.422 41.1261 33.2175 30.83C33.6039 25.8524 33.9676 20.8976 34.3995 15.9427C34.8313 10.8515 35.0813 5.71482 36.536 0.782689C36.7405 0.0553699 37.9224 0.146257 38.0133 0.896305H38.0587Z" fill="white"/>
<path d="M116.382 130.473C116.814 130.132 117.178 129.882 117.723 129.768C119.292 129.45 119.769 131.882 118.201 132.2C115.201 132.814 111.609 132.155 108.586 131.95C104.927 131.7 101.268 131.427 97.6085 131.155C89.8353 130.586 82.062 130.041 74.2888 129.473C66.7429 128.927 59.197 128.359 51.651 127.791C44.2869 127.245 36.6046 127.291 29.3996 125.654C28.1268 125.359 28.3086 123.177 29.5814 123.086C36.7409 122.54 44.0824 123.677 51.2192 124.222C58.9924 124.813 66.7656 125.381 74.5388 125.972C82.0847 126.563 89.6307 127.132 97.1539 127.723C100.813 127.995 104.473 128.268 108.132 128.564C111.337 128.814 115.314 128.7 118.36 129.814C119.86 130.359 119.019 132.677 117.519 132.132C116.996 131.95 116.678 131.632 116.291 131.223C116.087 131.018 116.132 130.632 116.36 130.45L116.382 130.473Z" fill="white"/>
<path d="M105.676 117.676C94.9258 118.29 83.9706 117.085 73.2426 116.381C62.4465 115.676 51.673 114.835 40.8769 114.04C38.6495 113.881 38.8995 110.403 41.1269 110.585C51.9004 111.426 62.6965 112.199 73.4699 113.085C84.1979 113.972 95.2213 114.403 105.745 116.631C106.404 116.767 106.358 117.654 105.676 117.676Z" fill="white"/>
<path d="M49.5145 13.7836C50.3782 21.5113 49.2418 29.5573 48.6736 37.2851C48.0826 45.4902 47.4917 53.6953 46.9008 61.9003C46.3325 69.8781 45.7643 77.8558 45.1961 85.8336C44.6052 94.1978 44.4688 102.835 43.0368 111.108C42.6959 112.994 40.1048 112.813 40.0594 110.881C39.8548 102.721 40.9913 94.4023 41.6277 86.2427C42.2641 78.0376 42.9005 69.8326 43.5369 61.6502C44.1506 53.6724 44.787 45.6948 45.4006 37.7397C46.0143 29.8074 46.0825 21.4205 48.1281 13.6927C48.3099 13.0336 49.4236 13.1017 49.4918 13.8063L49.5145 13.7836Z" fill="white"/>
<path d="M112.359 17.6473C113.472 21.2384 112.859 25.5115 112.631 29.2163C112.404 33.2847 112.109 37.3304 111.79 41.3761C111.177 49.8084 110.54 58.2408 109.904 66.6732C108.677 83.1515 108.154 99.8798 105.972 116.267C105.699 118.245 102.858 118.04 102.881 116.04C103.153 99.5161 105.131 82.9015 106.358 66.4004C106.972 58.1726 107.585 49.9675 108.222 41.7397C108.54 37.4667 108.881 33.1938 109.267 28.9435C109.608 25.2615 109.631 20.9203 111.268 17.5564C111.518 17.0337 112.177 17.0791 112.359 17.6473Z" fill="white"/>
<path d="M125.452 8.21484C111.042 8.4194 96.5414 6.82844 82.1769 5.8511C67.8805 4.87377 53.1068 4.76015 38.9923 2.32818C37.5149 2.07816 37.674 0.0552845 39.1741 0.0325558C53.5159 -0.285646 68.1305 1.80535 82.4042 2.96451C96.746 4.12367 111.338 4.71473 125.566 7.05579C126.316 7.16943 126.248 8.21484 125.475 8.21484H125.452Z" fill="white"/>
<path d="M110.859 18.6247C100.836 18.7838 90.8577 18.0565 80.8571 17.4655C71.0155 16.8746 60.6285 16.8746 50.9461 15.079C49.1505 14.7381 49.3323 12.3289 51.1506 12.2607C56.1282 12.0789 61.174 12.7608 66.1288 13.1472C71.1064 13.5335 76.1067 13.8971 81.0843 14.3289C91.0622 15.2381 101.04 15.9882 110.927 17.6474C111.564 17.761 111.495 18.6247 110.859 18.6247Z" fill="white"/>
<mask id="mask0_8_808" style="mask-type:luminance" maskUnits="userSpaceOnUse" x="0" y="6" width="111" height="115">
<path d="M5.53511 112.222C4.94416 120.449 37.469 112.404 36.0825 120.54C46.2195 121.313 63.3797 112.222 73.4939 113.063C83.2446 113.881 93.268 114.313 102.928 116.063C102.928 116.063 102.928 116.04 102.928 116.017C103.2 99.4937 105.178 82.8789 106.405 66.3779C107.019 58.1501 107.633 49.9451 108.269 41.7173C108.587 37.4443 108.928 33.1713 109.314 28.921C109.61 25.6026 109.678 21.7841 110.883 18.5793C100.859 18.7384 90.9042 18.0112 80.9035 17.4203C71.062 16.8293 60.675 16.8292 50.9925 15.0337C50.4016 14.92 50.0379 14.5792 49.8561 14.1701C49.7652 14.2156 13.6493 6.05581 13.5583 6.07854C14.3084 13.6472 6.98978 18.8748 6.98978 18.8748C6.98978 18.8748 0.625679 72.651 0.0347324 80.8561C-0.533485 88.8338 6.10333 104.199 5.53511 112.176V112.222Z" fill="white"/>
</mask>
<g mask="url(#mask0_8_808)">
<path d="M6.98925 75.8106C7.96658 75.606 8.96664 75.4015 9.9667 75.2424C9.3303 73.9923 8.78476 72.6967 8.21655 71.4012C7.7847 70.4239 8.12561 69.9693 9.19386 69.9693C9.58025 69.9693 9.98941 70.0147 10.3758 70.0374C10.7849 70.0374 11.1941 70.0374 11.6032 70.0374C12.4669 70.0374 13.3305 70.0375 14.1942 69.9693C16.2625 69.8102 18.3308 69.5374 20.3764 69.2647C25.6949 68.5601 31.0134 67.6964 36.332 67.1054C45.0143 66.1508 53.5831 64.6734 62.1291 62.946C67.1294 61.9232 72.107 60.605 76.9937 59.1504C81.7894 57.7185 86.5397 56.0138 90.9491 53.5818C91.7446 53.15 92.5401 52.6954 93.3356 52.2635C93.9947 51.8999 94.4948 52.0363 95.0857 52.6045C98.2905 55.7183 101.472 58.8322 104.768 61.8324C108.064 64.8325 111.496 67.719 115.246 70.151C117.064 71.3329 118.928 72.4694 120.769 73.6513C121.951 74.4241 122.019 75.0377 120.928 75.8559C120.769 75.9696 120.61 76.106 120.428 76.2197C120.906 76.6288 121.383 77.0151 121.724 77.5378C122.156 78.197 122.292 78.9698 122.201 79.7426C121.837 83.4701 121.428 87.2203 120.996 90.9478C120.815 92.5843 120.61 92.7434 118.951 93.1071C91.1309 99.2211 63.311 105.312 35.491 111.449C34.4455 111.676 33.6272 111.517 32.7863 110.904C23.8084 104.54 14.8534 98.1528 5.85281 91.8115C5.08003 91.266 4.85269 90.6524 4.94361 89.7433C5.14816 87.675 5.26181 85.6065 5.44364 83.5155C5.62547 81.4017 5.83003 79.2653 6.01186 77.1515C6.05732 76.4924 6.23918 75.9242 6.96649 75.7878L6.98925 75.8106Z" fill="#C5D69D"/>
<path d="M6.05678 77.1964C5.87495 79.3102 5.6704 81.4467 5.48857 83.5604C5.30674 85.6288 5.19309 87.7198 4.98853 89.7881C4.89762 90.6745 5.12489 91.311 5.89767 91.8565C14.8982 98.1978 23.8534 104.562 32.8312 110.949C33.6722 111.539 34.4904 111.721 35.5359 111.494C63.3559 105.357 91.1758 99.2661 118.996 93.152C120.655 92.7884 120.86 92.6292 121.041 90.9928C121.473 87.2653 121.86 83.5378 122.246 79.7875C122.314 79.0148 122.178 78.2419 121.769 77.5828C121.428 77.06 120.95 76.6736 120.473 76.2645C120.632 76.1508 120.791 76.0373 120.973 75.9009C122.087 75.0826 122.019 74.4689 120.814 73.6961C118.973 72.5142 117.109 71.3778 115.291 70.1959C111.541 67.7412 108.131 64.8775 104.813 61.8773C101.517 58.8771 98.3126 55.7633 95.1306 52.6494C94.5624 52.0812 94.0623 51.9675 93.3805 52.3085C92.585 52.7403 91.7895 53.1949 90.994 53.6268C86.5619 56.0587 81.8343 57.7634 77.0385 59.1953C72.1291 60.65 67.1743 61.9909 62.174 62.991C53.628 64.7184 45.0593 66.1958 36.3769 67.1504C31.0356 67.7413 25.7398 68.5822 20.4213 69.3095C18.353 69.5822 16.3074 69.855 14.2391 70.0141C13.3754 70.0823 12.5117 70.0823 11.648 70.0823C11.2389 70.0823 10.8298 70.0823 10.4207 70.0823C10.0343 70.0823 9.62518 69.9913 9.23879 70.0141C8.17054 70.0141 7.82963 70.4687 8.26147 71.446C8.82969 72.7415 9.37515 74.0371 10.0116 75.2872C9.01149 75.4463 8.03417 75.6281 7.0341 75.8554C6.30678 76.0145 6.14765 76.5601 6.07947 77.2192L6.05678 77.1964ZM7.01135 83.3786C7.01135 83.3786 7.10226 83.4241 7.14772 83.4696C9.80698 85.3106 12.489 87.1516 15.171 88.9699C20.9895 92.9474 27.8536 97.6068 33.6722 101.584C33.8085 101.675 33.9676 101.789 34.1267 101.88L34.0131 102.971C33.4676 102.607 32.6266 102.016 32.3994 101.857C24.2625 96.243 16.1256 90.6291 7.96599 85.0379C7.64779 84.8106 7.28408 84.6515 6.92042 84.4697C6.94315 84.106 6.98862 83.765 7.01135 83.4013V83.3786ZM35.5132 100.175C35.5132 100.175 35.5586 100.175 35.5814 100.175C37.877 99.7206 41.0363 99.016 43.3319 98.5387C51.8324 96.7204 60.4239 94.9021 69.0608 93.0838C69.0381 93.3565 68.9926 93.6292 68.9699 93.902V93.993C58.3783 96.2659 47.8094 98.5387 37.2406 100.812C36.9451 100.88 36.1268 101.039 35.4222 101.175L35.5132 100.198V100.175ZM68.8335 95.0157L68.7425 95.9704C58.151 98.3114 47.5821 100.652 36.9905 102.971C36.7405 103.039 35.8541 103.221 35.1723 103.357C35.1723 103.289 35.1723 103.244 35.1723 103.175L35.2631 102.244C39.1497 101.403 44.3546 100.289 48.1958 99.4705C55.0144 97.9932 61.9012 96.5158 68.8107 95.0157H68.8335ZM68.538 98.0841C58.0373 100.402 47.5594 102.721 37.0587 105.016C36.7632 105.085 35.7178 105.266 34.9677 105.403C35.0132 105.062 35.0359 104.721 35.0813 104.403C36.7633 104.039 39.4907 103.425 40.9908 103.107C50.0823 101.084 59.3328 99.0386 68.6516 96.9931L68.538 98.0841ZM33.8085 104.948C33.263 104.63 32.4675 104.153 32.263 104.016C23.967 98.2887 15.671 92.5383 7.35227 86.8334C7.17044 86.697 6.9659 86.5152 6.73862 86.3788C6.76135 86.0606 6.80682 85.7197 6.82955 85.4015C7.2614 85.7197 7.71596 86.0152 8.17054 86.3334C16.3074 91.9474 25.3989 98.2204 33.5358 103.834C33.6494 103.903 33.7631 103.994 33.8767 104.062C33.854 104.38 33.8085 104.653 33.7858 104.948H33.8085ZM7.23865 80.7649C7.3523 80.833 7.46593 80.9239 7.57957 80.9921C16.0347 86.947 25.4898 93.5839 33.9449 99.5388C34.0585 99.6297 34.1949 99.6978 34.3313 99.766L34.2404 100.743C33.6267 100.334 32.6494 99.6979 32.3312 99.4933C24.1716 93.902 16.0119 88.3108 7.8523 82.7422C7.60229 82.5831 7.37503 82.3332 7.10229 82.1968C7.14774 81.7195 7.19319 81.2194 7.23865 80.7421V80.7649ZM35.7632 97.6978C35.9677 97.6751 36.195 97.6295 36.3996 97.584C37.0132 97.4704 37.627 97.3341 38.2407 97.2204C39.5362 96.9477 40.8544 96.675 42.1499 96.4022C51.196 94.4703 60.2193 92.5384 69.2653 90.5837C69.2653 90.6973 69.2653 90.8109 69.2653 90.9473C69.2426 91.2882 69.2199 91.6292 69.1744 91.9929C58.651 94.243 48.1276 96.4703 37.6042 98.7205C37.2178 98.8114 36.3541 98.9706 35.6495 99.107L35.7177 98.516L35.8087 97.7204L35.7632 97.6978ZM68.2879 100.425C57.0827 102.903 45.9229 105.38 35.0586 107.789C34.9449 107.812 34.8313 107.835 34.7177 107.857L34.8313 106.744C34.8313 106.744 34.8313 106.585 34.854 106.494C35.5586 106.335 36.5814 106.153 36.8314 106.107C47.1957 103.812 57.7873 101.493 68.4016 99.1523L68.2653 100.448L68.2879 100.425ZM33.5585 107.289C25.2398 101.493 15.5574 94.8111 7.2614 89.038C7.03412 88.8789 6.80681 88.6516 6.53407 88.4925C6.5568 88.1516 6.60227 87.8334 6.625 87.4925C7.37505 88.038 8.1251 88.538 8.89787 89.0608C16.7393 94.4702 24.6034 99.8797 32.4448 105.289C32.6039 105.403 33.2403 105.857 33.6722 106.153L33.5585 107.266V107.289ZM7.46595 78.2419C8.12509 78.6964 8.76146 79.2193 9.28422 79.5829C9.92063 80.0375 10.557 80.5148 11.1934 80.9693C13.6936 82.7876 16.2165 84.6287 18.7166 86.447C21.2168 88.2653 23.7169 90.1063 26.2398 91.9246C27.4899 92.8337 28.74 93.7429 29.9901 94.6748C31.2175 95.5612 32.4675 96.3567 33.7176 97.1977C33.9676 97.3795 34.2404 97.5386 34.5359 97.6295L34.4222 98.6296C33.8994 98.2887 33.0585 97.7204 32.8312 97.5613C24.5807 91.7655 16.3301 85.947 8.0796 80.1511C7.82959 79.9693 7.57958 79.8329 7.30684 79.6965C7.30684 79.6056 7.30684 79.5147 7.30684 79.4466C7.32956 79.1738 7.30681 79.4465 7.42045 78.2419H7.46595ZM8.28415 77.0373C9.14784 76.8328 9.19332 76.8328 10.648 76.5146C11.648 78.2647 12.8526 79.8785 14.1709 81.3558C10.7843 78.8784 8.42053 77.151 8.28415 77.0373ZM44.2182 67.5595C44.5137 67.8549 44.8092 68.1277 45.1275 68.4004C45.5138 68.7414 45.9002 69.0823 46.2866 69.4232C39.718 70.3551 32.5585 71.5143 26.0126 72.378C22.3078 72.878 18.5575 73.1961 14.83 73.6053C14.5118 73.6507 14.0573 73.628 13.7845 73.8099C13.2163 74.1735 13.8754 75.1054 14.1027 75.4918C15.9665 78.3101 18.3075 80.6966 20.7395 83.015C22.6942 84.856 24.7398 86.5607 26.8763 88.1744C28.0355 89.0381 29.2173 89.8791 30.3992 90.6973C31.6038 91.5155 32.8084 92.3565 34.0585 93.1293C34.5131 93.402 34.9904 93.6975 35.5132 93.7884C36.0132 93.8793 36.5359 93.8112 37.036 93.7203C46.9911 91.6519 56.9463 89.6063 66.8788 87.538C67.3561 87.9471 67.8334 88.3562 68.3107 88.7653C68.4925 88.9244 68.6743 89.0835 68.788 89.2654C59.9465 91.1519 51.0823 93.0611 42.2409 94.9476C40.1498 95.4021 38.0815 95.8339 36.0132 96.3112C35.3086 96.4703 34.7404 96.3795 34.1494 95.9476C30.2401 93.0838 24.467 88.879 19.3758 85.1515C16.762 82.3786 16.6029 82.174 15.0573 80.4011C13.3527 78.4465 12.0117 76.1737 10.8753 73.8326C10.5571 73.1735 10.0797 72.2188 9.78426 71.4915C16.2392 71.196 16.0801 71.1961 19.0349 70.8324C23.5579 70.2642 28.0809 69.605 32.5812 69.014C36.445 68.514 40.3317 68.0595 44.1956 67.5595H44.2182ZM65.7423 86.5379C56.1736 88.5153 46.6048 90.4927 37.036 92.4701C36.0132 92.6746 35.2177 92.5383 34.354 91.9701C28.0581 87.9017 22.2396 83.2877 17.2393 77.6964C16.512 76.8782 15.8756 75.9918 15.0573 74.9463C17.2393 74.719 19.1485 74.4917 21.035 74.3098C28.74 73.5143 36.4223 72.4006 44.0364 71.0141C44.8547 70.855 46.4003 70.6051 47.4003 70.4233C49.0368 71.8552 50.6505 73.2871 52.287 74.7417C52.3097 75.4236 52.4461 76.1282 52.7188 76.8101C53.378 78.5602 54.5144 79.9693 55.9236 81.174C58.3556 83.2877 61.1512 84.5832 64.2196 85.2196C64.7196 85.6514 65.2196 86.1061 65.7197 86.5379H65.7423ZM57.6282 80.9466C56.4691 80.0147 55.3554 78.8784 54.5599 77.6283C54.2189 77.1055 53.9689 76.56 53.8098 76.06C55.7872 77.7874 57.7646 79.5374 59.742 81.2648C60.583 81.9921 61.4239 82.7423 62.2649 83.4696C60.6057 82.9014 59.0601 82.083 57.6509 80.9466H57.6282ZM48.5594 66.9458C51.8551 66.4457 55.1735 65.8775 58.4464 65.2411C58.4464 65.2411 58.4919 65.2866 58.5146 65.3094C58.8101 65.5821 59.1283 65.8548 59.4465 66.1048C67.1288 72.5598 74.8111 79.0147 82.5389 85.4242C82.8344 85.6742 83.0617 85.9243 83.2435 86.1743C79.0159 87.0835 74.7884 87.9925 70.5608 88.9016C70.4017 88.6289 70.1745 88.4017 69.9017 88.1517C67.7425 86.3107 65.6287 84.4014 63.4922 82.5376C57.7419 77.4918 51.9915 72.4234 46.2411 67.3776C46.2184 67.3776 46.1957 67.3321 46.173 67.3094C46.9685 67.1957 47.7639 67.0822 48.5594 66.9685V66.9458ZM63.424 67.5595C64.1968 67.3776 64.9696 67.2185 65.7651 67.0366C71.9018 65.6956 78.0159 64.241 83.9481 62.1045C86.8119 61.0817 89.5848 59.8089 92.4032 58.6497C92.6759 58.5361 92.9714 58.4225 93.4032 58.2634C99.0854 64.6956 105.563 70.2414 112.973 75.1508C111.723 75.7872 110.768 76.4463 109.7 76.8327C107.609 77.56 105.472 78.3101 103.313 78.742C96.267 80.2193 89.1984 81.674 82.1525 83.1286C81.6524 82.7195 81.1524 82.2877 80.6524 81.8785C79.2887 80.7421 77.925 79.6057 76.5612 78.4692C76.4703 77.9465 76.3112 77.4009 76.0839 76.8554C75.493 75.5372 74.652 74.2417 73.6292 73.2417C70.97 70.696 67.9471 69.1277 64.6287 68.4913C64.2423 68.1731 63.8559 67.8549 63.4922 67.5367L63.424 67.5595ZM67.197 70.5823C70.129 71.7187 72.7201 73.4007 74.402 76.1736C74.6065 76.4918 74.7656 76.8327 74.902 77.1509C72.2428 74.9235 69.5835 72.6961 66.9015 70.4914C66.9924 70.5369 67.1061 70.5596 67.197 70.605V70.5823ZM119.905 74.8099C119.473 75.1963 119.223 75.4917 118.905 75.719C116.768 77.2646 114.655 78.8328 112.177 79.8102C112.132 79.8102 112.086 79.8557 112.041 79.8784C111.927 79.9466 111.791 79.9921 111.654 80.0603C102.836 81.9468 94.0169 83.8332 85.2209 85.7197C84.5617 85.1742 83.9254 84.6287 83.2662 84.1059C90.6758 82.5604 98.0854 81.0148 105.495 79.4238C107.222 79.0601 108.881 78.3783 110.518 77.7419C111.745 77.2646 113.45 76.7191 114.245 75.5826C114.7 74.9008 113.836 74.378 113.359 74.0371C111.45 72.6961 109.518 71.3779 107.654 69.9915C102.745 66.3549 98.2899 62.2182 94.2896 57.627C93.835 57.127 93.4714 56.8088 92.7441 57.1724C85.1754 61.0136 77.084 63.241 68.8789 65.1502C66.6515 65.673 64.4014 66.0366 62.174 66.5139C61.674 66.1048 61.1739 65.673 60.6739 65.2639C60.5375 65.1502 60.3784 65.0139 60.242 64.8775C60.9921 64.7184 61.7421 64.5592 62.4922 64.3774C70.1063 62.6273 77.7204 60.8772 84.9709 57.8998C87.7211 56.7633 90.3803 55.3542 93.085 54.0814C93.4032 53.9223 93.6987 53.7404 93.9942 53.5813C101.904 61.5363 110.177 68.9687 119.95 74.8099H119.905ZM84.7436 93.4248C96.6307 90.7882 108.472 88.1744 120.087 85.6061L119.973 86.8106C116.791 87.4698 112.95 88.3108 109.813 88.9926C101.426 90.8337 93.0395 92.6974 84.6527 94.5385C84.6754 94.1748 84.7209 93.8112 84.7436 93.4248ZM84.9027 91.5382C96.7671 88.9699 108.609 86.4243 120.246 83.9014L120.178 84.6288C118.95 84.8561 117.632 85.1287 116.427 85.4015C105.904 87.7198 95.3806 90.0609 84.8345 92.3792C84.8572 92.0837 84.88 91.811 84.9027 91.5155V91.5382ZM85.0845 89.6517C96.9262 87.1516 108.768 84.6287 120.45 82.1513L120.382 82.9241C117.382 83.5605 113.95 84.2877 110.973 84.9241C102.336 86.7879 93.676 88.6517 85.0391 90.5154C85.0618 90.2427 85.0845 89.9472 85.1073 89.6745L85.0845 89.6517ZM119.723 89.0835C116.836 89.6972 113.177 90.4927 110.359 91.1291C101.858 93.0156 93.1759 94.9248 84.4253 96.8794C84.4708 96.4476 84.4936 96.0385 84.539 95.6066C96.4262 92.9928 108.268 90.3791 119.837 87.8335L119.7 89.1063L119.723 89.0835ZM120.359 78.1738C119.564 78.3556 119.041 78.4692 118.518 78.5829C117.859 78.7192 117.2 78.8556 116.541 79.0147C117.45 78.401 118.359 77.7646 119.269 77.1282C119.632 77.4691 120.019 77.8101 120.382 78.1738H120.359ZM120.7 79.6057L120.541 81.083C116.791 81.8557 112.359 82.7649 108.654 83.5604C100.835 85.2196 92.9941 86.9016 85.1754 88.5608C85.2209 88.0835 85.2663 87.6062 85.3118 87.1289C96.5398 84.7196 107.768 82.3104 119.018 79.9012C119.541 79.7875 120.087 79.6966 120.723 79.5829L120.7 79.6057ZM117.928 91.7427C106.7 94.1974 95.4715 96.6749 84.2436 99.1296C84.289 98.7204 84.3117 98.3114 84.3572 97.9023C96.3807 95.243 108.291 92.6065 119.632 90.0836L119.496 91.3564C118.905 91.4928 118.405 91.6291 117.928 91.7427ZM77.5386 100.607C74.902 101.198 72.2428 101.766 69.6063 102.357L69.6517 101.948L70.0835 97.7431L70.2654 95.9476L70.5381 93.2429C70.6291 92.2656 70.72 91.2655 70.8109 90.2882C75.1066 89.379 79.4024 88.4471 83.6981 87.538C83.6981 87.7653 83.6981 88.0153 83.6753 88.2881C83.3344 91.3564 83.1071 94.4248 82.8798 97.4932C82.8344 98.175 82.7662 98.8342 82.698 99.5161C80.9934 99.9024 79.266 100.266 77.5613 100.652L77.5386 100.607ZM34.4904 109.948L34.604 108.926C34.8313 108.88 35.0358 108.812 35.2631 108.767C45.8547 106.426 56.9463 103.971 68.1743 101.471L68.0834 102.312L68.038 102.675C57.2873 105.039 46.5366 107.403 35.8087 109.789C35.3541 109.88 34.9222 109.971 34.4904 109.948ZM6.48863 89.6745C6.48863 89.6745 6.625 89.7654 6.69319 89.8108C11.6708 93.3111 16.6711 96.7885 21.6486 100.266C25.1943 102.721 28.6946 105.244 32.263 107.653C32.6948 107.948 33.1039 108.221 33.4449 108.471V108.744C33.3994 108.994 33.354 109.267 33.3312 109.517C24.7171 103.38 16.0801 97.2658 7.4432 91.1973C6.82953 90.7654 6.53409 90.3109 6.48863 89.72V89.6745Z" fill="black"/>
<path d="M97.5861 78.3559L98.5862 78.0832C98.768 78.0377 99.0181 78.1514 99.0408 78.3559C99.0862 78.5605 98.9725 78.7649 98.768 78.8104C98.4271 78.9013 98.1088 78.9923 97.7679 79.0833C97.5861 79.1287 97.3361 79.0149 97.3134 78.8104C97.2679 78.6058 97.3816 78.4014 97.5861 78.3559Z" fill="black"/>
<path d="M33.2661 74.6511L25.6974 75.5829C24.9701 75.6738 24.2428 75.7647 23.5155 75.8556C23.0382 75.9238 22.8791 75.1739 23.3791 75.1057L30.9478 74.1737C31.6751 74.0828 32.4024 73.9919 33.1298 73.901C33.6071 73.8328 33.7662 74.5829 33.2661 74.6511Z" fill="black"/>
<path d="M21.4676 76.0829L20.3539 76.1738C20.3539 76.1738 20.1494 76.1738 20.0585 76.1056C19.9903 76.0602 19.9221 75.9464 19.8994 75.8555C19.8994 75.7646 19.8994 75.651 19.9675 75.56C20.0357 75.4919 20.1039 75.4237 20.2175 75.4009L21.3313 75.3101C21.3313 75.3101 21.5358 75.3101 21.6267 75.3783C21.6949 75.4238 21.7631 75.5374 21.7858 75.6283C21.7858 75.7192 21.7858 75.8329 21.7176 75.9238C21.6494 75.992 21.5813 76.0602 21.4676 76.0829Z" fill="black"/>
<path d="M100.382 77.674C102.859 77.1739 105.314 76.4921 107.678 75.6285C108.36 75.3784 109.019 75.1056 109.701 74.8329C110.155 74.651 110.451 75.333 109.996 75.5376C107.61 76.5377 105.155 77.3332 102.632 77.9468C101.927 78.1287 101.2 78.2877 100.495 78.424C100.018 78.515 99.9046 77.7649 100.382 77.674Z" fill="black"/>
<path d="M46.1729 67.287C46.1729 67.287 46.2183 67.3324 46.2411 67.3551C51.9914 72.4009 57.7418 77.4466 63.4922 82.5151C65.6287 84.3789 67.7424 86.2882 69.9017 88.1292C70.1744 88.3792 70.4016 88.6066 70.5607 88.8793C74.7883 87.9701 79.0159 87.061 83.2434 86.1518C83.0616 85.9018 82.8343 85.6518 82.5388 85.4017C74.8111 78.9922 67.1287 72.5373 59.4464 66.0823C59.1282 65.8323 58.8328 65.5596 58.5146 65.2869C58.5146 65.2869 58.4691 65.2414 58.4464 65.2186C55.1734 65.8778 51.855 66.4232 48.5594 66.9233C47.7639 67.0369 46.9684 67.1506 46.1729 67.2643V67.287Z" fill="#F6C359"/>
<path d="M82.6746 99.471C82.7428 98.7891 82.811 98.13 82.8564 97.4481C83.1065 94.3797 83.311 91.3114 83.652 88.243C83.6747 87.9703 83.6974 87.7202 83.6747 87.4929C79.379 88.4021 75.0832 89.334 70.7875 90.2431C70.6966 91.2205 70.6284 92.2205 70.5148 93.1978L70.242 95.9026L70.0602 97.6982L69.6284 101.903L69.5829 102.312C72.2194 101.721 74.856 101.153 77.5153 100.562C79.2199 100.176 80.9472 99.8119 82.6519 99.4255L82.6746 99.471Z" fill="#F6C359"/>
<mask id="mask1_8_808" style="mask-type:luminance" maskUnits="userSpaceOnUse" x="9" y="53" width="111" height="44">
<path d="M9.78325 71.5147C10.0787 72.242 10.5333 73.1738 10.8743 73.8557C12.0107 76.1967 13.3517 78.4696 15.0563 80.4243C16.6019 82.1971 16.7837 82.4018 19.3748 85.1747C24.466 88.9022 30.2391 93.107 34.1484 95.9708C34.7394 96.4026 35.3076 96.4935 36.0122 96.3344C38.0805 95.8571 40.1715 95.4026 42.2399 94.9707C51.0813 93.0842 59.9455 91.175 68.787 89.2886L70.5598 88.9021C72.8327 88.4248 75.1056 87.9248 77.4012 87.4475L85.2199 85.7656C94.0386 83.8791 102.857 81.9925 111.653 80.1061C111.767 80.0379 111.903 79.9698 112.04 79.9243C112.085 79.9243 112.131 79.8788 112.176 79.8561C114.654 78.8787 116.767 77.2878 118.904 75.7649C119.222 75.5377 119.472 75.2421 119.904 74.8557C110.153 69.0145 101.857 61.605 93.9477 53.6272C93.6522 53.7863 93.334 53.9681 93.0158 54.1272C90.3111 55.4 87.6746 56.8091 84.9017 57.9456C77.6512 60.923 70.0371 62.6732 62.423 64.4233C61.6729 64.6052 60.9229 64.7642 60.1728 64.9233L58.4227 65.287L44.1491 67.5144L43.99 67.628C40.1943 68.1281 36.3759 68.5599 32.5575 69.0599C28.0345 69.6509 23.5341 70.3327 19.0111 70.8782C16.0564 71.2419 16.2155 71.242 9.7605 71.5374L9.78325 71.5147Z" fill="white"/>
</mask>
<g mask="url(#mask1_8_808)">
<path d="M12.0796 70.3553C21.3529 70.1053 30.5808 69.219 39.7177 67.7189C39.7177 67.6734 39.7177 67.6052 39.7404 67.5598C40.3086 65.6051 42.1269 64.9686 43.9452 65.2414C45.6272 65.4914 47.3546 65.5823 49.0592 65.5141C49.6729 64.8777 50.5138 64.4913 51.4003 64.6277C70.106 67.3324 88.6072 71.1735 106.813 76.2648C111.109 77.4694 109.108 83.5152 104.904 82.7879C86.1979 79.5149 67.4922 76.2421 48.8092 72.9692C36.6721 75.4239 24.3304 76.8103 11.9432 77.1512C7.57933 77.2648 7.69295 70.469 12.0569 70.3553H12.0796Z" fill="#6F7D49"/>
</g>
<path d="M16.1701 17.3976C17.1474 17.6476 18.1247 17.9203 19.0793 18.2158C19.0793 16.8066 19.1475 15.3975 19.2385 13.9883C19.2839 12.9201 19.784 12.67 20.7613 13.1246C21.125 13.3064 21.4431 13.5337 21.7841 13.7156C22.1477 13.9201 22.5114 14.102 22.8751 14.2838C23.6478 14.6702 24.4206 15.0565 25.2161 15.3747C27.1481 16.1475 29.1027 16.8294 31.0801 17.5112C36.1486 19.2613 41.2853 20.875 46.3084 22.7161C54.4907 25.739 62.8321 28.2391 71.2418 30.512C76.1739 31.853 81.1969 32.8759 86.2427 33.7623C91.1749 34.626 96.1752 35.2169 101.221 35.0124C102.13 34.9669 103.039 34.9215 103.948 34.8988C104.698 34.8988 105.085 35.2169 105.358 35.9897C106.835 40.1945 108.29 44.422 109.903 48.5813C111.517 52.7407 113.29 56.8319 115.54 60.6958C116.631 62.5823 117.79 64.4232 118.904 66.3097C119.631 67.5143 119.404 68.1053 118.063 68.3554C117.858 68.4008 117.654 68.4235 117.472 68.469C117.722 69.0372 117.972 69.6055 118.04 70.2191C118.131 70.9919 117.904 71.742 117.495 72.4011C115.495 75.5832 113.472 78.7424 111.426 81.879C110.54 83.2427 110.29 83.3109 108.63 82.9018C81.0151 75.9241 53.3997 68.9691 25.7616 62.0141C24.7161 61.7414 24.0797 61.2413 23.5796 60.3322C18.3975 50.627 13.2153 40.9219 8.01046 31.2167C7.55589 30.3758 7.64682 29.7165 8.1014 28.9665C9.19237 27.1936 10.2379 25.3981 11.3288 23.6253C12.4425 21.807 13.579 20.0113 14.67 18.1703C15.0109 17.6021 15.42 17.1703 16.1246 17.3749L16.1701 17.3976Z" fill="#C5D69D"/>
<path d="M14.6936 18.216C13.5799 20.0343 12.4662 21.8526 11.3525 23.6709C10.2615 25.4438 9.23874 27.2393 8.12503 29.0121C7.64773 29.7622 7.57952 30.4213 8.0341 31.2623C13.239 40.9447 18.4211 50.6726 23.6033 60.3777C24.0806 61.2869 24.7397 61.8096 25.7852 62.0596C53.4006 68.9919 81.016 75.9696 108.654 82.9473C110.313 83.3565 110.541 83.3111 111.45 81.9247C113.495 78.7881 115.518 75.6287 117.518 72.4467C117.927 71.7875 118.155 71.0376 118.064 70.2648C117.996 69.6511 117.746 69.0829 117.496 68.5147C117.7 68.4692 117.905 68.4465 118.086 68.401C119.45 68.151 119.655 67.5828 118.928 66.3554C117.814 64.4916 116.655 62.628 115.564 60.7415C113.313 56.8776 111.541 52.7637 109.927 48.627C108.313 44.4677 106.859 40.2629 105.381 36.0354C105.108 35.2853 104.722 34.9216 103.972 34.9443C103.063 34.967 102.154 35.0352 101.245 35.0579C96.1987 35.2397 91.1984 34.6716 86.2663 33.8079C81.2205 32.9214 76.1975 31.8987 71.2654 30.5577C62.8558 28.2848 54.5143 25.7619 46.332 22.7617C41.2862 20.898 36.1722 19.2843 31.1037 17.5569C29.1491 16.8751 27.1717 16.1932 25.2397 15.4204C24.4442 15.1022 23.6715 14.7157 22.8987 14.3293C22.535 14.1475 22.1714 13.9657 21.8077 13.7611C21.4668 13.5793 21.1258 13.3294 20.7849 13.1703C19.8075 12.7157 19.3303 12.9656 19.2621 14.0339C19.1939 15.443 19.103 16.8523 19.103 18.2615C18.1484 17.9433 17.171 17.6932 16.1937 17.4432C15.4891 17.2613 15.08 17.6705 14.739 18.2388L14.6936 18.216ZM12.8071 24.1709C12.8071 24.1709 12.8525 24.2618 12.898 24.3073C14.4663 27.1484 16.0346 29.9895 17.6256 32.8305C21.0577 38.99 25.1033 46.2178 28.5354 52.3773C28.6263 52.5364 28.7172 52.6954 28.8081 52.8318L28.2172 53.7637C27.899 53.1955 27.3989 52.2864 27.2626 52.0591C22.4895 43.3994 17.7165 34.7398 12.9208 26.0802C12.7389 25.7393 12.4889 25.4211 12.2389 25.1029C12.4208 24.8074 12.6026 24.4891 12.8071 24.1937V24.1709ZM30.7855 51.9455C30.7855 51.9455 30.831 51.9455 30.8537 51.9455C33.1039 52.5591 36.2632 53.3546 38.5133 53.9229C46.9229 56.1048 55.4234 58.3094 63.9694 60.5369C63.8331 60.7641 63.674 60.9914 63.5376 61.2187L63.4921 61.2869C53.0142 58.605 42.5363 55.9003 32.0584 53.2183C31.7629 53.1501 30.9674 52.9228 30.2628 52.7409L30.7855 51.9227V51.9455ZM62.9239 62.196L62.4239 62.9916C51.9232 60.3551 41.3998 57.7186 30.8992 55.082C30.6492 55.0139 29.7627 54.7865 29.1036 54.6047C29.1263 54.5592 29.1718 54.5138 29.1945 54.4683L29.6946 53.6727C33.5584 54.6501 38.6951 55.9911 42.5135 56.9684C49.2639 58.6958 56.0826 60.4459 62.9467 62.196H62.9239ZM61.2647 64.8099C50.855 62.1961 40.4225 59.5822 30.0127 56.9457C29.7173 56.8775 28.7172 56.582 27.9672 56.3775C28.149 56.082 28.3308 55.8092 28.5126 55.5138C30.1945 55.9456 32.8766 56.6048 34.3767 56.9912C43.4227 59.2641 52.6051 61.5597 61.8557 63.878L61.2647 64.8099ZM27.1262 55.4456C26.7853 54.9002 26.2852 54.1274 26.1716 53.9229C21.3076 45.0814 16.4437 36.2398 11.557 27.3984C11.4434 27.1938 11.3525 26.9438 11.2161 26.7393C11.3979 26.4665 11.5571 26.1938 11.7389 25.8983C11.9889 26.3756 12.2616 26.8529 12.5117 27.3302C17.2847 35.9899 22.6032 45.6723 27.3989 54.332C27.4671 54.4456 27.5353 54.5819 27.6035 54.6956C27.4444 54.9683 27.2853 55.1956 27.149 55.4456H27.1262ZM14.1708 21.9435C14.239 22.0572 14.3072 22.1935 14.3754 22.3071C19.2848 31.4214 24.7851 41.5585 29.6718 50.6727C29.74 50.7863 29.8309 50.9226 29.8991 51.059L29.3763 51.9C29.0127 51.2636 28.4217 50.2635 28.2399 49.9226C23.4441 41.2857 18.6484 32.626 13.8299 23.989C13.6935 23.739 13.5799 23.4209 13.398 23.1708C13.6481 22.7617 13.8981 22.3299 14.1708 21.9208V21.9435ZM32.1265 49.8316C32.3311 49.8998 32.5356 49.968 32.7402 50.0134C33.3311 50.1953 33.9448 50.3545 34.5585 50.5136C35.854 50.8545 37.1268 51.1953 38.4224 51.5362C47.3775 53.8318 56.3099 56.1503 65.265 58.4459C65.2195 58.5595 65.1513 58.6504 65.1059 58.7641C64.924 59.0596 64.7422 59.3549 64.5604 59.6504C54.1506 56.9457 43.7182 54.2637 33.3084 51.559C32.922 51.4681 32.0811 51.2181 31.3992 51.0135L31.7174 50.5136L32.1492 49.8316H32.1265ZM59.9919 66.81C48.8548 64.0144 37.7632 61.2414 26.9671 58.5367C26.8534 58.514 26.7398 58.4686 26.6262 58.4459L27.2171 57.5139C27.2171 57.5139 27.308 57.3776 27.3535 57.3094C28.0581 57.4912 29.0581 57.7867 29.3081 57.8321C39.6042 60.4232 50.105 63.0598 60.6738 65.7191L59.9692 66.81H59.9919ZM25.8762 57.423C21.0349 48.5361 15.3527 38.2173 10.5115 29.3531C10.3751 29.1031 10.2615 28.7848 10.1024 28.5348C10.2842 28.262 10.466 27.9666 10.6251 27.6938C11.057 28.5121 11.5116 29.3076 11.9434 30.1258C16.5574 38.4673 21.1713 46.8087 25.7625 55.1729C25.8534 55.332 26.217 56.0366 26.4671 56.4912L25.8762 57.4458V57.423ZM15.5119 19.7843C15.8983 20.4889 16.2391 21.239 16.5346 21.8072C16.8983 22.5118 17.262 23.2163 17.6256 23.9209C19.0575 26.6711 20.4667 29.4213 21.8986 32.1715C23.3305 34.9216 24.7397 37.6718 26.1716 40.4447C26.8762 41.8312 27.6035 43.1948 28.3081 44.5813C28.9899 45.9222 29.7627 47.1951 30.5128 48.5134C30.6719 48.7862 30.831 49.0588 31.0583 49.2634L30.5128 50.1271C30.1946 49.5816 29.6946 48.6952 29.5582 48.4452C24.7624 39.5582 19.9894 30.6714 15.1936 21.8072C15.0573 21.5344 14.8982 21.3071 14.7163 21.0571C14.7618 20.9889 14.8073 20.9208 14.8527 20.8299C15.0118 20.5798 14.8527 20.8298 15.5119 19.807V19.7843ZM16.7619 19.057C17.6256 19.2615 17.6483 19.2842 19.103 19.6252C19.2166 21.648 19.5803 23.6028 20.0803 25.5347C18.1711 21.8072 16.8073 19.1933 16.7392 19.057H16.7619ZM53.1506 26.6484C53.287 27.0348 53.4234 27.4212 53.5825 27.7848C53.7643 28.2621 53.9688 28.7395 54.1507 29.2168C47.8548 27.103 40.9452 24.9437 34.6948 22.8072C31.1492 21.6026 27.6717 20.2161 24.1487 18.9206C23.8533 18.8069 23.4441 18.6024 23.1259 18.6479C22.4441 18.716 22.6032 19.8524 22.6714 20.307C23.0805 23.6481 24.1033 26.8529 25.2397 29.9895C26.1716 32.5123 27.2399 34.9443 28.4218 37.3535C29.0582 38.6491 29.74 39.9219 30.4446 41.1947C31.1492 42.4675 31.8538 43.763 32.6266 45.0131C32.8993 45.4677 33.2175 45.9224 33.6493 46.2633C34.0584 46.5815 34.5358 46.7405 35.0358 46.8769C44.8546 49.4679 54.6734 52.0817 64.515 54.6728C64.765 55.2638 64.9922 55.832 65.2422 56.423C65.3331 56.6503 65.4013 56.8775 65.4468 57.082C56.6735 54.8319 47.923 52.5591 39.1497 50.3089C37.0814 49.7862 35.0358 49.2407 32.9675 48.7406C32.2629 48.5815 31.8083 48.2179 31.4674 47.5815C29.24 43.2857 25.967 36.9445 23.0577 31.3305C21.9668 27.6712 21.8986 27.4438 21.3077 25.1482C20.6485 22.6253 20.4667 20.0116 20.4894 17.3978C20.4894 16.6478 20.4894 15.6022 20.5576 14.8294C26.467 17.4432 26.3307 17.3751 29.1263 18.3751C33.4221 19.8979 37.7633 21.3071 42.059 22.8072C45.741 24.0801 49.4231 25.421 53.1051 26.6938L53.1506 26.6484ZM63.924 53.2409C54.4916 50.7407 45.0365 48.2178 35.604 45.7177C34.604 45.4449 33.9448 44.9677 33.422 44.0813C29.6036 37.6263 26.4443 30.8987 24.4897 23.6482C24.1942 22.6027 24.0351 21.5117 23.7623 20.2161C25.8306 20.9889 27.6262 21.648 29.3991 22.3071C36.6495 25.0346 44.0137 27.4667 51.446 29.6486C52.2642 29.8759 53.7416 30.3532 54.7189 30.6259C55.5371 32.6488 56.3553 34.6488 57.1736 36.6717C56.9008 37.2854 56.719 37.99 56.6281 38.7173C56.4463 40.5811 56.8326 42.3539 57.5372 44.0585C58.7873 47.036 60.6965 49.4452 63.1512 51.3999C63.4012 52.0135 63.6512 52.6272 63.9012 53.2409H63.924ZM59.1737 44.604C58.5373 43.2403 58.06 41.7402 57.9009 40.2629C57.8327 39.6265 57.8554 39.0582 57.9463 38.5127C58.9464 40.9447 59.9237 43.3767 60.9238 45.8087C61.3329 46.8315 61.7648 47.877 62.1739 48.8998C60.9466 47.6497 59.9238 46.2177 59.1737 44.5813V44.604ZM57.3099 28.0348C60.492 29.0576 63.6967 30.035 66.9242 30.9214C66.9242 30.9441 66.9242 30.9668 66.9469 30.9895C67.0833 31.3759 67.2651 31.7396 67.4242 32.1032C71.4245 41.3083 75.402 50.5363 79.4477 59.7187C79.6068 60.0823 79.6977 60.4005 79.7432 60.696C75.5611 59.6277 71.379 58.5368 67.1969 57.4685C67.1969 57.1503 67.0833 56.8321 66.9242 56.4912C65.8105 53.8774 64.7877 51.2408 63.6967 48.6043C60.8101 41.5129 57.9236 34.4216 55.0371 27.353C55.0371 27.3303 55.0144 27.2847 54.9916 27.262C55.7644 27.512 56.5144 27.7621 57.2872 28.0121L57.3099 28.0348ZM70.3335 35.2398C71.1063 35.4216 71.879 35.6262 72.6518 35.8308C78.7431 37.3763 84.8798 38.8082 91.1075 39.5583C94.1304 39.922 97.1761 40.0356 100.199 40.2401C100.494 40.2401 100.79 40.2855 101.267 40.331C103.472 48.627 106.79 56.4911 111.245 64.1961C109.836 64.1961 108.677 64.378 107.563 64.2189C105.358 63.9462 103.131 63.6507 100.995 63.0825C94.0168 61.2414 87.0618 59.4004 80.0841 57.5366C79.8113 56.9457 79.5614 56.3321 79.2886 55.7411C78.584 54.1047 77.8567 52.4909 77.1521 50.8544C77.3112 50.3316 77.4249 49.7862 77.4476 49.1952C77.5158 47.7633 77.3339 46.2177 76.8566 44.8767C75.6066 41.422 73.6291 38.6492 70.9244 36.6036C70.7199 36.149 70.5381 35.6944 70.3335 35.2398ZM72.3563 39.6037C74.4701 41.9447 76.0157 44.6041 76.2884 47.8088C76.3112 48.1952 76.3339 48.5588 76.2884 48.8998C74.902 45.7177 73.5155 42.5357 72.1063 39.3537C72.1745 39.4219 72.2427 39.5129 72.3109 39.581L72.3563 39.6037ZM117.632 66.9464C117.086 67.1055 116.723 67.2418 116.336 67.31C113.745 67.7418 111.132 68.1965 108.472 67.9692C108.427 67.9692 108.381 67.9692 108.313 67.9692C108.177 67.9692 108.018 67.9692 107.881 67.9692C99.1535 65.719 90.4257 63.4688 81.6979 61.2187C81.3569 60.4459 81.016 59.6732 80.675 58.9005C87.9937 60.8324 95.3124 62.7642 102.654 64.628C104.381 65.0598 106.154 65.219 107.904 65.3781C109.222 65.4917 110.995 65.7872 112.2 65.1053C112.904 64.719 112.382 63.8552 112.086 63.3324C110.972 61.2869 109.859 59.2413 108.79 57.1503C106.018 51.6954 103.904 46.0132 102.358 40.1038C102.176 39.4446 101.995 39.0128 101.176 39.0128C92.6985 39.081 84.448 37.4444 76.2429 35.4898C74.0155 34.967 71.8336 34.2852 69.6289 33.717C69.3562 33.1261 69.1062 32.5124 68.8334 31.9215C68.7652 31.7397 68.6743 31.5577 68.6061 31.3986C69.3562 31.6032 70.0835 31.785 70.8335 31.9668C78.4249 33.8079 86.0163 35.6262 93.835 36.2171C96.8125 36.4444 99.8126 36.3763 102.79 36.4217C103.131 36.4217 103.495 36.4217 103.836 36.399C107.336 47.0587 111.45 57.4003 117.564 66.9691L117.632 66.9464ZM77.8567 67.9009C89.6529 70.8557 101.449 73.8104 112.973 76.6969L112.336 77.7198C109.2 76.9015 105.381 75.9014 102.267 75.1287C93.9486 73.0376 85.6072 70.9467 77.2885 68.8556C77.4931 68.5374 77.6748 68.2191 77.8794 67.9009H77.8567ZM78.8568 66.2873C90.6075 69.2875 102.358 72.3104 113.882 75.2424L113.495 75.8787C112.291 75.5378 110.995 75.1969 109.791 74.9014C99.3353 72.2876 88.8801 69.651 78.4249 67.0372C78.584 66.7872 78.7204 66.5372 78.8795 66.3099L78.8568 66.2873ZM79.8341 64.6735C91.5621 67.7191 103.267 70.7648 114.814 73.765L114.404 74.4241C111.45 73.6513 108.04 72.7649 105.086 71.9921C96.5169 69.7874 87.9482 67.6055 79.3795 65.4008C79.5159 65.1735 79.675 64.9235 79.8113 64.6962L79.8341 64.6735ZM111.086 79.629C108.245 78.9017 104.586 77.9697 101.813 77.2652C93.3576 75.1514 84.7435 72.9922 76.0611 70.8103C76.2884 70.4466 76.493 70.0829 76.7203 69.7192C88.5165 72.6967 100.29 75.6514 111.791 78.538L111.109 79.6063L111.086 79.629ZM116.518 70.1738C115.723 69.9692 115.2 69.8556 114.677 69.7192C114.018 69.5601 113.382 69.3783 112.723 69.2192C113.814 69.0829 114.905 68.9237 115.995 68.7419C116.177 69.2192 116.359 69.6965 116.518 70.1738ZM116.177 71.6057L115.382 72.8785C111.677 71.8785 107.29 70.7193 103.631 69.7875C95.8806 67.7873 88.1528 65.7871 80.4023 63.7643C80.6523 63.3552 80.9023 62.9461 81.1523 62.537C92.2667 65.4008 103.404 68.2647 114.518 71.1285C115.041 71.2649 115.564 71.4239 116.177 71.6057ZM108.29 81.2201C97.1533 78.4017 85.9936 75.606 74.8565 72.7877C75.0838 72.4467 75.2884 72.083 75.5157 71.7193C87.4482 74.6968 99.3126 77.6744 110.563 80.47L109.881 81.5609C109.291 81.4245 108.79 81.3337 108.313 81.1973L108.29 81.2201ZM68.197 71.1058C65.5832 70.4466 62.9466 69.7875 60.3328 69.1284L60.5601 68.7874L62.8103 65.219L63.7876 63.6962L65.2422 61.4006C65.765 60.5596 66.2878 59.7187 66.8105 58.8777C71.0608 59.9687 75.3111 61.0597 79.5614 62.1734C79.4704 62.378 79.3568 62.6052 79.1977 62.8325C77.5158 65.4236 75.9475 68.0601 74.3565 70.6967C74.0155 71.2876 73.6519 71.8557 73.2882 72.4239C71.5836 71.9921 69.8789 71.5604 68.197 71.1285V71.1058ZM25.5125 60.2186L26.0579 59.3549C26.2852 59.4004 26.4898 59.4458 26.7171 59.514C37.2405 62.1506 48.2639 64.9008 59.4237 67.6965L58.9692 68.4238L58.7646 68.7419C48.1048 66.0599 37.4223 63.378 26.7398 60.696C26.2852 60.5823 25.8534 60.4687 25.4897 60.2414L25.5125 60.2186ZM9.51145 29.5804C9.51145 29.5804 9.60234 29.7168 9.62506 29.785C12.5116 35.1262 15.4437 40.4675 18.353 45.8314C20.4213 49.6271 22.4441 53.4228 24.5578 57.173C24.8079 57.6276 25.0579 58.0594 25.2397 58.4231L25.1033 58.6503C24.9669 58.8776 24.8306 59.0823 24.6715 59.3096C19.7167 49.9681 14.7163 40.6493 9.69325 31.3533C9.32959 30.6941 9.28414 30.1486 9.4887 29.6031L9.51145 29.5804Z" fill="black"/>
<path d="M96.0626 60.1502L97.0854 60.3547C97.29 60.4002 97.4264 60.6048 97.3809 60.8093C97.3354 61.0139 97.1309 61.1503 96.9263 61.1048C96.5854 61.0366 96.2445 60.9685 95.9035 60.9003C95.699 60.8549 95.5626 60.6503 95.6081 60.4457C95.6535 60.2412 95.858 60.1048 96.0626 60.1502Z" fill="black"/>
<path d="M40.1724 28.1027L32.9674 25.5571C32.2856 25.3071 31.581 25.0798 30.8991 24.8298C30.4445 24.6707 30.6491 23.9435 31.1037 24.1026L38.3087 26.6482C38.9906 26.8982 39.6951 27.1255 40.3769 27.3755C40.8315 27.5346 40.627 28.2618 40.1724 28.1027Z" fill="black"/>
<path d="M28.9909 24.1251L27.9453 23.6933C27.9453 23.6933 27.7636 23.6025 27.7181 23.5116C27.6727 23.4207 27.6499 23.307 27.6954 23.2161C27.7181 23.1252 27.7862 23.0342 27.8772 22.9887C27.9681 22.9433 28.0817 22.9206 28.1726 22.9661L29.2182 23.398C29.2182 23.398 29.4 23.4888 29.4455 23.5797C29.4909 23.6706 29.5137 23.7843 29.4682 23.8752C29.4455 23.9661 29.3773 24.0571 29.2864 24.1025C29.1955 24.148 29.0818 24.1706 28.9909 24.1251Z" fill="black"/>
<path d="M98.8822 60.7869C101.314 61.446 103.814 61.9461 106.337 62.2188C107.065 62.3097 107.769 62.3552 108.496 62.4007C108.996 62.4234 108.951 63.1962 108.451 63.1508C105.883 62.9689 103.314 62.6053 100.791 62.0371C100.087 61.878 99.3595 61.696 98.6549 61.4915C98.1776 61.3551 98.4277 60.6279 98.8822 60.7643V60.7869Z" fill="black"/>
<path d="M55.0139 27.2845C55.0139 27.2845 55.0366 27.3528 55.0594 27.3755C57.9459 34.4669 60.8324 41.5582 63.719 48.6268C64.7872 51.2634 65.8327 53.8998 66.9464 56.5136C67.0828 56.8546 67.1965 57.1729 67.2192 57.4911C71.4013 58.5593 75.5834 59.6503 79.7655 60.7185C79.72 60.4003 79.6291 60.0821 79.47 59.7412C75.4243 50.5588 71.4467 41.3309 67.4465 32.1258C67.2874 31.7621 67.1283 31.3757 66.9692 31.0121C66.9692 30.9894 66.9692 30.9666 66.9464 30.9438C63.719 30.0574 60.5142 29.0802 57.3322 28.0574C56.5595 27.8074 55.8094 27.5573 55.0366 27.3073L55.0139 27.2845Z" fill="#F6C359"/>
<path d="M73.3102 72.3783C73.6738 71.8101 74.0375 71.2418 74.3784 70.6509C75.9694 68.0143 77.5377 65.355 79.2196 62.7867C79.356 62.5594 79.4923 62.3549 79.5832 62.1276C75.333 61.0366 71.0827 59.9456 66.8325 58.8319C66.3097 59.6729 65.7869 60.5138 65.2642 61.3548L63.8096 63.6504L62.8322 65.1732L60.5821 68.7416L60.3548 69.0826C62.9686 69.7417 65.6051 70.4008 68.2189 71.06C69.9235 71.4918 71.6282 71.9237 73.3102 72.3555V72.3783Z" fill="#F6C359"/>
</g>
</svg>
