<svg width="266" height="241" viewBox="0 0 266 241" fill="none" xmlns="http://www.w3.org/2000/svg">
<path d="M38.3572 192.901C67.9153 200.75 136.861 207.044 191.355 191.098C201.053 188.261 206.726 178.923 208.889 171.603C211.052 164.283 228.98 81.1329 203.36 19.0669C199.499 12.8409 190.451 8.11731 179.391 7.10769C125.584 2.20384 75.7371 3.51398 43.183 8.17745C31.9027 9.78803 23.4374 14.8361 19.6974 21.3385C1.45991 53.0453 2.18378 147.456 17.4253 178.923C20.5419 185.341 28.0622 190.173 38.3572 192.913V192.901Z" fill="white"/>
<path d="M32.3572 188.901C61.9153 196.75 130.861 203.044 185.355 187.098C195.053 184.261 200.726 174.923 202.889 167.603C205.052 160.283 222.98 77.1329 197.36 15.0669C193.499 8.84089 184.451 4.11731 173.391 3.1077C119.584 -1.79616 69.7371 -0.486023 37.183 4.17744C25.9027 5.78802 17.4374 10.8361 13.6974 17.3385C-4.54009 49.0453 -3.81623 143.456 11.4253 174.923C14.5419 181.341 22.0622 186.173 32.3572 188.913V188.901Z" fill="#C10230"/>
<path d="M256.958 217.363C255.776 214.524 254.007 211.993 252.072 209.593C247.475 203.945 241.983 199.384 235.477 196.125C234.333 195.54 233.132 195.106 231.931 194.672C231.189 194.425 230.373 194.436 229.82 195.024C229.123 195.764 229.336 196.663 229.803 197.473C230.247 198.261 230.711 199.028 231.217 199.751C234.545 204.45 237.772 209.258 241.287 213.805C243.707 216.949 246.479 219.809 249.147 222.735C250.3 223.986 251.713 224.825 253.329 225.404C255.991 226.311 258.243 224.819 258.241 221.49C257.937 220.464 257.562 218.837 256.913 217.321L256.958 217.363ZM249.9 218.515C247.502 215.843 245.207 213.105 242.975 210.302C240.055 206.563 237.239 202.758 234.424 198.954C234.218 198.677 234.137 198.313 233.972 197.994C234.293 197.968 234.565 197.813 234.721 197.919C242.147 202.496 248.38 208.249 252.745 215.898C253.562 217.325 254.127 218.885 254.713 220.423C254.735 220.444 254.737 220.487 254.739 220.53C254.903 221.301 254.068 221.828 253.386 221.473C251.977 220.72 250.896 219.618 249.9 218.515Z" fill="white"/>
<path d="M229.034 177.439C232.234 178.346 235.414 179.317 238.634 180.202C244.593 181.849 250.609 182.845 256.753 182.391C258.801 182.254 260.795 181.858 262.496 180.73C264.448 179.426 264.63 177.239 262.995 175.531C262.473 174.998 261.823 174.509 261.157 174.129C260.269 173.623 259.339 173.16 258.352 172.849C248.032 169.491 237.983 170.649 228.093 173.861C226.644 174.357 226.586 176.413 228.001 177.086C228.267 177.212 228.573 177.294 229.055 177.417L229.034 177.439ZM233.72 174.409C241.093 172.92 248.501 172.664 255.914 174.896C257.251 175.288 258.514 175.941 259.756 176.615C259.779 176.637 259.801 176.658 259.824 176.679C260.383 177.082 260.293 177.949 259.656 178.218C257.919 179.021 256.673 179.212 254.421 179.157C250.349 179.041 246.304 178.579 242.323 177.597C239.37 176.882 236.432 176.015 233.126 175.131C233.576 174.562 233.613 174.432 233.677 174.409L233.72 174.409Z" fill="white"/>
<path d="M211.146 206.66C211.01 210.341 210.809 214.001 210.847 217.679C210.879 221.725 211.064 225.791 211.227 229.835C211.305 232.02 211.92 234.132 212.96 236.064C214.546 239.05 217.949 239.197 219.683 236.402C219.945 235.987 220.183 235.508 220.269 235.009C220.644 232.796 221.213 230.56 221.218 228.287C221.265 223.158 220.065 218.176 218.351 213.332C217.381 210.554 216.155 207.866 214.929 205.179C214.786 204.878 214.642 204.577 214.478 204.298C213.61 202.817 211.402 203.259 211.24 204.928C211.179 205.491 211.204 206.054 211.166 206.638L211.146 206.66ZM215.034 210.327C217.035 215.774 218.328 221.382 218.417 227.137C218.455 228.911 218.233 230.688 217.943 232.402C217.906 232.532 217.912 232.662 217.874 232.792C217.595 234.268 215.427 234.169 215.185 232.657C214.789 230.131 214.263 227.607 214.169 225.076C214.015 220.253 214.119 215.426 214.138 210.6C214.154 210.491 214.171 210.383 214.188 210.274C214.322 209.905 214.885 209.897 215.032 210.284L215.034 210.327Z" fill="white"/>
</svg>
