<svg width="181" height="113" viewBox="0 0 181 113" fill="none" xmlns="http://www.w3.org/2000/svg">
<path d="M9.03111 10.5586C9.71559 10.0795 13.2941 14.1317 13.7009 14.5811C15.1953 16.2509 16.2332 17.937 17.1973 19.8587C17.4114 20.2876 18.01 20.1566 18.237 19.856C18.8932 19.0329 17.9764 17.7333 17.5168 17.0184C16.5994 15.5726 15.4755 14.2347 14.2771 12.9862C13.4316 12.0839 10.1726 8.53682 8.7661 10.3029C8.65434 10.4372 8.8746 10.6556 9.03282 10.5425L9.03111 10.5586Z" fill="white"/>
<path d="M168.956 10.0917C167.132 9.2311 164.832 12.2173 163.58 13.4477C162.257 14.7356 159.206 18.0637 159.908 20.461C160.064 20.981 160.694 21.162 160.931 20.6188C161.363 19.6094 161.539 18.5726 162.097 17.6091C162.714 16.5382 163.452 15.5614 164.258 14.7056C164.879 14.0574 165.499 13.4252 166.106 12.7592C166.874 11.9481 167.826 10.6369 168.915 10.4771C169.113 10.4495 169.144 10.1605 168.958 10.0757L168.956 10.0917Z" fill="white"/>
<path d="M18.1767 80.0657C17.2986 79.4685 16.0256 80.7455 15.3451 81.3386C14.3592 82.2078 13.602 83.215 12.849 84.3363C11.924 85.6991 9.73325 87.9661 10.2071 89.9167C10.365 90.5669 11.2676 90.6308 11.3929 89.9134C11.7075 88.0308 13.101 86.5393 14.0861 85.0692C14.8587 83.9175 15.6731 82.9814 16.6895 82.1318C17.2954 81.6281 18.2139 81.2389 18.2829 80.2882C18.2915 80.2079 18.2358 80.1207 18.175 80.0818L18.1767 80.0657Z" fill="white"/>
<path d="M161.559 91.8249C160.172 92.7974 163.383 94.3582 163.897 94.8678C165.01 96.0096 166.291 96.9421 167.387 98.0822C168.496 99.2562 169.133 100.737 170.191 101.938C170.669 102.476 171.576 101.891 171.384 101.253C170.781 99.1429 168.822 97.1149 167.129 95.7812C166.079 94.9708 165.228 93.8082 164.066 93.132C163.471 92.7761 162.06 92.6092 161.809 91.9166C161.771 91.8151 161.65 91.7372 161.545 91.8072L161.559 91.8249Z" fill="white"/>
<path d="M120.071 19.4464C115.926 20.1247 111.488 19.7762 107.3 19.8097C103.076 19.8305 98.8371 19.8851 94.6098 19.8738C85.9051 19.8581 77.0838 20.1291 68.3934 19.6905C67.2955 19.6307 67.3396 18.1831 68.4286 18.1465C77.1343 17.789 85.9445 18.1678 94.6389 18.2655C98.8692 18.309 103.086 18.4024 107.32 18.4781C111.5 18.5587 115.949 18.2575 120.063 18.9768C120.317 19.0179 120.319 19.4232 120.054 19.4641L120.071 19.4464Z" fill="white"/>
<path d="M113.432 19.439C117.174 20.1309 121.204 19.7979 124.999 19.8458C128.828 19.881 132.67 19.9501 136.502 19.9532C144.393 19.9674 152.383 20.2682 160.27 19.8598C161.267 19.8038 161.259 18.3576 160.272 18.3173C152.389 17.9304 144.394 18.2787 136.511 18.3465C132.675 18.3754 128.851 18.4543 125.012 18.5154C121.221 18.5816 117.195 18.2655 113.449 18.97C113.218 19.0102 113.207 19.415 113.446 19.4568L113.432 19.439Z" fill="white"/>
<path d="M131.662 99.2863C137.686 99.4423 143.716 99.6963 149.751 99.756C155.477 99.8151 161.539 100.381 167.22 99.4936C167.75 99.4039 167.747 98.5105 167.219 98.4379C161.547 97.5725 155.475 98.1585 149.748 98.2616C143.712 98.3642 137.69 98.647 131.661 98.8316C131.367 98.8489 131.369 99.2876 131.66 99.3024L131.662 99.2863Z" fill="white"/>
<path d="M112.807 107.358C114.419 107.157 116.007 106.125 117.445 105.434C119.26 104.556 120.912 104.148 122.829 103.686C123.596 103.492 123.535 102.398 122.826 102.192C121.253 101.715 119.28 102.853 117.908 103.535C116.141 104.418 114.007 105.392 112.547 106.746C112.33 106.95 112.477 107.404 112.807 107.358Z" fill="white"/>
<path d="M120.667 107.824C124.188 105.715 128.132 104.983 131.818 103.314C132.567 102.988 132.025 101.826 131.273 102.022C127.444 103.058 123.348 104.765 120.281 107.328C119.997 107.557 120.355 108.002 120.667 107.824Z" fill="white"/>
<path d="M130.538 107.692C133.654 106.19 136.772 104.98 139.978 103.698C140.944 103.314 140.574 101.764 139.532 102.092C136.254 103.138 132.637 104.766 130.054 107.056C129.695 107.375 130.161 107.879 130.554 107.694L130.538 107.692Z" fill="white"/>
<path d="M140.849 107.38C142.441 106.917 143.803 106.023 145.223 105.2C146.002 104.747 146.8 104.264 147.673 104C148.446 103.758 149.213 103.872 149.905 103.475C150.268 103.27 150.397 102.667 150.038 102.385C147.407 100.253 142.697 105.434 140.467 106.544C139.987 106.785 140.329 107.536 140.831 107.395L140.849 107.38Z" fill="white"/>
<path d="M151.159 106.938C152.245 106.047 153.463 105.284 154.729 104.688C155.925 104.134 157.223 103.834 158.403 103.278C159.069 102.976 158.757 101.789 158.017 101.873C155.371 102.175 152.09 104.309 150.619 106.523C150.389 106.856 150.877 107.151 151.143 106.936L151.159 106.938Z" fill="white"/>
<path d="M158.749 106.741C162.179 105.5 165.741 104.078 168.85 102.185C169.789 101.603 168.972 100.281 167.998 100.73C164.75 102.25 161.375 103.904 158.386 105.891C157.984 106.156 158.228 106.913 158.735 106.724L158.749 106.741Z" fill="white"/>
<path d="M164.778 106.849C167.354 106.604 169.272 104.909 171.466 103.682C174.161 102.167 177.027 101.028 179.765 99.566C180.487 99.1885 179.988 97.9334 179.194 98.2221C176.675 99.1549 174.237 100.389 171.933 101.734C169.648 103.066 167.33 105.611 164.695 106.109C164.297 106.181 164.386 106.872 164.796 106.835L164.778 106.849Z" fill="white"/>
<path d="M179.749 92.0942C178.295 92.1825 177.076 92.7994 175.928 93.6675C174.886 94.4494 173.294 95.3675 172.623 96.4814C172.308 96.9999 172.826 97.6236 173.394 97.4731C174.529 97.1883 175.376 95.947 176.173 95.1715C177.244 94.1165 178.397 93.2003 179.82 92.6539C180.108 92.5385 180.093 92.066 179.735 92.0765L179.749 92.0942Z" fill="white"/>
<path d="M177.95 88.8976C176.753 89.3058 175.52 89.5964 174.362 90.106C173.424 90.5256 172.016 91.236 171.989 92.4024C171.973 92.8554 172.549 93.2416 172.954 92.9439C173.34 92.6765 173.526 92.3066 173.838 91.9664C174.245 91.5064 174.783 91.1742 175.303 90.8724C176.222 90.3209 177.212 89.8744 178.132 89.323C178.357 89.1847 178.202 88.8109 177.95 88.8976Z" fill="white"/>
<path d="M9.47545 9.74526C15.8448 10.4739 22.4109 10.1194 28.8075 10.1364C35.3823 10.1563 41.9607 10.144 48.539 10.1317C54.9854 10.1379 61.4353 10.1119 67.8835 10.102C71.1004 10.0882 74.3316 10.0921 77.5485 10.0782C80.8618 10.0747 84.3099 10.3291 87.6 9.93333C88.6694 9.8039 88.658 8.38986 87.5982 8.27672C84.3084 7.90927 80.8536 8.17376 77.5386 8.19338C74.4519 8.20488 71.3491 8.21467 68.2624 8.22617C61.6841 8.23843 55.1201 8.26845 48.54 8.29676C42.0901 8.32273 35.6403 8.34873 29.2048 8.39247C22.6872 8.4437 15.9683 8.09992 9.48599 8.88569C8.94241 8.95758 8.94726 9.67263 9.49147 9.74697L9.47545 9.74526Z" fill="white"/>
<path d="M161.298 9.74538C154.929 10.4741 148.363 10.1195 141.966 10.1365C135.391 10.1564 128.813 10.1441 122.235 10.1318C115.788 10.138 109.338 10.1121 102.89 10.1021C99.6733 10.0883 96.442 10.0922 93.2251 10.0783C89.9118 10.0748 86.4638 10.3292 83.1736 9.93345C82.1042 9.80402 82.1157 8.38998 83.1754 8.27684C86.4653 7.90939 89.92 8.17388 93.235 8.1935C96.3217 8.205 99.4245 8.21479 102.511 8.22629C109.09 8.23855 115.654 8.26857 122.234 8.29688C128.683 8.32285 135.133 8.34885 141.569 8.39259C148.086 8.44382 154.805 8.10004 161.288 8.88581C161.831 8.9577 161.826 9.67275 161.282 9.74709L161.298 9.74538Z" fill="white"/>
<path d="M8.72913 9.74677C7.93203 12.6497 8.18095 15.7943 8.17233 18.7652C8.1564 22.1089 8.12617 25.4348 8.11025 28.7784C8.05845 35.8046 8.10297 42.8411 8.1154 49.8741C8.12377 56.7931 8.14823 63.7137 8.1566 70.6326C8.15673 73.978 8.1746 77.309 8.17473 80.6544C8.1828 83.7733 7.91341 87.0573 8.39569 90.1456C8.52215 90.9386 9.87025 90.9364 10.0041 90.1387C10.4531 87.1499 10.1899 83.9875 10.1715 80.965C10.1536 77.634 10.1535 74.2886 10.1356 70.9576L10.0662 49.8551C10.0418 42.9344 10.0495 36.0172 9.96081 29.0897C9.92685 25.7569 9.87854 22.4064 9.84458 19.0737C9.81531 16.0013 10.0687 12.7154 9.23378 9.73567C9.16144 9.50059 8.8208 9.49671 8.74692 9.73241L8.72913 9.74677Z" fill="white"/>
<path d="M169.82 10.3904C169.051 16.9827 169.233 23.6441 169.256 30.2723C169.271 36.9808 169.284 43.7054 169.298 50.4139C169.316 57.0902 169.334 63.7666 169.351 70.459C169.361 76.9072 168.872 83.6107 169.586 90.0042C169.701 91.0558 171.114 91.0604 171.227 90.0006C171.911 83.5941 171.392 76.8967 171.366 70.4468C171.348 63.7705 171.33 57.0941 171.313 50.4017C171.299 43.6932 171.27 36.9669 171.255 30.2584C171.232 23.6302 171.391 16.9727 170.585 10.3746C170.524 9.88089 169.873 9.89259 169.821 10.3743L169.82 10.3904Z" fill="white"/>
<path d="M92.6206 102.653C98.9625 103.639 105.635 103.198 112.048 103.217C118.621 103.253 125.201 103.225 131.763 103.211C138.342 103.198 144.906 103.168 151.484 103.156C154.831 103.14 158.192 103.142 161.54 103.125C164.887 103.109 168.277 103.293 171.585 102.882C172.605 102.764 172.603 101.416 171.575 101.306C168.255 100.919 164.857 101.109 161.526 101.126C158.195 101.144 154.817 101.141 151.47 101.157C144.892 101.17 138.328 101.2 131.749 101.212C125.171 101.224 118.607 101.254 112.024 101.315C105.619 101.378 98.9402 100.957 92.5945 101.985C92.2648 102.031 92.2691 102.6 92.6046 102.652L92.6206 102.653Z" fill="white"/>
<path d="M103.107 102.256C95.7008 103.404 87.9098 102.9 80.4221 102.927C72.747 102.975 65.0639 102.948 57.4015 102.938C49.7204 102.93 42.0561 102.901 34.375 102.893C30.4669 102.877 26.5419 102.882 22.6338 102.867C18.7256 102.851 14.7663 103.067 10.9042 102.594C9.71389 102.458 9.71777 100.895 10.9178 100.767C14.795 100.316 18.7625 100.532 22.6519 100.55C26.5413 100.567 30.485 100.56 34.3931 100.576C42.0742 100.584 49.7386 100.613 57.4197 100.621C65.1008 100.629 72.7651 100.658 80.4522 100.722C87.931 100.789 95.7292 100.296 103.138 101.481C103.523 101.534 103.517 102.193 103.125 102.254L103.107 102.256Z" fill="white"/>
<path d="M72.2938 19.3757C68.0832 20.0744 63.6668 19.8379 59.4159 19.9073C54.7744 19.9732 50.1292 20.007 45.4859 20.0568C40.9727 20.1078 36.4559 20.1267 31.9409 20.1617C27.3938 20.2003 22.5279 20.7149 18.0065 20.1329C16.9341 19.9969 16.9367 18.6148 17.9935 18.4763C22.3775 17.8713 27.1105 18.315 31.5434 18.2732C36.1886 18.2395 40.8357 18.2217 45.4828 18.204C49.9996 18.1851 54.5165 18.1661 59.0371 18.1793C63.4114 18.1931 67.9769 17.8922 72.3114 18.5446C72.7254 18.6105 72.7232 19.2935 72.3098 19.3738L72.2938 19.3757Z" fill="white"/>
<path d="M16.5305 19.7386C15.7675 21.8657 15.976 24.3239 15.9642 26.5637C15.9469 29.1602 15.9152 31.7389 15.8978 34.3354C15.846 39.6889 15.8744 45.051 15.8867 50.4113C15.8968 55.6415 15.9068 60.8717 15.9151 66.118C15.9138 68.7162 15.9303 71.3 15.929 73.8982C15.9322 76.302 15.7044 78.8923 16.1497 81.2621C16.3157 82.1405 17.5996 82.1314 17.7581 81.2551C18.1781 78.994 17.9358 76.5484 17.9366 74.2587C17.9202 71.6748 17.9215 69.0767 17.905 66.4928C17.8926 61.1324 17.8642 55.7704 17.8518 50.41C17.8258 45.1781 17.8496 39.9353 17.7576 34.7125C17.7268 32.1109 17.6782 29.5236 17.6474 26.922C17.6069 24.563 17.8364 21.9567 17.0351 19.7275C16.9341 19.4569 16.6416 19.4582 16.5482 19.7243L16.5305 19.7386Z" fill="white"/>
<path d="M160.643 26.982C159.877 31.4148 160.045 35.931 160.051 40.4301C160.063 45.1895 160.075 49.949 160.086 54.7084C160.101 59.4357 160.098 64.1773 160.113 68.9046C160.12 73.2575 159.669 77.9351 160.363 82.2315C160.49 83.0245 161.822 83.0206 161.956 82.2229C162.643 77.9116 162.151 73.247 162.144 68.8941C162.129 64.1668 162.116 59.4235 162.101 54.6962C162.09 49.9367 162.078 45.1773 162.05 40.4162C162.042 35.9331 162.167 31.4156 161.39 26.9805C161.331 26.617 160.714 26.6161 160.659 26.9837L160.643 26.982Z" fill="white"/>
<path d="M100.624 93.2446C105.393 94.2084 110.65 93.7953 115.518 93.8278C120.89 93.8654 126.25 93.853 131.61 93.8406C136.825 93.8289 142.055 93.8188 147.269 93.8071C152.305 93.7926 157.771 94.3112 162.727 93.5248C163.586 93.3892 163.575 92.1213 162.727 91.9984C157.9 91.272 152.599 91.7941 147.694 91.8063C142.333 91.8186 136.973 91.831 131.597 91.8417C126.22 91.8523 121.152 91.8634 115.933 91.9233C110.926 91.9734 105.498 91.5563 100.614 92.5777C100.233 92.6507 100.242 93.1713 100.624 93.2446Z" fill="white"/>
<path d="M52.4635 93.2447C57.2325 94.2085 62.4895 93.7954 67.3579 93.828C72.7292 93.8655 78.0895 93.8531 83.4499 93.8407C88.664 93.829 93.8942 93.819 99.1084 93.8072C104.144 93.7927 109.61 94.3113 114.566 93.5249C115.425 93.3893 115.414 92.1214 114.567 91.9985C109.74 91.2721 104.439 91.7942 99.5331 91.8064C94.1727 91.8187 88.8123 91.8311 83.4359 91.8418C78.0595 91.8524 72.9916 91.8635 67.7723 91.9234C62.7652 91.9735 57.337 91.5564 52.4535 92.5778C52.0722 92.6508 52.0816 93.1715 52.4635 93.2447Z" fill="white"/>
<path d="M79.0765 93.2445C74.3075 94.2084 69.0505 93.7952 64.1821 93.8278C58.8108 93.8653 53.4504 93.8529 48.0901 93.8405C42.8759 93.8288 37.6457 93.8188 32.4316 93.807C27.3958 93.7925 21.9297 94.3111 16.9739 93.5248C16.1149 93.3891 16.1258 92.1213 16.9733 91.9983C21.8001 91.2719 27.1012 91.794 32.0069 91.8062C37.3672 91.8186 42.7276 91.831 48.104 91.8416C53.4805 91.8523 58.5483 91.8633 63.7676 91.9233C68.7748 91.9733 74.203 91.5562 79.0864 92.5776C79.4677 92.6506 79.4584 93.1713 79.0765 93.2445Z" fill="white"/>
</svg>
