<svg width="584" height="323" viewBox="0 0 584 323" fill="none" xmlns="http://www.w3.org/2000/svg">
<path d="M482.215 65.9171C482.573 65.1438 482.769 64.144 482.637 63.3118C482.14 60.2637 481.489 57.2556 480.852 54.2231C479.575 48.386 478.249 42.5203 476.972 36.6831C476.551 34.7293 476.27 32.7598 475.786 30.8017C474.874 27.1805 472.934 26.1358 469.321 27.3194C465.863 28.4629 462.453 29.6352 459.069 30.9864C455.086 32.5753 454.61 33.7712 456.115 37.6102C456.717 39.1458 457.333 40.6571 458.094 42.0897C461.058 47.5104 464.036 52.9068 467.068 58.2688C468.681 61.0895 470.464 63.8458 472.419 67.0318C473.766 69.8596 481.071 68.359 482.206 65.8784L482.215 65.9171ZM460.297 36.073C463.742 34.3966 467.06 33.2688 470.85 32.4519C472.187 35.7982 472.081 39.3117 472.943 42.5748C473.864 46.0699 474.785 49.565 475.706 53.0602C476.616 56.3519 477.526 59.6437 478.55 63.2979C477.01 63.8002 475.739 64.2325 474.29 64.6904C469.152 55.2328 464.132 46.0746 460.311 36.0486L460.297 36.073Z" fill="white"/>
<path d="M493.474 62.8755C498.723 62.9184 499.152 62.5804 500.659 57.4659C501.737 53.8037 502.727 50.1229 503.901 46.518C506.178 39.4299 508.577 32.4135 510.83 25.3111C511.881 22.027 511.052 20.4885 507.864 19.5609C504.55 18.6247 501.199 17.8633 497.848 17.1019C491.64 15.7395 490.026 17.478 490.247 23.2174C490.541 31.0008 490.694 38.8 491.012 46.5977C491.23 51.843 491.626 57.0626 491.947 62.6316C492.81 62.7793 493.17 62.8926 493.513 62.8654L493.474 62.8755ZM494.337 57.0203C494.596 45.2981 493.818 33.5556 494.612 21.5914C498.714 21.7457 502.238 22.9369 506.107 24.2657C505.874 25.6049 505.801 26.841 505.456 27.9825C503.506 34.1811 501.431 40.3712 499.505 46.5842C498.493 49.8582 497.641 53.1939 496.74 56.501C496.49 57.3703 496.337 58.297 494.957 58.3038C494.755 57.9228 494.345 57.4514 494.362 57.0346L494.337 57.0203Z" fill="white"/>
<path d="M495.184 126.864C498.468 118.386 495.954 114.7 478.998 107.63C427.493 86.2167 373.341 72.8128 339.496 70.2995C321.3 68.49 291.443 65.3736 261.719 66.1108C238.732 66.0438 175.565 67.6858 128.919 76.5994C82.1728 84.8093 56.5042 93.857 37.0684 100.827C15.4544 108.367 -5.2883 122.307 1.21264 143.284C4.19503 153.002 15.8565 187.718 22.1899 199.547C28.7579 212.248 30.5004 236.877 75.6384 220.793C119.738 205.177 188.634 192.309 244.73 190.03C287.79 188.053 354.442 201.86 384.266 204.674C403.668 206.685 418.647 208.36 429.638 213.621C440.596 218.883 454.57 196.062 459.294 181.821C465.36 162.05 491.866 135.376 495.15 126.898L495.184 126.864Z" fill="#FFCE00"/>
<path d="M79.9262 290.526C99.4625 301.752 121.311 285.433 153.078 279.2C165.779 276.653 199.758 268.041 220.702 265.293C253.173 260.233 318.953 263.517 348.341 267.539C364.661 268.477 392.943 278.966 398.673 261.909C404.403 244.852 412.312 211.343 414.825 201.926C417.338 192.51 414.121 183.06 365.532 175.051C320.729 168.651 273.446 164.63 219.194 171.03C177.507 174.85 136.458 183.295 108.812 191.84C59.5856 207.522 52.0123 219.552 56.7707 238.486C61.0265 255.71 70.5769 285.131 79.9262 290.493V290.526Z" fill="#C10230"/>
<path d="M95.2419 177.028C96.3477 180.01 96.4817 182.624 88.0707 185.372C78.2523 188.555 69.4392 190.197 61.3632 185.238C52.7847 180.111 48.3614 169.488 44.5747 157.793C40.2184 144.389 38.61 133.767 43.3684 126.193C48.2943 118.352 58.4479 114.398 65.7196 112.019C69.3051 110.846 73.0582 109.874 74.5997 115.035L75.8731 119.424L77.3475 123.077C78.9225 127.031 76.0071 128.539 74.3651 129.075L71.6843 129.947C70.545 130.315 69.4392 130.885 68.6349 131.387C61.9329 135.576 64.3121 141.943 67.4956 151.829C70.9806 162.619 73.0247 165.869 74.9013 167.277C76.3757 168.349 78.9895 169.421 82.4075 168.181L87.434 166.338C91.4552 164.797 92.1589 168.718 93.1978 171.499L95.2754 177.062L95.2419 177.028Z" fill="#C10230"/>
<path d="M152.274 132.46C153.849 139.397 155.793 150.254 154.117 156.721C152.174 164.462 144.802 172.002 128.717 175.688C122.584 177.095 114.274 178.134 106.634 173.007C99.9652 168.55 96.2121 160.508 92.4589 144.155C89.7111 132.159 87.9351 122.005 90.9845 114.264C95.2738 103.508 107.572 99.4863 114.777 97.8443C121.981 96.2024 129.622 95.3311 136.927 99.5198C145.472 104.412 147.817 112.89 149.594 120.564L152.308 132.46H152.274ZM118.027 148.88C119.066 153.437 119.77 155.884 121.68 156.956C123.121 157.827 124.897 157.76 126.069 157.492C128.549 156.922 130.124 155.917 130.995 153.739C132.135 150.857 131.297 147.908 129.454 139.732L125.466 122.273C124.461 117.816 121.546 114.8 117.357 115.739C115.782 116.107 113.939 117.046 113.101 118.788C111.694 121.603 112.867 126.127 113.336 128.305L118.027 148.88Z" fill="#C10230"/>
<path d="M171.475 88.5955C174.39 88.1934 176.669 87.8918 177.306 92.7172L177.406 93.4544L179.651 114.03L181.662 113.761L186.018 89.8353C186.387 87.6572 187.191 86.4844 190.777 85.9817L204.616 84.1051C206.761 83.8371 208.369 83.9041 208.604 85.6131C208.805 86.987 208.068 88.696 207.666 89.7013L198.551 114.465C198.283 115.37 197.981 116.241 197.981 117.313C201.701 124.82 204.549 129.913 207.197 134.471L214.1 146.467C216.211 150.153 219.294 154.845 219.595 156.956C219.729 157.894 219.361 159.134 215.608 159.637C213.496 159.938 211.452 159.972 209.341 160.273C207.733 160.474 206.057 160.943 204.449 161.144C198.082 162.016 197.646 161.848 195.3 156.621L184.075 131.723L182.332 131.957L185.817 157.693C186.588 163.457 184.477 163.859 180.623 164.395L174.39 165.233C165.879 166.372 165.946 164.998 165.208 159.301L158.205 106.423C158.004 104.948 157.669 103.507 157.468 102.033C157.367 101.195 157.233 100.257 157.099 99.4192L156.529 95.0964C156.06 91.7454 156.865 90.5726 163.634 89.6343L171.475 88.562V88.5955Z" fill="#C10230"/>
<path d="M221.473 145.864L220.434 115.403C220.099 106.188 219.396 101.53 219.194 99.7878L218.96 97.6767C218.792 96.5039 218.96 95.4651 219.731 94.3257C220.501 93.1864 221.272 92.8513 223.149 92.6837L226.634 92.3151C240.339 90.9077 252.738 89.2657 260.613 95.2305C267.281 100.324 268.186 109.238 268.454 114.197C269.024 125.523 265.204 130.852 263.093 133.264C260.11 136.749 253.877 140.636 246.907 140.703H244.696C243.422 140.703 241.311 140.972 240.44 141.675C239.434 142.479 239.267 143.954 239.3 144.859C239.367 145.965 239.434 147.707 239.87 151.46L240.272 154.677C240.641 157.794 237.994 158.296 236.15 158.397C234.643 158.464 233.101 158.263 231.727 158.33C229.616 158.43 227.572 159.1 225.461 159.1C222.311 159.167 222.11 157.324 222.043 156.152V153.203L221.54 145.864H221.473ZM237.424 118.956C237.658 123.814 237.792 126.596 242.92 126.328C246.304 126.16 247.644 124.887 248.281 123.647C249.353 121.67 249.353 119.626 249.253 117.615C248.951 111.349 248.549 108.266 246.606 106.49C245.265 105.25 243.623 104.881 241.847 104.982C236.955 105.216 236.888 108.836 236.988 110.746L237.39 118.922L237.424 118.956Z" fill="#C10230"/>
<path d="M274.62 135.811C275.022 134.337 275.257 134.069 275.961 130.885C278.206 120.363 280.853 111.717 283.701 100.592L284.237 98.481C285.209 94.5603 285.678 90.8742 289.633 91.0418L303.941 91.5779C305.349 91.6449 307.326 91.5779 308.432 92.8513C309.102 93.5215 309.403 94.8284 311.716 104.848L314.531 117.112C315.938 123.077 315.268 122.843 318.552 140.77C319.524 146.065 321.735 152.231 321.635 155.079C321.568 157.291 319.188 158.497 316.139 158.363L306.12 157.995C304.243 157.928 302.903 156.855 302.467 155.749C302.031 154.644 302.065 153.806 301.998 152.231C301.931 150.857 301.964 150.019 301.529 148.88C300.892 147.204 299.887 146.132 296.737 146.032C293.955 145.931 289.968 146.434 290.001 148.645V151.862C290.035 156.922 287.354 157.291 284.338 157.19L273.615 156.788C269.292 156.621 269.259 154.778 269.292 153.973C269.359 152.499 269.728 151.695 270.398 149.517L274.52 135.845L274.62 135.811ZM292.917 126.261C292.649 127.534 292.648 126.897 292.347 129.277C292.347 129.478 292.347 129.545 292.347 129.746C292.447 130.315 293.352 131.354 296.703 131.488C298.814 131.555 301.127 131.388 300.992 129.076L300.825 127.031L297.809 107.663L296.871 107.73L292.917 126.294V126.261Z" fill="#C10230"/>
<path d="M351.794 152.499L351.392 158.564C351.157 162.25 348.242 162.083 346.767 161.882L343.986 161.547L336.681 160.843C335.307 160.675 331.252 160.173 331.923 156.554L332.76 151.728L335.676 128.07C336.379 122.507 337.05 116.911 337.854 111.449C337.854 111.282 337.887 111.081 337.921 110.913C338.021 110.176 337.753 109.405 334.637 109.036L331.386 108.634C325.958 107.964 326.393 105.317 326.896 101.128C327.03 100.022 327.164 98.95 327.332 97.7436C327.533 96.0011 328.169 92.8512 333.363 93.4879L338.222 94.091L350.454 95.8671L358.898 96.8388C362.718 97.308 368.013 97.308 369.353 98.6819C369.99 99.3186 370.057 100.525 369.822 102.536L369.253 107.193C368.582 112.589 366.438 112.957 364.461 112.723L360.641 112.253C357.625 111.885 356.653 112.253 356.452 113.962L351.794 152.532V152.499Z" fill="#C10230"/>
<path d="M414.793 169.891C413.252 175.755 412.213 175.688 407.589 174.482L401.825 172.974C397.77 171.901 396.463 171.399 397.837 166.138L404.305 141.273L402.06 140.704L386.444 163.189C383.193 167.847 382.892 168.081 378.267 166.875L369.119 164.496C364.595 163.323 364.729 160.508 366.003 155.683L379.306 104.613L379.708 102.636C380.144 100.458 380.881 99.0508 385.975 100.358L392.978 102.167C397.603 103.374 397.1 105.317 396.229 108.735L389.728 133.7L391.973 134.303C397.502 126.998 402.864 119.257 408.326 110.846L409.532 108.97C410.37 107.562 411.375 106.959 414.425 107.763L424.679 110.444C428.063 111.315 429.873 112.254 428.264 118.42L414.86 169.924L414.793 169.891Z" fill="#C10230"/>
<path d="M128.65 256.513C130.057 261.037 129.32 261.439 125.735 262.512L121.278 263.885C118.128 264.857 117.056 265.025 115.816 260.97L109.918 241.769L108.175 242.305L107.003 263.684C106.734 268.141 106.634 268.376 103.082 269.482L96.0113 271.66C92.5262 272.732 91.4539 270.788 90.3146 267.069L78.184 227.628L77.6143 226.153C77.0111 224.545 76.9106 223.271 80.8313 222.065L86.2264 220.39C89.8119 219.284 90.2811 220.792 91.0853 223.439L97.0166 242.707L98.7591 242.171C99.4293 235.033 99.8314 227.661 99.999 219.853V218.111C99.999 216.838 100.435 216.033 102.814 215.296L110.756 212.85C113.369 212.046 114.944 211.945 116.419 216.67L128.65 256.446V256.513Z" fill="white"/>
<path d="M154.419 202.596C156.899 202.027 158.675 201.959 159.211 204.473C159.379 205.176 159.446 205.914 159.613 207.053C160.15 209.968 160.384 210.873 160.485 211.443L166.651 239.055C168.024 245.254 168.226 244.919 168.996 248.337C169.767 251.789 167.723 252.761 165.679 253.196L159.379 254.604C157.77 254.972 155.224 255.24 154.386 251.454L148.354 224.311C148.053 222.903 148.153 222.501 147.952 220.792C147.818 219.284 147.885 218.446 147.65 217.307C147.148 215.129 145.506 215.263 144.433 215.498C140.245 216.436 140.647 218.614 141.149 220.792L148.287 252.861C148.723 254.771 149.896 256.715 143.562 258.122L140.077 258.893C137.597 259.463 134.716 260.468 134.012 257.217C133.945 256.882 133.945 256.48 133.878 256.145C133.71 254.57 133.275 253.029 132.939 251.487L124.495 213.587C123.825 210.572 123.49 209.466 128.918 208.259L154.453 202.563L154.419 202.596Z" fill="white"/>
<path d="M211.42 221.529C212.124 226.321 212.827 233.76 211.32 238.05C209.577 243.177 204.182 247.901 193.09 249.51C188.834 250.113 183.171 250.348 178.279 246.494C174.023 243.11 171.912 237.446 170.27 226.187C169.063 217.91 168.427 210.94 170.906 205.847C174.392 198.776 182.937 196.765 187.896 196.028C192.856 195.291 198.083 195.123 202.774 198.374C208.304 202.16 209.409 208.025 210.18 213.319L211.353 221.529H211.42ZM187.36 230.778C187.829 233.928 188.164 235.603 189.37 236.441C190.309 237.111 191.515 237.145 192.319 237.044C194.028 236.81 195.134 236.207 195.871 234.799C196.81 232.923 196.408 230.878 195.603 225.249L193.861 213.219C193.425 210.136 191.616 207.924 188.734 208.36C187.661 208.527 186.355 209.063 185.684 210.169C184.579 212.012 185.115 215.129 185.316 216.637L187.36 230.811V230.778Z" fill="white"/>
<path d="M240.34 235.871L240.943 240.596C241.345 243.445 239.066 243.78 237.893 243.847L235.715 244.014L229.985 244.584C228.879 244.651 225.729 244.885 225.696 242.004L225.595 238.184L224.221 219.586C223.886 215.196 223.585 210.839 223.35 206.517C223.35 206.383 223.35 206.215 223.35 206.081C223.317 205.511 222.982 204.942 220.535 205.143L217.989 205.344C213.699 205.645 213.666 203.568 213.398 200.25C213.331 199.379 213.264 198.541 213.197 197.603C213.096 196.229 213.096 193.716 217.184 193.414L221.004 193.146L230.655 192.644L237.29 192.074C240.306 191.839 244.327 191.069 245.601 191.906C246.17 192.308 246.439 193.213 246.539 194.788L246.807 198.441C247.109 202.663 245.534 203.3 243.959 203.4L240.976 203.635C238.597 203.802 237.927 204.204 238.028 205.578L240.34 235.871Z" fill="white"/>
<path d="M252.604 196.397C252.604 194.587 252.035 192.811 253.744 191.706C254.481 191.27 255.754 191.035 259.306 191.002L276.799 190.868C280.619 190.868 281.557 191.706 281.658 194.587C281.658 194.956 281.658 195.291 281.658 195.66C281.658 196.464 281.758 197.168 281.758 197.972C281.758 198.106 281.758 198.206 281.758 198.341V198.977C281.691 202.429 279.613 202.529 277.335 202.529H269.761C268.488 202.529 267.114 202.596 267.148 205.411V207.723C267.181 209.6 268.823 210.002 270.365 209.935L276.564 209.667C280.016 209.499 281.322 210.002 281.356 214.459V216.536C281.356 218.279 281.155 221.496 277.67 221.395L272.308 221.228C267.114 221.06 267.583 221.764 267.583 223.641V227.896C267.65 230.275 267.818 230.544 270.666 230.544L278.675 230.41C281.49 230.41 282.696 230.51 282.73 235.838V238.485C282.797 242.741 279.68 242.674 277.938 242.708C274.017 242.708 270.197 242.473 266.343 242.507C263.059 242.507 259.776 242.842 256.391 242.875C252.939 242.875 252.102 241.099 252.169 239.893L252.403 236.441C252.47 234.933 252.839 235.872 252.805 231.314L252.537 196.397H252.604Z" fill="white"/>
<path d="M300.155 191.705C302.165 191.839 303.707 191.94 303.472 195.257V195.76L302.132 209.733L303.506 209.834L309.671 194.52C310.241 193.112 310.911 192.442 313.358 192.61L322.807 193.247C324.282 193.347 325.354 193.649 325.254 194.788C325.187 195.726 324.483 196.765 324.081 197.368L314.631 212.615C314.329 213.185 313.994 213.721 313.86 214.425C315.335 219.92 316.508 223.707 317.68 227.092L320.629 236.039C321.534 238.787 322.941 242.339 322.841 243.78C322.807 244.416 322.372 245.187 319.825 245.019C318.384 244.919 317.01 244.684 315.569 244.584C314.463 244.517 313.291 244.584 312.185 244.483C307.828 244.182 307.56 244.048 306.723 240.227L302.634 222.132L301.462 222.065L300.289 239.658C300.021 243.612 298.546 243.578 295.932 243.411L291.643 243.109C285.812 242.707 286.08 241.802 286.315 237.915L288.862 201.792C288.929 200.786 288.895 199.781 288.962 198.776C288.996 198.206 289.063 197.536 289.096 196.966L289.297 194.017C289.465 191.705 290.135 191.035 294.793 191.37L300.155 191.739V191.705Z" fill="white"/>
<path d="M366.673 199.647C371.096 200.351 370.359 201.323 369.756 202.898L364.427 217.341C360.976 226.79 357.491 234.163 354.777 240.228C353.604 242.875 352.498 245.187 349.281 246.863C345.561 248.806 340.87 248.672 336.815 248.002C334.302 247.6 330.013 246.695 328.103 245.824C326.226 244.953 326.058 244.115 326.293 242.607L327.298 235.771C327.399 235.067 327.466 234.196 328.17 233.727C328.572 233.425 329.242 233.392 329.778 233.459C330.147 233.526 330.649 233.727 331.018 233.861C331.454 234.062 331.856 234.364 332.593 234.464C333.598 234.632 334.503 234.632 335.106 234.297C335.408 234.129 335.843 233.76 335.944 233.057C336.078 232.219 335.776 231.281 335.408 229.471C335.173 228.566 334.838 227.192 334.671 226.087L329.644 198.977C329.544 198.441 329.342 197.972 329.242 197.469C329.175 196.799 329.242 196.162 329.376 195.459C329.477 194.755 329.544 193.75 333.431 194.353L343.249 195.928C345.126 196.229 345.896 196.631 346.164 197.402C346.935 199.48 347.069 213.654 346.164 225.45L348.041 225.752C349.415 220.591 351.526 212.012 352.632 207.321C353.537 203.367 353.771 202.998 354.408 200.82C354.609 200.049 354.844 199.212 355.748 198.709C356.854 198.072 358.128 198.273 359.032 198.441L366.673 199.647Z" fill="white"/>
<path d="M381.418 254C381.149 255.106 380.814 256.145 377.631 255.374L369.756 253.498C368.349 253.162 366.774 252.626 367.343 250.247L369.186 242.473C369.521 241.132 369.89 240.328 372.973 241.099L380.848 242.975C382.523 243.378 383.83 243.847 383.261 246.226L381.418 254ZM375.285 238.418C371.934 237.614 372.504 236.709 372.805 235.067L377.664 203.735C377.899 202.395 378.703 201.758 381.82 202.495L390.164 204.473C393.615 205.31 393.917 206.047 392.945 208.862L383.462 237.614C382.758 239.758 382.389 240.094 379.843 239.49L375.319 238.418H375.285Z" fill="white"/>
<path d="M579.494 133.567L552.452 86.1836C547.827 78.0742 538.545 73.9524 529.464 75.963L476.183 87.6245C472.095 88.5293 464.522 90.8414 459.864 96.4041C457.015 99.8221 455.239 103.944 453.966 106.96L453.396 108.233C452.391 110.411 397.334 234.23 391.068 248.338C387.348 256.716 387.683 265.495 392.039 273.035C395.323 278.765 400.819 283.456 407.756 286.539L481.712 320.317C484.058 321.356 488.816 323.032 494.412 322.63C502.019 322.06 511.201 317.637 517.937 302.457L580.165 162.586C582.276 157.828 584.454 152.332 583.918 146.367C583.583 141.307 581.371 136.884 579.494 133.567Z" fill="#C10230"/>
<path d="M568.135 147.641C568.135 145.563 566.426 142.614 565.755 141.408L538.713 94.0247C537.54 91.9806 535.194 90.9418 532.882 91.4445L479.601 103.106C479.333 103.173 473.804 104.48 472.061 106.557C470.319 108.635 468.844 112.656 467.873 114.801C466.901 116.946 405.611 254.772 405.611 254.772C402.093 262.68 406.784 268.745 414.391 272.13L488.213 305.841C495.82 309.225 500.009 303.931 503.527 296.023L565.755 156.152C567.397 152.466 568.436 149.517 568.168 147.674L568.135 147.641Z" fill="#FFCE00"/>
<path d="M488.421 127.325L483.464 138.47C482.953 139.62 483.47 140.966 484.62 141.478L494.693 145.958C495.843 146.47 497.19 145.952 497.701 144.803L502.659 133.658C503.17 132.508 502.653 131.161 501.503 130.65L491.43 126.169C490.28 125.657 488.933 126.175 488.421 127.325Z" fill="#C10230"/>
<path d="M526.928 143.939L521.316 154.769C520.737 155.887 521.174 157.262 522.291 157.841L532.08 162.913C533.197 163.491 534.572 163.055 535.151 161.938L540.763 151.107C541.342 149.99 540.905 148.615 539.788 148.036L529.999 142.964C528.882 142.385 527.506 142.822 526.928 143.939Z" fill="#C10230"/>
<path d="M510.071 181.805L504.46 192.635C503.881 193.753 504.317 195.128 505.435 195.707L515.224 200.779C516.341 201.358 517.716 200.921 518.295 199.804L523.907 188.974C524.486 187.856 524.049 186.481 522.932 185.902L513.143 180.83C512.025 180.251 510.65 180.688 510.071 181.805Z" fill="#C10230"/>
<path d="M457.261 202.828L451.65 213.658C451.071 214.775 451.507 216.15 452.625 216.729L462.414 221.801C463.531 222.38 464.906 221.944 465.485 220.826L471.097 209.996C471.676 208.879 471.239 207.504 470.122 206.925L460.333 201.853C459.215 201.274 457.84 201.71 457.261 202.828Z" fill="#C10230"/>
<path d="M439.817 240.733L435.273 252.053C434.804 253.221 435.371 254.548 436.539 255.016L446.77 259.123C447.938 259.592 449.265 259.025 449.734 257.857L454.277 246.537C454.746 245.37 454.179 244.043 453.012 243.574L442.78 239.467C441.612 238.998 440.285 239.565 439.817 240.733Z" fill="#C10230"/>
<path d="M473.135 165.865L468.177 177.01C467.666 178.159 468.184 179.506 469.333 180.018L479.407 184.498C480.556 185.01 481.903 184.492 482.415 183.342L487.372 172.198C487.884 171.048 487.366 169.701 486.216 169.19L476.143 164.709C474.993 164.197 473.646 164.715 473.135 165.865Z" fill="#C10230"/>
<path d="M493.493 219.915L488.536 231.06C488.024 232.209 488.542 233.556 489.692 234.068L499.765 238.548C500.915 239.06 502.261 238.542 502.773 237.392L507.73 226.248C508.242 225.098 507.724 223.751 506.574 223.24L496.501 218.759C495.351 218.247 494.004 218.765 493.493 219.915Z" fill="#C10230"/>
<path d="M477.571 257.056L471.76 267.781C471.16 268.887 471.571 270.27 472.678 270.87L482.371 276.122C483.478 276.721 484.861 276.31 485.46 275.204L491.271 264.479C491.871 263.373 491.46 261.99 490.353 261.39L480.66 256.138C479.553 255.539 478.17 255.95 477.571 257.056Z" fill="#C10230"/>
</svg>
