<svg width="309" height="65" viewBox="0 0 309 65" fill="none" xmlns="http://www.w3.org/2000/svg">
<path d="M0.624731 32.4998C-1.61154 23.5547 4.11955 14.6214 13.2253 13.1723C42.094 8.57804 103.789 0 162 0C212.958 0 267.218 8.08125 294.189 12.7247C303.499 14.3274 309.099 23.7289 306.327 32.7596L299.957 53.511C297.671 60.9591 290.396 65.6923 282.656 64.8049C254.794 61.6106 188.835 54.7933 138.309 55.4289C99.1446 55.9216 47.6085 61.4121 23.1089 64.2792C15.0412 65.2233 7.51367 60.0556 5.5436 52.1753L0.624731 32.4998Z" fill="#C10230"/>
<g clip-path="url(#clip0_8_732)">
<path d="M29.1579 25.5655C29.5341 25.5089 29.821 25.4979 30.0186 25.5323C30.213 25.5458 30.3494 25.6001 30.4278 25.6952C30.5063 25.7903 30.546 25.9125 30.5471 26.062C30.5482 26.2115 30.5525 26.3818 30.5599 26.5731L30.5152 33.313C30.5045 35.5163 30.4415 37.5137 30.3261 39.3052C30.2285 41.0726 30.1386 42.6786 30.0566 44.1231C30.0223 44.7481 29.9519 45.3465 29.8455 45.9183C29.736 46.4692 29.4665 47.0227 29.0372 47.5789C28.5336 48.2103 27.9181 48.6663 27.1908 48.9466C26.4875 49.2448 25.7805 49.4473 25.0698 49.5541C24.8399 49.5887 24.577 49.6175 24.2812 49.6406C24.0095 49.6815 23.7242 49.703 23.4252 49.7052C23.1503 49.7252 22.8739 49.7347 22.5959 49.7337C22.3388 49.7296 22.1219 49.7088 21.9452 49.6713C21.571 49.5993 21.328 49.4755 21.2161 49.2999C21.1042 49.1244 21.0231 48.8694 20.9728 48.535L20.4888 45.5297C20.4637 45.3625 20.4386 45.1952 20.4134 45.028C20.4092 44.8576 20.4499 44.7019 20.5355 44.5608C20.6389 44.3956 20.8056 44.2957 21.0356 44.2611C21.0983 44.2517 21.173 44.2512 21.2597 44.2595C21.3465 44.2678 21.4228 44.2777 21.4887 44.2892C21.5785 44.3184 21.6684 44.3477 21.7583 44.3769C21.8451 44.3852 21.9512 44.38 22.0766 44.3611C22.4738 44.3014 22.7434 44.1753 22.8854 43.983C22.921 43.9349 22.9533 43.8659 22.9826 43.776C23.0296 43.6621 23.0405 43.5215 23.0153 43.3543C22.9871 43.1661 22.9154 42.9738 22.8004 42.7774C22.7031 42.5569 22.5739 42.2664 22.4128 41.9058C22.3218 41.7271 22.2156 41.5187 22.0943 41.2804C21.9698 41.0212 21.859 40.7814 21.7617 40.5609L16.893 29.7182C16.8355 29.62 16.778 29.5218 16.7204 29.4236C16.6838 29.3222 16.6367 29.2224 16.5792 29.1242C16.5154 28.9841 16.4741 28.8514 16.4552 28.726C16.4332 28.5797 16.4097 28.4229 16.3845 28.2557C16.3719 28.1721 16.3698 28.0869 16.3781 28.0001C16.3656 27.9165 16.3964 27.8371 16.4706 27.7618C16.5416 27.6656 16.6576 27.584 16.8185 27.5171C16.9972 27.4261 17.2538 27.3555 17.5882 27.3052L21.0058 26.7913C21.3403 26.741 21.5854 26.7362 21.7411 26.7769C21.9178 26.8145 22.05 26.9122 22.1379 27.0699C22.2529 27.2664 22.4449 27.7612 22.7138 28.5544C22.9795 29.3267 23.2704 30.2663 23.5865 31.373C23.9025 32.4798 24.2254 33.703 24.5551 35.0429C24.8817 36.3618 25.1826 37.6525 25.458 38.915L26.1164 38.816C26.0702 38.2244 26.013 37.5597 25.9448 36.8218C25.8975 36.0808 25.8382 35.3309 25.7668 34.5721C25.7164 33.8102 25.6586 33.0707 25.5936 32.3537C25.5285 31.6368 25.4776 31.0138 25.4408 30.485C25.3957 30.0429 25.3632 29.6844 25.3433 29.4095C25.3233 29.1346 25.3096 28.9016 25.3023 28.7103C25.2949 28.519 25.2891 28.3382 25.2848 28.1679C25.2806 27.9975 25.27 27.7853 25.2532 27.5313C25.249 27.361 25.2447 27.1906 25.2405 27.0202C25.254 26.8258 25.3229 26.6445 25.4473 26.4761C25.5893 26.2838 25.7529 26.163 25.9379 26.1138C26.1406 26.0406 26.3256 25.9914 26.4928 25.9662L29.1579 25.5655Z" fill="white"/>
<path d="M36.8212 24.622C37.2823 24.5618 37.6455 24.5676 37.9107 24.6395C38.1941 24.6878 38.4083 24.777 38.5532 24.9073C38.6954 25.0166 38.7893 25.1642 38.8349 25.3501C38.8805 25.536 38.9157 25.7233 38.9403 25.9119L38.9691 26.132L39.657 33.1088C39.6844 33.3184 39.7236 33.5371 39.7747 33.7649C39.8258 33.9928 39.9566 34.1782 40.1672 34.3212C40.3568 34.467 40.6611 34.5125 41.0803 34.4577C41.4157 34.4138 41.6836 34.2616 41.884 34.0009C42.0298 33.8113 42.1072 33.588 42.1162 33.331C42.1435 33.0503 42.1407 32.7842 42.1078 32.5327C42.064 32.1974 42.022 31.9577 41.9819 31.8137C41.96 31.6461 41.9289 31.4902 41.8888 31.3463C41.8669 31.1786 41.8304 30.9808 41.7793 30.753C41.7464 30.5015 41.6971 30.1242 41.6314 29.6212L41.0767 25.3769C41.0521 25.1883 41.0288 25.0101 41.0069 24.8424C41.0059 24.672 41.0615 24.5262 41.1736 24.405C41.2856 24.2837 41.4738 24.1739 41.738 24.0754C42.0233 23.9742 42.4383 23.888 42.9833 23.8167L44.4609 23.6236C44.9011 23.5661 45.267 23.5929 45.5586 23.704C45.8475 23.7942 46.029 24.1222 46.1029 24.6881C46.1248 24.8558 46.1363 25.0248 46.1372 25.1952C46.1591 25.3629 46.176 25.5739 46.1879 25.8281C46.2519 26.4806 46.3017 26.9431 46.3373 27.2156C46.3701 27.4671 46.3948 27.6557 46.4112 27.7815L48.0259 40.1371L48.6544 44.2119C48.6817 44.4215 48.6909 44.6547 48.6819 44.9117C48.691 45.145 48.6619 45.33 48.5945 45.4667C48.4834 45.7584 48.3076 45.9626 48.067 46.0793C47.8447 46.1723 47.6287 46.2325 47.4191 46.2599L45.1869 46.5516C44.9564 46.5817 44.7454 46.5986 44.554 46.6023C44.3836 46.6033 44.2287 46.5596 44.0892 46.4712C43.947 46.3619 43.8294 46.196 43.7364 45.9737C43.6407 45.7304 43.5627 45.3782 43.5024 44.9171L43.2682 43.1251C43.1943 42.5592 43.1418 42.0757 43.1107 41.6748C43.0796 41.2738 43.0567 40.9357 43.0421 40.6605C43.0274 40.3853 43.0183 40.152 43.0146 39.9606C43.0109 39.7692 42.9967 39.5792 42.9721 39.3906C42.9337 39.0972 42.8462 38.9167 42.7095 38.8493C42.5937 38.7792 42.4939 38.7496 42.4101 38.7606C42.3053 38.7742 42.164 38.8353 41.9864 38.9438C41.8296 39.0496 41.6296 39.1503 41.3863 39.2461C41.164 39.3391 40.9403 39.4216 40.7152 39.4937C40.4901 39.5657 40.2204 39.6223 39.906 39.6634C39.3611 39.7346 38.7765 39.747 38.1522 39.7007C37.5462 39.6307 36.9784 39.3638 36.4488 38.9001C36.1352 38.6213 35.8791 38.2924 35.6803 37.9133C35.4788 37.5133 35.3192 37.1078 35.2016 36.6968C35.0812 36.2649 34.9817 35.8302 34.9032 35.3928C34.8457 34.9527 34.7923 34.544 34.743 34.1667L33.7939 26.9042C33.7501 26.5689 33.7236 26.2846 33.7144 26.0513C33.7025 25.797 33.7394 25.5897 33.825 25.4293C33.9316 25.2661 34.1065 25.1367 34.3498 25.0409C34.5931 24.9452 34.9558 24.8658 35.4379 24.8028L36.8212 24.622Z" fill="white"/>
<path d="M52.4147 38.8383C52.4213 38.7099 52.4302 38.6025 52.4415 38.5161C52.4504 38.4087 52.4594 38.3013 52.4683 38.1939C52.4772 38.0865 52.4825 37.9475 52.4842 37.7771C52.5069 37.6043 52.5235 37.379 52.5341 37.1012C52.5562 36.1837 52.582 35.2977 52.6114 34.4433C52.6618 33.5864 52.7121 32.7295 52.7625 31.8727C52.8339 31.0134 52.8936 30.1448 52.9416 29.2669C53.0081 28.3656 53.0698 27.4223 53.1267 26.437L53.1694 25.6981C53.1937 25.3548 53.2088 25.0233 53.2146 24.7035C53.2203 24.3837 53.2519 24.1034 53.3094 23.8628C53.3854 23.5987 53.4884 23.3847 53.6185 23.2208C53.7696 23.0545 53.9816 22.9556 54.2546 22.9242L58.129 22.4786C58.318 22.4569 58.5292 22.4432 58.7626 22.4377C58.996 22.4321 59.2088 22.5246 59.4009 22.7153C59.4502 22.7735 59.5018 22.8527 59.5559 22.9528C59.61 23.053 59.6854 23.2464 59.7822 23.5332C59.8976 23.7965 60.038 24.1846 60.2034 24.6975C60.3664 25.1894 60.5907 25.8445 60.8763 26.6627L62.2365 30.7192C62.3994 31.2111 62.5212 31.6226 62.6019 31.9537C62.7011 32.2615 62.8112 32.6637 62.9321 33.1605C63.0741 33.6548 63.2564 34.3147 63.479 35.1402C63.7016 35.9656 64.0364 37.1187 64.4833 38.5992C64.618 39.0305 64.7656 39.4816 64.9262 39.9525C65.0843 40.4025 65.2412 40.8419 65.3969 41.2708C65.5502 41.6787 65.6801 42.068 65.7866 42.4387C65.9116 42.7861 65.9887 43.0857 66.0177 43.3377C66.0611 43.7157 65.9584 44.0254 65.7096 44.2668C65.4608 44.5082 65.1264 44.653 64.7064 44.7013L61.9975 45.0129C61.7455 45.0419 61.5165 44.9938 61.3106 44.8685C61.1257 44.7408 60.9909 44.5861 60.9062 44.4044C60.8214 44.2226 60.7589 44.049 60.7186 43.8834C60.6993 43.7154 60.6634 43.4961 60.611 43.2255C60.5634 42.9969 60.5195 42.7999 60.4792 42.6343C60.4599 42.4663 60.4078 42.2914 60.3231 42.1097C60.1843 41.8278 60.0119 41.6242 59.806 41.4989C59.6187 41.3502 59.3151 41.3001 58.8951 41.3484C58.7061 41.3701 58.509 41.4141 58.3038 41.4802C58.0963 41.5254 57.9028 41.6008 57.7235 41.7065C57.5627 41.7889 57.4266 41.9003 57.3151 42.0407C57.2246 42.1788 57.1902 42.3424 57.2119 42.5313L57.3702 43.6302C57.442 44.0688 57.4503 44.4189 57.3953 44.6805C57.3613 44.9398 57.278 45.1408 57.1455 45.2837C57.013 45.4266 56.8547 45.5299 56.6705 45.5937C56.505 45.634 56.3172 45.6662 56.1072 45.6904L53.2093 46.0237C52.9153 46.0575 52.6807 46.0526 52.5054 46.0089C52.3488 45.9418 52.2236 45.8711 52.13 45.7968C52.0339 45.7014 51.9798 45.6013 51.9677 45.4963C51.9347 45.3937 51.9145 45.3109 51.9073 45.2479C51.8783 44.9959 51.8739 44.773 51.8942 44.5792C51.912 44.3644 51.9412 44.0631 51.9817 43.6755L52.4147 38.8383ZM56.8634 34.784C56.8545 34.8914 56.8432 34.9779 56.8294 35.0433C56.8342 35.0853 56.8391 35.1273 56.8439 35.1693C56.8487 35.2113 56.8467 35.286 56.8378 35.3934C56.8474 35.4774 56.8538 35.6256 56.857 35.838L56.8751 35.9955C56.9082 36.0981 57.0055 36.2039 57.167 36.313C57.3494 36.4197 57.6717 36.4464 58.1337 36.3933C58.4066 36.3619 58.6643 36.2897 58.9066 36.1767C59.1466 36.0427 59.2331 35.7775 59.1662 35.3809L59.0235 34.6952L57.2583 28.2278L57.0099 28.2883L56.8634 34.784Z" fill="white"/>
<path d="M77.9168 41.9128C77.9398 42.1442 77.9408 42.3671 77.9196 42.5817C77.9195 42.7941 77.8542 42.9918 77.7236 43.1747C77.591 43.3365 77.3817 43.4742 77.0956 43.5876C76.8095 43.701 76.4035 43.7838 75.8776 43.8361C75.2676 43.8968 74.6756 43.9238 74.1014 43.9171C73.5482 43.9084 73.0109 43.845 72.4893 43.7269C71.9678 43.6088 71.4705 43.414 70.9974 43.1424C70.5222 42.8497 70.0786 42.4478 69.6667 41.9364C68.7755 40.878 68.1453 39.5599 67.776 37.9822C67.4257 36.3814 67.1586 34.6555 66.9745 32.8045C66.7654 30.7011 66.7213 28.8681 66.8421 27.3054C66.9629 25.7427 67.38 24.4905 68.0936 23.5486C68.4704 23.0651 68.8986 22.672 69.3783 22.3694C69.856 22.0458 70.3514 21.7948 70.8647 21.6163C71.3991 21.4357 71.9271 21.2982 72.4487 21.2039C72.9914 21.1075 73.4836 21.0373 73.9254 20.9934C74.1357 20.9725 74.3471 20.9621 74.5595 20.9622C74.793 20.9602 75.0001 21.014 75.1809 21.1235C75.3597 21.2119 75.5026 21.3676 75.6097 21.5906C75.7358 21.7905 75.8187 22.0903 75.8585 22.4899L75.9618 23.8498L76.1409 25.0109C76.1933 25.3243 76.1869 25.5798 76.1216 25.7775C76.0773 25.9731 75.9973 26.1297 75.8815 26.2474C75.7847 26.342 75.6648 26.4177 75.5217 26.4744C75.3976 26.508 75.283 26.53 75.1778 26.5404L74.5152 26.6063C74.368 26.621 74.2218 26.6461 74.0767 26.6818C73.9525 26.7154 73.84 26.7584 73.739 26.8109C73.3119 27.0021 72.9879 27.268 72.7668 27.6086C72.5668 27.9471 72.4383 28.3635 72.3812 28.8577C72.3241 29.3519 72.3164 29.9156 72.3581 30.5487C72.4209 31.1797 72.4909 31.8844 72.5683 32.6626C72.6519 33.504 72.7335 34.2181 72.8131 34.805C72.8906 35.3708 72.9703 35.8514 73.0521 36.2469C73.1528 36.6192 73.2462 36.918 73.3323 37.1431C73.4164 37.3471 73.5077 37.5186 73.6065 37.6575C73.7557 37.8763 73.967 38.0783 74.2403 38.2636C74.5347 38.4467 74.8911 38.5069 75.3097 38.444L76.5655 38.2555C76.8158 38.2093 77.0103 38.2431 77.1491 38.3568C77.2878 38.4704 77.3887 38.6303 77.4517 38.8365C77.5126 39.0216 77.5556 39.2404 77.5807 39.4928C77.6247 39.7221 77.6572 39.9419 77.6781 40.1522L77.9168 41.9128Z" fill="white"/>
<path d="M89.1251 39.279L89.3947 41.3564C89.4423 41.6706 89.4319 41.926 89.3635 42.1226C89.2934 42.2982 89.1987 42.4334 89.0794 42.5283C88.9811 42.6213 88.8592 42.6846 88.7135 42.718C88.5889 42.7497 88.4739 42.7699 88.3686 42.7788L87.6103 42.8424L85.6251 43.0725C85.5197 43.0813 85.3819 43.0823 85.2117 43.0754C85.0642 43.0877 84.9027 43.0588 84.7271 42.9887C84.5726 42.9168 84.4251 42.8019 84.2846 42.644C84.1651 42.4843 84.1027 42.2456 84.0973 41.9279L84.02 40.2481L83.3337 32.0648C83.2524 31.0959 83.1721 30.1375 83.0926 29.1896C83.0113 28.2207 82.9415 27.2614 82.883 26.3117L82.8671 26.1222C82.8565 25.9958 82.7942 25.8843 82.68 25.7879C82.5658 25.6914 82.2981 25.6608 81.8769 25.6961L80.9922 25.7703C80.613 25.8021 80.3243 25.7733 80.1259 25.6839C79.9274 25.5945 79.7667 25.4489 79.6438 25.2471C79.5418 25.0435 79.468 24.7951 79.4222 24.502C79.3975 24.2071 79.3701 23.8806 79.34 23.5225L79.242 22.3535C79.2296 22.2061 79.226 22.0367 79.2312 21.8453C79.2346 21.6329 79.2714 21.4389 79.3415 21.2634C79.4327 21.086 79.5677 20.9262 79.7467 20.7839C79.9468 20.6399 80.2258 20.5528 80.5839 20.5228L81.9109 20.4115L85.268 20.2254L87.5718 20.0004C87.8246 19.9792 88.0975 19.9457 88.3907 19.8999C88.6838 19.8541 88.9673 19.8197 89.2411 19.7967C89.5149 19.7738 89.7589 19.7745 89.9731 19.799C90.1855 19.8024 90.3488 19.8523 90.4629 19.9488C90.6456 20.1032 90.766 20.5279 90.8243 21.223L90.9595 22.8344C90.9984 23.2978 90.9977 23.6691 90.9574 23.9482C90.9172 24.2273 90.8506 24.445 90.7577 24.6013C90.6647 24.7576 90.5463 24.863 90.4024 24.9175C90.2795 24.9702 90.1549 25.0019 90.0285 25.0125L88.9859 25.0999C88.5646 25.1352 88.2847 25.2117 88.146 25.3294C88.0074 25.4471 87.9505 25.6534 87.9752 25.9483L89.1251 39.279Z" fill="white"/>
<path d="M98.6813 26.7959C98.6881 26.9013 98.7384 27.0252 98.8323 27.1674C98.9249 27.2885 99.0872 27.3416 99.3192 27.3266C100.585 27.245 101.174 26.5291 101.087 25.1791C101.061 24.7784 100.977 24.466 100.836 24.2422C100.693 23.9972 100.533 23.8169 100.356 23.7012C100.179 23.5855 100.006 23.5226 99.8357 23.5124C99.6642 23.4811 99.5363 23.4681 99.4519 23.4736C99.4097 23.4763 99.3359 23.4811 99.2304 23.4879C99.125 23.4947 99.0209 23.5226 98.9181 23.5716C98.8154 23.6206 98.7147 23.7012 98.616 23.8135C98.5371 23.9033 98.5037 24.0431 98.516 24.233L98.6813 26.7959ZM99.1742 35.9145C99.1932 36.2098 99.2405 36.4504 99.316 36.6361C99.4113 36.7995 99.5144 36.9199 99.6253 36.9975C99.7362 37.075 99.8451 37.121 99.9519 37.1353C100.08 37.1482 100.197 37.1512 100.302 37.1444C100.45 37.1349 100.617 37.1029 100.804 37.0485C101.012 36.9927 101.195 36.875 101.353 36.6954C101.531 36.4933 101.672 36.2194 101.777 35.8737C101.882 35.5281 101.916 35.0705 101.879 34.5009C101.863 34.2478 101.825 33.9855 101.765 33.714C101.725 33.42 101.634 33.1611 101.492 32.9373C101.37 32.6909 101.189 32.5014 100.947 32.3687C100.704 32.215 100.382 32.151 99.9816 32.1768C99.4964 32.2081 99.2092 32.3537 99.1201 32.6137C99.031 32.8736 98.9925 33.0985 99.0048 33.2883L99.1742 35.9145ZM100.369 18.9663C100.917 18.9309 101.491 18.9575 102.089 19.0459C102.709 19.133 103.274 19.3508 103.784 19.6992C104.314 20.0462 104.761 20.5681 105.124 21.2649C105.508 21.9603 105.738 22.9092 105.816 24.1116C105.911 25.5881 105.802 26.686 105.488 27.4053C105.196 28.1231 104.7 28.6529 104.002 28.9944C104.957 29.3564 105.632 29.9695 106.027 30.8337C106.441 31.6754 106.7 32.8978 106.804 34.501C106.851 35.2393 106.848 36.0126 106.794 36.821C106.739 37.6082 106.523 38.353 106.144 39.0552C105.821 39.6268 105.449 40.0956 105.028 40.4617C104.626 40.8053 104.199 41.0765 103.746 41.2751C103.291 41.4527 102.823 41.5783 102.34 41.6517C101.858 41.7252 101.395 41.7763 100.952 41.8048L96.5857 42.0865C96.3536 42.1015 96.0781 42.0981 95.7589 42.0763C95.4398 42.0545 95.1925 41.9963 95.0169 41.9017C94.906 41.8242 94.8002 41.6615 94.6995 41.4138C94.6199 41.1648 94.5529 40.6184 94.4984 39.7746L94.429 38.6989C94.3787 37.9184 94.3494 37.1366 94.3413 36.3534C94.3331 35.5702 94.3039 34.7883 94.2535 34.0079C94.1923 33.0586 94.1113 32.1319 94.0106 31.2276C93.9086 30.3021 93.8269 29.3648 93.7657 28.4156C93.7317 27.8883 93.7116 27.413 93.7055 26.9897C93.698 26.5454 93.678 26.0701 93.6453 25.5639C93.6337 25.0562 93.6062 24.4649 93.5627 23.7899C93.5178 23.0938 93.4303 22.231 93.3004 21.2015C93.2908 21.0538 93.2793 20.8745 93.2657 20.6636C93.2507 20.4316 93.3004 20.2166 93.4147 20.0185C93.5277 19.7994 93.7172 19.6178 93.9832 19.4735C94.2704 19.3279 94.6888 19.248 95.2386 19.2337L96.6033 19.2092L100.369 18.9663Z" fill="white"/>
<path d="M121.294 17.9252C121.674 17.9081 121.961 17.9268 122.154 17.9816C122.346 18.0152 122.476 18.0834 122.544 18.1861C122.612 18.2888 122.639 18.4146 122.625 18.5634C122.61 18.7121 122.597 18.882 122.584 19.073L121.84 25.7718C121.6 27.9621 121.33 29.9421 121.029 31.7119C120.748 33.4597 120.492 35.0476 120.26 36.4758C120.161 37.0939 120.029 37.6817 119.864 38.2393C119.698 38.7758 119.372 39.2984 118.888 39.807C118.321 40.3827 117.662 40.7722 116.909 40.9755C116.179 41.199 115.454 41.327 114.737 41.3594C114.504 41.3699 114.24 41.3713 113.943 41.3635C113.669 41.3759 113.383 41.3677 113.085 41.3389C112.81 41.3301 112.534 41.3109 112.257 41.2811C112.002 41.2503 111.788 41.207 111.617 41.1513C111.252 41.0409 111.023 40.8925 110.93 40.7063C110.837 40.5201 110.783 40.258 110.768 39.9202L110.598 36.8809C110.591 36.7119 110.583 36.543 110.576 36.3741C110.589 36.2042 110.646 36.0535 110.746 35.9221C110.866 35.7685 111.042 35.6865 111.274 35.676C111.337 35.6731 111.412 35.6803 111.497 35.6976C111.583 35.7149 111.657 35.7327 111.722 35.751C111.808 35.7894 111.894 35.8278 111.981 35.8662C112.066 35.8835 112.172 35.8893 112.299 35.8836C112.7 35.8654 112.981 35.7681 113.143 35.5915C113.183 35.5474 113.222 35.4821 113.261 35.3957C113.319 35.2873 113.345 35.1486 113.337 34.9797C113.329 34.7896 113.277 34.5909 113.183 34.3836C113.109 34.1542 113.011 33.8518 112.888 33.4765C112.816 33.2893 112.733 33.0709 112.637 32.8214C112.54 32.5507 112.454 32.3006 112.381 32.0712L108.664 20.7814C108.617 20.6778 108.57 20.5741 108.523 20.4704C108.498 20.3658 108.461 20.2617 108.414 20.158C108.365 20.0121 108.338 19.8758 108.332 19.7491C108.325 19.6013 108.318 19.4429 108.311 19.274C108.307 19.1895 108.314 19.1046 108.331 19.0191C108.327 18.9347 108.366 18.8589 108.448 18.7917C108.528 18.7034 108.652 18.6343 108.819 18.5845C109.006 18.5125 109.269 18.4689 109.607 18.4536L113.059 18.2976C113.397 18.2823 113.641 18.303 113.792 18.3596C113.964 18.4154 114.085 18.5262 114.156 18.6923C114.25 18.8997 114.39 19.4117 114.575 20.2286C114.759 21.0243 114.95 21.989 115.15 23.1226C115.349 24.2562 115.543 25.5064 115.732 26.8732C115.92 28.2189 116.085 29.5339 116.228 30.8181L116.893 30.7881C116.908 30.1949 116.921 29.5278 116.929 28.7869C116.959 28.0449 116.978 27.2929 116.986 26.5308C117.015 25.7678 117.034 25.0263 117.044 24.3065C117.054 23.5866 117.068 22.9618 117.086 22.432C117.088 21.9876 117.092 21.6277 117.101 21.3522C117.11 21.0767 117.12 20.8435 117.133 20.6525C117.145 20.4615 117.158 20.2811 117.172 20.1112C117.185 19.9413 117.197 19.7292 117.207 19.4748C117.22 19.3049 117.234 19.1351 117.247 18.9652C117.281 18.7732 117.368 18.6 117.509 18.4455C117.671 18.2689 117.846 18.1658 118.035 18.1361C118.244 18.0843 118.433 18.0546 118.602 18.047L121.294 17.9252Z" fill="white"/>
<path d="M130.347 13.0598C130.538 13.0549 130.666 13.1044 130.732 13.2084C130.776 13.2707 130.81 13.3544 130.834 13.4595C130.857 13.5646 130.925 13.7215 131.036 13.93C131.103 14.0552 131.234 14.2209 131.43 14.4273C131.646 14.612 131.997 14.698 132.483 14.6854C132.906 14.6744 133.22 14.5817 133.427 14.4071C133.634 14.2326 133.788 14.0489 133.889 13.8559C133.99 13.6842 134.05 13.5663 134.07 13.5024C134.089 13.4173 134.118 13.3214 134.158 13.2146C134.197 13.1079 134.238 13.0434 134.279 13.0212C134.342 12.9772 134.426 12.9539 134.531 12.9512L136.275 12.9059C136.359 12.9037 136.444 12.9226 136.53 12.9627C136.637 13.0022 136.714 13.1271 136.762 13.3373L136.769 13.6226C136.74 14.1519 136.636 14.6092 136.456 14.9945C136.296 15.3793 136.041 15.7242 135.69 16.0294C135.276 16.3996 134.818 16.6652 134.315 16.8263C133.811 16.9663 133.221 17.045 132.545 17.0626C131.995 17.0768 131.423 17.0388 130.829 16.9486C130.255 16.8366 129.719 16.5545 129.221 16.1022C128.853 15.7523 128.589 15.3786 128.431 14.9809C128.294 14.5827 128.199 14.2046 128.148 13.8465L128.14 13.5612C128.159 13.4761 128.188 13.3802 128.228 13.2735C128.289 13.1662 128.414 13.1101 128.604 13.1051L130.347 13.0598ZM140.006 38.1193C140.02 38.6476 140.009 39.0602 139.975 39.3571C139.94 39.6329 139.861 39.8464 139.738 39.9976C139.635 40.1272 139.479 40.2158 139.269 40.2635C139.058 40.2902 138.794 40.3076 138.477 40.3158L136.861 40.3578C136.565 40.3655 136.322 40.3612 136.131 40.345C135.94 40.3289 135.78 40.259 135.65 40.1355C135.541 40.0115 135.451 39.8235 135.381 39.5716C135.332 39.298 135.301 38.9287 135.289 38.4639L135.059 29.6207L134.425 29.6372L132.088 38.547C131.973 39.0152 131.866 39.3774 131.767 39.6337C131.689 39.8895 131.588 40.0824 131.465 40.2125C131.341 40.3426 131.185 40.4312 130.996 40.4784C130.806 40.5045 130.553 40.5216 130.236 40.5299L127.669 40.5965C127.035 40.613 126.628 40.4016 126.447 39.9622C126.287 39.5012 126.196 38.8375 126.173 37.9711L125.702 19.8094L125.652 19.1129C125.647 18.9227 125.653 18.7534 125.67 18.605C125.687 18.4354 125.736 18.2966 125.818 18.1888C125.921 18.0593 126.066 17.9603 126.255 17.892C126.464 17.8231 126.749 17.784 127.108 17.7747L129.073 17.7237C129.39 17.7154 129.634 17.7514 129.805 17.8315C129.998 17.9111 130.138 18.0343 130.227 18.2012C130.316 18.3469 130.363 18.5465 130.37 18.8001C130.397 19.032 130.414 19.2958 130.422 19.5917L130.652 28.4665L131.286 28.45C132.141 25.5521 132.96 22.4543 133.741 19.1566L133.912 18.4226C133.968 18.1463 134.069 17.9428 134.213 17.8122C134.379 17.6599 134.673 17.5782 135.095 17.5672L137.98 17.4923C138.212 17.4863 138.424 17.5019 138.615 17.5393C138.806 17.5766 138.968 17.6781 139.099 17.8439C139.229 17.9885 139.331 18.2185 139.402 18.5338C139.473 18.828 139.516 19.2497 139.53 19.7991L140.006 38.1193Z" fill="white"/>
<path d="M164.413 38.0724C164.41 38.6009 164.387 39.0129 164.343 39.3087C164.3 39.5833 164.214 39.7942 164.087 39.9416C163.981 40.0679 163.822 40.1517 163.61 40.193C163.399 40.2131 163.134 40.2225 162.817 40.221L161.2 40.2133C160.904 40.2119 160.661 40.2002 160.471 40.1782C160.281 40.1562 160.123 40.0814 159.997 39.954C159.891 39.8267 159.808 39.636 159.746 39.3821C159.705 39.1071 159.685 38.7371 159.687 38.2721L159.729 29.426L159.095 29.4231L156.485 38.257C156.356 38.7214 156.238 39.0802 156.131 39.3333C156.046 39.5866 155.939 39.7763 155.811 39.9025C155.684 40.0288 155.525 40.1126 155.335 40.1539C155.144 40.1742 154.891 40.1836 154.574 40.1821L152.005 40.1699C151.371 40.1669 150.971 39.9431 150.804 39.4984C150.658 39.0327 150.587 38.3665 150.591 37.4999L150.677 19.3322L150.649 18.6345C150.649 18.4443 150.661 18.2753 150.683 18.1274C150.705 17.9584 150.758 17.8213 150.843 17.716C150.949 17.5896 151.098 17.4952 151.288 17.4327C151.5 17.3703 151.786 17.3399 152.145 17.3416L154.111 17.3509C154.428 17.3524 154.671 17.3958 154.839 17.4812C155.029 17.5666 155.166 17.6941 155.25 17.8636C155.334 18.012 155.375 18.213 155.374 18.4666C155.394 18.6992 155.403 18.9635 155.402 19.2594L155.36 28.1371L155.994 28.1401C156.937 25.2698 157.85 22.1986 158.732 18.9264L158.926 18.198C158.991 17.9235 159.097 17.7232 159.246 17.5971C159.416 17.4499 159.712 17.3773 160.135 17.3793L163.02 17.393C163.253 17.3941 163.464 17.4162 163.654 17.4594C163.844 17.5025 164.002 17.609 164.128 17.7787C164.254 17.9272 164.348 18.1602 164.41 18.4775C164.472 18.7738 164.502 19.1967 164.499 19.7462L164.413 38.0724Z" fill="white"/>
<path d="M179.591 25.5127C179.587 25.6184 179.625 25.7466 179.704 25.8974C179.784 26.0272 179.94 26.0962 180.172 26.1044C181.44 26.1492 182.098 25.4956 182.145 24.1436C182.16 23.7422 182.107 23.4231 181.989 23.1863C181.871 22.9283 181.73 22.733 181.565 22.6002C181.401 22.4675 181.234 22.3876 181.066 22.3605C180.899 22.3123 180.773 22.2867 180.688 22.2837C180.646 22.2822 180.572 22.2796 180.466 22.2759C180.361 22.2721 180.254 22.2895 180.147 22.328C180.04 22.3666 179.932 22.4368 179.823 22.5387C179.735 22.6202 179.688 22.756 179.681 22.9461L179.591 25.5127ZM179.173 34.6352C179.163 34.9309 179.186 35.175 179.242 35.3673C179.321 35.5393 179.411 35.6694 179.514 35.7576C179.617 35.8459 179.72 35.9024 179.825 35.9273C179.951 35.9529 180.067 35.9675 180.173 35.9713C180.321 35.9765 180.49 35.9613 180.682 35.9258C180.895 35.891 181.089 35.7921 181.264 35.6291C181.46 35.4457 181.628 35.1873 181.767 34.8537C181.906 34.5202 181.985 34.0683 182.005 33.4979C182.014 33.2444 182.002 32.9796 181.97 32.7035C181.959 32.407 181.894 32.1404 181.776 31.9035C181.679 31.6463 181.517 31.4396 181.29 31.2835C181.064 31.1063 180.75 31.0106 180.349 30.9965C179.863 30.9793 179.562 31.0956 179.448 31.3453C179.333 31.5951 179.273 31.815 179.266 32.0052L179.173 34.6352ZM182.049 17.8901C182.598 17.9095 183.166 17.9931 183.753 18.1407C184.362 18.2891 184.902 18.562 185.374 18.9594C185.868 19.3576 186.26 19.9214 186.552 20.6508C186.864 21.381 186.999 22.3481 186.957 23.5522C186.905 25.031 186.687 26.1125 186.303 26.7969C185.94 27.4821 185.395 27.9599 184.666 28.2302C185.58 28.6856 186.191 29.3628 186.498 30.262C186.826 31.1408 186.962 32.3829 186.905 33.9884C186.879 34.7277 186.799 35.4969 186.665 36.2959C186.532 37.0738 186.242 37.7933 185.796 38.4543C185.417 38.9909 185 39.4203 184.545 39.7426C184.111 40.0445 183.659 40.2718 183.188 40.4244C182.718 40.5558 182.239 40.6341 181.752 40.6591C181.265 40.6842 180.799 40.6889 180.356 40.6732L175.983 40.5187C175.75 40.5105 175.477 40.4796 175.161 40.4262C174.846 40.3727 174.605 40.2902 174.44 40.1786C174.338 40.0904 174.248 39.918 174.173 39.6616C174.119 39.4058 174.106 38.8555 174.136 38.0105L174.174 36.9331C174.202 36.1515 174.251 35.3707 174.32 34.5906C174.39 33.8104 174.439 33.0296 174.467 32.248C174.5 31.2974 174.512 30.3671 174.502 29.4573C174.492 28.5263 174.505 27.5855 174.538 26.6349C174.557 26.1068 174.584 25.6319 174.62 25.2102C174.657 24.7673 174.684 24.2924 174.702 23.7854C174.741 23.2791 174.773 22.688 174.797 22.012C174.821 21.3149 174.82 20.4477 174.793 19.4104C174.799 19.2625 174.805 19.0829 174.813 18.8717C174.821 18.6393 174.892 18.4303 175.025 18.2447C175.159 18.0379 175.366 17.876 175.645 17.759C175.945 17.6427 176.37 17.6048 176.918 17.6453L178.278 17.7568L182.049 17.8901Z" fill="white"/>
<path d="M194.68 35.2564C194.663 35.5519 194.68 35.7964 194.732 35.99C194.807 36.1637 194.894 36.2959 194.995 36.3864C195.096 36.477 195.198 36.5359 195.302 36.5632C195.428 36.5916 195.543 36.609 195.649 36.6151C195.796 36.6237 195.967 36.6019 196.161 36.5497C196.354 36.4974 196.53 36.3807 196.689 36.1994C196.869 36.0193 197.022 35.753 197.149 35.4004C197.275 35.0478 197.356 34.5655 197.392 33.9536C197.407 33.7004 197.4 33.4459 197.373 33.1902C197.366 32.9358 197.306 32.6993 197.192 32.4809C197.1 32.2427 196.952 32.0541 196.748 31.9152C196.546 31.7551 196.276 31.6653 195.938 31.6456C195.685 31.6309 195.482 31.6614 195.33 31.7372C195.199 31.7931 195.099 31.8825 195.028 32.0054C194.959 32.1073 194.91 32.2209 194.881 32.3462C194.854 32.4505 194.838 32.5449 194.833 32.6293L194.68 35.2564ZM191.356 41.0654C191.124 41.0518 190.85 41.0148 190.536 40.9541C190.222 40.8934 189.984 40.8054 189.821 40.6901C189.721 40.5995 189.636 40.4252 189.566 40.167C189.517 39.9101 189.518 39.3596 189.567 38.5155L189.63 37.4394C189.675 36.6586 189.742 35.879 189.829 35.1007C189.917 34.3224 189.984 33.5429 190.029 32.7621C190.117 31.2639 190.179 30.0183 190.215 29.0252C190.273 28.0335 190.31 27.2204 190.326 26.5861C190.342 25.9518 190.34 25.4436 190.319 25.0613C190.322 24.6591 190.322 24.2886 190.321 23.9497C190.319 23.6109 190.319 23.2614 190.318 22.9015C190.339 22.5428 190.366 22.0785 190.4 21.5088L190.512 19.5779C190.531 19.2614 190.566 19.0094 190.62 18.822C190.673 18.6345 190.765 18.5023 190.897 18.4252C191.03 18.3271 191.213 18.2743 191.446 18.2667C191.702 18.2393 192.03 18.2372 192.431 18.2606L193.887 18.3455C194.309 18.3701 194.645 18.4109 194.896 18.4678C195.148 18.5037 195.333 18.6097 195.449 18.7859C195.567 18.941 195.627 19.188 195.629 19.5268C195.652 19.8458 195.648 20.2902 195.614 20.86L195.36 25.228C195.334 25.6712 195.335 26.01 195.364 26.2446C195.393 26.4792 195.446 26.6517 195.524 26.7621C195.604 26.8515 195.706 26.9104 195.832 26.9389C195.958 26.9462 196.095 26.9542 196.243 26.9628L197.478 27.0348C198.174 27.0754 198.769 27.216 199.263 27.4565C199.757 27.6971 200.166 27.9538 200.489 28.2267C201.255 28.8854 201.767 29.7199 202.026 30.7301C202.285 31.7403 202.369 33.0157 202.28 34.5561C202.236 35.2947 202.157 35.9358 202.04 36.4796C201.946 37.0034 201.835 37.4522 201.708 37.8259C201.601 38.2008 201.478 38.5006 201.338 38.7253C201.22 38.9302 201.126 39.0941 201.055 39.217C200.707 39.7472 200.311 40.1688 199.87 40.4819C199.429 40.7738 198.972 40.9906 198.498 41.1324C198.025 41.253 197.545 41.3203 197.057 41.3342C196.59 41.3494 196.146 41.3446 195.724 41.32L191.356 41.0654ZM207.624 19.1463C208.046 19.1709 208.372 19.2111 208.602 19.2668C208.854 19.3027 209.038 19.4087 209.155 19.5849C209.273 19.74 209.343 19.9876 209.366 20.3277C209.39 20.6467 209.385 21.091 209.352 21.6608L208.38 36.6903L208.24 40.1758C208.218 40.5557 208.179 40.871 208.122 41.1217C208.066 41.3514 207.96 41.5358 207.804 41.6749C207.649 41.7929 207.432 41.8755 207.154 41.9229C206.877 41.9491 206.528 41.9499 206.106 41.9253L204.998 41.8607C204.681 41.8422 204.386 41.825 204.112 41.809C203.86 41.7732 203.652 41.7081 203.488 41.6138C203.325 41.4985 203.198 41.3217 203.106 41.0834C203.035 40.8464 203.013 40.5063 203.038 40.0631L203.138 38.3539C203.153 38.1007 203.163 37.9213 203.169 37.8158C203.197 37.7115 203.214 37.5961 203.221 37.4695C203.25 37.3441 203.271 37.1653 203.284 36.9332C203.299 36.68 203.322 36.279 203.354 35.7304C203.372 35.435 203.398 34.9813 203.434 34.3693C203.471 33.7363 203.512 33.0294 203.557 32.2486C203.604 31.4467 203.653 30.6132 203.703 29.748C203.775 28.8841 203.833 28.0617 203.879 27.2809C203.926 26.4791 203.967 25.7722 204.002 25.1602C204.06 24.5284 204.099 24.0542 204.117 23.7377L204.172 22.7881C204.186 22.556 204.189 22.3232 204.181 22.0899C204.175 21.8354 204.189 21.5928 204.224 21.3619C204.234 21.1931 204.24 21.0875 204.242 21.0453C204.246 20.982 204.248 20.9398 204.25 20.9187C204.251 20.8976 204.241 20.8865 204.22 20.8852C204.221 20.8641 204.225 20.8008 204.231 20.6953L204.249 20.3788C204.268 20.0623 204.304 19.8103 204.357 19.6228C204.41 19.4354 204.503 19.3031 204.634 19.2261C204.767 19.128 204.95 19.0751 205.183 19.0675C205.439 19.0401 205.767 19.0381 206.168 19.0614L207.624 19.1463Z" fill="white"/>
<path d="M225.506 41.1726C225.463 41.6994 225.409 42.1085 225.343 42.4C225.279 42.6705 225.177 42.8743 225.039 43.0115C224.923 43.1294 224.758 43.2008 224.544 43.2258C224.332 43.2298 224.068 43.2189 223.752 43.1932L222.14 43.0622C221.845 43.0383 221.603 43.0081 221.416 42.9716C221.228 42.9351 221.076 42.8485 220.959 42.7118C220.864 42.5769 220.796 42.3804 220.753 42.1225C220.733 41.8451 220.742 41.4747 220.78 41.0112L221.496 32.1942L220.864 32.1428L217.588 40.7519C217.424 41.2051 217.279 41.5538 217.153 41.7981C217.048 42.0441 216.927 42.2251 216.79 42.3413C216.654 42.4574 216.489 42.5288 216.296 42.5556C216.105 42.5612 215.851 42.5512 215.535 42.5255L212.975 42.3175C212.343 42.2662 211.961 42.0124 211.828 41.5563C211.718 41.0808 211.699 40.4112 211.769 39.5474L213.24 21.4392L213.265 20.7414C213.28 20.5518 213.305 20.3841 213.338 20.2383C213.373 20.0715 213.436 19.9388 213.529 19.8403C213.645 19.7225 213.8 19.6396 213.995 19.5918C214.211 19.5458 214.497 19.5373 214.856 19.5664L216.815 19.7256C217.131 19.7513 217.37 19.8131 217.532 19.9111C217.714 20.0107 217.841 20.1483 217.912 20.3237C217.984 20.478 218.01 20.6816 217.989 20.9344C217.991 21.1679 217.981 21.4321 217.957 21.727L217.238 30.5757L217.87 30.627C219.029 27.8371 220.174 24.8444 221.303 21.649L221.552 20.9376C221.637 20.6688 221.759 20.4772 221.917 20.3628C222.097 20.229 222.398 20.1793 222.819 20.2135L225.695 20.4472C225.927 20.466 226.136 20.5042 226.322 20.5618C226.508 20.6193 226.658 20.7375 226.771 20.9163C226.885 21.0741 226.961 21.3135 226.998 21.6347C227.038 21.9348 227.035 22.3587 226.991 22.9065L225.506 41.1726Z" fill="white"/>
<path d="M231.259 23.6995L231.37 22.2131C231.389 22.0238 231.407 21.8344 231.425 21.6451C231.465 21.4577 231.533 21.2945 231.632 21.1553C231.73 21.0162 231.878 20.9137 232.076 20.8478C232.273 20.7819 232.551 20.7663 232.908 20.8008C233.182 20.8272 233.433 20.8622 233.663 20.9055C233.915 20.9299 234.241 20.9614 234.641 21L238.523 21.375C238.839 21.4054 239.145 21.4244 239.441 21.4318C239.759 21.4412 240.029 21.4992 240.253 21.6057C240.478 21.6912 240.643 21.8558 240.746 22.0994C240.871 22.345 240.899 22.7193 240.829 23.2223L240.595 24.9835C240.573 25.2149 240.54 25.4454 240.497 25.6748C240.476 25.8852 240.404 26.08 240.281 26.2592C240.181 26.4194 240.009 26.5514 239.765 26.6553C239.544 26.7402 239.224 26.7623 238.803 26.7216L237.256 26.5723C237.13 26.5601 237.003 26.5584 236.875 26.5673C236.748 26.5551 236.63 26.5754 236.518 26.6284C236.409 26.6603 236.305 26.7459 236.207 26.885C236.132 27.0052 236.082 27.1915 236.057 27.4439L234.771 40.7621L234.668 42.8227C234.662 43.0982 234.609 43.3161 234.509 43.4763C234.411 43.6154 234.294 43.721 234.16 43.7929C234.025 43.8649 233.884 43.9043 233.734 43.9111C233.585 43.9179 233.447 43.9152 233.321 43.903C232.984 43.8705 232.66 43.818 232.349 43.7454C232.037 43.6729 231.724 43.6213 231.408 43.5909C231.177 43.5685 230.955 43.5577 230.742 43.5584C230.528 43.5802 230.305 43.5799 230.073 43.5575C229.989 43.5494 229.896 43.5297 229.792 43.4985C229.708 43.4904 229.627 43.4507 229.549 43.3795C229.494 43.2892 229.442 43.1674 229.393 43.014C229.367 42.8416 229.369 42.6082 229.397 42.3136C229.411 42.1663 229.423 42.0506 229.431 41.9665C229.462 41.8633 229.483 41.7591 229.493 41.6539C229.503 41.5487 229.515 41.4225 229.529 41.2752C229.565 41.1299 229.594 40.9311 229.619 40.6786L231.259 23.6995Z" fill="white"/>
<path d="M242.163 40.0981L243.496 29.6874C243.699 28.115 243.828 26.9065 243.883 26.0617C243.941 25.1959 243.976 24.6149 243.99 24.3185L244.042 23.5904C244.049 23.1656 244.176 22.7974 244.425 22.4857C244.552 22.3089 244.682 22.1963 244.815 22.1479C244.97 22.1019 245.174 22.083 245.428 22.0912L246.381 22.1376C247.312 22.1815 248.221 22.2336 249.107 22.2937C249.997 22.3328 250.825 22.4393 251.592 22.6132C252.359 22.7872 253.064 23.039 253.707 23.3688C254.35 23.6985 254.891 24.1655 255.332 24.7698C255.72 25.2828 255.995 25.8466 256.158 26.4613C256.342 27.0784 256.461 27.6987 256.517 28.3222C256.572 28.9457 256.578 29.5422 256.533 30.1115C256.509 30.6833 256.473 31.1792 256.425 31.5991C256.313 32.565 256.153 33.3976 255.944 34.0969C255.735 34.7963 255.517 35.3987 255.288 35.9042C255.062 36.3887 254.824 36.7867 254.575 37.0984C254.347 37.4125 254.149 37.6555 253.98 37.8275C253.736 38.0971 253.441 38.3502 253.094 38.5867C252.748 38.8232 252.361 39.0338 251.936 39.2186C251.534 39.3848 251.094 39.5042 250.618 39.5767C250.162 39.6517 249.705 39.6519 249.245 39.5774L248.65 39.4766C248.485 39.4362 248.274 39.4224 248.017 39.4352C247.781 39.4505 247.594 39.5033 247.456 39.5937C247.294 39.7027 247.18 39.8597 247.114 40.0648C247.048 40.2699 247.005 40.4565 246.985 40.6245C246.963 40.8134 246.933 41.0759 246.894 41.4119C246.855 41.7478 246.819 42.2437 246.786 42.8995L246.721 44.0091C246.679 44.5575 246.514 44.8789 246.227 44.9733C245.939 45.0676 245.669 45.1002 245.417 45.0711C245.207 45.0468 244.998 45.012 244.791 44.9667C244.607 44.9028 244.42 44.8599 244.231 44.838C243.937 44.804 243.65 44.8027 243.37 44.8341C243.09 44.8655 242.804 44.8536 242.512 44.7986C242.095 44.729 241.857 44.5738 241.8 44.3331C241.745 44.0714 241.73 43.8356 241.754 43.6256L241.903 42.6214L242.163 40.0981ZM247.856 31.7243C247.759 32.5642 247.736 33.2212 247.787 33.6953C247.862 34.1508 248.246 34.4187 248.939 34.4989C249.401 34.5524 249.747 34.5073 249.976 34.3636C250.206 34.22 250.385 34.0492 250.514 33.8514C250.721 33.5349 250.855 33.2099 250.915 32.8763C250.995 32.5452 251.057 32.2012 251.098 31.8442C251.222 30.7734 251.286 29.9403 251.291 29.3451C251.297 28.7499 251.191 28.2802 250.976 27.9361C250.707 27.5007 250.31 27.2526 249.785 27.1918C249.449 27.1529 249.178 27.196 248.972 27.3211C248.79 27.4277 248.635 27.5693 248.508 27.7462C248.402 27.9254 248.325 28.1293 248.278 28.3578C248.232 28.5654 248.2 28.7532 248.181 28.9211L247.856 31.7243Z" fill="white"/>
<path d="M258.141 39.2028C258.179 39.08 258.214 38.9781 258.246 38.8971C258.281 38.7952 258.316 38.6933 258.351 38.5914C258.386 38.4895 258.426 38.3561 258.469 38.1914C258.534 38.0294 258.605 37.8151 258.684 37.5485C258.931 36.6647 259.174 35.8123 259.413 34.9914C259.673 34.1733 259.933 33.3552 260.192 32.5371C260.473 31.7218 260.745 30.8946 261.007 30.0555C261.294 29.1984 261.586 28.2993 261.883 27.3583L262.107 26.6526C262.215 26.3259 262.311 26.0083 262.395 25.6997C262.479 25.3912 262.579 25.1273 262.694 24.9082C262.833 24.671 262.985 24.489 263.152 24.3621C263.339 24.2381 263.569 24.1945 263.841 24.2312L267.706 24.753C267.895 24.7784 268.103 24.8172 268.33 24.8693C268.558 24.9213 268.741 25.0634 268.881 25.2955C268.914 25.364 268.945 25.4534 268.972 25.5638C269 25.6742 269.026 25.8803 269.049 26.182C269.096 26.4657 269.136 26.8764 269.17 27.4142C269.207 27.9311 269.263 28.6212 269.339 29.4846L269.659 33.751C269.696 34.2679 269.712 34.6968 269.709 35.0376C269.729 35.3603 269.737 35.7772 269.732 36.2885C269.748 36.8025 269.762 37.487 269.775 38.3419C269.787 39.1967 269.828 40.3967 269.897 41.9417C269.921 42.3929 269.953 42.8664 269.993 43.3624C270.035 43.8374 270.079 44.3019 270.125 44.7559C270.173 45.189 270.203 45.5983 270.215 45.9839C270.251 46.3513 270.252 46.6607 270.218 46.9121C270.167 47.2891 269.991 47.564 269.69 47.7367C269.39 47.9094 269.03 47.9675 268.611 47.911L265.909 47.5462C265.657 47.5122 265.447 47.4092 265.279 47.2371C265.131 47.0679 265.038 46.8847 265.001 46.6877C264.963 46.4907 264.946 46.307 264.947 46.1366C264.97 45.969 264.989 45.7477 265.005 45.4725C265.015 45.2393 265.021 45.0374 265.023 44.867C265.045 44.6994 265.038 44.5171 265 44.3201C264.935 44.0127 264.818 43.773 264.65 43.6009C264.505 43.4107 264.223 43.2873 263.804 43.2307C263.615 43.2053 263.413 43.1994 263.198 43.213C262.986 43.2057 262.78 43.2312 262.58 43.2895C262.404 43.3297 262.245 43.4042 262.102 43.5129C261.98 43.6245 261.907 43.7745 261.881 43.963L261.764 45.067C261.726 45.5097 261.648 45.8511 261.53 46.0912C261.433 46.3341 261.303 46.5085 261.139 46.6144C260.976 46.7203 260.797 46.7814 260.603 46.7979C260.432 46.7962 260.242 46.7812 260.033 46.7529L257.142 46.3627C256.849 46.3231 256.623 46.2606 256.464 46.1751C256.328 46.0715 256.224 45.9722 256.152 45.8771C256.082 45.761 256.054 45.6506 256.069 45.5459C256.062 45.4383 256.063 45.3531 256.071 45.2903C256.105 45.0389 256.156 44.8218 256.223 44.6389C256.293 44.4351 256.396 44.1503 256.53 43.7846L258.141 39.2028ZM263.45 36.3683C263.415 36.4702 263.383 36.5512 263.354 36.6112C263.348 36.6531 263.342 36.695 263.337 36.7369C263.331 36.7787 263.311 36.8507 263.276 36.9526C263.264 37.0364 263.234 37.1816 263.185 37.3882L263.164 37.5453C263.17 37.6529 263.239 37.7794 263.368 37.9249C263.519 38.0732 263.825 38.1785 264.285 38.2407C264.558 38.2774 264.825 38.2709 265.088 38.221C265.354 38.1502 265.503 37.9144 265.535 37.5136L265.566 36.8138L265.447 30.111L265.191 30.1085L263.45 36.3683Z" fill="white"/>
<path d="M282.033 22.5921C282.221 22.6211 282.338 22.6927 282.385 22.8068C282.417 22.8759 282.435 22.9643 282.44 23.072C282.445 23.1797 282.484 23.346 282.556 23.571C282.599 23.7061 282.699 23.8925 282.854 24.1304C283.034 24.3507 283.365 24.4979 283.845 24.572C284.263 24.6365 284.589 24.6012 284.824 24.4663C285.058 24.3315 285.243 24.1781 285.376 24.0062C285.506 23.8552 285.587 23.7499 285.617 23.6905C285.651 23.6101 285.697 23.521 285.755 23.423C285.813 23.325 285.864 23.2687 285.909 23.2543C285.978 23.2222 286.065 23.2142 286.169 23.2303L287.893 23.4962C287.976 23.5091 288.057 23.5429 288.134 23.5975C288.232 23.6554 288.286 23.7921 288.295 24.0074L288.252 24.2894C288.129 24.8052 287.945 25.2367 287.699 25.5837C287.474 25.9339 287.161 26.2279 286.761 26.4656C286.288 26.7562 285.79 26.936 285.266 27.0049C284.746 27.0529 284.151 27.0253 283.482 26.9222C282.939 26.8384 282.383 26.6991 281.814 26.5044C281.27 26.2921 280.793 25.919 280.383 25.3853C280.083 24.9754 279.89 24.5607 279.805 24.1412C279.741 23.7249 279.715 23.336 279.728 22.9744L279.772 22.6924C279.806 22.6121 279.852 22.5229 279.909 22.4249C279.988 22.3301 280.122 22.2972 280.31 22.3262L282.033 22.5921ZM287.074 48.9711C286.994 49.4934 286.91 49.8975 286.823 50.1835C286.74 50.4487 286.624 50.6447 286.476 50.7716C286.352 50.8808 286.182 50.9402 285.967 50.9497C285.755 50.9384 285.492 50.9086 285.179 50.8602L283.581 50.6136C283.288 50.5685 283.05 50.521 282.865 50.4711C282.68 50.4212 282.535 50.3239 282.429 50.1792C282.344 50.0378 282.289 49.8369 282.265 49.5765C282.265 49.2985 282.301 48.9297 282.372 48.4701L283.72 39.7274L283.094 39.6307L279.207 47.9818C279.01 48.4221 278.841 48.7595 278.698 48.994C278.575 49.2318 278.442 49.4037 278.297 49.5097C278.152 49.6157 277.983 49.6751 277.788 49.6879C277.597 49.6798 277.345 49.6516 277.032 49.6032L274.493 49.2116C273.867 49.1149 273.504 48.8343 273.404 48.3698C273.329 47.8877 273.357 47.2183 273.489 46.3618L276.26 28.4064L276.335 27.7122C276.364 27.5242 276.4 27.3587 276.443 27.2157C276.49 27.0518 276.563 26.924 276.663 26.8325C276.787 26.7233 276.947 26.6518 277.145 26.6181C277.364 26.5877 277.65 26.5999 278.006 26.6547L279.948 26.9544C280.262 27.0028 280.496 27.0816 280.65 27.191C280.825 27.3035 280.941 27.4498 280.999 27.6298C281.06 27.789 281.071 27.9939 281.033 28.2446C281.018 28.4776 280.988 28.7403 280.943 29.0328L279.589 37.8068L280.216 37.9035C281.574 35.2042 282.93 32.3016 284.287 29.1957L284.586 28.504C284.69 28.2421 284.825 28.0598 284.991 27.957C285.181 27.8365 285.484 27.8085 285.902 27.873L288.754 28.3129C288.984 28.3484 289.189 28.4015 289.371 28.4723C289.552 28.5431 289.693 28.6717 289.793 28.8582C289.895 29.0238 289.954 29.2681 289.968 29.5911C289.986 29.8932 289.953 30.3159 289.869 30.859L287.074 48.9711Z" fill="white"/>
</g>
<defs>
<clipPath id="clip0_8_732">
<rect width="273.713" height="38.6366" fill="white" transform="translate(16.1355 12.3615)"/>
</clipPath>
</defs>
</svg>
