<svg width="1500" height="840" viewBox="0 0 1500 840" fill="none" xmlns="http://www.w3.org/2000/svg">
<g clip-path="url(#clip0_8_862)">
<rect width="1500" height="840" fill="#5C0F8B"/>
<g filter="url(#filter0_f_8_862)">
<ellipse cx="750" cy="379.5" rx="570" ry="200.5" fill="#8427C4"/>
</g>
<path d="M74.8169 142.76C72.3654 142.852 70.0868 143.416 68.2817 144.731C66.5539 145.989 65.3993 147.835 64.8899 150.249L64.7965 150.739L64.7966 150.741C64.7229 151.179 64.6752 151.618 64.6447 152.057C62.6096 152.308 60.7125 153.067 59.3616 154.61C57.4669 156.775 57.3325 159.604 58.0289 162.263C56.3084 163.084 54.8625 164.354 54.0969 166.209L53.9912 166.479L53.9913 166.481C53.317 168.331 53.3119 170.102 53.768 171.728C52.1405 172.982 50.8492 174.697 50.1578 176.947L50.0652 177.265L50.0653 177.266C47.839 185.337 38.4585 218.367 27.3756 268.063C27.2559 268.6 27.4393 269.159 27.854 269.521L27.8727 269.536C28.1602 269.787 28.5322 269.919 28.9132 269.905L50.2802 269.109C50.915 269.085 51.4609 268.665 51.6523 268.068L51.686 267.947C51.6861 267.946 51.6865 267.945 51.6868 267.944C51.6873 267.941 51.688 267.938 51.689 267.934C51.6911 267.925 51.6938 267.911 51.6979 267.893C51.7062 267.857 51.7187 267.804 51.7349 267.734C51.7675 267.593 51.8157 267.383 51.8788 267.11C52.0053 266.563 52.1912 265.759 52.4284 264.733C52.9028 262.68 53.5839 259.736 54.408 256.17C56.0564 249.037 58.279 239.418 60.5777 229.47C65.1751 209.574 70.0752 188.362 71.286 183.103C71.3667 182.753 71.4512 182.409 71.5339 182.07C72.7323 181.913 73.8908 181.543 74.8322 180.843C75.8706 180.07 76.5626 178.958 76.7609 177.557L76.7609 177.556C76.8794 176.721 76.7775 175.944 76.5152 175.229C77.3127 174.72 78.0152 174.015 78.6003 173.118L78.6013 173.117C79.1725 172.238 79.5163 171.33 79.6229 170.417C81.0064 170.202 82.2901 169.501 83.2786 168.17L83.2795 168.169C83.8807 167.358 84.2636 166.496 84.439 165.608C85.0746 165.832 86.1539 166.391 87.7067 167.27C89.3306 168.19 91.1135 169.247 93.3603 170.526C97.7077 173.001 103.111 175.906 108.775 178.052C111.41 179.052 113.8 178.726 115.73 177.6C115.882 177.511 116.029 177.417 116.173 177.319C117.725 177.485 119.173 177.107 120.405 176.335C122.042 175.311 123.234 173.646 123.883 171.814C125.175 168.162 124.447 163.328 120.065 160.752C116.438 158.621 103.867 151.136 91.7806 146.528C85.7678 144.236 79.6844 142.578 74.8169 142.76ZM55.0828 174.538C55.2198 174.744 55.3609 174.949 55.5114 175.147C57.3062 177.51 60.0488 179.36 62.8681 180.556C64.6898 181.33 66.6224 181.861 68.4502 182.067C68.4219 182.188 68.3907 182.309 68.3627 182.431C67.152 187.689 62.2526 208.898 57.6551 228.794C55.3565 238.742 53.1328 248.361 51.4844 255.493C50.6603 259.06 49.9803 262.004 49.5058 264.057C49.3066 264.919 49.1439 265.624 49.0219 266.152L30.7257 266.834C41.6071 218.265 50.7607 186.027 52.9572 178.064L53.0946 177.616C53.518 176.361 54.2032 175.347 55.0828 174.538ZM57.6204 172.941C59.5591 172.123 61.8883 171.822 64.222 171.961C66.0508 173.653 68.1373 175.031 70.2355 175.724C69.8733 176.796 69.5282 177.93 69.1987 179.126C67.6241 179.001 65.819 178.55 64.0401 177.794C61.5464 176.736 59.29 175.162 57.9 173.332C57.8017 173.203 57.7095 173.072 57.6204 172.941ZM73.2418 176.208C73.3808 176.204 73.5196 176.197 73.6582 176.185C73.7703 176.465 73.8152 176.73 73.8048 176.976L73.7903 177.135L73.7904 177.136C73.7052 177.738 73.4422 178.138 73.0412 178.436C72.8704 178.563 72.6627 178.678 72.4178 178.779C72.685 177.874 72.9591 177.017 73.2418 176.208ZM74.9288 145.759C79.1628 145.6 84.7732 147.067 90.7112 149.331C101.05 153.273 111.806 159.395 116.784 162.304L118.545 163.339C121.394 165.013 121.991 168.166 121.054 170.813C120.73 171.729 120.238 172.522 119.644 173.122C119.681 173.043 119.717 172.964 119.751 172.885C120.536 171.079 120.867 169.029 120.451 167.327C120.239 166.459 119.812 165.604 119.066 164.976C118.3 164.332 117.331 164.036 116.262 164.075L116 164.093C114.7 164.222 113.556 164.957 112.699 165.829C111.767 166.779 111.025 168.036 110.639 169.376C110.254 170.714 110.194 172.244 110.789 173.66C111.104 174.409 111.584 175.075 112.222 175.636C111.506 175.689 110.713 175.58 109.84 175.249L109.839 175.248C104.398 173.186 99.1569 170.373 94.8444 167.919C92.7612 166.733 90.7092 165.523 89.1858 164.66C87.6427 163.786 86.28 163.056 85.3227 162.739L85.3216 162.738C84.9546 162.616 84.5873 162.518 84.2206 162.443C83.9879 161.727 83.6436 161.043 83.225 160.399C81.741 158.118 79.1716 156.118 76.3504 154.657C73.6381 153.251 70.542 152.265 67.656 152.018C67.6799 151.757 67.7114 151.497 67.7549 151.238L67.7548 151.237C68.0954 149.239 68.9283 147.971 70.0476 147.156C71.2054 146.312 72.8298 145.838 74.9288 145.759ZM116.371 167.074C116.801 167.058 117.013 167.17 117.133 167.272C117.272 167.389 117.435 167.617 117.537 168.038C117.752 168.917 117.612 170.28 116.999 171.69C116.611 172.584 116.067 173.412 115.409 174.075C114.312 173.666 113.796 173.072 113.555 172.497C113.291 171.87 113.273 171.071 113.522 170.206C113.771 169.343 114.258 168.522 114.84 167.93C115.44 167.319 115.997 167.086 116.367 167.073L116.371 167.074ZM76.0636 170.019C76.2504 170.084 76.4371 170.143 76.6239 170.195C76.5595 170.575 76.3978 171.001 76.0871 171.479L75.8714 171.787C75.5346 172.23 75.1718 172.542 74.7982 172.762C74.7564 172.722 74.7153 172.682 74.6727 172.644C75.1243 171.669 75.5872 170.795 76.0636 170.019ZM61.9755 164.175C64.0828 163.824 66.5409 163.939 68.8779 164.448C69.4636 165.198 70.0837 165.893 70.7252 166.521C71.5572 167.335 72.4503 168.064 73.3735 168.669C72.951 169.374 72.5437 170.136 72.15 170.955C70.2481 169.992 67.9313 169.334 65.5453 169.066C65.5123 169.032 65.4773 169 65.4444 168.966C64.0382 167.513 62.8298 165.845 61.9755 164.175ZM59.0805 165.09C59.7267 166.44 60.5608 167.761 61.5122 168.993C59.7825 169.132 58.0699 169.502 56.4985 170.159C56.3852 169.302 56.4786 168.417 56.8099 167.508L56.8098 167.507C57.1791 166.501 57.9473 165.686 59.0805 165.09ZM81.4041 165.376C81.2956 165.705 81.1235 166.041 80.8705 166.382L80.73 166.558C80.2931 167.072 79.7594 167.371 79.1156 167.462C79.002 167.224 78.8735 166.994 78.7311 166.771C79.4373 166.175 80.1384 165.775 80.826 165.538C81.0164 165.473 81.2089 165.419 81.4041 165.376ZM67.7807 155.045C70.1048 155.304 72.6649 156.126 74.97 157.32C77.5291 158.647 79.6106 160.344 80.7105 162.035C80.7927 162.161 80.8675 162.287 80.9371 162.41C80.5725 162.481 80.2096 162.578 79.8501 162.701C78.7132 163.092 77.6525 163.733 76.666 164.591C75.0298 163.338 72.8834 162.395 70.6385 161.789C69.2256 159.77 68.175 157.425 67.7807 155.045ZM64.7488 155.07C65.0338 157.171 65.7386 159.211 66.708 161.077C64.721 160.886 62.7141 160.949 60.8853 161.327C60.3891 159.304 60.6543 157.689 61.6192 156.587C62.305 155.803 63.3653 155.284 64.7488 155.07Z" fill="white"/>
<path d="M109.474 238.66C108.718 238.321 107.831 238.659 107.491 239.414C107.152 240.17 107.49 241.058 108.246 241.397C124.479 248.683 137.878 257.137 146.999 266.349C156.118 275.56 160.839 285.395 160.081 295.522C159.852 298.565 158.943 302.343 157.408 307.124C155.877 311.893 153.753 317.572 151.139 324.399C145.915 338.037 138.773 356.158 130.671 380.392C114.463 428.869 94.4194 501.786 78.0578 612.512C74.2958 637.949 65.7771 656.228 47.9813 666.905C30.0811 677.645 2.45523 680.912 -40.0745 675.357C-60.9054 672.637 -76.4256 667.432 -88.1471 661.3C-74.7329 665.444 -58.9918 668.876 -41.3404 670.911C-15.7798 673.851 8.27812 671.789 26.3895 666.014C35.4437 663.126 43.0786 659.289 48.6711 654.626C54.2699 649.957 57.8897 644.397 58.7118 638.102C59.6598 630.844 55.3676 619.508 41.9701 609.644C28.7441 599.906 6.55084 591.497 -28.7878 589.54L-30.4811 589.451C-76.2614 587.22 -105.752 603.039 -121.038 607.294C-123.243 607.904 -125.088 608.264 -126.621 608.329C-128.149 608.394 -129.269 608.161 -130.11 607.683L-130.113 607.682C-131.421 606.943 -132.499 605.362 -133.042 602.005C-133.584 598.65 -133.539 593.826 -132.879 587.08C-131.747 575.458 -130.752 564.146 -129.896 553.161C-129.832 552.335 -130.449 551.614 -131.275 551.549C-132.101 551.485 -132.823 552.102 -132.887 552.928C-133.741 563.892 -134.734 575.186 -135.865 586.79C-136.531 593.597 -136.61 598.735 -136.004 602.485C-135.397 606.232 -134.051 608.902 -131.589 610.294L-131.588 610.293C-130.097 611.14 -128.362 611.406 -126.495 611.327C-124.63 611.248 -122.535 610.821 -120.24 610.187L-120.236 610.185C-104.311 605.752 -75.7655 590.247 -30.6272 592.448C5.32758 594.209 27.3808 602.628 40.1911 612.06C53.0399 621.52 56.4974 631.892 55.7371 637.714C55.0392 643.058 51.9478 647.987 46.7491 652.322C41.5439 656.662 34.2936 660.345 25.4785 663.156C7.85117 668.777 -15.7674 670.833 -40.9974 667.93L-42.6617 667.733C-65.325 664.989 -84.6669 659.934 -99.789 654.105C-104.812 650.452 -108.848 646.695 -112.15 643.092C-117.936 636.778 -121.503 630.914 -124.26 626.724C-125.608 624.676 -126.845 622.893 -128.087 621.757C-128.723 621.175 -129.444 620.683 -130.272 620.438C-131.137 620.181 -132.018 620.226 -132.883 620.567L-132.884 620.566C-135.607 621.64 -137.588 623.215 -138.503 625.346C-139.427 627.498 -139.116 629.872 -137.991 632.209C-135.782 636.797 -130.148 641.897 -121.916 646.852C-116.294 650.235 -109.355 653.613 -101.236 656.763C-88.3336 666.061 -69.3343 674.561 -40.463 678.332C2.23492 683.908 30.7226 680.758 49.5245 669.477C68.4306 658.134 77.2033 638.791 81.0249 612.952L81.025 612.951C97.3613 502.395 117.366 429.65 133.516 381.342C141.593 357.183 148.709 339.13 153.94 325.472C156.553 318.65 158.705 312.9 160.264 308.041C161.821 303.194 162.817 299.145 163.073 295.745C163.918 284.449 158.608 273.811 149.131 264.239C139.656 254.668 125.896 246.031 109.474 238.66ZM-131.124 623.314C-130.888 623.384 -130.557 623.565 -130.113 623.972C-129.193 624.813 -128.151 626.269 -126.766 628.374C-124.057 632.489 -120.346 638.587 -114.362 645.118C-112.889 646.725 -111.28 648.357 -109.516 649.993C-113.562 648.114 -117.189 646.195 -120.369 644.281C-128.489 639.394 -133.476 634.671 -135.288 630.908C-136.173 629.069 -136.221 627.636 -135.746 626.529C-135.262 625.401 -134.085 624.264 -131.784 623.357C-131.517 623.253 -131.322 623.255 -131.124 623.314Z" fill="white"/>
<path d="M51.5989 220.188C-2.44633 208.471 -64.8463 207.985 -106.957 225.886C-124.453 233.322 -132.875 242.415 -132.644 252.628C-132.62 253.692 -132.5 254.756 -132.29 255.819C-132.933 257.848 -133.347 259.971 -133.513 262.19C-134.185 271.154 -127.876 281.559 -116.451 291.703C-104.937 301.925 -87.9002 312.184 -66.3092 320.853C-23.1136 338.198 38.5068 349.26 111.161 340.817L111.163 340.817C111.424 340.786 111.853 340.839 112.357 341.045C112.849 341.246 113.306 341.551 113.631 341.894C113.958 342.239 114.082 342.546 114.1 342.771C114.115 342.955 114.076 343.273 113.661 343.731C112.731 344.76 110.232 346.117 104.649 347.145C99.155 348.157 90.9456 348.806 78.9511 348.679C53.8932 348.415 12.8643 345.501 -27.5092 335.787C-67.9452 326.059 -107.416 309.581 -129.694 282.402L-129.875 282.187C-130.314 281.68 -130.848 281.181 -131.475 280.946C-131.887 280.791 -132.41 280.725 -132.951 280.925C-133.474 281.119 -133.815 281.489 -134.028 281.821C-134.417 282.427 -134.582 283.23 -134.675 283.979C-134.775 284.784 -134.814 285.774 -134.811 286.918C-134.798 291.465 -134.101 299.185 -133.216 309.59C-131.438 330.479 -128.854 362.606 -129.234 403.242C-129.242 404.07 -128.577 404.748 -127.749 404.756C-126.92 404.764 -126.243 404.099 -126.235 403.27C-125.853 362.491 -128.446 330.252 -130.226 309.336C-131.119 298.839 -131.798 291.296 -131.811 286.909C-131.813 285.985 -131.783 285.235 -131.727 284.646C-108.756 312.404 -68.635 328.979 -28.2112 338.704C12.4417 348.485 53.7067 351.413 78.9188 351.679C91.01 351.806 99.4331 351.156 105.193 350.096C110.863 349.051 114.242 347.561 115.885 345.744C116.758 344.781 117.181 343.676 117.091 342.536C117.005 341.437 116.458 340.517 115.809 339.831C115.157 339.143 114.33 338.611 113.493 338.268C112.667 337.931 111.719 337.731 110.816 337.837L110.815 337.837C38.6404 346.224 -22.475 335.221 -65.1912 318.07C-86.5561 309.491 -103.269 299.394 -114.459 289.46C-125.736 279.448 -131.083 269.898 -130.522 262.414C-130.495 262.047 -130.459 261.683 -130.416 261.321C-129.4 263.433 -128.057 265.533 -126.419 267.609C-122.547 272.518 -116.975 277.386 -110.018 282.123C-82.2343 301.039 -31.4171 318.478 26.0585 327.896C54.8778 332.618 80.7418 332.811 101.697 329.737C122.604 326.671 138.805 320.326 148.11 311.808C152.783 307.529 155.775 302.645 156.657 297.311C157.541 291.963 156.273 286.351 152.771 280.69C145.817 269.45 129.937 257.812 103.59 246.922C57.0415 227.681 -0.992082 218.565 -47.8987 220.569C-71.3442 221.571 -92.128 225.356 -107.341 232.127C-117.264 236.543 -124.961 242.306 -129.386 249.501C-127.995 242.293 -120.943 235.09 -105.783 228.647L-105.783 228.646C-64.4857 211.091 -2.79761 211.464 50.9629 223.12C51.7725 223.295 52.5711 222.781 52.7467 221.972C52.9222 221.162 52.4084 220.364 51.5989 220.188ZM-47.7702 223.567C-1.27083 221.58 56.3247 230.631 102.444 249.694C128.632 260.519 143.776 271.853 150.22 282.269C153.417 287.436 154.441 292.322 153.697 296.822C152.951 301.335 150.394 305.649 146.084 309.595C137.421 317.525 121.915 323.74 101.262 326.769C80.6565 329.791 55.1063 329.616 26.5436 324.936C-30.7451 315.548 -81.0669 298.204 -108.329 279.643C-115.134 275.01 -120.443 270.341 -124.063 265.751C-126.708 262.398 -128.414 259.133 -129.18 255.991C-126.096 247.239 -118.075 240.187 -106.121 234.867C-91.391 228.311 -71.0275 224.561 -47.7702 223.567Z" fill="white"/>
<path d="M241.543 433.698C238.179 433.593 236.051 431.412 236.104 428.128C236.182 422.558 242.935 416.068 248.558 416.199C252.394 416.278 255.206 420.14 254.286 424.055C253.209 428.811 246.509 433.856 241.543 433.724V433.698ZM241.07 430.335C245.274 431.097 250.686 426.236 250.66 422.295C250.66 421.244 249.399 419.956 248.4 419.956C244.59 419.956 239.94 424.397 239.94 428.285C239.94 429.074 240.675 430.256 241.07 430.335Z" fill="white"/>
<path d="M232.74 395.047C233.371 391.106 237.181 387.848 240.991 388.005C243.749 388.111 245.195 390.16 244.433 392.866C243.382 396.624 241.043 399.041 237.128 399.645C234.054 400.118 232.241 398.147 232.74 395.073V395.047ZM236.787 395.625C238.284 396.702 239.414 395.993 240.465 395.126C241.463 394.311 241.306 393.628 239.834 392.052C238.205 392.709 236.892 393.655 236.787 395.625Z" fill="white"/>
<path d="M223.627 424.174C223.023 427.721 219.607 430.375 216.034 430.059C214.221 429.902 212.855 428.273 213.012 426.433C213.354 422.86 216.954 419.55 220.553 419.497C222.682 419.471 224.074 421.573 223.627 424.174ZM217.111 426.539C218.898 427.143 219.923 426.276 220.816 425.225C221 424.988 221.053 424.463 220.895 424.2C220.737 423.911 220.238 423.517 219.975 423.596C218.451 423.99 217.138 424.647 217.085 426.565L217.111 426.539Z" fill="white"/>
<path d="M949.018 265.186C954.457 273.298 951.43 293.638 943.128 298.913C934.851 304.187 914.558 298.747 909.118 290.611C899.279 275.924 910.939 268.474 919.217 263.199C927.495 257.925 940.125 251.918 949.018 265.186Z" fill="#C10230"/>
<path d="M926.312 251.184C922.812 251.941 920.21 254.306 919.619 256.955C918.696 257.026 917.798 257.286 916.994 257.783C916.639 258.019 916.308 258.279 916.024 258.587C913.493 258.445 910.655 259.817 908.763 262.371C906.043 266.013 904.009 273.653 906.965 275.758C909.638 277.673 915.504 274.386 918.602 271.051C921.676 273.842 925.957 276.042 928.228 274.575C930.64 273.038 930.12 267.882 928.559 263.932C928.772 263.908 928.985 263.861 929.198 263.814C933.691 262.844 940.408 258.445 939.604 254.945C938.8 251.444 930.806 250.191 926.312 251.16" fill="#B0DF30"/>
<path d="M921.086 264.311C920.494 264.69 919.714 264.524 919.335 263.956C914.25 256.364 916.403 246.147 924.16 241.204C924.752 240.825 925.532 240.991 925.911 241.559C926.289 242.126 926.123 242.883 925.556 243.262C918.957 247.471 917.136 256.128 921.44 262.585C921.819 263.152 921.653 263.909 921.086 264.287" fill="#262626"/>
<path d="M930.499 282.262C930.097 281.671 930.263 280.843 930.877 280.464C931.492 280.062 932.32 280.252 932.722 280.843C933.124 281.458 933.55 283.137 932.935 283.515C932.32 283.917 930.901 282.853 930.499 282.262Z" fill="#262626"/>
<path d="M935.821 290.185C935.419 289.594 935.584 288.766 936.199 288.388C936.814 287.986 937.642 288.175 938.044 288.766C938.446 289.381 938.872 291.06 938.257 291.439C937.642 291.841 936.223 290.777 935.821 290.185Z" fill="#262626"/>
<path d="M918.105 283.161C917.703 282.57 917.869 281.742 918.484 281.364C919.099 280.962 919.926 281.151 920.328 281.742C920.731 282.357 921.156 284.036 920.541 284.415C919.926 284.817 918.507 283.753 918.105 283.161Z" fill="#262626"/>
<path d="M923.899 290.327C923.379 289.807 923.403 288.979 923.947 288.482C924.491 287.985 925.318 288.009 925.839 288.529C926.335 289.05 927.068 290.634 926.525 291.131C925.981 291.628 924.42 290.847 923.899 290.303" fill="#262626"/>
<path d="M938.469 270.176C938.067 269.585 937.239 269.396 936.624 269.798C936.009 270.2 935.843 271.004 936.246 271.595C936.648 272.21 938.067 273.251 938.682 272.849C939.297 272.447 938.871 270.767 938.469 270.176Z" fill="#262626"/>
<path d="M942.869 278.242C942.585 277.58 941.804 277.272 941.119 277.556C940.433 277.84 940.125 278.597 940.409 279.259C940.693 279.921 941.899 281.198 942.585 280.914C943.271 280.631 943.153 278.904 942.869 278.242Z" fill="#262626"/>
<path d="M132.017 679.954C119.691 689.828 119.666 706.449 129.504 719.021C139.342 731.594 155.354 735.367 167.681 725.493C180.007 715.619 185.078 696.448 169.195 687.236C164.775 670.196 144.354 670.104 132.028 679.978" fill="#C10230"/>
<path d="M164.595 691.865C165.004 692.406 165.791 692.494 166.321 692.06C175.061 685.048 176.503 672.069 169.514 663.117C169.08 662.587 168.318 662.488 167.777 662.897C167.246 663.33 167.158 664.117 167.591 664.648C173.752 672.493 172.497 683.923 164.77 690.09C164.239 690.523 164.151 691.31 164.584 691.84" fill="#262626"/>
<path d="M163.805 691.836C165.388 693.879 167.673 695.156 170.197 695.464C170.866 695.546 171.482 695.046 171.564 694.377C171.646 693.708 171.16 693.057 170.467 692.985C168.588 692.77 166.901 691.808 165.727 690.306C164.553 688.803 164.024 686.933 164.229 685.03C164.301 684.336 163.825 683.709 163.132 683.638C162.463 683.556 161.846 684.055 161.764 684.725C161.477 687.297 162.208 689.827 163.781 691.847" fill="#262626"/>
<path d="M789.233 694.803C788.979 695.641 788.793 696.458 788.657 697.231C788.426 698.599 788.375 699.862 788.455 701.032C788.455 701.032 788.449 701.046 788.454 701.064C788.458 701.147 788.474 701.235 788.478 701.318C788.478 701.318 788.472 701.331 788.477 701.35C788.535 701.959 788.63 702.55 788.768 703.111C789.654 706.935 795.311 712.832 799.506 714.684C799.543 714.699 799.579 714.713 799.615 714.728C799.615 714.728 799.627 714.733 799.639 714.738C800.208 714.972 800.813 715.22 801.45 715.432C802.104 715.669 802.802 715.874 803.525 716.057C803.719 716.104 803.925 716.156 804.12 716.203C805.135 716.441 806.213 716.607 807.317 716.687C810.131 716.883 813.174 716.475 816.227 714.949C818.562 713.779 820.649 711.824 822.369 709.605C822.483 709.457 822.603 709.295 822.717 709.147C822.812 709.007 822.913 708.886 823.008 708.746C823.186 708.494 823.364 708.242 823.529 707.985C823.803 707.561 824.071 707.151 824.314 706.731C824.32 706.717 824.333 706.69 824.34 706.676C824.836 705.905 825.26 705.104 825.629 704.329C826.605 702.276 827.199 700.327 827.354 698.846C827.548 696.976 827.583 695.414 827.46 693.999C827.409 693.376 827.32 692.771 827.213 692.175C827.009 691.084 826.712 690.036 826.33 688.953C826.285 688.836 826.251 688.725 826.205 688.609C826.079 688.265 825.911 687.919 825.712 687.578C825.484 687.175 825.213 686.772 824.923 686.377C824.309 685.539 823.571 684.749 822.916 684.09C822.671 683.844 822.433 683.616 822.224 683.416C822.062 683.269 821.913 683.126 821.77 683.002C821.286 682.56 820.962 682.297 820.962 682.297C820.962 682.297 820.927 682.25 820.843 682.183C820.759 682.116 820.652 682.007 820.496 681.878C820.454 681.845 820.412 681.812 820.358 681.773C820.245 681.678 820.107 681.572 819.957 681.462C819.933 681.452 819.921 681.447 819.903 681.424C819.483 681.121 818.96 680.76 818.315 680.382C818.099 680.261 817.869 680.134 817.628 680.003C817.314 679.841 816.976 679.67 816.613 679.521C816.468 679.461 816.311 679.397 816.166 679.337C816.081 679.303 815.996 679.268 815.912 679.233C815.282 678.975 814.579 678.751 813.826 678.54C813.79 678.525 813.742 678.505 813.699 678.504C811.974 678.056 809.951 677.778 807.656 677.86C807.026 677.877 806.401 677.946 805.787 678.051C805.725 678.059 805.664 678.066 805.596 678.087C805.535 678.094 805.474 678.101 805.406 678.122C805.357 678.135 805.326 678.138 805.277 678.151C805.228 678.163 805.197 678.167 805.148 678.179C805.098 678.191 805.049 678.203 805.006 678.202C804.976 678.206 804.945 678.209 804.926 678.218C804.896 678.222 804.865 678.225 804.828 678.243C804.779 678.255 804.748 678.259 804.699 678.271L804.687 678.266C804.638 678.278 804.588 678.291 804.551 678.308C804.502 678.32 804.453 678.332 804.404 678.345C804.404 678.345 804.373 678.348 804.366 678.362C804.354 678.357 804.329 678.379 804.305 678.369C804.268 678.387 804.225 678.385 804.188 678.403C804.157 678.406 804.139 678.415 804.108 678.418C803.973 678.46 803.837 678.502 803.701 678.544C803.054 678.75 802.437 678.984 801.824 679.268C801.471 679.432 801.119 679.596 800.765 679.793C800.728 679.81 800.703 679.832 800.666 679.849C800.356 680.015 800.052 680.198 799.747 680.382C799.642 680.453 799.524 680.518 799.418 680.588C799.169 680.746 798.933 680.909 798.696 681.072C798.13 681.473 797.574 681.912 797.055 682.365C795.104 684.066 793.43 686.126 792.134 688.275C791.923 688.627 791.724 688.984 791.526 689.341C791.506 689.382 791.493 689.409 791.474 689.45C790.44 691.382 789.709 693.162 789.214 694.811L789.233 694.803Z" fill="#F99D22"/>
<path d="M818.011 685.01C818.011 685.01 819.66 685.31 819.53 685.584C819.406 685.845 818.222 685.67 818.274 686.019C818.315 686.363 819.574 687.454 819.525 687.679C819.489 687.91 818.027 686.785 817.57 686.827C817.125 686.874 817.291 688.58 817.062 688.633C816.441 688.805 816.979 686.568 816.349 686.391C815.719 686.215 814.813 687.448 814.638 687.294C814.391 687.078 815.835 685.541 815.835 685.541C815.835 685.541 814.213 685.399 814.189 685.143C814.164 684.888 815.969 684.646 815.969 684.646C815.969 684.646 815.398 683.396 815.798 683.167C816.198 682.938 816.804 684.514 817.005 684.367C817.218 684.225 818.544 683.459 818.589 683.854C818.634 684.25 818.154 684.954 817.979 685.046L818.011 685.01Z" fill="#8CC747"/>
<path d="M1366.57 82.8567C1367.21 82.6173 1367.93 82.9477 1368.17 83.595C1370.32 89.3992 1376.5 93.8627 1382.1 95.5879C1385.81 96.7318 1390.23 96.8598 1393.84 96.172C1393.88 96.1641 1393.92 96.1539 1393.96 96.1459C1393.75 95.667 1393.58 95.1754 1393.44 94.6707C1392.74 92.107 1393.45 89.876 1394.85 88.4754C1396.2 87.1167 1398.29 86.5094 1400.11 87.4347C1401.32 88.0496 1402.15 88.8922 1402.54 89.9952C1402.92 91.0553 1402.81 92.1688 1402.56 93.201C1402.18 94.757 1400.99 95.9338 1399.57 96.78C1399.04 97.0949 1398.45 97.3763 1397.83 97.6259C1398.89 98.8762 1400.27 100.003 1401.9 100.932C1404.96 102.683 1408.71 103.645 1412.23 103.439C1412.92 103.399 1413.51 103.925 1413.55 104.614C1413.59 105.304 1413.06 105.895 1412.37 105.935C1408.34 106.171 1404.11 105.075 1400.65 103.102C1398.52 101.883 1396.63 100.294 1395.27 98.4191C1394.96 98.4939 1394.63 98.5658 1394.31 98.6279C1390.34 99.3847 1385.5 99.2522 1381.36 97.9766C1375.3 96.1071 1368.33 91.2298 1365.83 84.4625C1365.59 83.8151 1365.92 83.0963 1366.57 82.8567ZM1398.98 89.663C1398.34 89.3359 1397.39 89.4678 1396.62 90.2409C1395.89 90.9722 1395.38 92.2654 1395.85 94.0148C1395.99 94.5145 1396.18 95.0064 1396.41 95.4875C1397.12 95.2353 1397.76 94.9487 1398.29 94.6308C1399.42 93.9592 1399.97 93.2485 1400.13 92.6049C1400.33 91.7847 1400.33 91.2278 1400.19 90.8274C1400.06 90.4699 1399.76 90.0623 1398.98 89.663Z" fill="white"/>
<path d="M1350.95 45.5418C1352.3 44.0838 1353.69 42.4675 1356.51 42.7694C1355.91 40.2632 1353.73 39.1621 1351.41 38.8544C1352.29 37.6105 1353.11 36.1681 1355.3 36.0349C1354.3 33.5311 1351.11 33.5868 1348.91 34.2918C1348.08 32.0704 1346.15 29.4664 1343.62 30.2108C1344.87 32.0502 1344.28 33.6199 1343.88 35.0923C1342.22 33.399 1340.02 32.3108 1337.73 33.3892C1339.7 35.4826 1339.33 37.606 1339.06 39.592C1337.23 39.0427 1335.26 39.1706 1333.69 40.679C1336.88 42.1823 1336.52 45.0569 1337.17 47.2883C1337.75 49.3067 1339.63 50.4051 1341.54 49.9478C1342.37 51.7718 1344.36 52.618 1346.26 51.8215C1348.37 50.9583 1350.35 48.8902 1353.47 50.5341C1353.65 48.3318 1352.54 46.6828 1350.98 45.5304L1350.95 45.5418Z" fill="#8CC747"/>
<path d="M1346.51 70.1313C1343.48 76.5583 1335.69 79.1069 1329.11 75.8293C1322.53 72.5503 1319.65 64.6814 1322.68 58.2544C1325.71 51.8274 1332.17 41.6496 1342.74 46.9136C1352.86 51.9538 1349.54 63.7043 1346.51 70.1313Z" fill="#FCAF17"/>
<path d="M1341.51 69.7023C1341.37 69.6293 1341.22 69.6169 1341.07 69.6648C1340.09 70.0247 1339.04 69.4914 1338.72 68.4851C1338.62 68.1703 1338.3 68.0055 1337.99 68.1166C1337.69 68.229 1337.53 68.5667 1337.62 68.8803C1338.14 70.515 1339.84 71.3791 1341.42 70.7958C1341.71 70.6834 1341.88 70.3457 1341.79 70.0321C1341.73 69.8747 1341.63 69.7589 1341.49 69.6859L1341.51 69.7023Z" fill="black"/>
<path d="M1334.48 66.1996C1334.34 66.1266 1334.19 66.1142 1334.04 66.1622C1333.06 66.522 1332.02 65.9887 1331.69 64.9824C1331.59 64.6676 1331.27 64.5028 1330.96 64.6139C1330.67 64.7263 1330.5 65.064 1330.59 65.3776C1331.11 67.0123 1332.81 67.8764 1334.39 67.2931C1334.69 67.1808 1334.85 66.843 1334.76 66.5294C1334.7 66.372 1334.6 66.2562 1334.46 66.1832L1334.48 66.1996Z" fill="black"/>
<path d="M1327.45 62.6967C1327.31 62.6237 1327.17 62.6112 1327.01 62.6592C1326.04 63.0191 1324.99 62.4858 1324.67 61.4795C1324.56 61.1647 1324.24 60.9999 1323.93 61.111C1323.64 61.2234 1323.48 61.5611 1323.57 61.8747C1324.08 63.5094 1325.78 64.3735 1327.36 63.7902C1327.66 63.6778 1327.82 63.3401 1327.73 63.0265C1327.68 62.8691 1327.58 62.7533 1327.44 62.6803L1327.45 62.6967Z" fill="black"/>
<path d="M1345.98 60.2085C1345.84 60.1356 1345.69 60.1231 1345.54 60.1711C1344.56 60.5309 1343.51 59.9976 1343.19 58.9914C1343.09 58.6765 1342.77 58.5117 1342.46 58.6229C1342.16 58.7352 1342 59.0729 1342.09 59.3865C1342.61 61.0213 1344.31 61.8853 1345.89 61.302C1346.18 61.1897 1346.35 60.8519 1346.26 60.5383C1346.2 60.3809 1346.1 60.2651 1345.96 60.1921L1345.98 60.2085Z" fill="black"/>
<path d="M1338.95 56.7055C1338.81 56.6325 1338.66 56.62 1338.51 56.668C1337.53 57.0278 1336.48 56.4946 1336.16 55.4883C1336.06 55.1735 1335.74 55.0087 1335.43 55.1198C1335.14 55.2322 1334.97 55.5699 1335.06 55.8835C1335.58 57.5182 1337.28 58.3823 1338.86 57.799C1339.15 57.6866 1339.32 57.3489 1339.23 57.0353C1339.17 56.8779 1339.07 56.762 1338.93 56.6891L1338.95 56.7055Z" fill="black"/>
<path d="M1331.92 53.2028C1331.78 53.1298 1331.64 53.1173 1331.48 53.1653C1330.51 53.5252 1329.46 52.9919 1329.14 51.9856C1329.03 51.6708 1328.71 51.506 1328.4 51.6171C1328.11 51.7295 1327.95 52.0672 1328.04 52.3808C1328.55 54.0155 1330.25 54.8796 1331.83 54.2963C1332.13 54.1839 1332.29 53.8462 1332.2 53.5326C1332.15 53.3752 1332.05 53.2594 1331.91 53.1864L1331.92 53.2028Z" fill="black"/>
<path d="M1340.65 63.3741C1340.51 63.3012 1340.37 63.2887 1340.21 63.3367C1339.75 63.5109 1339.24 63.4823 1338.79 63.261C1338.35 63.0397 1338.02 62.6444 1337.87 62.1571C1337.76 61.8423 1337.44 61.6775 1337.13 61.7886C1336.84 61.901 1336.68 62.2387 1336.77 62.5522C1337.02 63.338 1337.55 63.98 1338.27 64.3472C1338.98 64.7144 1339.8 64.754 1340.56 64.4826C1340.86 64.3703 1341.02 64.0326 1340.93 63.719C1340.88 63.5616 1340.77 63.4458 1340.64 63.3729L1340.65 63.3741Z" fill="black"/>
<path d="M1333.62 59.8716C1333.49 59.7986 1333.34 59.7862 1333.19 59.8342C1332.21 60.194 1331.16 59.6607 1330.84 58.6544C1330.73 58.3396 1330.42 58.1748 1330.11 58.2859C1329.81 58.3983 1329.65 58.736 1329.74 59.0496C1330.26 60.6843 1331.96 61.5484 1333.54 60.9651C1333.83 60.8528 1333.99 60.515 1333.9 60.2014C1333.85 60.044 1333.75 59.9282 1333.61 59.8552L1333.62 59.8716Z" fill="black"/>
<path d="M1341.88 52.6973C1341.75 52.6243 1341.6 52.6118 1341.45 52.6598C1341.15 52.7722 1340.99 53.1099 1341.08 53.4235C1341.33 54.2094 1341.86 54.8514 1342.58 55.2186C1343.29 55.5859 1344.11 55.6255 1344.87 55.3541C1345.17 55.2417 1345.33 54.904 1345.24 54.5904C1345.14 54.2756 1344.82 54.1108 1344.51 54.2219C1344.04 54.3961 1343.53 54.3676 1343.09 54.1462C1342.65 53.9249 1342.32 53.5296 1342.16 53.0422C1342.11 52.8848 1342.01 52.769 1341.87 52.696L1341.88 52.6973Z" fill="black"/>
<path d="M1337.92 50.7413C1337.78 50.6684 1337.64 50.6559 1337.48 50.7039C1336.51 51.0637 1335.46 50.5304 1335.13 49.5241C1335.03 49.2092 1334.71 49.0445 1334.4 49.1556C1334.11 49.2679 1333.94 49.6057 1334.04 49.9193C1334.55 51.554 1336.25 52.4181 1337.83 51.8348C1338.13 51.7225 1338.29 51.3847 1338.2 51.0711C1338.15 50.9137 1338.04 50.7979 1337.91 50.7249L1337.92 50.7413Z" fill="black"/>
<path d="M1336.45 72.2945C1336.32 72.2216 1336.17 72.2091 1336.02 72.2571C1335.55 72.4313 1335.04 72.4027 1334.6 72.1814C1334.15 71.9601 1333.82 71.5648 1333.67 71.0775C1333.56 70.7627 1333.25 70.5979 1332.94 70.709C1332.64 70.8214 1332.48 71.1591 1332.57 71.4726C1332.82 72.2584 1333.35 72.9004 1334.07 73.2676C1334.79 73.6348 1335.61 73.6745 1336.36 73.403C1336.66 73.2907 1336.82 72.953 1336.73 72.6394C1336.68 72.482 1336.58 72.3662 1336.44 72.2933L1336.45 72.2945Z" fill="black"/>
<path d="M1329.41 68.7899C1329.27 68.717 1329.13 68.7045 1328.97 68.7525C1328 69.1123 1326.95 68.579 1326.63 67.5728C1326.52 67.2579 1326.2 67.0932 1325.89 67.2043C1325.6 67.3166 1325.44 67.6544 1325.53 67.968C1326.04 69.6027 1327.74 70.4667 1329.32 69.8834C1329.62 69.7711 1329.78 69.4333 1329.69 69.1198C1329.64 68.9623 1329.54 68.8465 1329.4 68.7736L1329.41 68.7899Z" fill="black"/>
<path d="M1485.88 239.677C1494.38 252.794 1488.87 268.471 1475.27 277.297C1461.68 286.106 1445.13 284.737 1436.61 271.6C1428.11 258.483 1429.62 238.84 1447.89 235.037C1457.77 220.317 1477.33 226.556 1485.84 239.673" fill="#97C124"/>
<path d="M1450.92 241.586C1450.29 241.984 1449.49 241.836 1449.11 241.226C1442.78 231.451 1445.86 218.168 1455.99 211.596C1456.62 211.198 1457.41 211.346 1457.79 211.956C1458.16 212.544 1457.99 213.354 1457.38 213.735C1448.48 219.507 1445.77 231.175 1451.33 239.769C1451.7 240.358 1451.53 241.167 1450.92 241.549" fill="#262626"/>
<path d="M1451.7 241.807C1449.4 243.293 1446.68 243.827 1444.05 243.314C1443.33 243.175 1442.9 242.503 1443.07 241.789C1443.23 241.091 1443.94 240.627 1444.64 240.783C1446.59 241.16 1448.62 240.772 1450.33 239.652C1452.02 238.548 1453.21 236.858 1453.66 234.913C1453.82 234.216 1454.53 233.752 1455.23 233.908C1455.95 234.047 1456.38 234.719 1456.2 235.433C1455.58 238.055 1454 240.321 1451.7 241.807Z" fill="#262626"/>
<path d="M1445.9 222.863C1441.76 216.487 1433.05 214.782 1426.41 219.063C1425.8 219.445 1425.61 220.271 1426 220.843C1430.14 227.219 1438.85 228.924 1445.49 224.643C1446.1 224.261 1446.29 223.435 1445.9 222.863Z" fill="#97C124"/>
</g>
<defs>
<filter id="filter0_f_8_862" x="-20" y="-21" width="1540" height="801" filterUnits="userSpaceOnUse" color-interpolation-filters="sRGB">
<feFlood flood-opacity="0" result="BackgroundImageFix"/>
<feBlend mode="normal" in="SourceGraphic" in2="BackgroundImageFix" result="shape"/>
<feGaussianBlur stdDeviation="100" result="effect1_foregroundBlur_8_862"/>
</filter>
<clipPath id="clip0_8_862">
<rect width="1500" height="840" fill="white"/>
</clipPath>
</defs>
</svg>
