<svg width="320" height="653" viewBox="0 0 320 653" fill="none" xmlns="http://www.w3.org/2000/svg">
<g clip-path="url(#clip0_8_1082)">
<rect width="320" height="653" fill="#5C0F8B"/>
<g filter="url(#filter0_f_8_1082)">
<ellipse cx="160" cy="268.5" rx="131" ry="197.5" fill="#8427C4"/>
</g>
<path d="M48.4314 371.106C46.7309 371.052 45.6549 369.95 45.6814 368.289C45.7213 365.473 49.1355 362.191 51.9785 362.258C53.9181 362.298 55.3396 364.251 54.8746 366.23C54.3299 368.635 50.9422 371.185 48.4314 371.119V371.106ZM48.1923 369.405C50.3179 369.79 53.0546 367.333 53.0413 365.34C53.0413 364.809 52.4036 364.158 51.8988 364.158C49.9725 364.158 47.621 366.403 47.621 368.369C47.621 368.767 47.993 369.365 48.1923 369.405Z" fill="white"/>
<path d="M43.9808 351.563C44.2996 349.57 46.2259 347.923 48.1523 348.003C49.5472 348.056 50.2779 349.092 49.8926 350.46C49.3612 352.36 48.1788 353.582 46.1994 353.888C44.645 354.127 43.7283 353.131 43.9808 351.576V351.563ZM46.0267 351.855C46.7839 352.4 47.3552 352.041 47.8866 351.603C48.3914 351.191 48.3117 350.846 47.5677 350.049C46.7441 350.381 46.0798 350.859 46.0267 351.855Z" fill="white"/>
<path d="M39.3734 366.29C39.0678 368.083 37.3408 369.425 35.5341 369.266C34.6174 369.186 33.9266 368.362 34.0063 367.433C34.179 365.626 35.999 363.952 37.8191 363.925C38.8952 363.912 39.5992 364.975 39.3734 366.29ZM36.0787 367.486C36.9821 367.791 37.5002 367.353 37.9519 366.821C38.0449 366.702 38.0715 366.436 37.9918 366.303C37.9121 366.157 37.6597 365.958 37.5268 365.998C36.7563 366.197 36.092 366.529 36.0654 367.499L36.0787 367.486Z" fill="white"/>
<path d="M44.0526 208.203C47.9218 213.973 45.7685 228.441 39.8637 232.192C33.9758 235.944 19.5419 232.074 15.6727 226.287C8.67442 215.84 16.968 210.541 22.856 206.79C28.7439 203.038 37.7272 198.765 44.0526 208.203Z" fill="#C10230"/>
<path d="M27.9027 198.244C25.4129 198.783 23.5624 200.465 23.1419 202.349C22.4858 202.4 21.8465 202.585 21.2745 202.938C21.0222 203.106 20.7867 203.291 20.5848 203.51C18.7848 203.409 16.7661 204.385 15.4202 206.201C13.4856 208.792 12.0389 214.226 14.1417 215.723C16.0427 217.086 20.2147 214.747 22.4185 212.375C24.6054 214.361 27.6504 215.925 29.2653 214.882C30.9812 213.789 30.6111 210.121 29.5009 207.312C29.6523 207.295 29.8037 207.261 29.9551 207.228C33.1514 206.538 37.929 203.409 37.3571 200.919C36.7851 198.429 31.099 197.538 27.9027 198.228" fill="#B0DF30"/>
<path d="M24.1846 207.581C23.764 207.85 23.2089 207.732 22.9397 207.329C19.3228 201.929 20.8537 194.661 26.3715 191.145C26.7921 190.876 27.3472 190.994 27.6164 191.398C27.8856 191.801 27.7678 192.34 27.3641 192.609C22.6705 195.603 21.3752 201.76 24.4369 206.353C24.7061 206.757 24.5883 207.295 24.1846 207.564" fill="#262626"/>
<path d="M30.8801 220.349C30.5941 219.929 30.7118 219.34 31.1492 219.071C31.5866 218.785 32.1754 218.919 32.4614 219.34C32.7474 219.777 33.0502 220.972 32.6128 221.241C32.1754 221.527 31.1661 220.77 30.8801 220.349Z" fill="#262626"/>
<path d="M34.666 225.985C34.38 225.564 34.4977 224.975 34.9351 224.706C35.3725 224.42 35.9613 224.555 36.2473 224.975C36.5333 225.413 36.8361 226.607 36.3987 226.876C35.9613 227.162 34.9519 226.405 34.666 225.985Z" fill="#262626"/>
<path d="M22.0648 220.988C21.7788 220.567 21.8966 219.979 22.334 219.709C22.7714 219.424 23.3602 219.558 23.6462 219.979C23.9321 220.416 24.235 221.61 23.7976 221.88C23.3602 222.166 22.3508 221.409 22.0648 220.988Z" fill="#262626"/>
<path d="M26.186 226.086C25.8159 225.716 25.8327 225.127 26.2196 224.774C26.6065 224.421 27.1953 224.438 27.5654 224.808C27.9187 225.178 28.4402 226.305 28.0533 226.658C27.6664 227.012 26.5561 226.456 26.186 226.07" fill="#262626"/>
<path d="M36.5492 211.753C36.2632 211.332 35.6745 211.198 35.2371 211.484C34.7997 211.77 34.6819 212.341 34.9679 212.762C35.2539 213.199 36.2632 213.94 36.7006 213.654C37.138 213.368 36.8352 212.173 36.5492 211.753Z" fill="#262626"/>
<path d="M39.6791 217.489C39.4772 217.018 38.9221 216.8 38.4342 217.002C37.9464 217.203 37.7277 217.742 37.9295 218.213C38.1314 218.684 38.9894 219.592 39.4772 219.39C39.9651 219.189 39.881 217.96 39.6791 217.489Z" fill="#262626"/>
<path d="M51.0387 606.269C55.7874 613.593 52.713 622.346 45.1166 627.273C37.5317 632.192 28.2902 631.428 23.5324 624.093C18.7837 616.769 19.6318 605.802 29.828 603.679C35.3438 595.46 46.2693 598.944 51.018 606.267" fill="#97C124"/>
<path d="M31.5193 607.335C31.1675 607.557 30.7248 607.474 30.5117 607.134C26.9777 601.676 28.6983 594.26 34.3505 590.591C34.7023 590.369 35.145 590.451 35.3581 590.791C35.562 591.12 35.4676 591.572 35.1274 591.785C30.158 595.007 28.647 601.522 31.7523 606.32C31.9562 606.649 31.8619 607.101 31.5217 607.314" fill="#262626"/>
<path d="M31.9568 607.459C30.6722 608.288 29.1546 608.586 27.6835 608.3C27.2823 608.222 27.0417 607.847 27.1405 607.449C27.2276 607.059 27.6257 606.8 28.0153 606.887C29.106 607.097 30.2355 606.881 31.1914 606.255C32.1358 605.639 32.8024 604.696 33.0542 603.61C33.1414 603.22 33.5395 602.961 33.9291 603.048C34.3303 603.126 34.5709 603.501 34.4722 603.9C34.124 605.364 33.2413 606.629 31.9568 607.459Z" fill="#262626"/>
<path d="M28.7211 596.882C26.4086 593.322 21.5435 592.37 17.8379 594.76C17.4977 594.973 17.3918 595.434 17.6073 595.754C19.9197 599.314 24.7849 600.266 28.4904 597.875C28.8306 597.662 28.9366 597.201 28.7211 596.882Z" fill="#97C124"/>
<path d="M37.9115 49.265C38.3173 49.1825 38.7134 49.4445 38.796 49.8503C39.4443 53.0367 42.3031 55.8636 45.0843 57.216C46.9118 58.1047 49.191 58.5287 51.1195 58.4685C51.0611 58.2299 51.0181 57.9879 50.9906 57.7432C50.8301 56.3122 51.3935 55.1676 52.2667 54.5266C53.1115 53.9067 54.2991 53.7471 55.216 54.4071C55.8142 54.8378 56.1992 55.3652 56.319 56.0027C56.4338 56.6133 56.2817 57.208 56.0619 57.7362C55.7224 58.5517 54.9798 59.0856 54.1529 59.4185C53.8783 59.529 53.5829 59.6186 53.273 59.695C53.7154 60.3908 54.3225 61.0523 55.0591 61.6393C56.5131 62.7982 58.3888 63.6005 60.2335 63.7766C60.6458 63.8159 60.9486 64.1819 60.9093 64.5941C60.87 65.0063 60.5039 65.309 60.0918 65.2699C57.9348 65.0641 55.7874 64.1375 54.1241 62.8119C53.1138 62.0066 52.2529 61.0274 51.6842 59.9402C51.5288 59.9516 51.3718 59.9615 51.2135 59.9671C49.0554 60.0423 46.5089 59.5772 44.4275 58.565C41.382 57.0838 38.0973 53.9396 37.3262 50.1496C37.2436 49.7437 37.5056 49.3477 37.9115 49.265ZM54.34 55.6239C54.0657 55.4265 53.5992 55.4092 53.1545 55.7355C52.7385 56.0408 52.3768 56.6472 52.4808 57.575C52.508 57.8177 52.5592 58.0609 52.63 58.303C52.9883 58.2311 53.3124 58.1397 53.5932 58.0266C54.2298 57.7703 54.555 57.4548 54.6778 57.1597C54.8472 56.7525 54.8814 56.478 54.8442 56.28C54.812 56.1088 54.7065 55.8877 54.34 55.6239Z" fill="white"/>
<path d="M35.179 31.2081C36.2497 30.5229 37.3653 29.7448 39.0606 30.3799C39.0866 28.7351 37.9147 27.708 36.527 27.1483C37.2711 26.5201 38.0042 25.7582 39.3798 26.0243C39.164 24.3189 37.1841 23.8462 35.7075 23.931C35.5488 22.4263 34.771 20.5103 33.0907 20.5685C33.5674 21.9033 32.9541 22.7798 32.4741 23.6266C31.7139 22.3152 30.5298 21.2935 28.9414 21.5954C29.8249 23.2022 29.2633 24.4569 28.779 25.641C27.7333 25.01 26.4981 24.7765 25.2861 25.4587C27.0171 26.8946 26.342 28.6151 26.3871 30.0972C26.4245 31.4368 27.4115 32.4145 28.6652 32.4357C28.8855 33.6943 29.9849 34.5348 31.2872 34.3449C32.7251 34.146 34.2766 33.1824 35.9481 34.6957C36.4068 33.3625 35.98 32.1661 35.2001 31.2061L35.179 31.2081Z" fill="#8CC747"/>
<path d="M28.5292 45.7004C25.6344 49.1907 20.4111 49.5263 16.8709 46.4558C13.3218 43.382 12.7921 38.0605 15.6869 34.5702C18.5818 31.0799 24.1958 25.8175 29.8872 30.7504C35.3412 35.4748 31.424 42.2101 28.5292 45.7004Z" fill="#FCAF17"/>
<path d="M25.4149 44.5636C25.3525 44.498 25.2715 44.4733 25.1719 44.4896C24.5267 44.6309 24.0462 44.1468 24.0931 43.4156C24.1053 43.1864 23.9609 43.0376 23.757 43.0803C23.5612 43.1255 23.3894 43.3411 23.3691 43.5679C23.2899 44.7551 24.0672 45.5392 25.112 45.31C25.3078 45.2648 25.4797 45.0492 25.4999 44.8224C25.506 44.7078 25.4738 44.6165 25.4114 44.5509L25.4149 44.5636Z" fill="black"/>
<path d="M21.6296 41.2771C21.5672 41.2115 21.4862 41.1868 21.3866 41.2031C20.7414 41.3444 20.2609 40.8603 20.3078 40.1291C20.32 39.8999 20.1756 39.7511 19.9717 39.7938C19.776 39.839 19.6041 40.0546 19.5839 40.2814C19.5046 41.4686 20.2819 42.2527 21.3268 42.0235C21.5225 41.9783 21.6944 41.7627 21.7146 41.5359C21.7207 41.4213 21.6885 41.33 21.6261 41.2644L21.6296 41.2771Z" fill="black"/>
<path d="M17.8423 37.998C17.7799 37.9324 17.6989 37.9078 17.5993 37.924C16.9541 38.0653 16.4736 37.5812 16.5206 36.8501C16.5327 36.6208 16.3883 36.472 16.1844 36.5148C15.9887 36.56 15.8168 36.7755 15.7966 37.0023C15.7173 38.1895 16.4946 38.9737 17.5395 38.7444C17.7352 38.6992 17.9071 38.4837 17.9273 38.2569C17.9334 38.1422 17.9012 38.0509 17.8388 37.9853L17.8423 37.998Z" fill="black"/>
<path d="M29.6877 39.4034C29.6253 39.3378 29.5443 39.3132 29.4447 39.3294C28.7995 39.4707 28.319 38.9866 28.366 38.2555C28.3781 38.0262 28.2337 37.8774 28.0298 37.9202C27.8341 37.9654 27.6622 38.1809 27.642 38.4077C27.5627 39.5949 28.34 40.3791 29.3849 40.1498C29.5806 40.1046 29.7525 39.8891 29.7727 39.6623C29.7788 39.5476 29.7466 39.4563 29.6842 39.3907L29.6877 39.4034Z" fill="black"/>
<path d="M25.9011 36.1208C25.8388 36.0552 25.7578 36.0306 25.6582 36.0468C25.0129 36.1881 24.5325 35.704 24.5794 34.9729C24.5915 34.7436 24.4472 34.5948 24.2433 34.6376C24.0475 34.6828 23.8756 34.8983 23.8554 35.1251C23.7761 36.3123 24.5534 37.0965 25.5983 36.8672C25.7941 36.822 25.966 36.6065 25.9862 36.3797C25.9922 36.265 25.96 36.1737 25.8977 36.1081L25.9011 36.1208Z" fill="black"/>
<path d="M22.1154 32.8379C22.053 32.7723 21.972 32.7476 21.8724 32.7639C21.2272 32.9052 20.7467 32.4211 20.7936 31.6899C20.8058 31.4607 20.6614 31.3119 20.4575 31.3546C20.2617 31.3998 20.0899 31.6154 20.0696 31.8422C19.9904 33.0294 20.7677 33.8135 21.8125 33.5843C22.0083 33.5391 22.1802 33.3235 22.2004 33.0967C22.2065 32.9821 22.1743 32.8907 22.1119 32.8252L22.1154 32.8379Z" fill="black"/>
<path d="M25.8929 40.5167C25.8306 40.4511 25.7496 40.4264 25.65 40.4427C25.342 40.5119 25.0539 40.4358 24.8507 40.2342C24.6475 40.0326 24.5487 39.7231 24.5715 39.3691C24.5836 39.1399 24.4393 38.9912 24.2355 39.0339C24.0398 39.0791 23.8679 39.2946 23.8477 39.5213C23.8093 40.0918 23.9678 40.5942 24.2957 40.9269C24.6237 41.2596 25.0864 41.3772 25.5855 41.273C25.7812 41.2278 25.9531 41.0124 25.9733 40.7856C25.9794 40.6711 25.9472 40.5797 25.8848 40.5142L25.8929 40.5167Z" fill="black"/>
<path d="M22.1066 37.2334C22.0443 37.1678 21.9633 37.1431 21.8637 37.1594C21.2184 37.3007 20.738 36.8166 20.7849 36.0854C20.797 35.8562 20.6527 35.7074 20.4488 35.7501C20.253 35.7953 20.0811 36.0109 20.0609 36.2377C19.9816 37.4249 20.7589 38.209 21.8038 37.9798C21.9996 37.9346 22.1715 37.719 22.1917 37.4922C22.1977 37.3776 22.1656 37.2863 22.1032 37.2207L22.1066 37.2334Z" fill="black"/>
<path d="M28.5951 34.1479C28.5328 34.0823 28.4518 34.0577 28.3522 34.0739C28.1564 34.1191 27.9846 34.3347 27.9643 34.5615C27.9259 35.1321 28.0845 35.6346 28.4125 35.9675C28.7405 36.3003 29.2033 36.4179 29.7025 36.3137C29.8983 36.2685 30.0701 36.0529 30.0904 35.8262C30.1025 35.5969 29.9581 35.4481 29.7543 35.4909C29.4462 35.5601 29.1581 35.484 28.9548 35.2824C28.7515 35.0807 28.6527 34.7711 28.6755 34.417C28.6816 34.3024 28.6494 34.211 28.5871 34.1454L28.5951 34.1479Z" fill="black"/>
<path d="M26.2144 32.2709C26.1521 32.2053 26.0711 32.1806 25.9715 32.1969C25.3263 32.3382 24.8458 31.8541 24.8927 31.1229C24.9049 30.8937 24.7605 30.7449 24.5566 30.7876C24.3609 30.8328 24.189 31.0484 24.1687 31.2752C24.0894 32.4624 24.8667 33.2465 25.9116 33.0173C26.1074 32.9721 26.2793 32.7565 26.2995 32.5297C26.3056 32.4151 26.2734 32.3238 26.211 32.2582L26.2144 32.2709Z" fill="black"/>
<path d="M21.8802 45.3621C21.8179 45.2966 21.7369 45.2719 21.6373 45.2882C21.3293 45.3574 21.0412 45.2813 20.838 45.0797C20.6348 44.8781 20.536 44.5686 20.5588 44.2146C20.5709 43.9854 20.4266 43.8366 20.2228 43.8794C20.0271 43.9246 19.8552 44.14 19.835 44.3668C19.7966 44.9372 19.9551 45.4396 20.283 45.7723C20.611 46.1051 21.0737 46.2227 21.5728 46.1185C21.7686 46.0733 21.9404 45.8578 21.9606 45.6311C21.9667 45.5165 21.9345 45.4252 21.8721 45.3596L21.8802 45.3621Z" fill="black"/>
<path d="M18.0843 42.0766C18.0219 42.011 17.9409 41.9864 17.8413 42.0026C17.1961 42.1439 16.7156 41.6598 16.7626 40.9287C16.7747 40.6994 16.6303 40.5506 16.4265 40.5934C16.2307 40.6386 16.0588 40.8542 16.0386 41.0809C15.9593 42.2682 16.7366 43.0523 17.7815 42.823C17.9772 42.7778 18.1491 42.5623 18.1693 42.3355C18.1754 42.2209 18.1432 42.1295 18.0809 42.0639L18.0843 42.0766Z" fill="black"/>
<path d="M292.354 55.4941C292.711 55.6959 293.07 55.8628 293.416 56.0013C294.029 56.2415 294.624 56.3845 295.196 56.4554C295.196 56.4554 295.202 56.4598 295.211 56.4588C295.252 56.4647 295.296 56.4651 295.337 56.4709C295.337 56.4709 295.342 56.4753 295.352 56.4743C295.652 56.5034 295.951 56.5128 296.242 56.4982C298.221 56.4269 302.003 54.2352 303.605 52.3733C303.618 52.3571 303.631 52.3409 303.645 52.3247C303.645 52.3247 303.649 52.3193 303.653 52.3139C303.862 52.0598 304.084 51.7896 304.294 51.5007C304.519 51.2054 304.736 50.8861 304.947 50.5525C305.003 50.4626 305.063 50.3673 305.119 50.2774C305.406 49.8073 305.669 49.2999 305.896 48.7715C306.471 47.4248 306.796 45.9102 306.589 44.2858C306.429 43.0432 305.852 41.8477 305.086 40.8052C305.035 40.7361 304.978 40.6625 304.927 40.5934C304.876 40.5341 304.836 40.4737 304.785 40.4144C304.695 40.3046 304.605 40.1948 304.511 40.0903C304.355 39.9178 304.205 39.7496 304.046 39.5922C304.04 39.5878 304.03 39.579 304.024 39.5746C303.741 39.2613 303.431 38.9805 303.124 38.7291C302.31 38.0631 301.48 37.592 300.8 37.3784C299.94 37.1086 299.2 36.9456 298.503 36.8724C298.197 36.839 297.893 36.8251 297.59 36.8211C297.034 36.8179 296.482 36.8638 295.9 36.9475C295.836 36.9589 295.777 36.9648 295.714 36.9762C295.528 37.0049 295.335 37.0543 295.137 37.1188C294.906 37.1918 294.667 37.2854 294.429 37.3887C293.924 37.6083 293.421 37.8922 292.994 38.1485C292.834 38.2439 292.685 38.3384 292.554 38.421C292.456 38.4854 292.362 38.5444 292.279 38.6025C291.985 38.7958 291.804 38.928 291.804 38.928C291.804 38.928 291.775 38.9408 291.729 38.9753C291.683 39.0097 291.612 39.0515 291.524 39.1149C291.501 39.1321 291.478 39.1493 291.45 39.172C291.385 39.2182 291.312 39.2752 291.233 39.3377C291.224 39.3485 291.22 39.3539 291.206 39.3603C290.989 39.5358 290.728 39.7555 290.437 40.0327C290.342 40.1266 290.242 40.2259 290.138 40.3306C290.008 40.4677 289.868 40.6156 289.735 40.7778C289.682 40.8426 289.624 40.9129 289.571 40.9778C289.54 41.0156 289.509 41.0534 289.477 41.0913C289.247 41.3723 289.02 41.6927 288.79 42.038C288.777 42.0542 288.759 42.0759 288.751 42.0965C288.242 42.8913 287.764 43.8466 287.411 44.9677C287.312 45.2751 287.237 45.5849 287.183 45.8927C287.176 45.9232 287.169 45.9536 287.167 45.9885C287.16 46.0189 287.153 46.0494 287.152 46.0842C287.149 46.1092 287.146 46.1245 287.143 46.1495C287.141 46.1745 287.137 46.1898 287.135 46.2148C287.132 46.2398 287.129 46.2649 287.121 46.2855C287.118 46.3007 287.115 46.3159 287.115 46.3258C287.112 46.341 287.108 46.3562 287.11 46.3758C287.108 46.4009 287.104 46.4161 287.102 46.4411L287.097 46.4465C287.095 46.4716 287.092 46.4966 287.094 46.5162C287.092 46.5413 287.089 46.5663 287.087 46.5913C287.087 46.5913 287.083 46.6066 287.088 46.611C287.084 46.6164 287.09 46.6306 287.081 46.6414C287.083 46.661 287.075 46.6817 287.077 46.7013C287.074 46.7165 287.075 46.7263 287.071 46.7416C287.068 46.8113 287.065 46.881 287.062 46.9507C287.049 47.284 287.056 47.6055 287.087 47.9294C287.105 48.1159 287.123 48.3024 287.156 48.4923C287.158 48.5119 287.165 48.5261 287.166 48.5458C287.192 48.7116 287.228 48.8765 287.264 49.0414C287.279 49.0993 287.291 49.1626 287.306 49.2205C287.339 49.3559 287.376 49.4859 287.414 49.616C287.509 49.9285 287.623 50.239 287.751 50.5334C288.23 51.6396 288.927 52.6444 289.732 53.4748C289.864 53.6101 290.001 53.74 290.138 53.8699C290.154 53.8832 290.165 53.892 290.181 53.9052C290.927 54.588 291.652 55.1093 292.355 55.504L292.354 55.4941Z" fill="#F99D22"/>
<path d="M292.244 40.2227C292.244 40.2227 292.666 39.4566 292.774 39.5448C292.876 39.6286 292.593 40.1825 292.767 40.1896C292.937 40.2021 293.667 39.6972 293.765 39.7418C293.868 39.7809 293.088 40.3801 293.03 40.6039C292.977 40.8224 293.813 40.9012 293.799 41.0166C293.775 41.3312 292.807 40.8643 292.617 41.1511C292.426 41.4379 292.857 41.9889 292.754 42.0587C292.61 42.1576 292.127 41.3196 292.127 41.3196C292.127 41.3196 291.785 42.0875 291.659 42.0754C291.534 42.0633 291.726 41.1719 291.726 41.1719C291.726 41.1719 291.037 41.3308 290.996 41.1169C290.956 40.903 291.805 40.7576 291.769 40.6473C291.738 40.5315 291.6 39.8221 291.795 39.8371C291.99 39.852 292.242 40.1486 292.256 40.2413L292.244 40.2227Z" fill="#8FC045"/>
<path d="M282.193 33.1487C282.456 33.7511 281.658 34.4342 281.269 33.946C277.513 29.122 273.984 24.0922 271.409 18.2181C270.908 17.0515 270.856 16.3278 271.3 16.1356C272.116 15.7956 272.345 16.579 272.683 17.0639C273.566 18.3153 274.47 19.568 275.253 20.9108C277.384 24.5841 279.476 28.3036 281.555 32.0346C281.76 32.3892 282.001 32.7216 282.19 33.1607L282.193 33.1487Z" fill="white"/>
<path d="M280.144 38.8105C280.656 39.118 280.328 40.0926 279.72 40.1196C279.28 40.1441 278.933 40.0304 278.585 39.9167C276.605 39.2804 274.64 38.6189 272.694 37.9193C272.233 37.7591 271.827 37.419 271.452 37.0941C271.328 36.9814 271.268 36.6501 271.317 36.4437C271.378 36.238 271.624 35.9393 271.783 35.9232C272.448 35.8343 273.146 35.6821 273.745 35.8248C274.657 36.0267 275.517 36.3824 276.359 36.7763C277.65 37.3951 278.894 38.0895 280.135 38.7969L280.144 38.8105Z" fill="white"/>
<path d="M287.639 27.7893C287.573 28.1563 287.175 28.346 286.959 28.1282C286.892 28.064 286.844 28.001 286.82 27.9156C285.963 25.2604 285.225 22.5411 284.843 19.6414C284.805 19.3634 284.875 19.0326 284.92 18.7241C284.967 18.4636 285.41 18.241 285.567 18.4069C285.699 18.5473 285.852 18.6771 285.927 18.8616C287.011 21.5675 287.559 24.5259 287.646 27.6939C287.64 27.7294 287.634 27.7649 287.627 27.8005L287.639 27.7893Z" fill="white"/>
</g>
<defs>
<filter id="filter0_f_8_1082" x="-71" y="-29" width="462" height="595" filterUnits="userSpaceOnUse" color-interpolation-filters="sRGB">
<feFlood flood-opacity="0" result="BackgroundImageFix"/>
<feBlend mode="normal" in="SourceGraphic" in2="BackgroundImageFix" result="shape"/>
<feGaussianBlur stdDeviation="50" result="effect1_foregroundBlur_8_1082"/>
</filter>
<clipPath id="clip0_8_1082">
<rect width="320" height="653" fill="white"/>
</clipPath>
</defs>
</svg>
