<svg width="366" height="399" viewBox="0 0 366 399" fill="none" xmlns="http://www.w3.org/2000/svg">
<path opacity="0.4" d="M144.2 398.158C88.3682 396.243 60.4523 395.285 38.625 375.144C16.7978 355.003 13.7213 328.274 7.56851 274.816C4.97109 252.248 2.65397 227.347 1.07451 200.981C-0.75371 170.462 -0.0792855 141.788 1.82319 116.374C5.26945 70.3364 6.99259 47.3178 28.7353 26.1762C50.4779 5.03456 76.2703 3.82942 127.855 1.41917C146.689 0.539198 165.518 -0.0383776 182.075 0.00202763C194.974 0.0335218 209.308 0.447035 223.908 1.08113C278.195 3.43883 305.338 4.61766 326.735 24.0055C348.133 43.3934 351.839 69.3417 359.251 121.238C363.157 148.584 366.021 176.849 366 200.856C365.982 221.6 364.338 245.569 361.974 269.36C356.331 326.155 353.51 354.553 331.49 375.122C309.471 395.69 280.225 396.595 221.733 398.404C210.318 398.757 199.231 398.977 189.054 398.998C175.266 399.027 159.871 398.695 144.2 398.158Z" fill="#783FC7"/>
</svg>
