<svg width="336" height="347" viewBox="0 0 336 347" fill="none" xmlns="http://www.w3.org/2000/svg">
<g clip-path="url(#clip0_70_7)">
<path d="M283.728 86.102C262.908 159.119 253.372 188.231 239.151 262.788C238.323 267.279 237.66 269.635 236.618 270.931C177.793 256.729 118.415 245.131 58.545 236.143C65.6861 211.018 69.4419 184.997 69.6085 158.497C69.7385 139.158 39.5571 136.611 39.4183 156.133C39.1256 198.054 29.6307 237.82 11.117 275.441C6.97886 283.874 15.0413 295.769 24.1684 295.655C62.4479 295.284 100.748 295.771 139.006 297.113C170.321 302.836 201.814 307.404 233.575 308.925C235.346 309.01 237.013 308.722 238.63 308.187C240.951 308.298 243.272 308.409 245.593 308.521C246.387 308.559 247.065 308.469 247.803 308.382C250.257 312.111 254.308 314.448 258.7 314.78C260.95 318.929 263.89 322.742 267.638 326.289C281.526 339.259 303.668 321.769 290.618 306.636C268.525 280.907 308.994 236.073 292.9 209.101C299.576 169.384 298.429 174.165 302.371 134.01C302.406 133.278 302.436 132.667 302.346 131.989C305.548 120.082 308.809 108.24 312.194 96.3416C317.496 77.6787 289.035 67.317 283.731 86.0409L283.728 86.102Z" fill="#8853D1"/>
<path d="M191.331 292.271C217.141 296.629 243.104 301.606 269.175 304.323C271.552 304.559 272.024 301.093 269.717 300.676C243.926 295.952 217.601 293.406 191.608 290.325C190.328 290.203 190.054 292.087 191.328 292.332L191.331 292.271Z" fill="white"/>
<path d="M273.609 256.601C271.247 271.425 266.677 286.327 265.774 301.344C265.628 304.398 269.761 305.024 270.457 301.997C273.852 287.344 273.62 271.722 275.558 256.816C275.742 255.539 273.796 255.263 273.551 256.537L273.609 256.601Z" fill="white"/>
<path d="M207.505 329.225C213.948 326.35 220.394 323.414 226.893 320.664C233.327 317.972 240.788 316.86 246.882 313.601C248.642 312.645 248.861 309.35 246.356 309.23C239.394 308.897 232.363 312.539 226.161 315.487C219.209 318.766 212.649 322.798 206.319 327.148C205.178 327.95 206.19 329.835 207.502 329.286L207.505 329.225Z" fill="white"/>
<path d="M227.744 330.806C239.497 329.532 254.289 324.914 263.298 317.019C265.216 315.336 263.538 312.011 261.042 312.994C255.3 315.29 250.099 319.081 244.461 321.75C238.824 324.418 233.137 326.84 227.122 328.45C225.758 328.813 226.391 330.925 227.744 330.806Z" fill="white"/>
<path d="M271.779 343.384C283.647 335.871 297.351 332.242 309.048 324.476C311.451 322.877 309.195 318.851 306.565 320.072C293.856 325.952 280.007 331.35 269.912 341.457C268.754 342.626 270.577 344.183 271.837 343.447L271.779 343.384Z" fill="white"/>
<path d="M254.921 336.026C261.704 335.004 268.049 330.348 273.445 326.321C275.476 324.827 273.572 321.124 271.187 322.356C265.098 325.493 259.501 329.878 254.099 334.027C253.273 334.661 253.813 336.156 254.924 335.965L254.921 336.026Z" fill="white"/>
<path d="M60.5353 20.7472C72.212 24.9181 85.2683 25.8493 97.4837 27.7197C110.185 29.6745 223.274 45.9241 235.978 47.8179C248.682 49.7116 261.389 51.5444 274.096 53.3771C286.378 55.1283 299.265 58.3164 311.696 58.2381C314.637 58.1952 315.365 53.21 312.527 52.4007C300.638 48.8318 287.319 48.2556 275.037 46.5044C262.33 44.6717 249.62 42.9 236.849 41.1255C224.139 39.3538 111.05 23.1043 98.2734 21.4519C86.0463 19.8259 73.2611 17.071 60.8618 17.763C59.326 17.8731 58.9678 20.2436 60.4132 20.7413L60.5353 20.7472Z" fill="white"/>
<path d="M52.3468 24.3347C49.3877 28.6008 48.9123 33.4143 48.1199 38.4575C46.9954 45.3214 45.9322 52.1882 44.8107 58.991C42.556 72.841 27.2325 180.648 25.2191 194.571C23.2874 208.069 21.2946 221.564 19.3628 235.062C18.3576 241.993 17.3523 248.924 16.35 255.794C15.4468 261.873 13.9852 268.108 14.4258 274.251C14.649 277.261 19.2093 277.908 20.263 275.081C24.5473 263.594 24.6729 249.458 26.3542 237.356C28.3065 223.43 30.3199 209.508 32.2692 195.643C34.201 182.145 49.565 74.7683 51.2524 61.2585C52.1326 54.3829 53.0157 47.4463 53.8347 40.5677C54.5225 35.1522 55.6291 29.9403 53.8621 24.6521C53.647 24.0296 52.6755 23.8606 52.2798 24.4538L52.3468 24.3347Z" fill="white"/>
<path d="M317.051 64.0047C312.519 75.5417 311.251 87.9697 309.503 100.191C307.591 113.261 292.37 220.217 290.459 233.287C288.611 246.3 286.706 259.248 284.858 272.26C283.198 283.935 279.579 296.862 280.419 308.718C280.646 311.667 285.206 312.314 286.196 309.545C290.34 298.418 290.553 285.021 292.214 273.347C294.061 260.335 295.906 247.383 297.753 234.371C299.603 221.298 314.886 114.345 316.736 101.272C318.484 89.0505 320.785 76.7944 319.662 64.4357C319.544 63.0832 317.479 62.7396 316.987 64.0629L317.051 64.0047Z" fill="white"/>
<path d="M22.3629 282.039C33.3122 287.338 47.1888 287.758 59.0988 289.613C71.797 291.629 184.886 307.879 197.596 309.65C210.303 311.483 223.01 313.316 235.778 315.151C247.755 316.888 261.282 320.78 273.396 319.646C276.223 319.414 276.858 315.098 274.215 314.053C262.919 309.594 248.842 309.532 236.804 307.793L198.622 302.292C185.915 300.459 72.8257 284.21 60.0488 282.557C48.0631 281.004 34.641 277.484 22.6689 279.482C21.4357 279.668 21.1705 281.369 22.3076 281.914L22.3629 282.039Z" fill="white"/>
<path d="M88.6162 67.0876C94.7845 69.9541 101.919 70.5405 108.6 71.6561C115.647 72.7893 223.082 88.2173 230.132 89.2894C243.746 91.3492 258.204 94.9798 271.984 94.8437C274.925 94.8008 275.65 89.8769 272.815 89.0065C259.66 85.0097 244.751 84.4184 231.125 82.6029C224.069 81.6529 116.634 66.2249 109.515 65.3331C102.822 64.4618 95.8478 63.0871 89.0648 64.1092C87.5232 64.3415 87.2377 66.4706 88.6162 67.0876Z" fill="white"/>
<path d="M88.0819 65.3479C83.692 68.8108 83.9896 76.661 83.0692 81.8205C81.7176 89.5918 67.1781 191.254 66.0709 199.037C64.8996 206.878 63.7924 214.661 62.6212 222.502C61.613 229.494 59.2756 237.402 60.1638 244.423C60.5092 247.439 64.8282 248.013 66.001 245.253C68.824 238.716 68.8494 230.514 69.7964 223.519C70.9066 215.675 72.0166 207.83 73.1239 200.047C74.2311 192.264 88.6514 90.536 89.5754 82.7442C90.1264 77.6282 92.5686 70.0928 89.4198 65.5343C89.1319 65.1532 88.5239 65.0629 88.1428 65.3508L88.0819 65.3479Z" fill="white"/>
<path d="M271.48 91.3306C268.29 96.5652 267.396 102.461 266.557 108.481C265.38 116.444 250.89 218.353 249.71 226.378C248.614 233.916 247.519 241.455 246.423 248.994C245.493 255.622 243.101 263.405 244.19 270.069C244.721 273.033 248.671 273.65 249.966 270.896C252.751 265.152 252.683 257.619 253.598 251.296C254.714 243.33 255.891 235.367 257.007 227.4C258.102 219.862 272.514 118.316 273.609 110.778C274.527 104.394 275.567 98.0153 273.85 91.6888C273.591 90.6969 271.948 90.4959 271.418 91.3276L271.48 91.3306Z" fill="white"/>
<path d="M62.0799 245.31C66.9363 248.726 73.1633 249.085 78.9307 250.096C86.702 251.448 194.864 267.033 202.708 268.143C210.067 269.169 217.422 270.255 224.781 271.281C232.139 272.307 239.325 274.365 246.347 273.477C249.18 273.123 249.803 269.051 247.165 267.884C241.047 265.265 233.769 265.1 227.205 264.112C219.361 263.002 211.578 261.895 203.737 260.724C196.381 259.637 88.6411 244.194 81.2739 243.352C75.1254 242.629 68.4071 241.022 62.3743 242.998C61.5016 243.324 61.3151 244.661 62.0858 245.188L62.0799 245.31Z" fill="white"/>
<path d="M313.781 59.2565C316.347 56.8082 316.007 53.6698 317.858 50.8199C319.973 47.5541 323.833 48.7795 325.967 51.5141C327.467 53.4225 327.708 56.0665 326.323 58.1429C324.478 60.8706 321.739 60.5558 318.813 60.2933C314.427 59.8385 312.089 66.4605 316.603 68.0846C329.356 72.7968 341.192 57.018 331.832 46.6525C327.531 41.8552 319.807 39.5265 314.509 44.048C310.617 47.3511 307.118 56.4888 313.042 59.3435C313.281 59.4774 313.65 59.4339 313.842 59.2595L313.781 59.2565Z" fill="white"/>
<path d="M58.5228 20.5897C61.2798 21.8236 64.0431 21.6498 65.4196 18.4711C66.5139 16.0747 65.5983 13.4598 63.9758 11.5455C59.9225 6.69884 52.2532 4.49509 46.3773 7.02985C40.5014 9.56462 37.6321 15.794 39.111 21.9867C40.4359 27.5598 46.414 34.3964 52.7782 33.1706C56.1755 32.5374 56.7496 28.2183 53.7048 26.6032C50.8984 25.1221 48.2721 24.9964 46.7751 21.7414C45.6646 19.3619 45.7437 16.4273 47.911 14.6333C50.4595 12.5514 53.6763 13.1339 56.2995 14.6063C57.3115 15.2057 58.6201 16.0029 59.1782 17.1315C59.5707 17.8849 59.3442 16.2213 59.1812 17.0706C59.0908 17.6784 58.3488 19.1121 58.0781 19.6501C57.8774 20.0078 58.0983 20.5082 58.4589 20.6479L58.5228 20.5897Z" fill="white"/>
<path d="M15.249 272.086C15.249 272.086 15.2489 272.086 15.4874 272.22C16.0865 272.494 16.709 272.279 17.0989 271.807C17.2269 271.691 17.2937 271.572 17.4217 271.456C18.0036 270.81 17.9313 269.766 17.4748 269.071C15.8205 266.543 11.8939 266.722 9.33415 267.762C6.46312 268.911 4.31594 271.563 3.08201 274.32C0.544313 280.014 1.15006 287.818 5.7066 292.383C10.4987 297.142 18.218 297.022 23.655 293.425C28.7109 290.117 31.9999 281.52 25.058 278.188C22.6645 277.032 20.1103 279.236 20.3599 281.697C20.6529 284.527 21.3361 285.601 18.3836 287.174C15.6841 288.575 11.8737 288.882 10.1118 286.043C8.46044 283.454 8.58653 279.542 9.81753 276.846C11.3978 273.249 14.4893 273.886 17.0407 271.743C16.424 271.836 15.7492 271.865 15.1326 271.958C14.4783 271.559 14.9849 269.931 14.4988 271.132C14.3562 271.554 14.6353 272.118 15.1908 272.022L15.249 272.086Z" fill="white"/>
<path d="M273.001 312.893C264.514 313.711 267.715 327.394 271.882 331.144C277.402 336.061 287.669 335.144 292.696 329.875C296.886 325.485 297.646 318.542 295.155 313.035C292.777 307.718 285.551 302.658 280.576 308.113C279.281 309.582 279.807 312.668 281.86 313.256C284.094 313.914 285.761 313.626 287.072 315.648C288.38 317.731 288.525 321.105 287.323 323.19C285.717 326.052 281.467 326.583 278.498 325.951C274.315 325.077 273.017 318.955 275.013 315.622C275.874 314.255 274.295 312.71 272.943 312.829L273.001 312.893Z" fill="white"/>
<path d="M201.927 110.663C213.015 112.509 216.034 118.72 218.953 128.642C221.805 138.158 224.371 147.811 226.204 157.58C226.812 160.825 228.247 162.425 229.984 165.098C231.71 167.736 233.4 170.397 235.05 173.082C241.176 183.174 247.056 193.412 252.687 203.787C255.696 209.244 258.684 214.728 261.303 220.384C263.781 225.865 267.029 231.278 266.055 237.537C264.944 244.694 260.949 251.999 253.344 253.677C249.606 254.503 245.551 254.845 241.73 255.208L228.555 256.443C204.908 258.457 181.198 259.623 157.468 259.939C148.378 260.059 135.215 260.485 126.359 259.215C109.449 255.213 106.114 244.705 99.498 230.513C93.8884 218.397 88.5291 206.166 83.4237 193.829L75.6857 175.31C74.3776 172.171 71.9319 166.769 71.0827 163.713C69.3877 157.614 68.4006 149.997 67.432 143.693C66.568 138.069 65.735 132.246 65.1322 126.586C64.9326 124.712 64.868 121.586 65.2263 119.818C66.323 114.406 69.7535 108.821 74.4055 105.764C76.0608 104.676 79.4217 103.598 81.3606 103.365C88.3654 102.519 95.764 102.601 102.806 102.615C123.801 102.735 144.779 103.803 165.676 105.816C177.825 106.897 189.921 108.515 201.927 110.663ZM212.295 188.939L212.838 188.609C212.049 186.977 210.704 184.487 210.426 182.775L209.609 183.173C210.711 185.218 211.504 186.725 212.295 188.939Z" fill="black"/>
<path d="M201.288 114.157C204.817 114.897 208.165 115.866 210.593 118.693C215.063 123.896 219.641 145.079 221.284 152.226C221.946 155.104 222.251 158.243 223.352 160.984C224.032 162.676 225.398 164.359 226.397 165.89C228.284 168.763 230.129 171.662 231.931 174.588C239.301 186.703 246.279 199.051 252.856 211.614C255.551 216.776 258.192 221.955 260.518 227.296C261.361 229.235 261.845 230.942 262.142 232.995C262.87 238.05 258.761 241.128 254.234 241.977C249.987 242.774 245.24 243.139 240.876 243.479L226.76 244.626C205.976 246.122 185.154 247.053 164.319 247.418C159.122 247.49 153.925 247.536 148.727 247.555C143.929 247.574 138.351 247.589 133.555 247.177C128.028 246.958 120.509 242.899 117.455 238.267C114.136 233.233 111.684 227.173 109.15 221.679C103.05 208.278 97.1367 194.794 91.4113 181.229L85.4001 167.349C84.478 165.218 83.2232 162.468 82.4574 160.312C81.976 158.956 81.645 155.355 81.4372 153.744C81.0631 150.945 80.6624 148.149 80.2353 145.357L77.2297 125.765C76.8512 123.259 76.3629 120.753 76.0726 118.236C75.8922 116.672 75.6943 114.738 75.9899 113.187C76.3513 111.291 77.6643 109.28 79.2874 108.233C82.9296 105.882 93.3506 106.421 97.8915 106.373C122.353 106.261 146.803 107.488 171.131 110.046C180.136 110.983 192.573 112.24 201.288 114.157ZM212.295 188.939L212.838 188.609C212.049 186.977 210.704 184.487 210.426 182.775L209.609 183.173C210.711 185.218 211.504 186.725 212.295 188.939Z" fill="#D70026"/>
<path d="M201.917 120.185C204.692 120.58 206.094 122.266 206.949 124.824C209.566 132.666 211.484 140.808 213.318 148.865C214.369 153.486 213.309 154.359 208.694 154.303C204.403 154.251 200.122 154.015 195.835 153.885L167.308 152.96C144.057 152.218 120.801 151.635 97.5424 151.212C96.9299 151.188 96.3184 151.145 95.7085 151.082C92.9677 150.797 92.1273 149.412 91.6818 146.839C91.012 142.97 90.4181 139.077 89.7836 135.2L88.0341 124.429C87.3966 120.545 84.94 113.859 90.9932 113.782C94.9954 113.732 98.9472 113.787 102.95 113.877C111.41 114.075 119.866 114.375 128.318 114.776C143.243 115.448 158.155 116.367 173.05 117.531C179.033 117.964 184.963 118.476 190.931 119.072C194.454 119.424 198.45 119.643 201.917 120.185Z" fill="black"/>
<path d="M199.521 125.585C199.905 125.624 200.566 125.743 200.874 125.973C202.279 127.024 206.666 145.398 207.25 148.047C207.581 149.546 207.816 151.067 208.048 152.584C204.04 152.618 199.532 152.356 195.5 152.213L174.64 151.521C148.912 150.672 123.177 150.003 97.4394 149.515C93.8421 149.205 93.8054 149.023 93.2375 145.393C92.2767 139.252 91.2928 133.112 90.2937 126.977C89.9086 124.613 89.4693 122.283 89.3017 119.891C92.4622 119.105 103.118 119.829 106.99 119.943C125.676 120.525 144.349 121.444 163.002 122.699C169.781 123.107 176.467 123.563 183.235 124.137C188.535 124.587 194.263 124.805 199.521 125.585Z" fill="#93A42A"/>
<path d="M200.706 121.407C202.411 121.656 204.085 122.02 204.913 123.649C206.41 126.591 212.857 150.256 212.046 151.871C211.554 152.453 210.744 152.621 210.017 152.752C209.554 152.478 209.745 152.139 209.692 151.584C209.586 150.463 209.331 149.365 209.084 148.267C208.054 143.884 206.943 139.52 205.753 135.177C204.818 131.664 203.933 127.005 201.785 124.124C200.045 123.7 196.491 123.501 194.598 123.355L183.515 122.484C163.958 120.981 144.38 119.789 124.785 118.908C118.105 118.631 111.423 118.394 104.74 118.196L97.1487 117.984C95.9056 117.941 94.0579 117.804 92.858 117.846C91.8424 117.881 90.1469 118.167 89.0339 118.285L88.7484 118.049C88.498 117.181 88.8221 116.098 89.4922 115.496C91.4823 114.724 101.512 115.268 104.277 115.339C127.063 115.92 149.83 117.105 172.554 118.893C179.733 119.454 186.938 119.926 194.092 120.736C196.23 120.978 198.626 121.065 200.706 121.407Z" fill="#D70026"/>
<path d="M212.838 188.609C214.998 192.035 216.851 194.783 221.277 195.181L221.898 197.347C222.917 196.814 223.231 196.658 224.347 196.347C226.091 195.986 228.532 195.981 230.354 195.935C233.944 195.961 237.868 195.573 240.496 198.514C242.78 201.071 245.268 205.031 245.33 208.576C245.37 210.842 244.124 212.305 242.125 213.147C241.971 213.667 241.92 213.776 242.086 214.317C245.301 214.407 247.877 214.443 250.214 217.078C254.605 222.03 258.86 233.147 248.36 233.828C244.859 234.054 241.165 234.476 237.743 233.424C234.354 232.382 232.924 229.565 231.385 226.662L230.577 227.103C231.233 230.975 230.048 234.373 225.577 234.886C221.312 235.376 215.85 235.892 212.031 233.658C210.416 232.675 208.984 229.978 208.195 228.375L207.224 228.845C207.311 229.863 207.231 230.889 206.991 231.883C206.707 233.045 205.847 234.74 204.713 235.239C200.993 236.872 192.27 237.102 188.316 236.197C185.987 235.751 183.689 233.593 182.69 231.406C180.185 225.923 176.32 221.306 183.384 217.539C183.841 216.932 183.615 217.111 184.328 216.863C184.081 216.569 183.812 216.376 183.513 216.136L185.816 216.108C188.437 216.044 190.989 215.929 193.593 215.616C197.621 214.585 198.177 212.687 198.094 208.813C197.522 206.475 196.405 204.463 195.289 202.357C196.079 202 195.993 201.682 196.229 200.895C196.559 199.019 198.141 197.918 199.643 196.999C199.724 196.709 199.979 196.537 200.211 196.331L200.54 196.425L200.561 196.378L200.176 196.239C199.987 196.011 199.758 195.789 199.547 195.576C200.246 195.612 201.205 195.581 201.925 195.58C204.255 195.543 206.94 195.477 209.228 195.09C211.994 193.895 212.416 191.69 212.295 188.939L212.838 188.609Z" fill="black"/>
<path d="M185.816 216.109C188.437 216.044 190.989 215.929 193.593 215.616C193.664 215.904 193.775 216.431 193.864 216.691C197.274 216.546 200.072 217.083 202.685 219.389C204.542 221.724 206.821 225.861 207.224 228.845C207.311 229.863 207.231 230.889 206.991 231.883C206.707 233.045 205.847 234.74 204.713 235.239C200.993 236.872 192.27 237.102 188.316 236.197C185.987 235.751 183.689 233.593 182.69 231.406C180.185 225.923 176.32 221.306 183.384 217.539C183.841 216.932 183.615 217.111 184.328 216.863C184.081 216.569 183.812 216.376 183.513 216.136L185.816 216.109Z" fill="black"/>
<path d="M185.816 216.109C188.437 216.044 190.989 215.929 193.593 215.616C193.664 215.904 193.775 216.431 193.864 216.691C191.435 216.68 188.648 216.892 186.194 217.006C186.138 216.698 185.959 216.393 185.816 216.109Z" fill="#D84149"/>
<path d="M183.513 216.136L185.816 216.109C185.958 216.393 186.138 216.698 186.194 217.006C185.139 217.157 184.418 217.289 183.384 217.539C183.841 216.932 183.615 217.111 184.328 216.863C184.081 216.569 183.811 216.376 183.513 216.136Z" fill="#D70026"/>
<path d="M197.549 218.272C199.846 218.581 201.178 219.515 202.481 221.39C210.864 233.445 200.737 231.927 192.202 231.892C190.561 231.507 189.016 231.143 187.86 229.796C186.581 228.306 182.134 220.568 184.56 219.21C186.932 217.881 194.808 217.852 197.549 218.272Z" fill="#C674A4"/>
<path d="M242.085 214.317C245.301 214.407 247.876 214.443 250.214 217.078C254.604 222.03 258.86 233.148 248.36 233.828C244.859 234.055 241.165 234.477 237.743 233.424C234.354 232.382 232.924 229.565 231.384 226.662C230.476 225.091 229.036 221.438 228.687 219.728C229.063 216.6 231.213 215.476 233.99 214.773C236.438 214.344 239.561 214.332 242.085 214.317Z" fill="black"/>
<path d="M231.743 217.434C233.444 215.841 237.275 215.729 239.487 215.672C242.597 215.591 246.946 215.171 249.112 217.852C251.131 220.352 253.901 224.888 253.221 228.204C252.812 229.611 252.204 230.325 251.174 231.287C247.563 232.211 239.086 233.246 236.115 230.428C233.846 228.275 231.144 223.297 230.711 220.098C230.553 218.938 231.034 218.261 231.743 217.434Z" fill="#F3B8B4"/>
<path d="M251.174 231.286C247.563 232.211 239.086 233.246 236.115 230.428C233.846 228.275 231.143 223.297 230.711 220.097C230.553 218.937 231.034 218.261 231.743 217.433L231.814 217.536C232.313 218.259 232.375 218.852 232.748 219.575C234.411 222.802 236.405 228.78 240.578 229.301C243.28 229.638 247.82 229.422 250.582 228.963C251.458 228.818 252.364 228.386 253.221 228.204C252.812 229.611 252.204 230.325 251.174 231.286Z" fill="#EB8479"/>
<path d="M230.354 195.935C233.945 195.962 237.868 195.573 240.496 198.514C242.78 201.071 245.268 205.031 245.33 208.576C245.37 210.843 244.124 212.306 242.125 213.148C241.971 213.667 241.92 213.776 242.086 214.317C239.562 214.332 236.438 214.344 233.99 214.773L233.841 213.741C229.846 213.72 227.845 213.93 224.732 210.816C222.68 208.52 220.545 204.45 219.938 201.39L219.931 199.891C220.46 198.885 221.052 198.1 221.898 197.347C222.918 196.814 223.231 196.658 224.347 196.347C226.091 195.987 228.532 195.981 230.354 195.935Z" fill="black"/>
<path d="M233.841 213.741C235.338 213.848 240.672 213.465 242.125 213.148C241.971 213.667 241.92 213.776 242.086 214.317C239.561 214.332 236.438 214.344 233.99 214.773L233.841 213.741Z" fill="#D84149"/>
<path d="M222.64 198.856C224.817 196.877 230.498 197.196 233.364 197.242C235.772 197.28 238.335 197.772 239.899 199.723C241.801 202.097 243.748 205.298 243.774 208.411C242.526 212.605 238.345 211.542 234.787 211.972C232.194 212.061 228.512 212.23 226.595 210.202C224.412 207.891 221.683 203.391 221.589 200.292C221.979 199.653 222.151 199.419 222.64 198.856Z" fill="#F3B8B4"/>
<path d="M222.64 198.856C223.276 199.695 223.522 200.595 223.985 201.496C225.661 204.751 227.442 208.79 231.583 209.255C234.673 209.662 237.998 209.391 241.092 208.989C242.108 208.856 242.766 208.507 243.774 208.411C242.526 212.605 238.345 211.542 234.787 211.972C232.194 212.061 228.512 212.231 226.595 210.202C224.412 207.891 221.683 203.391 221.589 200.292C221.979 199.654 222.151 199.419 222.64 198.856Z" fill="#EB8479"/>
<path d="M212.838 188.609C214.998 192.035 216.851 194.783 221.277 195.181L221.898 197.347C221.051 198.1 220.459 198.885 219.931 199.891L219.938 201.39L219.694 202.246C219.298 202.389 219.413 202.338 218.912 202.179C215.879 197.335 214.897 196.912 209.293 196.287C209.168 195.815 209.207 195.572 209.228 195.09C211.994 193.895 212.416 191.69 212.295 188.939L212.838 188.609Z" fill="#D70026"/>
<path d="M198.76 208.306C199.976 210.931 201.257 213.465 202.51 216.066C202.686 216.43 203.629 218.411 203.721 218.719C203.486 219.24 203.511 219.018 203.6 219.558L202.685 219.389C200.072 217.083 197.274 216.547 193.864 216.691C193.775 216.431 193.664 215.904 193.593 215.616C197.621 214.585 198.177 212.687 198.094 208.813L198.76 208.306Z" fill="#D70026"/>
<path d="M224.732 210.816C227.845 213.93 229.846 213.72 233.841 213.741L233.99 214.773C231.213 215.476 229.063 216.6 228.687 219.727L227.896 220.092C226.513 217.515 225.087 214.408 223.794 211.744C224.124 211.153 224.12 211.087 224.732 210.816Z" fill="#D70026"/>
<path d="M219.938 201.39C220.545 204.45 222.68 208.52 224.732 210.816C224.12 211.087 224.124 211.153 223.793 211.744C222.155 208.294 220.764 205.543 218.912 202.179C219.413 202.338 219.298 202.389 219.694 202.246L219.938 201.39Z" fill="#D84149"/>
<path d="M202.685 219.389L203.6 219.558C203.511 219.018 203.486 219.24 203.721 218.719C204.888 221.495 206.847 225.549 208.195 228.375L207.224 228.845C206.821 225.861 204.542 221.724 202.685 219.389Z" fill="#D84149"/>
<path d="M209.228 195.09C209.207 195.572 209.168 195.815 209.293 196.287C207.041 196.325 204.956 196.353 202.71 196.513L201.925 195.58C204.255 195.543 206.94 195.477 209.228 195.09Z" fill="#D84149"/>
<path d="M196.229 200.895C196.362 203.77 197.544 205.707 198.76 208.306L198.094 208.813C197.522 206.476 196.405 204.464 195.289 202.357C196.079 202.001 195.993 201.683 196.229 200.895Z" fill="#D84149"/>
<path d="M227.896 220.092L228.687 219.727C229.036 221.438 230.477 225.091 231.385 226.662L230.578 227.103C230.254 225.29 228.683 221.939 227.896 220.092Z" fill="#D84149"/>
<path d="M199.548 195.577C200.246 195.612 201.205 195.581 201.925 195.58L202.71 196.513C201.378 196.609 200.724 196.87 199.643 196.999C199.724 196.709 199.979 196.537 200.212 196.331L200.54 196.425L200.561 196.378L200.176 196.239C199.987 196.011 199.758 195.789 199.548 195.577Z" fill="#D84149"/>
<path d="M199.379 199.004C201.854 197.253 208.801 197.505 211.816 197.909C213.789 198.173 215.274 199.032 216.33 200.711C219.031 205.007 228.935 224.202 229.25 228.225C229.159 229.362 228.765 230.665 227.977 231.507C226.232 233.37 222.152 233.34 219.791 233.386C217.587 233.428 214.075 233.269 212.414 231.611C211.617 230.816 210.98 229.817 210.439 228.837C208.729 225.743 198.111 203.914 198.147 201.757C198.164 200.722 198.665 199.725 199.379 199.004Z" fill="#F3B8B4"/>
<path d="M229.25 228.225C229.159 229.362 228.766 230.665 227.977 231.508C226.232 233.37 222.152 233.34 219.791 233.386C217.587 233.429 214.075 233.269 212.414 231.611C211.617 230.816 210.98 229.818 210.439 228.837C208.729 225.743 198.111 203.914 198.147 201.757C198.164 200.722 198.665 199.725 199.379 199.004C201.765 204.952 204.709 210.823 207.613 216.616C209.338 219.618 212.16 228.095 215.288 229.57C218.061 230.877 225.224 230.283 228.268 229.465C229.001 229.268 229.101 228.884 229.25 228.225Z" fill="#EB8479"/>
<path d="M142.107 218.707C142.161 218.712 142.215 218.717 142.269 218.722C149.085 218.796 155.805 233.063 149.945 237.364C147.082 239.465 136.756 239.35 132.805 238.834C130.618 238.345 128.286 237.343 126.832 235.396C125.198 233.248 122.024 227.048 122.228 224.415C122.76 217.555 137.634 218.201 142.107 218.707Z" fill="black"/>
<path d="M142.396 220.128C147.097 220.479 152.363 230.097 149.591 232.973C148.089 234.531 137.64 234.455 134.895 234.162C133.682 233.884 131.871 233.179 130.981 232.072C129.5 230.456 126.421 224.669 126.649 222.625C127.031 219.21 140.427 219.904 142.396 220.128Z" fill="#C674A4"/>
<path d="M133.486 198.28C138.888 198.722 143.595 207.883 142.994 212.83C142.463 217.198 138.351 217.579 134.829 217.72C130.874 217.878 126.949 218.272 123.05 217.733C121.747 217.45 119.113 216.491 118.38 215.483C105.131 197.266 120.483 197.557 133.486 198.28Z" fill="black"/>
<path d="M133.053 199.702C134.704 199.875 136.254 200.63 137.328 202.01C139.024 204.274 141.221 207.634 141.228 210.525C141.231 212.122 139.289 212.796 137.968 212.966C134.111 213.46 129.778 213.575 125.931 213.141C124.469 212.805 122.442 212.357 121.479 210.957C120.087 209.18 117.393 204.054 117.649 201.88C117.996 198.927 130.994 199.365 133.053 199.702Z" fill="#C674A4"/>
<path d="M123.983 178.156C126.388 178.649 128.233 179.675 129.748 181.663C131.856 184.495 134.2 188.715 133.807 192.377C133.294 197.159 128.135 197.305 124.492 197.373C121.039 197.437 117.863 197.744 114.457 197.358C112.51 196.954 109.675 196.043 108.619 194.228C105.556 189.177 99.8974 180.545 109.415 178.436C112.679 177.712 120.589 177.723 123.983 178.156Z" fill="black"/>
<path d="M124.904 179.572C128.688 180.425 131.774 187.369 132.19 190.901C131.973 191.113 131.389 191.643 131.18 191.787C128.758 193.469 118.279 193.145 115.665 192.728C111.597 191.693 106.39 181.82 109.198 180.192C111.278 178.985 122.197 179.108 124.904 179.572Z" fill="#C674A4"/>
<path d="M171.153 217.928C178.574 218.899 186.249 237.724 172.954 237.413C168.835 237.316 165.863 238.051 161.34 237.375C159.359 236.878 157.39 236.074 156.24 234.34C149.521 224.207 149.187 217.759 163.484 217.722C165.976 217.716 168.369 217.484 171.153 217.928Z" fill="black"/>
<path d="M171.145 219.271C174.974 219.337 180.435 229.399 177.495 231.649C175.383 233.265 166.662 232.973 163.839 232.703C162.532 232.378 161.109 231.941 160.184 230.668C158.809 228.959 155.985 223.548 156.222 221.471C156.581 218.328 169.104 218.942 171.145 219.271Z" fill="#C674A4"/>
<path d="M158.109 197.431C162.272 197.812 163.996 197.373 167.01 200.85C170.986 205.439 174.706 216.469 165.06 216.774C160.396 216.922 149.874 218.445 146.992 213.691C143.915 208.615 138.665 200.884 147.342 198.139C148.067 198.146 149.954 197.822 150.823 197.745C153.245 197.519 155.677 197.414 158.109 197.431Z" fill="black"/>
<path d="M162.132 199.091C165.48 199.19 169.717 207.177 169.565 209.921C169.361 213.621 157.067 212.543 154.593 212.282C149.869 211.114 148.51 206.318 146.792 202.223C146.868 201.592 147.031 200.077 147.555 199.838C150.322 198.575 159.47 198.789 162.132 199.091Z" fill="#C674A4"/>
<path d="M147.381 177.766C151.09 177.955 154.739 177.833 157.374 180.932C159.747 183.722 161.936 187.668 161.85 191.441C161.792 193.975 160.325 195.75 157.889 196.349L158.109 197.431C155.676 197.414 153.245 197.518 150.823 197.745C149.954 197.822 148.067 198.146 147.342 198.139L147.383 197.838C148.059 197.572 149.138 197.509 149.888 197.428C147.864 196.714 147.941 198.065 146.71 196.939C140.091 196.73 138.148 195.07 135.237 189.152C132.644 183.884 132.163 179.442 139.448 178.098C142.125 177.987 144.676 177.844 147.381 177.766Z" fill="black"/>
<path d="M146.71 196.939C149.821 196.843 154.975 196.861 157.889 196.349L158.109 197.431C155.677 197.414 153.245 197.518 150.823 197.745C149.954 197.822 148.067 198.146 147.343 198.139L147.384 197.838C148.059 197.572 149.139 197.509 149.888 197.428C147.865 196.714 147.942 198.065 146.71 196.939Z" fill="#D84149"/>
<path d="M152.344 179.553C156.426 179.572 159.156 185.999 160.264 189.194C160.141 189.849 159.923 190.621 159.756 191.278C156.717 192.951 148.821 192.605 145.285 192.147C141.183 191.432 137.536 184.356 137.64 180.974C137.716 178.472 150.053 179.03 152.344 179.553Z" fill="#C674A4"/>
<path d="M181.907 196.857C187.789 196.794 191.977 196.736 195.289 202.357C196.405 204.464 197.522 206.475 198.094 208.813C198.177 212.687 197.621 214.585 193.593 215.616C190.989 215.929 188.437 216.044 185.816 216.109L183.513 216.136C180.822 215.662 178.703 216.332 176.189 214.152C173.996 212.251 170.408 205.904 170.241 203.121C169.865 196.825 177.516 197.13 181.907 196.857Z" fill="black"/>
<path d="M188.595 198.444C189.026 198.513 189.597 198.617 189.971 198.777C192.99 200.066 200.413 210.828 193.436 211.321C189.619 211.591 186.051 211.803 182.304 211.363C181.506 211.195 179.695 210.58 179.127 209.896C177.323 207.722 174.786 203.143 174.569 200.326C174.543 199.981 174.798 199.369 175.065 199.224C177.511 197.901 186.166 198.091 188.595 198.444Z" fill="#C674A4"/>
<path d="M167.284 176.867C169.171 176.96 172.424 176.82 174.333 176.691C174.418 176.977 174.538 177.519 174.726 177.712C180.027 177.818 183.343 178.715 186.098 183.676C187.039 185.446 187.989 187.141 188.336 189.141C188.852 193.731 187.29 195.596 182.708 195.988C182.117 196.034 181.525 196.07 180.933 196.094C177.055 196.257 172.256 196.695 168.647 195.282C165.196 193.885 163.527 189.92 162.048 186.811C160.092 182.701 160.779 180.152 165.039 178.271C165.038 178.172 165.094 177.956 165.117 177.848L165.515 177.707L165.338 177.412L165.235 177.582C165.161 177.188 165.047 177.143 164.728 176.858L167.284 176.867Z" fill="black"/>
<path d="M167.284 176.867C169.171 176.96 172.424 176.82 174.333 176.691C174.418 176.977 174.538 177.519 174.726 177.712C172.441 177.672 170.154 177.698 167.87 177.791L167.284 176.867Z" fill="#D84149"/>
<path d="M164.727 176.858L167.284 176.867L167.87 177.791C166.761 177.918 166.12 177.99 165.039 178.271C165.038 178.172 165.094 177.955 165.117 177.848L165.515 177.707L165.337 177.412L165.235 177.582C165.161 177.188 165.046 177.143 164.727 176.858Z" fill="#D70026"/>
<path d="M177.967 179.158C179.78 179.27 181.482 180.066 182.73 181.386C184.618 183.38 189.836 191.204 184.229 191.679C180.946 191.957 177.601 192.011 174.3 191.812C172.953 191.703 170.859 191.271 169.844 190.177C168.063 188.375 165.4 183.583 165.166 181.215C164.845 177.979 176.001 179.019 177.967 179.158Z" fill="#C674A4"/>
<path d="M197.543 177.493C203.377 177.569 206.264 177.908 209.609 183.173C210.711 185.218 211.504 186.725 212.295 188.939C212.416 191.69 211.994 193.895 209.228 195.09C206.94 195.477 204.255 195.543 201.925 195.58C201.205 195.581 200.246 195.612 199.547 195.577C198.391 195.544 197.242 195.379 196.122 195.085C192.507 194.144 191.157 191.851 189.392 188.83C188.879 188.888 188.79 188.89 188.336 189.141C187.989 187.141 187.039 185.446 186.098 183.677L186.879 183.429C186.544 180.435 188.311 178.983 190.892 177.959C193.33 177.572 195.074 177.526 197.543 177.493Z" fill="black"/>
<path d="M186.88 183.429C187.207 184.67 188.733 187.649 189.392 188.83C188.88 188.888 188.79 188.89 188.336 189.142C187.989 187.141 187.039 185.446 186.098 183.677L186.88 183.429Z" fill="#D84149"/>
<path d="M189.697 180.365C191.016 179.065 193.368 178.758 195.16 178.795C198.954 178.873 203.649 178.064 206.438 181.18C208.24 183.192 211.021 187.508 210.71 190.203C210.123 192.028 209.328 193.242 207.246 193.459C203.642 193.834 197.501 194.44 194.378 192.412C192.131 190.953 189.432 185.941 188.834 183.301C188.566 181.95 188.943 181.399 189.697 180.365Z" fill="#F3B8B4"/>
<path d="M210.71 190.203C210.123 192.028 209.328 193.242 207.246 193.459C203.642 193.834 197.501 194.44 194.378 192.412C192.131 190.953 189.432 185.941 188.834 183.301C188.566 181.95 188.943 181.399 189.697 180.365C190.35 181.146 190.528 181.953 191.001 182.813C193.011 186.469 194.336 190.806 199.247 191.063C201.264 191.169 209.254 191.536 210.71 190.203Z" fill="#EB8479"/>
<path d="M210.426 182.775C211.185 177.974 215.653 177.818 219.509 177.758C224.955 177.674 229.093 177.75 232.377 182.641C235.41 187.159 238.21 193.678 230.48 195.061C230.439 195.344 230.403 195.657 230.354 195.935C228.532 195.981 226.091 195.987 224.347 196.347C223.231 196.658 222.917 196.814 221.898 197.347L221.276 195.181C216.851 194.784 214.998 192.035 212.838 188.609C212.049 186.977 210.704 184.487 210.426 182.775Z" fill="black"/>
<path d="M230.48 195.061C230.439 195.344 230.403 195.657 230.354 195.935C228.532 195.981 226.091 195.986 224.347 196.347C224.612 196.15 224.608 196.165 224.768 195.881L224.433 195.307C226.501 195.26 228.418 195.205 230.48 195.061Z" fill="#D84149"/>
<path d="M221.277 195.181L224.433 195.307L224.768 195.881C224.608 196.165 224.612 196.15 224.347 196.347C223.231 196.658 222.917 196.814 221.898 197.347L221.277 195.181Z" fill="#D84149"/>
<path d="M213.335 180.493C215.372 178.64 219.462 178.914 222.06 179.022C224.814 179.137 227.952 179.324 229.839 181.504C231.296 183.186 234.031 187.373 233.923 189.61C233.912 189.842 233.889 190.072 233.858 190.301C232.985 192.62 231.274 193.305 228.919 193.329C225.501 193.365 220.032 194.266 217.361 191.707C215.043 189.488 212.833 185.912 212.419 182.727C212.297 181.796 212.764 181.139 213.335 180.493Z" fill="#F3B8B4"/>
<path d="M213.335 180.493L213.403 180.612C214.028 181.707 214.377 183.051 214.89 184.031C216.174 186.486 218.099 190.055 221.001 190.736C224.109 191.464 228.109 191.101 231.289 190.782C232.192 190.692 233.205 190.271 233.858 190.301C232.985 192.62 231.274 193.305 228.919 193.329C225.501 193.365 220.032 194.266 217.361 191.707C215.043 189.488 212.833 185.912 212.419 182.727C212.297 181.796 212.764 181.139 213.335 180.493Z" fill="#EB8479"/>
<path d="M117.207 163.265C121.932 164.014 126.096 169.293 124.147 173.991C122.869 177.072 118.162 177.127 115.38 177.102C112.156 177.072 108.819 177.267 105.631 176.896C101.776 176.045 97.4305 173.132 97.6956 168.455C97.9355 164.223 103.288 162.86 106.828 162.974C110.196 163.081 113.635 162.814 117.207 163.265Z" fill="black"/>
<path d="M117.142 164.599C119.113 164.953 120.074 165.517 121.434 167.103C127.956 174.709 110.453 172.877 106.977 172.438C103.777 172.105 101.659 169.523 101.14 166.489C101.427 166.138 102.271 165.104 102.572 164.947C104.797 163.783 115.023 164.232 117.142 164.599Z" fill="#F3B8B4"/>
<path d="M126.579 167.771C126.816 167.28 127.129 166.737 127.424 166.275C128.338 164.818 129.811 163.801 131.497 163.462C132.638 163.225 133.97 163.164 135.184 163.19C141.566 163.323 150.341 161.876 152.247 170.13C153.14 173.995 151.309 176.113 147.539 176.764C147.291 177.374 147.239 177.233 147.381 177.766C144.676 177.844 142.126 177.987 139.449 178.098L139.463 177.892C139.809 177.477 139.745 177.927 140.242 177.527C139.681 177.402 139.343 177.317 138.829 177.057C138.505 176.961 136.834 176.963 136.363 176.946C130.898 176.756 126.656 173.511 126.579 167.771Z" fill="black"/>
<path d="M138.829 177.057C141.842 176.997 144.515 176.947 147.539 176.764C147.291 177.374 147.239 177.233 147.381 177.766C144.676 177.844 142.125 177.987 139.449 178.098L139.463 177.892C139.809 177.477 139.744 177.927 140.242 177.527C139.68 177.402 139.343 177.317 138.829 177.057Z" fill="#D84149"/>
<path d="M145.893 164.912C148.313 165.051 152.522 169.98 150.073 171.615C147.144 173.57 138.877 172.668 135.353 172.484C129.292 170.257 127.613 163.664 136.098 164.451C139.309 164.748 142.48 164.308 145.893 164.912Z" fill="#F3B8B4"/>
<path d="M164.727 176.858C161.028 176.629 157.552 175.887 155.453 172.433C153.638 169.446 153.58 166.499 156.871 164.571C157.72 164.078 158.656 163.753 159.629 163.615C162.048 163.248 169.838 163.482 172.356 164.061C174.307 164.51 177.028 166.45 177.938 168.284C179.157 170.742 178.959 172.171 178.252 174.599C176.867 175.984 176.175 176.259 174.333 176.691C172.424 176.82 169.171 176.96 167.284 176.867L164.727 176.858Z" fill="black"/>
<path d="M171.85 165.139L171.981 165.158C174.89 165.61 178.933 170.248 176.21 172.086C174.681 173.118 165.319 172.94 163.27 172.515C159.724 171.65 158.218 169.997 157.47 166.492C157.701 166.231 158.206 165.692 158.47 165.52C160.594 164.136 169.584 164.744 171.85 165.139Z" fill="#F3B8B4"/>
<path d="M190.714 176.676C187.246 176.586 184.045 175.776 181.797 172.933C178.305 168.294 181.695 164.162 187.135 164.069C192.976 163.973 201.539 163.57 202.331 171.405C202.63 174.36 200.497 176.04 197.857 176.535L197.543 177.493C195.073 177.526 193.33 177.571 190.892 177.959L190.714 176.676Z" fill="black"/>
<path d="M190.714 176.676C193.122 176.606 195.41 176.712 197.858 176.535L197.543 177.493C195.074 177.526 193.33 177.572 190.892 177.959L190.714 176.676Z" fill="#D84149"/>
<path d="M194.613 165.488C196.122 165.817 197.904 166.111 198.919 167.2C202.692 171.247 200.403 172.998 195.82 172.937C193.855 172.912 191.506 172.834 189.73 172.87C187.842 172.387 186.823 172.321 185.411 170.812C178.939 163.895 190.945 165.368 194.613 165.488Z" fill="#F3B8B4"/>
<path d="M217.731 164.972C218.126 165.061 218.519 165.158 218.91 165.264C222.405 166.225 225.666 169.555 224.837 173.429C224.745 173.856 224.595 174.321 224.471 174.742L224.424 174.785C224.149 175.042 223.47 175.684 223.177 175.865C220.694 177.406 214.039 177.116 211.35 176.6C208.851 176.02 207.36 175.576 205.624 173.608C203.736 171.537 202.559 168.196 205.179 166.164C208.107 163.892 214.177 164.58 217.731 164.972Z" fill="black"/>
<path d="M216.814 166.071C219.566 166.358 225.306 169.385 222.495 172.589C221.774 173.411 214.793 173.409 213.564 173.182C211.24 172.661 209.627 172.434 208.016 170.479C203.144 164.567 213.943 165.871 216.814 166.071Z" fill="#F3B8B4"/>
<path d="M215.894 160.8C216.352 160.865 216.542 160.853 216.921 161.122L216.906 161.364C215.834 162.036 211.455 161.568 210.014 161.54C204.964 161.468 199.914 161.339 194.866 161.151L89.8796 159.112C89.3918 159.073 88.9746 159.007 88.6445 158.661L88.7415 158.442C90.6287 157.472 110.853 158.055 114.419 158.084C135.925 158.336 157.428 158.796 178.925 159.464L201.214 160.112C204.539 160.192 212.887 160.31 215.894 160.8Z" fill="black"/>
<path d="M209.609 183.174L210.426 182.775C210.704 184.487 212.049 186.977 212.838 188.609L212.295 188.939C211.504 186.725 210.711 185.218 209.609 183.174Z" fill="#D84149" fill-opacity="0.988235"/>
<path d="M76.4809 108.855L76.5625 108.932C76.6133 109.26 75.544 110.804 75.3269 111.359C73.6197 115.724 74.9584 120.728 75.6662 125.261L77.7852 139.027L79.8372 152.689C80.1642 154.904 80.5035 158.434 81.1061 160.444C81.8475 162.917 83.3477 166.263 84.3804 168.705L90.8805 183.849C95.8142 195.547 100.899 207.181 106.133 218.747C108.623 224.252 111.068 229.751 113.725 235.179C117.619 243.133 125.437 248.25 134.27 248.754C142.094 249.2 149.991 249.025 157.828 248.98C178.817 248.776 199.796 247.947 220.735 246.492C228.193 246.041 235.644 245.465 243.081 244.764C247.213 244.376 251.667 244.061 255.69 243.11C258.201 242.515 259.757 241.217 261.679 239.573C260.563 242.566 259.747 245.34 257.296 247.497C253.486 250.444 243.54 250.95 238.668 251.414C231.863 252.096 225.045 252.643 218.22 253.057C211.91 253.454 205.684 253.953 199.346 254.295C188.274 254.896 177.194 255.304 166.109 255.519C157.995 255.741 149.879 255.823 141.762 255.765C128.66 255.606 116.813 255.365 109.805 242.106C106.62 236.08 103.796 230.16 100.978 223.94C95.4319 211.682 90.0533 199.348 84.8435 186.942C82.4699 181.329 80.0645 175.741 77.7668 170.094C76.7438 167.58 75.5393 165.026 74.7522 162.429C73.209 157.338 68.2404 124.717 68.9978 120.497C69.8093 115.974 72.7502 111.487 76.4809 108.855Z" fill="#D70026"/>
</g>
<defs>
<clipPath id="clip0_70_7">
<rect width="336" height="347" fill="white"/>
</clipPath>
</defs>
</svg>
