<svg width="801" height="378" viewBox="0 0 801 378" fill="none" xmlns="http://www.w3.org/2000/svg">
<path opacity="0.4" d="M0.357063 152.017C1.77591 101.114 2.48534 75.663 22.5923 53.6795C42.6993 31.6961 69.3427 28.5652 122.63 22.3036C188.788 14.5294 280.98 6.04567 390.982 2.15028C501.406 -1.76006 594.95 0.269565 662.269 3.42551C716.512 5.96849 743.634 7.23998 765.066 27.0865C786.498 46.933 789.723 72.8918 796.174 124.809C798.514 143.642 800.263 162.428 800.764 179.04C801.199 193.431 800.8 209.582 799.923 225.958C797.124 278.212 795.725 304.338 775.63 325.664C755.534 346.989 728.452 350.06 674.287 356.201C607.761 363.743 515.057 371.969 404.039 375.799C298.317 379.447 204.457 377.508 136.136 374.574C81.6174 372.232 54.358 371.062 32.6307 350.42C10.9034 329.777 8.50451 304.366 3.70664 253.545C2.30373 238.685 1.18691 223.029 0.563065 207.003C-0.165606 188.284 -0.135038 169.671 0.357063 152.017Z" fill="#783FC7"/>
</svg>
