<svg width="72" height="65" viewBox="0 0 72 65" fill="none" xmlns="http://www.w3.org/2000/svg">
<g clip-path="url(#clip0_69_4203)">
<path d="M23.3267 46.2752C23.3267 46.2752 23.3577 46.23 23.3886 46.185C23.3609 46.2057 23.3438 46.2404 23.3267 46.2752Z" fill="#5C0F8B"/>
<path d="M9.05352 36.7093C9.98059 33.5478 11.4819 30.1356 13.9838 27.9029C14.0766 27.968 14.0688 28.1309 14.1306 28.2415C14.3535 28.0746 14.5579 27.8542 14.8273 27.7198C15.0579 27.5919 15.2545 27.5344 15.4681 27.4417C20.1868 20.7226 40.095 29.6543 41.918 38.1578C42.5934 39.7154 42.7271 41.3647 42.409 42.9935C42.5329 42.811 42.6352 42.5999 42.7699 42.4317C43.0649 46.5172 41.0791 50.0679 38.7593 53.2632C38.0978 54.611 37.3187 55.8898 36.3247 56.9707C35.9577 57.3802 35.5181 57.6646 35.0816 57.9242C35.9127 57.6382 36.6635 57.188 37.1854 56.3485C31.1684 65.9689 9.62736 54.7612 6.72752 45.7858C5.57925 42.9674 6.6959 41.2115 7.85136 39.2471C8.14727 38.5993 8.46481 37.9801 8.81796 37.3792C8.90938 37.1537 9.01161 36.9426 9.09221 36.7028L9.05352 36.7093Z" fill="#5C0F8B"/>
<path d="M17.3264 49.2747C17.3264 49.2747 17.3574 49.2296 17.3883 49.1845C17.3607 49.2052 17.3435 49.2399 17.3264 49.2747Z" fill="white"/>
<path d="M3.05352 39.7093C3.98059 36.5478 5.4819 33.1356 7.9838 30.9029C8.07662 30.968 8.06878 31.1309 8.13062 31.2415C8.35355 31.0746 8.55793 30.8542 8.82726 30.7198C9.0579 30.5919 9.25448 30.5344 9.46808 30.4417C14.1868 23.7226 34.095 32.6543 35.918 41.1578C36.5934 42.7154 36.7271 44.3647 36.409 45.9935C36.5329 45.811 36.6352 45.5999 36.7699 45.4317C37.0649 49.5172 35.0791 53.0679 32.7593 56.2632C32.0978 57.611 31.3187 58.8898 30.3247 59.9707C29.9577 60.3802 29.5181 60.6646 29.0816 60.9242C29.9127 60.6382 30.6635 60.188 31.1854 59.3485C25.1684 68.9689 3.62736 57.7612 0.727522 48.7858C-0.420752 45.9674 0.695898 44.2115 1.85136 42.2471C2.14727 41.5993 2.46481 40.9801 2.81796 40.3792C2.90938 40.1537 3.01161 39.9426 3.09221 39.7028L3.05352 39.7093Z" fill="white"/>
<path d="M10.7334 29.1048C11.5739 28.3408 12.7312 27.9673 13.8358 27.8126C15.1725 27.6187 16.5322 27.7438 17.8641 27.8898C19.1851 28.0215 20.4999 28.2027 21.8023 28.4829C24.4241 29.008 27.0195 29.8445 29.3965 31.1135C31.8802 32.4372 34.1255 34.2534 35.8631 36.4946C36.7102 37.5866 37.4289 38.7972 37.9759 40.0691C38.3575 40.9492 38.6803 41.8958 38.8484 42.8686C39.0186 42.9205 39.1794 43.0467 39.2845 43.2146C39.9259 44.2365 39.4134 45.2034 38.6998 45.962C38.6967 45.9868 38.6797 46.0219 38.6766 46.0467C38.6131 46.2512 38.4289 46.4115 38.2184 46.4795C36.6122 50.3282 34.7678 54.0639 32.6883 57.6617C32.1881 58.5296 31.6911 59.3727 31.1554 60.2223C31.1166 60.4307 31.0175 60.6171 30.8396 60.7279C30.7745 60.8439 30.6955 60.9703 30.6197 61.072C30.3689 61.4616 29.8938 61.7277 29.4206 61.4768C29.3989 61.4481 29.3494 61.4403 29.3278 61.4117C27.4417 62.062 25.3904 62.1185 23.3593 61.9132C21.1798 61.6846 19.0298 61.12 16.9743 60.3052C12.8525 58.6613 9.18457 55.9151 6.34771 52.4792C4.76 50.5517 3.47872 48.3948 2.54403 46.0903C2.48992 46.0187 2.4606 45.951 2.44828 45.8482C2.21064 44.7257 2.26226 43.6108 2.56139 42.5347C2.85742 41.4834 3.30969 40.4945 3.80061 39.499C4.91252 37.2761 6.12799 35.1325 7.45331 33.0188C8.2259 31.79 9.04799 30.5689 9.87779 29.3869C10.0605 29.1379 10.4009 29.0399 10.7087 29.1009L10.7334 29.1048ZM14.4514 57.0826C15.2385 57.5469 16.0567 57.9655 16.8949 58.3243C17.3744 58.5257 17.8538 58.7271 18.3364 58.9038C18.4462 58.9337 18.5529 58.9883 18.6627 59.0182C18.6627 59.0182 18.6736 59.0325 18.6983 59.0364C18.7478 59.0442 18.7942 59.0767 18.8437 59.0844C19.1097 59.1767 19.3897 59.2585 19.6697 59.3403C20.6689 59.6233 21.6743 59.8569 22.7029 60.0057C23.9543 60.1896 25.0418 60.272 26.366 60.177C26.6832 60.1637 27.0034 60.1257 27.3128 60.0733C27.3515 60.0668 27.3902 60.0602 27.4289 60.0537C27.4289 60.0537 27.5975 60.0171 27.6362 60.0105C27.7909 59.9843 27.9487 59.9334 28.0926 59.8929C28.4051 59.8158 28.696 59.71 28.9869 59.6043C29.1339 59.539 29.2809 59.4738 29.4279 59.4085C29.4418 59.3981 29.4557 59.3877 29.4697 59.3772C29.4975 59.3564 29.5254 59.3355 29.5533 59.3146C31.8045 55.6554 33.8346 51.848 35.5909 47.9093C35.1144 48.0868 34.6409 48.2396 34.1489 48.339C33.6677 48.4527 33.1649 48.5378 32.6652 48.5982C32.6853 48.7401 32.6527 48.8991 32.5846 49.0398C30.9122 52.1085 29.243 55.1524 27.5706 58.2211C27.3554 58.6289 26.82 58.8729 26.3715 58.6259C25.9586 58.397 25.699 57.8515 25.9313 57.4085C27.5185 54.5157 29.0917 51.6334 30.6681 48.7263C29.9348 48.7374 29.2077 48.699 28.4699 48.6462C28.4899 48.7882 28.4465 48.9327 28.3923 49.063C26.6299 52.6475 24.6433 56.1085 22.4572 59.4499C22.2064 59.8395 21.5118 59.844 21.1856 59.5278C20.7913 59.1504 20.8008 58.6725 21.0687 58.2477C21.3505 57.8124 21.5084 57.5596 21.7762 57.1348C22.0302 56.7204 22.2949 56.3203 22.5488 55.9059C23.0567 55.0771 23.5398 54.2444 24.0368 53.4013C24.9581 51.792 25.8361 50.1255 26.6646 48.4511C26.3537 48.415 26.0567 48.3683 25.7458 48.3321C25.4101 48.292 25.0776 48.2272 24.7311 48.1728C24.7172 48.1832 24.7141 48.208 24.697 48.2432C23.0697 51.0539 21.4423 53.8647 19.8149 56.6754C19.5749 57.0794 19.0751 57.3416 18.6158 57.0803C18.2137 56.8657 17.9325 56.2916 18.1756 55.8629C19.7379 53.1681 21.3002 50.4733 22.8486 47.789C21.9314 47.5566 21.0235 47.2501 20.1357 46.8836C20.1527 47.0503 20.134 47.1988 20.0628 47.3642C18.3795 50.6205 16.5291 53.8 14.5752 56.9002C14.5411 56.9705 14.4963 57.0265 14.4266 57.0787L14.4514 57.0826ZM7.18921 49.6965C7.09321 49.8581 6.94775 50.0119 6.77289 50.098C6.95685 50.3414 7.15162 50.5991 7.33558 50.8425C7.64939 51.2577 7.97713 51.6624 8.3188 52.0568C8.34044 52.0854 8.38373 52.1427 8.39456 52.157C8.40538 52.1713 8.41621 52.1856 8.43785 52.2143C8.5136 52.3145 8.61408 52.4186 8.70376 52.5084C8.89393 52.7023 9.07016 52.9066 9.28509 53.1044C10.0241 53.8513 10.8081 54.5422 11.623 55.1875C12.0374 55.5049 12.4518 55.8223 12.8941 56.1189C12.8941 56.1189 12.9049 56.1332 12.9157 56.1476C12.9157 56.1476 12.9436 56.1267 12.9328 56.1123C14.8975 53.0265 16.7371 49.8327 18.4203 46.5764C18.4885 46.4357 18.603 46.3275 18.7283 46.2336C18.5041 46.1101 18.2798 45.9865 18.0448 45.8487C17.6922 45.6419 17.3427 45.4104 17.0071 45.1685C16.0129 47.2584 14.8655 49.2612 13.6114 51.2095C13.3606 51.5991 12.666 51.6036 12.3398 51.2874C11.9455 50.9101 11.9551 50.4321 12.2229 50.0072C12.3468 49.8248 12.4288 49.6736 12.5867 49.4208C12.7415 49.1928 12.8716 48.9608 13.0156 48.7185C13.3036 48.2337 13.5916 47.749 13.8548 47.2603C14.3922 46.2974 14.9078 45.3057 15.374 44.3064C15.4111 44.2113 15.4839 44.1344 15.5706 44.047C15.2629 43.7842 14.9583 43.4967 14.6645 43.2234C13.291 45.8216 11.7643 48.3327 10.1341 50.7645C9.88326 51.1541 9.18866 51.1587 8.86242 50.8425C8.46815 50.4651 8.46687 49.9728 8.74554 49.5623C9.55059 48.3764 10.2442 47.2739 11.0091 46.006C11.7461 44.7589 12.4584 43.508 13.1382 42.2141C13.2063 42.0733 13.3208 41.9652 13.4462 41.8713C13.1185 41.4665 12.7907 41.0617 12.5156 40.64C12.4615 40.5684 12.3965 40.4825 12.3424 40.4109C10.6747 43.5434 8.9358 46.6395 7.17527 49.707L7.18921 49.6965ZM9.43017 33.3544L9.40233 33.3752C9.37447 33.3961 9.35742 33.4313 9.34038 33.4665C8.69786 34.4634 8.07701 35.4889 7.48088 36.5184C6.88164 37.5726 6.30713 38.6307 5.75739 39.6926C5.28972 40.6034 4.80814 41.5247 4.47193 42.4939C4.45179 42.5539 4.43476 42.589 4.41462 42.649L4.39757 42.6842C4.39757 42.6842 4.38366 42.6946 4.38056 42.7194C4.34027 42.8392 4.31079 42.9733 4.27051 43.0932C4.19765 43.372 4.14952 43.6547 4.10141 43.9374C4.08898 44.0363 4.0735 44.1601 4.07189 44.2734L4.06564 44.3229C4.05632 44.3971 4.07177 44.4753 4.06245 44.5495C4.07166 44.6771 4.08087 44.8048 4.09009 44.9324C4.0947 44.9962 4.0993 45.06 4.10391 45.1238C4.11162 45.1629 4.16558 45.4364 4.12701 45.241C4.13783 45.2554 4.13475 45.2801 4.14246 45.3192C4.18574 45.3764 4.21824 45.4194 4.23367 45.4975C4.42524 45.9819 4.64151 46.4701 4.87486 46.9231C4.91814 46.9804 4.93671 47.0338 4.96607 47.1015C4.96607 47.1015 4.96608 47.1015 4.9769 47.1158C5.03872 47.2264 5.08657 47.3475 5.15921 47.4725C5.28285 47.6938 5.41734 47.9294 5.54098 48.1507C5.61672 48.2509 5.65379 48.3577 5.72954 48.4579C7.552 45.2992 9.31724 42.0937 11.033 38.8804C11.098 38.7645 11.1739 38.6628 11.2714 38.5898C10.987 38.0404 10.7166 37.4806 10.4988 36.9038C9.22136 39.1386 7.96867 41.3773 6.69123 43.612C6.45124 44.016 5.9406 44.2639 5.49211 44.0169C5.07919 43.788 4.80877 43.2282 5.05187 42.7995C6.44856 40.3184 7.87 37.8413 9.26668 35.3602C9.38282 35.1387 9.59173 34.9823 9.83002 34.8935C9.70959 34.4456 9.61701 33.9768 9.52445 33.508C9.5013 33.3908 9.48901 33.288 9.4798 33.1603C9.44883 33.2059 9.41787 33.2515 9.38691 33.2972L9.43017 33.3544ZM12.0322 30.4191C12.0322 30.4191 12.0183 30.4295 12.0043 30.4399C12.0043 30.4399 11.9904 30.4504 11.9764 30.4608C11.9207 30.5025 11.862 30.569 11.8171 30.625C11.7614 30.6668 11.7134 30.7476 11.6685 30.8036C11.6685 30.8036 11.6204 30.8844 11.5895 30.93C11.5585 30.9756 11.5384 31.0355 11.5275 31.0212C11.4935 31.0916 11.4594 31.1619 11.4253 31.2323C11.3944 31.2779 11.3882 31.3274 11.368 31.3873C11.368 31.3873 11.3541 31.3978 11.351 31.4225C11.351 31.4225 11.3479 31.4473 11.3448 31.472C11.3122 31.631 11.2688 31.7756 11.261 31.9384C11.2548 31.9879 11.2486 32.0374 11.2423 32.0869C11.2423 32.0869 11.2392 32.1116 11.2361 32.1363C11.2361 32.1363 11.247 32.1507 11.2299 32.1858C11.2252 32.3239 11.2344 32.4515 11.2297 32.5896C11.2419 32.8944 11.282 33.1782 11.3329 33.4765C11.356 33.5937 11.3683 33.6965 11.3915 33.8137C11.4023 33.8281 11.4254 33.9452 11.4223 33.97C11.4408 34.0234 11.4455 34.0872 11.4532 34.1263C11.518 34.414 11.6076 34.7057 11.6863 34.983C11.8547 35.552 12.0616 36.1145 12.2965 36.6561C12.4031 36.9126 12.5128 37.1443 12.6333 37.3903C12.6766 37.4476 12.6952 37.501 12.7245 37.5687C12.7245 37.5687 12.7353 37.583 12.7461 37.5974C12.8296 37.7366 12.8992 37.8864 12.9827 38.0256C13.5499 39.0358 14.2222 40.012 14.9813 40.9009C15.0138 40.9439 15.0462 40.9868 15.0787 41.0298C15.0895 41.0441 15.1869 41.173 15.1761 41.1586C15.241 41.2445 15.3199 41.32 15.3987 41.3955C15.6105 41.618 15.8115 41.8262 16.0373 42.0383C16.4424 42.43 16.8862 42.8151 17.3222 43.1611C17.5403 43.3342 17.783 43.5111 18.015 43.6737C18.1294 43.7674 18.247 43.8363 18.3753 43.9195C18.3753 43.9195 18.3753 43.9195 18.3862 43.9339C18.4681 43.9846 18.5501 44.0353 18.632 44.086C19.1238 44.3903 19.6295 44.6842 20.1522 44.9429C20.6641 45.1873 21.1791 45.407 21.722 45.6058C21.7329 45.6201 21.7576 45.624 21.7824 45.6279C21.7824 45.6279 21.7932 45.6422 21.8318 45.6356C21.8922 45.6577 21.9525 45.6799 22.0128 45.7019C22.1582 45.75 22.3036 45.798 22.4629 45.8357C22.8032 45.9396 23.1574 46.033 23.5008 46.1122C24.8001 46.4171 26.1118 46.623 27.4328 46.7547C27.719 46.787 28.0299 46.8232 28.33 46.8451C28.3548 46.849 28.3795 46.8528 28.3934 46.8424C28.3934 46.8424 28.4321 46.8358 28.4569 46.8397C28.5311 46.8514 28.5946 46.8487 28.6827 46.85C28.8699 46.8667 29.0463 46.8692 29.2226 46.8716C29.8754 46.8984 30.5174 46.9109 31.1656 46.8738C31.786 46.8576 32.4125 46.792 33.0174 46.6977L33.186 46.661C33.2139 46.6402 33.2634 46.648 33.3021 46.6414C33.4321 46.6114 33.5868 46.5851 33.7307 46.5446C34.0432 46.4675 34.3309 46.3865 34.6466 46.2847C34.9375 46.1789 35.2284 46.0731 35.5224 45.9426C35.5224 45.9426 35.5641 45.9114 35.5781 45.9009C35.6338 45.8592 35.6864 45.8422 35.7529 45.8148C35.903 45.7248 36.05 45.6595 36.1893 45.5552C36.3951 45.4235 36.587 45.3023 36.782 45.1562C36.9137 44.811 37.0701 44.4696 37.2018 44.1243C37.1957 43.9719 37.2004 43.8339 37.1803 43.6919C37.165 43.4119 37.111 43.1384 37.0679 42.8793C37.0679 42.8793 37.0571 42.865 37.0462 42.8507C37.0462 42.8507 37.0462 42.8507 37.0354 42.8363C37.02 42.7582 37.0014 42.7048 36.986 42.6267C36.9443 42.4561 36.8996 42.3103 36.8579 42.1397C36.6927 41.546 36.464 40.9549 36.2075 40.3846C36.1488 40.2492 36.0901 40.1138 36.0174 39.9888C36.0066 39.9745 35.9958 39.9602 35.985 39.9459C35.985 39.9459 35.9633 39.9173 35.9525 39.903C35.9092 39.8457 35.8799 39.778 35.8505 39.7103C35.6867 39.407 35.509 39.1141 35.3421 38.8355C35.0051 38.3031 34.6511 37.8059 34.2584 37.3152C34.1719 37.2007 34.0745 37.0718 33.974 36.9677C33.9199 36.8961 33.8658 36.8246 33.8117 36.753C33.8117 36.753 33.79 36.7243 33.7684 36.6957C33.5566 36.4732 33.3339 36.2363 33.1221 36.0138C32.6629 35.5506 32.1867 35.1225 31.6826 34.7153C31.4429 34.5136 31.1893 34.3224 30.9357 34.1312C30.8213 34.0375 30.6929 33.9542 30.5646 33.871C30.5074 33.8242 30.4362 33.7878 30.379 33.7409C30.3682 33.7266 30.2398 33.6434 30.2042 33.6252C29.1666 32.9449 28.0531 32.3664 26.9164 31.8724C26.6287 31.7516 26.3518 31.645 26.0642 31.5241C25.9327 31.4656 25.7873 31.4176 25.6558 31.3591C25.5955 31.337 25.5105 31.311 25.4501 31.289C25.4393 31.2746 25.2939 31.2265 25.2691 31.2226C24.7015 31.02 24.1416 30.8564 23.5569 30.6889C22.3489 30.3604 21.1069 30.1024 19.8694 29.9081C19.2754 29.8148 18.6675 29.732 18.0457 29.6596C17.7595 29.6273 17.4733 29.5951 17.1732 29.5732C17.0108 29.5603 16.8484 29.5474 16.6999 29.5241C16.6999 29.5241 16.6751 29.5202 16.6612 29.5307C16.6612 29.5307 16.6612 29.5306 16.6225 29.5372C16.5343 29.536 16.4601 29.5243 16.3719 29.5231C15.7331 29.4859 15.0911 29.4734 14.4645 29.5391C14.3237 29.5548 14.1829 29.5706 14.0421 29.5864C13.9787 29.589 13.9261 29.606 13.8627 29.6086C13.8487 29.6191 13.824 29.6152 13.7992 29.6113C13.7992 29.6113 13.7714 29.6322 13.7466 29.6283C13.448 29.695 13.1494 29.7616 12.8694 29.8817C12.8028 29.9091 12.7224 29.947 12.6558 29.9744C12.6558 29.9744 12.628 29.9952 12.6141 30.0057C12.5197 30.054 12.4114 30.1127 12.3278 30.1753C12.2303 30.2483 12.1189 30.3317 12.0214 30.4048L12.0322 30.4191Z" fill="#010101"/>
<path d="M22.3343 31.6649C22.783 31.5082 23.1928 31.7618 23.4633 32.1198C23.9611 32.7783 24.7638 33.1188 25.4891 33.4725C26.3073 33.8911 27.1254 34.3098 27.9574 34.718C28.7647 35.1224 29.6772 35.4927 30.0449 36.3833C30.1222 36.572 30.1143 36.7349 30.0678 36.9042C30.3139 36.6526 30.7039 36.5624 31.0704 36.7588C31.2838 36.868 31.4136 37.0398 31.4878 37.2533C31.5202 37.2963 31.5698 37.304 31.6162 37.3365L31.6378 37.3652C32.0507 37.594 32.4156 37.9037 32.697 38.276C32.7326 38.2942 32.7821 38.3019 32.8176 38.3201C32.9784 38.4463 33.1191 38.6324 33.1546 38.8525C33.1592 38.9163 33.139 38.9762 33.1189 39.0362C33.2486 39.4099 33.185 39.8163 32.843 40.0276C32.7873 40.0693 32.7131 40.0576 32.6357 40.0707C32.5738 40.162 32.5257 40.2427 32.4746 40.3483C32.3895 40.5242 32.3043 40.7001 32.2439 40.8798C32.1695 41.0701 32.0348 41.2382 31.8352 41.3204C31.6604 41.4066 31.4206 41.4068 31.2396 41.3405C31.0478 41.2599 30.8762 41.1194 30.7881 40.9163C30.7109 40.7275 30.6754 40.5075 30.7498 40.3172C30.9124 39.9264 31.0998 39.5394 31.3089 39.1811C31.2656 39.1238 31.2223 39.0665 31.1759 39.034C31.1759 39.034 31.1264 39.0262 31.1017 39.0223C31.1017 39.0223 31.1017 39.0223 31.0877 39.0328C30.8943 39.0655 30.6608 39.0162 30.4999 38.89C30.3252 38.7742 30.1877 38.5634 30.163 38.3576C30.1476 38.2795 30.1677 38.2195 30.177 38.1453C30.1554 38.1167 30.0951 38.0946 30.0734 38.066C29.9111 37.8512 29.8153 37.609 29.8356 37.3472C29.8418 37.2977 29.8727 37.2521 29.8929 37.1922C29.5462 37.5416 28.8733 37.5747 28.6338 36.9693C28.4391 36.5097 27.7477 36.2876 27.3317 36.0835C26.9404 35.8833 26.56 35.6974 26.1687 35.4971C26.1455 35.5818 26.1253 35.6418 26.0773 35.7225C25.9813 35.8841 25.8714 36.0561 25.7754 36.2177C26.247 36.582 26.7218 36.9215 27.1934 37.2858C27.529 37.5277 27.6787 38.0433 27.4202 38.3939C27.2375 38.6428 26.9327 38.759 26.6357 38.7124L26.7656 38.8842C26.8104 39.03 26.8335 39.1472 26.8288 39.2853C26.8226 39.3348 26.8133 39.409 26.8071 39.4585C26.8055 39.5718 26.7822 39.6565 26.7202 39.7477C26.6831 39.8428 26.6212 39.9341 26.5376 39.9967C26.454 40.0592 26.3705 40.1218 26.2684 40.1311C26.174 40.1793 26.0718 40.1885 25.9729 40.173C25.9234 40.1652 25.8631 40.1431 25.8136 40.1354C25.8244 40.1497 25.846 40.1783 25.8537 40.2174C25.8923 40.4127 25.8504 40.6459 25.7296 40.8036C25.6878 40.8349 25.6461 40.8662 25.6043 40.8975C25.6476 40.9547 25.6769 41.0224 25.6815 41.0862C25.7062 41.292 25.6813 41.49 25.5574 41.6724C25.3128 42.0126 25.0682 42.3527 24.8484 42.6968C25.1546 42.871 25.4748 43.0348 25.7949 43.1986C25.7285 43.0242 25.7146 42.8328 25.7859 42.6673C25.8804 42.4171 26.0136 42.1604 26.1545 41.9428C26.3093 41.7147 26.4997 41.5049 26.6761 41.3055C26.7318 41.2638 26.7736 41.2325 26.8509 41.2194C26.868 41.1842 26.8742 41.1346 26.8913 41.0995L27.3743 40.2668C27.3743 40.2668 27.2878 40.1523 27.2971 40.0781C27.2725 39.8723 27.2865 39.66 27.4212 39.4919C27.5559 39.3237 27.7091 39.209 27.9411 39.1697C28.1345 39.137 28.3248 39.129 28.5151 39.121C28.6914 39.1234 28.8399 39.1468 28.9992 39.1844C29.3426 39.2635 29.6906 39.4065 29.9767 39.6407C30.1375 39.7669 30.2782 39.953 30.3136 40.1731C30.3522 40.3684 30.3103 40.6016 30.1896 40.7593C30.0688 40.917 29.8878 41.0526 29.6696 41.0814C29.4654 41.0998 29.2535 41.0792 29.0819 40.9386C29.0494 40.8957 28.9891 40.8736 28.9179 40.8372C28.9179 40.8372 28.9071 40.8229 28.8823 40.819L28.1902 42.01C28.1252 42.126 28.0029 42.1951 27.8699 42.2499C27.8219 42.3307 27.7847 42.4259 27.7011 42.4885C27.7011 42.4885 27.715 42.478 27.729 42.4676C27.5525 42.667 27.4116 42.8846 27.2955 43.1061C27.2676 43.127 27.2614 43.1765 27.2583 43.2013C27.1839 43.3915 27.0493 43.5597 26.8497 43.6419C26.8079 43.6732 26.7445 43.6758 26.681 43.6785C26.8697 43.7838 27.0584 43.8891 27.2223 43.9906C27.411 44.0959 27.5749 44.1973 27.7636 44.3027C27.8347 44.3391 27.8919 44.3859 27.9631 44.4223C28.09 44.2151 28.2062 43.9936 28.313 43.8463C28.5468 43.4919 28.7666 43.1479 29.0004 42.7934C29.5609 41.9476 30.8706 42.8725 30.3241 43.7078C29.8906 44.3464 29.5143 45.0318 29.0592 45.6417C28.5592 46.3077 27.9296 46.1962 27.26 45.8009C25.8496 44.9738 24.4114 44.1676 22.9669 43.4108C21.5225 42.6541 20.0408 41.9925 18.5793 41.271C17.9854 40.9758 17.3886 40.5036 17.3797 39.7703C17.389 39.6961 17.4091 39.6362 17.4185 39.5619C17.2561 39.3472 17.1805 39.0451 17.275 38.7949C17.275 38.7949 17.2889 38.7845 17.292 38.7597C17.3834 38.5343 17.5676 38.374 17.778 38.3061C17.809 38.2605 17.8291 38.2005 17.8462 38.1653C17.9391 38.0285 18.0211 37.8773 18.114 37.7405C18.258 37.4981 18.4268 37.2597 18.5708 37.0173C18.9005 36.5012 19.2195 35.9708 19.5493 35.4548C20.198 34.4084 20.8715 33.3659 21.5202 32.3194C21.6131 32.1826 21.7106 32.1096 21.8437 32.0548C21.949 31.8189 22.1363 31.6338 22.3746 31.5451L22.3343 31.6649ZM25.2044 39.3583C25.2044 39.3583 25.22 39.2346 25.2262 39.1851C25.2278 39.0718 25.251 38.9871 25.313 38.8959C25.3502 38.8008 25.4121 38.7096 25.4956 38.647C25.5792 38.5844 25.6628 38.5218 25.7649 38.5126C25.8701 38.4786 25.9614 38.4551 26.0604 38.4707C26.0604 38.4707 26.0604 38.4706 26.0851 38.4745C25.6923 38.1857 25.3243 37.9008 24.9316 37.612C24.7566 37.9 24.5956 38.1776 24.4206 38.4656C24.3246 38.6271 24.1467 38.738 23.9533 38.7708C24.0352 38.8215 24.128 38.8865 24.21 38.9373C24.2703 38.9593 24.3198 38.9671 24.3662 38.9996C24.6553 39.2091 24.9476 39.3937 25.2368 39.6032C25.2213 39.525 25.1812 39.443 25.1905 39.3688L25.2044 39.3583ZM20.4549 37.0859C20.0771 37.6828 19.6994 38.2796 19.3185 38.9012C19.2875 38.9468 19.2534 39.0172 19.2225 39.0628C19.3059 39.2021 19.3508 39.3479 19.3429 39.5107C19.332 39.6983 19.2499 39.8495 19.1493 39.9472C19.1493 39.9472 19.171 39.9758 19.1957 39.9797C19.3736 40.0707 19.5654 40.1513 19.7571 40.2319C19.9706 40.3411 20.1871 40.4256 20.4005 40.5348C20.3464 40.4632 20.3062 40.3812 20.3047 40.2926C20.3001 40.2288 20.2955 40.165 20.2909 40.1012C20.2956 39.9631 20.3498 39.8328 20.4148 39.7168C20.5929 39.4041 20.7741 39.0666 20.9522 38.7539C21.0141 38.6626 21.0868 38.5858 21.1812 38.5375C21.2648 38.4749 21.3592 38.4266 21.4613 38.4174C21.5634 38.4082 21.6655 38.399 21.7614 38.4393C21.8604 38.4548 21.9562 38.4951 22.049 38.5602C22.2098 38.6863 22.3505 38.8725 22.386 39.0926C22.3906 39.1564 22.3952 39.2202 22.3998 39.284C22.3951 39.422 22.3409 39.5523 22.2759 39.6683C22.0978 39.9811 21.9166 40.3185 21.7386 40.6313C21.6766 40.7225 21.6039 40.7994 21.5095 40.8476C21.4399 40.8998 21.3486 40.9234 21.2573 40.9469C21.9827 41.3005 22.694 41.6645 23.4054 42.0286C23.681 41.6428 23.9597 41.2323 24.2353 40.8465C24.2353 40.8465 24.2352 40.8466 24.2492 40.8361C23.8069 40.5396 23.3507 40.2535 22.9192 39.9712C22.5697 39.7397 22.4478 39.2032 22.6924 38.8631C22.8302 38.6702 23.019 38.5736 23.2371 38.5448C23.2047 38.5018 23.2001 38.438 23.1676 38.3951C23.0283 38.4994 22.8458 38.5464 22.6725 38.5192C22.4498 38.4842 22.2858 38.3828 22.1281 38.2319C22.1065 38.2032 22.0957 38.1889 22.074 38.1603C21.8019 37.9157 21.488 37.7024 21.157 37.5242C21.0611 37.4839 20.9791 37.4332 20.8693 37.4033C20.7131 37.341 20.5662 37.2043 20.4828 37.065C20.4828 37.065 20.4688 37.0755 20.4549 37.0859ZM22.2711 34.1786C22.4289 34.1277 22.6331 34.1093 22.7893 34.1717C22.9811 34.2522 23.1527 34.3927 23.2408 34.5958C23.2701 34.6635 23.2747 34.7274 23.3041 34.7951C23.3241 34.937 23.3194 35.0751 23.2791 35.1949C23.0917 35.5819 22.9183 35.9585 22.7309 36.3455C22.6937 36.4406 22.6457 36.5214 22.573 36.5983C22.8266 36.7895 23.0802 36.9807 23.292 37.2032C23.7689 36.4201 24.2458 35.6369 24.7118 34.8394C24.2958 34.6353 23.9045 34.4351 23.5055 34.1958C23.2241 34.0254 22.9566 33.8446 22.72 33.6182C22.6984 33.5896 22.6767 33.5609 22.6442 33.518L22.2494 34.15L22.2711 34.1786Z" fill="#010101"/>
<path d="M35.8531 25.2853C36.1826 25.1656 36.5 25.0535 36.822 24.9216C37.4342 24.6608 38.0689 24.4365 38.6632 24.1195C39.5401 23.6613 40.3841 23.1227 41.2385 22.6281C41.7615 22.3046 42.3146 22.0299 42.8227 21.6821C43.4569 21.2395 44.0687 20.7604 44.6804 20.2813C45.2023 19.8745 45.7167 19.4555 46.204 19.0198C46.6379 18.6338 47.0521 18.2431 47.4437 17.816C47.5839 17.662 47.6594 17.4305 47.6983 17.2215C47.7093 17.1306 47.5461 17.0297 47.5027 16.9052C47.3859 16.6075 47.2771 16.5403 46.984 16.6374C46.4101 16.8241 45.8437 17.023 45.2697 17.2097C44.4514 17.4635 43.6331 17.7173 42.8148 17.9711C42.5779 18.0503 42.326 18.1051 42.0891 18.1843C41.5638 18.341 41.0583 18.5023 40.533 18.6589C40.533 18.6589 40.5179 18.6346 40.4832 18.6056C40.5533 18.5286 40.6037 18.447 40.6813 18.3822C41.4744 17.7069 42.26 17.0194 43.0878 16.373C43.5732 15.9888 44.1188 15.7019 44.6344 15.3663C45.2426 14.9902 45.8132 14.5534 46.4514 14.226C47.3527 13.7528 48.2869 13.3601 49.1985 12.931C49.5009 12.7945 49.8032 12.658 50.1281 12.558C50.6215 12.4042 51.1103 12.2701 51.6066 12.1482C52.2911 11.9772 52.9606 11.7818 53.6555 11.6548C54.4779 11.5162 55.3077 11.3899 56.1462 11.3591C57.1833 11.3232 58.2186 11.3387 59.24 11.4134C60.1068 11.4828 60.9857 11.5446 61.838 11.808C62.4661 12.0081 63.1419 12.0947 63.7654 12.3145C64.6402 12.6143 65.4888 12.9807 66.3497 13.3396C66.6901 13.4822 67.0044 13.6914 67.3494 13.8144C67.5023 13.8712 67.7194 13.7874 67.9059 13.7898C68.156 13.7865 68.3113 13.6568 68.2443 13.4124C68.1876 13.2121 68.0963 12.9827 67.9545 12.835C67.5291 12.3918 67.0673 11.9711 66.6129 11.5627C66.3745 11.3402 66.0902 11.1797 65.8472 10.9769C65.6041 10.7741 65.3946 10.5168 65.1468 10.3337C64.597 9.93389 64.0228 9.5491 63.4439 9.18399C62.8923 8.83569 62.3163 8.50243 61.7131 8.15236C61.7739 8.11475 61.8365 8.02565 61.9246 8.00485C62.2495 7.90484 62.5819 7.81699 62.9218 7.74132C63.3498 7.64485 63.7852 7.56053 64.2283 7.48838C65.0778 7.36665 65.9198 7.23277 66.7722 7.14289C67.7277 7.05654 68.6807 7.15668 69.6189 6.87924C69.8755 6.80468 70.0042 6.52332 69.8005 6.32981C69.2935 5.83619 68.7025 5.47859 68.035 5.2692C67.9684 5.2431 67.8971 5.2367 67.8427 5.20308C67.3541 4.98394 66.8627 4.73295 66.3648 4.55318C65.5809 4.2644 64.7802 4.00283 63.9824 3.7731C63.3102 3.5834 62.6334 3.4134 61.9502 3.31459C61.1958 3.20939 60.4228 3.18289 59.6544 3.13674C58.9891 3.09412 58.3163 3.03935 57.6521 3.08011C56.8286 3.13526 55.9988 3.2616 55.1811 3.38045C54.7184 3.44796 54.2887 3.59597 53.8289 3.69533C53.3447 3.80972 52.838 3.88763 52.3568 4.03387C51.6189 4.25467 50.9037 4.51194 50.1884 4.76924C49.827 4.89181 49.461 5.03406 49.1222 5.19312C48.6664 5.4077 48.221 5.6663 47.7877 5.91737C47.0017 6.38656 46.2081 6.84356 45.4493 7.32956C44.9095 7.68017 44.4072 8.09164 43.8974 8.49091C43.5429 8.76056 43.2034 9.05453 42.8836 9.35314C42.5273 9.67432 42.1861 10.0198 41.857 10.3578C41.0876 11.153 40.3107 11.9361 39.5489 12.7434C39.203 13.1086 38.9068 13.5271 38.5349 13.9589C38.5112 13.839 38.4933 13.7828 38.5025 13.7435C38.6566 12.6057 38.791 11.4633 38.9526 10.3377C39.0671 9.54394 39.2209 8.7594 39.3673 7.96271C39.4265 7.62342 39.4904 7.26443 39.5618 6.91762C39.7092 6.20431 39.881 5.47597 40.0088 4.75802C40.0588 4.4581 39.884 4.22986 39.6084 4.16486C39.3404 4.11202 39.1533 4.24455 39.0657 4.48365C38.6807 5.41108 38.276 6.33386 37.9182 7.2781C37.5819 8.17544 37.285 9.08205 36.9758 9.9962C36.8865 10.2868 36.8169 10.5821 36.7351 10.8849C36.59 11.4118 36.4253 11.934 36.3197 12.4701C36.2018 13.0138 36.143 13.5714 36.0374 14.1075C35.9456 14.5846 35.7902 15.0674 35.7181 15.5491C35.599 16.3626 35.507 17.193 35.4273 18.0158C35.3603 18.6961 35.313 19.3811 35.2583 20.0539C35.2145 20.6358 35.183 21.2102 35.1589 21.7968C35.1349 22.3833 35.1427 22.967 35.1505 23.5507C35.1485 23.9555 35.1465 24.3602 35.1764 24.7621C35.2271 25.252 35.4766 25.3836 35.9185 25.228L35.8531 25.2853Z" fill="#C10230"/>
<path d="M61.0791 5.97058C61.6822 6.32065 62.2582 6.65391 62.8099 7.00221C63.3887 7.36732 63.9629 7.75211 64.5128 8.15194C64.7605 8.33505 64.97 8.59226 65.2131 8.79506C65.4562 8.99785 65.7358 9.1781 65.9789 9.3809C66.4332 9.78937 66.8951 10.21 67.3204 10.6532C67.4622 10.8009 67.5536 11.0302 67.6102 11.2306C67.6773 11.475 67.5295 11.6168 67.2719 11.608C67.0854 11.6056 66.8804 11.6819 66.7154 11.6326C66.3703 11.5097 66.056 11.3005 65.7156 11.1578C64.8548 10.7989 64.0061 10.4325 63.1313 10.1327C62.5078 9.91292 61.8321 9.82626 61.2039 9.62616C60.3517 9.36282 59.4849 9.29344 58.606 9.2316C57.5771 9.14477 56.5296 9.13671 55.5122 9.17728C54.6737 9.2081 53.8439 9.33448 53.0215 9.47302C52.3388 9.59251 51.6496 9.78322 50.9726 9.96642C50.4763 10.0883 49.9875 10.2224 49.4941 10.3762C49.1813 10.4687 48.8668 10.6127 48.5645 10.7492C47.6453 11.1662 46.7065 11.5785 45.8174 12.0442C45.1791 12.3716 44.601 12.7963 44.0003 13.1845C43.4773 13.5079 42.9392 13.807 42.4537 14.1912C41.6259 14.8376 40.8404 15.5251 40.0473 16.2004C39.9697 16.2652 39.9192 16.3468 39.8491 16.4238C39.8642 16.4481 39.8868 16.4846 39.8989 16.4771C40.4242 16.3205 40.9298 16.1592 41.4551 16.0025C41.6995 15.9355 41.9438 15.8685 42.1807 15.7893C42.999 15.5355 43.8174 15.2817 44.6357 15.028C45.2097 14.8412 45.776 14.6423 46.35 14.4556C46.643 14.3585 46.7594 14.4379 46.8687 14.7234C46.9045 14.8358 47.0753 14.9488 47.0642 15.0397C47.0253 15.2487 46.9499 15.4803 46.8097 15.6342C46.418 16.0613 46.0038 16.452 45.5699 16.838C45.0827 17.2737 44.5683 17.6927 44.0463 18.0995C43.4346 18.5786 42.8229 19.0577 42.1886 19.5004C41.6806 19.8481 41.135 20.135 40.6044 20.4463C39.75 20.9409 38.9061 21.4795 38.0292 21.9377C37.4349 22.2547 36.8001 22.479 36.1879 22.7398C35.8659 22.8717 35.5486 22.9839 35.219 23.1036C34.765 23.2666 34.5154 23.135 34.4769 22.6376C34.4348 22.2432 34.449 21.831 34.4509 21.4262C34.4432 20.8425 34.4475 20.2513 34.4594 19.6723C34.4713 19.0933 34.515 18.5113 34.5588 17.9294C34.606 17.2444 34.6533 16.5595 34.7278 15.8913C34.8075 15.0685 34.8995 14.2382 35.0186 13.4247C35.0907 12.9429 35.2339 12.4676 35.3303 11.9708C35.4285 11.4225 35.4948 10.8771 35.6126 10.3335C35.7258 9.80949 35.8905 9.28725 36.0281 8.74823C36.1099 8.44544 36.1673 8.1577 36.2688 7.85955C36.5779 6.9454 36.8749 6.03876 37.2112 5.14142C37.569 4.19718 37.9737 3.27442 38.3587 2.34699C38.4584 2.10037 38.6455 1.96784 38.9014 2.0282C39.1695 2.08103 39.3517 2.32144 39.3018 2.62136C39.1618 3.34683 39.0022 4.06769 38.8548 4.781C38.7834 5.12781 38.7241 5.46708 38.6602 5.82606C38.526 6.61522 38.36 7.40728 38.2455 8.20109C38.0718 9.33419 37.9374 10.4766 37.7955 11.6068C37.7938 11.6583 37.8041 11.7024 37.8278 11.8222C38.1801 11.3858 38.4838 10.9795 38.8418 10.6068C39.6037 9.7994 40.3731 9.00419 41.15 8.22115C41.4791 7.88316 41.8203 7.53767 42.1766 7.21649C42.5085 6.91035 42.8434 6.63607 43.1904 6.35426C43.7002 5.95499 44.2024 5.54352 44.7423 5.1929C45.5057 4.68722 46.2871 4.23774 47.0807 3.78072C47.5064 3.51748 47.9669 3.28321 48.4152 3.05646C48.7661 2.88988 49.12 2.75513 49.4814 2.63256C50.1967 2.37526 50.9316 2.12263 51.6498 1.89719C52.131 1.75095 52.6377 1.67304 53.1219 1.55865C53.5742 1.44713 54.0114 1.3113 54.4741 1.2438C55.3039 1.11743 56.1216 0.99858 56.9451 0.94343C57.6093 0.902671 58.282 0.957459 58.9473 1.00008C59.7157 1.04624 60.4812 1.06054 61.2432 1.17792C61.9264 1.27672 62.6154 1.43922 63.2754 1.63645C64.0732 1.86618 64.8739 2.12774 65.6577 2.41653C66.1631 2.60846 66.6471 2.84726 67.1357 3.06641C67.2023 3.0925 67.2689 3.11861 67.3279 3.13254C68.0076 3.33441 68.5986 3.69199 69.0935 4.19313C69.2972 4.38664 69.1685 4.668 68.9119 4.74256C67.9784 5.00032 67.0131 4.90772 66.0652 5.00624C65.2174 5.07643 64.3632 5.21784 63.5212 5.35173C63.0904 5.41635 62.6549 5.50067 62.2148 5.60467C61.8748 5.68034 61.5499 5.78035 61.2175 5.86819C61.1295 5.88899 61.0715 5.95841 61.0061 6.01571L61.0791 5.97058ZM37.7554 6.40232C37.7554 6.40232 37.6964 6.38836 37.657 6.37907C37.5016 6.86191 37.334 7.3523 37.1861 7.8473C36.9395 8.67231 36.6733 9.49267 36.454 10.3345C36.2468 11.1688 36.094 12.0367 35.9263 12.8803C35.8316 13.3255 35.737 13.7707 35.6818 14.2253C35.5841 14.9919 35.5258 15.7678 35.4524 16.5193C35.3936 17.0769 35.3227 17.642 35.3033 18.2089C35.2501 19.1834 35.2287 20.155 35.1951 21.1342C35.1711 21.7207 35.1546 22.3195 35.1438 22.9819C39.2243 20.8792 43.0137 18.469 46.21 15.1811C46.0554 15.1758 45.9159 15.1948 45.7914 15.2382C44.9122 15.5296 44.0435 15.8649 43.1493 16.132C42.5313 16.3291 41.888 16.4579 41.2474 16.6185C40.9272 16.6988 40.5948 16.7867 40.2716 16.8351C39.6844 16.946 39.1215 17.0418 38.8033 17.6421C38.7314 17.7707 38.5357 17.8076 38.3973 17.91C38.3822 17.8857 38.3672 17.8614 38.3521 17.8371C38.4715 17.5951 38.5835 17.3409 38.7104 17.1111C39.3236 16.0089 40.1301 15.0563 41.1057 14.2681C41.9381 13.6021 42.7856 12.9604 43.6256 12.3065C43.7883 12.189 43.9511 12.0716 44.1336 11.9588C44.4985 11.7331 44.886 11.544 45.2584 11.3305C45.5457 11.1697 45.8208 11.0164 46.1156 10.8677C46.5883 10.6259 47.0459 10.3598 47.5289 10.162C48.0044 9.95211 48.5175 9.80296 49.0006 9.60518C49.5959 9.37157 50.1688 9.10146 50.7821 8.92402C51.5077 8.71074 52.2466 8.57334 53.0006 8.46024C53.6909 8.35291 54.3794 8.29713 55.0755 8.25349C56.2296 8.16204 57.3923 8.16609 58.5393 8.28077C59.5121 8.38552 60.494 8.45091 61.4482 8.6344C62.2646 8.78539 63.0682 9.07882 63.8614 9.32823C64.2383 9.44829 64.6058 9.60775 64.9781 9.74749C64.9949 9.72029 65.0239 9.68556 65.0407 9.65835C64.9018 9.54247 64.7826 9.43118 64.6512 9.32746C64.5273 9.23591 64.3959 9.13221 64.272 9.04065C64.0092 8.83322 63.7511 8.60613 63.4715 8.42589C62.9048 8.05327 62.3138 7.69566 61.7228 7.33807C61.2482 7.05988 60.7659 6.7695 60.2623 6.52603C59.8918 6.33475 59.5967 5.91189 59.7995 5.6688C59.9444 5.49516 60.2009 5.42061 60.3956 5.30027C61.0918 4.90342 61.8626 4.76314 62.623 4.57883C63.271 4.43036 63.9294 4.32589 64.5936 4.28513C65.5838 4.22775 66.5751 4.25376 67.5757 4.2404C67.343 4.08161 67.1271 3.89563 66.8608 3.79126C66.2269 3.52746 65.5716 3.31053 64.9284 3.08609C64.6105 2.97996 64.2973 2.85414 63.9748 2.76769C63.1527 2.55301 62.3306 2.33833 61.5113 2.15549C61.0464 2.05622 60.5675 2.01601 60.1055 1.94859C59.7025 1.8951 59.2845 1.81729 58.8797 1.81533C58.2764 1.81849 57.6759 1.85349 57.0708 1.90818C56.0516 2.00029 55.0249 2.08023 54.004 2.22386C53.5338 2.2792 53.0646 2.41792 52.6077 2.54912C52.1432 2.66816 51.6666 2.79474 51.2126 2.95779C50.5824 3.16244 49.9674 3.39138 49.3523 3.62036C48.9058 3.79557 48.4396 3.96614 48.0034 4.18537C47.47 4.46476 46.9713 4.77316 46.4529 5.07688C45.8447 5.45294 45.2092 5.81217 44.6236 6.22472C43.9847 6.68703 43.3683 7.18583 42.7716 7.68929C42.073 8.27259 41.3818 8.86807 40.7058 9.48787C40.255 9.90107 39.8194 10.3386 39.3837 10.7761C39.1247 11.0371 38.8582 11.286 38.6039 11.5273C38.2841 11.8259 37.969 12.1048 37.608 12.4457C37.2982 10.3674 37.4064 8.3668 37.7526 6.37044L37.7554 6.40232Z" fill="white" stroke="white" stroke-width="0.5"/>
</g>
<defs>
<clipPath id="clip0_69_4203">
<rect width="72" height="65" fill="white"/>
</clipPath>
</defs>
</svg>
