<svg width="91" height="70" viewBox="0 0 91 70" fill="none" xmlns="http://www.w3.org/2000/svg">
<path d="M56.5325 7.88142C61.1093 8.64312 62.3555 11.2069 63.5602 15.3027C64.7375 19.2308 65.797 23.2151 66.5532 27.2473C66.8043 28.5868 67.3968 29.2472 68.1137 30.3508C68.8263 31.4395 69.5237 32.5382 70.2049 33.6462C72.7334 37.8121 75.1607 42.038 77.485 46.3205C78.7269 48.5729 79.9601 50.8366 81.0415 53.1713C82.0641 55.4336 83.4048 57.6682 83.003 60.2519C82.5444 63.206 80.8951 66.2211 77.7562 66.914C76.2131 67.2548 74.5393 67.3962 72.9622 67.5459L67.524 68.0557C57.763 68.8871 47.9759 69.3685 38.1808 69.4988C34.4288 69.548 28.9953 69.7241 25.3401 69.1999C18.3597 67.5478 16.9833 63.2103 14.2524 57.3522C11.9369 52.3511 9.72467 47.3026 7.61729 42.2103L4.42325 34.566C3.8833 33.2704 2.87378 31.0404 2.52324 29.7789C1.82359 27.2614 1.41614 24.1174 1.01633 21.5152C0.659674 19.1939 0.315846 16.7904 0.0670392 14.4541C-0.01536 13.6804 -0.042028 12.3901 0.105878 11.6603C0.558582 9.42638 1.97459 7.12089 3.89483 5.85911C4.57809 5.41017 5.96539 4.96527 6.76569 4.86873C9.65711 4.51984 12.7111 4.55365 15.6179 4.55923C24.2838 4.6089 32.943 5.0498 41.5692 5.88056C46.5839 6.32699 51.5766 6.9946 56.5325 7.88142ZM60.812 40.1918L61.0362 40.0553C60.7105 39.3819 60.1552 38.354 60.0407 37.6472L59.7034 37.8118C60.1581 38.6556 60.4856 39.2777 60.812 40.1918Z" fill="black"/>
<path d="M56.2684 9.32355C57.7252 9.62888 59.1072 10.0288 60.1096 11.1958C61.9543 13.3435 63.8444 22.0874 64.5223 25.0373C64.7954 26.2253 64.9213 27.5211 65.3761 28.6525C65.6567 29.3508 66.2205 30.0458 66.633 30.6777C67.4117 31.8634 68.1735 33.0604 68.9173 34.268C71.9591 39.2687 74.8396 44.3657 77.5545 49.5513C78.6668 51.6819 79.7572 53.82 80.717 56.0244C81.0651 56.8249 81.265 57.5295 81.3874 58.377C81.688 60.4635 79.9921 61.7339 78.1233 62.0843C76.3703 62.4132 74.4108 62.5641 72.6093 62.7042L66.7828 63.178C58.2035 63.7955 49.6088 64.1797 41.0084 64.3304C38.8633 64.3602 36.7181 64.3791 34.5727 64.387C32.5923 64.3948 30.2895 64.4011 28.31 64.2307C26.0287 64.1405 22.9252 62.465 21.6645 60.5529C20.2946 58.4753 19.2824 55.9735 18.2363 53.7059C15.7184 48.1745 13.2775 42.6084 10.9142 37.0092L8.4329 31.2799C8.05229 30.4002 7.53436 29.2652 7.21822 28.375C7.01952 27.8156 6.8829 26.329 6.79713 25.6642C6.64271 24.5087 6.4773 23.3546 6.301 22.2022L5.06036 14.1151C4.90414 13.0808 4.70256 12.0463 4.58276 11.0074C4.5083 10.3615 4.42661 9.56343 4.5486 8.92333C4.6978 8.14053 5.23977 7.31049 5.90973 6.87807C7.41313 5.90776 11.7147 6.13037 13.5891 6.11058C23.6863 6.06448 33.7785 6.57056 43.8204 7.62651C47.5377 8.01333 52.6713 8.53239 56.2684 9.32355ZM60.8118 40.1917L61.036 40.0553C60.7103 39.3819 60.155 38.354 60.0405 37.6472L59.7032 37.8118C60.1579 38.6556 60.4854 39.2776 60.8118 40.1917Z" fill="#FF003A"/>
<path d="M56.5282 11.8112C57.6738 11.974 58.2525 12.6702 58.6053 13.7262C59.6858 16.9629 60.4776 20.3237 61.2342 23.6495C61.6681 25.557 61.2309 25.9174 59.3259 25.8942C57.5543 25.8726 55.7875 25.7755 54.0178 25.7216L42.2425 25.3399C32.6451 25.0335 23.0458 24.793 13.4452 24.6184C13.1923 24.6086 12.9399 24.5906 12.6881 24.5646C11.5568 24.4472 11.2099 23.8753 11.026 22.8131C10.7495 21.2161 10.5044 19.6094 10.2425 18.009L9.52034 13.5628C9.25723 11.9599 8.2432 9.19998 10.7418 9.16831C12.3938 9.14736 14.025 9.17042 15.6774 9.20724C19.1691 9.28924 22.6598 9.41295 26.1486 9.57839C32.3091 9.85606 38.4646 10.2352 44.6127 10.7155C47.0826 10.8943 49.5303 11.1058 51.9934 11.3517C53.4476 11.497 55.0973 11.5872 56.5282 11.8112Z" fill="black"/>
<path d="M55.5396 14.0417C55.698 14.0578 55.9709 14.1072 56.0978 14.2021C56.6778 14.636 58.4887 22.22 58.7299 23.3135C58.8664 23.9322 58.9635 24.56 59.0592 25.1861C57.4049 25.2005 55.5439 25.0924 53.8796 25.0332L45.2692 24.7476C34.6491 24.3969 24.0267 24.1208 13.4027 23.9195C11.9178 23.7916 11.9027 23.7162 11.6683 22.2179C11.2717 19.6833 10.8655 17.1486 10.4531 14.6164C10.2942 13.6404 10.1128 12.6789 10.0437 11.6914C11.3482 11.3672 15.7465 11.666 17.3451 11.7127C25.0579 11.9532 32.7659 12.3325 40.4651 12.8504C43.2636 13.0188 46.0231 13.207 48.8168 13.4441C51.0047 13.6297 53.369 13.7197 55.5396 14.0417Z" fill="#AFB846"/>
<path d="M56.0286 12.3157C56.7324 12.4184 57.4233 12.569 57.7652 13.2412C58.383 14.4558 61.0444 24.2237 60.7094 24.8904C60.5065 25.1308 60.1719 25.2001 59.8721 25.2541C59.6809 25.1411 59.7596 25.0011 59.7379 24.7722C59.6939 24.3092 59.5886 23.8562 59.4868 23.4031C59.0616 21.5937 58.6032 19.7922 58.1119 17.9996C57.726 16.5495 57.3604 14.6264 56.4739 13.4372C55.7559 13.2623 54.2886 13.1802 53.5073 13.12L48.9325 12.7601C40.8601 12.1398 32.7785 11.6477 24.6905 11.2843C21.933 11.1699 19.1748 11.0719 16.4161 10.9905L13.2827 10.9026C12.7696 10.885 12.0069 10.8284 11.5117 10.8458C11.0924 10.8605 10.3926 10.9782 9.93316 11.027L9.81532 10.9298C9.71197 10.5714 9.84574 10.1242 10.1224 9.87578C10.9438 9.55734 15.0839 9.78172 16.225 9.81092C25.6307 10.0508 35.0284 10.54 44.408 11.2782C47.3715 11.5096 50.3455 11.7043 53.2984 12.0386C54.181 12.1385 55.1699 12.1748 56.0286 12.3157Z" fill="#FF003A"/>
<path d="M61.0361 40.0553C61.9278 41.4694 62.6925 42.604 64.5194 42.768L64.7759 43.6623C65.1967 43.4422 65.326 43.3778 65.7867 43.2494C66.5067 43.1006 67.5143 43.0983 68.2661 43.0793C69.7484 43.0903 71.3678 42.9298 72.4525 44.1438C73.3954 45.1994 74.4224 46.8339 74.448 48.2972C74.4644 49.2328 73.9501 49.8367 73.125 50.1842C73.0615 50.3986 73.0405 50.4435 73.1088 50.667C74.436 50.7042 75.4992 50.7189 76.464 51.8067C78.2764 53.8508 80.033 58.4397 75.6989 58.7207C74.2537 58.8141 72.7289 58.9883 71.3162 58.5539C69.9176 58.1237 69.3273 56.9609 68.6917 55.7626L68.3586 55.9448C68.6291 57.5429 68.1401 58.9456 66.2945 59.1574C64.5338 59.3596 62.2796 59.5725 60.703 58.6507C60.0364 58.2446 59.4452 57.1314 59.1195 56.4699L58.719 56.6637C58.7547 57.0842 58.7218 57.5076 58.6226 57.9178C58.5055 58.3976 58.1504 59.0971 57.6822 59.303C56.147 59.9771 52.5461 60.0719 50.9142 59.6983C49.9527 59.5144 49.0042 58.6237 48.5917 57.7208C47.5577 55.4577 45.9623 53.5518 48.8783 51.9969C49.0669 51.7464 48.9738 51.8202 49.2679 51.7179C49.166 51.5966 49.0548 51.5168 48.9315 51.4178L49.8823 51.4065C50.964 51.38 52.0175 51.3325 53.0923 51.2032C54.7548 50.7775 54.9843 49.9942 54.9504 48.3951C54.7141 47.4302 54.2532 46.5997 53.7924 45.7303C54.1183 45.5831 54.0828 45.4518 54.1806 45.1266C54.3165 44.3526 54.9697 43.8979 55.5894 43.5184C55.6229 43.3988 55.7282 43.3277 55.8242 43.2429L55.9598 43.2815L55.9683 43.2624L55.8097 43.2049C55.7315 43.1107 55.6369 43.0193 55.5502 42.9314C55.8386 42.946 56.2341 42.9332 56.5314 42.9329C57.4934 42.9177 58.6015 42.8902 59.546 42.7307C60.6878 42.2373 60.8619 41.3271 60.8119 40.1917L61.0361 40.0553Z" fill="black"/>
<path d="M49.8824 51.407C50.9641 51.3804 52.0176 51.3329 53.0924 51.2037C53.1217 51.3227 53.1676 51.5401 53.2043 51.6475C54.6117 51.5877 55.7667 51.8093 56.8454 52.761C57.6119 53.725 58.5526 55.4326 58.719 56.6642C58.7548 57.0847 58.7219 57.5081 58.6227 57.9183C58.5056 58.3981 58.1505 59.0975 57.6823 59.3035C56.1471 59.9776 52.5462 60.0724 50.9143 59.6988C49.9528 59.5149 49.0043 58.6242 48.5917 57.7212C47.5578 55.4582 45.9624 53.5523 48.8784 51.9974C49.067 51.7468 48.9739 51.8207 49.268 51.7184C49.1661 51.597 49.0549 51.5173 48.9316 51.4182L49.8824 51.407Z" fill="black"/>
<path d="M49.8823 51.4068C50.9641 51.3803 52.0176 51.3328 53.0924 51.2036C53.1216 51.3225 53.1675 51.54 53.2043 51.6473C52.2014 51.6425 51.0511 51.7301 50.0381 51.7772C50.015 51.6502 49.941 51.5241 49.8823 51.4068Z" fill="#FD0033"/>
<path d="M48.9315 51.4176L49.8823 51.4063C49.941 51.5236 50.0149 51.6497 50.0381 51.7767C49.6028 51.8389 49.3053 51.8935 48.8783 51.9968C49.067 51.7462 48.9738 51.82 49.2679 51.7177C49.166 51.5964 49.0548 51.5166 48.9315 51.4176Z" fill="#FF003A"/>
<path d="M54.7254 52.2998C55.6736 52.4273 56.2234 52.8129 56.7615 53.5868C60.2215 58.563 56.0415 57.9363 52.5184 57.9218C51.8411 57.7628 51.2032 57.6125 50.7261 57.0566C50.1982 56.4415 48.3627 53.2477 49.3639 52.6869C50.3432 52.1383 53.594 52.1262 54.7254 52.2998Z" fill="#E680BA"/>
<path d="M73.109 50.6675C74.4361 50.7048 75.4994 50.7194 76.4641 51.8072C78.2765 53.8513 80.0331 58.4403 75.699 58.7212C74.2539 58.8147 72.7291 58.9888 71.3164 58.5544C69.9178 58.1242 69.3274 56.9614 68.6918 55.7632C68.317 55.1146 67.7226 53.607 67.5784 52.9008C67.7338 51.6098 68.621 51.146 69.7672 50.8557C70.7779 50.6786 72.0671 50.6738 73.109 50.6675Z" fill="black"/>
<path d="M68.8396 51.9537C69.542 51.2962 71.1233 51.25 72.0362 51.2265C73.3199 51.1932 75.1151 51.0197 76.009 52.1265C76.8427 53.1585 77.9861 55.0305 77.7054 56.3995C77.5364 56.9802 77.2853 57.275 76.8602 57.6719C75.37 58.0534 71.8709 58.4807 70.6445 57.3176C69.7076 56.4287 68.5923 54.3739 68.4136 53.0533C68.3485 52.5745 68.547 52.2953 68.8396 51.9537Z" fill="#FFC5C2"/>
<path d="M76.8604 57.6712C75.3701 58.0528 71.871 58.48 70.6447 57.3169C69.7078 56.428 68.5924 54.3732 68.4138 53.0526C68.3486 52.5739 68.5471 52.2946 68.8398 51.953L68.8693 51.9955C69.0754 52.2939 69.1006 52.5387 69.2548 52.837C69.9411 54.1692 70.7643 56.6365 72.4868 56.8516C73.6019 56.9908 75.4763 56.9018 76.6163 56.7122C76.9777 56.6522 77.3519 56.4741 77.7056 56.3989C77.5366 56.9795 77.2855 57.2743 76.8604 57.6712Z" fill="#FF998B"/>
<path d="M68.2662 43.0796C69.7485 43.0907 71.3679 42.9302 72.4525 44.1442C73.3955 45.1998 74.4224 46.8342 74.448 48.2976C74.4645 49.2331 73.9502 49.837 73.1251 50.1845C73.0616 50.3989 73.0406 50.4439 73.1089 50.6674C72.067 50.6736 70.7778 50.6785 69.7671 50.8555L69.7058 50.4295C68.0569 50.4209 67.2309 50.5076 65.9459 49.2221C65.0988 48.2745 64.2175 46.5945 63.9668 45.3314L63.9639 44.7126C64.1822 44.2973 64.4266 43.9733 64.776 43.6627C65.1968 43.4426 65.3261 43.3782 65.7867 43.2498C66.5068 43.101 67.5144 43.0987 68.2662 43.0796Z" fill="black"/>
<path d="M69.7056 50.4296C70.3237 50.4736 72.5252 50.3156 73.1249 50.1846C73.0614 50.399 73.0404 50.444 73.1087 50.6674C72.0668 50.6737 70.7776 50.6785 69.7669 50.8555L69.7056 50.4296Z" fill="#FD0033"/>
<path d="M65.0824 44.2847C65.9809 43.4682 68.3257 43.5999 69.509 43.6187C70.5028 43.6344 71.5607 43.8374 72.2065 44.6427C72.9917 45.6227 73.7951 46.9439 73.806 48.2291C73.2909 49.96 71.5651 49.5213 70.0962 49.6987C69.0261 49.7355 67.5063 49.8055 66.7148 48.9681C65.8139 48.0144 64.6874 46.1567 64.6485 44.8776C64.8096 44.6141 64.8805 44.5172 65.0824 44.2847Z" fill="#FFC5C2"/>
<path d="M65.0824 44.2855C65.3448 44.6321 65.4464 45.0033 65.6376 45.3755C66.3292 46.7189 67.0643 48.3863 68.7736 48.5783C70.0493 48.7461 71.4218 48.6343 72.6987 48.4681C73.1182 48.4135 73.39 48.2693 73.806 48.2299C73.2909 49.9608 71.5652 49.5221 70.0962 49.6995C69.0261 49.7363 67.5063 49.8063 66.7148 48.9689C65.8139 48.0151 64.6874 46.1574 64.6486 44.8783C64.8096 44.6148 64.8805 44.5179 65.0824 44.2855Z" fill="#FF998B"/>
<path d="M61.0363 40.0556C61.928 41.4698 62.6927 42.6044 64.5196 42.7684L64.7761 43.6627C64.4267 43.9733 64.1823 44.2974 63.964 44.7126L63.9669 45.3314L63.8662 45.6847C63.703 45.7438 63.7501 45.7229 63.5435 45.6571C62.2915 43.6576 61.8863 43.4829 59.573 43.2249C59.5214 43.0301 59.5375 42.9297 59.5462 42.731C60.688 42.2377 60.862 41.3275 60.8121 40.1921L61.0363 40.0556Z" fill="#FF003A"/>
<path d="M55.2255 48.1863C55.7274 49.2697 56.256 50.3155 56.7735 51.3892C56.846 51.5396 57.2351 52.3571 57.2733 52.4842C57.1762 52.6995 57.1866 52.608 57.2231 52.8308L56.8456 52.761C55.7669 51.8092 54.6119 51.5877 53.2045 51.6474C53.1678 51.5401 53.1219 51.3226 53.0926 51.2036C54.7551 50.7779 54.9846 49.9946 54.9507 48.3955L55.2255 48.1863Z" fill="#FF003A"/>
<path d="M65.9461 49.2215C67.231 50.507 68.057 50.4203 69.706 50.4289L69.7673 50.8549C68.6211 51.1452 67.7338 51.609 67.5785 52.9L67.2518 53.0504C66.6812 51.9869 66.0924 50.7044 65.5585 49.6048C65.695 49.3607 65.6933 49.3334 65.9461 49.2215Z" fill="#FF003A"/>
<path d="M63.9668 45.3314C64.2175 46.5946 65.0988 48.2745 65.9459 49.2222C65.6932 49.334 65.6949 49.3614 65.5584 49.6054C64.8822 48.1812 64.3081 47.0456 63.5434 45.6571C63.75 45.7229 63.7029 45.7438 63.8661 45.6848L63.9668 45.3314Z" fill="#FD0033"/>
<path d="M56.8452 52.761L57.2227 52.8308C57.1862 52.608 57.1758 52.6995 57.2729 52.4842C57.7543 53.6301 58.5633 55.3036 59.1195 56.4703L58.7189 56.6641C58.5524 55.4325 57.6118 53.7249 56.8452 52.761Z" fill="#FD0033"/>
<path d="M59.5462 42.7311C59.5376 42.9297 59.5215 43.0301 59.5731 43.2249C58.6437 43.2406 57.7828 43.2524 56.8559 43.3183L56.5316 42.9333C57.4937 42.9181 58.6017 42.8906 59.5462 42.7311Z" fill="#FD0033"/>
<path d="M54.1808 45.1259C54.2356 46.3126 54.7236 47.1123 55.2254 48.1852L54.9506 48.3944C54.7144 47.4295 54.2534 46.599 53.7927 45.7296C54.1185 45.5824 54.083 45.4511 54.1808 45.1259Z" fill="#FD0033"/>
<path d="M67.2516 53.051L67.5783 52.9006C67.7225 53.6067 68.3169 55.1144 68.6918 55.7629L68.3586 55.9451C68.225 55.1968 67.5766 53.8134 67.2516 53.051Z" fill="#FD0033"/>
<path d="M55.5503 42.9318C55.8388 42.9464 56.2343 42.9336 56.5316 42.9333L56.8559 43.3183C56.3058 43.358 56.0358 43.4656 55.5896 43.5188C55.623 43.3992 55.7284 43.3281 55.8244 43.2433L55.96 43.2819L55.9685 43.2628L55.8099 43.2053C55.7317 43.1111 55.6371 43.0197 55.5503 42.9318Z" fill="#FD0033"/>
<path d="M55.4809 44.3465C56.5024 43.6239 59.3699 43.7277 60.6143 43.8945C61.4287 44.0036 62.042 44.3582 62.4776 45.0512C63.5927 46.8245 67.6807 54.7479 67.8107 56.4082C67.7732 56.8775 67.6108 57.4155 67.2853 57.7632C66.565 58.5321 64.881 58.5196 63.9064 58.5385C62.9964 58.5561 61.5468 58.4905 60.8612 57.8059C60.5322 57.4778 60.2693 57.0656 60.0459 56.661C59.3401 55.3837 54.9575 46.3732 54.9723 45.4829C54.9794 45.0557 55.1858 44.6441 55.4809 44.3465Z" fill="#FFC5C2"/>
<path d="M67.8106 56.4085C67.7731 56.8777 67.6107 57.4158 67.2852 57.7635C66.5649 58.5323 64.8809 58.5198 63.9063 58.5388C62.9963 58.5564 61.5467 58.4907 60.8611 57.8062C60.5321 57.4781 60.2692 57.0658 60.0458 56.6613C59.3401 55.3839 54.9574 46.3735 54.9722 45.4831C54.9793 45.0559 55.1858 44.6443 55.4808 44.3467C56.4654 46.802 57.6806 49.2252 58.8795 51.6166C59.5914 52.8558 60.7562 56.3547 62.0475 56.9635C63.192 57.503 66.149 57.2579 67.4054 56.9203C67.7081 56.839 67.7491 56.6803 67.8106 56.4085Z" fill="#FF998B"/>
<path d="M31.8402 52.4796C31.8626 52.4816 31.8849 52.4836 31.9073 52.4856C34.7207 52.5164 37.4945 58.4055 35.0757 60.1806C33.8938 61.048 29.6317 61.0004 28.0005 60.7877C27.0978 60.5856 26.1354 60.172 25.5352 59.3682C24.8607 58.4819 23.5505 55.9226 23.6347 54.8357C23.8542 52.0039 29.9937 52.2708 31.8402 52.4796Z" fill="black"/>
<path d="M31.9594 53.0659C33.9 53.2108 36.0738 57.1807 34.9294 58.3679C34.3093 59.0112 29.9963 58.9796 28.8631 58.8588C28.3624 58.7439 27.6152 58.4528 27.2479 57.996C26.6365 57.3289 25.3656 54.9403 25.4597 54.0966C25.6171 52.6869 31.1466 52.9732 31.9594 53.0659Z" fill="#E680BA"/>
<path d="M28.2818 44.0474C30.5114 44.2297 32.4545 48.0113 32.2064 50.0531C31.9873 51.8563 30.2898 52.0136 28.836 52.0718C27.2036 52.1371 25.5835 52.2996 23.9739 52.0769C23.436 51.9604 22.3488 51.5643 22.0465 51.1485C16.5776 43.6287 22.9145 43.7487 28.2818 44.0474Z" fill="black"/>
<path d="M28.1033 44.6344C28.7848 44.7057 29.4244 45.0176 29.8678 45.5873C30.5678 46.5215 31.4746 47.9085 31.4774 49.102C31.4789 49.7613 30.6774 50.0394 30.1321 50.1095C28.54 50.3136 26.7512 50.3609 25.1634 50.1816C24.5598 50.0431 23.7234 49.8583 23.3257 49.2801C22.7512 48.5469 21.6391 46.4309 21.7447 45.5336C21.888 44.3147 27.2533 44.4953 28.1033 44.6344Z" fill="#E680BA"/>
<path d="M24.3591 35.7409C25.352 35.9445 26.1136 36.368 26.7388 37.1887C27.6091 38.3575 28.5764 40.0993 28.4143 41.611C28.2026 43.5847 26.0729 43.645 24.5691 43.6731C23.1441 43.6997 21.8332 43.8264 20.4272 43.6669C19.6235 43.5002 18.4533 43.1241 18.0173 42.3752C16.7531 40.2899 14.4172 36.7272 18.3458 35.8564C19.6931 35.5577 22.9582 35.5622 24.3591 35.7409Z" fill="black"/>
<path d="M24.7394 36.3253C26.3014 36.6775 27.5752 39.5437 27.7469 41.0016C27.6575 41.0894 27.4162 41.3079 27.3301 41.3677C26.3302 42.0619 22.0047 41.9281 20.9257 41.7561C19.2467 41.3286 17.0973 37.2532 18.2563 36.5812C19.115 36.0833 23.6219 36.1338 24.7394 36.3253Z" fill="#E680BA"/>
<path d="M43.83 52.1572C46.8932 52.558 50.0611 60.3286 44.5736 60.2002C42.8733 60.1604 41.6463 60.4635 39.7796 60.1845C38.9615 59.9793 38.1489 59.6476 37.6744 58.932C34.901 54.7493 34.7631 52.0874 40.6646 52.0725C41.6933 52.07 42.681 51.9741 43.83 52.1572Z" fill="black"/>
<path d="M43.8264 52.7122C45.4069 52.7394 47.6611 56.8928 46.4477 57.8213C45.576 58.4884 41.9759 58.3677 40.8109 58.2566C40.2713 58.1221 39.6838 57.9418 39.3019 57.4162C38.7345 56.711 37.5688 54.4774 37.6666 53.62C37.8147 52.3226 42.9841 52.5764 43.8264 52.7122Z" fill="#E680BA"/>
<path d="M38.4454 43.6972C40.1637 43.8544 40.8757 43.6733 42.1196 45.1087C43.7609 47.0026 45.2962 51.5556 41.3146 51.6816C39.3897 51.7425 35.0464 52.3714 33.8568 50.4092C32.5865 48.3139 30.4195 45.1225 34.0013 43.9894C34.3005 43.9924 35.0795 43.8588 35.4381 43.8268C36.4378 43.7334 37.4415 43.6902 38.4454 43.6972Z" fill="black"/>
<path d="M40.1061 44.3823C41.4879 44.423 43.2368 47.7199 43.1744 48.8527C43.0901 50.38 38.0153 49.9351 36.9942 49.8272C35.0443 49.3452 34.4834 47.3656 33.774 45.6751C33.8056 45.4147 33.8729 44.7894 34.0892 44.6907C35.2314 44.1693 39.0074 44.2576 40.1061 44.3823Z" fill="#E680BA"/>
<path d="M34.0174 35.5801C35.5484 35.6582 37.0546 35.6078 38.1422 36.8868C39.1215 38.0385 40.0251 39.6671 39.9895 41.2248C39.9656 42.2707 39.3603 43.0033 38.3548 43.2507L38.4454 43.697C37.4414 43.69 36.4378 43.7333 35.4381 43.8266C35.0794 43.8587 34.3004 43.9923 34.0013 43.9892L34.0182 43.8653C34.297 43.7554 34.7426 43.7293 35.0522 43.6961C34.2168 43.4012 34.2486 43.9588 33.7403 43.4943C31.0081 43.408 30.2062 42.7225 29.0043 40.28C27.9343 38.1054 27.7359 36.2718 30.7429 35.7169C31.8479 35.6714 32.9008 35.6122 34.0174 35.5801Z" fill="black"/>
<path d="M33.7405 43.4939C35.0246 43.4541 37.1522 43.4617 38.355 43.2504L38.4456 43.6967C37.4416 43.6897 36.438 43.7329 35.4383 43.8263C35.0797 43.8583 34.3007 43.9919 34.0015 43.9889L34.0185 43.865C34.2973 43.755 34.7429 43.7289 35.0524 43.6958C34.2171 43.4009 34.2488 43.9584 33.7405 43.4939Z" fill="#FD0033"/>
<path d="M36.0659 36.3184C37.7508 36.326 38.8777 38.979 39.335 40.2979C39.2841 40.5683 39.1942 40.8872 39.1254 41.158C37.871 41.8485 34.6115 41.706 33.1519 41.5171C31.459 41.2216 29.9536 38.3008 29.9963 36.9048C30.028 35.8723 35.1204 36.1025 36.0659 36.3184Z" fill="#E680BA"/>
<path d="M48.2685 43.4607C50.6964 43.4345 52.4254 43.4105 53.7925 45.731C54.2532 46.6004 54.7142 47.4309 54.9504 48.3958C54.9843 49.9949 54.7549 50.7782 53.0924 51.2039C52.0176 51.3332 50.9641 51.3807 49.8824 51.4072L48.9315 51.4185C47.8208 51.2227 46.9461 51.4995 45.9084 50.5997C45.0032 49.8149 43.522 47.195 43.4534 46.0461C43.2981 43.4474 46.456 43.5732 48.2685 43.4607Z" fill="black"/>
<path d="M51.0296 44.1156C51.2073 44.1441 51.4432 44.187 51.5974 44.2528C52.8434 44.7851 55.9074 49.2272 53.0276 49.4309C51.4519 49.5424 49.9792 49.6296 48.4326 49.448C48.1032 49.3789 47.3556 49.1248 47.1214 48.8426C46.3764 47.9451 45.3292 46.0551 45.2399 44.8923C45.229 44.7499 45.3344 44.4973 45.4446 44.4377C46.454 43.8916 50.0266 43.97 51.0296 44.1156Z" fill="#E680BA"/>
<path d="M42.2327 35.2086C43.0115 35.2469 44.3545 35.1891 45.1423 35.1359C45.1775 35.2539 45.2272 35.4776 45.3046 35.5572C47.4928 35.6011 48.8613 35.9711 49.9987 38.0192C50.3873 38.7498 50.7792 39.4494 50.9225 40.2751C51.1355 42.1695 50.4907 42.9395 48.5992 43.101C48.3553 43.1203 48.1112 43.1349 47.8668 43.1447C46.266 43.2124 44.2849 43.3929 42.7953 42.8095C41.3709 42.2331 40.6821 40.5965 40.0714 39.3133C39.2641 37.6168 39.5475 36.5643 41.3062 35.7879C41.3058 35.7473 41.3287 35.6578 41.3383 35.6134L41.5026 35.5554L41.4293 35.4336L41.3869 35.5037C41.3564 35.341 41.3092 35.3224 41.1775 35.2046L42.2327 35.2086Z" fill="black"/>
<path d="M42.2325 35.2091C43.0114 35.2474 44.3544 35.1896 45.1422 35.1364C45.1774 35.2544 45.227 35.4781 45.3045 35.5577C44.3611 35.5412 43.4174 35.5521 42.4746 35.5903L42.2325 35.2091Z" fill="#FD0033"/>
<path d="M41.1774 35.2053L42.2326 35.2092L42.4746 35.5905C42.0168 35.6428 41.7523 35.6728 41.3061 35.7885C41.3057 35.748 41.3286 35.6584 41.3382 35.6141L41.5025 35.556L41.4292 35.4342L41.3868 35.5044C41.3563 35.3417 41.3091 35.323 41.1774 35.2053Z" fill="#FF003A"/>
<path d="M46.6423 36.1544C47.3907 36.2005 48.0935 36.5293 48.6087 37.0741C49.3876 37.8971 51.5416 41.1268 49.2272 41.3229C47.8721 41.4378 46.4913 41.4597 45.129 41.3778C44.5727 41.3325 43.7083 41.1545 43.2895 40.7028C42.5543 39.959 41.4552 37.9812 41.3584 37.0037C41.2262 35.668 45.8311 36.097 46.6423 36.1544Z" fill="#E680BA"/>
<path d="M54.723 35.4669C57.1308 35.4986 58.3225 35.6385 59.7034 37.8119C60.1581 38.6557 60.4856 39.2778 60.812 40.1919C60.8619 41.3273 60.6879 42.2375 59.5461 42.7308C58.6016 42.8904 57.4935 42.9178 56.5315 42.9331C56.2342 42.9334 55.8387 42.9462 55.5502 42.9316C55.0728 42.9179 54.5985 42.8499 54.1364 42.7287C52.644 42.3402 52.0867 41.3937 51.3584 40.1467C51.1468 40.1708 51.1099 40.1716 50.9224 40.2753C50.7791 39.4496 50.3872 38.75 49.9986 38.0195L50.3212 37.9174C50.1826 36.6813 50.912 36.0823 51.9776 35.6595C52.9839 35.4995 53.7036 35.4808 54.723 35.4669Z" fill="black"/>
<path d="M50.3214 37.9174C50.4564 38.4295 51.0864 39.6591 51.3586 40.1468C51.1469 40.1708 51.1101 40.1716 50.9226 40.2753C50.7793 39.4496 50.3874 38.75 49.9988 38.0195L50.3214 37.9174Z" fill="#FD0033"/>
<path d="M51.4845 36.652C52.0288 36.1154 52.9994 35.9887 53.7391 36.004C55.3053 36.0362 57.2432 35.702 58.3946 36.9882C59.1384 37.8189 60.2862 39.6004 60.1579 40.7127C59.9158 41.4663 59.5876 41.9673 58.7282 42.0568C57.2403 42.2117 54.7058 42.4617 53.4164 41.6246C52.4889 41.0224 51.3749 38.9536 51.1281 37.8639C51.0174 37.3061 51.1731 37.0788 51.4845 36.652Z" fill="#FFC5C2"/>
<path d="M60.1578 40.7128C59.9157 41.4665 59.5875 41.9675 58.7281 42.057C57.2402 42.2119 54.7057 42.4618 53.4163 41.6248C52.4888 41.0226 51.3748 38.9538 51.128 37.8641C51.0172 37.3063 51.1729 37.079 51.4844 36.6521C51.7536 36.9747 51.8272 37.3077 52.0223 37.6625C52.8522 39.1717 53.399 40.962 55.4261 41.0681C56.2588 41.1117 59.5568 41.2632 60.1578 40.7128Z" fill="#FF998B"/>
<path d="M60.041 37.6474C60.3542 35.6659 62.1986 35.6013 63.7901 35.5767C66.0383 35.5417 67.7462 35.5733 69.1016 37.5923C70.3536 39.457 71.5094 42.1479 68.3185 42.719C68.3019 42.8356 68.2867 42.9649 68.2665 43.0796C67.5147 43.0986 66.5071 43.1009 65.787 43.2497C65.3264 43.3781 65.197 43.4425 64.7763 43.6626L64.5197 42.7683C62.6929 42.6043 61.9282 41.4697 61.0364 40.0556C60.7108 39.3821 60.1555 38.3542 60.041 37.6474Z" fill="black"/>
<path d="M68.3184 42.7187C68.3018 42.8353 68.2866 42.9646 68.2663 43.0793C67.5145 43.0983 66.5069 43.1007 65.7868 43.2494C65.8965 43.1681 65.8948 43.1745 65.9608 43.057L65.8226 42.8203C66.6763 42.801 67.4672 42.778 68.3184 42.7187Z" fill="#FD0033"/>
<path d="M64.5195 42.7679L65.8225 42.8202L65.9606 43.0569C65.8947 43.1743 65.8964 43.1679 65.7867 43.2493C65.3261 43.3777 65.1968 43.4421 64.776 43.6622L64.5195 42.7679Z" fill="#FD0033"/>
<path d="M61.2412 36.7055C62.0823 35.9406 63.7703 36.0536 64.8428 36.0984C65.9797 36.1458 67.2747 36.2229 68.0536 37.1228C68.655 37.817 69.7843 39.5455 69.7396 40.4688C69.7349 40.5643 69.7254 40.6593 69.7125 40.754C69.3523 41.7112 68.6463 41.9938 67.674 42.0039C66.2631 42.0185 64.0058 42.3905 62.9032 41.3343C61.9465 40.4183 61.0343 38.9424 60.8631 37.6276C60.813 37.2432 61.0055 36.972 61.2412 36.7055Z" fill="#FFC5C2"/>
<path d="M61.2413 36.7052L61.2696 36.7541C61.5278 37.2064 61.6715 37.7608 61.8833 38.1656C62.4134 39.1788 63.208 40.6521 64.4057 40.933C65.6887 41.2338 67.3399 41.0839 68.6526 40.9523C69.0252 40.9151 69.4433 40.7413 69.7127 40.7537C69.3524 41.7109 68.6464 41.9934 67.6741 42.0036C66.2632 42.0182 64.0059 42.3902 62.9033 41.334C61.9467 40.418 61.0344 38.942 60.8632 37.6272C60.8132 37.2429 61.0056 36.9716 61.2413 36.7052Z" fill="#FF998B"/>
<path d="M21.5624 29.5939C23.5128 29.903 25.2313 32.0819 24.4269 34.0214C23.8995 35.293 21.9565 35.3159 20.8084 35.3054C19.4775 35.2931 18.1001 35.3735 16.784 35.2206C15.1928 34.8693 13.3991 33.6668 13.5086 31.7361C13.6076 29.9895 15.8169 29.4269 17.278 29.4736C18.6683 29.5181 20.0878 29.4078 21.5624 29.5939Z" fill="black"/>
<path d="M21.5355 30.1448C22.349 30.2907 22.7458 30.5234 23.3072 31.1782C25.9993 34.3176 18.7743 33.5616 17.3397 33.3804C16.0188 33.2429 15.1446 32.1769 14.9303 30.9247C15.0488 30.78 15.3969 30.353 15.5212 30.2881C16.4395 29.808 20.6608 29.9931 21.5355 30.1448Z" fill="#FFC5C2"/>
<path d="M25.4308 31.4541C25.5285 31.2514 25.6578 31.0274 25.7795 30.8366C26.1568 30.2352 26.7648 29.8154 27.4608 29.6755C27.9319 29.5775 28.4816 29.5526 28.9829 29.563C31.6172 29.6179 35.2392 29.0206 36.026 32.4279C36.3943 34.0232 35.6387 34.8974 34.0825 35.1664C33.9802 35.4179 33.9588 35.3597 34.0175 35.5799C32.9009 35.612 31.848 35.6712 30.7431 35.7167L30.7491 35.6317C30.8919 35.4603 30.8652 35.6462 31.0705 35.4812C30.8388 35.4293 30.6993 35.3945 30.4871 35.287C30.3536 35.2474 29.6637 35.2483 29.4692 35.2415C27.2134 35.1629 25.4626 33.8233 25.4308 31.4541Z" fill="black"/>
<path d="M30.487 35.2871C31.731 35.2624 32.8343 35.2418 34.0824 35.1665C33.9801 35.4181 33.9586 35.3598 34.0174 35.5801C32.9008 35.6122 31.8479 35.6713 30.7429 35.7168L30.749 35.6319C30.8918 35.4604 30.865 35.6464 31.0704 35.4814C30.8386 35.4295 30.6992 35.3946 30.487 35.2871Z" fill="#FD0033"/>
<path d="M33.403 30.2738C34.4016 30.3314 36.1393 32.3658 35.1281 33.0408C33.9191 33.8478 30.5067 33.4756 29.0521 33.3997C26.5504 32.4803 25.8575 29.7588 29.3598 30.0835C30.685 30.2064 31.9941 30.0245 33.403 30.2738Z" fill="#FFC5C2"/>
<path d="M41.1776 35.2046C39.6505 35.1102 38.2156 34.8038 37.3492 33.3782C36.6 32.1453 36.5763 30.9287 37.9346 30.133C38.2851 29.9292 38.6716 29.7952 39.073 29.7383C40.0714 29.5867 43.287 29.6832 44.3266 29.9224C45.1317 30.1077 46.255 30.9084 46.6306 31.6657C47.1336 32.6801 47.0521 33.2699 46.76 34.272C46.1884 34.8439 45.9027 34.9574 45.1424 35.1358C44.3546 35.1891 43.0116 35.2469 42.2328 35.2085L41.1776 35.2046Z" fill="black"/>
<path d="M44.1177 30.368L44.1716 30.3758C45.3723 30.5624 47.0412 32.4766 45.9175 33.2353C45.286 33.6616 41.4216 33.5879 40.5759 33.4126C39.1123 33.0553 38.4905 32.3733 38.182 30.9265C38.2772 30.8187 38.4859 30.5959 38.5946 30.5251C39.4714 29.954 43.1824 30.2048 44.1177 30.368Z" fill="#FFC5C2"/>
<path d="M51.9043 35.1297C50.4728 35.0924 49.1517 34.7578 48.2238 33.5844C46.7823 31.6698 48.1815 29.9641 50.4269 29.9255C52.8381 29.8861 56.3726 29.7198 56.6997 32.9536C56.8231 34.1737 55.9424 34.8668 54.853 35.0711L54.7233 35.4665C53.7038 35.4804 52.9841 35.4991 51.9779 35.6591L51.9043 35.1297Z" fill="black"/>
<path d="M51.9041 35.1304C52.8983 35.1012 53.8425 35.1451 54.8528 35.0719L54.7232 35.4673C53.7037 35.4812 52.984 35.4999 51.9777 35.6598L51.9041 35.1304Z" fill="#FD0033"/>
<path d="M53.5136 30.512C54.1366 30.6479 54.8721 30.7696 55.291 31.2189C56.8483 32.8895 55.9034 33.612 54.0119 33.5872C53.2007 33.5766 52.2313 33.5445 51.4979 33.5595C50.7185 33.36 50.298 33.3329 49.7152 32.71C47.0437 29.8545 51.9994 30.4628 53.5136 30.512Z" fill="#FFC5C2"/>
<path d="M63.0561 30.2989C63.2192 30.3355 63.3816 30.3757 63.5431 30.4191C64.9854 30.8158 66.3316 32.1906 65.9894 33.7897C65.9514 33.9657 65.8897 34.1577 65.8384 34.3317L65.8191 34.3494C65.7056 34.4556 65.4252 34.7203 65.3042 34.795C64.2795 35.4311 61.5322 35.3116 60.4225 35.0985C59.3909 34.859 58.7753 34.6758 58.0588 33.8635C57.2793 33.0086 56.7936 31.6294 57.8749 30.7907C59.0836 29.8531 61.589 30.137 63.0561 30.2989Z" fill="black"/>
<path d="M62.6773 30.7525C63.8133 30.8713 66.1826 32.1206 65.0222 33.4432C64.7247 33.7823 61.843 33.7816 61.3356 33.688C60.3766 33.4728 59.7109 33.3791 59.0457 32.572C57.0347 30.1317 61.4921 30.6699 62.6773 30.7525Z" fill="#FFC5C2"/>
<path d="M62.2978 28.577C62.4869 28.6038 62.5652 28.5988 62.7216 28.7098L62.7153 28.8095C62.2729 29.0869 60.4655 28.8939 59.8708 28.882C57.7859 28.8526 55.7015 28.7993 53.6178 28.7219L10.2822 27.88C10.0808 27.8638 9.90861 27.8366 9.77233 27.6937L9.81237 27.6034C10.5914 27.203 18.9393 27.4438 20.4113 27.4559C29.2885 27.5596 38.1644 27.7495 47.0378 28.0254L56.2381 28.2927C57.6105 28.326 61.0563 28.3747 62.2978 28.577Z" fill="black"/>
<path d="M59.7034 37.8119L60.0407 37.6474C60.1553 38.3541 60.7105 39.3821 61.0362 40.0555L60.812 40.1919C60.4856 39.2778 60.1581 38.6557 59.7034 37.8119Z" fill="#FF003A"/>
<path d="M4.75165 7.13506L4.78532 7.1669C4.80629 7.30241 4.36494 7.93953 4.27532 8.16867C3.57063 9.97049 4.12318 12.0362 4.41536 13.9071L5.29004 19.5893L6.13704 25.2286C6.27202 26.143 6.41208 27.6002 6.6608 28.4298C6.96685 29.4505 7.5861 30.8318 8.01235 31.8398L10.6954 38.091C12.732 42.9196 14.8308 47.7216 16.9914 52.4959C18.0191 54.768 19.0285 57.0381 20.1253 59.2788C21.7324 62.5618 24.9593 64.6739 28.6054 64.8818C31.835 65.066 35.0947 64.994 38.3296 64.9753C46.9934 64.8911 55.6531 64.5487 64.2963 63.9484C67.3745 63.7622 70.45 63.5244 73.5199 63.2348C75.2257 63.0747 77.0639 62.945 78.7247 62.5521C79.7612 62.3069 80.4035 61.7708 81.1966 61.0922C80.7363 62.3279 80.3992 63.4729 79.3875 64.3633C77.8147 65.5795 73.7096 65.7884 71.6984 65.9801C68.8895 66.2614 66.0754 66.4874 63.258 66.6581C60.6535 66.8222 58.0835 67.0279 55.4671 67.1691C50.8972 67.4172 46.3234 67.5858 41.7477 67.6746C38.3987 67.7661 35.0484 67.7999 31.6982 67.7761C26.2898 67.7102 21.3996 67.6109 18.5069 62.138C17.1923 59.6507 16.0267 57.2067 14.8633 54.6396C12.5742 49.5794 10.354 44.4884 8.20351 39.3677C7.22375 37.0505 6.23088 34.7442 5.28243 32.4133C4.86017 31.3756 4.36298 30.3212 4.03808 29.2494C3.4011 27.1479 1.3502 13.6828 1.66281 11.9407C1.9978 10.0738 3.21169 8.22184 4.75165 7.13506Z" fill="#FF003A"/>
<path d="M66.4078 24.4967C66.3709 25.6367 66.2956 27.5137 63.7472 28.8825C58.3559 31.7782 52.0132 27.1468 52.4799 20.875C52.9045 15.17 59.8689 10.9447 65.2352 14.9377C67.4141 16.559 69.6604 18.9332 69.4445 22.0759" stroke="white" stroke-width="3.3" stroke-linecap="round"/>
</svg>
