<svg width="20" height="20" viewBox="0 0 20 20" fill="none" xmlns="http://www.w3.org/2000/svg">
<path d="M20 10C20 15.5228 15.5228 20 10 20C4.47715 20 0 15.5228 0 10C0 4.47715 4.47715 0 10 0C15.5228 0 20 4.47715 20 10Z" fill="#8EC046"/>
<path d="M8.84231 13.2838V12.3238C8.84231 11.9825 8.83698 11.6465 8.82631 11.3158C8.82631 10.9852 8.82098 10.6492 8.81031 10.3078C8.79964 10.1052 8.79431 9.90783 8.79431 9.71583C8.79431 9.52383 8.79431 9.3265 8.79431 9.12383V8.54783C8.79431 8.25983 8.81564 8.08917 8.85831 8.03583C8.87964 8.00383 8.92231 7.97183 8.98631 7.93983C9.05031 7.90783 9.14631 7.89183 9.27431 7.89183H9.53031L9.89831 7.92383C9.97298 7.9345 10.0476 7.9345 10.1223 7.92383C10.2076 7.9025 10.341 7.89183 10.5223 7.89183H10.6663C10.7303 7.89183 10.7943 7.89717 10.8583 7.90783C10.933 7.9185 10.997 7.9505 11.0503 8.00383C11.0716 8.02517 11.0983 8.06783 11.1303 8.13183C11.173 8.18517 11.189 8.25983 11.1783 8.35583L11.1623 8.69183C11.1623 8.74517 11.157 8.79317 11.1463 8.83583C11.1463 8.8785 11.141 8.93717 11.1303 9.01183C11.1303 9.07583 11.125 9.16117 11.1143 9.26783C11.1143 9.3745 11.1143 9.5185 11.1143 9.69983V10.4518V10.5798V10.8198C11.1143 11.0972 11.1196 11.3265 11.1303 11.5078C11.1516 11.6892 11.1623 11.8758 11.1623 12.0678V12.9798C11.1623 13.1078 11.1623 13.1932 11.1623 13.2358C11.173 13.2785 11.1783 13.3212 11.1783 13.3638C11.189 13.4065 11.1943 13.4652 11.1943 13.5398C11.205 13.6145 11.2103 13.7425 11.2103 13.9238V13.9878V14.0838C11.2103 14.4892 11.1996 14.7718 11.1783 14.9318C11.1676 15.0812 11.1463 15.1932 11.1143 15.2678C11.093 15.3105 11.0503 15.3585 10.9863 15.4118C10.933 15.4545 10.821 15.4758 10.6503 15.4758L9.93031 15.4598L9.62631 15.4758H9.33831C9.17831 15.4758 9.06631 15.4652 9.00231 15.4438C8.94898 15.4118 8.91698 15.3852 8.90631 15.3638C8.84231 15.2892 8.81031 15.1612 8.81031 14.9798C8.81031 14.7878 8.81031 14.6332 8.81031 14.5158L8.84231 13.2838ZM8.81031 5.77983C8.81031 5.5345 8.82631 5.3745 8.85831 5.29983C8.90098 5.2145 8.95431 5.16117 9.01831 5.13983C9.12498 5.09717 9.28498 5.0705 9.49831 5.05983C9.72231 5.0385 9.92498 5.02783 10.1063 5.02783H10.5863C10.6503 5.02783 10.7196 5.03317 10.7943 5.04383C10.8796 5.0545 10.9543 5.0865 11.0183 5.13983C11.0716 5.1825 11.1036 5.2305 11.1143 5.28383C11.1356 5.33717 11.1463 5.39583 11.1463 5.45983L11.1303 6.06783V6.61183V6.70783C11.1303 6.79317 11.1196 6.85183 11.0983 6.88383C11.0876 6.91583 11.0716 6.9425 11.0503 6.96383C11.029 7.0065 10.9863 7.04917 10.9223 7.09183C10.869 7.1345 10.7623 7.15583 10.6023 7.15583H9.40231C9.25298 7.15583 9.14098 7.14517 9.06631 7.12383C8.99164 7.1025 8.93298 7.04917 8.89031 6.96383C8.86898 6.92117 8.84764 6.8625 8.82631 6.78783C8.81564 6.71317 8.81031 6.64383 8.81031 6.57983V5.77983Z" fill="#5C0F8B"/>
</svg>
