<svg width="131" height="569" viewBox="0 0 131 569" fill="none" xmlns="http://www.w3.org/2000/svg">
<path d="M108.757 434C108.757 416.686 101.701 404.963 91.1651 395.95C80.4863 386.816 66.287 380.504 52.0011 374.194C37.907 367.968 23.6302 361.708 13.6739 352.658C8.64423 348.087 4.6417 342.746 2.29597 336.267C-0.0514994 329.783 -0.683061 322.316 0.793043 313.583C3.21751 299.241 12.9 290.365 25.3546 284.008C37.7033 277.705 53.3064 273.62 68.1407 269.109C83.1624 264.54 97.4738 259.52 108.043 251.407C118.444 243.423 125.258 232.417 125.258 215.5C125.258 209.158 123.473 204.25 120.431 200.313C117.356 196.333 112.876 193.193 107.268 190.636C95.9635 185.483 80.7757 182.989 65.1007 180.399C49.642 177.844 33.7002 175.192 21.6514 169.551C15.5831 166.71 10.3383 163.041 6.6114 158.1C2.85544 153.12 0.757892 147.001 0.757887 139.5C0.757882 131.747 2.84255 125.546 6.62605 120.629C10.3827 115.747 15.668 112.319 21.7628 109.822C33.8434 104.87 49.8205 103.311 65.2559 101.743C80.9354 100.151 96.078 98.5505 107.33 93.7844C112.901 91.4248 117.348 88.3537 120.408 84.2688C123.445 80.2146 125.258 74.9737 125.258 68.0002C125.258 53.9156 118.039 42.9442 106.781 34.2932C95.4711 25.6021 80.255 19.4072 64.8253 15.0285C49.4291 10.6594 34.0039 8.14804 22.4083 6.73069C16.6156 6.02265 11.7902 5.58879 8.41804 5.33225C6.73237 5.20402 5.41038 5.12029 4.51277 5.06858C4.06401 5.04273 3.72113 5.02517 3.49226 5.01389C3.37797 5.00826 3.29202 5.00376 3.23543 5.0012C3.20745 4.99993 3.18642 4.99983 3.17293 4.99925C3.16649 4.99897 3.1613 4.9984 3.15828 4.99827C3.15678 4.99821 3.15512 4.9983 3.15437 4.99827C1.77494 4.94099 0.702682 3.77615 0.75984 2.39671C0.817025 1.01726 1.98199 -0.0548704 3.3614 0.00217484L3.25789 2.50022C3.36144 0.00236702 3.36279 0.00211023 3.36433 0.00217484C3.36549 0.0022232 3.36794 0.00305612 3.37019 0.0031514C3.37467 0.00334134 3.38088 0.00281052 3.38875 0.0031514C3.40534 0.00387132 3.42969 0.00563907 3.46101 0.00705765C3.5241 0.00991558 3.61722 0.0137844 3.73836 0.019753C3.98058 0.031688 4.33694 0.0507009 4.79988 0.0773702C5.72591 0.130719 7.0787 0.216192 8.79695 0.346901C12.2333 0.608317 17.1356 1.04919 23.0147 1.7678C34.7627 3.20377 50.462 5.75456 66.1905 10.218C81.8857 14.672 97.7946 21.0814 109.828 30.3283C121.914 39.6153 130.258 51.9156 130.258 68.0002C130.258 75.9016 128.181 82.2325 124.409 87.2668C120.661 92.2702 115.381 95.8047 109.28 98.3889C97.1888 103.511 81.2063 105.15 65.7608 106.718C50.0712 108.311 34.9224 109.831 23.6593 114.447C18.0823 116.733 13.6408 119.712 10.5889 123.678C7.56409 127.609 5.75788 132.699 5.75789 139.5C5.75789 145.999 7.55101 151.042 10.6036 155.089C13.6853 159.175 18.1681 162.399 23.7716 165.023C35.0666 170.311 50.2498 172.877 65.9161 175.466C81.3656 178.019 97.3024 180.598 109.342 186.086C115.405 188.85 120.653 192.424 124.387 197.255C128.153 202.129 130.258 208.131 130.258 215.5C130.258 234.084 122.629 246.515 111.087 255.374C99.7124 264.105 84.578 269.335 69.5948 273.892C54.4241 278.505 39.4618 282.42 27.627 288.461C15.8981 294.448 7.77774 302.26 5.72273 314.417C4.3676 322.434 4.98783 329.012 6.99812 334.565C9.01022 340.122 12.4719 344.811 17.0362 348.959C26.268 357.35 39.6993 363.293 54.0206 369.619C68.15 375.861 83.0746 382.451 94.4151 392.152C105.898 401.975 113.757 415.023 113.757 434C113.757 456.689 107.159 472.973 97.0665 485.467C87.0363 497.884 73.6729 506.403 60.4493 513.793C47.0705 521.27 34.0625 527.493 23.8966 535.487C13.8795 543.363 6.98149 552.71 5.74812 566.228C5.62252 567.602 4.40607 568.615 3.03132 568.49C1.65632 568.364 0.643176 567.148 0.768629 565.773C2.16433 550.477 10.0801 539.99 20.8057 531.556C31.3826 523.239 45.0461 516.674 58.0098 509.429C71.1286 502.097 83.7788 493.959 93.1768 482.324C102.513 470.767 108.757 455.607 108.757 434Z" fill="white"/>
</svg>
