<svg width="118" height="75" viewBox="0 0 118 75" fill="none" xmlns="http://www.w3.org/2000/svg">
<mask id="mask0_67_1264" style="mask-type:luminance" maskUnits="userSpaceOnUse" x="0" y="0" width="118" height="75">
<path d="M0 0H118V74.466H0V0Z" fill="white"/>
</mask>
<g mask="url(#mask0_67_1264)">
<path d="M4.84903 11.6978C0.154349 22.3815 -3.62404 47.3185 5.93539 67.0193C7.91082 71.09 12.2095 74.1267 17.6126 73.3556C61.4069 67.1005 85.7588 80.0432 108.977 71.3561C112.706 69.9614 115.537 66.6892 116.141 62.6887C119.077 43.2373 118.291 25.2088 115.501 13.4417C114.534 9.36387 111.515 6.30452 107.62 4.95212C88.6219 -1.64269 32.0745 -1.37846 13.2266 4.13059C9.37889 5.25526 6.48526 7.97352 4.84855 11.6968L4.84951 11.6978H4.84903Z" fill="#C10230"/>
<path d="M111.725 39.964C112.63 39.964 113.361 40.7183 113.361 41.6508C113.361 42.5838 112.63 43.339 111.725 43.339C110.82 43.339 110.089 42.5847 110.089 41.6508C110.089 40.7173 110.82 39.964 111.725 39.964ZM111.725 42.9671C112.438 42.9671 113 42.3781 113 41.6517C113 40.9253 112.434 40.332 111.725 40.332C111.017 40.332 110.451 40.9253 110.451 41.6517C110.451 42.3781 111.012 42.9671 111.725 42.9671ZM111.766 40.7505C111.917 40.7505 112.095 40.7649 112.223 40.8874C112.361 41.0147 112.365 41.18 112.365 41.326C112.365 41.4245 112.351 41.7123 112.109 41.8449L112.36 42.4295C112.383 42.4862 112.364 42.5242 112.304 42.5242H111.985C111.952 42.5242 111.888 42.5242 111.87 42.4675L111.669 41.9116C111.665 41.8924 111.632 41.878 111.609 41.878H111.586C111.563 41.878 111.555 41.8828 111.555 41.9064V42.4339C111.555 42.5189 111.499 42.5232 111.454 42.5232H111.221C111.193 42.5232 111.115 42.528 111.115 42.4339V40.8408C111.115 40.7461 111.193 40.7514 111.221 40.7514H111.764L111.766 40.7505ZM111.557 41.4346C111.557 41.5057 111.598 41.5427 111.652 41.5427H111.734C111.808 41.5427 111.872 41.4668 111.872 41.3443C111.872 41.1699 111.762 41.1511 111.689 41.1511H111.643C111.602 41.1511 111.557 41.1934 111.557 41.2458V41.4346ZM87.689 47.4111C86.4908 46.6797 85.1129 46.3006 83.7114 46.3167C83.6881 44.7128 83.6491 43.1092 83.5944 41.5062C83.549 40.2143 84.0205 38.9023 81.3753 38.9676C79.0148 39.0252 78.5638 38.9647 78.5662 40.8187C78.5662 41.0454 78.6565 52.0635 78.5433 57.0696C77.6872 58.0458 77.1512 58.8933 77.6356 59.3703C80.8417 62.5243 86.3021 62.5594 89.5168 59.3746C90.3127 58.5863 90.8927 57.6163 91.2462 56.5521C91.6446 55.3549 91.6064 54.051 91.4115 52.8221C91.0561 50.5838 89.5952 48.5723 87.689 47.412V47.4111ZM87.0474 55.4774C86.8071 56.2144 85.4475 57.4025 83.6541 57.4025C83.6909 55.795 83.7391 52.9009 83.742 50.6506C83.742 50.6506 85.3863 50.7409 86.3943 51.941C87.0187 52.6842 87.5189 54.0313 87.0474 55.4774ZM107.661 39.2967C107.101 38.9325 106.338 38.7375 105.668 38.5967C104.669 38.3901 103.654 38.2752 102.634 38.2532C100.395 38.2004 97.912 38.6068 96.0369 39.7752C94.8779 40.4968 93.8575 41.4259 93.236 42.5818C92.5151 43.9222 92.1181 45.4341 92.1959 46.9297C92.3345 49.6124 93.8632 51.9083 96.2906 53.3953C96.2538 53.4726 94.844 56.5608 92.3326 58.4277C91.2515 59.2305 92.0029 59.8359 93.075 60.7371C94.1661 61.6538 94.8206 62.6118 95.9332 61.7023C98.5856 59.5356 100.029 57.6317 101.132 55.0153C101.429 55.046 101.727 55.0662 102.023 55.0734C102.032 56.641 102.053 58.2822 102.087 60.0713C102.113 61.3622 102.684 61.6538 104.995 61.4659C106.144 61.3732 107.187 61.7158 107.184 60.5747C107.183 60.1803 107.19 59.9007 107.201 59.684V59.6816C107.239 58.8649 107.197 50.2432 107.32 44.0178C107.897 44.111 108.252 44.0755 108.59 42.6087C108.726 42.014 109.094 41.019 109.112 40.5986C109.141 39.9645 108.229 39.6676 107.661 39.2976V39.2967ZM102.036 50.4306C102.036 50.4306 97.1443 50.1538 97.3134 46.4767C97.4787 42.8883 100.803 42.9647 102.215 42.8884C102.161 44.5891 102.063 48.0255 102.036 50.4306ZM73.4688 41.7022C72.8855 39.7641 73.1124 39.1237 70.8107 39.1064C69.4009 39.0954 67.8368 38.8086 67.4355 40.0466C67.0113 41.3563 64.1812 48.9816 63.9896 49.4524C63.2955 47.2016 61.0712 41.8843 60.3732 40.2398C60.0053 39.3707 59.4961 39.3125 57.8914 39.3125C56.7329 39.3125 55.6169 38.9935 55.1444 40.2398C54.7235 41.3486 52.6511 55.5322 52.4185 59.8512C52.3554 61.0292 52.299 61.5615 54.6762 61.5615C57.3984 61.5615 57.4715 61.1306 57.5522 60.408C57.7825 58.3292 58.9324 47.2367 58.994 46.9345C59.1421 47.5004 61.4777 54.5536 61.9129 56.2327C62.0663 56.8269 62.0548 57.3251 63.9892 57.3713C65.8088 57.4155 66.0358 57.0393 66.2369 56.2711C66.9191 53.6605 68.2032 49.3193 69.1955 46.8081C69.4683 48.2581 70.29 57.6057 70.6894 60.4071C70.7744 61.0023 70.7797 61.7095 73.347 61.5582C75.7032 61.4193 75.8871 61.7465 75.5092 57.9367C75.073 53.537 74.0727 43.7123 73.4669 41.7012L73.4688 41.7022ZM47.5614 40.9729C45.938 39.6777 43.9545 38.9479 41.8381 39.08C39.6558 39.2184 37.7387 39.9952 36.0838 41.3981C35.0376 42.2859 32.9141 44.7875 32.348 49.0882C31.7197 53.8589 33.249 56.6035 34.5971 58.2798C35.747 59.7095 37.5089 60.6992 39.3119 61.0835C41.8945 61.6331 44.5335 61.3189 46.8538 60.0588C47.8982 59.4914 48.9793 58.7208 49.7269 57.7907C50.1645 57.2459 50.6112 56.8947 50.6112 56.1712C50.6112 55.5543 49.8306 55.0201 49.3596 54.5958C48.8718 54.1558 48.2804 53.3472 47.7142 53.3679C47.4782 53.377 46.2658 54.272 45.2993 55.0398C44.7318 55.4899 43.3401 56.5627 40.9773 56.2884C40.5669 56.2154 39.1767 56.064 38.3005 54.7856C38.1496 54.5651 37.6747 53.8363 37.4382 52.1827C38.9025 52.4887 40.3935 52.6708 41.9107 52.6967C44.2664 52.7376 46.6761 52.3811 48.8923 51.5908C49.5296 51.3635 50.4994 51.0686 50.8506 50.4786C51.1573 49.9631 50.6943 46.1072 50.2672 44.9614C49.7035 43.4524 48.846 41.9991 47.5604 40.9719L47.5614 40.9729ZM38.0545 47.7123C38.5059 46.3546 39.7442 43.8185 42.1716 43.7771C44.9916 43.7281 45.5487 47.4356 45.6199 47.8675C44.0223 48.3791 41.0494 48.6515 38.0545 47.7123ZM23.7225 44.4545C24.419 46.7 25.0864 55.2122 21.4671 55.2329C16.7806 55.2598 15.013 47.2828 15.3297 36.1028C15.5948 26.7076 18.1373 19.2879 21.7413 19.371C25.3454 19.4541 24.537 23.507 23.2648 28.2738C22.8339 29.889 24.2991 30.3218 26.1656 30.1676C27.8234 30.0307 28.9288 30.0946 29.3511 28.354C30.2574 24.6245 30.3778 23.4249 29.8943 19.8918C29.4228 16.4438 26.8087 11.8101 21.1499 12.6614C12.566 13.9537 8.90944 24.9089 8.89797 39.1823C8.88746 51.8425 12.1542 62.9087 22.1703 61.6322C32.155 60.359 30.4313 45.8098 29.7381 43.8324C29.1983 42.2936 23.2854 43.0392 23.7235 44.4545H23.7225ZM87.2022 23.5743C87.2022 14.4606 81.8941 12.2891 76.5855 12.2891C71.277 12.2891 65.9684 14.4606 65.9684 23.5743C65.9684 32.6879 71.277 34.8595 76.5855 34.8595C81.8941 34.8595 87.2022 32.6879 87.2022 23.5743ZM76.5846 29.6834C73.4344 29.6834 71.9272 27.4013 71.9272 23.5738C71.9272 19.7458 73.4344 17.4642 76.5846 17.4642C79.7348 17.4642 81.2415 19.7458 81.2415 23.5738C81.2415 27.4013 79.7348 29.6834 76.5846 29.6834ZM57.0745 21.9769V33.6752C57.0742 33.8662 57.1493 34.0494 57.2833 34.1847C57.4173 34.32 57.5993 34.3963 57.7891 34.3968H62.116C62.5111 34.3968 62.8307 34.074 62.8307 33.6752V13.4728C62.8307 13.0741 62.5111 12.7512 62.116 12.7512H55.6952C55.4024 12.7512 55.1387 12.9324 55.0307 13.2076L50.0738 25.8741L45.1173 13.2076C45.0648 13.0733 44.9734 12.958 44.8549 12.8766C44.7364 12.7952 44.5963 12.7515 44.4528 12.7512H38.032C37.6369 12.7512 37.3173 13.0741 37.3173 13.4728V33.6752C37.3173 34.074 37.6374 34.3968 38.032 34.3968H42.3589C42.7535 34.3968 43.0735 34.074 43.0735 33.6752V21.9769H43.3807L47.9163 33.9332C47.968 34.0692 48.0594 34.1864 48.1785 34.2691C48.2976 34.3519 48.4389 34.3964 48.5837 34.3968H51.5643C51.86 34.3968 52.1261 34.2128 52.2317 33.9332L56.7673 21.9769H57.0745ZM90.0739 34.3968H95.1393C95.3294 34.3968 95.5161 34.3458 95.6802 34.2492C95.8443 34.1525 95.9798 34.0136 96.0727 33.8467L98.7256 29.1069H101.506V33.6757C101.506 33.8666 101.582 34.0497 101.716 34.1849C101.85 34.3201 102.031 34.3963 102.221 34.3968H106.548C106.738 34.3963 106.92 34.32 107.054 34.1847C107.188 34.0494 107.263 33.8662 107.263 33.6752V13.6549C107.263 13.487 107.205 13.3243 107.099 13.1948C106.992 13.0653 106.844 12.9773 106.68 12.9458C105.224 12.6691 102.647 12.2891 101.048 12.2891C93.5436 12.2891 89.663 14.9756 89.663 20.5236C89.663 25.5603 92.9254 27.0867 93.2928 27.3177L89.5431 33.4336C89.2851 33.8539 89.5851 34.3968 90.0748 34.3968H90.0739ZM101.506 17.2278V24.0384C99.6242 24.354 95.5611 24.4044 95.5611 20.5827C95.5611 16.415 99.6758 16.6148 101.506 17.2278Z" fill="white"/>
</g>
</svg>
