<svg width="1500" height="1827" viewBox="0 0 1500 1827" fill="none" xmlns="http://www.w3.org/2000/svg">
<g clip-path="url(#clip0_70_10)">
<g clip-path="url(#clip1_70_10)">
<rect width="1500" height="921" transform="translate(0.202904 906)" fill="url(#paint0_linear_70_10)"/>
<rect width="1500" height="921" transform="translate(0.202904 906)" fill="#FDCA32"/>
<path d="M-0.779118 1348.43C-0.779118 1348.43 6.91131 1357.47 30.7618 1355.95C48.0509 1354.84 58.1754 1344.74 62.6602 1337.1C64.9032 1333.27 65.7421 1328.77 64.9632 1324.4C64.5193 1322 63.8955 1321.2 63.6807 1321.13C62.8769 1321.94 23.6825 1347.17 -0.779118 1348.43Z" fill="#F78C1E"/>
<path d="M63.7121 1321.1C63.7121 1321.1 57.1298 1360.52 11.2256 1353.84C-2.48079 1351.84 -18.2583 1334.45 -17.8514 1311.13C-17.6375 1298.73 -14.562 1294.15 -14.562 1294.15L-13.3973 1294.56L62.2408 1320.58L63.7431 1321.1L63.7121 1321.1Z" fill="white"/>
<path d="M28.5731 1310.85C28.3536 1312.7 46.5731 1333.04 48.447 1334.47C50.3209 1335.9 53.5815 1334.93 56.992 1328.75C60.4025 1322.57 60.4285 1320.92 57.3919 1319.92C54.2312 1318.91 28.7595 1309.06 28.5731 1310.85Z" fill="#F99D22"/>
<path d="M26.6757 1317.27C26.6757 1317.27 25.307 1312.91 25.9814 1312.25C26.6559 1311.59 29.1715 1315.09 35.4134 1322.07C41.6554 1329.05 48.9114 1336.32 48.5507 1338.66C47.8731 1342.98 39.8276 1346.83 36.36 1346.61C32.8925 1346.4 33.7488 1344.97 31.9884 1338.49C30.228 1332.01 26.6447 1317.27 26.6447 1317.27L26.6757 1317.27Z" fill="#F99D22"/>
<path d="M23.9603 1313.33C24.8035 1313.17 25.7285 1318.69 26.8872 1325.53C27.9958 1332.02 32.823 1346.68 31.0004 1349.13C29.3402 1351.37 21.5277 1351.19 18.2399 1350.27C14.951 1349.38 16.3009 1344.46 16.8468 1341.25C17.4236 1338.04 23.0852 1313.51 23.9283 1313.36L23.9603 1313.33Z" fill="#F99D22"/>
<path d="M9.85892 1323.45C9.85892 1323.45 20.7459 1311.04 22.3646 1311.78C22.9448 1312.05 20.15 1321.94 18.7979 1326.92C17.4459 1331.9 13.5444 1347.74 11.577 1348.11C8.32832 1348.74 3.04908 1346.2 -0.128072 1342.99C-3.96437 1339.1 -4.54775 1338.93 -0.667528 1334.41C3.21269 1329.89 9.85892 1323.45 9.85892 1323.45Z" fill="#F99D22"/>
<path d="M-11.0822 1316.39C-9.13502 1315.71 20.0265 1309.56 20.5029 1310.14C21.099 1310.84 7.18328 1324.69 2.02928 1329.26C-3.12472 1333.83 -4.36071 1336.36 -7.05174 1333.44C-9.74276 1330.52 -14.7574 1317.69 -11.0822 1316.39Z" fill="#F99D22"/>
<path d="M-9.35439 1296.97C-7.34979 1297.31 19.2269 1306.62 20.0741 1307.23C20.9214 1307.85 20.5482 1308.77 18.6727 1309.17C16.7972 1309.57 -10.4196 1316.01 -12.0981 1315.21C-13.7767 1314.4 -13.4555 1296.23 -9.35439 1296.97Z" fill="#F99D22"/>
<path d="M63.7121 1321.1C63.7121 1321.1 57.1298 1360.52 11.2256 1353.84C-2.48079 1351.84 -18.2583 1334.45 -17.8514 1311.13C-17.6375 1298.73 -14.562 1294.15 -14.562 1294.15L-13.3973 1294.56C-14.3118 1297.66 -16.8854 1307.44 -15.8727 1316.69C-14.2929 1331.05 -4.12396 1346.45 5.89209 1350.18C5.89209 1350.18 18.7217 1354.19 27.9367 1352.4C46.3667 1348.82 56.2525 1340.23 62.2408 1320.58L63.7431 1321.1L63.7121 1321.1Z" fill="#F99D22"/>
<path d="M1086.5 1648.47C1101.44 1642.26 1113.35 1661.6 1115.64 1669.43C1117.18 1674.67 1126.98 1699.45 1112.02 1705.65C1097.08 1711.86 1074.83 1710.2 1066.04 1692.13C1056.53 1672.59 1071.54 1654.67 1086.48 1648.46L1086.5 1648.47Z" fill="#975B2E"/>
<path d="M1112.76 1705.28C1123.53 1700.16 1126.23 1683.34 1118.8 1667.72C1111.36 1652.1 1096.61 1643.59 1085.84 1648.71C1075.07 1653.84 1072.36 1670.66 1079.8 1686.28C1087.24 1701.9 1101.99 1710.41 1112.76 1705.28Z" fill="#8CC747"/>
<path d="M1105.69 1687.17C1109.02 1685.64 1109.41 1679.36 1106.55 1673.15C1103.69 1666.93 1098.68 1663.13 1095.35 1664.66C1092.02 1666.19 1091.64 1672.47 1094.5 1678.68C1097.35 1684.9 1102.37 1688.7 1105.69 1687.17Z" fill="#B9D988"/>
<path d="M1085.5 1680.9C1084.68 1681.24 1083.66 1680.75 1083.25 1679.81C1082.84 1678.87 1083.16 1677.82 1083.99 1677.48C1084.81 1677.14 1087.04 1677.12 1087.46 1678.06C1087.87 1679 1086.34 1680.54 1085.5 1680.9Z" fill="black"/>
<path d="M1092.23 1691.97C1091.95 1692.89 1091 1693.26 1090.1 1692.85C1089.2 1692.43 1088.72 1691.35 1089.03 1690.44C1089.31 1689.52 1090.7 1687.81 1091.57 1688.22C1092.47 1688.64 1092.51 1691.05 1092.23 1691.97Z" fill="black"/>
<path d="M1090.61 1658.57C1090.19 1657.63 1090.52 1656.58 1091.35 1656.24C1092.17 1655.9 1093.19 1656.39 1093.6 1657.33C1094.02 1658.28 1094.3 1660.69 1093.47 1661.02C1092.64 1661.36 1091.02 1659.51 1090.58 1658.56L1090.61 1658.57Z" fill="black"/>
<path d="M1080.46 1664.61C1079.56 1664.2 1079.09 1663.11 1079.39 1662.2C1079.67 1661.29 1080.63 1660.91 1081.53 1661.33C1082.42 1661.74 1084.19 1663.45 1083.89 1664.36C1083.61 1665.28 1081.35 1665.06 1080.49 1664.62L1080.46 1664.61Z" fill="black"/>
<path d="M1112.05 1671.23C1112.88 1670.89 1113.89 1671.38 1114.31 1672.32C1114.72 1673.26 1114.39 1674.31 1113.57 1674.65C1112.74 1674.99 1110.51 1675.01 1110.1 1674.07C1109.69 1673.13 1111.22 1671.59 1112.05 1671.23Z" fill="black"/>
<path d="M1102.35 1661.02C1102.63 1660.1 1103.58 1659.73 1104.48 1660.15C1105.38 1660.56 1105.86 1661.65 1105.55 1662.55C1105.27 1663.47 1103.88 1665.18 1103.01 1664.77C1102.11 1664.35 1102.07 1661.94 1102.35 1661.02Z" fill="black"/>
<path d="M1103.02 1694.95C1103.43 1695.89 1103.11 1696.94 1102.28 1697.27C1101.45 1697.61 1100.44 1697.12 1100.03 1696.18C1099.61 1695.24 1099.33 1692.83 1100.16 1692.49C1100.98 1692.15 1102.61 1694.01 1103.05 1694.96L1103.02 1694.95Z" fill="black"/>
<path d="M1112.83 1688.86C1113.72 1689.28 1114.2 1690.36 1113.9 1691.27C1113.62 1692.19 1112.66 1692.57 1111.76 1692.15C1110.86 1691.73 1109.1 1690.03 1109.4 1689.12C1109.68 1688.2 1111.94 1688.42 1112.8 1688.85L1112.83 1688.86Z" fill="black"/>
<path d="M1516.05 1286.36C1516.44 1287.67 1516.72 1288.96 1516.91 1290.19C1517.24 1292.37 1517.26 1294.41 1517.07 1296.32C1517.07 1296.32 1517.08 1296.34 1517.07 1296.37C1517.05 1296.51 1517.02 1296.65 1517.01 1296.79C1517.01 1296.79 1517.02 1296.81 1517.01 1296.84C1516.88 1297.84 1516.69 1298.82 1516.43 1299.75C1514.73 1306.13 1504.81 1316.76 1497.57 1320.56C1497.51 1320.59 1497.44 1320.62 1497.38 1320.65C1497.38 1320.65 1497.36 1320.66 1497.34 1320.67C1496.36 1321.16 1495.32 1321.68 1494.22 1322.14C1493.1 1322.65 1491.9 1323.11 1490.66 1323.54C1490.32 1323.66 1489.97 1323.78 1489.64 1323.89C1487.9 1324.47 1486.05 1324.94 1484.17 1325.28C1479.36 1326.13 1474.2 1326.04 1469.08 1324.14C1465.16 1322.67 1461.7 1319.89 1458.88 1316.62C1458.69 1316.4 1458.5 1316.16 1458.31 1315.94C1458.15 1315.73 1457.99 1315.55 1457.83 1315.34C1457.54 1314.97 1457.25 1314.59 1456.98 1314.2C1456.54 1313.57 1456.1 1312.95 1455.71 1312.32C1455.7 1312.3 1455.68 1312.25 1455.67 1312.23C1454.91 1311.02 1454.23 1309.8 1453.63 1308.59C1452.07 1305.44 1451.15 1302.39 1450.96 1300.02C1450.72 1297.02 1450.74 1294.49 1451.02 1292.17C1451.14 1291.15 1451.32 1290.15 1451.53 1289.16C1451.93 1287.35 1452.49 1285.59 1453.2 1283.77C1453.28 1283.57 1453.34 1283.38 1453.43 1283.18C1453.66 1282.6 1453.96 1282.01 1454.32 1281.42C1454.73 1280.72 1455.21 1280.01 1455.72 1279.32C1456.81 1277.84 1458.1 1276.42 1459.25 1275.23C1459.68 1274.78 1460.1 1274.37 1460.46 1274.01C1460.75 1273.74 1461.01 1273.48 1461.26 1273.25C1462.1 1272.44 1462.67 1271.95 1462.67 1271.95C1462.67 1271.95 1462.73 1271.87 1462.88 1271.74C1463.02 1271.62 1463.21 1271.42 1463.48 1271.18C1463.56 1271.12 1463.63 1271.06 1463.72 1270.99C1463.92 1270.81 1464.16 1270.61 1464.42 1270.41C1464.46 1270.39 1464.48 1270.38 1464.52 1270.33C1465.25 1269.76 1466.15 1269.08 1467.27 1268.35C1467.65 1268.11 1468.04 1267.86 1468.46 1267.6C1469 1267.28 1469.59 1266.94 1470.21 1266.63C1470.46 1266.5 1470.73 1266.37 1470.98 1266.25C1471.13 1266.17 1471.28 1266.1 1471.42 1266.03C1472.51 1265.49 1473.72 1265 1475.01 1264.51C1475.07 1264.48 1475.15 1264.44 1475.23 1264.43C1478.19 1263.38 1481.65 1262.55 1485.55 1262.25C1486.62 1262.16 1487.68 1262.15 1488.72 1262.21C1488.83 1262.21 1488.93 1262.21 1489.05 1262.23C1489.15 1262.23 1489.26 1262.23 1489.37 1262.25C1489.45 1262.26 1489.51 1262.26 1489.59 1262.27C1489.67 1262.28 1489.72 1262.28 1489.81 1262.29C1489.89 1262.3 1489.97 1262.31 1490.05 1262.3C1490.1 1262.3 1490.15 1262.3 1490.18 1262.31C1490.23 1262.31 1490.29 1262.32 1490.35 1262.34C1490.43 1262.35 1490.48 1262.35 1490.57 1262.36L1490.59 1262.35C1490.67 1262.36 1490.75 1262.37 1490.82 1262.39C1490.9 1262.4 1490.98 1262.41 1491.07 1262.42C1491.07 1262.42 1491.12 1262.42 1491.13 1262.44C1491.15 1262.43 1491.19 1262.46 1491.23 1262.44C1491.3 1262.46 1491.37 1262.45 1491.43 1262.48C1491.48 1262.48 1491.51 1262.49 1491.57 1262.49C1491.79 1262.53 1492.02 1262.57 1492.25 1262.61C1493.34 1262.83 1494.38 1263.09 1495.41 1263.44C1496.01 1263.64 1496.6 1263.84 1497.19 1264.09C1497.25 1264.11 1497.3 1264.14 1497.36 1264.16C1497.88 1264.37 1498.39 1264.61 1498.9 1264.85C1499.07 1264.95 1499.27 1265.03 1499.45 1265.13C1499.86 1265.34 1500.26 1265.56 1500.65 1265.78C1501.6 1266.32 1502.52 1266.93 1503.38 1267.57C1506.62 1269.96 1509.37 1272.99 1511.47 1276.23C1511.81 1276.76 1512.14 1277.31 1512.46 1277.85C1512.49 1277.91 1512.51 1277.95 1512.54 1278.02C1514.2 1280.96 1515.36 1283.71 1516.12 1286.29L1516.05 1286.36Z" fill="#F99D22"/>
<path d="M1466.54 1274.47C1466.54 1274.47 1463.74 1275.27 1463.95 1275.68C1464.14 1276.08 1466.15 1275.58 1466.05 1276.15C1465.96 1276.71 1463.78 1278.7 1463.85 1279.06C1463.9 1279.42 1466.43 1277.34 1467.2 1277.32C1467.95 1277.31 1467.58 1280.09 1467.97 1280.13C1469.01 1280.29 1468.21 1276.79 1469.28 1276.39C1470.36 1275.99 1471.83 1277.8 1472.13 1277.52C1472.56 1277.13 1470.19 1274.92 1470.19 1274.92C1470.19 1274.92 1472.94 1274.39 1473 1273.98C1473.05 1273.56 1470.01 1273.51 1470.01 1273.51C1470.01 1273.51 1471.04 1271.39 1470.37 1271.09C1469.71 1270.8 1468.61 1273.45 1468.27 1273.25C1467.92 1273.06 1465.72 1272.08 1465.62 1272.72C1465.53 1273.37 1466.3 1274.41 1466.59 1274.53L1466.54 1274.47Z" fill="#8CC747"/>
<path d="M201.714 1710.61C200.974 1711.32 200.209 1711.94 199.458 1712.49C198.122 1713.45 196.774 1714.16 195.435 1714.68C195.435 1714.68 195.424 1714.69 195.4 1714.7C195.306 1714.74 195.199 1714.77 195.105 1714.8C195.105 1714.8 195.095 1714.82 195.07 1714.82C194.362 1715.08 193.647 1715.28 192.935 1715.43C188.118 1716.47 177.667 1713.49 172.678 1709.97C172.636 1709.94 172.594 1709.91 172.552 1709.88C172.552 1709.88 172.538 1709.87 172.525 1709.86C171.868 1709.37 171.169 1708.86 170.487 1708.29C169.767 1707.71 169.05 1707.07 168.34 1706.39C168.151 1706.21 167.948 1706.02 167.759 1705.83C166.783 1704.87 165.84 1703.81 164.974 1702.67C162.775 1699.77 161.077 1696.3 160.596 1692.25C160.232 1689.14 160.904 1685.9 162.123 1682.91C162.205 1682.71 162.298 1682.49 162.38 1682.3C162.466 1682.12 162.527 1681.95 162.613 1681.78C162.764 1681.46 162.915 1681.13 163.08 1680.82C163.352 1680.31 163.613 1679.81 163.902 1679.33C163.912 1679.32 163.933 1679.29 163.943 1679.28C164.49 1678.36 165.069 1677.49 165.669 1676.68C167.231 1674.57 168.949 1672.92 170.463 1671.99C172.375 1670.81 174.064 1669.96 175.701 1669.36C176.419 1669.09 177.145 1668.87 177.874 1668.67C179.214 1668.32 180.572 1668.09 182.029 1667.94C182.188 1667.93 182.334 1667.9 182.494 1667.89C182.96 1667.85 183.457 1667.85 183.972 1667.88C184.574 1667.92 185.208 1668 185.845 1668.1C187.195 1668.32 188.582 1668.7 189.766 1669.06C190.209 1669.19 190.627 1669.33 190.993 1669.45C191.268 1669.54 191.53 1669.63 191.767 1669.72C192.593 1670 193.109 1670.21 193.109 1670.21C193.109 1670.21 193.185 1670.23 193.318 1670.28C193.45 1670.34 193.646 1670.39 193.897 1670.49C193.963 1670.52 194.029 1670.55 194.109 1670.58C194.294 1670.66 194.507 1670.75 194.734 1670.85C194.761 1670.87 194.775 1670.88 194.814 1670.89C195.442 1671.18 196.206 1671.55 197.075 1672.04C197.361 1672.21 197.661 1672.39 197.975 1672.58C198.373 1672.83 198.799 1673.1 199.218 1673.41C199.386 1673.54 199.568 1673.67 199.736 1673.8C199.833 1673.87 199.931 1673.94 200.029 1674.01C200.756 1674.55 201.497 1675.19 202.26 1675.88C202.302 1675.91 202.357 1675.95 202.389 1676C204.096 1677.61 205.827 1679.63 207.356 1682.12C207.781 1682.8 208.147 1683.51 208.464 1684.22C208.5 1684.29 208.535 1684.36 208.56 1684.44C208.595 1684.51 208.63 1684.58 208.655 1684.66C208.676 1684.72 208.694 1684.75 208.715 1684.81C208.736 1684.87 208.754 1684.91 208.775 1684.97C208.796 1685.03 208.818 1685.08 208.849 1685.13C208.867 1685.16 208.884 1685.2 208.888 1685.22C208.906 1685.26 208.923 1685.29 208.93 1685.34C208.952 1685.4 208.969 1685.43 208.991 1685.49L209.004 1685.5C209.026 1685.56 209.047 1685.62 209.054 1685.67C209.075 1685.73 209.097 1685.79 209.118 1685.85C209.118 1685.85 209.136 1685.88 209.125 1685.9C209.139 1685.91 209.132 1685.94 209.16 1685.97C209.168 1686.01 209.199 1686.06 209.207 1686.11C209.224 1686.14 209.228 1686.17 209.245 1686.2C209.295 1686.37 209.345 1686.53 209.395 1686.7C209.626 1687.5 209.805 1688.28 209.924 1689.08C209.993 1689.55 210.062 1690.01 210.097 1690.49C210.104 1690.54 210.097 1690.57 210.104 1690.62C210.142 1691.04 210.155 1691.46 210.168 1691.88C210.166 1692.03 210.177 1692.19 210.174 1692.34C210.177 1692.69 210.165 1693.03 210.153 1693.36C210.113 1694.18 210.024 1695 209.894 1695.79C209.405 1698.76 208.327 1701.62 206.886 1704.12C206.648 1704.53 206.397 1704.93 206.146 1705.32C206.115 1705.37 206.094 1705.39 206.063 1705.44C204.675 1707.54 203.239 1709.25 201.78 1710.64L201.714 1710.61Z" fill="#F99D22"/>
<path d="M192.751 1673.65C192.751 1673.65 191.269 1672.05 191.063 1672.33C190.866 1672.6 191.885 1673.76 191.469 1673.89C191.066 1674.02 188.999 1673.25 188.788 1673.42C188.563 1673.58 190.809 1674.55 191.083 1675.05C191.344 1675.55 189.373 1676.25 189.475 1676.52C189.724 1677.27 191.778 1675.54 192.412 1676.12C193.045 1676.7 192.338 1678.3 192.628 1678.4C193.035 1678.55 193.695 1676.23 193.695 1676.23C193.695 1676.23 194.986 1677.88 195.281 1677.77C195.575 1677.66 194.575 1675.62 194.575 1675.62C194.575 1675.62 196.334 1675.59 196.303 1675.04C196.272 1674.5 194.134 1674.67 194.153 1674.38C194.158 1674.08 194.064 1672.28 193.602 1672.44C193.14 1672.59 192.711 1673.47 192.734 1673.7L192.751 1673.65Z" fill="#8CC747"/>
<path d="M140.439 1621.09C144.701 1621.29 147.763 1622.76 150.914 1623.86C154.01 1624.95 156.883 1626.71 159.912 1627.67C160.879 1626.49 160.136 1625.89 159.659 1625.49C154.725 1621.32 149.046 1618.44 142.988 1616.35C141.945 1615.98 140.79 1615.84 139.658 1615.79C136.905 1615.67 134.971 1617.3 134.801 1620.13C134.688 1621.96 135.151 1623.83 135.237 1625.68C135.291 1626.9 135.123 1628.12 135.066 1629.4C132.69 1629.86 131.037 1628.77 129.284 1628.31C126.743 1627.66 124.257 1626.74 121.694 1626.32C117.632 1625.69 115.165 1627.36 114.404 1631.45C114.013 1633.62 114.065 1635.95 114.429 1638.13C114.836 1640.5 115.865 1642.79 116.65 1645.09C116.772 1645.44 116.993 1645.78 117.237 1646.04C117.891 1646.75 118.734 1647.38 119.667 1646.86C120.234 1646.55 120.834 1645.75 120.868 1645.15C120.983 1642.71 120.853 1640.28 120.856 1637.84C120.847 1636.37 120.927 1634.92 120.963 1633.15C122.161 1633.27 123.094 1633.2 123.937 1633.44C125.746 1633.96 127.488 1634.67 129.274 1635.25C130.528 1635.65 131.771 1636.09 133.069 1636.3C138.951 1637.19 142.053 1634.18 141.439 1628.27C141.33 1627.16 141.031 1626.06 140.867 1624.95C140.713 1623.86 140.592 1622.79 140.383 1621.09L140.439 1621.09Z" fill="white"/>
<path d="M1416.19 1203.82C1414.92 1207.77 1411.61 1209.56 1407.74 1208.38C1401.16 1206.4 1395.76 1196.19 1397.82 1189.57C1399.22 1185.05 1404.75 1183.03 1409.08 1185.44C1414.35 1188.34 1418.06 1197.99 1416.22 1203.83L1416.19 1203.82ZM1412.04 1203.24C1414.37 1198.52 1410.44 1190.45 1405.76 1189.15C1404.52 1188.79 1402.56 1189.85 1402.22 1191.03C1400.93 1195.55 1404.62 1202.57 1409.23 1203.89C1410.16 1204.15 1411.81 1203.68 1412.04 1203.24Z" fill="white"/>
<path d="M1367.38 1201.14C1362.92 1199.06 1360.35 1193.43 1361.83 1188.97C1362.89 1185.74 1365.81 1184.72 1368.76 1186.54C1372.86 1189.06 1374.93 1192.65 1374.32 1197.5C1373.84 1201.3 1370.89 1202.78 1367.41 1201.15L1367.38 1201.14ZM1369.44 1196.54C1371.22 1195.13 1370.77 1193.55 1370.1 1192.01C1369.47 1190.55 1368.61 1190.5 1366.24 1191.71C1366.46 1193.87 1367.14 1195.75 1369.44 1196.54Z" fill="white"/>
<path d="M1398.82 1221.83C1402.82 1223.75 1404.8 1228.7 1403.22 1232.83C1402.41 1234.92 1400.02 1235.99 1397.89 1235.18C1393.77 1233.56 1391.07 1228.17 1392.23 1223.88C1392.92 1221.35 1395.88 1220.42 1398.82 1221.83ZM1399.41 1230.35C1400.73 1228.44 1400.05 1226.93 1399.11 1225.52C1398.89 1225.22 1398.28 1224.98 1397.92 1225.08C1397.52 1225.16 1396.89 1225.62 1396.89 1225.96C1396.84 1227.9 1397.17 1229.68 1399.43 1230.39L1399.41 1230.35Z" fill="white"/>
<path d="M1370.53 1554.39C1364.72 1553.51 1359.24 1551.37 1353.95 1548.86C1341.47 1542.86 1330.65 1534.67 1321.86 1523.95C1320.29 1522.07 1318.98 1520.01 1317.67 1517.95C1316.9 1516.67 1316.58 1515.12 1317.45 1513.8C1318.55 1512.14 1320.32 1512.12 1322.03 1512.61C1323.69 1513.08 1325.32 1513.59 1326.89 1514.2C1337.07 1518.25 1347.41 1522.06 1357.38 1526.53C1364.27 1529.61 1370.77 1533.48 1377.36 1537.13C1380.18 1538.71 1382.33 1540.97 1384.09 1543.75C1386.89 1548.33 1385.02 1553.29 1378.79 1554.86C1376.74 1554.77 1373.54 1554.83 1370.43 1554.33L1370.53 1554.39ZM1369.8 1540.49C1363.8 1537.24 1357.72 1534.21 1351.55 1531.32C1343.33 1527.59 1335.04 1524.08 1326.75 1520.57C1326.15 1520.32 1325.43 1520.34 1324.77 1520.18C1324.85 1520.79 1324.67 1521.38 1324.94 1521.62C1336.58 1533.46 1349.94 1542.48 1366.07 1547.09C1369.08 1547.96 1372.24 1548.29 1375.36 1548.66C1375.41 1548.7 1375.49 1548.68 1375.57 1548.66C1377.08 1548.61 1377.73 1546.78 1376.78 1545.66C1374.78 1543.37 1372.27 1541.85 1369.8 1540.49Z" fill="white"/>
<path d="M1284.61 1519.72C1287.61 1525.29 1290.72 1530.79 1293.69 1536.4C1299.2 1546.78 1303.52 1557.57 1305.2 1569.29C1305.79 1573.19 1305.87 1577.1 1304.47 1580.82C1302.85 1585.08 1298.86 1586.45 1295.01 1584.19C1293.8 1583.47 1292.63 1582.48 1291.65 1581.41C1290.34 1579.99 1289.1 1578.46 1288.11 1576.76C1277.63 1559.02 1275.66 1539.66 1277.57 1519.64C1277.89 1516.7 1281.69 1515.62 1283.53 1517.96C1283.87 1518.39 1284.15 1518.93 1284.57 1519.77L1284.61 1519.72ZM1280.9 1529.92C1281.16 1544.42 1283.72 1558.41 1290.92 1571.24C1292.2 1573.56 1293.93 1575.61 1295.69 1577.62C1295.74 1577.65 1295.79 1577.69 1295.84 1577.72C1296.82 1578.57 1298.4 1578 1298.63 1576.68C1299.41 1573.05 1299.26 1570.63 1298.23 1566.44C1296.34 1558.87 1293.82 1551.52 1290.36 1544.53C1287.82 1539.33 1285 1534.24 1282 1528.47C1281.12 1529.58 1280.9 1529.71 1280.88 1529.84L1280.9 1529.92Z" fill="white"/>
<path d="M1330.9 1474.07C1337.68 1472.09 1344.41 1469.99 1351.26 1468.34C1358.8 1466.5 1366.43 1464.94 1374.02 1463.34C1378.11 1462.46 1382.29 1462.62 1386.31 1463.66C1392.51 1465.23 1394.18 1471.53 1389.7 1476.08C1389.03 1476.77 1388.24 1477.44 1387.35 1477.83C1383.39 1479.57 1379.46 1481.69 1375.24 1482.76C1365.73 1485.26 1355.97 1485.36 1346.26 1484.42C1340.7 1483.91 1335.2 1482.88 1329.7 1481.85C1329.08 1481.72 1328.46 1481.59 1327.87 1481.42C1324.76 1480.49 1324.68 1476.15 1327.71 1475.06C1328.74 1474.68 1329.79 1474.47 1330.87 1474.12L1330.9 1474.07ZM1339.28 1479.67C1350.23 1480.86 1361.18 1480.65 1371.92 1478.11C1375.23 1477.35 1378.45 1476.1 1381.51 1474.75C1381.74 1474.62 1381.99 1474.57 1382.21 1474.44C1384.84 1473.23 1383.77 1469.22 1380.86 1469.47C1376 1469.92 1371.09 1470.12 1366.34 1471.13C1357.31 1473.11 1348.38 1475.57 1339.42 1477.87C1339.22 1477.95 1339.03 1478.03 1338.83 1478.12C1338.2 1478.54 1338.42 1479.6 1339.2 1479.69L1339.28 1479.67Z" fill="white"/>
<path d="M204.315 1110.6C191.327 1100.96 201.827 1080.81 207.371 1074.84C211.08 1070.83 227.338 1049.71 240.331 1059.38C253.319 1069.01 263.306 1088.98 252.293 1105.79C240.393 1123.97 217.309 1120.27 204.321 1110.63L204.315 1110.6Z" fill="#975B2E"/>
<path d="M239.633 1058.92C229.711 1052.31 213.885 1058.61 204.285 1073C194.685 1087.39 194.946 1104.43 204.869 1111.04C214.791 1117.66 230.617 1111.36 240.217 1096.97C249.817 1082.58 249.556 1065.54 239.633 1058.92Z" fill="#8CC747"/>
<path d="M227.707 1074.28C224.688 1072.21 219.101 1075.1 215.227 1080.74C211.354 1086.38 210.661 1092.63 213.681 1094.7C216.7 1096.78 222.288 1093.89 226.161 1088.25C230.034 1082.61 230.727 1076.35 227.707 1074.28Z" fill="#B9D988"/>
<path d="M232.673 1094.83C233.386 1095.37 233.486 1096.49 232.89 1097.33C232.294 1098.16 231.226 1098.42 230.513 1097.88C229.799 1097.35 228.634 1095.45 229.23 1094.61C229.826 1093.77 231.932 1094.3 232.673 1094.83Z" fill="black"/>
<path d="M238.725 1083.38C239.657 1083.15 240.472 1083.77 240.573 1084.76C240.674 1085.74 239.99 1086.71 239.053 1086.91C238.12 1087.14 235.941 1086.83 235.846 1085.87C235.745 1084.88 237.792 1083.61 238.725 1083.38Z" fill="black"/>
<path d="M210.883 1101.9C210.287 1102.73 209.219 1102.99 208.506 1102.45C207.792 1101.92 207.693 1100.79 208.289 1099.96C208.885 1099.12 210.811 1097.64 211.524 1098.18C212.238 1098.72 211.479 1101.06 210.888 1101.92L210.883 1101.9Z" fill="black"/>
<path d="M221.276 1107.51C221.377 1108.49 220.693 1109.46 219.755 1109.66C218.823 1109.89 218.008 1109.26 217.907 1108.28C217.806 1107.3 218.362 1104.9 219.299 1104.7C220.232 1104.47 221.202 1106.52 221.271 1107.48L221.276 1107.51Z" fill="black"/>
<path d="M210.759 1076.99C210.045 1076.46 209.946 1075.33 210.542 1074.5C211.138 1073.66 212.205 1073.4 212.919 1073.94C213.633 1074.48 214.798 1076.38 214.202 1077.21C213.606 1078.05 211.5 1077.52 210.759 1076.99Z" fill="black"/>
<path d="M206.972 1090.56C206.04 1090.79 205.225 1090.16 205.124 1089.18C205.023 1088.19 205.706 1087.23 206.644 1087.02C207.577 1086.79 209.755 1087.11 209.851 1088.07C209.952 1089.05 207.905 1090.33 206.972 1090.56Z" fill="black"/>
<path d="M235.753 1072.59C236.349 1071.75 237.416 1071.5 238.13 1072.03C238.844 1072.57 238.943 1073.69 238.347 1074.53C237.751 1075.36 235.825 1076.84 235.111 1076.31C234.398 1075.77 235.157 1073.42 235.748 1072.56L235.753 1072.59Z" fill="black"/>
<path d="M225.503 1067.29C225.402 1066.3 226.085 1065.34 227.023 1065.13C227.956 1064.9 228.771 1065.53 228.872 1066.52C228.973 1067.5 228.417 1069.89 227.479 1070.1C226.547 1070.33 225.577 1068.28 225.508 1067.31L225.503 1067.29Z" fill="black"/>
<path d="M181.168 1036.88C182.031 1041.05 179.979 1044.31 175.928 1045.21C169.06 1046.76 159.093 1040.37 157.596 1033.43C156.561 1028.69 160.478 1024.09 165.56 1024.07C171.721 1023.99 179.897 1030.74 181.201 1036.88L181.168 1036.88ZM177.175 1038.46C176.871 1033.07 169.301 1027.85 164.466 1029.04C163.175 1029.35 161.965 1031.28 162.259 1032.51C163.383 1037.19 170.212 1041.6 174.99 1040.45C175.959 1040.22 177.194 1038.96 177.175 1038.46Z" fill="white"/>
<path d="M136.27 1059.1C131.241 1059.49 126.114 1055.77 125.184 1051.04C124.499 1047.62 126.591 1045.24 130.141 1045.38C135.068 1045.56 138.729 1047.72 140.626 1052.35C142.114 1055.99 140.227 1058.8 136.303 1059.09L136.27 1059.1ZM135.787 1053.96C136.669 1051.8 135.464 1050.62 134.088 1049.59C132.793 1048.6 132 1049 130.497 1051.27C131.785 1053.08 133.335 1054.41 135.787 1053.96Z" fill="white"/>
<path d="M154.469 1073.17C159.006 1072.87 163.274 1076.28 163.941 1080.77C164.282 1083.04 162.683 1085.2 160.377 1085.55C155.885 1086.18 150.755 1082.74 149.628 1078.33C148.968 1075.72 151.14 1073.39 154.469 1073.17ZM159.297 1080.48C159.512 1078.11 158.144 1077.1 156.589 1076.32C156.244 1076.16 155.583 1076.25 155.307 1076.52C154.998 1076.8 154.661 1077.53 154.836 1077.83C155.769 1079.59 156.964 1081.01 159.337 1080.5L159.297 1080.48Z" fill="white"/>
<path d="M567.254 1118.04C566.562 1118.7 565.845 1119.29 565.142 1119.8C563.89 1120.69 562.627 1121.36 561.373 1121.85C561.373 1121.85 561.363 1121.86 561.341 1121.87C561.253 1121.9 561.152 1121.93 561.064 1121.97C561.064 1121.97 561.055 1121.98 561.032 1121.98C560.369 1122.22 559.699 1122.42 559.032 1122.55C554.521 1123.53 544.731 1120.74 540.059 1117.44C540.02 1117.41 539.981 1117.38 539.941 1117.35C539.941 1117.35 539.928 1117.34 539.915 1117.33C539.3 1116.88 538.646 1116.39 538.007 1115.86C537.333 1115.32 536.661 1114.72 535.996 1114.09C535.819 1113.92 535.629 1113.74 535.452 1113.57C534.537 1112.67 533.655 1111.67 532.844 1110.6C530.784 1107.88 529.194 1104.64 528.743 1100.84C528.402 1097.93 529.031 1094.89 530.173 1092.09C530.25 1091.9 530.337 1091.71 530.414 1091.52C530.494 1091.36 530.552 1091.2 530.632 1091.03C530.774 1090.73 530.915 1090.43 531.07 1090.14C531.324 1089.66 531.568 1089.19 531.839 1088.75C531.849 1088.73 531.868 1088.71 531.878 1088.69C532.39 1087.84 532.932 1087.02 533.494 1086.26C534.958 1084.29 536.567 1082.74 537.984 1081.87C539.776 1080.76 541.357 1079.97 542.891 1079.4C543.563 1079.15 544.243 1078.94 544.926 1078.76C546.181 1078.43 547.453 1078.22 548.817 1078.07C548.967 1078.06 549.103 1078.04 549.253 1078.03C549.689 1077.99 550.155 1077.99 550.637 1078.02C551.201 1078.05 551.794 1078.13 552.391 1078.22C553.656 1078.43 554.955 1078.78 556.064 1079.12C556.479 1079.24 556.87 1079.37 557.213 1079.48C557.471 1079.57 557.716 1079.65 557.938 1079.74C558.712 1080.01 559.195 1080.2 559.195 1080.2C559.195 1080.2 559.267 1080.21 559.391 1080.27C559.515 1080.32 559.698 1080.37 559.933 1080.46C559.995 1080.49 560.057 1080.51 560.132 1080.55C560.305 1080.62 560.504 1080.7 560.716 1080.8C560.743 1080.82 560.756 1080.83 560.792 1080.84C561.38 1081.11 562.095 1081.46 562.909 1081.92C563.177 1082.08 563.458 1082.24 563.753 1082.42C564.125 1082.66 564.524 1082.91 564.917 1083.2C565.074 1083.32 565.244 1083.44 565.402 1083.56C565.493 1083.63 565.585 1083.69 565.676 1083.76C566.357 1084.27 567.051 1084.86 567.766 1085.51C567.805 1085.54 567.857 1085.58 567.887 1085.62C569.486 1087.13 571.107 1089.02 572.538 1091.35C572.937 1091.99 573.28 1092.65 573.577 1093.32C573.61 1093.38 573.643 1093.45 573.666 1093.53C573.699 1093.59 573.732 1093.66 573.755 1093.73C573.775 1093.79 573.792 1093.82 573.812 1093.88C573.832 1093.93 573.848 1093.96 573.868 1094.02C573.888 1094.08 573.908 1094.13 573.937 1094.17C573.954 1094.21 573.97 1094.24 573.974 1094.26C573.99 1094.29 574.007 1094.33 574.013 1094.37C574.033 1094.43 574.05 1094.46 574.07 1094.51L574.083 1094.52C574.103 1094.58 574.123 1094.63 574.129 1094.68C574.149 1094.73 574.169 1094.79 574.189 1094.85C574.189 1094.85 574.206 1094.88 574.196 1094.89C574.209 1094.9 574.203 1094.94 574.229 1094.96C574.236 1095 574.265 1095.04 574.272 1095.09C574.289 1095.12 574.292 1095.14 574.309 1095.18C574.355 1095.33 574.402 1095.49 574.448 1095.65C574.665 1096.39 574.832 1097.12 574.944 1097.88C575.009 1098.31 575.074 1098.74 575.106 1099.19C575.113 1099.24 575.106 1099.27 575.113 1099.32C575.148 1099.71 575.16 1100.1 575.173 1100.5C575.17 1100.64 575.181 1100.79 575.179 1100.93C575.181 1101.25 575.17 1101.57 575.159 1101.88C575.121 1102.65 575.038 1103.42 574.916 1104.16C574.458 1106.94 573.449 1109.62 572.099 1111.96C571.876 1112.34 571.641 1112.71 571.405 1113.09C571.376 1113.13 571.357 1113.15 571.328 1113.19C570.028 1115.17 568.683 1116.77 567.316 1118.06L567.254 1118.04Z" fill="#F99D22"/>
<path d="M558.859 1083.42C558.859 1083.42 557.472 1081.93 557.278 1082.19C557.094 1082.44 558.049 1083.53 557.659 1083.64C557.282 1083.77 555.346 1083.05 555.148 1083.2C554.937 1083.35 557.04 1084.26 557.298 1084.73C557.542 1085.2 555.696 1085.86 555.792 1086.11C556.024 1086.81 557.949 1085.2 558.542 1085.74C559.135 1086.28 558.473 1087.77 558.744 1087.87C559.126 1088.01 559.744 1085.84 559.744 1085.84C559.744 1085.84 560.953 1087.38 561.229 1087.28C561.505 1087.18 560.568 1085.27 560.568 1085.27C560.568 1085.27 562.216 1085.23 562.187 1084.73C562.157 1084.22 560.155 1084.38 560.173 1084.11C560.178 1083.83 560.089 1082.14 559.657 1082.29C559.224 1082.43 558.822 1083.25 558.843 1083.47L558.859 1083.42Z" fill="#8CC747"/>
</g>
<path d="M1082.97 1040.33C1083.38 1037.01 1083.61 1034.37 1084.1 1031.75C1084.19 1031.27 1085.27 1030.8 1085.95 1030.67C1086.25 1030.63 1086.97 1031.44 1087.04 1031.92C1087.23 1033.56 1087.18 1035.22 1087.27 1036.86C1087.33 1038.05 1087.5 1039.24 1087.63 1040.67C1089.69 1041.22 1091.61 1041.71 1094.27 1042.41C1093.12 1043.26 1092.63 1043.83 1091.99 1044.05C1090.65 1044.52 1089.27 1044.81 1087.84 1045.2C1086.89 1047.71 1087.27 1050.22 1086.91 1052.62C1086.57 1054.94 1086.89 1057.49 1085.14 1059.66C1083.87 1057.19 1083.89 1057.19 1083.76 1052.68C1083.7 1050.45 1083.53 1048.22 1083.4 1045.75C1080.87 1045.47 1078.63 1045.32 1076.49 1044.9C1075.93 1044.79 1075.38 1043.81 1075.21 1043.15C1075.13 1042.84 1075.78 1041.98 1076.23 1041.86C1078.4 1041.26 1080.61 1040.84 1082.97 1040.3V1040.33Z" fill="white"/>
<path d="M1110.2 1017.91C1111.94 1017.99 1113.47 1019.55 1113.28 1021.06C1113.05 1022.99 1111.37 1024.5 1109.54 1024.44C1107.94 1024.37 1106.45 1022.78 1106.47 1021.18C1106.52 1019.31 1108.22 1017.8 1110.2 1017.91Z" fill="white"/>
<path d="M1324.23 1323.24C1324.23 1323.08 1324.25 1322.94 1324.3 1322.81C1324.34 1322.68 1324.42 1322.56 1324.54 1322.44L1325.43 1321.59C1325.7 1321.34 1325.96 1321.02 1326.22 1320.65C1326.47 1320.26 1326.7 1319.86 1326.89 1319.45C1327.09 1319.02 1327.25 1318.6 1327.37 1318.18C1327.5 1317.76 1327.56 1317.37 1327.56 1317.03C1327.56 1316.88 1327.56 1316.74 1327.54 1316.6C1327.54 1316.45 1327.52 1316.32 1327.48 1316.2C1327.44 1316.08 1327.37 1315.99 1327.29 1315.91C1327.21 1315.84 1327.1 1315.8 1326.95 1315.8C1326.74 1315.8 1326.61 1315.89 1326.55 1316.07C1326.5 1316.24 1326.47 1316.46 1326.47 1316.73V1317.26C1326.47 1317.34 1326.47 1317.43 1326.47 1317.53C1326.47 1317.61 1326.46 1317.7 1326.42 1317.78C1326.4 1317.86 1326.36 1317.92 1326.3 1317.98C1326.23 1318.03 1326.13 1318.06 1325.99 1318.06H1324.78C1324.67 1318.06 1324.58 1318.05 1324.5 1318.04C1324.44 1318.02 1324.39 1317.98 1324.34 1317.91C1324.31 1317.85 1324.29 1317.76 1324.26 1317.64C1324.25 1317.52 1324.25 1317.36 1324.25 1317.16V1316.44C1324.25 1316.06 1324.28 1315.72 1324.34 1315.43C1324.42 1315.13 1324.5 1314.88 1324.6 1314.68C1324.71 1314.48 1324.81 1314.32 1324.92 1314.2C1325.03 1314.07 1325.11 1313.98 1325.18 1313.91C1325.34 1313.76 1325.51 1313.65 1325.69 1313.56C1325.88 1313.48 1326.06 1313.41 1326.23 1313.37C1326.41 1313.33 1326.58 1313.3 1326.73 1313.29C1326.89 1313.28 1327.03 1313.27 1327.14 1313.27C1327.61 1313.27 1328.02 1313.34 1328.38 1313.48C1328.74 1313.61 1329.06 1313.84 1329.34 1314.17C1329.5 1314.36 1329.62 1314.57 1329.72 1314.79C1329.83 1315.01 1329.91 1315.22 1329.96 1315.45C1330.02 1315.67 1330.06 1315.9 1330.07 1316.12C1330.09 1316.34 1330.1 1316.56 1330.1 1316.76C1330.1 1317.72 1329.89 1318.66 1329.46 1319.59C1329.04 1320.51 1328.36 1321.42 1327.43 1322.33H1329.3C1329.5 1322.33 1329.64 1322.35 1329.74 1322.39C1329.84 1322.42 1329.91 1322.48 1329.94 1322.55C1329.99 1322.62 1330.01 1322.7 1330.01 1322.79C1330.02 1322.89 1330.02 1323 1330.02 1323.13V1324.46C1330.02 1324.52 1330.02 1324.58 1330.01 1324.65C1330 1324.71 1329.97 1324.77 1329.91 1324.82C1329.87 1324.88 1329.8 1324.92 1329.7 1324.95C1329.61 1324.98 1329.48 1325 1329.32 1325H1324.73C1324.7 1325 1324.65 1325 1324.58 1324.98C1324.53 1324.97 1324.48 1324.95 1324.42 1324.92C1324.37 1324.88 1324.32 1324.82 1324.28 1324.74C1324.25 1324.67 1324.23 1324.57 1324.23 1324.44V1323.24Z" fill="white"/>
<path d="M427.837 1461.08C427.894 1460.95 427.968 1460.86 428.057 1460.82C428.143 1460.77 428.197 1460.74 428.218 1460.73C428.301 1460.72 428.379 1460.72 428.451 1460.75C428.533 1460.77 428.635 1460.82 428.758 1460.88C428.855 1460.92 428.977 1460.97 429.123 1461.04C429.266 1461.1 429.437 1461.1 429.635 1461.06C429.728 1461.04 429.824 1461 429.921 1460.94C430.028 1460.89 430.116 1460.81 430.183 1460.72C430.247 1460.62 430.291 1460.49 430.312 1460.35C430.342 1460.19 430.334 1460 430.287 1459.8C430.225 1459.52 430.139 1459.3 430.032 1459.16C429.932 1459.01 429.821 1458.91 429.698 1458.85C429.575 1458.79 429.449 1458.76 429.32 1458.77C429.201 1458.77 429.089 1458.79 428.985 1458.81L428.579 1458.9C428.391 1458.94 428.248 1458.93 428.148 1458.88C428.049 1458.83 427.971 1458.67 427.915 1458.42L427.629 1457.14C427.622 1457.11 427.618 1457.07 427.617 1457.02C427.613 1456.95 427.622 1456.89 427.641 1456.83C427.669 1456.76 427.716 1456.7 427.782 1456.65C427.855 1456.59 427.965 1456.54 428.111 1456.51L428.377 1456.45C428.72 1456.38 428.954 1456.22 429.079 1456C429.204 1455.78 429.243 1455.56 429.196 1455.35C429.143 1455.11 429.015 1454.93 428.814 1454.81C428.623 1454.69 428.413 1454.66 428.184 1454.71C427.976 1454.75 427.821 1454.84 427.719 1454.98C427.628 1455.11 427.565 1455.22 427.532 1455.31C427.494 1455.39 427.46 1455.45 427.43 1455.52C427.397 1455.57 427.34 1455.6 427.256 1455.62C427.173 1455.64 427.106 1455.63 427.055 1455.6C427.002 1455.56 426.924 1455.5 426.822 1455.44L425.839 1454.71C425.775 1454.67 425.725 1454.61 425.688 1454.54C425.661 1454.47 425.642 1454.41 425.631 1454.36C425.593 1454.19 425.637 1454.02 425.76 1453.84C425.881 1453.65 426.026 1453.46 426.193 1453.28C426.369 1453.09 426.612 1452.88 426.923 1452.66C427.232 1452.43 427.652 1452.25 428.183 1452.13C428.714 1452.02 429.159 1452 429.519 1452.1C429.879 1452.19 430.176 1452.32 430.41 1452.49C430.616 1452.63 430.838 1452.84 431.077 1453.13C431.315 1453.41 431.495 1453.83 431.616 1454.37C431.665 1454.59 431.698 1454.83 431.714 1455.1C431.731 1455.37 431.69 1455.65 431.592 1455.95C431.527 1456.15 431.44 1456.32 431.33 1456.46C431.229 1456.6 431.114 1456.72 430.987 1456.84C431.229 1456.89 431.438 1456.97 431.614 1457.07C431.79 1457.18 431.956 1457.31 432.112 1457.47C432.357 1457.73 432.539 1458.01 432.658 1458.3C432.788 1458.59 432.89 1458.9 432.965 1459.23C433.065 1459.68 433.107 1460.16 433.091 1460.68C433.086 1461.19 432.944 1461.71 432.664 1462.22C432.586 1462.35 432.487 1462.5 432.37 1462.66C432.249 1462.81 432.102 1462.95 431.928 1463.1C431.761 1463.24 431.56 1463.36 431.324 1463.48C431.099 1463.6 430.84 1463.69 430.549 1463.75C430.018 1463.87 429.531 1463.89 429.087 1463.82C428.652 1463.73 428.292 1463.64 428.008 1463.54C427.772 1463.46 427.597 1463.39 427.485 1463.32C427.37 1463.25 427.291 1463.12 427.247 1462.92C427.226 1462.82 427.222 1462.76 427.236 1462.72C427.261 1462.69 427.278 1462.64 427.29 1462.6L427.837 1461.08Z" fill="white"/>
<path d="M1500 1.00001V963.716C1500 963.716 1357 935.704 1156 935.704C993 935.704 903.106 955.86 750 966.716C603.91 977.075 521.049 974.653 375 963.716C227.332 952.658 0 906.926 0 906.926V20.5926C0 20.5926 195.779 8.98742e-06 314.5 0C627.5 -2.36947e-05 833.726 77.89 1037 77.89C1395 77.89 1500 1.00001 1500 1.00001Z" fill="#A0CF5A"/>
<path d="M1044 1820.69C1397.5 1820.69 1506 1749.7 1506 1749.7V1827.5H-6V1791.96C-6 1791.96 201.779 1767.45 320.5 1767.45C633.5 1767.45 840.726 1820.69 1044 1820.69Z" fill="#5C0F8B"/>
<path d="M1388.15 133.5C1387.86 137.951 1384.87 140.67 1380.52 140.45C1373.15 140.091 1364.86 130.849 1365.29 123.407C1365.57 118.328 1370.81 114.781 1375.96 116.178C1382.21 117.823 1388.58 126.929 1388.18 133.502L1388.15 133.5ZM1383.67 133.973C1384.87 128.439 1378.68 121.046 1373.46 120.901C1372.07 120.853 1370.3 122.465 1370.26 123.787C1370.08 128.834 1375.75 135.198 1380.91 135.376C1381.95 135.412 1383.55 134.491 1383.67 133.973Z" fill="white"/>
<path d="M1336.55 143.393C1331.35 142.377 1327.21 137.181 1327.59 132.141C1327.86 128.492 1330.64 126.671 1334.19 127.804C1339.12 129.368 1342.22 132.577 1342.84 137.79C1343.32 141.884 1340.63 144.196 1336.58 143.394L1336.55 143.393ZM1337.5 138.059C1338.99 136.124 1338.1 134.595 1337 133.163C1335.97 131.803 1335.06 131.981 1332.9 133.858C1333.7 136.046 1334.89 137.83 1337.5 138.059Z" fill="white"/>
<path d="M1351 162.707C1355.67 163.67 1359.03 168.316 1358.45 173.035C1358.16 175.429 1355.94 177.165 1353.51 176.872C1348.79 176.256 1344.57 171.336 1344.67 166.565C1344.73 163.745 1347.58 161.996 1351 162.707ZM1353.84 171.447C1354.72 169.108 1353.62 167.711 1352.27 166.479C1351.96 166.225 1351.27 166.131 1350.91 166.328C1350.52 166.523 1349.98 167.167 1350.07 167.518C1350.52 169.555 1351.33 171.326 1353.87 171.483L1353.84 171.447Z" fill="white"/>
<path d="M78.1433 345.915C77.663 349.53 75.0795 351.587 71.5439 351.172C65.5465 350.479 59.2857 342.49 60.0408 336.442C60.5443 332.314 65.0155 329.705 69.1364 331.123C74.1466 332.804 78.8551 340.578 78.1717 345.918L78.1433 345.915ZM74.4654 346.058C75.7457 341.609 71.0951 335.242 66.8427 334.841C65.7095 334.726 64.1837 335.945 64.0748 337.022C63.6591 341.13 67.9396 346.629 72.1324 347.053C72.9823 347.139 74.3375 346.475 74.4654 346.058Z" fill="white"/>
<path d="M35.5086 351.189C31.3279 350.079 28.2305 345.616 28.8162 341.525C29.2305 338.562 31.5979 337.227 34.4328 338.344C38.3693 339.887 40.7206 342.673 40.9451 346.96C41.1197 350.326 38.797 352.066 35.5369 351.192L35.5086 351.189ZM36.5733 346.889C37.8983 345.392 37.2566 344.097 36.4364 342.869C35.6671 341.703 34.9132 341.799 33.0529 343.213C33.5834 345.041 34.46 346.561 36.5733 346.889Z" fill="white"/>
<path d="M46.2572 367.73C50.0158 368.768 52.5045 372.741 51.7747 376.559C51.4069 378.497 49.5013 379.792 47.5354 379.422C43.7198 378.663 40.543 374.421 40.879 370.534C41.0829 368.236 43.5012 366.964 46.2572 367.73ZM48.096 375.014C48.9425 373.153 48.1194 371.954 47.0837 370.876C46.8488 370.652 46.2879 370.538 45.9874 370.679C45.6586 370.817 45.1791 371.313 45.2355 371.605C45.4942 373.291 46.0591 374.779 48.1215 375.045L48.096 375.014Z" fill="white"/>
<path d="M168.876 818.53C175.328 819.32 181.797 818.674 188.189 817.576C203.275 814.914 217.244 809.409 229.814 800.606C232.046 799.071 234.056 797.268 236.066 795.465C237.268 794.33 238.065 792.78 237.53 791.112C236.856 789.013 234.975 788.458 233.005 788.477C231.098 788.476 229.21 788.538 227.362 788.722C215.307 790.003 203.152 790.975 191.194 792.769C182.934 793.99 174.849 796.176 166.745 798.096C163.269 798.939 160.295 800.711 157.602 803.143C153.249 807.197 153.758 813.028 159.934 816.563C162.143 817.08 165.537 818.103 168.999 818.49L168.876 818.53ZM173.798 803.939C181.16 802.257 188.54 800.842 195.979 799.612C205.842 798.082 215.723 796.817 225.603 795.553C226.322 795.459 227.079 795.693 227.837 795.722C227.564 796.355 227.577 797.032 227.226 797.213C211.288 806.347 194.364 811.984 175.799 812.084C172.332 812.107 168.872 811.515 165.432 810.984C165.37 811.004 165.289 810.962 165.207 810.92C163.613 810.41 163.473 808.275 164.816 807.367C167.626 805.511 170.754 804.643 173.798 803.939Z" fill="white"/>
<path d="M270.761 807.218C265.905 812.25 260.947 817.18 256.111 822.274C247.145 831.692 239.318 841.902 234.035 853.883C232.247 857.863 230.991 862.013 231.373 866.387C231.829 871.417 235.677 874.065 240.449 872.806C241.952 872.392 243.498 871.691 244.861 870.845C246.679 869.717 248.457 868.465 250.012 866.944C266.475 851.169 274.35 831.134 278.287 809.23C278.816 805.995 275.087 803.717 272.44 805.657C271.944 806.021 271.487 806.508 270.781 807.279L270.761 807.218ZM271.674 819.187C267.071 834.56 260.165 848.698 248.672 860.221C246.618 862.311 244.158 863.986 241.679 865.599C241.617 865.619 241.555 865.639 241.493 865.659C240.194 866.28 238.688 865.197 238.828 863.721C239.079 859.622 239.969 857.088 242.312 852.93C246.581 845.429 251.46 838.345 257.234 831.928C261.492 827.155 266.015 822.569 270.936 817.312C271.535 818.754 271.738 818.962 271.716 819.105L271.674 819.187Z" fill="white"/>
<path d="M235.056 744.767C228.415 740.632 221.878 736.395 215.069 732.585C207.588 728.379 199.919 724.437 192.312 720.475C188.214 718.317 183.713 717.241 179.119 717.149C172.044 716.967 168.385 723.182 171.803 729.374C172.306 730.303 172.951 731.254 173.785 731.94C177.484 734.976 181.035 738.4 185.214 740.806C194.608 746.305 204.975 749.313 215.599 751.217C221.679 752.331 227.847 752.871 234.016 753.412C234.713 753.461 235.41 753.509 236.087 753.497C239.677 753.434 241.062 748.834 238.151 746.771C237.175 746.063 236.114 745.517 235.076 744.829L235.056 744.767ZM224.453 748.239C212.435 746.238 200.823 742.744 190.14 736.84C186.837 735.039 183.786 732.749 180.92 730.399C180.717 730.192 180.472 730.066 180.269 729.858C177.831 727.78 180.173 723.827 183.196 724.968C188.241 726.891 193.412 728.569 198.163 731.063C207.197 735.862 215.979 741.149 224.844 746.274C225.027 746.419 225.21 746.565 225.393 746.711C225.94 747.353 225.395 748.413 224.535 748.28L224.453 748.239Z" fill="white"/>
<path d="M135.768 96.4605C133.137 96.5875 131.248 97.4943 129.303 98.1684C127.393 98.8424 125.62 99.9272 123.75 100.519C123.153 99.7936 123.612 99.423 123.906 99.176C126.951 96.6028 130.456 94.8237 134.195 93.5375C134.838 93.3106 135.551 93.2205 136.249 93.1921C137.948 93.1144 139.142 94.1198 139.247 95.8666C139.317 96.9968 139.031 98.1549 138.977 99.2922C138.944 100.046 139.048 100.799 139.083 101.587C140.55 101.873 141.57 101.2 142.652 100.918C144.22 100.518 145.754 99.9474 147.336 99.6917C149.842 99.2978 151.365 100.33 151.834 102.857C152.076 104.193 152.043 105.632 151.819 106.975C151.568 108.441 150.932 109.853 150.448 111.272C150.373 111.491 150.236 111.697 150.086 111.861C149.682 112.293 149.162 112.685 148.586 112.363C148.237 112.172 147.866 111.679 147.845 111.31C147.774 109.803 147.854 108.302 147.852 106.795C147.858 105.891 147.809 104.993 147.787 103.904C147.047 103.981 146.471 103.933 145.951 104.085C144.835 104.401 143.76 104.841 142.657 105.199C141.884 105.447 141.117 105.715 140.315 105.846C136.685 106.399 134.772 104.539 135.15 100.894C135.218 100.208 135.402 99.5301 135.504 98.8449C135.599 98.1734 135.673 97.5088 135.802 96.4605L135.768 96.4605Z" fill="white"/>
<path d="M1348.53 659.862C1344.03 660.079 1340.81 661.629 1337.48 662.78C1334.22 663.931 1331.19 665.785 1328 666.795C1326.98 665.556 1327.76 664.923 1328.26 664.501C1333.47 660.106 1339.45 657.066 1345.84 654.869C1346.94 654.481 1348.16 654.327 1349.35 654.279C1352.25 654.146 1354.29 655.864 1354.47 658.848C1354.59 660.779 1354.1 662.757 1354.01 664.7C1353.95 665.987 1354.13 667.274 1354.19 668.62C1356.7 669.108 1358.44 667.959 1360.29 667.477C1362.97 666.794 1365.59 665.819 1368.29 665.382C1372.57 664.709 1375.17 666.473 1375.97 670.79C1376.39 673.072 1376.33 675.53 1375.95 677.824C1375.52 680.329 1374.43 682.741 1373.61 685.165C1373.48 685.54 1373.24 685.891 1372.99 686.172C1372.3 686.91 1371.41 687.579 1370.43 687.03C1369.83 686.703 1369.2 685.861 1369.16 685.23C1369.04 682.655 1369.18 680.092 1369.17 677.517C1369.18 675.972 1369.1 674.439 1369.06 672.579C1367.8 672.709 1366.81 672.629 1365.92 672.887C1364.02 673.428 1362.18 674.18 1360.3 674.791C1358.98 675.214 1357.67 675.672 1356.3 675.897C1350.1 676.841 1346.83 673.663 1347.47 667.436C1347.59 666.265 1347.9 665.106 1348.08 663.936C1348.24 662.789 1348.37 661.653 1348.59 659.862L1348.53 659.862Z" fill="white"/>
<path d="M1365.82 396.634C1353.85 387.781 1363.56 369.222 1368.69 363.715C1372.11 360.016 1387.14 340.558 1399.11 349.436C1411.07 358.289 1420.26 376.646 1410.08 392.138C1399.07 408.887 1377.79 405.512 1365.82 396.659L1365.82 396.634Z" fill="#975B2E"/>
<path d="M1398.44 348.987C1389.31 342.903 1374.73 348.732 1365.87 362.007C1357.01 375.281 1357.23 390.974 1366.35 397.058C1375.48 403.142 1390.06 397.313 1398.92 384.038C1407.78 370.764 1407.56 355.071 1398.44 348.987Z" fill="#8CC747"/>
<path d="M1387.43 363.15C1384.66 361.244 1379.51 363.915 1375.93 369.115C1372.36 374.316 1371.71 380.077 1374.49 381.983C1377.27 383.889 1382.41 381.218 1385.99 376.018C1389.56 370.818 1390.21 365.057 1387.43 363.15Z" fill="#B9D988"/>
<path d="M1392 382.092C1392.66 382.584 1392.75 383.619 1392.2 384.39C1391.65 385.161 1390.66 385.398 1390 384.906C1389.35 384.414 1388.27 382.666 1388.83 381.895C1389.38 381.124 1391.32 381.605 1392 382.092Z" fill="black"/>
<path d="M1397.58 371.543C1398.44 371.329 1399.19 371.906 1399.28 372.812C1399.37 373.718 1398.74 374.606 1397.87 374.795C1397.01 375.008 1395.01 374.72 1394.92 373.839C1394.83 372.933 1396.72 371.756 1397.58 371.543Z" fill="black"/>
<path d="M1371.92 388.602C1371.37 389.373 1370.38 389.61 1369.73 389.118C1369.07 388.626 1368.98 387.592 1369.53 386.821C1370.08 386.05 1371.86 384.688 1372.52 385.18C1373.17 385.672 1372.47 387.831 1371.92 388.627L1371.92 388.602Z" fill="black"/>
<path d="M1381.5 393.772C1381.59 394.679 1380.96 395.568 1380.09 395.757C1379.23 395.97 1378.48 395.393 1378.39 394.486C1378.3 393.58 1378.81 391.378 1379.68 391.189C1380.54 390.976 1381.43 392.861 1381.49 393.747L1381.5 393.772Z" fill="black"/>
<path d="M1371.8 365.661C1371.15 365.169 1371.06 364.134 1371.61 363.363C1372.16 362.592 1373.14 362.355 1373.8 362.847C1374.46 363.339 1375.53 365.087 1374.98 365.858C1374.43 366.629 1372.49 366.148 1371.8 365.661Z" fill="black"/>
<path d="M1368.32 378.155C1367.45 378.368 1366.7 377.792 1366.61 376.886C1366.52 375.98 1367.15 375.091 1368.02 374.902C1368.88 374.689 1370.89 374.977 1370.97 375.858C1371.06 376.764 1369.18 377.941 1368.32 378.155Z" fill="black"/>
<path d="M1394.84 361.603C1395.39 360.832 1396.37 360.595 1397.03 361.087C1397.69 361.579 1397.78 362.614 1397.23 363.385C1396.68 364.156 1394.9 365.517 1394.24 365.026C1393.58 364.534 1394.29 362.374 1394.83 361.579L1394.84 361.603Z" fill="black"/>
<path d="M1385.39 356.72C1385.3 355.813 1385.93 354.924 1386.8 354.735C1387.66 354.521 1388.41 355.099 1388.5 356.005C1388.59 356.912 1388.07 359.114 1387.21 359.302C1386.35 359.516 1385.46 357.631 1385.39 356.744L1385.39 356.72Z" fill="black"/>
<path d="M132.918 180.386C138.457 168.546 123.254 158.333 117.017 156.243C112.838 154.833 93.1677 146.158 87.6359 158.019C82.0973 169.859 82.6554 187.848 96.9438 195.503C112.387 203.782 127.386 192.247 132.925 180.407L132.918 180.386Z" fill="#975B2E"/>
<path d="M87.9786 157.403C92.4899 148.867 106.148 147.216 118.485 153.715C130.821 160.215 137.165 172.404 132.654 180.94C128.142 189.476 114.484 191.127 102.148 184.628C89.8109 178.128 83.4673 165.939 87.9786 157.403Z" fill="#8CC747"/>
<path d="M102.333 163.687C103.683 161.046 108.761 160.935 113.675 163.439C118.59 165.944 121.479 170.115 120.129 172.756C118.779 175.397 113.701 175.508 108.786 173.003C103.872 170.499 100.982 166.328 102.333 163.687Z" fill="#B9D988"/>
<path d="M106.709 180.174C106.407 180.829 106.768 181.664 107.513 182.026C108.258 182.388 109.115 182.158 109.418 181.503C109.72 180.848 109.819 179.052 109.074 178.69C108.329 178.328 107.032 179.513 106.709 180.174Z" fill="black"/>
<path d="M98.0074 174.377C97.2558 174.573 96.9174 175.332 97.2235 176.068C97.5296 176.804 98.3858 177.223 99.1307 177.006C99.8824 176.809 101.31 175.744 101.011 175.029C100.704 174.293 98.7591 174.18 98.0074 174.377Z" fill="black"/>
<path d="M124.892 176.797C125.637 177.16 126.495 176.929 126.797 176.274C127.099 175.619 126.738 174.785 125.993 174.422C125.248 174.06 123.311 173.758 123.009 174.413C122.706 175.068 124.147 176.435 124.899 176.818L124.892 176.797Z" fill="black"/>
<path d="M119.675 184.784C119.982 185.52 120.839 185.94 121.584 185.722C122.337 185.525 122.675 184.765 122.369 184.029C122.063 183.292 120.749 181.813 120.003 182.031C119.251 182.228 119.348 184.054 119.669 184.763L119.675 184.784Z" fill="black"/>
<path d="M115.397 159.073C115.699 158.418 115.338 157.583 114.593 157.221C113.847 156.859 112.99 157.09 112.688 157.744C112.385 158.399 112.286 160.195 113.032 160.557C113.777 160.92 115.073 159.734 115.397 159.073Z" fill="black"/>
<path d="M123.303 167.24C124.055 167.044 124.393 166.285 124.087 165.549C123.781 164.813 122.925 164.394 122.18 164.612C121.428 164.808 120 165.873 120.3 166.588C120.606 167.324 122.551 167.437 123.303 167.24Z" fill="black"/>
<path d="M95.9644 165.573C95.2193 165.21 94.3618 165.441 94.0596 166.096C93.7574 166.751 94.1184 167.585 94.8635 167.948C95.6087 168.31 97.5455 168.612 97.8477 167.957C98.1499 167.302 96.7096 165.935 95.9577 165.552L95.9644 165.573Z" fill="black"/>
<path d="M101.199 157.862C100.893 157.125 100.036 156.706 99.2902 156.924C98.5378 157.121 98.1991 157.88 98.5056 158.617C98.812 159.354 100.126 160.832 100.871 160.614C101.624 160.418 101.527 158.592 101.206 157.883L101.199 157.862Z" fill="black"/>
<path d="M97.249 450.701C97.249 450.701 103.038 457.465 120.918 456.269C133.88 455.404 141.446 447.811 144.789 442.082C146.461 439.206 147.079 435.832 146.484 432.558C146.145 430.758 145.675 430.161 145.514 430.11C144.913 430.718 115.588 449.705 97.249 450.701Z" fill="#F78C1E"/>
<path d="M145.542 430.084C145.542 430.084 140.706 459.643 106.267 454.731C95.9843 453.264 84.1092 440.26 84.3552 422.784C84.4841 413.488 86.7788 410.05 86.7788 410.05L87.6532 410.357L144.437 429.7L145.565 430.085L145.542 430.084Z" fill="white"/>
<path d="M119.165 422.471C119.005 423.861 132.719 439.063 134.128 440.131C135.537 441.199 137.979 440.463 140.521 435.824C143.063 431.185 143.078 429.954 140.798 429.207C138.426 428.457 119.3 421.127 119.165 422.471Z" fill="#F99D22"/>
<path d="M117.757 427.287C117.757 427.287 116.72 424.022 117.224 423.526C117.728 423.031 119.624 425.649 124.323 430.869C129.022 436.088 134.482 441.518 134.218 443.277C133.721 446.517 127.696 449.417 125.095 449.264C122.494 449.111 123.132 448.039 121.796 443.183C120.459 438.326 117.734 427.287 117.734 427.287L117.757 427.287Z" fill="#F99D22"/>
<path d="M115.712 424.341C116.344 424.221 117.052 428.36 117.939 433.482C118.787 438.346 122.446 449.323 121.084 451.164C119.845 452.845 113.983 452.728 111.514 452.044C109.045 451.384 110.045 447.695 110.446 445.289C110.871 442.884 115.056 424.482 115.688 424.363L115.712 424.341Z" fill="#F99D22"/>
<path d="M105.169 431.961C105.169 431.961 113.303 422.64 114.519 423.19C114.955 423.39 112.884 430.812 111.882 434.547C110.881 438.282 107.995 450.166 106.52 450.445C104.085 450.925 100.119 449.031 97.7282 446.629C94.841 443.723 94.403 443.593 97.3018 440.197C100.201 436.802 105.169 431.961 105.169 431.961Z" fill="#F99D22"/>
<path d="M89.4488 426.716C90.9073 426.205 112.759 421.531 113.118 421.961C113.567 422.487 103.167 432.897 99.3134 436.331C95.4601 439.766 94.5397 441.666 92.5144 439.486C90.4891 437.305 86.6961 427.698 89.4488 426.716Z" fill="#F99D22"/>
<path d="M90.6989 412.151C92.2029 412.409 112.154 419.322 112.791 419.784C113.428 420.246 113.151 420.935 111.745 421.239C110.34 421.542 89.9484 426.424 88.6878 425.826C87.4271 425.228 87.6219 411.611 90.6989 412.151Z" fill="#F99D22"/>
<path d="M145.542 430.084C145.542 430.084 140.706 459.643 106.267 454.731C95.9843 453.264 84.1092 440.26 84.3552 422.784C84.4841 413.488 86.7788 410.05 86.7788 410.05L87.6532 410.357C86.9753 412.684 85.0702 420.016 85.853 426.947C87.0741 437.704 94.7384 449.225 102.259 451.999C102.259 451.999 111.889 454.98 118.795 453.62C132.606 450.899 139.997 444.438 144.437 429.7L145.565 430.085L145.542 430.084Z" fill="#F99D22"/>
<path d="M1476.89 701.626C1476.89 701.626 1483.26 709.064 1502.92 707.749C1517.18 706.798 1525.5 698.448 1529.17 692.149C1531.01 688.987 1531.69 685.276 1531.04 681.676C1530.66 679.696 1530.15 679.04 1529.97 678.983C1529.31 679.652 1497.06 700.532 1476.89 701.626Z" fill="#F78C1E"/>
<path d="M1530 678.955C1530 678.955 1524.68 711.46 1486.81 706.058C1475.5 704.445 1462.45 690.145 1462.72 670.927C1462.86 660.705 1465.38 656.925 1465.38 656.925L1466.34 657.262L1528.79 678.533L1530.03 678.956L1530 678.955Z" fill="white"/>
<path d="M1499.45 675.88C1499.45 675.88 1498.31 672.289 1498.86 671.744C1499.41 671.199 1501.5 674.079 1506.67 679.818C1511.83 685.558 1517.84 691.529 1517.55 693.463C1517 697.026 1510.38 700.215 1507.52 700.047C1504.66 699.879 1505.36 698.7 1503.89 693.359C1502.42 688.019 1499.42 675.879 1499.42 675.879L1499.45 675.88Z" fill="#F99D22"/>
<path d="M1497.2 672.64C1497.89 672.508 1498.67 677.06 1499.65 682.692C1500.58 688.041 1504.6 700.112 1503.11 702.136C1501.74 703.985 1495.3 703.856 1492.58 703.104C1489.87 702.378 1490.97 698.322 1491.41 695.676C1491.87 693.031 1496.48 672.796 1497.17 672.664L1497.2 672.64Z" fill="#F99D22"/>
<path d="M1485.6 681.019C1485.6 681.019 1494.55 670.769 1495.89 671.374C1496.36 671.594 1494.09 679.755 1492.99 683.863C1491.88 687.97 1488.71 701.038 1487.09 701.345C1484.41 701.873 1480.05 699.79 1477.42 697.149C1474.25 693.954 1473.77 693.81 1476.95 690.076C1480.14 686.342 1485.6 681.019 1485.6 681.019Z" fill="#F99D22"/>
<path d="M1468.32 675.251C1469.92 674.689 1493.95 669.55 1494.34 670.023C1494.84 670.601 1483.4 682.048 1479.16 685.825C1474.93 689.601 1473.92 691.691 1471.69 689.293C1469.46 686.895 1465.29 676.331 1468.32 675.251Z" fill="#F99D22"/>
<path d="M1469.69 659.235C1471.35 659.518 1493.29 667.121 1493.99 667.629C1494.69 668.137 1494.38 668.894 1492.84 669.228C1491.29 669.562 1468.87 674.931 1467.48 674.273C1466.09 673.615 1466.31 658.641 1469.69 659.235Z" fill="#F99D22"/>
<path d="M1530 678.955C1530 678.955 1524.68 711.46 1486.81 706.058C1475.5 704.445 1462.45 690.145 1462.72 670.927C1462.86 660.705 1465.38 656.925 1465.38 656.925L1466.34 657.262C1465.6 659.821 1463.5 667.884 1464.36 675.505C1465.71 687.334 1474.13 700.003 1482.4 703.054C1482.4 703.054 1492.99 706.332 1500.59 704.836C1515.77 701.844 1523.9 694.74 1528.79 678.533L1530.03 678.956L1530 678.955Z" fill="#F99D22"/>
<path d="M416.193 96.6435C418.905 94.6081 421.721 92.3158 426.3 93.699C426.097 89.2899 422.834 86.759 419.079 85.52C420.939 83.6985 422.748 81.521 426.422 81.9762C425.571 77.4499 420.267 76.555 416.384 77.0583C415.716 73.0589 413.346 68.074 408.921 68.5446C410.4 72.0294 408.927 74.4914 407.8 76.8487C405.576 73.4795 402.282 70.9654 398.14 72.0713C400.738 76.2084 399.463 79.6733 398.381 82.9345C395.517 81.4408 392.218 81.0468 389.132 83.1004C393.938 86.6212 392.441 91.3547 392.805 95.3148C393.126 98.8949 395.892 101.328 399.205 101.15C399.994 104.479 403.035 106.524 406.441 105.772C410.203 104.97 414.138 102.099 418.8 105.838C419.79 102.182 418.466 99.0586 416.248 96.6341L416.193 96.6435Z" fill="#8CC747"/>
<path d="M400.995 136.807C393.93 146.697 380.197 148.574 370.343 141.013C360.465 133.445 358.185 119.291 365.25 109.401C372.314 99.5102 386.264 84.3641 402.106 96.5105C417.286 108.143 408.06 126.916 400.995 136.807Z" fill="#FCAF17"/>
<path d="M392.83 134.621C392.618 134.452 392.377 134.379 392.107 134.402C390.381 134.638 388.757 133.389 388.469 131.629C388.372 131.076 387.882 130.693 387.335 130.763C386.813 130.84 386.455 131.333 386.529 131.878C386.988 134.736 389.615 136.759 392.41 136.376C392.933 136.299 393.29 135.806 393.217 135.261C393.168 134.985 393.026 134.759 392.813 134.59L392.83 134.621Z" fill="black"/>
<path d="M382.318 126.553C382.106 126.384 381.865 126.311 381.595 126.334C379.869 126.57 378.245 125.321 377.957 123.56C377.859 123.008 377.37 122.625 376.823 122.695C376.301 122.772 375.943 123.265 376.016 123.81C376.476 126.667 379.103 128.691 381.898 128.308C382.42 128.231 382.778 127.738 382.705 127.192C382.656 126.916 382.513 126.69 382.301 126.521L382.318 126.553Z" fill="black"/>
<path d="M371.819 118.461C371.607 118.293 371.366 118.22 371.096 118.243C369.37 118.478 367.746 117.229 367.458 115.469C367.36 114.917 366.871 114.533 366.324 114.603C365.802 114.68 365.444 115.173 365.517 115.718C365.977 118.576 368.604 120.599 371.399 120.216C371.922 120.139 372.279 119.646 372.206 119.101C372.157 118.825 372.014 118.599 371.802 118.43L371.819 118.461Z" fill="black"/>
<path d="M403.296 119.979C403.083 119.811 402.842 119.738 402.573 119.761C400.846 119.997 399.223 118.747 398.935 116.987C398.837 116.435 398.347 116.051 397.801 116.121C397.278 116.198 396.921 116.692 396.994 117.237C397.453 120.094 400.081 122.118 402.876 121.735C403.398 121.657 403.756 121.164 403.682 120.619C403.634 120.343 403.491 120.117 403.279 119.948L403.296 119.979Z" fill="black"/>
<path d="M392.762 111.905C392.549 111.736 392.308 111.663 392.039 111.686C390.312 111.922 388.689 110.673 388.401 108.912C388.303 108.36 387.813 107.977 387.267 108.047C386.744 108.124 386.387 108.617 386.46 109.162C386.919 112.019 389.547 114.043 392.342 113.66C392.864 113.583 393.222 113.09 393.148 112.545C393.1 112.268 392.957 112.042 392.745 111.873L392.762 111.905Z" fill="black"/>
<path d="M382.251 103.837C382.039 103.668 381.798 103.595 381.528 103.618C379.802 103.854 378.178 102.605 377.89 100.845C377.792 100.292 377.303 99.9088 376.756 99.9787C376.234 100.056 375.876 100.549 375.949 101.094C376.409 103.952 379.036 105.975 381.831 105.592C382.354 105.515 382.711 105.022 382.638 104.477C382.589 104.201 382.446 103.974 382.234 103.806L382.251 103.837Z" fill="black"/>
<path d="M393.444 123.681C393.232 123.512 392.991 123.439 392.721 123.462C391.898 123.579 391.047 123.348 390.362 122.827C389.677 122.306 389.222 121.541 389.083 120.688C388.985 120.136 388.496 119.753 387.949 119.822C387.427 119.9 387.069 120.393 387.143 120.938C387.362 122.311 388.095 123.552 389.205 124.411C390.314 125.269 391.678 125.63 393.017 125.46C393.539 125.382 393.897 124.889 393.824 124.344C393.775 124.068 393.632 123.842 393.42 123.673L393.444 123.681Z" fill="black"/>
<path d="M382.945 115.59C382.733 115.421 382.492 115.348 382.222 115.371C380.496 115.607 378.872 114.358 378.584 112.598C378.487 112.045 377.997 111.662 377.45 111.732C376.928 111.809 376.57 112.302 376.644 112.847C377.103 115.704 379.73 117.728 382.525 117.345C383.048 117.268 383.406 116.775 383.332 116.23C383.283 115.953 383.141 115.727 382.928 115.559L382.945 115.59Z" fill="black"/>
<path d="M398.73 105.961C398.517 105.792 398.276 105.719 398.007 105.742C397.484 105.819 397.127 106.312 397.2 106.857C397.42 108.231 398.152 109.472 399.262 110.33C400.372 111.189 401.736 111.549 403.075 111.379C403.597 111.302 403.955 110.809 403.881 110.264C403.784 109.711 403.294 109.328 402.747 109.398C401.924 109.515 401.073 109.284 400.388 108.763C399.703 108.242 399.248 107.477 399.109 106.624C399.06 106.348 398.918 106.122 398.706 105.953L398.73 105.961Z" fill="black"/>
<path d="M392.994 101.533C392.782 101.364 392.541 101.291 392.271 101.314C390.545 101.55 388.921 100.3 388.633 98.5403C388.536 97.988 388.046 97.6046 387.499 97.6745C386.977 97.7517 386.619 98.2447 386.693 98.7897C387.152 101.647 389.779 103.671 392.574 103.288C393.097 103.21 393.454 102.717 393.381 102.172C393.332 101.896 393.19 101.67 392.977 101.501L392.994 101.533Z" fill="black"/>
<path d="M383.636 137.443C383.424 137.275 383.183 137.202 382.913 137.225C382.09 137.341 381.239 137.11 380.554 136.589C379.869 136.068 379.414 135.303 379.275 134.451C379.177 133.899 378.688 133.515 378.141 133.585C377.619 133.662 377.261 134.155 377.335 134.7C377.554 136.074 378.287 137.315 379.397 138.174C380.506 139.032 381.87 139.392 383.209 139.222C383.732 139.145 384.089 138.652 384.016 138.107C383.967 137.831 383.824 137.605 383.612 137.436L383.636 137.443Z" fill="black"/>
<path d="M373.131 129.376C372.918 129.208 372.677 129.135 372.408 129.158C370.681 129.393 369.058 128.144 368.77 126.384C368.672 125.832 368.182 125.448 367.636 125.518C367.113 125.595 366.756 126.089 366.829 126.634C367.288 129.491 369.915 131.514 372.711 131.131C373.233 131.054 373.591 130.561 373.517 130.016C373.469 129.74 373.326 129.514 373.114 129.345L373.131 129.376Z" fill="black"/>
<path d="M1347.24 757.319C1346.35 753.551 1345.23 749.557 1348.75 745.415C1344.05 743.597 1339.93 745.837 1336.93 749.185C1335.87 746.406 1334.42 743.515 1336.56 739.89C1331.44 738.695 1328.1 743.818 1326.87 748.102C1322.39 746.957 1316.1 747.136 1314.59 751.97C1318.9 752.031 1320.8 754.703 1322.76 756.964C1318.23 757.733 1314.11 760.013 1313.38 764.845C1318.88 764.039 1321.93 766.965 1324.84 769.596C1321.98 771.897 1320.07 775.158 1320.82 779.324C1326.68 775.929 1330.95 779.671 1335.25 781.114C1339.13 782.429 1342.93 780.662 1344.25 777.123C1348.08 777.832 1351.6 775.6 1352.36 771.699C1353.23 767.404 1352.01 761.975 1358.03 758.832C1354.66 756.115 1350.8 756.059 1347.26 757.257L1347.24 757.319Z" fill="#8CC747"/>
<path d="M1382.21 791.581C1389.34 803.503 1385.07 818.695 1372.7 825.495C1360.32 832.317 1344.5 828.18 1337.38 816.257C1330.25 804.335 1320.75 782.81 1340.62 771.874C1359.66 761.391 1375.08 779.658 1382.21 791.581Z" fill="#FCAF17"/>
<path d="M1376.23 799.036C1375.96 799.18 1375.78 799.398 1375.68 799.69C1375.14 801.602 1373.1 802.721 1371.13 802.208C1370.51 802.055 1369.88 802.389 1369.71 802.992C1369.55 803.574 1369.91 804.175 1370.51 804.35C1373.71 805.192 1377.02 803.383 1377.88 800.286C1378.04 799.704 1377.68 799.103 1377.08 798.928C1376.77 798.851 1376.47 798.895 1376.19 799.039L1376.23 799.036Z" fill="black"/>
<path d="M1363.01 806.325C1362.73 806.469 1362.55 806.687 1362.45 806.979C1361.91 808.892 1359.87 810.01 1357.9 809.498C1357.28 809.344 1356.65 809.679 1356.48 810.282C1356.32 810.863 1356.68 811.465 1357.28 811.64C1360.48 812.481 1363.79 810.672 1364.65 807.575C1364.81 806.994 1364.45 806.392 1363.85 806.217C1363.54 806.14 1363.24 806.185 1362.96 806.329L1363.01 806.325Z" fill="black"/>
<path d="M1349.76 813.59C1349.49 813.734 1349.3 813.952 1349.2 814.244C1348.67 816.156 1346.63 817.275 1344.65 816.762C1344.03 816.609 1343.41 816.943 1343.23 817.546C1343.08 818.128 1343.43 818.729 1344.04 818.905C1347.23 819.746 1350.54 817.937 1351.4 814.84C1351.56 814.258 1351.21 813.657 1350.6 813.482C1350.29 813.405 1349.99 813.449 1349.72 813.593L1349.76 813.59Z" fill="black"/>
<path d="M1365.73 781.418C1365.46 781.561 1365.27 781.779 1365.17 782.072C1364.64 783.984 1362.59 785.103 1360.62 784.59C1360 784.437 1359.38 784.771 1359.2 785.374C1359.05 785.956 1359.4 786.557 1360.01 786.732C1363.2 787.573 1366.51 785.764 1367.37 782.668C1367.53 782.086 1367.18 781.485 1366.57 781.309C1366.26 781.233 1365.96 781.277 1365.69 781.421L1365.73 781.418Z" fill="black"/>
<path d="M1352.48 788.726C1352.21 788.87 1352.02 789.088 1351.93 789.38C1351.39 791.293 1349.35 792.411 1347.38 791.899C1346.76 791.745 1346.13 792.079 1345.96 792.683C1345.8 793.264 1346.16 793.866 1346.76 794.041C1349.96 794.882 1353.26 793.073 1354.13 789.976C1354.28 789.395 1353.93 788.793 1353.33 788.618C1353.02 788.541 1352.72 788.586 1352.44 788.729L1352.48 788.726Z" fill="black"/>
<path d="M1339.26 796.014C1338.98 796.158 1338.8 796.376 1338.7 796.668C1338.16 798.581 1336.12 799.699 1334.15 799.187C1333.53 799.033 1332.9 799.368 1332.73 799.971C1332.57 800.552 1332.93 801.154 1333.53 801.329C1336.73 802.17 1340.04 800.361 1340.9 797.264C1341.06 796.683 1340.7 796.081 1340.1 795.906C1339.79 795.829 1339.49 795.874 1339.22 796.018L1339.26 796.014Z" fill="black"/>
<path d="M1365.09 793.395C1364.82 793.539 1364.63 793.757 1364.53 794.049C1364.28 794.963 1363.66 795.745 1362.8 796.22C1361.95 796.695 1360.94 796.816 1359.99 796.567C1359.36 796.414 1358.74 796.748 1358.57 797.352C1358.41 797.933 1358.76 798.535 1359.37 798.71C1360.9 799.115 1362.53 798.924 1363.94 798.161C1365.34 797.399 1366.33 796.141 1366.76 794.664C1366.91 794.082 1366.56 793.481 1365.96 793.306C1365.65 793.229 1365.35 793.273 1365.07 793.417L1365.09 793.395Z" fill="black"/>
<path d="M1351.84 800.66C1351.57 800.804 1351.39 801.022 1351.29 801.314C1350.75 803.227 1348.71 804.345 1346.74 803.833C1346.12 803.679 1345.49 804.014 1345.32 804.617C1345.16 805.198 1345.52 805.8 1346.12 805.975C1349.32 806.816 1352.63 805.007 1353.49 801.91C1353.65 801.329 1353.29 800.727 1352.69 800.552C1352.38 800.475 1352.08 800.52 1351.8 800.664L1351.84 800.66Z" fill="black"/>
<path d="M1349.02 779.761C1348.74 779.905 1348.56 780.123 1348.46 780.415C1348.3 780.997 1348.66 781.598 1349.26 781.773C1350.8 782.179 1352.43 781.987 1353.83 781.225C1355.23 780.462 1356.22 779.204 1356.65 777.727C1356.81 777.146 1356.45 776.544 1355.85 776.369C1355.23 776.216 1354.61 776.55 1354.43 777.153C1354.18 778.067 1353.55 778.849 1352.7 779.324C1351.84 779.799 1350.84 779.92 1349.88 779.671C1349.57 779.595 1349.27 779.639 1349 779.783L1349.02 779.761Z" fill="black"/>
<path d="M1341.76 783.744C1341.49 783.888 1341.3 784.106 1341.2 784.398C1340.67 786.31 1338.63 787.429 1336.65 786.916C1336.03 786.763 1335.41 787.097 1335.23 787.7C1335.08 788.282 1335.43 788.883 1336.04 789.058C1339.23 789.9 1342.54 788.091 1343.41 784.994C1343.56 784.412 1343.21 783.811 1342.6 783.635C1342.29 783.559 1341.99 783.603 1341.72 783.747L1341.76 783.744Z" fill="black"/>
<path d="M1374.98 809.925C1374.71 810.069 1374.52 810.287 1374.42 810.58C1374.17 811.494 1373.55 812.275 1372.69 812.75C1371.83 813.225 1370.83 813.346 1369.87 813.098C1369.25 812.944 1368.63 813.279 1368.45 813.882C1368.3 814.463 1368.65 815.065 1369.26 815.24C1370.79 815.645 1372.42 815.454 1373.82 814.691C1375.22 813.929 1376.22 812.671 1376.65 811.194C1376.8 810.613 1376.45 810.011 1375.85 809.836C1375.53 809.759 1375.23 809.804 1374.96 809.947L1374.98 809.925Z" fill="black"/>
<path d="M1361.76 817.209C1361.48 817.352 1361.3 817.57 1361.2 817.863C1360.66 819.775 1358.62 820.894 1356.65 820.381C1356.03 820.228 1355.4 820.562 1355.23 821.165C1355.07 821.747 1355.43 822.348 1356.03 822.523C1359.23 823.365 1362.54 821.555 1363.4 818.459C1363.56 817.877 1363.2 817.276 1362.6 817.1C1362.29 817.024 1361.99 817.068 1361.71 817.212L1361.76 817.209Z" fill="black"/>
<path d="M36.3698 686.753C35.3537 687.669 34.3074 688.473 33.2818 689.175C31.458 690.404 29.6273 691.301 27.816 691.948C27.816 691.948 27.8017 691.966 27.769 691.97C27.6422 692.018 27.4971 692.052 27.3704 692.1C27.3704 692.1 27.356 692.118 27.3233 692.122C26.3666 692.435 25.402 692.682 24.4439 692.846C17.9592 694.049 4.08297 689.65 -2.462 684.743C-2.51696 684.7 -2.57191 684.657 -2.62687 684.613C-2.62687 684.613 -2.64517 684.599 -2.66349 684.585C-3.5245 683.908 -4.44044 683.188 -5.33164 682.399C-6.27385 681.6 -7.20964 680.716 -8.13499 679.782C-8.38106 679.53 -8.64549 679.263 -8.89156 679.01C-10.1625 677.686 -11.3839 676.224 -12.5008 674.666C-15.3357 670.694 -17.4797 665.993 -17.9733 660.548C-18.3453 656.382 -17.3263 652.067 -15.5839 648.114C-15.4666 647.851 -15.3348 647.57 -15.2174 647.308C-15.0961 647.078 -15.0075 646.852 -14.8861 646.622C-14.6722 646.198 -14.4583 645.775 -14.226 645.366C-13.8437 644.691 -13.4757 644.034 -13.0711 643.406C-13.0568 643.387 -13.028 643.351 -13.0136 643.332C-12.2475 642.131 -11.4409 640.99 -10.6079 639.93C-8.43937 637.169 -6.07923 635.032 -4.01878 633.842C-1.4161 632.339 0.874581 631.27 3.08849 630.526C4.05952 630.195 5.0385 629.929 6.0214 629.697C7.82777 629.283 9.6539 629.032 11.6083 628.882C11.8227 628.874 12.0188 628.85 12.2332 628.841C12.8581 628.8 13.5236 628.82 14.2113 628.888C15.0155 628.958 15.8601 629.089 16.7088 629.254C18.5082 629.603 20.3496 630.163 21.9217 630.689C22.5089 630.884 23.0635 631.083 23.5487 631.258C23.9136 631.396 24.2603 631.521 24.5742 631.649C25.6689 632.066 26.3517 632.366 26.3517 632.366C26.3517 632.366 26.4537 632.387 26.6289 632.466C26.8042 632.544 27.0632 632.63 27.3955 632.772C27.4831 632.812 27.5706 632.851 27.6766 632.905C27.9212 633.008 28.2025 633.14 28.502 633.287C28.5387 633.316 28.557 633.33 28.608 633.341C29.4374 633.756 30.446 634.282 31.5907 634.975C31.9675 635.212 32.3625 635.463 32.776 635.729C33.2993 636.081 33.8593 636.462 34.4089 636.894C34.6287 637.067 34.8668 637.254 35.0867 637.427C35.2149 637.527 35.3431 637.628 35.4714 637.729C36.424 638.477 37.3925 639.357 38.3871 640.316C38.4421 640.359 38.5154 640.417 38.556 640.478C40.781 642.7 43.0222 645.466 44.9753 648.864C45.5189 649.794 45.9828 650.75 46.3813 651.713C46.4259 651.808 46.4704 651.902 46.5006 652.014C46.5452 652.108 46.5897 652.203 46.6199 652.315C46.6461 652.395 46.6684 652.442 46.6947 652.522C46.7209 652.601 46.7431 652.648 46.7693 652.728C46.7956 652.808 46.8218 652.888 46.8624 652.949C46.8847 652.996 46.907 653.043 46.911 653.076C46.9333 653.123 46.9555 653.17 46.9634 653.236C46.9897 653.315 47.0119 653.362 47.0382 653.442L47.0565 653.457C47.0827 653.536 47.1089 653.616 47.1169 653.681C47.1431 653.761 47.1693 653.841 47.1956 653.921C47.1956 653.921 47.2178 653.968 47.2035 653.986C47.2218 654 47.2114 654.051 47.2481 654.08C47.256 654.145 47.2966 654.207 47.3045 654.272C47.3268 654.319 47.3307 654.352 47.353 654.399C47.4134 654.624 47.4738 654.849 47.5342 655.074C47.8138 656.151 48.0242 657.203 48.1548 658.282C48.23 658.903 48.3052 659.524 48.3333 660.167C48.3413 660.232 48.3308 660.283 48.3387 660.349C48.3734 660.908 48.3753 661.471 48.3772 662.035C48.3683 662.235 48.3777 662.449 48.3687 662.649C48.3588 663.114 48.3306 663.565 48.3023 664.016C48.2185 665.104 48.0693 666.199 47.8652 667.251C47.1008 671.204 45.553 674.985 43.5315 678.276C43.1987 678.812 42.8476 679.335 42.4965 679.857C42.4534 679.912 42.4248 679.949 42.3817 680.004C40.4458 682.77 38.461 684.995 36.4575 686.792L36.3698 686.753Z" fill="#F99D22"/>
<path d="M25.7673 636.933C25.7673 636.933 23.8446 634.742 23.5574 635.108C23.2845 635.455 24.6053 637.055 24.0433 637.204C23.4997 637.369 20.7623 636.252 20.4737 636.469C20.1667 636.671 23.1357 638.058 23.4842 638.746C23.8144 639.419 21.1512 640.283 21.2784 640.649C21.5828 641.657 24.3962 639.433 25.222 640.23C26.0477 641.027 25.0434 643.135 25.4266 643.288C25.9667 643.506 26.9359 640.424 26.9359 640.424C26.9359 640.424 28.6012 642.678 28.9998 642.548C29.3984 642.418 28.1351 639.651 28.1351 639.651C28.1351 639.651 30.4908 639.669 30.4691 638.943C30.4474 638.216 27.5808 638.358 27.6169 637.973C27.6348 637.573 27.5747 635.16 26.9513 635.35C26.328 635.54 25.7214 636.69 25.7426 637.002L25.7673 636.933Z" fill="#8CC747"/>
<path d="M965.839 128.134C965.405 124.563 965.153 121.724 964.626 118.909C964.535 118.382 963.367 117.879 962.635 117.741C962.314 117.695 961.536 118.565 961.467 119.092C961.261 120.854 961.307 122.64 961.215 124.403C961.147 125.685 960.964 126.966 960.826 128.5C958.606 129.095 956.545 129.622 953.684 130.377C954.92 131.293 955.447 131.911 956.133 132.14C957.576 132.644 959.064 132.964 960.597 133.376C961.627 136.077 961.215 138.779 961.604 141.365C961.971 143.86 961.627 146.607 963.504 148.942C964.878 146.287 964.855 146.287 964.992 141.434C965.061 139.03 965.244 136.627 965.382 133.971C968.106 133.674 970.509 133.513 972.821 133.056C973.417 132.941 974.012 131.888 974.195 131.179C974.286 130.835 973.577 129.919 973.096 129.782C970.761 129.141 968.38 128.683 965.839 128.111V128.134Z" fill="white"/>
<path d="M936.54 104.006C934.663 104.098 933.014 105.769 933.22 107.394C933.472 109.477 935.281 111.103 937.249 111.034C938.966 110.965 940.569 109.248 940.546 107.532C940.5 105.517 938.669 103.892 936.54 104.006Z" fill="white"/>
</g>
<defs>
<linearGradient id="paint0_linear_70_10" x1="750" y1="0" x2="750" y2="921" gradientUnits="userSpaceOnUse">
<stop offset="0.221154" stop-color="#FFE982"/>
<stop offset="1" stop-color="#FFD200"/>
</linearGradient>
<clipPath id="clip0_70_10">
<rect width="1500" height="1827" fill="white"/>
</clipPath>
<clipPath id="clip1_70_10">
<rect width="1500" height="921" fill="white" transform="translate(0.202904 906)"/>
</clipPath>
</defs>
</svg>
