<svg width="96" height="70" viewBox="0 0 96 70" fill="none" xmlns="http://www.w3.org/2000/svg">
<path d="M52.2626 35.2095C52.5192 36.0756 52.7003 36.928 52.8264 37.739C53.0385 39.1755 53.0515 40.5224 52.9205 41.7867C52.9205 41.7867 52.9273 41.8004 52.9203 41.821C52.9129 41.9103 52.8917 42.0065 52.8843 42.0958C52.8843 42.0958 52.8911 42.1096 52.8842 42.1302C52.7978 42.7898 52.6703 43.4356 52.4948 44.0539C51.3629 48.2649 44.7853 55.3001 39.995 57.816C39.9536 57.8366 39.9122 57.8571 39.8708 57.8777C39.8708 57.8777 39.857 57.8845 39.8432 57.8914C39.1945 58.2135 38.5043 58.5562 37.78 58.8645C37.0348 59.2003 36.2417 59.5086 35.4211 59.7962C35.2005 59.8715 34.966 59.9537 34.7453 60.029C33.5939 60.4123 32.374 60.7269 31.1271 60.9521C27.9513 61.5184 24.5382 61.466 21.1525 60.2179C18.5634 59.2594 16.2821 57.4286 14.4225 55.2685C14.2994 55.124 14.1696 54.9658 14.0465 54.8213C13.944 54.6837 13.8346 54.5668 13.7321 54.4292C13.5408 54.1816 13.3495 53.934 13.1721 53.6795C12.8785 53.26 12.5918 52.8542 12.3327 52.4347C12.3259 52.4209 12.3122 52.3934 12.3054 52.3796C11.8076 51.5818 11.3579 50.7773 10.9633 49.9797C9.93584 47.9031 9.33477 45.8889 9.21288 44.3219C9.05892 42.3427 9.07523 40.6728 9.26283 39.1406C9.34234 38.4673 9.4631 37.8077 9.60443 37.1551C9.8727 35.9597 10.244 34.7989 10.7119 33.59C10.7677 33.4595 10.8097 33.3359 10.8655 33.2054C11.0191 32.8208 11.2209 32.4293 11.4571 32.0379C11.7281 31.5779 12.0473 31.111 12.3871 30.651C13.1083 29.6761 13.967 28.7358 14.7285 27.9465C15.0123 27.6513 15.2891 27.3768 15.5314 27.1366C15.7182 26.9582 15.8912 26.7866 16.0572 26.6356C16.6177 26.1003 16.9911 25.7779 16.9911 25.7779C16.9911 25.7779 17.0328 25.7229 17.1296 25.6406C17.2264 25.5583 17.351 25.4278 17.5308 25.27C17.5792 25.2288 17.6276 25.1877 17.6898 25.1397C17.8212 25.023 17.9803 24.8926 18.1531 24.7554C18.1807 24.7417 18.1945 24.7348 18.2153 24.7074C18.6992 24.33 19.3005 23.8773 20.0396 23.3903C20.2882 23.2326 20.5507 23.068 20.8269 22.8965C21.186 22.684 21.5727 22.4577 21.9867 22.2521C22.1524 22.1698 22.3318 22.0807 22.4974 21.9985C22.5941 21.9505 22.6907 21.9025 22.7873 21.8545C23.505 21.4981 24.3052 21.1692 25.1604 20.8473C25.2018 20.8268 25.257 20.7994 25.3052 20.7926C27.2636 20.0941 29.5515 19.5404 32.1334 19.3375C32.8426 19.2766 33.5446 19.2705 34.2326 19.3058C34.3014 19.3059 34.3702 19.306 34.4458 19.3198C34.5146 19.3199 34.5834 19.32 34.6591 19.3338C34.7141 19.3408 34.7485 19.3408 34.8035 19.3477C34.8585 19.3547 34.893 19.3548 34.948 19.3617C35.003 19.3687 35.058 19.3756 35.1062 19.3688C35.1406 19.3688 35.175 19.3688 35.1956 19.3757C35.23 19.3758 35.2645 19.3759 35.3057 19.3897C35.3607 19.3966 35.3951 19.3966 35.4501 19.4036L35.4639 19.3967C35.5189 19.4037 35.5739 19.4106 35.6152 19.4244C35.6702 19.4313 35.7252 19.4383 35.7802 19.4452C35.7802 19.4452 35.8146 19.4453 35.8214 19.459C35.8352 19.4522 35.8626 19.4728 35.8902 19.4591C35.9314 19.4729 35.9796 19.466 36.0208 19.4798C36.0553 19.4799 36.0759 19.4868 36.1103 19.4869C36.2616 19.5145 36.4128 19.5422 36.564 19.5699C37.2859 19.7082 37.9731 19.8809 38.6531 20.1085C39.0446 20.2396 39.4361 20.3707 39.8275 20.5361C39.8687 20.5499 39.8961 20.5706 39.9373 20.5843C40.2806 20.7222 40.617 20.8807 40.9533 21.0392C41.0699 21.1012 41.2004 21.1563 41.317 21.2183C41.5915 21.3561 41.8522 21.5007 42.1129 21.6454C42.7371 22.0035 43.3473 22.4029 43.9162 22.8228C46.0544 24.3991 47.8668 26.3943 49.2517 28.5332C49.4769 28.8839 49.6882 29.2415 49.8995 29.5991C49.9199 29.6404 49.9335 29.6678 49.9539 29.7091C51.0509 31.6483 51.8114 33.4634 52.311 35.1683L52.2626 35.2095Z" fill="#F99D22"/>
<path d="M19.529 27.4054C19.529 27.4054 17.6752 27.932 17.8113 28.207C17.9405 28.4682 19.2703 28.1333 19.1994 28.5111C19.1422 28.882 17.6968 30.1992 17.7436 30.4329C17.7767 30.6734 19.4495 29.2946 19.9587 29.2815C20.4542 29.2752 20.2098 31.1092 20.4643 31.137C21.1517 31.2409 20.6281 28.9319 21.3383 28.6649C22.0485 28.3978 23.0188 29.5945 23.2194 29.4093C23.5029 29.1486 21.9424 27.697 21.9424 27.697C21.9424 27.697 23.7608 27.3421 23.7968 27.0673C23.8327 26.7925 21.8238 26.7625 21.8238 26.7625C21.8238 26.7625 22.506 25.3619 22.0668 25.169C21.6275 24.9761 20.8952 26.727 20.6758 26.5962C20.4425 26.4722 18.9875 25.8246 18.9232 26.2504C18.8589 26.6763 19.371 27.364 19.5632 27.4398L19.529 27.4054Z" fill="#8CC747"/>
<path d="M63.435 11.7741C65.4441 11.2178 67.0997 12.1124 67.6654 14.0586C68.631 17.3574 65.8149 22.4251 62.464 23.3813C60.1798 24.0399 57.8144 22.2794 57.6471 19.8021C57.4202 16.8001 60.4679 12.594 63.4302 11.7586L63.435 11.7741ZM64.326 13.6701C61.7 13.9936 59.3807 17.8546 60.1125 20.1735C60.3034 20.7932 61.2837 21.3205 61.8744 21.137C64.1287 20.4366 66.0736 16.9636 65.3669 14.6708C65.2237 14.206 64.5735 13.6441 64.326 13.6701Z" fill="white"/>
<path d="M75.693 32.9853C76.0361 35.4251 74.3738 38.0465 72.0908 38.6539C70.4392 39.0991 69.2116 38.1564 69.1707 36.4206C69.1097 34.0119 70.0542 32.1568 72.2609 31.0808C73.994 30.2368 75.4249 31.0655 75.6882 32.9698L75.693 32.9853ZM73.1936 33.3883C72.1116 33.0284 71.572 33.6544 71.1077 34.3589C70.6649 35.0227 70.8823 35.3965 72.0395 36.0556C72.8841 35.3688 73.4895 34.5695 73.1936 33.3883Z" fill="white"/>
<path d="M81.9769 23.6663C81.6898 21.4637 83.2287 19.271 85.4005 18.8001C86.502 18.5597 87.6065 19.2691 87.8475 20.3826C88.2947 22.5524 86.7664 25.1661 84.6459 25.8588C83.3913 26.2656 82.1853 25.2822 81.9769 23.6663ZM85.4029 21.0741C84.2359 21.0462 83.7871 21.7458 83.4494 22.5298C83.3836 22.703 83.448 23.0225 83.589 23.1484C83.7348 23.2899 84.1019 23.4305 84.243 23.3357C85.0732 22.8232 85.7312 22.1944 85.4137 21.0538L85.4029 21.0741Z" fill="white"/>
</svg>
