<svg width="320" height="1245" viewBox="0 0 320 1245" fill="none" xmlns="http://www.w3.org/2000/svg">
<g clip-path="url(#clip0_70_2058)">
<g clip-path="url(#clip1_70_2058)">
<rect width="320" height="700" transform="translate(0 535)" fill="url(#paint0_linear_70_2058)"/>
<rect width="320" height="700" transform="translate(0 535)" fill="#FDCA32"/>
<path d="M91.1733 1178.17C90.696 1178.63 90.2026 1179.03 89.7179 1179.38C88.8557 1180 87.9857 1180.46 87.1217 1180.8C87.1217 1180.8 87.1151 1180.81 87.0994 1180.81C87.0389 1180.83 86.9695 1180.85 86.9091 1180.88C86.9091 1180.88 86.9024 1180.89 86.8867 1180.89C86.43 1181.05 85.9686 1181.19 85.5092 1181.28C82.4012 1181.95 75.6575 1180.03 72.439 1177.76C72.4119 1177.74 72.3849 1177.72 72.3578 1177.7C72.3578 1177.7 72.3488 1177.69 72.3398 1177.69C71.916 1177.37 71.4651 1177.04 71.0252 1176.67C70.5606 1176.3 70.098 1175.89 69.6398 1175.45C69.5178 1175.33 69.3869 1175.21 69.265 1175.09C68.635 1174.47 68.0271 1173.78 67.4682 1173.05C66.0495 1171.17 64.9539 1168.94 64.6434 1166.32C64.4086 1164.32 64.8419 1162.23 65.6286 1160.3C65.6816 1160.17 65.7413 1160.03 65.7944 1159.9C65.8498 1159.79 65.8895 1159.68 65.9448 1159.57C66.0423 1159.36 66.1397 1159.15 66.2461 1158.95C66.4213 1158.62 66.5898 1158.3 66.7763 1157.99C66.783 1157.98 66.7964 1157.96 66.803 1157.95C67.1561 1157.36 67.5295 1156.8 67.9166 1156.28C68.9245 1154.92 70.0329 1153.85 71.0097 1153.25C72.2435 1152.49 73.3328 1151.94 74.3894 1151.55C74.8528 1151.38 75.3209 1151.24 75.7913 1151.11C76.656 1150.88 77.5324 1150.74 78.472 1150.64C78.5751 1150.63 78.6693 1150.62 78.7725 1150.61C79.073 1150.58 79.3938 1150.58 79.7261 1150.6C80.1144 1150.62 80.5231 1150.68 80.9341 1150.74C81.8056 1150.89 82.7002 1151.13 83.4646 1151.36C83.7501 1151.45 84.0199 1151.53 84.256 1151.61C84.4337 1151.67 84.6023 1151.73 84.7553 1151.78C85.2882 1151.97 85.6212 1152.1 85.6212 1152.1C85.6212 1152.1 85.6706 1152.11 85.7561 1152.15C85.8416 1152.18 85.9675 1152.22 86.1294 1152.29C86.1722 1152.3 86.2149 1152.32 86.2666 1152.35C86.3859 1152.39 86.5231 1152.45 86.6694 1152.52C86.6874 1152.53 86.6965 1152.54 86.7212 1152.54C87.1263 1152.73 87.6192 1152.97 88.1799 1153.29C88.3646 1153.4 88.5583 1153.51 88.761 1153.63C89.0178 1153.8 89.2927 1153.97 89.5632 1154.17C89.6714 1154.25 89.7886 1154.34 89.8968 1154.42C89.96 1154.46 90.0231 1154.51 90.0862 1154.56C90.5551 1154.91 91.0334 1155.32 91.5254 1155.76C91.5525 1155.78 91.5885 1155.81 91.6089 1155.84C92.7105 1156.88 93.8271 1158.18 94.8134 1159.79C95.0877 1160.23 95.3239 1160.68 95.5288 1161.14C95.5515 1161.19 95.5742 1161.23 95.5902 1161.28C95.613 1161.33 95.6357 1161.37 95.6517 1161.43C95.6654 1161.47 95.6768 1161.49 95.6905 1161.53C95.7042 1161.56 95.7155 1161.59 95.7292 1161.62C95.7429 1161.66 95.7566 1161.7 95.777 1161.73C95.7884 1161.75 95.7998 1161.77 95.8021 1161.79C95.8135 1161.81 95.8248 1161.83 95.8295 1161.87C95.8432 1161.9 95.8546 1161.93 95.8683 1161.96L95.8773 1161.97C95.891 1162.01 95.9047 1162.05 95.9094 1162.08C95.9231 1162.12 95.9368 1162.15 95.9505 1162.19C95.9505 1162.19 95.9619 1162.22 95.9552 1162.22C95.9642 1162.23 95.9599 1162.26 95.9779 1162.27C95.9826 1162.3 96.003 1162.33 96.0077 1162.36C96.019 1162.38 96.0214 1162.4 96.0327 1162.42C96.0648 1162.53 96.0969 1162.64 96.129 1162.74C96.2781 1163.26 96.3935 1163.76 96.4708 1164.28C96.5153 1164.58 96.5598 1164.88 96.582 1165.19C96.5867 1165.22 96.5823 1165.24 96.587 1165.27C96.6111 1165.54 96.6196 1165.81 96.6281 1166.09C96.6264 1166.18 96.6338 1166.29 96.6322 1166.38C96.6336 1166.61 96.626 1166.82 96.6184 1167.04C96.5925 1167.57 96.5353 1168.1 96.451 1168.61C96.1355 1170.52 95.4403 1172.37 94.5103 1173.98C94.3572 1174.25 94.195 1174.5 94.0328 1174.76C94.0128 1174.79 93.9995 1174.8 93.9794 1174.83C93.0838 1176.19 92.1573 1177.29 91.216 1178.19L91.1733 1178.17Z" fill="#F99D22"/>
<path d="M85.3901 1154.32C85.3901 1154.32 84.4345 1153.29 84.301 1153.47C84.1742 1153.64 84.8319 1154.4 84.5631 1154.48C84.3034 1154.56 82.9696 1154.06 82.8334 1154.17C82.6882 1154.27 84.1372 1154.9 84.3143 1155.23C84.4824 1155.55 83.2108 1156 83.2769 1156.18C83.4371 1156.66 84.7629 1155.55 85.1714 1155.92C85.5799 1156.29 85.1241 1157.32 85.3108 1157.39C85.5739 1157.49 85.9998 1155.99 85.9998 1155.99C85.9998 1155.99 86.8322 1157.05 87.0225 1156.98C87.2128 1156.91 86.5672 1155.6 86.5672 1155.6C86.5672 1155.6 87.7025 1155.57 87.6823 1155.22C87.6621 1154.87 86.2829 1154.98 86.2952 1154.8C86.2984 1154.6 86.2373 1153.44 85.9395 1153.54C85.6417 1153.64 85.3647 1154.2 85.3791 1154.35L85.3901 1154.32Z" fill="#8CC747"/>
<path d="M59.1541 1136.8C61.9043 1136.93 63.8798 1137.88 65.9129 1138.59C67.9103 1139.29 69.7638 1140.42 71.7182 1141.04C72.3424 1140.28 71.8631 1139.9 71.5555 1139.64C68.3719 1136.95 64.7073 1135.09 60.7985 1133.74C60.1256 1133.51 59.3808 1133.41 58.6503 1133.38C56.8741 1133.3 55.6264 1134.35 55.5164 1136.18C55.4432 1137.36 55.7424 1138.57 55.798 1139.76C55.8327 1140.55 55.7242 1141.34 55.6873 1142.16C54.1541 1142.46 53.0878 1141.75 51.9566 1141.46C50.317 1141.04 48.7134 1140.45 47.0593 1140.18C44.4384 1139.77 42.8469 1140.85 42.3562 1143.49C42.1036 1144.88 42.1373 1146.39 42.3717 1147.79C42.6346 1149.33 43.2987 1150.8 43.8052 1152.29C43.8837 1152.51 44.0266 1152.73 44.1839 1152.9C44.6059 1153.35 45.1497 1153.76 45.7518 1153.43C46.1174 1153.23 46.5048 1152.71 46.5268 1152.32C46.6006 1150.75 46.5168 1149.18 46.519 1147.6C46.5132 1146.66 46.5646 1145.72 46.5877 1144.58C47.3611 1144.66 47.9628 1144.61 48.5069 1144.77C49.674 1145.1 50.7978 1145.56 51.9504 1145.94C52.7594 1146.2 53.5613 1146.48 54.3991 1146.61C58.1943 1147.19 60.1953 1145.25 59.7995 1141.43C59.7288 1140.72 59.5364 1140.01 59.43 1139.29C59.3307 1138.59 59.2529 1137.9 59.1183 1136.8L59.1541 1136.8Z" fill="white"/>
<path d="M222.222 1209.02C297.037 1209.02 320 1194 320 1194V1244.79H0V1202.94C0 1202.94 43.9744 1197.76 69.1005 1197.76C135.344 1197.76 179.201 1209.02 222.222 1209.02Z" fill="#5C0F8B"/>
<path d="M-1.25006 886.137C-1.25006 886.137 2.8418 890.951 15.532 890.138C24.731 889.549 30.118 884.173 32.5042 880.113C33.6976 878.074 34.144 875.679 33.7295 873.354C33.4934 872.074 33.1615 871.65 33.0472 871.613C32.6195 872.044 11.7653 885.467 -1.25006 886.137Z" fill="#F78C1E"/>
<path d="M33.0638 871.597C33.0638 871.597 29.5616 892.573 5.13725 889.017C-2.15553 887.955 -10.5503 878.699 -10.3338 866.292C-10.22 859.693 -8.58358 857.257 -8.58358 857.257L-7.96389 857.476L32.281 871.322L33.0803 871.598L33.0638 871.597Z" fill="white"/>
<path d="M14.3676 866.143C14.2508 867.13 23.9448 877.949 24.9419 878.71C25.939 879.471 27.6738 878.954 29.4884 875.666C31.3031 872.377 31.3169 871.503 29.7012 870.968C28.0195 870.431 14.4668 865.189 14.3676 866.143Z" fill="#F99D22"/>
<path d="M13.3579 869.559C13.3579 869.559 12.6296 867.239 12.9885 866.888C13.3473 866.537 14.6858 868.4 18.007 872.114C21.3282 875.828 25.1889 879.693 24.997 880.941C24.6364 883.24 20.3556 885.287 18.5107 885.173C16.6657 885.059 17.1213 884.299 16.1847 880.85C15.248 877.4 13.3414 869.558 13.3414 869.558L13.3579 869.559Z" fill="#F99D22"/>
<path d="M11.9133 867.461C12.3619 867.378 12.8541 870.317 13.4706 873.954C14.0605 877.408 16.6289 885.207 15.6591 886.51C14.7758 887.701 10.619 887.606 8.86963 887.116C7.1197 886.642 7.83795 884.026 8.12838 882.319C8.43529 880.613 11.4477 867.561 11.8963 867.477L11.9133 867.461Z" fill="#F99D22"/>
<path d="M4.41024 872.846C4.41024 872.846 10.2029 866.246 11.0642 866.639C11.3729 866.782 9.88582 872.046 9.16644 874.695C8.44706 877.345 6.37119 885.774 5.32439 885.969C3.59585 886.305 0.786919 884.953 -0.903556 883.244C-2.94474 881.175 -3.25514 881.082 -1.19059 878.677C0.87397 876.273 4.41024 872.846 4.41024 872.846Z" fill="#F99D22"/>
<path d="M-6.73197 869.092C-5.69594 868.731 9.82008 865.457 10.0736 865.763C10.3907 866.137 2.98657 873.507 0.244269 875.937C-2.49803 878.368 -3.15567 879.715 -4.58748 878.163C-6.0193 876.611 -8.68747 869.783 -6.73197 869.092Z" fill="#F99D22"/>
<path d="M-5.81249 858.756C-4.7459 858.942 9.39481 863.89 9.8456 864.22C10.2964 864.549 10.0978 865.037 9.09994 865.25C8.10204 865.463 -6.37925 868.889 -7.27237 868.462C-8.16548 868.035 -7.99456 858.367 -5.81249 858.756Z" fill="#F99D22"/>
<path d="M33.0638 871.597C33.0638 871.597 29.5616 892.573 5.13725 889.017C-2.15553 887.955 -10.5503 878.699 -10.3338 866.292C-10.22 859.693 -8.58358 857.257 -8.58358 857.257L-7.96389 857.476C-8.45046 859.127 -9.81981 864.329 -9.28098 869.251C-8.44039 876.89 -3.02981 885.085 2.29945 887.069C2.29945 887.069 9.12572 889.205 14.0288 888.253C23.8349 886.349 29.0948 881.777 32.281 871.322L33.0803 871.598L33.0638 871.597Z" fill="#F99D22"/>
<path d="M48.1424 615.381C47.9173 617.517 46.4289 618.769 44.3406 618.581C40.7984 618.269 36.9848 613.665 37.333 610.092C37.5636 607.654 40.1546 606.046 42.6035 606.815C45.5802 607.725 48.4764 612.227 48.1592 615.382L48.1424 615.381ZM45.9792 615.524C46.6621 612.884 43.8224 609.209 41.3123 609.041C40.6433 608.991 39.7643 609.734 39.7173 610.369C39.5381 612.794 42.146 615.964 44.6215 616.147C45.1232 616.184 45.9105 615.771 45.9792 615.524Z" fill="white"/>
<path d="M23.1239 619.166C20.6446 618.579 18.7498 616.001 19.0294 613.583C19.2261 611.832 20.5987 611.008 22.2857 611.62C24.628 612.466 26.0568 614.069 26.2574 616.589C26.4138 618.568 25.074 619.63 23.1406 619.167L23.1239 619.166ZM23.6822 616.618C24.4384 615.715 24.04 614.962 23.5375 614.252C23.0659 613.578 22.6236 613.647 21.5508 614.509C21.8924 615.577 22.4327 616.458 23.6822 616.618Z" fill="white"/>
<path d="M29.7159 628.733C31.9455 629.285 33.4741 631.584 33.1053 633.844C32.9196 634.99 31.8183 635.784 30.6549 635.597C28.3963 635.211 26.4582 632.764 26.5941 630.47C26.6775 629.114 28.0811 628.326 29.7159 628.733ZM30.9147 632.992C31.3835 631.883 30.8797 631.19 30.2527 630.572C30.1108 630.444 29.7788 630.386 29.6041 630.474C29.4127 630.561 29.1383 630.86 29.1761 631.031C29.3553 632.019 29.7117 632.887 30.9302 633.01L30.9147 632.992Z" fill="white"/>
<path d="M260.397 614.573C260.677 612.268 260.84 610.437 261.18 608.62C261.239 608.28 261.992 607.955 262.465 607.866C262.672 607.837 263.174 608.398 263.218 608.738C263.351 609.875 263.322 611.028 263.381 612.165C263.425 612.992 263.543 613.819 263.632 614.809C265.065 615.193 266.394 615.533 268.24 616.02C267.443 616.611 267.103 617.01 266.66 617.158C265.729 617.483 264.769 617.69 263.779 617.955C263.115 619.698 263.381 621.441 263.13 623.111C262.893 624.721 263.115 626.493 261.904 628C261.017 626.287 261.032 626.287 260.943 623.155C260.899 621.604 260.781 620.053 260.692 618.339C258.934 618.147 257.383 618.044 255.892 617.749C255.507 617.675 255.123 616.995 255.005 616.537C254.946 616.316 255.404 615.725 255.714 615.636C257.221 615.223 258.757 614.927 260.397 614.558V614.573Z" fill="white"/>
<path d="M279.303 599.004C280.515 599.063 281.578 600.141 281.445 601.19C281.283 602.534 280.116 603.583 278.845 603.539C277.738 603.494 276.704 602.387 276.718 601.279C276.748 599.979 277.93 598.93 279.303 599.004Z" fill="white"/>
<path d="M266.858 1131.4C274.837 1128.08 281.203 1138.42 282.425 1142.6C283.25 1145.4 288.483 1158.64 280.491 1161.95C272.512 1165.27 260.62 1164.38 255.924 1154.73C250.844 1144.29 258.865 1134.71 266.844 1131.4L266.858 1131.4Z" fill="#975B2E"/>
<path d="M280.889 1161.76C286.642 1159.02 288.086 1150.03 284.114 1141.68C280.141 1133.34 272.256 1128.79 266.503 1131.53C260.749 1134.27 259.305 1143.26 263.278 1151.6C267.25 1159.95 275.135 1164.49 280.889 1161.76Z" fill="#8CC747"/>
<path d="M277.112 1152.08C278.89 1151.26 279.095 1147.91 277.569 1144.59C276.043 1141.26 273.365 1139.23 271.586 1140.05C269.808 1140.87 269.603 1144.22 271.129 1147.54C272.655 1150.87 275.334 1152.9 277.112 1152.08Z" fill="#B9D988"/>
<path d="M266.325 1148.73C265.884 1148.91 265.341 1148.65 265.12 1148.14C264.9 1147.64 265.075 1147.08 265.516 1146.9C265.957 1146.72 267.148 1146.71 267.368 1147.21C267.589 1147.71 266.771 1148.53 266.325 1148.73Z" fill="black"/>
<path d="M269.921 1154.64C269.771 1155.13 269.26 1155.33 268.78 1155.11C268.301 1154.89 268.046 1154.31 268.209 1153.82C268.359 1153.33 269.101 1152.42 269.566 1152.64C270.046 1152.86 270.07 1154.15 269.921 1154.64Z" fill="black"/>
<path d="M269.051 1136.8C268.831 1136.29 269.006 1135.73 269.447 1135.55C269.888 1135.37 270.431 1135.64 270.652 1136.14C270.872 1136.64 271.022 1137.93 270.581 1138.11C270.14 1138.29 269.272 1137.3 269.038 1136.79L269.051 1136.8Z" fill="black"/>
<path d="M263.631 1140.03C263.152 1139.8 262.897 1139.23 263.06 1138.74C263.21 1138.25 263.721 1138.05 264.2 1138.27C264.68 1138.49 265.624 1139.4 265.461 1139.89C265.311 1140.38 264.106 1140.26 263.645 1140.03L263.631 1140.03Z" fill="black"/>
<path d="M280.509 1143.56C280.95 1143.38 281.493 1143.64 281.714 1144.15C281.934 1144.65 281.759 1145.21 281.318 1145.39C280.877 1145.57 279.686 1145.58 279.466 1145.08C279.245 1144.58 280.063 1143.76 280.509 1143.56Z" fill="black"/>
<path d="M275.324 1138.11C275.474 1137.62 275.985 1137.42 276.464 1137.64C276.944 1137.86 277.199 1138.44 277.036 1138.93C276.886 1139.42 276.144 1140.33 275.678 1140.11C275.199 1139.89 275.174 1138.6 275.324 1138.11Z" fill="black"/>
<path d="M275.684 1156.23C275.904 1156.74 275.729 1157.3 275.288 1157.48C274.847 1157.66 274.304 1157.39 274.084 1156.89C273.863 1156.39 273.713 1155.1 274.154 1154.92C274.596 1154.74 275.463 1155.73 275.698 1156.24L275.684 1156.23Z" fill="black"/>
<path d="M280.923 1152.98C281.402 1153.21 281.657 1153.78 281.494 1154.27C281.344 1154.76 280.833 1154.96 280.354 1154.74C279.874 1154.52 278.93 1153.61 279.093 1153.12C279.243 1152.63 280.448 1152.75 280.909 1152.98L280.923 1152.98Z" fill="black"/>
</g>
<path d="M320 0.218539V595C320 595 291.333 580.777 248.453 580.777C213.68 580.777 194.503 585.182 161.84 587.555C130.674 589.818 112.997 589.289 81.84 586.899C50.3374 584.482 0 563.5 0 563.5V4.50023C0 4.50023 41.7662 1.96408e-06 67.0933 0C133.867 -5.17816e-06 177.861 17.0218 221.227 17.0218C297.6 17.0218 320 0.218539 320 0.218539Z" fill="#A0CF5A"/>
<path d="M292.245 880.133C290.173 878.837 288.437 877.118 286.83 875.285C283.054 870.938 280.277 866.025 278.688 860.48C278.399 859.503 278.239 858.501 278.078 857.499C277.996 856.883 278.13 856.242 278.681 855.881C279.374 855.428 280.055 855.711 280.626 856.182C281.183 856.633 281.72 857.098 282.216 857.589C285.434 860.815 288.754 863.975 291.822 867.328C293.945 869.639 295.789 872.191 297.702 874.669C298.518 875.738 298.967 876.959 299.178 878.306C299.49 880.52 297.962 882.103 295.322 881.674C294.554 881.302 293.321 880.798 292.218 880.092L292.245 880.133ZM294.26 874.707C292.507 872.474 290.687 870.314 288.805 868.195C286.287 865.414 283.7 862.707 281.113 860C280.926 859.803 280.649 859.692 280.421 859.521C280.351 859.771 280.187 859.965 280.247 860.101C282.74 866.54 286.35 872.19 291.748 876.612C292.755 877.439 293.906 878.085 295.036 878.744C295.049 878.764 295.083 878.771 295.117 878.778C295.703 879.006 296.249 878.416 296.072 877.833C295.69 876.626 294.982 875.633 294.26 874.707Z" fill="white"/>
<path d="M265.165 852.723C265.392 855.341 265.674 857.954 265.881 860.586C266.271 865.458 266.142 870.292 264.85 875.041C264.43 876.627 263.815 878.136 262.669 879.323C261.345 880.684 259.595 880.547 258.499 879.05C258.158 878.574 257.873 878.004 257.675 877.434C257.411 876.674 257.188 875.888 257.093 875.076C256.017 866.573 258.458 858.859 262.49 851.53C263.101 850.46 264.729 850.677 265.043 851.87C265.102 852.093 265.12 852.343 265.144 852.736L265.165 852.723ZM262.066 856.002C259.773 861.581 258.445 867.345 259.075 873.429C259.181 874.526 259.503 875.597 259.845 876.655C259.859 876.675 259.872 876.695 259.885 876.716C260.118 877.205 260.814 877.245 261.122 876.781C262.019 875.524 262.358 874.573 262.658 872.804C263.186 869.604 263.437 866.38 263.269 863.14C263.154 860.738 262.918 858.329 262.725 855.629C262.209 855.909 262.101 855.922 262.073 855.969L262.066 856.002Z" fill="white"/>
<path d="M290.368 842.931C293.286 843.294 296.198 843.604 299.088 844.102C302.268 844.643 305.441 845.307 308.6 845.949C310.308 846.289 311.877 847.039 313.24 848.099C315.349 849.72 314.948 852.401 312.484 853.401C312.118 853.553 311.704 853.678 311.298 853.681C309.5 853.693 307.652 853.853 305.863 853.567C301.818 852.95 298.078 851.376 294.525 849.418C292.486 848.305 290.556 847.003 288.627 845.702C288.412 845.551 288.197 845.401 288.002 845.237C286.968 844.369 287.652 842.698 288.99 842.784C289.443 842.808 289.882 842.9 290.348 842.944L290.368 842.931ZM292.644 846.453C296.627 848.713 300.845 850.44 305.362 851.243C306.753 851.498 308.186 851.551 309.579 851.543C309.687 851.531 309.789 851.552 309.897 851.539C311.101 851.509 311.352 849.8 310.199 849.419C308.271 848.786 306.364 848.053 304.386 847.657C300.612 846.921 296.796 846.388 292.994 845.787C292.907 845.786 292.819 845.785 292.731 845.785C292.419 845.843 292.327 846.282 292.61 846.446L292.644 846.453Z" fill="white"/>
<path d="M311.075 49.3196C310.979 50.7703 310.006 51.6567 308.588 51.5851C306.184 51.468 303.483 48.4554 303.623 46.0294C303.714 44.3741 305.424 43.2178 307.101 43.6732C309.138 44.2093 311.217 47.1777 311.086 49.32L311.075 49.3196ZM309.615 49.4737C310.007 47.6698 307.989 45.2601 306.287 45.2127C305.833 45.197 305.258 45.7224 305.243 46.1535C305.186 47.7986 307.035 49.873 308.714 49.931C309.054 49.9427 309.576 49.6427 309.615 49.4737Z" fill="white"/>
<path d="M294.254 52.544C292.562 52.2129 291.212 50.5192 291.336 48.8765C291.423 47.6868 292.329 47.0933 293.487 47.4627C295.093 47.9726 296.102 49.0183 296.305 50.7178C296.463 52.0523 295.585 52.8058 294.265 52.5444L294.254 52.544ZM294.564 50.8054C295.051 50.1748 294.762 49.6763 294.403 49.2096C294.066 48.7663 293.769 48.8242 293.066 49.436C293.326 50.1492 293.715 50.7306 294.564 50.8054Z" fill="white"/>
<path d="M298.967 58.84C300.49 59.1538 301.584 60.6683 301.395 62.2066C301.3 62.9871 300.576 63.5528 299.784 63.4573C298.246 63.2565 296.871 61.6528 296.902 60.0977C296.922 59.1783 297.85 58.6083 298.967 58.84ZM299.891 61.6889C300.178 60.9264 299.819 60.471 299.379 60.0696C299.279 59.9867 299.053 59.9561 298.938 60.0203C298.81 60.0841 298.633 60.2937 298.663 60.4084C298.81 61.0723 299.074 61.6494 299.902 61.7007L299.891 61.6889Z" fill="white"/>
<path d="M196.155 40.4248C195.913 38.4383 195.773 36.8592 195.48 35.293C195.429 35.0001 194.78 34.7199 194.372 34.6435C194.194 34.6181 193.761 35.102 193.723 35.3948C193.608 36.3754 193.634 37.3686 193.583 38.3491C193.545 39.0622 193.443 39.7753 193.366 40.6285C192.131 40.9596 190.985 41.2525 189.393 41.6727C190.081 42.1821 190.374 42.5259 190.756 42.6532C191.558 42.9334 192.386 43.1117 193.239 43.3409C193.812 44.8435 193.583 46.3461 193.799 47.785C194.003 49.173 193.812 50.7011 194.856 52C195.62 50.5229 195.608 50.5229 195.684 47.8232C195.722 46.4862 195.824 45.1491 195.9 43.672C197.416 43.5064 198.753 43.4173 200.039 43.1626C200.37 43.0989 200.701 42.5132 200.803 42.1184C200.854 41.9274 200.459 41.418 200.192 41.3416C198.893 40.9851 197.569 40.7304 196.155 40.412V40.4248Z" fill="white"/>
<path d="M179.856 27.0031C178.812 27.054 177.895 27.9836 178.01 28.8877C178.15 30.0465 179.156 30.9506 180.251 30.9124C181.206 30.8742 182.097 29.9192 182.085 28.9641C182.059 27.8435 181.04 26.9394 179.856 27.0031Z" fill="white"/>
<path d="M28.893 535.628C31.0927 534.564 33.0053 533.044 34.8015 531.396C39.0265 527.484 42.3199 522.901 44.4999 517.56C44.8931 516.621 45.1612 515.642 45.4292 514.663C45.5781 514.06 45.5143 513.408 45.0058 512.99C44.3654 512.464 43.6582 512.671 43.0398 513.078C42.4368 513.466 41.8528 513.87 41.3063 514.304C37.7577 517.163 34.115 519.944 30.7016 522.945C28.3401 525.012 26.2302 527.349 24.0604 529.605C23.1337 530.579 22.5547 531.744 22.1984 533.061C21.6481 535.228 22.996 536.967 25.6672 536.827C26.4706 536.541 27.7511 536.173 28.924 535.59L28.893 535.628ZM27.4782 530.016C29.4622 527.986 31.5061 526.036 33.6065 524.134C36.4115 521.642 39.2763 519.232 42.1412 516.821C42.3492 516.645 42.6358 516.565 42.8814 516.419C42.9238 516.675 43.0657 516.886 42.9916 517.015C39.8149 523.145 35.6144 528.372 29.7686 532.182C28.6778 532.895 27.4639 533.412 26.2688 533.945C26.2533 533.964 26.219 533.967 26.1846 533.97C25.577 534.134 25.0982 533.488 25.3379 532.927C25.8482 531.769 26.6598 530.858 27.4782 530.016Z" fill="white"/>
<path d="M58.7848 511.315C58.2747 513.894 57.7116 516.461 57.2204 519.055C56.304 523.856 55.9092 528.675 56.6789 533.536C56.924 535.158 57.3717 536.725 58.3826 538.029C59.5508 539.526 61.3055 539.58 62.5574 538.21C62.9477 537.774 63.2937 537.237 63.5522 536.692C63.8969 535.966 64.2039 535.208 64.3857 534.411C66.3769 526.075 64.7872 518.142 61.5725 510.419C61.081 509.289 59.4393 509.328 58.9976 510.48C58.9148 510.696 58.8697 510.943 58.8036 511.331L58.7848 511.315ZM61.5094 514.911C63.1845 520.706 63.8799 526.579 62.5939 532.56C62.3702 533.638 61.9339 534.668 61.4788 535.683C61.4633 535.702 61.4479 535.72 61.4324 535.739C61.1483 536.2 60.452 536.164 60.1958 535.67C59.4406 534.323 59.206 533.341 59.1002 531.55C58.9221 528.311 59.0219 525.08 59.5402 521.877C59.9142 519.502 60.4101 517.132 60.8946 514.469C61.3776 514.803 61.4838 514.827 61.506 514.877L61.5094 514.911Z" fill="white"/>
<path d="M34.7905 498.849C31.8502 498.894 28.9221 498.886 25.9953 499.068C22.7751 499.262 19.5495 499.577 16.3394 499.874C14.6048 500.026 12.9637 500.602 11.4933 501.508C9.22083 502.891 9.32974 505.6 11.6701 506.861C12.0179 507.052 12.4155 507.221 12.8186 507.268C14.6055 507.474 16.4247 507.834 18.2346 507.743C22.3227 507.569 26.2106 506.409 29.9553 504.848C32.1032 503.962 34.1623 502.877 36.2214 501.793C36.4516 501.666 36.6817 501.54 36.893 501.398C38.0148 500.647 37.5161 498.912 36.1765 498.852C35.7237 498.827 35.2775 498.871 34.8093 498.865L34.7905 498.849ZM32.1467 502.105C27.9417 503.919 23.5614 505.178 18.9841 505.487C17.5738 505.591 16.1435 505.488 14.7595 505.329C14.6532 505.305 14.5502 505.315 14.4439 505.29C13.2504 505.13 13.1856 503.404 14.3732 503.149C16.3588 502.73 18.3344 502.208 20.3435 502.029C24.1746 501.706 28.0258 501.589 31.8704 501.404C31.9578 501.413 32.0453 501.422 32.1328 501.43C32.4362 501.522 32.4798 501.968 32.181 502.101L32.1467 502.105Z" fill="white"/>
<path d="M216.64 523.517C213.785 523.655 211.734 524.64 209.623 525.371C207.549 526.103 205.625 527.28 203.596 527.923C202.948 527.135 203.446 526.733 203.765 526.465C207.07 523.672 210.875 521.741 214.933 520.345C215.631 520.098 216.405 520.001 217.163 519.97C219.007 519.885 220.302 520.977 220.417 522.873C220.493 524.1 220.182 525.357 220.124 526.591C220.088 527.409 220.201 528.227 220.239 529.082C221.831 529.392 222.938 528.662 224.112 528.355C225.815 527.922 227.479 527.302 229.197 527.025C231.918 526.597 233.57 527.718 234.079 530.461C234.342 531.91 234.307 533.472 234.063 534.93C233.79 536.522 233.101 538.054 232.575 539.594C232.494 539.832 232.345 540.056 232.182 540.234C231.744 540.703 231.179 541.128 230.554 540.779C230.175 540.572 229.772 540.037 229.749 539.635C229.673 538 229.76 536.371 229.758 534.735C229.764 533.753 229.71 532.779 229.686 531.597C228.883 531.68 228.259 531.629 227.694 531.793C226.482 532.137 225.315 532.614 224.119 533.003C223.279 533.272 222.446 533.563 221.577 533.705C217.636 534.306 215.559 532.286 215.97 528.329C216.043 527.586 216.243 526.849 216.354 526.106C216.457 525.377 216.537 524.655 216.677 523.517L216.64 523.517Z" fill="white"/>
<path d="M296.169 542.7C296.169 542.7 299.637 547.52 311.655 546.343C320.366 545.491 325.872 539.839 328.445 535.614C329.733 533.494 330.345 531.029 330.141 528.658C330.022 527.354 329.743 526.928 329.638 526.893C329.201 527.346 308.482 541.661 296.169 542.7Z" fill="#F78C1E"/>
<path d="M328.578 527.058C328.578 527.058 323.662 548.445 301.246 545.49C294.553 544.607 287.484 535.437 288.667 522.837C289.296 516.135 291.009 513.618 291.009 513.618L291.568 513.824L327.872 526.8L328.593 527.058L328.578 527.058Z" fill="white"/>
<path d="M312.185 522.333C311.999 523.336 320.132 534.046 320.996 534.791C321.86 535.536 323.509 534.965 325.451 531.582C327.393 528.2 327.475 527.313 326.019 526.814C324.503 526.315 312.353 521.363 312.185 522.333Z" fill="#F99D22"/>
<path d="M311.293 525.726C311.293 525.726 310.826 523.426 311.168 523.066C311.51 522.706 312.548 524.532 315.193 528.157C317.837 531.782 320.945 535.543 320.682 536.796C320.193 539.103 316.272 541.262 314.657 541.197C313.042 541.132 313.5 540.36 312.934 536.937C312.368 533.513 311.278 525.725 311.278 525.725L311.293 525.726Z" fill="#F99D22"/>
<path d="M309.533 523.553C309.907 523.459 310.106 526.365 310.358 529.96C310.601 533.375 312.166 541.052 311.278 542.371C310.468 543.577 307.059 543.592 305.656 543.151C304.251 542.727 305.024 540.11 305.382 538.408C305.754 536.705 309.143 523.664 309.518 523.57L309.533 523.553Z" fill="#F99D22"/>
<path d="M301.641 528.905C301.641 528.905 307.216 522.158 307.942 522.528C308.203 522.662 306.505 527.961 305.676 530.627C304.847 533.293 302.396 541.77 301.463 541.992C299.921 542.373 297.558 541.096 296.203 539.433C294.567 537.42 294.302 537.335 296.292 534.878C298.283 532.422 301.641 528.905 301.641 528.905Z" fill="#F99D22"/>
<path d="M291.151 525.396C292.138 525.004 306.748 521.272 306.959 521.575C307.223 521.946 299.793 529.608 297.065 532.143C294.336 534.678 293.622 536.06 292.42 534.526C291.218 532.993 289.288 526.149 291.151 525.396Z" fill="#F99D22"/>
<path d="M292.019 515.079C293.009 515.241 305.94 519.929 306.338 520.255C306.736 520.58 306.51 521.086 305.552 521.331C304.595 521.577 290.671 525.48 289.864 525.066C289.057 524.653 289.994 514.739 292.019 515.079Z" fill="#F99D22"/>
<path d="M328.578 527.058C328.578 527.058 323.662 548.445 301.246 545.49C294.553 544.607 287.484 535.437 288.667 522.837C289.296 516.135 291.009 513.618 291.009 513.618L291.568 513.824C290.985 515.513 289.3 520.83 289.411 525.812C289.588 533.544 293.967 541.718 298.763 543.589C298.763 543.589 304.937 545.574 309.569 544.476C318.833 542.28 324.083 537.498 327.872 526.8L328.593 527.058L328.578 527.058Z" fill="#F99D22"/>
<path d="M91.526 563.534C84.0967 556.582 85.6005 544.979 87.1461 541.728C88.1775 539.543 92.1302 527.792 99.5661 534.762C106.995 541.714 114.73 554.796 112.457 564.303C110.003 574.583 98.9619 570.504 91.5326 563.551L91.526 563.534Z" fill="#975B2E"/>
<path d="M100.919 536.251C92.8466 531.825 83.9273 534.249 80.9971 541.665C78.0669 549.081 82.2354 558.68 90.3078 563.106C98.3801 567.531 107.299 565.107 110.23 557.692C113.16 550.276 108.991 540.676 100.919 536.251Z" fill="#8CC747"/>
<path d="M97.0633 544.068C94.464 542.666 91.3149 543.915 90.0295 546.86C88.7441 549.804 89.8091 553.328 92.4084 554.731C95.0076 556.133 98.1568 554.884 99.4422 551.939C100.728 548.995 99.6625 545.471 97.0633 544.068Z" fill="#B9D988"/>
<path d="M101.123 555.272C101.53 555.657 101.755 556.356 101.621 556.824C101.487 557.292 101.048 557.366 100.641 556.982C100.234 556.597 99.4057 555.338 99.5397 554.87C99.6738 554.402 100.705 554.889 101.123 555.272Z" fill="black"/>
<path d="M104.53 548.67C104.939 548.597 105.44 549.065 105.658 549.703C105.875 550.341 105.711 550.903 105.294 550.958C104.885 551.03 103.78 550.651 103.57 550.031C103.352 549.393 104.12 548.742 104.53 548.67Z" fill="black"/>
<path d="M89.3325 559.361C89.1974 559.831 88.755 559.905 88.3451 559.519C87.9352 559.133 87.7086 558.432 87.8437 557.962C87.9788 557.492 88.6133 556.732 89.0232 557.118C89.4331 557.503 89.4675 558.891 89.3391 559.378L89.3325 559.361Z" fill="black"/>
<path d="M94.8465 562.52C95.0352 563.116 94.8931 563.641 94.5316 563.692C94.1762 563.76 93.7423 563.323 93.5535 562.727C93.3648 562.13 93.2412 560.743 93.6028 560.692C93.9582 560.625 94.6682 561.923 94.8403 562.504L94.8465 562.52Z" fill="black"/>
<path d="M89.4999 545.129C89.0931 544.744 88.8682 544.045 89.0023 543.577C89.1363 543.109 89.5755 543.035 89.9823 543.419C90.3892 543.804 91.2176 545.063 91.0836 545.531C90.9495 545.999 89.9181 545.513 89.4999 545.129Z" fill="black"/>
<path d="M87.3705 552.921C86.9606 552.993 86.4602 552.526 86.2425 551.888C86.0249 551.249 86.1887 550.688 86.6056 550.633C87.0155 550.561 88.1196 550.939 88.3302 551.56C88.5479 552.198 87.7803 552.849 87.3705 552.921Z" fill="black"/>
<path d="M103.097 542.541C103.232 542.071 103.675 541.996 104.084 542.382C104.494 542.768 104.721 543.469 104.586 543.939C104.451 544.409 103.816 545.17 103.406 544.784C102.996 544.398 102.962 543.01 103.09 542.524L103.097 542.541Z" fill="black"/>
<path d="M97.6634 539.557C97.4746 538.961 97.6167 538.435 97.9782 538.385C98.3337 538.317 98.7676 538.754 98.9563 539.35C99.1451 539.947 99.2686 541.334 98.9071 541.385C98.5517 541.452 97.8416 540.154 97.6695 539.573L97.6634 539.557Z" fill="black"/>
<path d="M45.5098 37.5026C47.2769 35.8056 49.1452 33.9231 51.2139 34.3074C51.947 31.3593 50.7661 30.0437 49.0895 29.658C50.382 28.2073 51.7159 26.5227 53.5002 26.3896C53.9255 23.4401 51.3953 23.4718 49.3231 24.2761C49.742 21.6598 49.4813 18.5829 47.1393 19.4299C47.2311 21.6022 46.0138 23.4385 44.9929 25.1626C44.5003 23.1574 43.3003 21.8569 40.9818 23.0984C41.5192 25.5765 40.2129 28.0651 39.0432 30.3932C37.8686 29.7292 36.2641 29.8585 34.3035 31.6124C36.0822 33.4106 34.4219 36.781 33.856 39.4071C33.3398 41.7824 34.2864 43.0916 36.0064 42.575C35.7768 44.7247 36.9368 45.7391 38.8132 44.8242C40.8805 43.8332 43.4285 41.4266 45.0923 43.3893C46.29 40.8062 46.2085 38.8587 45.5398 37.4897L45.5098 37.5026Z" fill="#8CC747"/>
<path d="M33.6572 61.4015C28.3975 68.7416 21.3364 71.5841 17.8941 67.7572C14.4414 63.9283 15.9072 54.8734 21.1669 47.5333C26.4266 40.1932 36.0131 28.5866 41.5484 34.7331C46.8541 40.6184 38.917 54.0614 33.6572 61.4015Z" fill="#FCAF17"/>
<path d="M33.3801 60.5984C33.3174 60.5048 33.2105 60.4882 33.0595 60.5486C32.0659 61.0023 31.574 60.3179 31.9495 59.0346C32.0635 58.6331 31.917 58.4217 31.6039 58.5617C31.3014 58.7034 30.962 59.1328 30.8373 59.5327C30.2231 61.6174 31.0185 62.7262 32.6277 61.9909C32.9302 61.8492 33.2697 61.4197 33.3944 61.0199C33.4514 60.8191 33.4432 60.6711 33.3805 60.5775L33.3801 60.5984Z" fill="black"/>
<path d="M26.9924 55.6956C26.9297 55.602 26.8229 55.5854 26.6718 55.6458C25.6782 56.0994 25.1862 55.4151 25.5617 54.1318C25.6757 53.7303 25.5293 53.5189 25.2162 53.6589C24.9138 53.8006 24.5742 54.23 24.4495 54.6299C23.8353 56.7147 24.6308 57.8234 26.24 57.0881C26.5425 56.9464 26.8819 56.517 27.0066 56.1171C27.0636 55.9163 27.0554 55.7683 26.9927 55.6747L26.9924 55.6956Z" fill="black"/>
<path d="M20.613 50.7791C20.5503 50.6855 20.4434 50.6689 20.2924 50.7293C19.2988 51.1829 18.8069 50.4986 19.1824 49.2153C19.2964 48.8137 19.1499 48.6024 18.8368 48.7424C18.5344 48.8841 18.1949 49.3135 18.0702 49.7134C17.456 51.7981 18.2514 52.9069 19.8606 52.1716C20.1631 52.0299 20.5026 51.6004 20.6273 51.2005C20.6843 50.9998 20.6761 50.8518 20.6134 50.7582L20.613 50.7791Z" fill="black"/>
<path d="M39.7392 51.702C39.6765 51.6084 39.5696 51.5918 39.4186 51.6522C38.425 52.1058 37.9331 51.4215 38.3086 50.1382C38.4226 49.7366 38.2762 49.5252 37.963 49.6652C37.6606 49.8069 37.3211 50.2364 37.1964 50.6363C36.5822 52.721 37.3776 53.8298 38.9868 53.0944C39.2892 52.9528 39.6288 52.5233 39.7535 52.1234C39.8105 51.9226 39.8023 51.7747 39.7396 51.6811L39.7392 51.702Z" fill="black"/>
<path d="M33.3384 46.7952C33.2757 46.7016 33.1688 46.685 33.0178 46.7454C32.0242 47.199 31.5322 46.5147 31.9077 45.2314C32.0217 44.8299 31.8753 44.6185 31.5622 44.7585C31.2597 44.9002 30.9202 45.3297 30.7955 45.7295C30.1813 47.8143 30.9768 48.923 32.586 48.1877C32.8884 48.046 33.2279 47.6166 33.3526 47.2167C33.4096 47.0159 33.4014 46.8679 33.3387 46.7743L33.3384 46.7952Z" fill="black"/>
<path d="M26.9519 41.8929C26.8892 41.7993 26.7823 41.7827 26.6313 41.8431C25.6377 42.2967 25.1457 41.6124 25.5212 40.3291C25.6352 39.9276 25.4888 39.7161 25.1757 39.8562C24.8732 39.9979 24.5337 40.4273 24.409 40.8272C23.7948 42.9119 24.5903 44.0207 26.1995 43.2853C26.5019 43.1436 26.8414 42.7142 26.9661 42.3143C27.0231 42.1136 27.0149 41.9656 26.9522 41.872L26.9519 41.8929Z" fill="black"/>
<path d="M33.7541 53.949C33.6915 53.8555 33.5847 53.8389 33.4338 53.8993C32.9589 54.1188 32.5741 54.08 32.3648 53.7961C32.1554 53.5122 32.1426 53.0075 32.3245 52.3863C32.4384 51.9851 32.2922 51.7738 31.9792 51.9137C31.677 52.0553 31.3378 52.4845 31.2132 52.8841C30.9177 53.8856 30.9358 54.7054 31.2704 55.1763C31.605 55.6473 32.2252 55.7017 32.9912 55.3598C33.2935 55.2182 33.6327 54.7891 33.7573 54.3895C33.8143 54.1888 33.8061 54.0409 33.7434 53.9473L33.7541 53.949Z" fill="black"/>
<path d="M27.3735 49.0345C27.3108 48.9409 27.204 48.9243 27.0529 48.9847C26.0593 49.4383 25.5674 48.754 25.9429 47.4707C26.0569 47.0692 25.9105 46.8577 25.5973 46.9978C25.2949 47.1395 24.9553 47.5689 24.8306 47.9688C24.2164 50.0535 25.0119 51.1623 26.6211 50.4269C26.9236 50.2852 27.2631 49.8558 27.3878 49.456C27.4448 49.2552 27.4366 49.1072 27.3739 49.0136L27.3735 49.0345Z" fill="black"/>
<path d="M38.4123 43.4057C38.3496 43.3122 38.2428 43.2956 38.0917 43.3559C37.7893 43.4976 37.4499 43.927 37.3252 44.3268C37.0295 45.3289 37.0477 46.1492 37.3825 46.6204C37.7173 47.0916 38.3378 47.1461 39.1044 46.804C39.4068 46.6623 39.7463 46.2329 39.871 45.8331C39.985 45.4316 39.8385 45.2202 39.5254 45.3602C39.0503 45.5799 38.6652 45.5411 38.4558 45.257C38.2463 44.973 38.2335 44.4679 38.4155 43.8464C38.4725 43.6456 38.4643 43.4976 38.4017 43.4041L38.4123 43.4057Z" fill="black"/>
<path d="M33.4797 40.493C33.417 40.3994 33.3101 40.3828 33.1591 40.4432C32.1655 40.8968 31.6736 40.2125 32.0491 38.9292C32.1631 38.5276 32.0167 38.3162 31.7035 38.4563C31.4011 38.598 31.0616 39.0274 30.9369 39.4272C30.3227 41.512 31.1181 42.6208 32.7273 41.8854C33.0298 41.7437 33.3693 41.3143 33.494 40.9144C33.551 40.7136 33.5428 40.5656 33.4801 40.472L33.4797 40.493Z" fill="black"/>
<path d="M27.7944 62.3118C27.7318 62.2183 27.625 62.2017 27.474 62.262C26.9992 62.4816 26.6143 62.4428 26.405 62.1589C26.1957 61.875 26.1829 61.3703 26.3648 60.7491C26.4787 60.3478 26.3324 60.1366 26.0195 60.2765C25.7173 60.4181 25.378 60.8473 25.2534 61.2469C24.958 62.2484 24.9761 63.0682 25.3107 63.5391C25.6453 64.0101 26.2654 64.0645 27.0315 63.7226C27.3337 63.581 27.673 63.1519 27.7976 62.7523C27.8545 62.5516 27.8464 62.4037 27.7837 62.3101L27.7944 62.3118Z" fill="black"/>
<path d="M21.4099 57.4114C21.3472 57.3178 21.2403 57.3012 21.0893 57.3616C20.0957 57.8152 19.6037 57.1309 19.9792 55.8477C20.0932 55.4461 19.9468 55.2347 19.6337 55.3747C19.3312 55.5164 18.9917 55.9459 18.867 56.3458C18.2528 58.4305 19.0483 59.5392 20.6575 58.8039C20.9599 58.6622 21.2994 58.2328 21.4241 57.8329C21.4811 57.6321 21.4729 57.4841 21.4102 57.3905L21.4099 57.4114Z" fill="black"/>
</g>
<defs>
<linearGradient id="paint0_linear_70_2058" x1="160" y1="0" x2="160" y2="700" gradientUnits="userSpaceOnUse">
<stop offset="0.221154" stop-color="#FFE982"/>
<stop offset="1" stop-color="#FFD200"/>
</linearGradient>
<clipPath id="clip0_70_2058">
<rect width="320" height="1245" fill="white"/>
</clipPath>
<clipPath id="clip1_70_2058">
<rect width="320" height="700" fill="white" transform="translate(0 535)"/>
</clipPath>
</defs>
</svg>
