<svg width="1500" height="2390" viewBox="0 0 1500 2390" fill="none" xmlns="http://www.w3.org/2000/svg">
<rect width="1500" height="2390" fill="#5C0F8B"/>
<path d="M1379.7 317.181C1379.7 317.181 1384.53 322.819 1399.43 321.822C1410.24 321.101 1416.54 314.772 1419.33 309.997C1420.72 307.6 1421.24 304.787 1420.74 302.058C1420.46 300.557 1420.07 300.06 1419.93 300.017C1419.43 300.524 1394.99 316.351 1379.7 317.181Z" fill="#F78C1E"/>
<path d="M1419.96 299.995C1419.96 299.995 1415.93 324.636 1387.22 320.541C1378.65 319.318 1368.75 308.478 1368.95 293.91C1369.06 286.161 1370.97 283.295 1370.97 283.295L1371.7 283.551L1419.04 299.675L1419.98 299.996L1419.96 299.995Z" fill="white"/>
<path d="M1397.97 293.649C1397.84 294.807 1409.27 307.48 1410.44 308.37C1411.62 309.26 1413.65 308.647 1415.77 304.78C1417.89 300.913 1417.9 299.886 1416 299.264C1414.03 298.638 1398.08 292.528 1397.97 293.649Z" fill="#F99D22"/>
<path d="M1396.8 297.664C1396.8 297.664 1395.93 294.942 1396.35 294.529C1396.77 294.116 1398.35 296.298 1402.27 300.649C1406.19 305 1410.74 309.527 1410.52 310.993C1410.1 313.693 1405.08 316.111 1402.91 315.984C1400.75 315.856 1401.28 314.962 1400.16 310.914C1399.05 306.866 1396.78 297.663 1396.78 297.663L1396.8 297.664Z" fill="#F99D22"/>
<path d="M1395.09 295.208C1395.62 295.108 1396.21 298.558 1396.95 302.827C1397.66 306.882 1400.7 316.033 1399.57 317.567C1398.54 318.969 1393.65 318.871 1391.59 318.301C1389.53 317.751 1390.37 314.676 1390.7 312.67C1391.06 310.665 1394.55 295.326 1395.07 295.226L1395.09 295.208Z" fill="#F99D22"/>
<path d="M1386.3 301.56C1386.3 301.56 1393.08 293.789 1394.1 294.248C1394.46 294.415 1392.73 300.602 1391.9 303.715C1391.06 306.829 1388.66 316.736 1387.43 316.968C1385.4 317.368 1382.09 315.789 1380.1 313.787C1377.69 311.365 1377.33 311.256 1379.75 308.426C1382.16 305.595 1386.3 301.56 1386.3 301.56Z" fill="#F99D22"/>
<path d="M1373.2 297.187C1374.41 296.761 1392.63 292.865 1392.93 293.224C1393.3 293.662 1384.63 302.34 1381.42 305.203C1378.21 308.065 1377.44 309.65 1375.75 307.832C1374.07 306.014 1370.9 298.006 1373.2 297.187Z" fill="#F99D22"/>
<path d="M1374.24 285.046C1375.49 285.261 1392.13 291.024 1392.66 291.409C1393.19 291.794 1392.96 292.368 1391.79 292.622C1390.61 292.875 1373.62 296.945 1372.56 296.446C1371.51 295.947 1371.68 284.596 1374.24 285.046Z" fill="#F99D22"/>
<path d="M1419.96 299.995C1419.96 299.995 1415.93 324.636 1387.22 320.541C1378.65 319.318 1368.75 308.478 1368.95 293.91C1369.06 286.161 1370.97 283.295 1370.97 283.295L1371.7 283.551C1371.14 285.49 1369.55 291.603 1370.2 297.38C1371.22 306.347 1377.61 315.951 1383.88 318.264C1383.88 318.264 1391.91 320.749 1397.66 319.614C1409.17 317.346 1415.34 311.961 1419.04 299.675L1419.98 299.996L1419.96 299.995Z" fill="#F99D22"/>
<path d="M256.515 568.179C260.631 568.882 262.875 571.927 262.249 575.955C261.201 582.789 251.793 589.613 244.903 588.491C240.201 587.739 237.405 582.511 239.204 577.856C241.34 572.194 250.438 567.137 256.519 568.147L256.515 568.179ZM256.522 572.394C251.484 570.739 244.001 575.79 243.36 580.639C243.181 581.931 244.511 583.729 245.739 583.9C250.422 584.55 256.897 579.886 257.561 575.106C257.695 574.137 256.993 572.558 256.522 572.394Z" fill="white"/>
<path d="M260.735 617.193C259.287 621.93 254.047 625.284 249.391 624.44C246.017 623.839 244.591 621.073 245.99 617.877C247.923 613.438 251.211 610.865 256.126 610.791C259.986 610.735 261.878 613.467 260.739 617.16L260.735 617.193ZM255.86 615.791C254.203 614.211 252.693 614.89 251.253 615.777C249.886 616.607 249.963 617.474 251.503 619.663C253.617 619.134 255.394 618.195 255.86 615.791Z" fill="white"/>
<path d="M276.91 582.945C278.259 578.688 282.91 576.01 287.249 577.007C289.451 577.511 290.852 579.747 290.344 581.981C289.314 586.315 284.324 589.769 279.89 589.219C277.27 588.888 275.917 586.067 276.91 582.945ZM285.324 581.151C283.231 580.103 281.823 580.994 280.545 582.134C280.279 582.393 280.124 583.03 280.273 583.38C280.418 583.762 280.964 584.332 281.301 584.28C283.241 584.055 284.968 583.472 285.36 581.124L285.324 581.151Z" fill="white"/>
<path d="M80.4244 686.797C71.7068 680.347 78.7829 666.826 82.5146 662.814C85.0111 660.118 95.9572 645.942 104.678 652.41C113.396 658.861 120.087 672.235 112.669 683.522C104.654 695.725 89.1454 693.265 80.4278 686.815L80.4244 686.797Z" fill="#975B2E"/>
<path d="M104.19 652.083C97.5401 647.651 86.9167 651.898 80.4618 661.569C74.007 671.24 74.1649 682.674 80.8146 687.106C87.4644 691.539 98.0877 687.292 104.543 677.62C110.997 667.949 110.839 656.516 104.19 652.083Z" fill="#8CC747"/>
<path d="M96.1717 662.402C94.1486 661.014 90.3979 662.959 87.7941 666.748C85.1903 670.537 84.7195 674.734 86.7425 676.123C88.7655 677.512 92.5163 675.566 95.12 671.777C97.7238 667.988 98.1947 663.791 96.1717 662.402Z" fill="#B9D988"/>
<path d="M99.5002 676.203C99.9793 676.561 100.045 677.315 99.6434 677.877C99.242 678.438 98.5246 678.611 98.0455 678.253C97.5664 677.894 96.7854 676.621 97.1868 676.059C97.5882 675.498 99.003 675.848 99.5002 676.203Z" fill="black"/>
<path d="M103.562 668.517C104.189 668.361 104.736 668.781 104.803 669.441C104.87 670.101 104.409 670.749 103.779 670.886C103.152 671.042 101.689 670.832 101.626 670.19C101.559 669.53 102.936 668.672 103.562 668.517Z" fill="black"/>
<path d="M84.8705 680.946C84.4691 681.507 83.7516 681.68 83.2725 681.322C82.7934 680.963 82.7278 680.209 83.1291 679.648C83.5305 679.086 84.8263 678.094 85.3054 678.452C85.7845 678.811 85.2718 680.384 84.8738 680.964L84.8705 680.946Z" fill="black"/>
<path d="M91.8491 684.712C91.916 685.373 91.4554 686.021 90.8248 686.158C90.1976 686.314 89.6504 685.893 89.5836 685.233C89.5167 684.572 89.8927 682.968 90.5233 682.831C91.1506 682.675 91.8004 684.048 91.8458 684.694L91.8491 684.712Z" fill="black"/>
<path d="M84.7858 664.231C84.3067 663.873 84.2411 663.119 84.6425 662.557C85.0439 661.996 85.7614 661.823 86.2405 662.181C86.7196 662.539 87.5005 663.813 87.0991 664.375C86.6977 664.936 85.283 664.586 84.7858 664.231Z" fill="black"/>
<path d="M82.244 673.334C81.6172 673.489 81.0705 673.069 81.0037 672.409C80.9369 671.749 81.3971 671.102 82.0272 670.964C82.654 670.809 84.1171 671.019 84.1805 671.661C84.2474 672.321 82.8708 673.178 82.244 673.334Z" fill="black"/>
<path d="M101.566 661.275C101.968 660.713 102.685 660.541 103.164 660.899C103.643 661.257 103.709 662.011 103.308 662.573C102.906 663.135 101.61 664.127 101.131 663.768C100.652 663.41 101.165 661.837 101.563 661.257L101.566 661.275Z" fill="black"/>
<path d="M94.6835 657.717C94.6167 657.057 95.0772 656.409 95.7078 656.271C96.3351 656.116 96.8822 656.536 96.9491 657.197C97.0159 657.857 96.6399 659.461 96.0093 659.599C95.382 659.755 94.7323 658.381 94.6869 657.735L94.6835 657.717Z" fill="black"/>
<path d="M82.8339 1359.79C85.0455 1361.08 87.4873 1361.86 89.9719 1362.47C95.8473 1363.87 101.763 1364.07 107.688 1362.86C108.736 1362.66 109.745 1362.32 110.754 1361.99C111.367 1361.77 111.897 1361.33 111.964 1360.65C112.049 1359.78 111.455 1359.29 110.739 1358.99C110.049 1358.69 109.356 1358.41 108.658 1358.19C104.096 1356.77 99.5454 1355.21 94.9375 1353.99C91.7577 1353.13 88.4898 1352.66 85.2573 1352.08C83.8676 1351.84 82.5145 1352.01 81.1596 1352.47C78.9506 1353.25 78.2233 1355.43 79.9055 1357.68C80.6242 1358.21 81.6925 1359.11 82.8849 1359.79L82.8339 1359.79ZM86.896 1355.29C89.8231 1355.84 92.7149 1356.48 95.5992 1357.21C99.4077 1358.2 103.181 1359.29 106.954 1360.38C107.229 1360.46 107.466 1360.66 107.736 1360.79C107.538 1360.98 107.437 1361.22 107.282 1361.23C100.086 1362.03 93.0808 1361.42 86.3469 1358.55C85.0888 1358.01 83.9293 1357.25 82.7673 1356.52C82.7419 1356.52 82.7189 1356.49 82.696 1356.47C82.1988 1356.03 82.4818 1355.24 83.1099 1355.12C84.417 1354.89 85.6844 1355.07 86.896 1355.29Z" fill="white"/>
<path d="M121.454 1371.68C118.909 1372.74 116.343 1373.74 113.796 1374.82C109.077 1376.82 104.646 1379.28 100.86 1382.78C99.5904 1383.94 98.4864 1385.24 97.9407 1386.88C97.3192 1388.77 98.2979 1390.33 100.223 1390.62C100.831 1390.71 101.501 1390.7 102.127 1390.61C102.961 1390.48 103.801 1390.31 104.602 1390C113.029 1386.89 119.013 1380.89 123.864 1373.59C124.562 1372.5 123.568 1371.1 122.306 1371.38C122.07 1371.44 121.828 1371.54 121.452 1371.71L121.454 1371.68ZM119.913 1376.15C115.842 1380.98 111.131 1385.01 105.168 1387.37C104.097 1387.8 102.945 1388.02 101.795 1388.21C101.769 1388.21 101.744 1388.21 101.719 1388.2C101.151 1388.23 100.775 1387.6 101.057 1387.09C101.789 1385.65 102.507 1384.87 104.006 1383.74C106.724 1381.69 109.598 1379.9 112.693 1378.49C114.981 1377.43 117.335 1376.48 119.939 1375.36C119.93 1375.97 119.971 1376.08 119.941 1376.13L119.913 1376.15Z" fill="white"/>
<path d="M118.335 1343.49C116.578 1340.95 114.874 1338.4 113.004 1335.95C110.954 1333.26 108.794 1330.63 106.659 1328.01C105.513 1326.59 104.052 1325.49 102.403 1324.74C99.8702 1323.57 97.5734 1325.24 97.8424 1328.01C97.8791 1328.42 97.9642 1328.87 98.1586 1329.25C99.0231 1330.92 99.7732 1332.72 100.91 1334.24C103.451 1337.7 106.733 1340.41 110.282 1342.77C112.309 1344.12 114.458 1345.29 116.606 1346.45C116.851 1346.58 117.096 1346.7 117.343 1346.8C118.653 1347.34 119.873 1345.9 119.142 1344.7C118.9 1344.29 118.601 1343.93 118.333 1343.51L118.335 1343.49ZM113.953 1343.08C109.915 1340.47 106.258 1337.39 103.313 1333.58C102.399 1332.41 101.653 1331.11 100.983 1329.81C100.942 1329.7 100.873 1329.62 100.832 1329.51C100.274 1328.38 101.74 1327.32 102.656 1328.2C104.182 1329.69 105.792 1331.11 107.122 1332.75C109.642 1335.9 111.994 1339.19 114.402 1342.43C114.446 1342.51 114.489 1342.59 114.533 1342.68C114.63 1342.99 114.267 1343.29 113.976 1343.11L113.953 1343.08Z" fill="white"/>
<path d="M149.018 1394.74C149.018 1394.74 154.883 1402.58 174.594 1402.58C188.882 1402.59 197.736 1394.82 201.821 1388.79C203.864 1385.76 204.787 1382.1 204.37 1378.47C204.129 1376.47 203.656 1375.78 203.483 1375.71C202.78 1376.34 169.219 1395 149.018 1394.74Z" fill="#F78C1E"/>
<path d="M203.527 1375.68C203.527 1375.68 196.078 1407.74 158.632 1399.82C147.451 1397.45 135.358 1382.32 136.894 1363.18C137.708 1352.99 140.476 1349.39 140.476 1349.39L141.413 1349.79L202.342 1375.18L203.553 1375.68L203.527 1375.68Z" fill="white"/>
<path d="M175.118 1365.38C174.842 1366.9 188.794 1384.57 190.264 1385.85C191.733 1387.12 194.467 1386.5 197.593 1381.6C200.719 1376.7 200.825 1375.35 198.377 1374.36C195.827 1373.36 175.364 1363.92 175.118 1365.38Z" fill="#F99D22"/>
<path d="M173.221 1370.57C173.221 1370.57 172.318 1366.91 172.908 1366.4C173.497 1365.89 175.389 1368.91 180.17 1374.98C184.952 1381.05 190.555 1387.4 190.137 1389.31C189.356 1392.83 182.531 1395.57 179.686 1395.21C176.841 1394.85 177.62 1393.72 176.504 1388.3C175.388 1382.87 173.195 1370.56 173.195 1370.56L173.221 1370.57Z" fill="#F99D22"/>
<path d="M171.197 1367.19C171.9 1367.1 172.377 1371.69 172.98 1377.38C173.559 1382.78 176.782 1395.09 175.154 1397.01C173.67 1398.76 167.24 1398.2 164.578 1397.27C161.913 1396.36 163.279 1392.39 163.894 1389.78C164.535 1387.17 170.466 1367.29 171.169 1367.21L171.197 1367.19Z" fill="#F99D22"/>
<path d="M159.077 1374.78C159.077 1374.78 168.683 1365.15 169.979 1365.84C170.443 1366.1 167.631 1374.08 166.261 1378.11C164.891 1382.13 160.861 1394.95 159.222 1395.15C156.513 1395.5 152.295 1393.13 149.844 1390.32C146.884 1386.92 146.413 1386.74 149.842 1383.23C153.271 1379.72 159.077 1374.78 159.077 1374.78Z" fill="#F99D22"/>
<path d="M142.206 1367.87C143.844 1367.42 168.169 1363.9 168.531 1364.4C168.986 1365.01 156.816 1375.66 152.338 1379.14C147.859 1382.62 146.711 1384.64 144.646 1382.1C142.581 1379.56 139.113 1368.74 142.206 1367.87Z" fill="#F99D22"/>
<path d="M144.642 1351.98C146.274 1352.38 167.671 1361.42 168.337 1361.98C169.002 1362.53 168.648 1363.26 167.083 1363.49C165.519 1363.72 142.784 1367.58 141.444 1366.83C140.104 1366.08 141.304 1351.17 144.642 1351.98Z" fill="#F99D22"/>
<path d="M203.527 1375.68C203.527 1375.68 196.078 1407.74 158.632 1399.82C147.451 1397.45 135.358 1382.32 136.894 1363.18C137.708 1352.99 140.476 1349.39 140.476 1349.39L141.413 1349.79C140.501 1352.3 137.879 1360.2 138.236 1367.85C138.798 1379.74 146.376 1392.93 154.43 1396.53C154.43 1396.53 164.785 1400.51 172.463 1399.52C187.82 1397.55 196.401 1391.01 202.342 1375.18L203.553 1375.68L203.527 1375.68Z" fill="#F99D22"/>
<path d="M158.925 104.186C162.829 101.256 166.882 97.9566 173.474 99.9477C173.181 93.6011 168.484 89.958 163.079 88.1744C165.756 85.5524 168.36 82.418 173.649 83.0732C172.423 76.5578 164.789 75.2696 159.199 75.9941C158.238 70.2372 154.826 63.0617 148.457 63.739C150.586 68.7553 148.465 72.2992 146.843 75.6924C143.642 70.8426 138.9 67.2236 132.938 68.8156C136.677 74.7707 134.842 79.7584 133.284 84.4527C129.162 82.3026 124.413 81.7355 119.971 84.6915C126.89 89.7596 124.735 96.5733 125.259 102.274C125.72 107.427 129.702 110.93 134.47 110.673C135.607 115.465 139.984 118.409 144.886 117.326C150.302 116.172 155.966 112.039 162.677 117.422C164.102 112.159 162.196 107.663 159.004 104.173L158.925 104.186Z" fill="#8CC747"/>
<path d="M137.048 162C126.878 176.237 107.11 178.939 92.925 168.055C78.7056 157.161 75.4248 136.787 85.594 122.55C95.7631 108.313 115.843 86.5109 138.646 103.995C160.498 120.739 147.217 147.763 137.048 162Z" fill="#FCAF17"/>
<path d="M125.295 158.853C124.989 158.611 124.642 158.506 124.254 158.539C121.769 158.878 119.432 157.08 119.017 154.546C118.877 153.751 118.172 153.199 117.385 153.3C116.633 153.411 116.118 154.121 116.224 154.905C116.885 159.018 120.667 161.931 124.69 161.38C125.442 161.269 125.957 160.559 125.851 159.774C125.781 159.377 125.576 159.051 125.27 158.808L125.295 158.853Z" fill="black"/>
<path d="M110.163 147.239C109.857 146.996 109.51 146.891 109.122 146.924C106.637 147.264 104.3 145.465 103.885 142.932C103.745 142.137 103.04 141.585 102.253 141.685C101.501 141.796 100.986 142.506 101.092 143.291C101.753 147.404 105.535 150.317 109.558 149.765C110.31 149.654 110.825 148.945 110.719 148.16C110.649 147.762 110.444 147.437 110.138 147.194L110.163 147.239Z" fill="black"/>
<path d="M95.05 135.592C94.7444 135.349 94.3974 135.244 94.0092 135.277C91.5244 135.617 89.1873 133.818 88.7725 131.285C88.632 130.49 87.927 129.938 87.1403 130.038C86.3883 130.15 85.8734 130.859 85.9792 131.644C86.6402 135.757 90.422 138.67 94.4456 138.118C95.1976 138.007 95.7125 137.297 95.6068 136.513C95.5365 136.115 95.3312 135.79 95.0256 135.547L95.05 135.592Z" fill="black"/>
<path d="M140.359 137.778C140.054 137.535 139.707 137.43 139.319 137.463C136.834 137.802 134.497 136.004 134.082 133.47C133.941 132.675 133.236 132.123 132.45 132.224C131.698 132.335 131.183 133.045 131.288 133.829C131.949 137.943 135.731 140.855 139.755 140.304C140.507 140.193 141.022 139.483 140.916 138.699C140.846 138.301 140.641 137.976 140.335 137.733L140.359 137.778Z" fill="black"/>
<path d="M125.196 126.154C124.89 125.911 124.543 125.806 124.155 125.839C121.67 126.179 119.333 124.38 118.918 121.847C118.778 121.052 118.073 120.5 117.286 120.6C116.534 120.712 116.019 121.421 116.125 122.206C116.786 126.319 120.568 129.232 124.592 128.68C125.344 128.569 125.858 127.86 125.753 127.075C125.682 126.677 125.477 126.352 125.172 126.109L125.196 126.154Z" fill="black"/>
<path d="M110.066 114.541C109.761 114.298 109.414 114.193 109.026 114.226C106.541 114.565 104.204 112.767 103.789 110.233C103.648 109.438 102.943 108.886 102.157 108.987C101.405 109.098 100.89 109.808 100.996 110.593C101.657 114.706 105.438 117.618 109.462 117.067C110.214 116.956 110.729 116.246 110.623 115.462C110.553 115.064 110.348 114.739 110.042 114.496L110.066 114.541Z" fill="black"/>
<path d="M126.178 143.105C125.873 142.862 125.526 142.757 125.138 142.79C123.953 142.958 122.728 142.626 121.742 141.876C120.756 141.126 120.101 140.025 119.901 138.798C119.76 138.003 119.055 137.451 118.269 137.551C117.517 137.662 117.002 138.372 117.108 139.157C117.424 141.134 118.478 142.92 120.076 144.156C121.673 145.392 123.637 145.911 125.564 145.666C126.316 145.555 126.831 144.845 126.725 144.061C126.655 143.663 126.449 143.337 126.144 143.094L126.178 143.105Z" fill="black"/>
<path d="M111.066 131.458C110.76 131.215 110.413 131.11 110.025 131.143C107.54 131.483 105.203 129.685 104.788 127.151C104.648 126.356 103.943 125.804 103.156 125.905C102.404 126.016 101.889 126.725 101.995 127.51C102.656 131.623 106.438 134.536 110.461 133.985C111.213 133.873 111.728 133.164 111.623 132.379C111.552 131.982 111.347 131.656 111.041 131.413L111.066 131.458Z" fill="black"/>
<path d="M133.787 117.598C133.481 117.355 133.134 117.25 132.746 117.283C131.994 117.394 131.479 118.104 131.585 118.888C131.901 120.865 132.956 122.652 134.553 123.888C136.151 125.123 138.114 125.642 140.041 125.397C140.793 125.286 141.308 124.576 141.202 123.792C141.062 122.997 140.357 122.445 139.57 122.546C138.385 122.714 137.16 122.381 136.174 121.631C135.188 120.881 134.534 119.78 134.333 118.553C134.263 118.156 134.058 117.83 133.752 117.587L133.787 117.598Z" fill="black"/>
<path d="M125.531 111.224C125.225 110.981 124.878 110.876 124.49 110.909C122.005 111.249 119.668 109.45 119.253 106.917C119.113 106.122 118.408 105.57 117.621 105.67C116.869 105.782 116.354 106.491 116.46 107.276C117.121 111.389 120.903 114.302 124.926 113.75C125.678 113.639 126.193 112.93 126.088 112.145C126.017 111.747 125.812 111.422 125.506 111.179L125.531 111.224Z" fill="black"/>
<path d="M112.06 162.916C111.755 162.673 111.408 162.568 111.02 162.601C109.834 162.769 108.61 162.436 107.624 161.687C106.637 160.937 105.983 159.836 105.783 158.608C105.642 157.813 104.937 157.261 104.151 157.362C103.398 157.473 102.884 158.183 102.989 158.968C103.306 160.945 104.36 162.731 105.958 163.967C107.555 165.203 109.519 165.722 111.445 165.477C112.198 165.366 112.712 164.656 112.607 163.871C112.536 163.474 112.331 163.148 112.026 162.905L112.06 162.916Z" fill="black"/>
<path d="M96.9379 151.304C96.6323 151.061 96.2853 150.956 95.8971 150.989C93.4123 151.328 91.0752 149.53 90.6604 146.996C90.5199 146.201 89.8149 145.649 89.0282 145.75C88.2762 145.861 87.7613 146.571 87.867 147.355C88.5281 151.469 92.3099 154.381 96.3335 153.83C97.0855 153.719 97.6004 153.009 97.4946 152.225C97.4244 151.827 97.2191 151.502 96.9135 151.259L96.9379 151.304Z" fill="black"/>
<path d="M162.594 184.076C158.342 185.019 155.515 187.026 152.534 188.669C149.608 190.303 147.022 192.567 144.14 194.055C142.964 193.04 143.608 192.308 144.018 191.822C148.262 186.776 153.477 182.894 159.212 179.751C160.198 179.201 161.334 178.855 162.465 178.613C165.213 178.011 167.439 179.315 168.1 182.134C168.53 183.956 168.388 185.924 168.62 187.793C168.776 189.031 169.156 190.23 169.435 191.505C171.905 191.56 173.379 190.178 175.064 189.415C177.509 188.324 179.849 186.965 182.357 186.105C186.333 184.761 189.103 186.018 190.576 190.006C191.344 192.116 191.694 194.47 191.704 196.722C191.705 199.183 191.064 201.663 190.672 204.111C190.611 204.49 190.446 204.863 190.246 205.174C189.709 205.991 188.971 206.775 187.942 206.412C187.319 206.198 186.577 205.499 186.439 204.902C185.902 202.465 185.613 199.996 185.187 197.54C184.943 196.064 184.612 194.615 184.271 192.846C183.087 193.177 182.135 193.262 181.329 193.654C179.598 194.483 177.969 195.501 176.272 196.393C175.08 197.013 173.905 197.665 172.635 198.103C166.873 200.021 163.232 197.523 162.829 191.475C162.747 190.339 162.857 189.182 162.831 188.036C162.798 186.915 162.734 185.811 162.65 184.066L162.594 184.076Z" fill="white"/>
<path d="M1399.28 739.491C1399.67 740.802 1399.95 742.092 1400.14 743.319C1400.46 745.493 1400.48 747.532 1400.28 749.445C1400.28 749.445 1400.29 749.466 1400.28 749.497C1400.27 749.632 1400.24 749.778 1400.23 749.913C1400.23 749.913 1400.24 749.934 1400.23 749.965C1400.09 750.964 1399.9 751.941 1399.64 752.877C1397.92 759.25 1387.97 769.898 1380.72 773.705C1380.66 773.737 1380.59 773.768 1380.53 773.799C1380.53 773.799 1380.51 773.809 1380.49 773.82C1379.51 774.307 1378.46 774.826 1377.37 775.292C1376.24 775.801 1375.04 776.267 1373.8 776.702C1373.46 776.816 1373.11 776.941 1372.77 777.055C1371.03 777.635 1369.18 778.111 1367.3 778.452C1362.49 779.309 1357.32 779.23 1352.2 777.341C1348.28 775.89 1344.83 773.119 1342.01 769.85C1341.83 769.631 1341.63 769.392 1341.45 769.173C1341.29 768.965 1341.12 768.788 1340.97 768.58C1340.68 768.205 1340.39 767.83 1340.12 767.445C1339.68 766.81 1339.24 766.196 1338.85 765.561C1338.84 765.54 1338.82 765.498 1338.81 765.478C1338.06 764.27 1337.38 763.053 1336.78 761.845C1335.22 758.702 1334.31 755.654 1334.13 753.282C1333.9 750.287 1333.92 747.76 1334.21 745.441C1334.33 744.421 1334.51 743.423 1334.72 742.436C1335.13 740.626 1335.69 738.869 1336.4 737.04C1336.48 736.842 1336.55 736.655 1336.63 736.458C1336.86 735.876 1337.17 735.283 1337.53 734.691C1337.94 733.994 1338.42 733.288 1338.93 732.592C1340.03 731.116 1341.33 729.693 1342.48 728.498C1342.91 728.052 1343.33 727.636 1343.69 727.273C1343.98 727.003 1344.24 726.743 1344.49 726.514C1345.34 725.704 1345.9 725.216 1345.9 725.216C1345.9 725.216 1345.97 725.133 1346.11 725.008C1346.26 724.884 1346.45 724.686 1346.72 724.448C1346.79 724.385 1346.87 724.323 1346.96 724.25C1347.16 724.074 1347.4 723.876 1347.66 723.669C1347.7 723.648 1347.72 723.638 1347.75 723.596C1348.49 723.025 1349.4 722.34 1350.52 721.603C1350.89 721.364 1351.29 721.115 1351.71 720.855C1352.25 720.534 1352.84 720.191 1353.46 719.88C1353.71 719.756 1353.99 719.621 1354.24 719.496C1354.38 719.424 1354.53 719.351 1354.67 719.278C1355.76 718.739 1356.97 718.241 1358.27 717.754C1358.33 717.723 1358.41 717.681 1358.49 717.671C1361.45 716.614 1364.91 715.776 1368.82 715.469C1369.89 715.377 1370.96 715.368 1372 715.421C1372.1 715.421 1372.2 715.421 1372.32 715.442C1372.42 715.442 1372.53 715.442 1372.64 715.463C1372.73 715.474 1372.78 715.474 1372.86 715.484C1372.94 715.495 1373 715.495 1373.08 715.506C1373.16 715.516 1373.25 715.527 1373.32 715.516C1373.37 715.516 1373.42 715.516 1373.45 715.527C1373.51 715.527 1373.56 715.527 1373.62 715.548C1373.7 715.558 1373.76 715.558 1373.84 715.569L1373.86 715.558C1373.94 715.569 1374.03 715.579 1374.09 715.6C1374.17 715.611 1374.26 715.621 1374.34 715.632C1374.34 715.632 1374.39 715.632 1374.4 715.653C1374.42 715.642 1374.46 715.674 1374.51 715.653C1374.57 715.674 1374.64 715.663 1374.7 715.684C1374.76 715.684 1374.79 715.695 1374.84 715.695C1375.07 715.737 1375.3 715.779 1375.53 715.821C1376.62 716.03 1377.66 716.291 1378.69 716.636C1379.28 716.834 1379.87 717.033 1380.46 717.283C1380.53 717.304 1380.57 717.335 1380.63 717.356C1381.15 717.565 1381.66 717.804 1382.17 718.044C1382.34 718.138 1382.54 718.222 1382.72 718.315C1383.13 718.524 1383.53 718.743 1383.92 718.962C1384.87 719.504 1385.79 720.108 1386.65 720.744C1389.89 723.13 1392.63 726.149 1394.73 729.386C1395.07 729.917 1395.39 730.458 1395.71 731C1395.74 731.062 1395.76 731.104 1395.79 731.166C1397.45 734.101 1398.6 736.848 1399.36 739.428L1399.28 739.491Z" fill="#F99D22"/>
<path d="M1349.74 727.68C1349.74 727.68 1346.94 728.477 1347.14 728.893C1347.34 729.288 1349.35 728.781 1349.24 729.353C1349.16 729.914 1346.97 731.908 1347.04 732.262C1347.09 732.626 1349.62 730.539 1350.39 730.519C1351.14 730.509 1350.77 733.285 1351.16 733.327C1352.2 733.484 1351.41 729.99 1352.48 729.586C1353.56 729.182 1355.02 730.993 1355.33 730.712C1355.76 730.318 1353.4 728.121 1353.4 728.121C1353.4 728.121 1356.15 727.584 1356.2 727.168C1356.26 726.752 1353.22 726.706 1353.22 726.706C1353.22 726.706 1354.25 724.587 1353.58 724.295C1352.92 724.003 1351.81 726.653 1351.48 726.455C1351.13 726.267 1348.92 725.287 1348.83 725.931C1348.73 726.576 1349.5 727.617 1349.79 727.731L1349.74 727.68Z" fill="#8CC747"/>
<path d="M1416.19 704.022C1419.23 703.18 1421.74 704.534 1422.6 707.479C1424.06 712.472 1419.8 720.142 1414.72 721.589C1411.27 722.586 1407.69 719.922 1407.43 716.172C1407.09 711.629 1411.7 705.263 1416.19 703.998L1416.19 704.022ZM1417.54 706.892C1413.57 707.381 1410.06 713.225 1411.17 716.734C1411.45 717.672 1412.94 718.47 1413.83 718.192C1417.24 717.133 1420.19 711.876 1419.12 708.406C1418.9 707.703 1417.92 706.852 1417.54 706.892Z" fill="white"/>
<path d="M1434.75 736.125C1435.27 739.817 1432.75 743.785 1429.29 744.704C1426.79 745.378 1424.94 743.951 1424.87 741.324C1424.78 737.679 1426.21 734.871 1429.55 733.242C1432.17 731.965 1434.34 733.219 1434.74 736.101L1434.75 736.125ZM1430.96 736.735C1429.33 736.19 1428.51 737.137 1427.81 738.204C1427.14 739.208 1427.47 739.774 1429.22 740.772C1430.5 739.732 1431.41 738.522 1430.96 736.735Z" fill="white"/>
<path d="M1444.26 722.02C1443.82 718.687 1446.15 715.368 1449.44 714.655C1451.11 714.292 1452.78 715.365 1453.14 717.051C1453.82 720.334 1451.51 724.29 1448.3 725.339C1446.4 725.954 1444.57 724.466 1444.26 722.02ZM1449.44 718.097C1447.68 718.055 1447 719.114 1446.49 720.3C1446.39 720.562 1446.48 721.046 1446.7 721.237C1446.92 721.451 1447.47 721.664 1447.69 721.52C1448.94 720.744 1449.94 719.793 1449.46 718.066L1449.44 718.097Z" fill="white"/>
<path d="M1445.63 1591.15C1441.38 1591.82 1438.47 1593.63 1435.43 1595.08C1432.45 1596.51 1429.76 1598.59 1426.83 1599.89C1425.73 1598.81 1426.41 1598.13 1426.84 1597.68C1431.33 1592.95 1436.71 1589.44 1442.55 1586.68C1443.56 1586.2 1444.7 1585.92 1445.83 1585.75C1448.57 1585.32 1450.69 1586.74 1451.18 1589.56C1451.49 1591.39 1451.23 1593.32 1451.35 1595.18C1451.43 1596.41 1451.73 1597.61 1451.93 1598.89C1454.36 1599.09 1455.9 1597.82 1457.61 1597.16C1460.08 1596.24 1462.47 1595.03 1465 1594.34C1469 1593.25 1471.66 1594.66 1472.87 1598.68C1473.5 1600.81 1473.71 1603.15 1473.58 1605.37C1473.44 1607.8 1472.66 1610.21 1472.12 1612.6C1472.04 1612.97 1471.85 1613.33 1471.64 1613.62C1471.06 1614.39 1470.28 1615.12 1469.29 1614.7C1468.69 1614.45 1468 1613.72 1467.9 1613.12C1467.51 1610.69 1467.38 1608.23 1467.11 1605.79C1466.95 1604.32 1466.71 1602.87 1466.48 1601.1C1465.3 1601.36 1464.35 1601.38 1463.53 1601.72C1461.78 1602.43 1460.11 1603.34 1458.38 1604.12C1457.17 1604.66 1455.97 1605.23 1454.69 1605.59C1448.89 1607.13 1445.45 1604.45 1445.42 1598.46C1445.4 1597.34 1445.58 1596.2 1445.62 1595.07C1445.66 1593.96 1445.66 1592.87 1445.68 1591.14L1445.63 1591.15Z" fill="white"/>
<path d="M1389.2 1614.74C1405.68 1607.93 1418.89 1629.28 1421.43 1637.91C1423.15 1643.69 1434.03 1671.04 1417.52 1677.83C1401.04 1684.64 1376.45 1682.76 1366.7 1662.81C1356.15 1641.25 1372.69 1621.53 1389.17 1614.73L1389.2 1614.74Z" fill="#975B2E"/>
<path d="M1418.31 1677.46C1430.16 1671.82 1433.1 1653.27 1424.87 1636C1416.63 1618.74 1400.35 1609.32 1388.49 1614.95C1376.64 1620.58 1373.7 1639.14 1381.94 1656.4C1390.17 1673.66 1406.45 1683.09 1418.31 1677.46Z" fill="#8CC747"/>
<path d="M1410.48 1657.44C1414.14 1655.76 1414.54 1648.83 1411.38 1641.97C1408.22 1635.1 1402.69 1630.89 1399.03 1632.57C1395.36 1634.25 1394.96 1641.18 1398.12 1648.05C1401.28 1654.91 1406.81 1659.12 1410.48 1657.44Z" fill="#B9D988"/>
<path d="M1388.18 1650.51C1387.27 1650.88 1386.15 1650.33 1385.69 1649.29C1385.23 1648.26 1385.59 1647.1 1386.5 1646.73C1387.41 1646.36 1389.88 1646.34 1390.33 1647.38C1390.79 1648.41 1389.1 1650.11 1388.18 1650.51Z" fill="black"/>
<path d="M1395.61 1662.72C1395.3 1663.73 1394.25 1664.15 1393.25 1663.68C1392.26 1663.22 1391.73 1662.03 1392.07 1661.02C1392.37 1660.01 1393.9 1658.13 1394.87 1658.58C1395.86 1659.05 1395.92 1661.71 1395.61 1662.72Z" fill="black"/>
<path d="M1393.81 1625.86C1393.35 1624.82 1393.71 1623.67 1394.62 1623.3C1395.53 1622.93 1396.66 1623.47 1397.11 1624.51C1397.57 1625.55 1397.89 1628.2 1396.98 1628.58C1396.06 1628.95 1394.27 1626.9 1393.78 1625.85L1393.81 1625.86Z" fill="black"/>
<path d="M1382.62 1632.53C1381.63 1632.07 1381.1 1630.88 1381.43 1629.87C1381.74 1628.86 1382.79 1628.45 1383.79 1628.91C1384.78 1629.37 1386.73 1631.25 1386.4 1632.26C1386.09 1633.27 1383.6 1633.02 1382.65 1632.54L1382.62 1632.53Z" fill="black"/>
<path d="M1417.47 1639.84C1418.38 1639.47 1419.5 1640.01 1419.96 1641.05C1420.42 1642.09 1420.06 1643.24 1419.15 1643.61C1418.24 1643.98 1415.78 1644 1415.32 1642.97C1414.86 1641.93 1416.55 1640.24 1417.47 1639.84Z" fill="black"/>
<path d="M1406.76 1628.57C1407.07 1627.56 1408.12 1627.15 1409.12 1627.61C1410.11 1628.07 1410.64 1629.27 1410.3 1630.27C1410 1631.28 1408.47 1633.16 1407.5 1632.71C1406.51 1632.25 1406.45 1629.59 1406.76 1628.57Z" fill="black"/>
<path d="M1407.51 1666.01C1407.97 1667.05 1407.61 1668.2 1406.7 1668.57C1405.79 1668.95 1404.66 1668.4 1404.2 1667.36C1403.75 1666.33 1403.43 1663.67 1404.34 1663.3C1405.25 1662.93 1407.05 1664.97 1407.54 1666.02L1407.51 1666.01Z" fill="black"/>
<path d="M1418.33 1659.3C1419.32 1659.76 1419.85 1660.95 1419.51 1661.96C1419.2 1662.97 1418.15 1663.38 1417.16 1662.92C1416.17 1662.46 1414.21 1660.58 1414.55 1659.57C1414.85 1658.56 1417.34 1658.81 1418.3 1659.29L1418.33 1659.3Z" fill="black"/>
<path d="M108.817 2102.25C106.354 2100.41 103.797 2098.32 99.6394 2099.58C99.8241 2095.58 102.787 2093.28 106.197 2092.15C104.508 2090.5 102.865 2088.52 99.5288 2088.94C100.302 2084.83 105.118 2084.01 108.644 2084.47C109.25 2080.84 111.402 2076.31 115.42 2076.74C114.077 2079.9 115.415 2082.14 116.438 2084.28C118.457 2081.22 121.448 2078.94 125.209 2079.94C122.85 2083.7 124.008 2086.85 124.99 2089.81C127.591 2088.45 130.586 2088.09 133.388 2089.96C129.024 2093.15 130.383 2097.45 130.053 2101.05C129.762 2104.3 127.25 2106.51 124.242 2106.35C123.525 2109.37 120.764 2111.23 117.672 2110.54C114.256 2109.81 110.683 2107.21 106.45 2110.6C105.551 2107.28 106.753 2104.45 108.767 2102.25L108.817 2102.25Z" fill="#8CC747"/>
<path d="M122.617 2138.72C129.031 2147.7 141.501 2149.41 150.449 2142.54C159.418 2135.67 161.487 2122.82 155.073 2113.84C148.658 2104.86 135.992 2091.11 121.608 2102.13C107.824 2112.7 116.202 2129.74 122.617 2138.72Z" fill="#FCAF17"/>
<path d="M130.03 2136.74C130.223 2136.58 130.442 2136.52 130.687 2136.54C132.254 2136.75 133.728 2135.62 133.99 2134.02C134.078 2133.52 134.523 2133.17 135.019 2133.23C135.494 2133.3 135.819 2133.75 135.752 2134.25C135.335 2136.84 132.949 2138.68 130.411 2138.33C129.937 2138.26 129.612 2137.81 129.679 2137.32C129.723 2137.07 129.853 2136.86 130.045 2136.71L130.03 2136.74Z" fill="black"/>
<path d="M139.575 2129.41C139.768 2129.26 139.987 2129.19 140.232 2129.21C141.799 2129.43 143.273 2128.29 143.535 2126.69C143.624 2126.19 144.068 2125.84 144.564 2125.91C145.039 2125.98 145.364 2126.43 145.297 2126.92C144.88 2129.52 142.494 2131.35 139.956 2131C139.482 2130.93 139.157 2130.49 139.224 2129.99C139.268 2129.74 139.398 2129.54 139.591 2129.38L139.575 2129.41Z" fill="black"/>
<path d="M149.108 2122.06C149.301 2121.91 149.52 2121.85 149.765 2121.87C151.332 2122.08 152.806 2120.95 153.068 2119.35C153.156 2118.85 153.601 2118.5 154.097 2118.56C154.572 2118.63 154.897 2119.08 154.83 2119.57C154.413 2122.17 152.027 2124.01 149.489 2123.66C149.015 2123.59 148.69 2123.14 148.757 2122.65C148.801 2122.39 148.931 2122.19 149.123 2122.04L149.108 2122.06Z" fill="black"/>
<path d="M120.528 2123.44C120.72 2123.29 120.939 2123.22 121.184 2123.24C122.751 2123.46 124.226 2122.32 124.487 2120.73C124.576 2120.23 125.021 2119.88 125.517 2119.94C125.991 2120.01 126.316 2120.46 126.249 2120.95C125.832 2123.55 123.447 2125.38 120.909 2125.04C120.434 2124.97 120.11 2124.52 120.176 2124.02C120.221 2123.77 120.35 2123.57 120.543 2123.42L120.528 2123.44Z" fill="black"/>
<path d="M130.092 2116.11C130.285 2115.96 130.504 2115.89 130.749 2115.91C132.316 2116.13 133.791 2114.99 134.052 2113.39C134.141 2112.89 134.585 2112.54 135.082 2112.61C135.556 2112.68 135.881 2113.13 135.814 2113.62C135.397 2116.22 133.012 2118.05 130.474 2117.71C129.999 2117.63 129.674 2117.19 129.741 2116.69C129.785 2116.44 129.915 2116.24 130.108 2116.08L130.092 2116.11Z" fill="black"/>
<path d="M139.636 2108.79C139.829 2108.63 140.048 2108.57 140.292 2108.59C141.86 2108.8 143.334 2107.67 143.596 2106.07C143.684 2105.57 144.129 2105.22 144.625 2105.28C145.1 2105.35 145.424 2105.8 145.358 2106.3C144.941 2108.89 142.555 2110.73 140.017 2110.38C139.543 2110.31 139.218 2109.86 139.285 2109.37C139.329 2109.12 139.458 2108.91 139.651 2108.76L139.636 2108.79Z" fill="black"/>
<path d="M129.473 2126.8C129.665 2126.65 129.884 2126.58 130.129 2126.61C130.877 2126.71 131.649 2126.5 132.271 2126.03C132.893 2125.56 133.306 2124.86 133.432 2124.09C133.521 2123.59 133.966 2123.24 134.462 2123.3C134.936 2123.37 135.261 2123.82 135.194 2124.31C134.995 2125.56 134.33 2126.69 133.322 2127.47C132.314 2128.25 131.076 2128.57 129.86 2128.42C129.386 2128.35 129.061 2127.9 129.128 2127.41C129.172 2127.16 129.302 2126.95 129.495 2126.8L129.473 2126.8Z" fill="black"/>
<path d="M139.006 2119.46C139.198 2119.3 139.417 2119.24 139.662 2119.26C141.229 2119.47 142.704 2118.34 142.965 2116.74C143.054 2116.24 143.499 2115.89 143.995 2115.95C144.469 2116.02 144.794 2116.47 144.727 2116.97C144.31 2119.56 141.925 2121.4 139.387 2121.05C138.912 2120.98 138.588 2120.53 138.654 2120.04C138.699 2119.79 138.828 2119.58 139.021 2119.43L139.006 2119.46Z" fill="black"/>
<path d="M124.673 2110.71C124.866 2110.56 125.085 2110.49 125.33 2110.52C125.804 2110.59 126.129 2111.03 126.062 2111.53C125.863 2112.78 125.198 2113.9 124.19 2114.68C123.182 2115.46 121.944 2115.79 120.728 2115.63C120.254 2115.56 119.929 2115.12 119.996 2114.62C120.084 2114.12 120.529 2113.77 121.025 2113.84C121.773 2113.94 122.545 2113.73 123.168 2113.26C123.79 2112.79 124.202 2112.09 124.329 2111.32C124.373 2111.07 124.503 2110.86 124.695 2110.71L124.673 2110.71Z" fill="black"/>
<path d="M129.881 2106.69C130.074 2106.54 130.293 2106.47 130.538 2106.5C132.105 2106.71 133.579 2105.57 133.841 2103.98C133.93 2103.48 134.374 2103.13 134.871 2103.19C135.345 2103.26 135.67 2103.71 135.603 2104.2C135.186 2106.8 132.801 2108.63 130.263 2108.29C129.788 2108.22 129.463 2107.77 129.53 2107.27C129.574 2107.02 129.704 2106.82 129.897 2106.67L129.881 2106.69Z" fill="black"/>
<path d="M138.378 2139.3C138.571 2139.15 138.79 2139.08 139.035 2139.1C139.782 2139.21 140.555 2139 141.177 2138.52C141.799 2138.05 142.212 2137.36 142.338 2136.58C142.427 2136.08 142.871 2135.73 143.368 2135.8C143.842 2135.87 144.167 2136.31 144.1 2136.81C143.9 2138.06 143.235 2139.18 142.228 2139.96C141.22 2140.74 139.981 2141.07 138.766 2140.92C138.292 2140.85 137.967 2140.4 138.034 2139.9C138.078 2139.65 138.207 2139.45 138.4 2139.29L138.378 2139.3Z" fill="black"/>
<path d="M147.917 2131.98C148.11 2131.82 148.329 2131.76 148.574 2131.78C150.141 2131.99 151.615 2130.86 151.877 2129.26C151.966 2128.76 152.41 2128.41 152.907 2128.47C153.381 2128.54 153.706 2128.99 153.639 2129.48C153.222 2132.08 150.836 2133.92 148.298 2133.57C147.824 2133.5 147.499 2133.05 147.566 2132.56C147.61 2132.31 147.74 2132.1 147.933 2131.95L147.917 2131.98Z" fill="black"/>
<path d="M103.475 2153.05C106.615 2153.75 108.702 2155.23 110.904 2156.45C113.065 2157.65 114.975 2159.33 117.103 2160.42C117.972 2159.67 117.497 2159.13 117.193 2158.78C114.059 2155.05 110.207 2152.18 105.972 2149.86C105.244 2149.45 104.405 2149.2 103.57 2149.02C101.541 2148.57 99.8963 2149.54 99.4086 2151.62C99.0906 2152.97 99.1957 2154.42 99.0247 2155.8C98.9089 2156.71 98.6281 2157.6 98.4227 2158.54C96.5982 2158.58 95.5095 2157.56 94.2653 2157C92.4598 2156.19 90.7314 2155.19 88.8795 2154.55C85.943 2153.56 83.8969 2154.49 82.8094 2157.43C82.2425 2158.99 81.9839 2160.73 81.9762 2162.39C81.9758 2164.21 82.4486 2166.04 82.7386 2167.85C82.7836 2168.13 82.9056 2168.41 83.0528 2168.64C83.4493 2169.24 83.9946 2169.82 84.7543 2169.55C85.2148 2169.39 85.7629 2168.88 85.8647 2168.43C86.2612 2166.63 86.4749 2164.81 86.7889 2163C86.9691 2161.91 87.2138 2160.84 87.4656 2159.53C88.3404 2159.78 89.043 2159.84 89.6383 2160.13C90.9166 2160.74 92.1198 2161.49 93.3731 2162.15C94.2534 2162.61 95.1213 2163.09 96.0589 2163.41C100.315 2164.83 103.004 2162.99 103.301 2158.52C103.362 2157.68 103.28 2156.83 103.299 2155.98C103.324 2155.15 103.372 2154.34 103.433 2153.05L103.475 2153.05Z" fill="white"/>
<path d="M64.0148 1807.2C65.4855 1808.48 66.64 1810.05 67.6785 1811.69C70.1139 1815.58 71.6927 1819.79 72.2572 1824.36C72.364 1825.16 72.3663 1825.97 72.3686 1826.78C72.3574 1827.27 72.1725 1827.76 71.6942 1827.98C71.0919 1828.25 70.5911 1827.94 70.2001 1827.5C69.8171 1827.08 69.4518 1826.64 69.1219 1826.19C66.9875 1823.26 64.7645 1820.36 62.7638 1817.34C61.3777 1815.26 60.2414 1813.02 59.0422 1810.83C58.5321 1809.89 58.3295 1808.87 58.3297 1807.78C58.3578 1806 59.7571 1804.95 61.7829 1805.61C62.3413 1806 63.2498 1806.55 64.0308 1807.24L64.0148 1807.2ZM61.7571 1811.23C62.8605 1813.2 64.0268 1815.13 65.2462 1817.03C66.8851 1819.53 68.5868 1821.98 70.2886 1824.43C70.4118 1824.61 70.6157 1824.73 70.7744 1824.9C70.8602 1824.71 71.0134 1824.57 70.9832 1824.46C69.8166 1819.08 67.6739 1814.19 63.9705 1810.04C63.2798 1809.26 62.4537 1808.61 61.6453 1807.95C61.6373 1807.93 61.6115 1807.92 61.5858 1807.92C61.1524 1807.66 60.6495 1808.06 60.7171 1808.54C60.8683 1809.54 61.303 1810.41 61.7571 1811.23Z" fill="white" stroke="white"/>
<path d="M69.5661 1839.41C72.7637 1839.78 78.9295 1842.07 82.3014 1849.6C89.4348 1865.53 75.205 1882.73 57.1329 1879.48C41.6862 1876.7 33.0127 1855.92 43.5216 1843.67C48.5932 1837.75 51.7323 1836.41 55.9698 1835.1C59.8221 1833.91 63.546 1834.13 65.1549 1834.61" stroke="white" stroke-width="4" stroke-linecap="round"/>
</svg>
