<svg width="320" height="139" viewBox="0 0 320 139" fill="none" xmlns="http://www.w3.org/2000/svg">
<g clip-path="url(#clip0_71_3009)">
<path d="M303.375 53.4281C301.465 51.7361 299.974 49.6662 298.635 47.5014C295.497 42.3735 293.485 36.835 292.806 30.8507C292.677 29.7955 292.684 28.7358 292.692 27.6761C292.713 27.0275 292.962 26.3903 293.591 26.1142C294.384 25.7666 295.036 26.1755 295.542 26.7596C296.038 27.3203 296.511 27.8913 296.937 28.4827C299.694 32.3603 302.568 36.1868 305.148 40.1696C306.937 42.9155 308.395 45.8615 309.937 48.7432C310.593 49.9845 310.845 51.3195 310.83 52.7436C310.769 55.0772 308.922 56.4433 306.277 55.5463C305.551 55.031 304.368 54.2988 303.354 53.3815L303.375 53.4281ZM306.386 48.1882C304.967 45.5862 303.465 43.0485 301.892 40.5414C299.779 37.2433 297.582 34.0093 295.386 30.7755C295.227 30.5395 294.961 30.3779 294.755 30.1624C294.64 30.4073 294.438 30.5795 294.476 30.7296C295.933 37.7904 298.674 44.232 303.471 49.717C304.365 50.7423 305.439 51.6057 306.489 52.4793C306.499 52.5026 306.533 52.5157 306.566 52.5288C307.131 52.865 307.795 52.3513 307.713 51.7202C307.528 50.4115 306.97 49.2663 306.386 48.1882Z" fill="white"/>
<path d="M280.217 20.5286C280 23.2648 279.839 26.0038 279.598 28.7501C279.16 33.8347 278.192 38.7899 276.042 43.4576C275.336 45.0179 274.443 46.4662 273.057 47.4906C271.459 48.664 269.681 48.2211 268.81 46.4902C268.542 45.9409 268.346 45.3042 268.24 44.6833C268.1 43.8555 268.006 43.0073 268.049 42.1545C268.408 33.2133 272.252 25.69 277.669 18.8387C278.483 17.8425 280.122 18.3467 280.24 19.6293C280.262 19.8698 280.238 20.1307 280.194 20.5389L280.217 20.5286ZM276.461 23.3715C273.137 28.721 270.775 34.4268 270.374 40.8013C270.293 41.9485 270.44 43.1071 270.61 44.2556C270.62 44.2789 270.63 44.3022 270.641 44.3255C270.796 44.869 271.506 45.0302 271.903 44.6056C273.044 43.4662 273.557 42.546 274.171 40.7759C275.267 37.5711 276.082 34.2952 276.468 30.9292C276.764 28.4364 276.937 25.9146 277.204 23.1012C276.624 23.2999 276.51 23.2942 276.474 23.338L276.461 23.3715Z" fill="white"/>
<path d="M307.862 14.7951C310.804 15.6728 313.749 16.4937 316.639 17.5055C319.821 18.6119 322.973 19.8422 326.116 21.0491C327.816 21.6933 329.302 22.7371 330.523 24.0638C332.415 26.0969 331.539 28.7884 328.83 29.3929C328.426 29.4865 327.979 29.5438 327.56 29.4771C325.706 29.1785 323.776 29.0244 321.983 28.4211C317.923 27.0881 314.344 24.8219 311.023 22.1925C309.115 20.6944 307.353 19.0212 305.59 17.348C305.395 17.1557 305.199 16.9635 305.027 16.761C304.112 15.689 305.105 14.0863 306.468 14.4057C306.93 14.5088 307.366 14.6789 307.839 14.8053L307.862 14.7951ZM309.597 18.815C313.31 21.8289 317.355 24.3353 321.868 25.9418C323.256 26.4449 324.723 26.7467 326.159 26.9786C326.272 26.9843 326.373 27.0236 326.487 27.0293C327.732 27.206 328.285 25.4899 327.164 24.8977C325.287 23.9141 323.45 22.8298 321.481 22.0809C317.722 20.6719 313.885 19.4642 310.073 18.1893C309.983 18.1734 309.893 18.1574 309.802 18.1414C309.471 18.1475 309.301 18.5835 309.564 18.8019L309.597 18.815Z" fill="white"/>
<path d="M14.9753 94.4646C13.3566 93.2499 11.6763 91.882 8.9435 92.7074C9.06488 90.0762 11.0122 88.5659 13.2531 87.8264C12.1432 86.7394 11.0637 85.4399 8.87082 85.7116C9.37904 83.0104 12.5442 82.4764 14.8614 82.7767C15.2599 80.39 16.6743 77.4152 19.315 77.696C18.4324 79.7756 19.3118 81.2449 19.9842 82.6516C21.311 80.641 23.277 79.1406 25.749 79.8006C24.1987 82.2695 24.9594 84.3373 25.6052 86.2835C27.3144 85.3921 29.283 85.157 31.1245 86.3825C28.2564 88.4836 29.1497 91.3084 28.9324 93.6717C28.7412 95.8082 27.0903 97.2603 25.1135 97.1541C24.6422 99.1408 22.8276 100.361 20.7952 99.912C18.5501 99.4336 16.2017 97.7203 13.4196 99.9518C12.8287 97.7701 13.6191 95.9059 14.9423 94.459L14.9753 94.4646Z" fill="#8CC747"/>
<path d="M24.0451 118.433C28.2611 124.336 36.4568 125.456 42.3375 120.944C48.2326 116.427 49.5928 107.981 45.3768 102.078C41.1609 96.1757 32.8361 87.1369 23.3823 94.3855C14.3231 101.327 19.8292 112.531 24.0451 118.433Z" fill="#FCAF17"/>
<path d="M28.9179 117.128C29.0446 117.028 29.1884 116.984 29.3493 116.998C30.3795 117.139 31.3485 116.393 31.5204 115.343C31.5787 115.013 31.8709 114.784 32.1971 114.826C32.5089 114.872 32.7223 115.166 32.6785 115.492C32.4044 117.197 30.8366 118.404 29.1685 118.176C28.8567 118.13 28.6432 117.835 28.6871 117.51C28.7162 117.345 28.8013 117.21 28.928 117.11L28.9179 117.128Z" fill="black"/>
<path d="M35.1913 112.313C35.318 112.212 35.4618 112.169 35.6228 112.182C36.653 112.323 37.6219 111.578 37.7939 110.527C37.8521 110.198 38.1444 109.969 38.4705 110.011C38.7823 110.057 38.9958 110.351 38.9519 110.676C38.6779 112.381 37.11 113.589 35.4419 113.36C35.1301 113.314 34.9167 113.02 34.9605 112.695C34.9896 112.53 35.0748 112.395 35.2015 112.294L35.1913 112.313Z" fill="black"/>
<path d="M41.4567 107.484C41.5834 107.384 41.7273 107.34 41.8882 107.354C42.9184 107.495 43.8873 106.749 44.0593 105.699C44.1175 105.369 44.4098 105.14 44.7359 105.182C45.0477 105.228 45.2612 105.522 45.2173 105.847C44.9433 107.553 43.3754 108.76 41.7073 108.532C41.3955 108.486 41.182 108.191 41.2259 107.866C41.255 107.701 41.3401 107.566 41.4668 107.466L41.4567 107.484Z" fill="black"/>
<path d="M22.6725 108.391C22.7993 108.29 22.9431 108.247 23.104 108.26C24.1342 108.401 25.1031 107.656 25.2751 106.605C25.3333 106.276 25.6256 106.047 25.9517 106.088C26.2635 106.135 26.477 106.429 26.4331 106.754C26.1591 108.459 24.5912 109.667 22.9231 109.438C22.6113 109.392 22.3979 109.098 22.4417 108.773C22.4708 108.608 22.5559 108.473 22.6826 108.372L22.6725 108.391Z" fill="black"/>
<path d="M28.9587 103.572C29.0854 103.471 29.2292 103.428 29.3901 103.441C30.4203 103.582 31.3892 102.836 31.5612 101.786C31.6194 101.456 31.9117 101.228 32.2379 101.269C32.5496 101.315 32.7631 101.61 32.7193 101.935C32.4452 103.64 30.8773 104.848 29.2092 104.619C28.8975 104.573 28.684 104.279 28.7279 103.954C28.757 103.789 28.842 103.654 28.9687 103.553L28.9587 103.572Z" fill="black"/>
<path d="M35.2311 98.7571C35.3578 98.6563 35.5016 98.6128 35.6626 98.6266C36.6927 98.7673 37.6617 98.0218 37.8337 96.9714C37.8919 96.6418 38.1842 96.4129 38.5103 96.4547C38.8221 96.5007 39.0356 96.795 38.9917 97.1202C38.7177 98.8255 37.1498 100.033 35.4817 99.8045C35.1699 99.7584 34.9565 99.4642 35.0003 99.1389C35.0294 98.9741 35.1145 98.8392 35.2412 98.7385L35.2311 98.7571Z" fill="black"/>
<path d="M28.5514 110.6C28.6781 110.499 28.8219 110.455 28.9829 110.469C29.4742 110.539 29.9819 110.401 30.3908 110.09C30.7997 109.779 31.0709 109.323 31.154 108.814C31.2122 108.484 31.5045 108.255 31.8306 108.297C32.1424 108.343 32.3559 108.638 32.312 108.963C32.1808 109.782 31.7437 110.523 31.0814 111.035C30.4191 111.548 29.6052 111.763 28.8063 111.661C28.4945 111.615 28.281 111.321 28.3249 110.996C28.354 110.831 28.4391 110.696 28.5658 110.595L28.5514 110.6Z" fill="black"/>
<path d="M34.8168 105.771C34.9435 105.67 35.0873 105.627 35.2483 105.64C36.2784 105.781 37.2474 105.035 37.4193 103.985C37.4776 103.655 37.7698 103.427 38.096 103.468C38.4078 103.514 38.6213 103.809 38.5774 104.134C38.3034 105.839 36.7355 107.047 35.0674 106.818C34.7556 106.772 34.5421 106.478 34.586 106.153C34.6151 105.988 34.7002 105.853 34.8269 105.752L34.8168 105.771Z" fill="black"/>
<path d="M25.3973 100.024C25.524 99.9237 25.6678 99.8802 25.8288 99.8939C26.1406 99.94 26.354 100.234 26.3102 100.559C26.179 101.379 25.7418 102.12 25.0795 102.632C24.4173 103.144 23.6033 103.36 22.8044 103.258C22.4927 103.212 22.2792 102.918 22.323 102.592C22.3813 102.263 22.6735 102.034 22.9997 102.076C23.4911 102.145 23.9987 102.008 24.4076 101.697C24.8165 101.386 25.0877 100.929 25.1708 100.421C25.1999 100.256 25.285 100.121 25.4117 100.02L25.3973 100.024Z" fill="black"/>
<path d="M28.82 97.3821C28.9467 97.2814 29.0905 97.2378 29.2515 97.2516C30.2816 97.3923 31.2505 96.6468 31.4225 95.5964C31.4807 95.2667 31.773 95.0379 32.0992 95.0797C32.4109 95.1258 32.6245 95.4199 32.5806 95.7452C32.3065 97.4505 30.7387 98.658 29.0706 98.4295C28.7588 98.3834 28.5453 98.0892 28.5891 97.7639C28.6183 97.5991 28.7034 97.4641 28.8301 97.3634L28.82 97.3821Z" fill="black"/>
<path d="M34.4045 118.813C34.5312 118.712 34.675 118.668 34.8359 118.682C35.3273 118.752 35.8349 118.614 36.2438 118.303C36.6527 117.992 36.9239 117.536 37.007 117.027C37.0652 116.697 37.3575 116.468 37.6837 116.51C37.9954 116.556 38.2089 116.85 38.1651 117.176C38.0339 117.995 37.5967 118.736 36.9344 119.248C36.2722 119.761 35.4582 119.976 34.6593 119.874C34.3475 119.828 34.1341 119.534 34.1779 119.209C34.207 119.044 34.2921 118.909 34.4188 118.808L34.4045 118.813Z" fill="black"/>
<path d="M40.674 113.999C40.8007 113.898 40.9445 113.854 41.1055 113.868C42.1357 114.009 43.1046 113.263 43.2765 112.213C43.3348 111.883 43.627 111.654 43.9532 111.696C44.265 111.742 44.4785 112.036 44.4346 112.362C44.1606 114.067 42.5927 115.274 40.9246 115.046C40.6128 115 40.3993 114.706 40.4432 114.38C40.4723 114.216 40.5574 114.081 40.6841 113.98L40.674 113.999Z" fill="black"/>
<path d="M11.4644 127.853C13.5285 128.31 14.9004 129.285 16.3475 130.082C17.7676 130.875 19.0229 131.974 20.4217 132.697C20.9926 132.204 20.6802 131.848 20.481 131.613C18.4212 129.163 15.8895 127.279 13.106 125.753C12.6276 125.486 12.0761 125.318 11.5271 125.201C10.1935 124.909 9.11258 125.542 8.79204 126.91C8.58304 127.795 8.6521 128.75 8.53971 129.657C8.4636 130.258 8.27909 130.84 8.1441 131.459C6.94496 131.485 6.22941 130.814 5.41163 130.444C4.22502 129.915 3.08898 129.255 1.87183 128.838C-0.0581596 128.185 -1.40294 128.795 -2.11766 130.731C-2.49029 131.755 -2.66022 132.898 -2.66528 133.991C-2.66554 135.186 -2.3548 136.389 -2.16424 137.578C-2.13465 137.761 -2.05444 137.943 -1.95773 138.093C-1.6971 138.49 -1.33869 138.87 -0.839375 138.695C-0.536719 138.591 -0.176532 138.251 -0.10961 137.961C0.150993 136.778 0.291425 135.58 0.497835 134.388C0.616261 133.672 0.777115 132.968 0.942551 132.11C1.51752 132.271 1.97933 132.311 2.37055 132.502C3.21075 132.904 4.00151 133.398 4.82523 133.831C5.40384 134.132 5.97424 134.449 6.59048 134.661C9.38766 135.592 11.1548 134.38 11.3505 131.444C11.3901 130.893 11.3367 130.331 11.3492 129.775C11.3653 129.231 11.3967 128.695 11.4373 127.848L11.4644 127.853Z" fill="white"/>
</g>
<defs>
<clipPath id="clip0_71_3009">
<rect width="320" height="139" fill="white"/>
</clipPath>
</defs>
</svg>
