<svg width="562" height="413" viewBox="0 0 562 413" fill="none" xmlns="http://www.w3.org/2000/svg">
<mask id="mask0_67_1482" style="mask-type:alpha" maskUnits="userSpaceOnUse" x="0" y="33" width="538" height="380">
<path d="M22.0764 91.2737C0.682047 144.506 -16.4749 268.673 26.9908 366.815C34.7261 384.281 60.1799 394.497 80.1326 398.393C100.085 402.288 326.744 434.576 495.93 388.434C512.901 381.482 525.777 365.186 528.529 345.269C541.896 248.364 538.325 158.593 525.613 99.9647C521.223 79.6494 507.462 64.4039 489.737 57.6684C403.308 24.8235 145.954 26.1272 60.1799 53.5763C42.6844 59.1893 29.5136 72.7328 22.0436 91.2737H22.0764Z" fill="url(#paint0_linear_67_1482)"/>
</mask>
<g mask="url(#mask0_67_1482)">
<path d="M18.2408 91.2737C-3.31287 144.506 -20.5976 268.673 23.1919 366.815C30.9847 384.281 56.6282 394.497 76.7295 398.393C96.8309 402.288 325.178 434.576 495.624 388.434C512.721 381.482 525.693 365.186 528.466 345.269C541.933 248.364 538.335 158.593 525.528 99.9647C521.105 79.6494 507.242 64.4039 489.385 57.6684C402.312 24.8235 143.041 26.1272 56.6282 53.5763C39.0023 59.1893 25.7334 72.7328 18.2078 91.2737H18.2408Z" fill="url(#paint1_linear_67_1482)"/>
<path d="M18.2408 91.2737C-3.31287 144.506 -20.5976 268.673 23.1919 366.815C30.9847 384.281 56.6282 394.497 76.7295 398.393C96.8309 402.288 325.178 434.576 495.624 388.434C512.721 381.482 525.693 365.186 528.466 345.269C541.933 248.364 538.335 158.593 525.528 99.9647C521.105 79.6494 507.242 64.4039 489.385 57.6684C402.312 24.8235 143.041 26.1272 56.6282 53.5763C39.0023 59.1893 25.7334 72.7328 18.2078 91.2737H18.2408Z" fill="#6722A3" fill-opacity="0.5"/>
<path d="M160.538 157.986C159.961 156.592 158.894 154.728 159.366 153.43C160.998 153.046 161.191 155.793 161.886 156.755C162.319 157.354 163.56 156.707 164.467 157.509C164.253 158.168 163.199 158.73 162.527 159.166C163.155 160 163.903 160.816 164.034 161.837L163.875 162.51C162.37 162.784 161.807 160.709 161.338 159.562C160.086 159.863 158.832 160.156 157.577 160.44C157.995 161.359 158.597 162.39 158.462 163.358L158.151 163.767C156.742 163.513 156.624 162.407 156.113 161.221L156.013 160.985C154.836 161.325 153.778 161.634 152.574 161.891C153.012 162.748 153.627 163.722 153.595 164.655L153.358 165.221C152.004 165.286 151.617 163.712 151.048 162.646C149.769 162.973 148.102 163.451 146.829 163.65C147.459 164.929 148.267 166.114 147.851 167.445L147.322 167.658C145.917 166.611 146.261 164.148 144.302 164.579C142.546 164.966 141.049 164.959 141.391 167.438C142.443 168.833 146.341 168.071 147.102 169.647C146.319 171.165 142.785 169.586 141.41 169.166C141.489 172.072 141.67 180.128 141.391 182.828C144.335 183.623 148.811 184.151 151.984 184.649L176.164 188.462C192.522 191.16 190.209 188.872 189.982 205.874C196.804 207.01 203.664 207.896 210.512 208.857C230.139 211.611 249.78 214.292 269.394 217.141C270.045 217.235 270.423 217.465 270.933 217.854C271.463 218.248 271.983 218.652 272.495 219.066C272.58 221.832 273.268 227.374 271.445 229.217C271.138 229.53 270.253 230.08 269.833 230.344C269.245 234.871 269.55 242.716 269.519 247.52C269.431 261.177 270.033 274.617 270.035 288.306L270.52 361.673L270.533 390.854C270.538 398.222 270.445 405.652 270.98 413H267.483H256.475H253.074H245.48H242.505H234.99H232.017H223.491H220.689H214.988H211.878H199.016H195.828H179.487H176.523H169.013H165.976H157.688H154.512H146.02H143.015H127.992H124.511H114.451H110.985H100.018H97.0101H84.0176H80.8748H59.4656H56.4653H51.5041H48.0903H36.8116H33.2481C33.0293 371.62 33.2856 330.238 34.017 288.864C34.2711 271.021 33.9364 254.278 34.5227 236.261C30.2097 234.641 31.412 231.759 31.5047 227.793C31.5368 226.418 31.9727 225.616 32.639 224.415C39.8932 220.155 78.3503 192.016 82.5716 191.563C84.6736 191.338 86.8721 191.774 88.9501 192.077C93.3963 192.723 99.9491 194.102 104.275 194.034C107.854 191.649 123.543 181.231 126.43 181.022C130.275 180.744 135.177 182.155 139.085 182.667C138.946 179.874 139.365 171.311 138.846 169.232C138.153 168.575 135.815 167.915 134.688 167.488C133.504 167.778 132.668 167.918 131.459 168.091C129.992 168.24 130.4 168.777 129.174 168.63C128.142 169.192 126.532 169.683 125.292 170.245C125.065 171.241 126.732 172.264 126.374 173.798L125.745 173.964C123.728 173.433 124.755 171.72 123.51 170.766C122.501 170.848 121.928 171.079 121.424 170.133C121.547 169.115 122.668 169.222 122.549 168.499C122.344 167.251 120.669 165.004 122.362 164.325C123.554 165.015 123.783 166.852 124.168 168.266L129.408 166.973C128.803 165.827 127.915 164.887 128.591 163.631L129.099 163.706C129.87 164.375 130.114 165.347 130.458 166.312C132.257 165.809 133.663 165.408 135.501 165.096C135.94 165.174 136.345 164.911 136.765 164.712C138.815 163.622 141.66 163.469 144.052 162.58C145.01 161.904 145.07 161.923 146.228 161.787C147.247 161.517 149.099 161.245 149.686 160.702C149.904 158.969 148.853 157.808 149.536 157.111L150.032 157.2C151.667 160.194 151.609 160.112 154.927 159.338C154.582 158.353 154.202 157.499 154.278 156.458L154.554 155.916C155.699 156.149 156.05 157.722 156.438 158.754C157.858 158.448 159.092 158.174 160.538 157.986ZM269.692 399.072C270.175 397.51 270.275 357.453 269.785 355.666C269.012 364.492 269.817 375.706 269.504 384.727C269.45 386.285 269.448 397.98 269.692 399.072ZM268.75 256.481C268.737 253.202 269.628 234.351 268.523 232.666C268.516 240.099 268.276 249.051 268.588 256.385L268.75 256.481Z" fill="black"/>
<path d="M84.7383 205.377C104.073 208.329 124.328 210.782 143.768 213.329L166.747 216.366C169.316 216.695 173.609 217.411 176.027 217.596L176.523 413H169.013H165.976H157.688H154.512H146.02H143.015H127.992H124.511H114.451H110.985H100.018H97.0101H84.0176L84.7383 205.377Z" fill="#F8D50B"/>
<path d="M97.2287 352.574C106.605 352.081 116.382 353.055 125.786 353.093C126.37 353.096 126.991 353.338 127.485 353.64L127.628 353.726C128.312 356.339 127.983 369.468 128.01 373.008C130.017 372.988 137.587 372.69 137.978 373.908C138.891 376.756 138.59 389.912 138.443 392.663C136.869 393.395 136.618 393.539 134.878 393.857C133.966 394.032 127.912 397.363 127.512 398.107C128.388 400.187 128.009 410.255 127.992 413H124.511H114.451H110.985H100.018H97.0102C96.9847 410.172 96.6899 399.992 97.3677 397.942C96.4284 396.602 93.8097 396.028 92.6149 393.575C90.4022 392.668 90.6814 389.614 90.6707 387.533C90.6544 384.319 90.5829 381.055 90.6634 377.843C90.8149 371.788 91.7864 372.309 97.0149 372.526C96.9989 369.557 96.7392 354.783 97.2287 352.574Z" fill="black"/>
<path d="M97.3676 397.942C99.8096 397.265 125.153 397.443 127.512 398.108C128.388 400.188 128.009 410.255 127.992 413H124.511H114.451H110.985H100.018H97.0101C96.9846 410.173 96.6898 399.993 97.3676 397.942Z" fill="black"/>
<path d="M99.9806 400.983C103.595 400.975 107.38 400.915 110.98 401.003L110.985 413H100.018L99.9806 400.983Z" fill="#6CC7EE"/>
<path d="M114.351 400.988L124.501 401.008L124.511 413H114.451C114.367 409.095 114.491 404.758 114.351 400.988Z" fill="#6CC7EE"/>
<path d="M92.6149 393.575C97.4964 393.335 103.612 393.483 108.557 393.499C117.332 393.494 126.107 393.614 134.878 393.857C133.966 394.032 127.912 397.363 127.512 398.107C125.153 397.443 99.8096 397.264 97.3676 397.942C96.4284 396.602 93.8096 396.028 92.6149 393.575Z" fill="#FCAB08"/>
<path d="M93.9744 375.524C108.06 375.364 121.532 376.017 135.502 375.999L135.499 390.964C122.117 391.164 107.666 390.491 94.0176 390.5L93.9744 375.524Z" fill="#F7F0EC"/>
<path d="M99.9706 355.492C104.001 355.405 107.04 355.565 110.989 355.955C110.979 361.483 110.996 367.01 111.041 372.538L100.02 372.514L99.9706 355.492Z" fill="#6CC7EE"/>
<path d="M113.979 355.967C117.519 355.956 120.982 355.965 124.509 356.3L124.527 373.007C121.067 372.945 117.557 372.59 113.996 372.55L113.979 355.967Z" fill="#6CC7EE"/>
<path d="M97.0173 234.554C97.0003 231.301 96.5973 218.314 97.5061 216.117C100.109 214.67 121.638 218.456 125.975 218.99C126.194 219.017 127.592 219.517 127.681 219.843C128.244 223.993 127.991 234.124 127.995 238.063C130.537 238.431 136.697 238.424 138.087 240.037C138.763 241.475 138.813 256.398 138.201 258.169C137.968 258.844 137.561 259.367 136.893 259.658C136.43 259.859 135.891 259.957 135.398 260.063C133.958 260.262 128.238 263.289 127.641 264.478C125.06 263.458 101.537 261.476 97.4411 261.504C97.3036 259.806 93.8938 259.037 92.7298 256.185C92.1736 255.873 91.2048 255.357 91.1541 254.751C90.8883 251.581 90.6456 237.858 91.4971 235.571C92.9953 234.06 95.0456 234.454 97.0173 234.554Z" fill="black"/>
<path d="M92.7299 256.185C100.602 256.715 108.463 257.398 116.308 258.234C121.329 258.781 130.508 260.008 135.398 260.063C133.958 260.262 128.238 263.289 127.641 264.478C125.06 263.458 101.537 261.476 97.4411 261.504C97.3036 259.806 93.8939 259.037 92.7299 256.185Z" fill="#FCAB08"/>
<path d="M94.2598 237.372C100.47 238.463 106.834 238.655 113.042 239.534C120.47 240.587 128.129 241.024 135.513 242.063C135.525 246.067 135.756 253.393 135.415 257.062C131.727 256.291 125.363 256.156 121.366 255.698C112.329 254.662 103.026 253.977 94.0114 252.925C94.4499 250.094 94.2616 240.658 94.2598 237.372Z" fill="#F7F0EC"/>
<path d="M99.9467 218.936C102.852 219.511 107.718 219.818 110.937 220.244C111.117 225.345 111.009 230.944 111.01 236.081C107.242 235.667 103.777 235.499 99.9962 234.94L99.9467 218.936Z" fill="#6CC7EE"/>
<path d="M113.979 220.612C117.488 221.074 120.995 221.557 124.499 222.06L124.516 237.591C120.898 237.5 117.566 236.939 113.991 236.427L113.979 220.612Z" fill="#6CC7EE"/>
<path d="M97.4411 261.503C101.537 261.476 125.06 263.458 127.641 264.478C128.323 266.969 127.94 279.717 128.021 283.24C132.239 283.744 135.012 282.823 138.497 285.124L138.525 296.943C138.533 300.383 139.631 305.069 134.597 304.682C132.199 306.619 129.246 307.311 127.137 308.603C120.218 308.734 111.731 307.303 104.65 307.336C102.092 307.348 100.052 306.854 97.3086 307.229C96.6916 305.224 93.7686 304.809 92.2301 302.006C91.6089 301.706 90.9829 301.13 90.9436 300.433C90.7479 296.94 90.1436 283.957 91.6861 281.494C93.0156 280.577 95.3811 280.953 97.0336 281.047C97.0131 277.95 96.6239 263.337 97.4411 261.503Z" fill="black"/>
<path d="M92.2301 302.006C99.3946 302.3 106.814 303.086 113.971 303.447C119.04 303.702 124.076 303.948 129.139 304.357C130.221 304.444 133.768 304.495 134.597 304.683C132.199 306.619 129.246 307.312 127.137 308.603C120.218 308.734 111.731 307.304 104.65 307.337C102.092 307.349 100.052 306.854 97.3086 307.229C96.6916 305.225 93.7686 304.809 92.2301 302.006Z" fill="#FCAB08"/>
<path d="M93.9844 283.892C100.475 284.082 107.82 284.915 114.332 285.33L127.253 286.276C130.085 286.477 132.694 286.45 135.493 287.003L135.504 301.523C130.413 301.558 126.065 301.079 121.039 300.747C116.197 300.426 111.289 300.365 106.425 299.883C102.27 299.471 98.1194 299.727 94.0106 298.935L93.9844 283.892Z" fill="#F7F0EC"/>
<path d="M99.9691 264.423C102.244 264.939 108.664 265.526 110.988 265.519C110.955 271.032 110.96 276.544 111.001 282.057C106.968 281.493 103.973 281.589 100.04 281.156C99.9186 275.706 99.9943 269.896 99.9691 264.423Z" fill="#6CC7EE"/>
<path d="M113.966 265.963C117.524 266.316 120.975 266.455 124.501 267.078L124.541 283.071C121.118 282.516 117.56 282.527 114.039 282.17C113.898 276.853 113.971 271.297 113.966 265.963Z" fill="#6CC7EE"/>
<path d="M97.3086 307.229C100.052 306.854 102.092 307.349 104.65 307.337C111.731 307.304 120.218 308.734 127.137 308.603C128.745 311.218 127.952 324.122 127.996 327.958C129.933 328.156 137.765 328.397 138.06 329.469C138.76 332.011 138.655 345.284 138.362 347.534C137.706 348.627 136.336 349.351 135.081 349.417C134.828 349.407 133.904 349.416 133.762 349.543C132.501 350.664 127.962 352.178 127.628 353.726L127.485 353.64C126.991 353.339 126.37 353.096 125.786 353.094C116.382 353.055 106.605 352.081 97.2286 352.575C96.5991 351.287 93.8869 350.197 92.4431 348.031C90.3119 346.923 90.3159 341.216 90.6286 338.996C91.6919 331.45 87.3934 325.856 97.0256 326.839C97.0029 323.825 96.6919 309.414 97.3086 307.229Z" fill="black"/>
<path d="M92.4431 348.031C103.111 348.074 113.777 348.349 124.433 348.857C127.209 348.989 132.577 348.958 135.081 349.417C134.828 349.407 133.904 349.416 133.762 349.542C132.501 350.664 127.962 352.178 127.628 353.726L127.485 353.64C126.991 353.339 126.37 353.096 125.786 353.094C116.382 353.055 106.605 352.081 97.2286 352.574C96.5991 351.286 93.8869 350.197 92.4431 348.031Z" fill="#FCAB08"/>
<path d="M93.9908 329.956C102.789 329.995 111.943 330.568 120.777 330.869C125.717 331.037 130.511 331.594 135.504 331.501L135.505 346.239C132.899 345.881 127.65 346.044 124.656 345.915C114.451 345.436 104.239 345.14 94.0246 345.027L93.9908 329.956Z" fill="#F7F0EC"/>
<path d="M100.089 310.349C103.22 310.8 106.771 310.344 110.984 311.019L110.988 327.524C108.248 327.002 102.872 327.02 100.017 327.015C99.9944 323.094 99.7157 313.737 100.089 310.349Z" fill="#6CC7EE"/>
<path d="M113.961 310.961C117.887 311.418 120.592 311.503 124.492 311.51L124.515 328.049C120.644 327.791 117.913 327.473 113.98 327.474L113.961 310.961Z" fill="#6CC7EE"/>
<path d="M143.015 413C142.996 410.288 142.426 399.35 143.86 397.879C146.7 397.188 165.37 397.331 168.403 398.118C169.494 399.263 169.017 410.618 169.013 413H165.976H157.688H154.512H146.02H143.015Z" fill="black"/>
<path d="M145.971 400.933C148.814 400.918 151.657 400.938 154.499 400.993L154.512 413H146.02L145.971 400.933Z" fill="#6CC7EE"/>
<path d="M157.52 400.99C160.325 400.97 163.13 400.97 165.934 400.993C165.761 404.773 165.956 409.17 165.976 413H157.688C157.606 409.043 157.495 404.945 157.52 400.99Z" fill="#6CC7EE"/>
<path d="M143.303 265.534C146.117 265.173 165.604 266.879 167.923 267.946C168.244 268.093 168.507 268.316 168.63 268.648C169.257 270.331 169.258 287.345 168.948 290.12C168.862 290.891 168.598 291.554 168.271 292.251C166.137 292.78 145.724 291.016 143.152 290.259C142.804 287.448 142.704 267.346 143.303 265.534Z" fill="black"/>
<path d="M145.954 268.416C147.095 268.76 153.183 269.41 154.669 269.574C154.283 272.624 154.524 284.645 154.528 288.428C153.654 288.436 147.32 287.602 146.018 287.471L145.954 268.416Z" fill="#6CC7EE"/>
<path d="M157.511 269.859C160.258 270.042 162.755 270.486 165.528 270.507C165.516 276.696 165.582 282.884 165.726 289.071C163.014 289.038 160.187 288.718 157.478 288.462C157.451 282.261 157.462 276.06 157.511 269.859Z" fill="#6CC7EE"/>
<path d="M143.587 221.007C144.703 221.02 151.584 221.929 153.027 222.165C157.198 222.848 164.957 223.203 168.643 224.459C168.744 224.961 168.82 225.469 168.87 225.979C169.384 231.287 169.024 241.382 168.85 247.019C168.834 247.528 168.359 248.22 168.031 248.628C166.007 249.026 146.268 246.784 143.854 246.09C142.424 244.693 142.378 223.324 143.587 221.007Z" fill="black"/>
<path d="M145.801 224.438C148.664 224.645 151.618 225.449 154.639 225.527C154.259 230.383 154.537 239.141 154.569 244.233C152.671 244.355 148.61 243.482 145.971 243.5C146.07 237.332 145.916 230.613 145.801 224.438Z" fill="#6CC7EE"/>
<path d="M157.481 225.907C159.974 226.489 162.69 226.499 165.494 227.083L165.532 245.652C162.716 245.228 160.368 244.92 157.521 244.665C157.417 238.494 157.49 232.096 157.481 225.907Z" fill="#6CC7EE"/>
<path d="M143.552 309.536C146.327 309.434 166.425 310.579 168.091 311.467C168.587 311.731 168.681 312.108 168.811 312.611C169.251 314.316 169.201 330.954 168.962 333.275C168.868 334.186 168.66 334.885 168.195 335.672C166.307 336.114 144.474 335.191 143.51 334.208C142.757 331.783 142.608 311.695 143.552 309.536Z" fill="black"/>
<path d="M145.985 312.976C149.088 312.953 151.431 313.037 154.509 313.358L154.515 332.094C151.73 332.049 148.815 331.851 146.024 331.704L145.985 312.976Z" fill="#6CC7EE"/>
<path d="M157.469 313.454C160.265 313.771 162.715 313.993 165.534 314.024C165.536 320.192 165.621 326.36 165.787 332.526C163.238 332.433 160.049 332.519 157.453 332.521C157.531 326.219 157.464 319.768 157.469 313.454Z" fill="#6CC7EE"/>
<path d="M143.661 353.539C147.505 353.485 166.676 353.641 168.584 355.08C169.485 357.296 168.916 364.239 168.971 367.054C169.017 369.461 169.635 377.278 168.191 378.87C164.196 379.254 146.618 379.116 143.258 378.326C143.052 377.273 142.884 372.843 142.989 371.889C143.314 368.932 142.266 355.575 143.661 353.539Z" fill="black"/>
<path d="M145.969 356.585C147.652 356.866 152.722 356.974 154.52 357.023C154.485 363.207 154.498 369.39 154.558 375.573C151.743 375.501 148.838 375.525 146.016 375.511L145.969 356.585Z" fill="#6CC7EE"/>
<path d="M157.484 356.989C160.381 357.015 162.859 357.246 165.722 357.524C165.702 360.862 166.244 373.919 165.851 376.135C164.588 375.95 159.165 375.853 157.551 375.786L157.484 356.989Z" fill="#6CC7EE"/>
<path d="M37.4665 235.051L65.7481 216.733C69.9161 214.012 77.3526 208.794 81.5231 206.584L80.8749 413H59.4656H56.4654H51.5041H48.0904H36.8116C37.1405 404.755 36.9844 395.22 37.0011 386.889L37.0188 338.993L37.4665 235.051Z" fill="#F56141"/>
<path d="M48.0903 413C48.0743 410.598 47.6491 401.215 48.8868 399.908C49.8966 399.468 58.8791 397.97 59.1166 399.43C59.8001 403.638 59.4938 408.69 59.4656 413H56.4653H51.5041H48.0903Z" fill="black"/>
<path d="M51.4758 402.512C53.2598 402.465 54.7438 402.352 56.4931 401.927L56.4653 413H51.5041L51.4758 402.512Z" fill="#6CC7EE"/>
<path d="M57.6046 356.544L58.5131 356.559C60.2123 357.867 59.4803 364.784 59.4258 367.234C59.3401 371.094 60.0511 377.16 59.0011 380.716C58.7066 381.714 51.7371 382.634 50.3361 382.854C49.8888 382.829 49.1868 382.802 48.8778 382.466C47.5703 381.045 48.1938 362.535 48.2361 359.345C51.3836 358.207 54.3331 357.268 57.6046 356.544Z" fill="black"/>
<path d="M56.1094 360.338C56.1821 360.355 56.3964 360.561 56.4671 360.622C56.4361 366.549 56.4504 372.476 56.5096 378.403C55.0601 378.751 53.5036 379.02 52.0331 379.301L51.4976 379.125L51.4894 361.367L56.1094 360.338Z" fill="#6CC7EE"/>
<path d="M57.7688 314.494C58.4651 314.489 58.5881 314.433 59.1081 314.829C59.7736 316.244 59.4946 335.465 59.4998 338.323C56.9768 339.958 52.7861 340.911 49.8196 341.676C49.6076 341.611 49.3128 341.566 49.1453 341.422C47.7266 340.194 48.4558 321.71 48.2473 318.475C50.9071 316.995 54.8636 315.59 57.7688 314.494Z" fill="black"/>
<path d="M56.2263 318.563C56.6731 319.176 56.5093 334.348 56.5428 336.439C54.9058 336.933 53.2613 337.401 51.6098 337.845C51.3223 337.49 51.4776 322.068 51.4826 320.286L56.2263 318.563Z" fill="#6CC7EE"/>
<path d="M57.6679 272.489C58.6027 272.493 58.4107 272.363 59.1317 272.8C59.7422 274.019 59.5039 293.366 59.5167 296.355C57.4737 297.782 52.4539 299.766 50.0537 300.561C49.3897 300.548 49.3187 300.521 48.7992 300.107C48.0187 298.452 48.4804 280.427 48.5069 277.103L57.6679 272.489Z" fill="black"/>
<path d="M56.2794 276.763C56.6694 277.181 56.5261 292.596 56.5301 294.477C55.0126 295.273 53.3954 295.93 51.8176 296.606C51.1804 295.866 51.4504 281.256 51.4549 279.165C53.1904 278.385 54.6001 277.662 56.2794 276.763Z" fill="#6CC7EE"/>
<path d="M58.2636 230.933L58.8516 231.07C59.8714 232.313 59.5229 238.174 59.5169 240.06L59.4906 254.584C57.0934 256.151 52.5211 258.502 49.9089 259.818C49.3614 259.611 49.3281 259.55 48.8876 259.145C48.1374 257.351 48.5266 240.462 48.4839 236.961C50.2974 235.534 56.1751 231.775 58.2636 230.933Z" fill="black"/>
<path d="M56.4952 235.534C56.6307 235.779 56.5479 250.789 56.6294 252.767C55.1589 253.369 53.0629 254.675 51.6279 255.514L51.4572 255.366C51.3022 254.457 51.3927 251.268 51.3982 250.089L51.4609 238.589C52.9904 237.886 55.1369 236.527 56.4952 235.534Z" fill="#6CC7EE"/>
<path d="M222.995 223.884C233.543 224.873 244.398 226.873 254.978 227.979C257.71 228.264 263.762 229.493 265.992 229.561L267.483 413H256.475H253.074H245.48H242.505H234.99H232.017H223.491L222.995 223.884Z" fill="#F8D50B"/>
<path d="M232.017 413C231.979 409.69 231.569 401.317 232.388 398.635C232.649 397.779 254.243 397.427 255.967 398.865C256.85 400.945 256.502 410.192 256.475 413H253.074H245.48H242.505H234.99H232.017Z" fill="black"/>
<path d="M234.707 401.002L242.511 401.005L242.505 413H234.99C234.957 409 234.863 405 234.707 401.002Z" fill="#6CC7EE"/>
<path d="M245.475 401.012L253.021 401.002C252.984 405.002 253.002 409.002 253.074 413H245.48L245.475 401.012Z" fill="#6CC7EE"/>
<path d="M232.221 273.111C239.939 273.767 247.957 274.32 255.619 275.312C256.35 276.81 255.994 289.892 255.994 292.45C258.421 292.682 262.281 292.908 264.452 293.716C264.52 296.739 265.567 309.701 263.878 311.484C263.383 312.006 262.409 312.328 261.733 312.561C260.654 312.754 255.625 314.923 255.656 316.194C251.544 315.745 247.425 315.667 243.316 315.461C239.432 315.265 235.923 314.987 232.01 314.937C231.014 313.09 228.83 313.338 227.996 310.522C227.694 310.399 227.475 310.266 227.26 310.013C225.937 308.454 226.387 296.531 226.507 293.967C226.55 293.049 226.587 291.726 227.346 291.099C228.453 290.185 230.248 290.499 231.586 290.565C231.552 287.485 230.824 275.085 232.221 273.111Z" fill="black"/>
<path d="M227.996 310.522C231.621 310.467 234.868 310.683 238.472 310.934C246.266 311.476 253.946 311.801 261.733 312.561C260.654 312.754 255.625 314.923 255.656 316.194C251.544 315.745 247.425 315.667 243.316 315.461C239.432 315.265 235.923 314.987 232.01 314.937C231.014 313.09 228.83 313.338 227.996 310.522Z" fill="#FCAB08"/>
<path d="M229.516 293.487C231.974 293.421 235.447 293.853 237.967 294.067L251.01 295.154C254.594 295.481 258.265 295.414 261.758 296.103C261.645 300.571 261.797 305.104 261.901 309.577C255.12 309.47 247.992 308.32 241.091 308.288C237.382 308.271 233.34 307.523 229.488 307.461L229.516 293.487Z" fill="#F7F0EC"/>
<path d="M234.48 276.448C237.567 276.49 238.948 276.542 242.002 277.089C242.051 281.993 242.237 286.589 242.207 291.58C239.584 291.457 237.277 291.028 234.469 290.966L234.48 276.448Z" fill="#6CC7EE"/>
<path d="M245.13 277.423C248.171 277.568 249.908 277.696 252.946 278.069L253.018 292.532C251.174 292.076 247.391 291.997 245.471 291.952C245.2 287.375 245.238 282.075 245.13 277.423Z" fill="#6CC7EE"/>
<path d="M232.01 314.937C235.923 314.987 239.432 315.265 243.316 315.461C247.425 315.667 251.544 315.745 255.656 316.194C256.43 318.401 256.266 330.902 256.272 333.934C258.244 333.945 262.407 333.72 263.977 334.598C264.937 337.237 264.924 341.351 264.978 344.246C265.04 347.592 265.993 353.429 261.339 353.543C260.027 353.96 255.903 356.017 255.884 357.512C254.392 357.049 233.942 356.321 232.096 356.729C230.55 354.842 228.775 354.713 228.198 352.488C227.825 352.334 227.633 352.177 227.309 351.949C226.116 349.831 226.749 338.719 226.618 335.647C226.466 332.097 229.578 332.579 231.991 332.821C231.772 330.099 231.292 316.986 232.01 314.937Z" fill="black"/>
<path d="M228.198 352.488C239.451 352.432 250.336 353.495 261.339 353.543C260.027 353.959 255.903 356.017 255.884 357.512C254.392 357.048 233.942 356.321 232.096 356.728C230.55 354.842 228.775 354.713 228.198 352.488Z" fill="#FCAB08"/>
<path d="M229.498 335.484C230.913 335.474 232.329 335.61 233.741 335.705C243.161 336.339 252.573 336.451 261.99 337.045L262.026 350.792C259.048 350.44 255.433 350.556 252.355 350.425L229.484 349.452L229.498 335.484Z" fill="#F7F0EC"/>
<path d="M234.494 317.992C237.106 317.954 239.86 318.346 242.503 318.553L242.567 333.062C239.963 332.97 237.118 333.016 234.495 333.007L234.494 317.992Z" fill="#6CC7EE"/>
<path d="M245.467 318.476C247.573 318.504 250.66 318.944 252.995 319.052L253.009 333.507L245.498 333.496L245.467 318.476Z" fill="#6CC7EE"/>
<path d="M231.657 231.526C234.153 231.424 253.575 233.836 255.83 234.74C256.264 239.603 255.93 246.115 256.044 251.147C257.198 251.286 263.841 251.646 264.027 252.735C264.937 258.062 264.56 264.348 264.275 269.775C264.216 270.898 261.561 271.549 260.581 271.421C258.857 273.579 256.606 272.834 255.619 275.312C247.957 274.32 239.939 273.767 232.221 273.111C231.733 271.09 228.692 271.159 228.091 268.49C227.469 268.116 226.861 267.821 226.736 266.978C226.352 264.392 226.23 250.755 226.941 249.129C228.149 248.216 229.996 248.492 231.525 248.553C231.514 244.268 231.242 235.497 231.657 231.526Z" fill="black"/>
<path d="M228.091 268.49C235.142 268.43 242.721 269.724 249.804 270.302C251.815 270.466 259.071 270.95 260.581 271.421C258.857 273.579 256.606 272.834 255.619 275.312C247.957 274.32 239.939 273.767 232.221 273.111C231.733 271.09 228.692 271.159 228.091 268.49Z" fill="#FCAB08"/>
<path d="M229.509 251.494C232.697 251.397 237.434 252.059 240.757 252.422L254.428 253.825C256.773 254.074 259.149 254.521 261.488 254.515L261.496 268.582C259.678 268.05 254.595 267.713 252.514 267.543L241.754 266.569C237.917 266.225 233.208 265.38 229.498 265.479L229.509 251.494Z" fill="#F7F0EC"/>
<path d="M234.26 234.956C236.855 234.982 238.989 235.535 241.959 235.508C242.047 240.139 241.996 244.913 242.002 249.555C240.178 249.553 236.403 249.101 234.498 248.859C234.468 244.224 234.389 239.589 234.26 234.956Z" fill="#6CC7EE"/>
<path d="M244.957 235.926C246.292 236.345 251.065 236.938 252.516 237.045C252.558 241.559 252.627 246.072 252.725 250.585C250.03 250.459 247.668 250.234 244.993 249.961L244.957 235.926Z" fill="#6CC7EE"/>
<path d="M232.096 356.728C233.942 356.321 254.392 357.048 255.884 357.512C256.655 359.643 256.471 371.908 256.466 375.01C262.784 375.036 265.405 373.8 264.974 382.03C264.807 385.222 265.784 390.741 264.207 393.611C262.017 395.491 234.547 394.167 229.682 394.417C229.025 394.451 228.087 394.202 227.551 393.735C226.655 391.567 226.733 378.167 227.115 375.34C229.246 374.474 229.74 374.41 232.018 374.725C231.981 370.122 231.673 360.779 232.096 356.728Z" fill="black"/>
<path d="M229.533 377.502C237.452 377.423 245.231 377.972 253.136 378.001C256.097 378.011 259.059 378.003 262.021 377.997L262.02 392.05L230.003 391.683C229.923 387.811 229.976 381.139 229.533 377.502Z" fill="#F7F0EC"/>
<path d="M234.506 359.427C237.405 359.515 239.625 359.665 242.511 359.962L242.52 374.826C239.983 374.712 237.444 374.618 234.905 374.543C234.604 369.898 234.689 364.263 234.506 359.427Z" fill="#6CC7EE"/>
<path d="M245.487 359.996L252.998 360.003C252.891 364.916 252.997 370.135 253.016 375.07L245.465 375.015L245.487 359.996Z" fill="#6CC7EE"/>
<path d="M179.408 394.041C193.164 394.167 206.877 394.519 220.63 394.474C220.593 400.65 220.613 406.825 220.689 413H214.988C215.008 410.053 215.355 401.163 214.495 398.88C213.039 397.426 196.721 397.975 193.469 397.978L179.41 397.991L179.408 394.041Z" fill="#F56141"/>
<path d="M179.492 400.988L195.731 400.998C195.738 404.935 195.685 409.085 195.828 413H179.487L179.492 400.988Z" fill="#6CC7EE"/>
<path d="M198.973 400.982L211.925 400.997C211.697 404.177 211.822 409.71 211.878 413H199.016L198.973 400.982Z" fill="#6CC7EE"/>
<path d="M83.5251 194.959C89.8016 195.383 99.3574 197.031 105.898 197.9L159.813 205.309L230.528 215.063C238.759 216.166 246.984 217.318 255.202 218.517C259.931 219.17 264.856 219.629 269.508 220.58L269.517 227.127C266.759 226.522 261.78 225.99 258.773 225.577L233.63 222.305L152.31 211.506L103.578 204.966C100.06 204.519 96.5459 204.044 93.0349 203.543C90.0256 203.098 86.6961 202.448 83.7016 202.439C83.4989 199.856 83.5176 197.539 83.5251 194.959Z" fill="#C38AC3"/>
<path d="M128.014 184.417C129.435 184.459 139.055 186.154 141.141 186.466L172.114 191.264C176.534 191.965 182.273 193.118 186.536 193.596C186.569 197.598 186.581 201.599 186.572 205.601C167.113 203.212 147.505 200.046 128.036 197.622C127.948 193.22 127.941 188.818 128.014 184.417Z" fill="#F8D50B"/>
<path d="M179.076 289.979C192.125 290.232 207.03 292.394 220.491 293.025C220.503 297.563 220.688 303.109 220.475 307.535C218.07 307.559 215.904 307.416 213.518 307.251C202.049 306.459 190.527 305.419 179.041 304.956C179.367 300.903 179.127 294.183 179.076 289.979Z" fill="#F56141"/>
<path d="M179.086 246.582C192.787 248.182 206.507 249.61 220.243 250.866C220.298 255.779 220.381 260.691 220.49 265.602C218.438 265.259 215.898 264.909 213.833 264.792C202.262 264.142 190.48 262.301 178.988 261.454C179.009 257.266 178.774 250.496 179.086 246.582Z" fill="#F56141"/>
<path d="M179.253 333.507C185.504 333.44 192.213 334.104 198.502 334.374C205.727 334.685 213.307 334.802 220.497 335.242L220.544 349.593C211.336 349.509 202.333 349.152 193.142 348.718C188.494 348.498 183.885 348.587 179.253 348.22C179.287 343.315 179.287 338.411 179.253 333.507Z" fill="#F56141"/>
<path d="M179.454 376.732L220.558 377.488L220.558 391.998C206.93 391.967 193.24 391.521 179.463 391.511C179.518 386.625 179.458 381.628 179.454 376.732Z" fill="#F56141"/>
<path d="M178.993 218.101C183.251 218.881 189.722 219.434 194.188 219.993L220.02 223.402C220.163 231.623 220.241 239.846 220.255 248.069C218.603 248.068 216.205 247.694 214.502 247.477C214.535 241.612 214.515 235.748 214.441 229.883C203.969 227.443 189.997 227.068 178.988 224.987L178.993 218.101Z" fill="#F56141"/>
<path d="M80.3611 196.231L80.6758 196.298C81.2598 197.077 81.0056 201.833 80.9828 203.136C79.2006 204.492 75.3286 206.822 73.3126 208.144L57.1173 218.742C51.2728 222.538 40.5697 230.031 34.9056 232.953L34.5947 232.732C34.3856 231.592 34.475 228.558 34.484 227.251C38.2778 224.282 47.2918 218.497 51.6086 215.643C61.1473 209.337 70.8403 202.418 80.3611 196.231Z" fill="#C38AC3"/>
<path d="M178.997 264.452C182.018 264.435 186.128 265.024 189.275 265.303C199.54 266.212 210.003 267.589 220.295 268.086C220.492 275.329 220.44 282.79 220.51 290.058L214.534 289.958C214.422 284.085 214.568 278.16 214.462 272.255C211.28 271.461 205.13 271.183 201.654 270.807C194.293 270.01 186.331 269.548 179.03 268.45L178.997 264.452Z" fill="#F56141"/>
<path d="M179.191 307.724C192.887 308.15 206.821 309.69 220.501 310.513L220.523 332.572C218.584 332.548 216.645 332.5 214.707 332.43C214.806 326.633 214.574 320.134 214.459 314.298C211.875 313.805 205.612 313.497 202.795 313.326C195.147 312.863 186.875 312.102 179.238 311.958L179.191 307.724Z" fill="#F56141"/>
<path d="M179.294 350.966C186.584 351.526 193.814 351.454 201.116 351.783C207.564 352.074 214.107 352.443 220.557 352.509C220.411 359.684 220.543 367.315 220.543 374.527L214.995 374.531C214.968 371.745 215.074 358.451 214.406 356.548C212.256 355.581 183.726 354.995 179.273 354.997C179.375 353.807 179.308 352.191 179.294 350.966Z" fill="#F56141"/>
<path d="M179.487 357.963C184.755 357.942 189.961 358.542 195.521 358.507C195.522 363.675 195.577 368.842 195.685 374.009C190.29 374.031 184.895 374.024 179.501 373.988L179.487 357.963Z" fill="#6CC7EE"/>
<path d="M178.982 228.466C181.919 228.418 191.841 229.91 195.206 230.376C195.317 235.492 195.203 240.445 195.463 245.603C190.455 244.759 184.119 244.159 179.025 243.927L178.982 228.466Z" fill="#6CC7EE"/>
<path d="M179.432 314.986C182.611 314.966 192.65 315.627 195.502 316.051L195.529 331.16C193.733 330.969 191.625 331.046 189.79 330.942C186.36 330.747 182.901 330.547 179.467 330.484L179.432 314.986Z" fill="#6CC7EE"/>
<path d="M179.243 271.934C183.948 272.072 191.088 272.71 195.552 273.614L195.541 288.257C193.278 287.752 182.127 287.128 179.265 286.967L179.243 271.934Z" fill="#6CC7EE"/>
<path d="M198.743 358.474C203.002 358.86 207.277 359.043 211.553 359.023C211.508 363.786 211.349 370.016 211.709 374.692C208.399 374.266 202.476 374.178 198.951 374.032C198.918 368.846 198.849 363.66 198.743 358.474Z" fill="#6CC7EE"/>
<path d="M198.495 316.174C202.17 316.582 207.644 316.748 211.549 317.024L211.541 332.055C206.605 331.785 203.843 331.497 198.741 331.505L198.495 316.174Z" fill="#6CC7EE"/>
<path d="M198.495 273.702C202.404 274.089 207.764 274.296 211.39 274.916L211.509 289.55C207.527 289.552 202.685 288.569 198.474 288.469L198.495 273.702Z" fill="#6CC7EE"/>
<path d="M198.463 230.708C201.511 231.348 207.576 231.816 210.977 232.238C211.142 237.071 211.135 242.177 211.221 247.037C207.326 246.575 202.409 246.128 198.509 245.959L198.463 230.708Z" fill="#6CC7EE"/>
<path d="M124.461 185.241C124.775 185.698 124.671 195.82 124.674 197.141C120.501 196.657 116.377 195.836 112.189 195.437L108.592 194.772C111.772 193.439 121.158 187.308 124.461 185.241Z" fill="#F56141"/>
<path d="M269.785 355.666C270.275 357.453 270.175 397.51 269.692 399.073C269.448 397.98 269.45 386.286 269.504 384.728C269.817 375.706 269.012 364.492 269.785 355.666Z" fill="black"/>
<path d="M268.523 232.666C269.628 234.351 268.737 253.202 268.75 256.481L268.588 256.385C268.276 249.051 268.516 240.099 268.523 232.666Z" fill="black"/>
<path d="M129.174 168.63C130.4 168.777 129.992 168.24 131.459 168.091C131.779 169.485 132.975 170.222 132.616 171.695C130.939 171.508 130.599 169.218 129.174 168.63Z" fill="black"/>
<path d="M144.052 162.58C143.786 161.285 142.855 159.861 143.265 158.569C144.643 158.903 145.135 161.151 146.228 161.787C145.07 161.923 145.01 161.904 144.052 162.58Z" fill="black"/>
<path d="M135.501 165.096C135.368 164.812 135.24 164.526 135.115 164.238C134.75 163.384 134.543 162.858 134.897 161.96L135.308 161.96C136.36 162.756 136.4 163.424 136.765 164.712C136.345 164.911 135.94 165.174 135.501 165.096Z" fill="black"/>
</g>
<path d="M77.9244 42.9235C71.7602 26.4206 82.3022 8.73367 99.8467 7.14277C132.381 4.19264 187.986 0.815083 265 1.99988C344.868 3.2286 397.938 7.27257 426.991 10.2088C442.063 11.7321 452.359 25.4463 450.305 40.4553L448.925 50.5298C446.9 65.3278 433.613 75.9356 418.718 74.8243C384.655 72.283 323.148 68.5113 265.856 69.2414C215.692 69.8806 145.627 73.7065 111.285 75.7365C99.0085 76.4621 87.7081 69.1162 83.405 57.5959L77.9244 42.9235Z" fill="#C10230"/>
<path d="M549.052 249.868C540.013 267.234 519.777 285.68 495.651 293.049C411.61 318.722 295.993 243.863 279.197 307.036C276.123 318.579 264.539 316.462 261.444 307.891C256.11 293.151 263.541 285.456 249.657 260.842C218.06 204.774 238.642 147.81 272.804 127.411C298.314 112.182 330.542 126.433 364.785 133.396C447.503 150.233 484.291 110.004 517.578 118.086C578.41 132.867 561.96 225.092 549.073 249.848L549.052 249.868Z" fill="#8FC045"/>
<path d="M549.052 249.868C540.013 267.234 519.777 285.68 495.651 293.049C411.61 318.722 295.993 243.863 279.197 307.036C276.123 318.579 264.539 316.462 261.444 307.891C256.11 293.151 263.541 285.456 249.657 260.842C218.06 204.774 238.642 147.81 272.804 127.411C298.314 112.182 330.542 126.433 364.785 133.396C447.503 150.233 484.291 110.004 517.578 118.086C578.41 132.867 561.96 225.092 549.073 249.848L549.052 249.868Z" fill="#5C0F8B"/>
<path d="M333.699 300.283C336.304 302.054 336.63 303.601 335.103 306.451C334.594 307.388 334.045 308.304 333.495 309.2C329.566 315.511 325.698 321.863 322.501 328.581C322.053 329.538 321.483 330.454 320.832 331.269C319.529 332.918 317.819 333.203 316.007 332.103C315.498 331.798 315.03 331.37 314.582 330.984C312.546 329.151 310.53 327.339 308.515 325.487C307.965 324.978 307.395 324.448 306.927 323.858C305.909 322.514 305.848 320.947 306.886 319.664C307.538 318.85 308.352 318.137 309.166 317.465C315.152 312.335 321.178 307.225 327.184 302.135C328.324 301.158 329.505 300.201 330.95 299C332.09 299.529 332.986 299.814 333.719 300.323L333.699 300.283ZM317.656 327.645C318.083 327.197 318.592 326.871 318.816 326.403C322.237 319.114 326.553 312.355 330.95 305.637C331.194 305.25 331.459 304.884 331.642 304.477C332.151 303.397 331.642 302.766 330.319 302.298C328.853 303.805 327.306 305.413 325.738 307.001C324.028 308.711 322.338 310.462 320.567 312.111C318.898 313.658 317.147 315.104 315.457 316.61C313.767 318.117 312.118 319.644 310.001 321.578C312.79 323.797 315.131 325.65 317.697 327.665L317.656 327.645Z" fill="white"/>
<path d="M349.962 312.417C350.328 313.028 350.573 313.842 350.532 314.534C350.369 317.12 350.084 319.685 349.779 322.25C349.209 327.238 348.578 332.206 347.987 337.173C347.784 338.843 347.723 340.512 347.478 342.161C347.01 345.256 345.483 346.294 342.368 345.602C339.396 344.95 336.444 344.238 333.512 343.403C330.072 342.426 329.563 341.449 330.519 338.13C330.886 336.807 331.273 335.483 331.822 334.242C333.838 329.478 335.874 324.734 337.991 320.011C339.111 317.507 340.373 315.084 341.737 312.274C342.633 309.811 348.842 310.462 349.982 312.417H349.962ZM334.143 339.087C337.156 340.207 340.027 340.858 343.223 341.245C344.058 338.354 343.692 335.443 344.139 332.633C344.608 329.64 345.096 326.648 345.605 323.675C346.073 320.845 346.582 318.036 347.132 314.901C345.788 314.595 344.709 314.371 343.468 314.086C339.946 322.393 336.546 330.434 334.164 339.107L334.143 339.087Z" fill="white"/>
<path d="M359.594 314.004C363.972 313.556 364.358 313.78 366.028 317.913C367.229 320.865 368.349 323.858 369.631 326.769C372.095 332.47 374.701 338.129 377.144 343.85C378.284 346.497 377.734 347.861 375.128 348.879C372.441 349.937 369.713 350.854 366.964 351.77C361.895 353.439 360.409 352.095 360.124 347.311C359.717 340.796 359.228 334.281 358.841 327.767C358.597 323.39 358.475 318.992 358.312 314.33C359.024 314.147 359.309 314.025 359.594 313.984V314.004ZM360.796 318.829C361.976 328.581 362.282 338.414 363.931 348.309C367.351 347.84 370.181 346.558 373.296 345.112C372.991 344.013 372.828 342.995 372.441 342.079C370.303 337.071 368.084 332.103 365.946 327.095C364.827 324.448 363.87 321.74 362.811 319.053C362.547 318.361 362.323 317.587 361.182 317.709C361.06 318.056 360.735 318.463 360.775 318.829H360.796Z" fill="white"/>
<path d="M301.074 106C303.059 107.666 302.89 109.37 303.096 110.943C303.302 112.516 303.471 114.108 303.658 115.812C305.381 115.905 306.841 115.868 308.227 116.13C308.751 116.224 309.332 116.954 309.556 117.516C309.687 117.834 309.219 118.658 308.826 118.845C307.347 119.538 305.793 120.043 304.126 120.68C302.74 123.77 305.287 127.927 301.954 130.679C300.156 130.305 300.119 128.9 299.969 127.721C299.707 125.605 299.632 123.451 299.482 121.279C296.636 120.549 293.715 121.766 291 119.706C291.655 119.145 292.067 118.508 292.592 118.377C294.708 117.853 296.842 117.478 299.089 117.029C300.849 113.733 299.239 109.801 301.055 106H301.074Z" fill="white"/>
<path d="M464.697 304.021C464.341 306.942 464.135 309.264 463.704 311.567C463.629 311.997 462.675 312.409 462.075 312.522C461.813 312.559 461.177 311.848 461.12 311.417C460.952 309.975 460.989 308.515 460.914 307.073C460.858 306.024 460.708 304.976 460.596 303.721C458.78 303.234 457.095 302.804 454.754 302.186C455.765 301.437 456.196 300.931 456.758 300.744C457.937 300.332 459.154 300.07 460.409 299.733C461.251 297.523 460.914 295.314 461.233 293.198C461.532 291.157 461.251 288.91 462.787 287C463.91 289.172 463.892 289.172 464.004 293.142C464.06 295.108 464.21 297.074 464.322 299.246C466.551 299.489 468.517 299.62 470.408 299.995C470.895 300.088 471.381 300.95 471.531 301.53C471.606 301.811 471.026 302.56 470.632 302.672C468.723 303.197 466.775 303.571 464.697 304.039V304.021Z" fill="white"/>
<path d="M440.729 323.756C439.194 323.681 437.846 322.314 438.014 320.985C438.22 319.281 439.7 317.951 441.31 318.008C442.714 318.064 444.025 319.468 444.006 320.872C443.969 322.52 442.471 323.85 440.729 323.756Z" fill="white"/>
<path d="M322.236 136.82C320.7 136.914 319.352 135.678 319.371 134.18C319.389 132.457 321.337 130.51 322.872 130.66C323.977 130.772 324.988 132.064 325.063 133.431C325.157 135.229 323.921 136.708 322.236 136.82Z" fill="white"/>
<defs>
<linearGradient id="paint0_linear_67_1482" x1="268.5" y1="33" x2="268.5" y2="413" gradientUnits="userSpaceOnUse">
<stop stop-color="#B152F2"/>
<stop offset="1" stop-color="#8427C4"/>
</linearGradient>
<linearGradient id="paint1_linear_67_1482" x1="266.5" y1="33" x2="266.5" y2="413" gradientUnits="userSpaceOnUse">
<stop stop-color="#B152F2"/>
<stop offset="1" stop-color="#8427C4"/>
</linearGradient>
</defs>
</svg>
