<svg width="545" height="415" viewBox="0 0 545 415" fill="none" xmlns="http://www.w3.org/2000/svg">
<path d="M22.4052 93.2737C0.692184 146.506 -16.7204 270.673 27.3929 368.815C35.2434 386.281 61.0764 396.497 81.3264 400.393C101.576 404.288 331.612 436.576 503.318 390.434C520.542 383.482 533.609 367.186 536.403 347.269C549.969 250.364 546.345 160.593 533.443 101.965C528.987 81.6494 515.022 66.4039 497.033 59.6684C409.316 26.8235 148.128 28.1272 61.0764 55.5763C43.3202 61.1893 29.9533 74.7328 22.372 93.2737H22.4052Z" fill="url(#paint0_linear_67_1481)"/>
<path d="M22.4052 93.2737C0.692184 146.506 -16.7204 270.673 27.3929 368.815C35.2434 386.281 61.0764 396.497 81.3264 400.393C101.576 404.288 331.612 436.576 503.318 390.434C520.542 383.482 533.609 367.186 536.403 347.269C549.969 250.364 546.345 160.593 533.443 101.965C528.987 81.6494 515.022 66.4039 497.033 59.6684C409.316 26.8235 148.128 28.1272 61.0764 55.5763C43.3202 61.1893 29.9533 74.7328 22.372 93.2737H22.4052Z" fill="#6722A3" fill-opacity="0.5"/>
<path d="M77.2955 48.2195C70.874 32.1542 80.5129 14.5496 97.6725 12.342C131.88 7.94104 192.704 2.38809 279 3.00012C365.271 3.61197 422.342 7.39036 453.648 10.2313C469.629 11.6815 480.203 26.7009 476.886 42.4005L474.929 51.6677C472.091 65.1008 459.915 74.4791 446.198 73.876C408.922 72.2369 334.735 69.4659 273.855 70.2416C222.303 70.8986 143.762 73.2392 107.544 74.3741C95.8091 74.7419 85.0968 67.7369 80.739 56.8345L77.2955 48.2195Z" fill="#C10230"/>
<path d="M140.38 301.064C87.155 343.461 64.1871 314.207 51.1016 289.174C38.016 264.141 25.0369 218.645 47.6283 183.461C61.1321 162.415 83.2124 151.607 106.207 152.115L106.195 152.089C130.674 152.829 162.683 147.276 183.681 135.1L183.748 135.246C204.266 123.534 231.951 124.167 253.493 140.937C292.062 171.008 255.905 225.388 287.657 261.148C341.703 322.017 193.604 258.668 140.38 301.064Z" fill="#5C0F8B"/>
<path d="M78.1097 139.398C75.7077 140.175 74.5729 139.625 73.5146 137.246C73.1666 136.463 72.8592 135.675 72.5607 134.875C70.4826 129.286 68.3576 123.734 65.6607 118.398C65.286 117.649 64.9849 116.829 64.7767 116.008C64.3602 114.365 65.0425 113.153 66.6093 112.553C67.0527 112.384 67.5473 112.291 68.0215 112.2C70.1739 111.816 72.3264 111.433 74.4699 111.06C75.0662 110.954 75.674 110.857 76.2744 110.865C77.6202 110.882 78.6333 111.613 78.9624 112.894C79.1592 113.707 79.2073 114.569 79.2439 115.422C79.5533 121.729 79.8423 128.039 80.1314 134.349C80.1918 135.55 80.2231 136.766 80.2818 138.278C79.3787 138.732 78.7718 139.16 78.0868 139.38L78.1097 139.398ZM68.6379 115.813C68.7091 116.289 68.6697 116.79 68.8615 117.159C71.7961 122.899 73.9746 128.951 76.0744 135.034C76.191 135.381 76.3077 135.728 76.4713 136.038C76.9112 136.892 77.5497 136.874 78.4957 136.27C78.2623 134.604 77.9955 132.839 77.758 131.06C77.5023 129.139 77.2351 127.209 77.0608 125.277C76.8906 123.459 76.845 121.645 76.7155 119.822C76.5886 118.019 76.4298 116.209 76.252 113.927C73.486 114.605 71.1623 115.186 68.6264 115.804L68.6379 115.813Z" fill="white"/>
<path d="M62.4487 143.735C61.8813 143.662 61.241 143.422 60.8318 143.05C59.283 141.684 57.7964 140.238 56.3097 138.791C53.4396 135.979 50.596 133.133 47.7374 130.33C46.7798 129.386 45.7513 128.533 44.8203 127.555C43.1012 125.745 43.1812 124.268 45.1429 122.637C47.0107 121.08 48.904 119.561 50.8688 118.116C53.1737 116.421 54.0414 116.581 55.6789 118.804C56.3299 119.694 56.9808 120.583 57.5149 121.529C59.5466 125.138 61.549 128.762 63.5019 132.402C64.5346 134.339 65.4505 136.332 66.5743 138.578C67.6994 140.349 64.2551 143.963 62.4372 143.726L62.4487 143.735ZM53.2994 120.642C51.1157 121.991 49.2922 123.491 47.4811 125.33C48.9081 127.279 50.9321 128.482 52.4969 130.136C54.1586 131.901 55.8115 133.677 57.4643 135.454C59.0229 137.139 60.5522 138.838 62.2702 140.72C63.1102 140.015 63.8031 139.453 64.5872 138.796C61.0439 132.494 57.6283 126.381 53.3083 120.631L53.2994 120.642Z" fill="white"/>
<path d="M56.6992 149.067C54.848 152.048 54.5038 152.184 51.0729 151.209C48.6181 150.515 46.167 149.769 43.6996 149.138C38.8718 147.905 34.0137 146.758 29.1922 145.493C26.9475 144.907 26.3738 143.894 26.9886 141.75C27.6249 139.532 28.3909 137.359 29.1659 135.174C30.5946 131.151 32.1707 130.871 35.3402 133.036C39.664 135.985 44.0295 138.858 48.3355 141.83C51.235 143.822 54.0636 145.906 57.1111 148.086C56.8798 148.621 56.8182 148.866 56.6992 149.067ZM53.0543 147.468C46.2988 143.439 39.9181 138.785 32.8377 134.961C31.4593 137.356 30.8898 139.773 30.27 142.444C31.1204 142.792 31.8424 143.187 32.6021 143.391C36.8256 144.504 41.059 145.533 45.2736 146.657C47.498 147.246 49.6884 147.973 51.9002 148.626C52.4691 148.792 53.0686 149.037 53.5587 148.263C53.4029 148.014 53.3014 147.623 53.0543 147.468Z" fill="white"/>
<path d="M429.024 221.895C415.732 263.141 409.728 279.562 400.17 321.814C399.611 324.359 399.187 325.69 398.567 326.41C365.289 317.167 331.644 309.4 297.668 303.112C302.229 288.919 304.876 274.149 305.485 259.037C305.934 248.008 288.768 245.97 288.31 257.103C287.33 281.009 281.142 303.508 269.852 324.608C267.328 329.338 271.697 336.279 276.905 336.391C298.747 336.922 320.584 337.943 342.381 339.45C360.132 343.322 378.007 346.539 396.094 348.022C397.103 348.105 398.059 347.973 398.992 347.7C400.314 347.808 401.636 347.916 402.958 348.025C403.41 348.062 403.798 348.024 404.221 347.988C405.549 350.163 407.814 351.575 410.313 351.85C411.516 354.26 413.118 356.492 415.188 358.588C422.858 366.255 435.827 356.709 428.677 347.823C416.574 332.719 440.528 307.93 431.87 292.233C436.449 269.707 435.702 272.412 438.729 249.584C438.764 249.167 438.792 248.819 438.754 248.431C440.812 241.701 442.901 235.009 445.063 228.288C448.449 217.746 432.416 211.283 429.027 221.86L429.024 221.895Z" fill="#F99D22"/>
<path d="M372.322 337.703C386.96 340.69 401.673 344.032 416.492 346.088C417.842 346.269 418.179 344.301 416.871 344.018C402.251 340.823 387.285 338.86 372.518 336.599C371.79 336.504 371.598 337.574 372.32 337.738L372.322 337.703Z" fill="white"/>
<path d="M419.945 318.953C418.31 327.363 415.414 335.775 414.608 344.323C414.465 346.062 416.81 346.499 417.266 344.786C419.487 336.494 419.658 327.578 421.052 319.114C421.182 318.389 420.077 318.193 419.913 318.915L419.945 318.953Z" fill="white"/>
<path d="M380.83 359.096C384.561 357.581 388.295 356.031 392.055 354.589C395.777 353.178 400.055 352.689 403.594 350.948C404.616 350.437 404.805 348.561 403.379 348.444C399.414 348.119 395.333 350.061 391.738 351.622C387.709 353.357 383.889 355.53 380.194 357.888C379.528 358.324 380.068 359.419 380.827 359.131L380.83 359.096Z" fill="white"/>
<path d="M392.347 360.391C399.076 359.893 407.602 357.545 412.895 353.217C414.021 352.294 413.129 350.365 411.686 350.877C408.366 352.076 405.326 354.137 402.058 355.55C398.791 356.963 395.5 358.234 392.038 359.035C391.253 359.216 391.573 360.433 392.347 360.391Z" fill="white"/>
<path d="M417.219 368.419C424.135 364.364 432.021 362.559 438.844 358.356C440.246 357.491 439.037 355.151 437.513 355.796C430.15 358.904 422.146 361.714 416.191 367.284C415.508 367.928 416.518 368.851 417.251 368.456L417.219 368.419Z" fill="white"/>
<path d="M407.745 363.895C411.634 363.444 415.343 360.911 418.499 358.719C419.687 357.906 418.672 355.757 417.288 356.414C413.754 358.085 410.476 360.477 407.314 362.739C406.831 363.085 407.11 363.948 407.748 363.86L407.745 363.895Z" fill="white"/>
<path d="M302.983 180.288C309.562 182.894 316.992 183.678 323.923 184.982C331.13 186.343 395.322 197.806 402.532 199.132C409.741 200.459 416.954 201.751 424.167 203.043C431.139 204.28 438.428 206.348 445.52 206.545C447.198 206.577 447.71 203.748 446.107 203.231C439.394 200.965 431.809 200.378 424.837 199.141C417.624 197.849 410.409 196.592 403.158 195.332C395.943 194.075 331.751 182.612 324.495 181.422C317.552 180.257 310.313 178.438 303.227 178.592C302.349 178.625 302.099 179.97 302.913 180.282L302.983 180.288Z" fill="white"/>
<path d="M298.241 182.175C296.47 184.551 296.105 187.288 295.556 190.149C294.781 194.042 294.041 197.939 293.27 201.797C291.715 209.654 280.883 270.851 279.465 278.753C278.101 286.415 276.703 294.074 275.339 301.736C274.631 305.67 273.923 309.604 273.218 313.503C272.585 316.953 271.63 320.481 271.763 323.994C271.831 325.715 274.42 326.173 275.076 324.581C277.743 318.111 278.088 310.051 279.282 303.18C280.666 295.275 282.084 287.372 283.465 279.502C284.829 271.84 295.676 210.889 296.9 203.216C297.536 199.311 298.174 195.371 298.774 191.464C299.272 188.388 300.004 185.436 299.099 182.386C298.988 182.027 298.437 181.911 298.2 182.242L298.241 182.175Z" fill="white"/>
<path d="M448.461 209.938C445.652 216.431 444.688 223.495 443.454 230.432C442.11 237.851 431.353 298.563 430.009 305.982C428.703 313.368 427.365 320.717 426.059 328.104C424.885 334.731 422.57 342.035 422.819 348.813C422.891 350.5 425.48 350.957 426.098 349.397C428.678 343.131 429.059 335.493 430.233 328.866C431.539 321.48 432.843 314.128 434.149 306.742C435.458 299.32 446.25 238.61 447.559 231.189C448.793 224.252 450.343 217.305 449.942 210.234C449.901 209.46 448.73 209.224 448.423 209.97L448.461 209.938Z" fill="white"/>
<path d="M276.14 328.59C282.283 331.825 290.19 332.334 296.948 333.623C304.152 335.019 368.344 346.482 375.559 347.739C382.772 349.031 389.984 350.323 397.232 351.617C404.03 352.84 411.67 355.323 418.602 354.911C420.219 354.833 420.665 352.384 419.178 351.737C412.821 348.974 404.792 348.666 397.96 347.44L376.287 343.562C369.074 342.27 304.883 330.807 297.627 329.617C290.82 328.498 283.232 326.23 276.365 327.138C275.658 327.22 275.473 328.185 276.111 328.518L276.14 328.59Z" fill="white"/>
<path d="M318.102 207.265C321.565 209.02 325.623 209.493 329.412 210.259C333.41 211.042 394.392 221.926 398.393 222.675C406.118 224.114 414.295 226.465 422.158 226.655C423.836 226.687 424.345 223.893 422.745 223.341C415.319 220.806 406.826 220.18 399.089 218.88C395.083 218.201 334.1 207.317 330.056 206.67C326.256 206.043 322.304 205.124 318.415 205.575C317.532 205.678 317.327 206.887 318.102 207.265Z" fill="white"/>
<path d="M317.83 206.263C315.259 208.153 315.276 212.637 314.651 215.562C313.73 219.969 303.464 277.675 302.682 282.093C301.861 286.543 301.079 290.961 300.259 295.411C299.548 299.38 298.061 303.845 298.432 307.867C298.57 309.595 301.023 310.006 301.745 308.454C303.482 304.78 303.656 300.102 304.332 296.13C305.117 291.678 305.903 287.225 306.685 282.807C307.468 278.389 317.666 220.642 318.344 216.215C318.758 213.308 320.297 209.057 318.59 206.395C318.433 206.172 318.088 206.109 317.865 206.266L317.83 206.263Z" fill="white"/>
<path d="M421.937 224.641C420.016 227.565 419.391 230.91 418.796 234.328C417.97 238.848 407.728 296.696 406.899 301.25C406.128 305.529 405.357 309.808 404.586 314.087C403.927 317.85 402.411 322.243 402.903 326.065C403.149 327.766 405.39 328.195 406.182 326.649C407.882 323.427 407.989 319.128 408.634 315.54C409.425 311.017 410.251 306.498 411.042 301.975C411.813 297.696 422.003 240.054 422.774 235.775C423.422 232.151 424.139 228.533 423.282 224.891C423.153 224.32 422.22 224.174 421.902 224.638L421.937 224.641Z" fill="white"/>
<path d="M299.509 308.411C302.213 310.453 305.758 310.779 309.028 311.467C313.435 312.389 374.829 323.377 379.282 324.162C383.459 324.89 387.634 325.653 391.811 326.38C395.988 327.108 400.048 328.422 404.07 328.051C405.693 327.904 406.127 325.594 404.645 324.877C401.206 323.264 397.058 323.029 393.333 322.338C388.88 321.553 384.462 320.77 380.012 319.95C375.838 319.188 314.681 308.289 310.496 307.666C307.002 307.134 303.201 306.087 299.722 307.097C299.218 307.266 299.085 308.026 299.515 308.341L299.509 308.411Z" fill="white"/>
<path d="M446.69 207.166C448.201 205.819 448.068 204.023 449.179 202.433C450.449 200.611 452.627 201.385 453.791 202.986C454.61 204.104 454.696 205.617 453.866 206.774C452.761 208.294 451.204 208.062 449.54 207.855C447.047 207.511 445.586 211.243 448.129 212.257C455.312 215.192 462.369 206.421 457.231 200.327C454.871 197.507 450.51 196.029 447.4 198.505C445.116 200.314 442.943 205.458 446.267 207.202C446.4 207.283 446.612 207.265 446.725 207.169L446.69 207.166Z" fill="white"/>
<path d="M301.838 180.159C303.386 180.916 304.966 180.871 305.813 179.084C306.484 177.738 306.012 176.229 305.124 175.106C302.906 172.263 298.574 170.857 295.173 172.189C291.772 173.52 290.015 177.018 290.738 180.579C291.386 183.784 294.663 187.799 298.317 187.224C300.267 186.928 300.678 184.476 298.973 183.496C297.401 182.596 295.905 182.474 295.114 180.588C294.527 179.209 294.629 177.537 295.9 176.555C297.394 175.417 299.218 175.812 300.686 176.703C301.251 177.064 301.982 177.544 302.279 178.199C302.488 178.636 302.391 177.683 302.282 178.164C302.218 178.509 301.767 179.313 301.602 179.614C301.481 179.814 301.597 180.104 301.8 180.191L301.838 180.159Z" fill="white"/>
<path d="M272.277 322.775C272.277 322.775 272.277 322.775 272.41 322.856C272.746 323.024 273.106 322.913 273.337 322.652C273.412 322.588 273.453 322.522 273.528 322.458C273.873 322.101 273.852 321.504 273.605 321.098C272.71 319.624 270.467 319.65 268.987 320.194C267.327 320.793 266.05 322.265 265.293 323.813C263.735 327.012 263.929 331.475 266.44 334.167C269.081 336.975 273.487 337.056 276.658 335.11C279.606 333.321 281.648 328.481 277.753 326.446C276.411 325.741 274.911 326.948 275.005 328.357C275.118 329.977 275.487 330.602 273.772 331.442C272.205 332.189 270.026 332.29 269.076 330.637C268.184 329.128 268.332 326.899 269.086 325.385C270.057 323.364 271.808 323.787 273.305 322.615C272.952 322.656 272.566 322.659 272.213 322.7C271.847 322.46 272.168 321.541 271.867 322.216C271.778 322.454 271.926 322.782 272.245 322.738L272.277 322.775Z" fill="white"/>
<path d="M418.507 351.051C413.65 351.353 415.211 359.22 417.515 361.44C420.568 364.352 426.442 364.028 429.412 361.12C431.887 358.697 432.456 354.751 431.141 351.562C429.888 348.483 425.864 345.457 422.921 348.472C422.154 349.284 422.394 351.055 423.554 351.43C424.815 351.849 425.771 351.717 426.48 352.896C427.186 354.109 427.203 356.036 426.477 357.202C425.505 358.803 423.071 359.024 421.389 358.606C419.021 358.027 418.399 354.509 419.602 352.647C420.12 351.884 419.249 350.972 418.475 351.014L418.507 351.051Z" fill="white"/>
<mask id="mask0_67_1481" style="mask-type:luminance" maskUnits="userSpaceOnUse" x="297" y="138" width="208" height="210">
<path d="M350.01 345.468L320.482 333.627C320.482 333.627 296.999 332.612 297.637 331.228C298.276 329.845 310.117 264.459 310.117 264.459L328.233 157.987L409.351 138.552L504.209 174.03L469.124 347.778L414.282 346.992L350.01 345.468Z" fill="white"/>
</mask>
<g mask="url(#mask0_67_1481)">
<path d="M447.301 284.254C448.615 281.035 449.863 277.776 451.044 274.476C452.046 271.652 453.827 268.296 453.31 265.207C452.766 262.011 449.504 260.378 446.833 259.213C445.209 258.52 443.539 257.963 441.854 257.58C441.567 257.241 441.17 256.963 440.697 256.749C413.649 244.551 386.719 232.188 359.839 219.653C359.371 218.949 358.646 218.4 357.611 218.21C357.367 218.19 357.129 218.1 356.889 218.045C356.497 217.698 356.105 217.351 355.714 217.004C354.48 215.817 353.043 215.839 351.905 216.481C348.442 215.147 345.113 213.473 341.694 212.037C341.27 211.652 340.702 211.325 340.02 211.094L339.916 211.086C339.579 210.498 339.06 210 338.422 209.668C337.45 209.133 336.438 208.664 335.385 208.263C335.011 208.127 334.6 208.023 334.217 207.992C332.471 207.078 330.307 207.846 329.356 209.624C328.902 210.462 328.732 211.254 328.747 211.921C328.339 212.202 327.957 212.591 327.671 213.093C324.857 217.94 322.786 223.127 321.433 228.514C321.433 228.514 321.431 228.549 321.428 228.584C315.194 242.254 308.958 255.96 302.724 269.63C301.36 272.6 299.454 275.77 300.227 279.16C300.9 282.052 303.12 284.02 305.553 285.515C308.288 287.175 311.385 288.27 314.294 289.524C317.777 291.035 321.265 292.476 324.754 293.918C329.193 295.718 333.636 297.483 338.119 299.181C338.436 300.013 339.045 300.693 339.854 301.074C362.735 311.145 385.318 321.856 407.566 333.241C410.051 334.53 412.549 336.1 415.161 337.12C418.316 338.359 420.74 336.982 422.368 334.209C425.587 328.696 428.478 322.91 431.464 317.237C437.151 306.393 442.568 295.421 447.208 284.106L447.301 284.254Z" fill="#C10230"/>
<path d="M436.696 269.202C429.91 266.125 423.217 262.774 416.682 259.192C414.672 258.082 411.959 259.575 411.637 261.79C411.617 262.033 411.597 262.277 411.507 262.514C409.428 263.534 408.866 266.115 408.466 268.428C408.15 270.153 409.431 272.464 411.349 272.551C412.465 272.608 413.466 272.795 414.559 273.13C415.002 273.271 415.423 273.271 415.851 273.166C416.765 273.556 417.716 273.914 418.557 274.333C423.09 276.701 427.088 279.62 432.173 280.807C433.686 281.142 435.375 280.195 436.011 278.846C436.811 277.196 437.577 275.543 438.375 273.927C439.181 272.208 438.454 269.977 436.699 269.168L436.696 269.202Z" fill="#FFC20E"/>
<path d="M427.587 329.91C430.776 323.904 433.965 317.898 437.052 311.848C440.597 304.925 444.004 297.956 447.111 290.822C449.865 284.57 452.456 278.164 454.294 271.556C455.3 267.822 456.202 263.659 453.49 260.425C452.117 258.807 450.169 257.806 448.281 256.916C446.19 255.939 444.096 254.997 442.005 254.02C433.401 250.058 424.793 246.131 416.189 242.168C407.448 238.16 398.708 234.152 389.929 230.175C381.221 226.204 372.547 222.236 363.838 218.265C355.265 214.341 346.655 210.448 338.08 206.558C336.021 205.619 333.886 204.324 331.539 204.761C329.618 205.129 328.2 206.624 327.193 208.222C326.063 210.055 325.335 212.096 324.474 214.057C323.48 216.356 322.489 218.621 321.495 220.921C317.53 229.98 313.568 239.005 309.639 248.067C307.656 252.597 305.674 257.127 303.695 261.621C302.701 263.921 301.709 266.186 300.715 268.486C299.768 270.649 298.75 272.807 297.904 275.013C297.231 276.814 297.002 278.756 297.656 280.596C298.226 282.183 299.237 283.527 300.479 284.609C302.997 286.777 306.007 288.074 309.055 289.339C313.66 291.258 318.222 293.278 322.783 295.298C328.256 297.742 333.22 299.97 338.687 302.485C344.458 305.129 350.226 307.808 355.957 310.519C361.687 313.23 367.418 315.941 373.148 318.652C378.371 321.147 383.592 323.676 388.812 326.205C393.121 328.31 397.466 330.417 401.735 332.588C404.728 334.094 407.756 335.603 410.711 337.141C411.584 337.597 412.422 338.051 413.258 338.54C415.465 339.807 417.705 341.531 420.381 340.49C422.334 339.74 423.621 337.709 424.705 336.012C425.993 333.982 427.013 331.789 427.76 329.504C428.453 327.46 425.241 326.497 424.548 328.541C423.809 330.721 422.835 332.777 421.556 334.703C420.755 335.933 419.65 337.874 417.977 337.351C416.748 336.97 415.599 336.036 414.462 335.382C412.185 334.11 409.83 332.936 407.51 331.766C399.071 327.502 390.55 323.371 382.029 319.241C370.98 313.922 359.855 308.668 348.725 303.483C338.267 298.634 327.772 293.816 317.19 289.201C315.059 288.291 312.93 287.346 310.796 286.471C308.122 285.341 305.643 284.402 303.302 282.635C302.313 281.888 301.375 280.936 300.843 279.737C300.785 279.592 300.701 279.34 300.625 278.983C300.549 278.627 300.552 278.592 300.551 278.172C300.562 277.192 300.92 276.241 301.307 275.362C303.136 270.995 305.101 266.674 307 262.313C310.877 253.456 314.755 244.6 318.636 235.709C320.572 231.315 322.473 226.919 324.407 222.56C325.395 220.33 326.348 218.097 327.34 215.832C328.201 213.872 328.885 211.932 329.941 210.163C330.632 208.994 331.532 207.842 332.85 207.985C333.717 208.091 334.555 208.545 335.333 208.889C336.411 209.398 337.528 209.875 338.607 210.383C342.76 212.265 346.912 214.146 351.065 216.027C359.574 219.877 368.045 223.758 376.55 227.642C393.495 235.37 410.472 243.135 427.414 250.898C431.665 252.857 435.885 254.779 440.136 256.739C442.16 257.675 444.188 258.577 446.177 259.51C447.897 260.316 449.828 261.105 451.07 262.608C453.074 265.083 451.6 268.954 450.819 271.656C449.898 274.767 448.838 277.867 447.645 280.886C442.44 294.396 435.745 307.293 429.023 320.083C427.612 322.769 426.204 325.42 424.796 328.071C424.38 328.877 424.509 329.868 425.344 330.357C426.078 330.802 427.214 330.615 427.63 329.809L427.587 329.91Z" fill="black"/>
<path d="M437.056 271.648C435.492 274.917 433.926 278.22 432.362 281.488C431.983 282.262 432.037 283.317 432.91 283.774C433.612 284.182 434.809 284.105 435.196 283.226C436.76 279.958 438.326 276.655 439.89 273.386C440.269 272.612 440.215 271.557 439.342 271.1C438.64 270.693 437.443 270.769 437.056 271.648Z" fill="black"/>
<path d="M439.944 268.909C435.833 266.085 431.52 263.596 427.002 261.474C424.676 260.373 422.307 259.373 419.894 258.475C418.705 258.027 417.479 257.612 416.249 257.231C415.704 257.046 415.156 256.896 414.611 256.711C414.031 256.524 413.419 256.298 412.822 256.319C411.141 256.322 410.587 257.957 409.925 259.198L408.219 262.49C407.638 263.598 407.057 264.706 406.476 265.814C405.935 266.855 405.464 267.902 405.402 269.087C405.293 271.705 407.407 273.244 409.574 274.157C411.809 275.075 414.129 275.826 416.4 276.748C421.582 278.888 426.622 281.473 431.46 284.391C432.194 284.836 433.295 284.646 433.746 283.843C434.195 283.074 434.002 282.008 433.199 281.557C429.059 279.081 424.796 276.841 420.405 274.87C418.242 273.922 416.076 273.009 413.866 272.198C412.814 271.796 411.755 271.464 410.703 271.063C410.598 271.054 410.5 270.976 410.398 270.933C410.364 270.93 410.027 270.762 410.23 270.849C410.398 270.933 410.129 270.806 410.129 270.806C410.027 270.762 409.926 270.719 409.827 270.641C409.627 270.519 409.461 270.401 409.261 270.279C408.997 270.083 409.163 270.201 409.261 270.279C409.131 270.164 409.035 270.051 408.939 269.938C408.785 269.68 408.907 269.9 408.939 269.938C408.875 269.862 408.849 269.755 408.788 269.645C408.939 269.938 408.709 269.324 408.73 269.5C408.719 269.639 408.773 268.979 408.761 269.118C408.747 269.292 408.773 268.979 408.776 268.944C408.787 268.805 408.833 268.668 408.879 268.532C408.885 268.463 409.142 267.888 409.015 268.158C409.102 267.955 409.223 267.755 409.31 267.552C409.599 267.015 409.853 266.476 410.143 265.939C411.227 263.822 412.308 261.74 413.427 259.625C413.427 259.625 413.589 259.359 413.594 259.289C413.589 259.359 412.135 260.43 412.827 259.681C412.488 259.549 412.789 259.713 412.827 259.681C412.963 259.728 413.099 259.774 413.239 259.785C413.818 259.973 414.401 260.126 414.981 260.313C416.106 260.686 417.196 261.055 418.319 261.463C420.392 262.228 422.561 263.106 424.521 263.967C429.28 266.143 433.831 268.722 438.139 271.702C438.867 272.217 440.011 271.926 440.425 271.154C440.876 270.351 440.675 269.389 439.877 268.868L439.944 268.909Z" fill="black"/>
<path d="M317.897 271.646C324 273.652 329.774 276.262 335.32 279.518C336.054 279.963 337.155 279.773 337.606 278.97C338.054 278.201 337.896 277.138 337.058 276.684C331.312 273.306 325.167 270.526 318.823 268.465C317.971 268.185 317.015 268.737 316.735 269.59C316.487 270.48 317.007 271.398 317.859 271.678L317.897 271.646Z" fill="black"/>
<path d="M344.361 283.655C350.572 286.056 356.509 289.239 362.044 293.054C362.775 293.535 363.916 293.278 364.33 292.507C364.781 291.703 364.58 290.741 363.782 290.221C358.015 286.246 351.805 282.97 345.29 280.44C344.44 280.125 343.444 280.744 343.202 281.564C342.916 282.486 343.479 283.303 344.326 283.653L344.361 283.655Z" fill="black"/>
<path d="M371.503 297.297C373.059 297.53 374.875 298.449 376.429 299.137C378.082 299.903 379.834 300.747 381.516 301.585C385.011 303.378 388.387 305.335 391.717 307.429C392.448 307.909 393.587 307.688 394.003 306.881C394.454 306.078 394.256 305.081 393.455 304.595C390.026 302.423 386.517 300.385 382.886 298.546C381.004 297.586 379.116 296.696 377.19 295.838C375.366 295.023 373.609 294.249 371.603 293.944C370.704 293.8 369.891 294.749 369.895 295.555C369.85 296.531 370.604 297.154 371.505 297.263L371.503 297.297Z" fill="black"/>
<path d="M401.246 311.678C404.163 312.827 406.93 314.105 409.679 315.591C411.089 316.337 412.458 317.15 413.827 317.962C414.46 318.364 415.127 318.769 415.759 319.171C416.093 319.374 416.423 319.611 416.757 319.813C416.922 319.932 417.122 320.053 417.288 320.172C417.354 320.212 417.421 320.253 417.453 320.291C417.749 320.525 417.72 320.453 417.264 320.03C417.218 319.746 417.133 319.494 417.086 319.21C417.084 319.245 417.081 319.279 417.078 319.314C417.251 318.908 417.422 318.537 417.63 318.134C417.63 318.134 417.63 318.134 417.592 318.166C417.989 318.023 418.386 317.881 418.783 317.738C418.887 317.747 418.992 317.755 419.096 317.764L419.862 318.247C419.862 318.247 419.862 318.247 419.83 318.209C419.949 318.464 420.103 318.722 420.222 318.977C420.222 318.977 420.222 318.977 420.225 318.942C420.075 319.49 419.893 320 419.743 320.548C419.743 320.548 419.743 320.548 419.781 320.516C420.423 319.939 420.517 318.791 419.87 318.143C419.223 317.494 418.214 317.412 417.497 318.053C417.497 318.053 417.496 318.053 417.459 318.085C417.042 318.471 416.814 319.117 416.977 319.691C417.414 321.198 419.342 321.601 420.256 320.275C420.73 319.614 420.529 318.652 420.018 318.05C419.699 317.673 419.197 317.387 418.765 317.107C417.073 315.952 415.307 314.862 413.5 313.838C409.889 311.756 406.113 309.976 402.245 308.468C401.395 308.153 400.399 308.772 400.157 309.592C399.871 310.514 400.434 311.331 401.281 311.681L401.246 311.678Z" fill="black"/>
<path d="M450.126 261.795C448.225 262.34 446.351 262.991 444.532 263.823C444.06 264.029 443.864 264.713 444.105 265.188C444.381 265.666 444.961 265.854 445.471 265.615C445.905 265.441 446.342 265.232 446.777 265.057C446.994 264.97 447.211 264.883 447.429 264.795C447.536 264.769 447.646 264.708 447.753 264.682C447.608 264.74 447.898 264.624 447.753 264.682C447.823 264.688 447.898 264.624 447.933 264.627C448.799 264.312 449.697 264.036 450.595 263.759C451.096 263.625 451.49 263.097 451.359 262.561C451.225 262.06 450.697 261.667 450.161 261.798L450.126 261.795Z" fill="black"/>
<path d="M451.684 264.899C449.418 265.204 447.234 265.795 445.101 266.6C444.884 266.688 444.685 266.986 444.598 267.189C444.543 267.43 444.552 267.746 444.677 267.931C444.985 268.447 445.501 268.559 446.043 268.358C446.222 268.303 445.973 268.353 446.078 268.361C446.147 268.367 446.222 268.303 446.295 268.274C446.405 268.213 446.547 268.19 446.654 268.163C446.906 268.079 447.158 267.995 447.41 267.91C447.914 267.741 448.45 267.61 448.986 267.479C450.024 267.214 451.09 267.022 452.153 266.864C452.684 266.802 453.051 266.167 452.917 265.665C452.754 265.092 452.284 264.843 451.719 264.902L451.684 264.899Z" fill="black"/>
<path d="M452.823 268.565C449.899 268.78 447.048 269.387 444.302 270.422C443.798 270.591 443.63 271.348 443.875 271.788C444.182 272.303 444.698 272.416 445.24 272.215C445.13 272.276 445.31 272.221 445.347 272.189C445.42 272.16 445.492 272.13 445.599 272.104C445.744 272.046 445.924 271.991 446.103 271.935C446.428 271.822 446.715 271.741 447.039 271.627C447.685 271.435 448.329 271.278 448.972 271.12C449.612 270.998 450.252 270.875 450.893 270.752C451.246 270.711 451.565 270.668 451.919 270.626C451.988 270.632 452.058 270.638 452.13 270.609C451.991 270.598 452.2 270.615 452.234 270.618C452.408 270.632 452.623 270.579 452.8 270.559C453.327 270.532 453.848 270.155 453.824 269.592C453.829 269.102 453.423 268.509 452.858 268.568L452.823 268.565Z" fill="black"/>
<path d="M451.406 272.16C448.399 272.964 445.441 274.017 442.6 275.36C442.125 275.601 441.931 276.251 442.172 276.726C442.446 277.238 443.028 277.391 443.538 277.153C446.197 275.9 448.978 274.867 451.841 274.122C452.377 273.991 452.7 273.457 452.604 272.924C452.47 272.423 451.942 272.029 451.406 272.16Z" fill="black"/>
<path d="M448.887 277.731C446.047 278.198 443.248 279.019 440.603 280.098C440.131 280.305 439.932 281.024 440.176 281.464C440.484 281.979 441 282.092 441.542 281.891C442.194 281.629 442.701 281.426 443.35 281.199C443.999 280.972 444.645 280.78 445.325 280.59C446.652 280.209 448.005 279.935 449.356 279.695C449.889 279.599 450.253 278.999 450.119 278.497C449.953 277.959 449.489 277.64 448.921 277.734L448.887 277.731Z" fill="black"/>
<path d="M447.471 283.008C444.246 283.058 441.073 283.743 438.066 284.968C437.559 285.171 437.398 285.858 437.639 286.333C437.912 286.846 438.498 286.964 439.005 286.76C441.612 285.714 444.57 285.081 447.41 285.034C447.938 285.007 448.424 284.627 448.435 284.067C448.478 283.545 447.996 283.016 447.469 283.042L447.471 283.008Z" fill="black"/>
<path d="M444.571 286.797C441.642 287.502 438.771 288.352 435.955 289.382C435.448 289.585 435.063 290.009 435.192 290.58C435.294 291.043 435.886 291.512 436.39 291.343C439.206 290.314 442.079 289.429 445.006 288.758C445.542 288.627 445.866 288.093 445.769 287.56C445.638 287.024 445.104 286.7 444.571 286.797Z" fill="black"/>
<path d="M443.175 290.534C440.35 291.248 437.56 291.965 434.735 292.678C434.233 292.812 433.84 293.34 433.971 293.876C434.105 294.378 434.633 294.771 435.169 294.64C437.994 293.926 440.784 293.209 443.609 292.496C444.11 292.362 444.504 291.834 444.373 291.298C444.239 290.797 443.711 290.403 443.175 290.534Z" fill="black"/>
<path d="M441.79 297.214C438.753 297.525 435.722 298.187 432.805 299.173C432.301 299.342 431.913 299.8 432.042 300.371C432.141 300.869 432.735 301.303 433.24 301.135C436.157 300.148 439.15 299.518 442.225 299.175C442.755 299.114 443.09 298.441 442.988 297.977C442.86 297.406 442.32 297.152 441.79 297.214Z" fill="black"/>
<path d="M438.768 302.009C435.951 302.198 433.184 302.636 430.46 303.393C429.959 303.527 429.565 304.055 429.697 304.591C429.831 305.093 430.358 305.486 430.894 305.355C433.438 304.653 436.136 304.209 438.672 304.032C439.199 304.005 439.72 303.628 439.696 303.065C439.702 302.576 439.292 302.017 438.73 302.041L438.768 302.009Z" fill="black"/>
<path d="M436.087 306.096C433.282 306.566 430.529 307.251 427.861 308.188C427.357 308.356 426.969 308.815 427.098 309.385C427.235 309.852 427.757 310.315 428.296 310.149C430.964 309.212 433.716 308.528 436.521 308.057C437.054 307.961 437.419 307.36 437.285 306.859C437.119 306.32 436.655 306.002 436.087 306.096Z" fill="black"/>
<path d="M433.515 309.702C430.882 310.641 428.129 311.326 425.365 311.73C424.834 311.791 424.467 312.426 424.601 312.928C424.764 313.501 425.234 313.75 425.799 313.691C428.564 313.288 431.316 312.603 433.949 311.663C434.453 311.494 434.841 311.036 434.713 310.465C434.576 309.999 434.054 309.536 433.515 309.702Z" fill="black"/>
<path d="M431.637 315.57C428.823 315.725 426.076 316.34 423.466 317.422C422.994 317.628 422.795 318.347 423.039 318.787C423.347 319.303 423.863 319.415 424.405 319.214C424.55 319.156 424.695 319.098 424.839 319.04C424.912 319.011 424.984 318.982 425.057 318.953C425.091 318.956 425.274 318.865 425.129 318.924C425.419 318.807 425.743 318.694 426.03 318.612C426.641 318.417 427.25 318.257 427.893 318.1C428.499 317.974 429.139 317.852 429.742 317.761C429.884 317.738 430.06 317.717 430.237 317.697C430.307 317.702 430.411 317.711 430.484 317.682C430.802 317.638 430.379 317.673 430.553 317.687C430.907 317.646 431.223 317.637 431.573 317.631C432.101 317.604 432.622 317.227 432.598 316.665C432.603 316.175 432.194 315.616 431.632 315.64L431.637 315.57Z" fill="black"/>
<path d="M429.838 319.59C427.218 319.935 424.675 320.637 422.241 321.698C421.769 321.905 421.57 322.624 421.814 323.064C422.087 323.577 422.638 323.692 423.18 323.491C423.47 323.375 423.759 323.259 424.049 323.142C424.121 323.113 424.194 323.084 424.266 323.055C424.266 323.055 424.518 322.971 424.411 322.997C424.339 323.026 424.591 322.941 424.556 322.939C424.625 322.944 424.666 322.878 424.735 322.883C425.347 322.688 425.958 322.493 426.566 322.333C427.783 322.013 429.029 321.765 430.269 321.586C430.8 321.525 431.167 320.89 431.033 320.388C430.87 319.815 430.4 319.566 429.835 319.625L429.838 319.59Z" fill="black"/>
<path d="M426.184 323.983C423.79 324.557 421.36 325.163 418.966 325.737C418.465 325.871 418.072 326.399 418.203 326.935C418.337 327.437 418.865 327.83 419.401 327.699C421.794 327.125 424.225 326.519 426.618 325.945C427.119 325.811 427.513 325.283 427.382 324.747C427.248 324.245 426.72 323.852 426.184 323.983Z" fill="black"/>
<path d="M424.311 327.996C421.662 328.269 419.072 328.687 416.464 329.314C415.963 329.448 415.569 329.976 415.701 330.512C415.832 331.048 416.363 331.406 416.899 331.275C419.469 330.681 422.097 330.231 424.745 329.958C425.276 329.896 425.611 329.223 425.509 328.76C425.346 328.186 424.876 327.938 424.311 327.996Z" fill="black"/>
<path d="M422.342 331.126C420.253 331.41 418.161 331.728 416.071 332.012C415.541 332.074 415.174 332.709 415.308 333.21C415.471 333.784 415.941 334.033 416.506 333.974L422.777 333.087C423.307 333.026 423.674 332.391 423.54 331.889C423.377 331.316 422.907 331.067 422.342 331.126Z" fill="black"/>
<path d="M420.989 334.342C420.062 334.546 419.102 334.712 418.184 334.812C418.08 334.803 417.972 334.829 417.865 334.856C417.796 334.85 417.761 334.847 417.691 334.841C417.517 334.827 417.587 334.833 417.691 334.841C417.445 334.856 417.233 334.874 416.987 334.889C416.494 334.918 416.036 334.951 415.544 334.981C415.016 335.007 414.495 335.385 414.519 335.947C414.511 336.472 414.923 336.996 415.486 336.972C417.523 336.894 419.537 336.674 421.499 336.239C421.997 336.14 422.396 335.543 422.262 335.041C422.131 334.505 421.597 334.181 421.064 334.278L420.989 334.342Z" fill="black"/>
<path d="M365.033 231.46C360.033 228.808 354.952 226.291 349.822 223.944C344.997 221.727 340.06 219.152 334.715 218.573C333.95 218.51 333.15 218.445 332.417 218.84C331.571 219.331 331.118 220.169 330.936 221.1C330.634 222.651 330.366 224.204 330.061 225.79C329.883 226.686 330.264 227.593 331.186 227.878C331.971 228.118 333.095 227.65 333.274 226.754C333.518 225.478 333.763 224.203 333.973 222.924C333.996 222.646 334.088 222.373 334.149 222.063C334.16 221.924 334.282 221.724 334.255 221.617C334.273 221.408 334.325 221.623 334.221 221.614C334.151 221.608 333.844 221.933 333.783 221.823L334.131 221.852C334.444 221.877 334.792 221.906 335.105 221.932C337.218 222.21 339.567 223.033 341.634 223.868C346.277 225.754 350.822 227.983 355.331 230.209C357.991 231.512 360.645 232.886 363.264 234.256C364.035 234.669 365.096 234.546 365.549 233.708C365.96 232.971 365.843 231.841 365.002 231.422L365.033 231.46Z" fill="black"/>
</g>
<path d="M485.755 176.014C487.343 172.931 488.923 169.896 490.482 166.834C493.413 161.089 496.379 155.344 499.254 149.572C501.887 144.292 504.47 138.971 507.01 133.629C507.592 132.411 507.983 131.082 508.333 129.768C508.559 128.917 508.265 127.986 507.456 127.676C506.767 127.406 505.756 127.329 505.141 127.655C503.945 128.274 502.87 129.179 501.837 130.069C498.823 132.678 495.858 135.328 492.857 137.944C485 144.815 477.136 151.665 469.258 158.508C468.861 158.855 468.364 159.082 467.581 159.572C467.431 158.099 467.234 156.9 467.212 155.701C467.138 150.628 467.119 145.548 467.051 140.461C467.019 138.819 466.939 137.171 466.76 135.544C466.677 134.681 466.111 133.913 465.185 133.912C464.574 133.909 463.79 134.188 463.4 134.625C462.334 135.867 461.438 137.262 460.478 138.609C457.683 142.514 454.894 146.44 452.077 150.318C451.688 150.861 451.129 151.285 450.397 152.027C449.912 150.809 449.457 149.85 449.135 148.835C447.565 143.709 446.03 138.582 444.475 133.463C444.231 132.679 443.98 131.873 443.576 131.167C442.674 129.587 440.54 129.376 439.419 130.766C438.737 131.619 438.203 132.598 437.697 133.556C436.172 136.478 434.718 139.434 433.193 142.356C432.77 143.18 432.192 143.927 431.498 145.019C430.861 144.251 430.381 143.805 430.062 143.281C427.913 139.759 425.813 136.207 423.658 132.699C423.083 131.769 422.481 130.826 421.732 130.038C420.474 128.72 418.358 129.182 417.724 130.934C417.4 131.806 417.245 132.796 417.216 133.744C417.039 138.972 416.371 144.134 415.21 149.229C414.637 151.78 413.79 154.248 413.266 156.806C412.94 158.394 412.937 160.071 412.954 161.706C412.964 162.077 413.584 162.558 414.042 162.765C414.309 162.897 414.939 162.682 415.12 162.421C415.829 161.441 416.602 160.44 417.058 159.335C419.213 154.101 420.476 148.62 421.093 142.995C421.252 141.535 421.383 140.095 421.82 138.282C423.489 140.222 424.482 142.005 425.483 143.774C426.363 145.326 427.23 146.906 428.221 148.373C430.219 151.35 432.724 151.376 434.69 148.304C436.309 145.76 437.625 143.015 439.067 140.367C439.643 139.304 439.908 138.018 441.37 137.321C441.648 137.93 441.981 138.496 442.16 139.091C443.308 142.908 444.399 146.732 445.56 150.556C446.004 151.999 446.442 153.456 447.089 154.806C448.426 157.597 450.849 157.932 453.052 155.693C454.007 154.712 454.856 153.626 455.663 152.519C457.75 149.629 459.787 146.697 461.866 143.785C461.998 143.588 462.299 143.509 462.53 143.36C463.499 143.522 463.343 144.337 463.354 144.954C463.373 148.933 463.321 152.912 463.333 156.904C463.342 158.413 463.401 159.928 463.516 161.436C463.57 162.109 463.679 162.81 463.929 163.44C464.536 165.05 466.063 165.784 467.595 165.052C468.812 164.461 469.972 163.668 471.005 162.777C480.216 154.754 489.384 146.674 498.58 138.609C498.88 138.354 499.258 138.191 499.573 138.013C500.404 138.492 499.909 139.035 499.701 139.458C494.119 150.805 488.599 162.166 482.186 173.069C481.353 174.478 480.57 175.964 479.99 177.497C479.038 180.001 480.384 181.992 483.022 181.996C484.37 181.995 485.758 181.803 487.068 181.451C490.64 180.481 494.176 179.37 497.748 178.33C498.526 178.1 499.318 177.983 500.656 177.68C498.39 180.936 495.652 182.982 493.338 185.41C490.961 187.896 488.599 190.388 486.243 192.866C483.964 195.259 481.677 197.632 479.455 200.053C477.176 202.516 474.389 204.52 472.506 207.423C473.844 208.081 474.625 207.382 475.344 206.808C477.906 204.729 480.468 202.65 482.924 200.466C484.877 198.734 486.69 196.863 488.565 195.04C494.988 188.845 501.404 182.629 507.812 176.427C508.503 175.77 509.179 175.071 509.735 174.295C510.229 173.611 510.49 172.691 509.84 172.021C509.423 171.589 508.663 171.25 508.06 171.268C506.986 171.317 505.894 171.618 504.843 171.906C499.414 173.379 493.979 174.902 488.551 176.375C487.801 176.584 487.025 177.094 485.776 176.007L485.755 176.014Z" fill="white"/>
<defs>
<linearGradient id="paint0_linear_67_1481" x1="272.5" y1="35" x2="272.5" y2="415" gradientUnits="userSpaceOnUse">
<stop stop-color="#B152F2"/>
<stop offset="1" stop-color="#8427C4"/>
</linearGradient>
</defs>
</svg>
