<svg width="296" height="216" viewBox="0 0 296 216" fill="none" xmlns="http://www.w3.org/2000/svg">
<mask id="mask0_69_1603" style="mask-type:alpha" maskUnits="userSpaceOnUse" x="0" y="14" width="284" height="202">
<path d="M11.6425 45.4191C0.359631 73.4927 -8.68854 138.975 14.2343 190.733C18.3136 199.944 31.7374 205.332 42.26 207.386C52.7826 209.441 172.317 226.469 261.541 202.135C270.492 198.468 277.282 189.874 278.733 179.37C285.783 128.265 283.9 80.9217 277.196 50.0026C274.88 39.2888 267.623 31.2487 258.276 27.6965C212.695 10.3749 76.9724 11.0625 31.7374 25.5385C22.5106 28.4986 15.5647 35.6411 11.6252 45.4191H11.6425Z" fill="url(#paint0_linear_69_1603)"/>
</mask>
<g mask="url(#mask0_69_1603)">
<path d="M9.61959 45.4191C-1.74731 73.4927 -10.8629 138.975 12.2307 190.733C16.3404 199.944 29.8641 205.332 40.4651 207.386C51.0661 209.441 171.491 226.469 261.38 202.135C270.397 198.468 277.238 189.874 278.7 179.37C285.802 128.265 283.905 80.9217 277.151 50.0026C274.818 39.2888 267.507 31.2487 258.09 27.6965C212.17 10.3749 75.4362 11.0625 29.8641 25.5385C20.5687 28.4986 13.571 35.6411 9.60218 45.4191H9.61959Z" fill="url(#paint1_linear_69_1603)"/>
<path d="M9.61959 45.4191C-1.74731 73.4927 -10.8629 138.975 12.2307 190.733C16.3404 199.944 29.8641 205.332 40.4651 207.386C51.0661 209.441 171.491 226.469 261.38 202.135C270.397 198.468 277.238 189.874 278.7 179.37C285.802 128.265 283.905 80.9217 277.151 50.0026C274.818 39.2888 267.507 31.2487 258.09 27.6965C212.17 10.3749 75.4362 11.0625 29.8641 25.5385C20.5687 28.4986 13.571 35.6411 9.60218 45.4191H9.61959Z" fill="#6722A3" fill-opacity="0.5"/>
<path d="M84.534 79.998C84.2282 79.2589 83.6623 78.2706 83.9127 77.5824C84.7776 77.3787 84.8799 78.8352 85.2488 79.3451C85.4784 79.6626 86.1361 79.3197 86.6173 79.7448C86.5039 80.0946 85.9447 80.3923 85.5886 80.6234C85.9215 81.0656 86.3179 81.4985 86.3873 82.0397L86.3032 82.3965C85.5052 82.5418 85.2067 81.4419 84.958 80.8336C84.2943 80.9932 83.6295 81.1484 82.9637 81.2992C83.1856 81.7863 83.5047 82.333 83.4334 82.8465L83.2682 83.0632C82.521 82.9286 82.4586 82.3421 82.1879 81.7132L82.1346 81.5879C81.5104 81.7685 80.9496 81.932 80.3111 82.0685C80.5433 82.5227 80.8696 83.0392 80.8528 83.5338L80.7267 83.8339C80.0092 83.8688 79.8036 83.0339 79.5022 82.469C78.8241 82.6423 77.9399 82.8957 77.2651 83.0011C77.5993 83.679 78.0278 84.3074 77.8071 85.0131L77.5264 85.1265C76.7815 84.5713 76.9642 83.2653 75.9254 83.4939C74.9944 83.6987 74.2004 83.6951 74.382 85.0097C74.9394 85.7491 77.0063 85.3453 77.4097 86.1806C76.9945 86.9857 75.1212 86.1487 74.3921 85.9259C74.434 87.4668 74.5298 91.738 74.3819 93.1696C75.9429 93.591 78.3161 93.8709 79.9985 94.1354L92.8191 96.1568C101.493 97.5876 100.266 96.3742 100.146 105.389C103.763 105.992 107.4 106.461 111.031 106.971C121.437 108.431 131.851 109.852 142.251 111.363C142.596 111.413 142.797 111.535 143.067 111.741C143.348 111.95 143.624 112.164 143.895 112.383C143.941 113.85 144.305 116.788 143.339 117.766C143.176 117.932 142.706 118.223 142.484 118.363C142.172 120.764 142.334 124.923 142.317 127.47C142.271 134.712 142.59 141.838 142.591 149.096L142.848 187.996L142.855 203.469C142.858 207.375 142.809 211.315 143.092 215.211H141.238H135.402H133.598H129.572H127.994H124.009H122.433H117.913H116.427H113.404H111.755H104.936H103.245H94.5808H93.0092H89.0273H87.4172H83.0226H81.3387H76.8361H75.243H67.2774H65.432H60.0979H58.2603H52.445H50.8503H43.9615H42.2952H30.9436H29.3528H26.7223H24.9123H18.9321H17.0427C16.9267 193.27 17.0626 171.329 17.4504 149.392C17.5851 139.931 17.4076 131.054 17.7185 121.501C15.4317 120.642 16.0691 119.114 16.1183 117.011C16.1353 116.282 16.3664 115.857 16.7197 115.22C20.566 112.961 40.9566 98.0415 43.1948 97.8013C44.3093 97.6817 45.475 97.9132 46.5768 98.0734C48.9343 98.4163 52.4086 99.1474 54.7024 99.1114C56.6001 97.8466 64.9185 92.3229 66.4495 92.2121C68.4879 92.0646 71.0869 92.8129 73.1591 93.0841C73.0855 91.6032 73.3077 87.063 73.0322 85.9608C72.6649 85.6125 71.4254 85.2623 70.8277 85.0361C70.2002 85.19 69.7567 85.2642 69.1155 85.3559C68.3381 85.4349 68.5544 85.7195 67.904 85.6415C67.3572 85.9394 66.5033 86.1997 65.8459 86.4979C65.7253 87.026 66.6093 87.5683 66.4196 88.3817L66.0861 88.47C65.0164 88.188 65.5613 87.28 64.9011 86.7742C64.3658 86.8174 64.0624 86.9401 63.7949 86.4387C63.8603 85.8985 64.4544 85.9553 64.3916 85.5722C64.2829 84.9103 63.3945 83.7188 64.2924 83.3593C64.9244 83.7251 65.046 84.6986 65.2498 85.4487L68.0283 84.7632C67.7074 84.1555 67.2367 83.6571 67.595 82.9909L67.8645 83.0311C68.2734 83.3854 68.4028 83.9009 68.5849 84.4128C69.5389 84.1456 70.2843 83.9334 71.2591 83.7679C71.4914 83.8094 71.7063 83.6698 71.9292 83.5643C73.0158 82.9865 74.5243 82.905 75.7928 82.4338C76.3006 82.0754 76.3323 82.0852 76.9466 82.0132C77.4867 81.8703 78.4685 81.726 78.7799 81.4381C78.8954 80.5194 78.3382 79.9034 78.7004 79.5343L78.9635 79.581C79.8303 81.1688 79.7998 81.1251 81.5586 80.7147C81.3761 80.1928 81.1746 79.7397 81.2149 79.1877L81.3609 78.9005C81.9684 79.0241 82.1544 79.8578 82.3601 80.4054C83.1129 80.2429 83.7673 80.0978 84.534 79.998ZM142.409 207.826C142.665 206.998 142.718 185.759 142.459 184.811C142.049 189.491 142.476 195.437 142.309 200.22C142.281 201.046 142.28 207.247 142.409 207.826ZM141.91 132.222C141.903 130.483 142.375 120.488 141.789 119.595C141.786 123.535 141.658 128.282 141.824 132.171L141.91 132.222Z" fill="black"/>
<path d="M44.3438 105.125C54.5956 106.691 65.3347 107.991 75.6424 109.342L87.8263 110.952C89.1884 111.127 91.4647 111.506 92.7464 111.604L93.0094 215.211H89.0275H87.4173H83.0228H81.3389H76.8363H75.2431H67.2776H65.4321H60.098H58.2604H52.4451H50.8505H43.9617L44.3438 105.125Z" fill="#F8D50B"/>
<path d="M50.9662 183.172C55.9378 182.91 61.1215 183.427 66.1078 183.447C66.4173 183.448 66.7466 183.577 67.0085 183.737L67.0846 183.782C67.4474 185.168 67.2725 192.129 67.2871 194.006C68.3514 193.996 72.365 193.838 72.5721 194.483C73.0565 195.994 72.8967 202.969 72.8186 204.427C71.9844 204.816 71.8511 204.892 70.9288 205.061C70.4448 205.153 67.2353 206.92 67.0231 207.314C67.4877 208.417 67.2866 213.755 67.2774 215.211H65.432H60.0979H58.2603H52.445H50.8504C50.8369 213.711 50.6806 208.314 51.0399 207.227C50.5419 206.516 49.1534 206.212 48.52 204.911C47.3467 204.43 47.4948 202.811 47.4891 201.707C47.4805 200.004 47.4426 198.273 47.4852 196.57C47.5656 193.36 48.0807 193.636 50.8529 193.751C50.8444 192.176 50.7067 184.343 50.9662 183.172Z" fill="black"/>
<path d="M51.0401 207.227C52.3349 206.868 65.7724 206.962 67.0232 207.315C67.4878 208.417 67.2867 213.755 67.2776 215.211H65.4321H60.098H58.2604H52.4451H50.8505C50.837 213.712 50.6807 208.314 51.0401 207.227Z" fill="black"/>
<path d="M52.4253 208.839C54.3418 208.835 56.3485 208.803 58.2572 208.849L58.2602 215.21H52.4449L52.4253 208.839Z" fill="#6CC7EE"/>
<path d="M60.0452 208.841L65.4266 208.852L65.4322 215.211H60.0981C60.0533 213.14 60.1194 210.84 60.0452 208.841Z" fill="#6CC7EE"/>
<path d="M48.52 204.911C51.1083 204.784 54.3511 204.863 56.9726 204.871C61.6254 204.869 66.2779 204.932 70.9288 205.061C70.4449 205.153 67.2354 206.92 67.0231 207.314C65.7724 206.962 52.3348 206.867 51.04 207.227C50.542 206.516 49.1535 206.212 48.52 204.911Z" fill="#FCAB08"/>
<path d="M49.241 195.341C56.7093 195.255 63.8524 195.602 71.2598 195.592L71.258 203.527C64.1626 203.633 56.5003 203.276 49.2639 203.281L49.241 195.341Z" fill="#F7F0EC"/>
<path d="M52.4202 184.719C54.5572 184.673 56.1683 184.758 58.2622 184.965C58.2568 187.896 58.2661 190.827 58.2901 193.757L52.4465 193.745L52.4202 184.719Z" fill="#6CC7EE"/>
<path d="M59.8479 184.971C61.7249 184.965 63.561 184.97 65.431 185.147L65.4409 194.006C63.6062 193.973 61.7451 193.785 59.857 193.763L59.8479 184.971Z" fill="#6CC7EE"/>
<path d="M50.8545 120.596C50.8455 118.871 50.6318 111.985 51.1136 110.821C52.4935 110.053 63.9085 112.061 66.2082 112.344C66.3246 112.358 67.0656 112.623 67.1126 112.796C67.4114 114.997 67.277 120.368 67.2793 122.456C68.6272 122.652 71.8934 122.648 72.6305 123.503C72.9889 124.266 73.0154 132.178 72.6909 133.117C72.5673 133.475 72.3516 133.753 71.9971 133.907C71.7515 134.013 71.466 134.065 71.2047 134.121C70.4408 134.227 67.408 135.832 67.0914 136.462C65.7232 135.921 53.2507 134.871 51.0792 134.885C51.0062 133.985 49.1983 133.577 48.5812 132.065C48.2862 131.9 47.7726 131.626 47.7457 131.305C47.6048 129.624 47.4761 122.348 47.9275 121.135C48.7219 120.334 49.809 120.543 50.8545 120.596Z" fill="black"/>
<path d="M48.5811 132.064C52.7549 132.345 56.9231 132.707 61.0828 133.151C63.7446 133.441 68.6119 134.091 71.2046 134.12C70.4407 134.226 67.4079 135.831 67.0913 136.461C65.7231 135.92 53.2505 134.87 51.079 134.884C51.0061 133.984 49.1982 133.576 48.5811 132.064Z" fill="#FCAB08"/>
<path d="M49.3925 122.089C52.685 122.668 56.0593 122.769 59.351 123.236C63.2898 123.794 67.3505 124.025 71.2654 124.576C71.2722 126.699 71.3946 130.584 71.2136 132.529C69.2581 132.12 65.8841 132.049 63.7646 131.806C58.9733 131.257 54.0404 130.893 49.2607 130.336C49.4932 128.835 49.3934 123.832 49.3925 122.089Z" fill="#F7F0EC"/>
<path d="M52.4077 112.314C53.948 112.619 56.5284 112.781 58.2349 113.007C58.3305 115.712 58.273 118.681 58.2739 121.404C56.2759 121.185 54.4386 121.096 52.434 120.799L52.4077 112.314Z" fill="#6CC7EE"/>
<path d="M59.8474 113.203C61.7082 113.448 63.5675 113.704 65.4253 113.971L65.4347 122.206C63.5164 122.157 61.7493 121.86 59.8538 121.589L59.8474 113.203Z" fill="#6CC7EE"/>
<path d="M51.079 134.884C53.2505 134.869 65.7231 135.92 67.0913 136.461C67.4529 137.782 67.2503 144.541 67.2929 146.409C69.5295 146.676 70.9996 146.188 72.8478 147.408L72.8622 153.675C72.8666 155.498 73.4486 157.983 70.7798 157.778C69.5081 158.805 67.9425 159.172 66.8241 159.857C63.1557 159.926 58.6557 159.168 54.9011 159.185C53.5451 159.192 52.4634 158.93 51.0088 159.129C50.6816 158.066 49.1318 157.845 48.3161 156.359C47.9867 156.2 47.6548 155.895 47.634 155.525C47.5302 153.673 47.2098 146.789 48.0276 145.484C48.7326 144.997 49.9868 145.197 50.863 145.247C50.8521 143.604 50.6457 135.856 51.079 134.884Z" fill="black"/>
<path d="M48.3162 156.359C52.1149 156.515 56.0487 156.932 59.8437 157.123C62.5313 157.258 65.2015 157.389 67.8861 157.606C68.4598 157.652 70.34 157.679 70.7799 157.778C69.5081 158.805 67.9425 159.172 66.8242 159.857C63.1557 159.926 58.6558 159.168 54.9012 159.186C53.5452 159.192 52.4635 158.93 51.0089 159.129C50.6817 158.066 49.1319 157.846 48.3162 156.359Z" fill="#FCAB08"/>
<path d="M49.2458 146.755C52.6874 146.856 56.5817 147.298 60.0344 147.517L66.8854 148.019C68.3869 148.126 69.7705 148.111 71.2545 148.405L71.2605 156.104C68.5611 156.122 66.2555 155.868 63.5906 155.692C61.0236 155.522 58.4209 155.49 55.842 155.234C53.6392 155.015 51.4383 155.151 49.2598 154.731L49.2458 146.755Z" fill="#F7F0EC"/>
<path d="M52.4196 136.433C53.6258 136.706 57.0295 137.018 58.2619 137.014C58.2445 139.937 58.2469 142.86 58.2688 145.782C56.1307 145.484 54.5427 145.534 52.4569 145.305C52.3928 142.415 52.4329 139.334 52.4196 136.433Z" fill="#6CC7EE"/>
<path d="M59.8405 137.249C61.7272 137.436 63.557 137.51 65.4265 137.84L65.448 146.32C63.6329 146.026 61.7463 146.032 59.8794 145.842C59.8049 143.023 59.8432 140.077 59.8405 137.249Z" fill="#6CC7EE"/>
<path d="M51.0086 159.129C52.4632 158.93 53.5449 159.193 54.9009 159.186C58.6555 159.169 63.1555 159.927 66.8239 159.858C67.6769 161.244 67.256 168.086 67.2796 170.12C68.3067 170.225 72.4594 170.353 72.6159 170.921C72.9867 172.269 72.9309 179.306 72.7756 180.499C72.4279 181.079 71.7015 181.463 71.0361 181.498C70.9021 181.493 70.412 181.498 70.3367 181.565C69.6683 182.159 67.2613 182.962 67.0845 183.783L67.0084 183.737C66.7465 183.577 66.4172 183.449 66.1077 183.447C61.1214 183.427 55.9378 182.91 50.9662 183.172C50.6324 182.489 49.1943 181.912 48.4288 180.763C47.2988 180.176 47.3009 177.149 47.4667 175.973C48.0305 171.972 45.7514 169.005 50.8585 169.527C50.8465 167.929 50.6816 160.288 51.0086 159.129Z" fill="black"/>
<path d="M48.4287 180.763C54.0851 180.785 59.7401 180.931 65.3901 181.201C66.8624 181.271 69.7083 181.254 71.036 181.497C70.902 181.492 70.4119 181.497 70.3366 181.564C69.6681 182.159 67.2612 182.961 67.0844 183.782L67.0083 183.737C66.7464 183.577 66.4171 183.448 66.1076 183.447C61.1213 183.427 55.9376 182.91 50.9661 183.172C50.6323 182.489 49.1942 181.911 48.4287 180.763Z" fill="#FCAB08"/>
<path d="M49.2498 171.179C53.9147 171.199 58.7682 171.504 63.4521 171.663C66.0717 171.752 68.6134 172.047 71.2607 171.998L71.261 179.812C69.8797 179.623 67.0963 179.709 65.5087 179.641C60.0983 179.387 54.6837 179.23 49.2676 179.17L49.2498 171.179Z" fill="#F7F0EC"/>
<path d="M52.4829 160.783C54.143 161.022 56.0255 160.781 58.2594 161.138L58.2617 169.89C56.8089 169.613 53.9586 169.623 52.4444 169.62C52.4326 167.541 52.2848 162.579 52.4829 160.783Z" fill="#6CC7EE"/>
<path d="M59.8381 161.107C61.9199 161.349 63.3543 161.394 65.4221 161.398L65.434 170.167C63.3817 170.031 61.9336 169.862 59.8481 169.862L59.8381 161.107Z" fill="#6CC7EE"/>
<path d="M75.243 215.211C75.233 213.773 74.9305 207.973 75.6908 207.193C77.197 206.827 87.096 206.903 88.7039 207.32C89.2825 207.927 89.0299 213.948 89.0274 215.211H87.4172H83.0227H81.3388H76.8362H75.243Z" fill="black"/>
<path d="M76.8103 208.812C78.3177 208.804 79.8251 208.815 81.3321 208.844L81.3388 215.211H76.8362L76.8103 208.812Z" fill="#6CC7EE"/>
<path d="M82.9339 208.843C84.421 208.832 85.9081 208.832 87.3952 208.844C87.3031 210.848 87.4066 213.18 87.4172 215.211H83.0227C82.9792 213.112 82.9203 210.94 82.9339 208.843Z" fill="#6CC7EE"/>
<path d="M75.3959 137.021C76.8876 136.83 87.2204 137.734 88.45 138.3C88.6202 138.378 88.7593 138.496 88.8248 138.672C89.157 139.564 89.1578 148.586 88.9933 150.057C88.9476 150.466 88.8077 150.817 88.6341 151.187C87.5028 151.467 76.6794 150.532 75.3159 150.131C75.131 148.64 75.078 137.982 75.3959 137.021Z" fill="black"/>
<path d="M76.8013 138.55C77.4062 138.732 80.6343 139.077 81.422 139.164C81.2174 140.781 81.3454 147.155 81.3472 149.161C80.8837 149.165 77.5254 148.723 76.8352 148.653L76.8013 138.55Z" fill="#6CC7EE"/>
<path d="M82.929 139.315C84.3854 139.412 85.7092 139.647 87.1796 139.659C87.1735 142.94 87.2085 146.221 87.2847 149.502C85.8468 149.484 84.348 149.314 82.9116 149.178C82.897 145.891 82.9029 142.603 82.929 139.315Z" fill="#6CC7EE"/>
<path d="M75.5465 113.412C76.1379 113.419 79.7866 113.901 80.5515 114.026C82.7633 114.388 86.877 114.576 88.8313 115.242C88.8851 115.509 88.9254 115.778 88.9518 116.048C89.2246 118.863 89.0337 124.215 88.941 127.204C88.9327 127.474 88.6809 127.841 88.5068 128.057C87.434 128.268 76.9679 127.079 75.6877 126.712C74.9296 125.971 74.9054 114.64 75.5465 113.412Z" fill="black"/>
<path d="M76.7202 115.231C78.2384 115.341 79.8042 115.768 81.406 115.809C81.2047 118.384 81.3522 123.027 81.3689 125.727C80.3628 125.792 78.2095 125.329 76.8101 125.338C76.8628 122.068 76.7809 118.506 76.7202 115.231Z" fill="#6CC7EE"/>
<path d="M82.9132 116.011C84.2348 116.319 85.6751 116.324 87.1616 116.634L87.1819 126.48C85.6889 126.255 84.4438 126.092 82.9341 125.956C82.879 122.684 82.9181 119.292 82.9132 116.011Z" fill="#6CC7EE"/>
<path d="M75.528 160.352C76.9993 160.298 87.6553 160.905 88.5389 161.376C88.8016 161.516 88.8519 161.716 88.9208 161.983C89.154 162.886 89.1274 171.708 89.0007 172.939C88.9509 173.422 88.8407 173.792 88.5938 174.21C87.593 174.444 76.0169 173.955 75.5058 173.434C75.1064 172.148 75.0271 161.497 75.528 160.352Z" fill="black"/>
<path d="M76.8176 162.176C78.4629 162.164 79.7049 162.208 81.3371 162.378L81.3404 172.312C79.8639 172.289 78.3181 172.184 76.8384 172.105L76.8176 162.176Z" fill="#6CC7EE"/>
<path d="M82.9069 162.43C84.3893 162.598 85.6886 162.716 87.183 162.732C87.1843 166.003 87.2291 169.273 87.3174 172.542C85.9656 172.493 84.2749 172.539 82.8984 172.539C82.9398 169.198 82.9044 165.778 82.9069 162.43Z" fill="#6CC7EE"/>
<path d="M75.5855 183.683C77.6238 183.654 87.7886 183.737 88.8002 184.5C89.2777 185.675 88.9763 189.356 89.0052 190.849C89.0298 192.125 89.3574 196.27 88.592 197.114C86.4735 197.318 77.1534 197.245 75.372 196.826C75.2625 196.267 75.1738 193.918 75.2293 193.413C75.4014 191.845 74.8458 184.763 75.5855 183.683Z" fill="black"/>
<path d="M76.8096 185.298C77.7021 185.447 80.3903 185.505 81.3435 185.531C81.3248 188.809 81.3315 192.088 81.3636 195.366C79.8708 195.328 78.3309 195.341 76.8342 195.333L76.8096 185.298Z" fill="#6CC7EE"/>
<path d="M82.9146 185.512C84.4505 185.526 85.7643 185.649 87.2823 185.796C87.2719 187.566 87.5595 194.489 87.351 195.664C86.6811 195.565 83.806 195.514 82.9499 195.479L82.9146 185.512Z" fill="#6CC7EE"/>
<path d="M19.2796 120.859L34.275 111.147C36.4849 109.704 40.4279 106.937 42.6392 105.765L42.2955 215.21H30.9439H29.3531H26.7226H24.9126H18.9324C19.1067 210.839 19.024 205.783 19.0328 201.366L19.0422 175.971L19.2796 120.859Z" fill="#F56141"/>
<path d="M24.9123 215.21C24.9038 213.937 24.6784 208.962 25.3346 208.269C25.87 208.035 30.6327 207.241 30.7586 208.015C31.121 210.246 30.9586 212.925 30.9437 215.21H29.3529H26.7223H24.9123Z" fill="black"/>
<path d="M26.7075 209.65C27.6534 209.624 28.4403 209.565 29.3678 209.339L29.353 215.21H26.7225L26.7075 209.65Z" fill="#6CC7EE"/>
<path d="M29.9569 185.276L30.4386 185.284C31.3396 185.978 30.9515 189.645 30.9226 190.944C30.8771 192.991 31.2541 196.207 30.6974 198.093C30.5412 198.622 26.8459 199.11 26.1031 199.226C25.8659 199.213 25.4937 199.198 25.3299 199.02C24.6366 198.267 24.9672 188.453 24.9896 186.761C26.6585 186.158 28.2223 185.66 29.9569 185.276Z" fill="black"/>
<path d="M29.1642 187.289C29.2028 187.297 29.3164 187.407 29.3539 187.439C29.3375 190.582 29.345 193.724 29.3764 196.867C28.6079 197.052 27.7826 197.194 27.0029 197.343L26.719 197.25L26.7146 187.834L29.1642 187.289Z" fill="#6CC7EE"/>
<path d="M30.0442 162.982C30.4134 162.979 30.4786 162.949 30.7543 163.159C31.1072 163.91 30.9592 174.101 30.962 175.617C29.6243 176.483 27.4023 176.988 25.8294 177.394C25.717 177.36 25.5607 177.336 25.4719 177.259C24.7197 176.609 25.1063 166.808 24.9958 165.093C26.406 164.308 28.5038 163.563 30.0442 162.982Z" fill="black"/>
<path d="M29.226 165.139C29.4629 165.464 29.3761 173.508 29.3939 174.617C28.5259 174.878 27.654 175.127 26.7783 175.362C26.6259 175.174 26.7082 166.997 26.7108 166.052L29.226 165.139Z" fill="#6CC7EE"/>
<path d="M29.9905 140.709C30.4862 140.711 30.3844 140.642 30.7666 140.874C31.0903 141.52 30.964 151.778 30.9708 153.363C29.8875 154.119 27.226 155.172 25.9533 155.593C25.6013 155.586 25.5636 155.572 25.2882 155.352C24.8743 154.475 25.1192 144.918 25.1332 143.155L29.9905 140.709Z" fill="black"/>
<path d="M29.254 142.976C29.4608 143.197 29.3848 151.371 29.3869 152.368C28.5823 152.79 27.7248 153.138 26.8883 153.496C26.5504 153.104 26.6936 145.358 26.6959 144.249C27.6161 143.836 28.3636 143.452 29.254 142.976Z" fill="#6CC7EE"/>
<path d="M30.3064 118.676L30.6182 118.748C31.1589 119.407 30.9741 122.515 30.9709 123.515L30.957 131.216C29.686 132.047 27.2617 133.293 25.8766 133.991C25.5863 133.881 25.5687 133.849 25.3351 133.634C24.9373 132.683 25.1437 123.728 25.1211 121.872C26.0826 121.115 29.1991 119.122 30.3064 118.676Z" fill="black"/>
<path d="M29.3687 121.115C29.4406 121.245 29.3967 129.203 29.4399 130.252C28.6602 130.572 27.5489 131.264 26.788 131.709L26.6975 131.63C26.6153 131.148 26.6633 129.457 26.6662 128.832L26.6995 122.735C27.5105 122.362 28.6486 121.641 29.3687 121.115Z" fill="#6CC7EE"/>
<path d="M117.65 114.938C123.243 115.462 128.998 116.523 134.608 117.109C136.057 117.261 139.266 117.912 140.448 117.948L141.238 215.211H135.402H133.599H129.572H127.995H124.01H122.434H117.913L117.65 114.938Z" fill="#F8D50B"/>
<path d="M122.433 215.21C122.414 213.455 122.196 209.016 122.63 207.594C122.768 207.14 134.218 206.953 135.132 207.716C135.6 208.818 135.416 213.722 135.402 215.21H133.598H129.572H127.994H124.01H122.433Z" fill="black"/>
<path d="M123.86 208.849L127.997 208.85L127.994 215.21H124.01C123.992 213.09 123.942 210.969 123.86 208.849Z" fill="#6CC7EE"/>
<path d="M129.569 208.854L133.57 208.849C133.55 210.97 133.56 213.091 133.598 215.21H129.572L129.569 208.854Z" fill="#6CC7EE"/>
<path d="M122.542 141.039C126.634 141.387 130.886 141.68 134.948 142.206C135.335 143.001 135.147 149.937 135.147 151.293C136.433 151.416 138.48 151.536 139.631 151.964C139.668 153.567 140.223 160.44 139.327 161.385C139.065 161.662 138.548 161.833 138.189 161.956C137.617 162.058 134.951 163.208 134.968 163.882C132.787 163.644 130.603 163.603 128.425 163.494C126.365 163.39 124.505 163.242 122.43 163.216C121.902 162.237 120.744 162.368 120.302 160.875C120.142 160.81 120.025 160.739 119.911 160.605C119.21 159.779 119.449 153.457 119.512 152.097C119.535 151.611 119.555 150.909 119.957 150.577C120.544 150.092 121.496 150.259 122.205 150.293C122.187 148.66 121.801 142.086 122.542 141.039Z" fill="black"/>
<path d="M120.302 160.875C122.223 160.845 123.945 160.96 125.856 161.093C129.988 161.381 134.06 161.553 138.189 161.956C137.617 162.058 134.95 163.208 134.967 163.882C132.787 163.644 130.603 163.603 128.424 163.493C126.365 163.39 124.504 163.242 122.43 163.215C121.901 162.236 120.744 162.368 120.302 160.875Z" fill="#FCAB08"/>
<path d="M121.108 151.842C122.411 151.808 124.252 152.036 125.588 152.15L132.504 152.727C134.404 152.9 136.35 152.864 138.202 153.229C138.143 155.599 138.223 158.002 138.278 160.374C134.683 160.317 130.904 159.707 127.245 159.691C125.278 159.682 123.135 159.285 121.092 159.252L121.108 151.842Z" fill="#F7F0EC"/>
<path d="M123.739 142.809C125.376 142.831 126.108 142.859 127.728 143.149C127.754 145.749 127.852 148.186 127.836 150.832C126.446 150.767 125.222 150.54 123.734 150.507L123.739 142.809Z" fill="#6CC7EE"/>
<path d="M129.386 143.325C130.998 143.402 131.919 143.469 133.53 143.667L133.568 151.336C132.59 151.094 130.585 151.052 129.567 151.028C129.423 148.601 129.443 145.791 129.386 143.325Z" fill="#6CC7EE"/>
<path d="M122.43 163.216C124.504 163.242 126.365 163.39 128.424 163.494C130.603 163.603 132.787 163.644 134.967 163.882C135.378 165.052 135.291 171.681 135.294 173.289C136.339 173.294 138.547 173.175 139.379 173.641C139.888 175.04 139.881 177.221 139.91 178.756C139.943 180.53 140.448 183.625 137.98 183.686C137.285 183.906 135.098 184.997 135.088 185.79C134.297 185.544 123.454 185.159 122.475 185.375C121.655 184.374 120.714 184.306 120.408 183.126C120.211 183.044 120.109 182.962 119.937 182.84C119.305 181.718 119.64 175.825 119.571 174.197C119.49 172.315 121.14 172.57 122.42 172.698C122.303 171.255 122.049 164.302 122.43 163.216Z" fill="black"/>
<path d="M120.408 183.126C126.375 183.097 132.147 183.66 137.98 183.686C137.285 183.906 135.098 184.997 135.088 185.79C134.297 185.544 123.454 185.159 122.475 185.375C121.655 184.374 120.714 184.306 120.408 183.126Z" fill="#FCAB08"/>
<path d="M121.098 174.11C121.848 174.104 122.599 174.177 123.348 174.227C128.342 174.563 133.333 174.622 138.326 174.937L138.345 182.226C136.766 182.04 134.849 182.101 133.217 182.032L121.09 181.515L121.098 174.11Z" fill="#F7F0EC"/>
<path d="M123.747 164.836C125.132 164.816 126.592 165.024 127.993 165.133L128.027 172.826C126.647 172.777 125.138 172.802 123.747 172.797L123.747 164.836Z" fill="#6CC7EE"/>
<path d="M129.565 165.092C130.682 165.107 132.319 165.341 133.557 165.398L133.564 173.062L129.582 173.056L129.565 165.092Z" fill="#6CC7EE"/>
<path d="M122.243 118.989C123.566 118.935 133.864 120.214 135.059 120.694C135.29 123.272 135.112 126.725 135.173 129.393C135.784 129.466 139.307 129.658 139.406 130.235C139.888 133.059 139.688 136.392 139.537 139.27C139.506 139.865 138.098 140.21 137.578 140.142C136.664 141.287 135.471 140.892 134.948 142.205C130.885 141.679 126.634 141.386 122.542 141.039C122.283 139.967 120.67 140.004 120.351 138.589C120.022 138.39 119.699 138.234 119.633 137.787C119.43 136.416 119.365 129.185 119.742 128.323C120.383 127.839 121.362 127.985 122.172 128.017C122.166 125.746 122.022 121.095 122.243 118.989Z" fill="black"/>
<path d="M120.352 138.589C124.09 138.557 128.109 139.243 131.865 139.55C132.931 139.637 136.778 139.893 137.578 140.143C136.664 141.287 135.471 140.892 134.948 142.206C130.885 141.68 126.634 141.387 122.542 141.039C122.283 139.967 120.67 140.004 120.352 138.589Z" fill="#FCAB08"/>
<path d="M121.104 129.577C122.794 129.525 125.306 129.877 127.068 130.069L134.316 130.813C135.56 130.945 136.82 131.182 138.06 131.179L138.064 138.637C137.1 138.355 134.405 138.176 133.302 138.086L127.596 137.57C125.562 137.388 123.065 136.939 121.098 136.992L121.104 129.577Z" fill="#F7F0EC"/>
<path d="M123.623 120.808C124.998 120.822 126.13 121.115 127.704 121.101C127.751 123.556 127.724 126.087 127.727 128.549C126.76 128.547 124.759 128.308 123.749 128.179C123.733 125.722 123.691 123.265 123.623 120.808Z" fill="#6CC7EE"/>
<path d="M129.294 121.323C130.003 121.545 132.533 121.859 133.303 121.916C133.325 124.309 133.362 126.702 133.413 129.095C131.984 129.028 130.732 128.909 129.314 128.764L129.294 121.323Z" fill="#6CC7EE"/>
<path d="M122.475 185.375C123.454 185.159 134.297 185.545 135.088 185.79C135.497 186.92 135.399 193.423 135.397 195.068C138.747 195.082 140.136 194.426 139.908 198.79C139.819 200.483 140.337 203.409 139.501 204.931C138.34 205.927 123.775 205.225 121.195 205.358C120.847 205.376 120.35 205.244 120.065 204.996C119.59 203.847 119.632 196.742 119.834 195.243C120.964 194.784 121.226 194.75 122.434 194.917C122.414 192.476 122.251 187.523 122.475 185.375Z" fill="black"/>
<path d="M121.116 196.389C125.315 196.347 129.44 196.638 133.631 196.653C135.201 196.659 136.772 196.654 138.342 196.651L138.341 204.102L121.365 203.908C121.323 201.855 121.351 198.317 121.116 196.389Z" fill="#F7F0EC"/>
<path d="M123.753 186.805C125.29 186.852 126.468 186.931 127.998 187.089L128.002 194.97C126.657 194.909 125.311 194.86 123.965 194.82C123.805 192.357 123.85 189.369 123.753 186.805Z" fill="#6CC7EE"/>
<path d="M129.575 187.106L133.558 187.111C133.501 189.716 133.558 192.482 133.568 195.099L129.564 195.07L129.575 187.106Z" fill="#6CC7EE"/>
<path d="M94.5393 205.158C101.833 205.225 109.104 205.412 116.396 205.388C116.376 208.662 116.387 211.936 116.427 215.21H113.404C113.415 213.648 113.599 208.934 113.143 207.724C112.371 206.953 103.719 207.244 101.995 207.246L94.5404 207.252L94.5393 205.158Z" fill="#F56141"/>
<path d="M94.5841 208.841L103.194 208.847C103.198 210.934 103.17 213.135 103.246 215.211H94.5811L94.5841 208.841Z" fill="#6CC7EE"/>
<path d="M104.913 208.839L111.78 208.847C111.659 210.533 111.725 213.466 111.755 215.211H104.935L104.913 208.839Z" fill="#6CC7EE"/>
<path d="M43.7007 99.6011C47.0286 99.8263 52.0952 100.7 55.5632 101.161L84.1497 105.089L121.644 110.261C126.009 110.846 130.369 111.456 134.727 112.092C137.234 112.439 139.845 112.682 142.312 113.186L142.317 116.657C140.854 116.337 138.215 116.054 136.62 115.835L123.289 114.1L80.1715 108.375L54.3332 104.907C52.4679 104.67 50.6045 104.418 48.7429 104.152C47.1474 103.917 45.382 103.572 43.7943 103.567C43.6868 102.198 43.6967 100.969 43.7007 99.6011Z" fill="#C38AC3"/>
<path d="M67.2894 94.0117C68.0429 94.034 73.1432 94.9327 74.2496 95.0983L90.6718 97.6422C93.0156 98.0139 96.0581 98.6254 98.3186 98.8788C98.3361 101.001 98.3424 103.122 98.3375 105.244C88.0202 103.977 77.6236 102.299 67.3008 101.013C67.2541 98.6796 67.2504 96.3455 67.2894 94.0117Z" fill="#F8D50B"/>
<path d="M94.3632 149.982C101.282 150.116 109.185 151.262 116.322 151.597C116.328 154.003 116.426 156.944 116.313 159.291C115.039 159.304 113.89 159.228 112.625 159.14C106.544 158.72 100.435 158.169 94.3445 157.923C94.5173 155.775 94.3903 152.211 94.3632 149.982Z" fill="#F56141"/>
<path d="M94.3686 126.973C101.633 127.821 108.907 128.578 116.191 129.245C116.22 131.849 116.264 134.453 116.322 137.058C115.234 136.876 113.887 136.69 112.792 136.628C106.657 136.283 100.41 135.307 94.3166 134.858C94.3275 132.638 94.2033 129.048 94.3686 126.973Z" fill="#F56141"/>
<path d="M94.4568 173.062C97.7712 173.027 101.329 173.379 104.663 173.522C108.494 173.687 112.513 173.749 116.325 173.982L116.35 181.591C111.468 181.547 106.694 181.358 101.821 181.127C99.3568 181.011 96.9127 181.058 94.4569 180.863C94.4752 178.263 94.4751 175.662 94.4568 173.062Z" fill="#F56141"/>
<path d="M94.5637 195.981L116.358 196.382L116.357 204.075C109.132 204.059 101.873 203.822 94.5685 203.817C94.5973 201.226 94.5658 198.577 94.5637 195.981Z" fill="#F56141"/>
<path d="M94.3193 111.872C96.5768 112.285 100.008 112.579 102.376 112.875L116.073 114.682C116.148 119.042 116.19 123.401 116.197 127.761C115.321 127.761 114.05 127.563 113.147 127.447C113.165 124.338 113.154 121.228 113.115 118.119C107.562 116.825 100.154 116.626 94.3169 115.523L94.3193 111.872Z" fill="#F56141"/>
<path d="M42.023 100.275L42.1899 100.311C42.4995 100.724 42.3647 103.246 42.3527 103.937C41.4077 104.656 39.3547 105.891 38.2858 106.592L29.6988 112.211C26.5999 114.224 20.9249 118.197 17.9217 119.746L17.7569 119.629C17.646 119.024 17.6934 117.416 17.6982 116.723C19.7097 115.149 24.4891 112.081 26.7779 110.568C31.8355 107.225 36.9749 103.556 42.023 100.275Z" fill="#C38AC3"/>
<path d="M94.3213 136.447C95.9229 136.439 98.1023 136.751 99.7707 136.899C105.214 137.38 110.761 138.111 116.218 138.374C116.323 142.215 116.295 146.171 116.332 150.024L113.163 149.971C113.104 146.857 113.182 143.716 113.125 140.585C111.438 140.164 108.178 140.016 106.335 139.817C102.431 139.394 98.2099 139.149 94.3385 138.568L94.3213 136.447Z" fill="#F56141"/>
<path d="M94.4243 159.391C101.686 159.617 109.074 160.433 116.327 160.87L116.339 172.566C115.311 172.553 114.283 172.528 113.255 172.491C113.308 169.417 113.185 165.971 113.124 162.877C111.754 162.615 108.433 162.452 106.939 162.362C102.884 162.116 98.4985 161.712 94.4492 161.636L94.4243 159.391Z" fill="#F56141"/>
<path d="M94.4788 182.319C98.3439 182.616 102.177 182.578 106.049 182.753C109.468 182.907 112.937 183.102 116.357 183.137C116.28 186.941 116.35 190.988 116.35 194.812L113.408 194.814C113.394 193.336 113.45 186.288 113.096 185.279C111.956 184.766 96.8286 184.456 94.4678 184.456C94.5217 183.826 94.4865 182.968 94.4788 182.319Z" fill="#F56141"/>
<path d="M94.5813 186.029C97.3745 186.018 100.135 186.336 103.083 186.317C103.083 189.057 103.112 191.797 103.17 194.537C100.309 194.548 97.4487 194.545 94.5883 194.526L94.5813 186.029Z" fill="#6CC7EE"/>
<path d="M94.3135 117.367C95.8706 117.342 101.131 118.133 102.916 118.38C102.975 121.093 102.914 123.719 103.052 126.454C100.397 126.006 97.0369 125.688 94.3363 125.565L94.3135 117.367Z" fill="#6CC7EE"/>
<path d="M94.5522 163.242C96.2378 163.232 101.56 163.582 103.073 163.807L103.087 171.818C102.134 171.717 101.017 171.757 100.044 171.702C98.2256 171.599 96.3913 171.493 94.5708 171.46L94.5522 163.242Z" fill="#6CC7EE"/>
<path d="M94.4521 140.415C96.9468 140.488 100.732 140.827 103.099 141.306L103.093 149.07C101.893 148.802 95.9812 148.471 94.4637 148.386L94.4521 140.415Z" fill="#6CC7EE"/>
<path d="M104.791 186.3C107.049 186.504 109.316 186.602 111.583 186.591C111.559 189.116 111.475 192.419 111.666 194.899C109.911 194.673 106.77 194.626 104.901 194.549C104.884 191.799 104.847 189.049 104.791 186.3Z" fill="#6CC7EE"/>
<path d="M104.66 163.872C106.608 164.089 109.51 164.177 111.581 164.323L111.577 172.292C108.96 172.149 107.495 171.997 104.79 172.001L104.66 163.872Z" fill="#6CC7EE"/>
<path d="M104.66 141.353C106.732 141.557 109.574 141.667 111.497 141.996L111.56 149.755C109.448 149.756 106.882 149.235 104.648 149.182L104.66 141.353Z" fill="#6CC7EE"/>
<path d="M104.642 118.557C106.258 118.896 109.474 119.144 111.277 119.368C111.365 121.931 111.361 124.638 111.407 127.215C109.342 126.97 106.735 126.733 104.667 126.643L104.642 118.557Z" fill="#6CC7EE"/>
<path d="M65.4052 94.4487C65.5717 94.691 65.5167 100.058 65.5181 100.759C63.3055 100.502 61.1189 100.066 58.8988 99.8548L56.9915 99.5026C58.6773 98.7956 63.6543 95.5447 65.4052 94.4487Z" fill="#F56141"/>
<path d="M142.459 184.811C142.719 185.759 142.666 206.998 142.41 207.826C142.28 207.247 142.281 201.046 142.31 200.22C142.476 195.437 142.049 189.491 142.459 184.811Z" fill="black"/>
<path d="M141.79 119.594C142.376 120.487 141.903 130.483 141.91 132.221L141.824 132.17C141.659 128.282 141.786 123.535 141.79 119.594Z" fill="black"/>
<path d="M67.9038 85.6411C68.5543 85.7191 68.3379 85.4346 69.1154 85.3555C69.2854 86.0946 69.9196 86.4854 69.7291 87.2662C68.8396 87.1671 68.6594 85.9532 67.9038 85.6411Z" fill="black"/>
<path d="M75.7927 82.4333C75.6515 81.7464 75.1582 80.9918 75.3752 80.3066C76.1058 80.4839 76.3668 81.6758 76.9464 82.0127C76.3322 82.0847 76.3005 82.0749 75.7927 82.4333Z" fill="black"/>
<path d="M71.259 83.7675C71.1885 83.6169 71.1202 83.4652 71.0544 83.3126C70.8607 82.8599 70.7508 82.5806 70.9386 82.1048L71.1566 82.1045C71.7141 82.5267 71.7353 82.8808 71.9292 83.5639C71.7063 83.6694 71.4914 83.809 71.259 83.7675Z" fill="black"/>
</g>
<path d="M41.6213 21.3838C38.245 12.9855 43.6028 3.80004 52.6201 3.01293C70.9579 1.41225 103.387 -0.520793 148.861 0.129206C196.055 0.803794 226.895 3.07463 243.135 4.64452C250.822 5.38768 256.088 12.4084 254.963 20.0492L253.946 26.9492C252.866 34.2791 246.285 39.5136 238.894 38.9894C219.91 37.6428 183.334 35.4731 149.35 35.8755C119.774 36.2257 78.106 38.3747 59.172 39.4243C53.1575 39.7577 47.5902 36.231 45.3434 30.6421L41.6213 21.3838Z" fill="#C10230"/>
<path d="M289.557 129.058C284.79 138.216 274.118 147.944 261.395 151.831C217.073 165.37 156.1 125.891 147.242 159.207C145.621 165.294 139.511 164.178 137.879 159.658C135.066 151.884 138.985 147.826 131.663 134.845C114.999 105.276 125.854 75.2348 143.87 64.4766C157.324 56.4455 174.32 63.9612 192.379 67.6332C236.002 76.5125 255.404 55.2967 272.958 59.5592C305.039 67.354 296.364 115.991 289.568 129.047L289.557 129.058Z" fill="#8FC045"/>
<path d="M289.557 129.058C284.79 138.216 274.118 147.944 261.395 151.831C217.073 165.37 156.1 125.891 147.242 159.207C145.621 165.294 139.511 164.178 137.879 159.658C135.066 151.884 138.985 147.826 131.663 134.845C114.999 105.276 125.854 75.2348 143.87 64.4766C157.324 56.4455 174.32 63.9612 192.379 67.6332C236.002 76.5125 255.404 55.2967 272.958 59.5592C305.039 67.354 296.364 115.991 289.568 129.047L289.557 129.058Z" fill="#5C0F8B"/>
<path d="M175.985 155.645C177.359 156.579 177.531 157.395 176.725 158.898C176.457 159.392 176.167 159.875 175.877 160.348C173.805 163.676 171.765 167.026 170.079 170.569C169.843 171.074 169.543 171.557 169.199 171.986C168.512 172.856 167.61 173.006 166.654 172.427C166.386 172.266 166.139 172.04 165.903 171.836C164.829 170.87 163.766 169.914 162.703 168.937C162.413 168.669 162.113 168.39 161.866 168.078C161.329 167.37 161.297 166.543 161.844 165.867C162.188 165.437 162.617 165.061 163.047 164.707C166.204 162.001 169.382 159.306 172.549 156.622C173.15 156.107 173.773 155.602 174.535 154.969C175.136 155.248 175.609 155.398 175.995 155.667L175.985 155.645ZM167.524 170.075C167.75 169.839 168.018 169.667 168.136 169.42C169.94 165.577 172.216 162.012 174.535 158.469C174.664 158.265 174.804 158.072 174.9 157.857C175.169 157.288 174.9 156.955 174.202 156.708C173.429 157.503 172.613 158.351 171.787 159.188C170.885 160.09 169.994 161.014 169.059 161.883C168.179 162.699 167.256 163.461 166.365 164.256C165.473 165.051 164.604 165.856 163.487 166.876C164.958 168.046 166.193 169.023 167.546 170.086L167.524 170.075Z" fill="white"/>
<path d="M184.562 162.045C184.755 162.367 184.884 162.796 184.862 163.161C184.776 164.525 184.626 165.878 184.465 167.231C184.164 169.861 183.831 172.481 183.52 175.101C183.413 175.981 183.38 176.861 183.252 177.731C183.005 179.363 182.199 179.911 180.557 179.546C178.989 179.202 177.432 178.826 175.886 178.386C174.072 177.871 173.803 177.355 174.308 175.605C174.501 174.907 174.705 174.209 174.995 173.554C176.058 171.042 177.132 168.54 178.248 166.05C178.839 164.729 179.505 163.451 180.224 161.97C180.696 160.67 183.971 161.014 184.572 162.045H184.562ZM176.219 176.11C177.808 176.7 179.322 177.044 181.008 177.248C181.448 175.723 181.255 174.188 181.491 172.706C181.738 171.128 181.995 169.55 182.264 167.982C182.511 166.49 182.779 165.008 183.069 163.355C182.36 163.194 181.791 163.075 181.137 162.925C179.279 167.306 177.486 171.547 176.23 176.121L176.219 176.11Z" fill="white"/>
<path d="M189.641 162.882C191.95 162.645 192.154 162.764 193.034 164.943C193.668 166.5 194.258 168.078 194.935 169.614C196.234 172.62 197.608 175.605 198.897 178.622C199.498 180.017 199.208 180.737 197.834 181.274C196.416 181.832 194.978 182.315 193.528 182.798C190.855 183.679 190.071 182.97 189.921 180.447C189.706 177.011 189.448 173.575 189.244 170.14C189.115 167.831 189.051 165.512 188.965 163.053C189.341 162.957 189.491 162.892 189.641 162.871V162.882ZM190.275 165.426C190.898 170.569 191.059 175.755 191.928 180.973C193.732 180.726 195.225 180.05 196.867 179.287C196.706 178.708 196.62 178.171 196.416 177.688C195.289 175.046 194.119 172.427 192.991 169.785C192.401 168.39 191.896 166.962 191.338 165.544C191.198 165.179 191.08 164.771 190.479 164.836C190.415 165.018 190.243 165.233 190.264 165.426H190.275Z" fill="white"/>
<path d="M158.779 53.1851C159.826 54.0639 159.737 54.9626 159.846 55.792C159.954 56.6215 160.043 57.4609 160.142 58.3595C161.05 58.4089 161.821 58.3891 162.551 58.5274C162.828 58.5768 163.134 58.9619 163.253 59.2581C163.322 59.426 163.075 59.8605 162.867 59.9592C162.087 60.3246 161.268 60.5912 160.389 60.927C159.658 62.5563 161.001 64.7486 159.243 66.2002C158.295 66.0027 158.276 65.2621 158.197 64.6399C158.058 63.5241 158.019 62.3885 157.94 61.243C156.439 60.8579 154.898 61.4997 153.467 60.4135C153.812 60.1172 154.029 59.7815 154.306 59.7124C155.422 59.4359 156.548 59.2384 157.733 59.0014C158.661 57.2634 157.812 55.1897 158.769 53.1851H158.779Z" fill="white"/>
<path d="M245.07 157.616C244.882 159.157 244.773 160.381 244.546 161.596C244.507 161.823 244.003 162.04 243.687 162.1C243.549 162.119 243.213 161.744 243.184 161.517C243.095 160.757 243.115 159.986 243.075 159.226C243.045 158.673 242.966 158.12 242.907 157.458C241.949 157.202 241.061 156.975 239.826 156.649C240.359 156.254 240.587 155.987 240.883 155.888C241.505 155.671 242.147 155.533 242.808 155.355C243.253 154.19 243.075 153.025 243.243 151.909C243.401 150.832 243.253 149.647 244.062 148.64C244.655 149.786 244.645 149.786 244.704 151.879C244.734 152.916 244.813 153.953 244.872 155.098C246.047 155.227 247.084 155.296 248.082 155.493C248.338 155.543 248.595 155.997 248.674 156.303C248.714 156.451 248.407 156.846 248.2 156.905C247.193 157.182 246.166 157.379 245.07 157.626V157.616Z" fill="white"/>
<path d="M232.43 168.025C231.62 167.985 230.909 167.264 230.998 166.563C231.107 165.665 231.887 164.963 232.736 164.993C233.477 165.023 234.168 165.763 234.158 166.504C234.138 167.373 233.348 168.074 232.43 168.025Z" fill="white"/>
<path d="M169.939 69.4392C169.129 69.4885 168.418 68.8368 168.428 68.0468C168.438 67.1383 169.465 66.1113 170.275 66.1903C170.858 66.2496 171.391 66.9309 171.43 67.6518C171.48 68.5998 170.828 69.3799 169.939 69.4392Z" fill="white"/>
<defs>
<linearGradient id="paint0_linear_69_1603" x1="141.6" y1="14.687" x2="141.6" y2="215.09" gradientUnits="userSpaceOnUse">
<stop stop-color="#B152F2"/>
<stop offset="1" stop-color="#8427C4"/>
</linearGradient>
<linearGradient id="paint1_linear_69_1603" x1="140.546" y1="14.687" x2="140.546" y2="215.09" gradientUnits="userSpaceOnUse">
<stop stop-color="#B152F2"/>
<stop offset="1" stop-color="#8427C4"/>
</linearGradient>
</defs>
</svg>
