<svg width="612" height="105" viewBox="0 0 612 105" fill="none" xmlns="http://www.w3.org/2000/svg">
<path d="M605.571 61.3567C608.078 42.0504 609.331 32.3973 605.573 24.8158C603.726 21.0891 600.956 17.7051 597.667 15.1579C590.978 9.97581 581.407 9.30723 562.266 7.97006C512.81 4.5152 433.257 0 355.267 0C263.591 0 176.704 5.0718 124.883 8.83205C106.465 10.1686 97.2556 10.8368 90.7138 15.735C87.1175 18.4278 84.114 22.111 82.2001 26.1757C78.7188 33.5694 79.9365 42.869 82.3719 61.4681C84.5862 78.378 85.6933 86.8329 90.18 92.7349C92.7088 96.0613 95.8866 98.7291 99.6007 100.644C106.19 104.041 114.748 103.665 131.862 102.914C187.785 100.461 286.598 96.8403 364.159 97.8458C424.653 98.63 506.339 101.427 555.957 103.283C573.406 103.935 582.13 104.261 588.842 100.618C592.209 98.7901 595.139 96.311 597.5 93.2933C602.205 87.2782 603.327 78.6377 605.571 61.3567Z" fill="#FFD200"/>
<path d="M57.0547 75.49C55.5786 72.6104 54.0508 72.082 50.9369 73.2822C49.912 73.6777 48.9194 74.1147 47.9245 74.57C40.9786 77.7599 34.0235 80.8739 26.7455 83.2736C25.7276 83.6138 24.7119 84.0853 23.7793 84.6421C21.914 85.7555 21.4356 87.4732 22.3143 89.4359C22.5633 89.9911 22.9278 90.5233 23.2762 91.0348C24.8817 93.3318 26.4873 95.6288 28.0952 97.9074C28.5404 98.5433 29.0042 99.1815 29.5556 99.7185C30.7923 100.921 32.3731 101.176 33.8321 100.311C34.7463 99.7516 35.5705 99.0129 36.3762 98.2718C42.3674 92.829 48.3425 87.3655 54.3175 81.902C55.4603 80.8664 56.5893 79.7916 58.0115 78.4729C57.6034 77.2428 57.4399 76.3054 57.0178 75.4853L57.0547 75.49ZM27.1061 88.315C27.6025 87.9469 28.0204 87.4566 28.5282 87.2957C36.3879 84.7443 43.844 81.2254 51.2563 77.6074C51.6764 77.3981 52.0965 77.1888 52.5258 77.0555C53.6984 76.6785 54.2614 77.273 54.5725 78.678C52.8526 79.9781 51.0126 81.338 49.1865 82.7371C47.2149 84.2489 45.2249 85.7584 43.3179 87.3532C41.5171 88.849 39.8341 90.4531 38.0656 91.9904C36.3179 93.5116 34.5356 95.0097 32.3077 96.9198C30.4116 93.8004 28.8292 91.1695 27.0876 88.3127L27.1061 88.315Z" fill="white"/>
<path d="M46.7711 57.3758C46.1898 56.9287 45.3915 56.5668 44.6831 56.5341C42.0411 56.3712 39.3829 56.3374 36.7247 56.3035C31.5744 56.2565 26.4171 56.2647 21.2852 56.2201C19.5616 56.2098 17.8564 56.0522 16.1258 56.0971C12.9276 56.1826 11.6625 57.5955 11.966 60.8513C12.2511 63.9552 12.5939 67.0476 13.0682 70.1377C13.6254 73.7621 14.5574 74.4028 18.0557 73.8685C19.4518 73.6506 20.848 73.4328 22.1888 73.0583C27.3003 71.6225 32.398 70.1475 37.4658 68.6127C40.1566 67.7901 42.7922 66.8109 45.8453 65.7906C48.4691 65.2028 48.6166 58.8044 46.7526 57.3735L46.7711 57.3758ZM17.5609 70.0461C16.8005 66.8453 16.5039 63.8335 16.5257 60.5249C19.5856 60.048 22.5113 60.7889 25.428 60.7055C28.5339 60.6085 31.6421 60.493 34.7503 60.3775C37.6901 60.2596 40.6161 60.1026 43.879 59.9504C44.0031 61.3503 44.1227 62.4878 44.2399 63.7934C35.3183 66.3043 26.6852 68.7579 17.5586 70.0646L17.5609 70.0461Z" fill="white"/>
<path d="M46.3818 47.3315C47.4008 42.951 47.2117 42.5157 43.2162 40.2938C40.3603 38.7012 37.4605 37.1591 34.6507 35.4974C29.1535 32.2454 23.707 28.8876 18.1866 25.6701C15.6191 24.1698 14.1815 24.5694 12.7986 27.0711C11.3672 29.6603 10.0949 32.3255 8.82041 35.0091C6.47454 39.9529 7.65076 41.6342 12.4866 42.5398C19.0805 43.778 25.642 45.1243 32.2406 46.3257C36.675 47.1435 41.1279 47.814 45.8669 48.5951C46.1417 47.9 46.3079 47.6216 46.3818 47.3315ZM41.627 45.4821C31.8494 43.0217 21.8454 41.4683 11.9595 38.5266C12.8767 35.106 14.5481 32.3973 16.4041 29.4125C17.4907 29.8667 18.5036 30.1621 19.3779 30.6645C24.2177 33.4786 28.9906 36.3779 33.8327 39.1736C36.3841 40.6533 39.0302 41.9764 41.6278 43.3871C42.2945 43.7512 43.0604 44.0717 42.8039 45.2181C42.437 45.303 41.9916 45.5652 41.627 45.4821Z" fill="white"/>
</svg>
