<svg width="1393" height="561" viewBox="0 0 1393 561" fill="none" xmlns="http://www.w3.org/2000/svg">
<path d="M83.1127 89.6C70.1247 79.961 80.6243 59.8129 86.1686 53.8383C89.8776 49.8249 106.135 28.7091 119.128 38.375C132.116 48.014 142.104 67.9746 131.091 84.7893C119.19 102.969 96.1058 99.266 83.1178 89.627L83.1127 89.6Z" fill="#975B2E"/>
<path d="M118.43 37.9246C108.508 31.3063 92.6818 37.6086 83.0819 52.0012C73.482 66.3938 73.7435 83.4265 83.666 90.0448C93.5884 96.6631 109.414 90.3608 119.014 75.9682C128.614 61.5756 128.353 44.5429 118.43 37.9246Z" fill="#8CC747"/>
<path d="M106.505 53.2792C103.485 51.2054 97.8978 54.0959 94.0243 59.7352C90.1509 65.3746 89.4586 71.6272 92.4779 73.701C95.4972 75.7749 101.085 72.8845 104.958 67.2452C108.832 61.6058 109.524 55.353 106.505 53.2792Z" fill="#B9D988"/>
<path d="M111.47 73.8296C112.184 74.365 112.283 75.4896 111.687 76.3263C111.091 77.163 110.024 77.4189 109.31 76.8835C108.596 76.3481 107.431 74.4473 108.027 73.6106C108.623 72.7739 110.729 73.2992 111.47 73.8296Z" fill="black"/>
<path d="M117.522 62.3768C118.455 62.1462 119.269 62.7742 119.37 63.7591C119.471 64.7439 118.788 65.7086 117.85 65.9123C116.917 66.1429 114.739 65.8262 114.643 64.8682C114.542 63.8834 116.589 62.6074 117.522 62.3768Z" fill="black"/>
<path d="M89.68 80.8976C89.084 81.7343 88.0166 81.9902 87.3028 81.4548C86.589 80.9194 86.4897 79.7948 87.0857 78.9581C87.6817 78.1214 89.6078 76.645 90.3216 77.1804C91.0354 77.7158 90.2761 80.061 89.6851 80.9246L89.68 80.8976Z" fill="black"/>
<path d="M100.073 86.5091C100.174 87.494 99.4903 88.4587 98.5526 88.6623C97.6199 88.8929 96.8051 88.265 96.7041 87.2801C96.6032 86.2952 97.1588 83.9046 98.0966 83.7009C99.0293 83.4703 99.9989 85.5193 100.068 86.4823L100.073 86.5091Z" fill="black"/>
<path d="M89.5563 55.9933C88.8426 55.4579 88.7432 54.3333 89.3392 53.4966C89.9352 52.6599 91.0027 52.4042 91.7165 52.9396C92.4303 53.475 93.5951 55.3757 92.9991 56.2124C92.4031 57.0491 90.2971 56.5237 89.5563 55.9933Z" fill="black"/>
<path d="M85.7695 69.5569C84.8368 69.7875 84.022 69.1595 83.921 68.1746C83.8201 67.1897 84.5037 66.2251 85.4414 66.0214C86.3741 65.7908 88.5526 66.1074 88.6485 67.0653C88.7495 68.0502 86.7022 69.3263 85.7695 69.5569Z" fill="black"/>
<path d="M114.55 51.5885C115.146 50.7518 116.214 50.496 116.927 51.0314C117.641 51.5668 117.741 52.6914 117.145 53.5281C116.549 54.3648 114.622 55.8412 113.909 55.3058C113.195 54.7704 113.954 52.4252 114.545 51.5616L114.55 51.5885Z" fill="black"/>
<path d="M104.3 46.2871C104.199 45.3022 104.883 44.3376 105.82 44.1339C106.753 43.9033 107.568 44.5314 107.669 45.5162C107.77 46.5011 107.214 48.8917 106.276 49.0953C105.344 49.3259 104.374 47.2771 104.305 46.3141L104.3 46.2871Z" fill="black"/>
<path d="M59.9654 15.8833C60.8284 20.047 58.7764 23.3055 54.725 24.2098C47.857 25.7562 37.89 19.373 36.3927 12.4249C35.3579 7.68773 39.2747 3.09364 44.3567 3.06876C50.5184 2.98957 58.6941 9.73453 59.9977 15.8755L59.9654 15.8833ZM55.9722 17.4566C55.6683 12.0659 48.0985 6.84873 43.2632 8.04369C41.9717 8.35374 40.7617 10.2833 41.0562 11.5102C42.1801 16.1918 49.0086 20.5966 53.7871 19.4495C54.7557 19.2169 55.9916 17.9641 55.9722 17.4566Z" fill="white"/>
<path d="M15.0675 38.1016C10.0384 38.4894 4.91082 34.7689 3.98063 30.0408C3.2959 26.6197 5.38799 24.2393 8.93832 24.3772C13.8654 24.5603 17.5257 26.7207 19.4232 31.3532C20.9113 34.9913 19.0245 37.8004 15.0997 38.0939L15.0675 38.1016ZM14.5841 32.9589C15.466 30.8007 14.261 29.6217 12.8855 28.586C11.59 27.5994 10.797 27.9946 9.29389 30.2677C10.5816 32.0758 12.1316 33.4111 14.5841 32.9589Z" fill="white"/>
<path d="M33.2655 52.1695C37.8025 51.8657 42.0711 55.2801 42.7378 59.7642C43.0789 62.0385 41.4802 64.198 39.1736 64.5468C34.6818 65.1812 29.5518 61.7346 28.4253 57.3268C27.7652 54.7193 29.9374 52.388 33.2655 52.1695ZM38.0936 59.479C38.3091 57.1053 36.9414 56.1018 35.3863 55.3141C35.0415 55.1579 34.3803 55.2483 34.104 55.5196C33.7953 55.7985 33.4582 56.5283 33.6326 56.8279C34.5665 58.5843 35.7612 60.0049 38.1337 59.5036L38.0936 59.479Z" fill="white"/>
<path d="M1284.02 345.427C1284.02 345.427 1291.71 354.474 1315.56 352.945C1332.85 351.839 1342.97 341.735 1347.46 334.104C1349.7 330.272 1350.54 325.771 1349.76 321.401C1349.32 318.996 1348.69 318.199 1348.48 318.129C1347.67 318.939 1308.48 344.167 1284.02 345.427Z" fill="#F78C1E"/>
<path d="M1348.51 318.099C1348.51 318.099 1341.93 357.523 1296.02 350.839C1282.32 348.842 1266.54 331.447 1266.95 308.129C1267.16 295.726 1270.24 291.148 1270.24 291.148L1271.4 291.56L1347.04 317.583L1348.54 318.1L1348.51 318.099Z" fill="white"/>
<path d="M1313.37 307.849C1313.15 309.703 1331.37 330.038 1333.24 331.468C1335.12 332.899 1338.38 331.926 1341.79 325.746C1345.2 319.566 1345.23 317.923 1342.19 316.918C1339.03 315.908 1313.56 306.056 1313.37 307.849Z" fill="#F99D22"/>
<path d="M1311.47 314.269C1311.47 314.269 1310.1 309.908 1310.78 309.249C1311.45 308.59 1313.97 312.09 1320.21 319.071C1326.45 326.052 1333.71 333.316 1333.35 335.661C1332.67 339.982 1324.62 343.828 1321.16 343.615C1317.69 343.401 1318.55 341.973 1316.79 335.489C1315.03 329.006 1311.44 314.268 1311.44 314.268L1311.47 314.269Z" fill="#F99D22"/>
<path d="M1308.76 310.326C1309.6 310.169 1310.53 315.693 1311.68 322.528C1312.79 329.02 1317.62 343.677 1315.8 346.127C1314.14 348.365 1306.32 348.187 1303.04 347.266C1299.75 346.376 1301.1 341.458 1301.64 338.251C1302.22 335.044 1307.88 310.513 1308.73 310.356L1308.76 310.326Z" fill="#F99D22"/>
<path d="M1294.66 320.447C1294.66 320.447 1305.54 308.043 1307.16 308.782C1307.74 309.05 1304.95 318.943 1303.59 323.923C1302.24 328.902 1298.34 344.745 1296.37 345.111C1293.13 345.743 1287.85 343.201 1284.67 339.988C1280.83 336.101 1280.25 335.925 1284.13 331.406C1288.01 326.887 1294.66 320.447 1294.66 320.447Z" fill="#F99D22"/>
<path d="M1273.71 313.391C1275.66 312.714 1304.82 306.56 1305.3 307.135C1305.9 307.839 1291.98 321.689 1286.83 326.257C1281.67 330.825 1280.44 333.357 1277.75 330.44C1275.05 327.524 1270.04 314.69 1273.71 313.391Z" fill="#F99D22"/>
<path d="M1275.44 293.965C1277.45 294.314 1304.02 303.615 1304.87 304.234C1305.72 304.852 1305.35 305.77 1303.47 306.17C1301.59 306.571 1274.38 313.009 1272.7 312.206C1271.02 311.403 1271.34 293.233 1275.44 293.965Z" fill="#F99D22"/>
<path d="M1348.51 318.099C1348.51 318.099 1341.93 357.523 1296.02 350.839C1282.32 348.842 1266.54 331.447 1266.95 308.129C1267.16 295.726 1270.24 291.148 1270.24 291.148L1271.4 291.56C1270.49 294.662 1267.91 304.439 1268.92 313.689C1270.5 328.048 1280.67 343.449 1290.69 347.179C1290.69 347.179 1303.52 351.193 1312.73 349.403C1331.16 345.824 1341.05 337.232 1347.04 317.583L1348.54 318.1L1348.51 318.099Z" fill="#F99D22"/>
<path d="M1372.24 360.088C1376.5 360.294 1379.56 361.764 1382.71 362.856C1385.81 363.948 1388.68 365.706 1391.71 366.665C1392.68 365.489 1391.93 364.889 1391.46 364.489C1386.52 360.319 1380.84 357.436 1374.78 355.352C1373.74 354.984 1372.59 354.838 1371.46 354.792C1368.7 354.666 1366.77 356.295 1366.6 359.126C1366.48 360.957 1366.95 362.834 1367.03 364.677C1367.09 365.898 1366.92 367.119 1366.86 368.395C1364.49 368.858 1362.83 367.768 1361.08 367.311C1358.54 366.663 1356.05 365.739 1353.49 365.324C1349.43 364.686 1346.96 366.359 1346.2 370.454C1345.81 372.618 1345.86 374.949 1346.23 377.126C1346.63 379.502 1347.66 381.79 1348.45 384.089C1348.57 384.444 1348.79 384.778 1349.03 385.044C1349.69 385.745 1350.53 386.378 1351.46 385.858C1352.03 385.548 1352.63 384.75 1352.67 384.15C1352.78 381.708 1352.65 379.277 1352.65 376.835C1352.64 375.369 1352.72 373.915 1352.76 372.15C1353.96 372.274 1354.89 372.198 1355.73 372.443C1357.54 372.956 1359.28 373.669 1361.07 374.249C1362.33 374.65 1363.57 375.085 1364.87 375.297C1370.75 376.194 1373.85 373.178 1373.24 367.272C1373.13 366.162 1372.83 365.062 1372.66 363.952C1372.51 362.864 1372.39 361.787 1372.18 360.088L1372.24 360.088Z" fill="white"/>
<path d="M57.1518 488.598C57.3239 485.248 57.3663 481.657 61.3178 479.055C57.8398 476.416 53.8502 477.292 50.5303 479.359C50.3247 476.793 49.8166 474.039 52.4901 471.536C48.5123 469.316 44.4727 472.778 42.3953 476.046C38.9343 474.02 33.6463 472.663 31.2006 476.322C34.7847 477.406 35.7214 480.085 36.7983 482.434C32.8306 481.989 28.834 482.899 27.05 486.746C31.8382 487.393 33.6629 490.556 35.4546 493.444C32.5057 494.674 30.1167 496.93 29.7219 500.575C35.441 499.154 38.0883 503.29 41.3272 505.522C44.2496 507.546 47.8505 506.986 49.8136 504.357C52.8427 505.866 56.322 504.852 57.9079 501.788C59.6821 498.423 59.9942 493.615 65.7877 492.442C63.6379 489.374 60.426 488.401 57.1797 488.55L57.1518 488.598Z" fill="#8CC747"/>
<path d="M78.0332 525.585C81.0712 537.216 73.7972 548.838 61.8114 551.534C49.8048 554.243 37.6095 547.008 34.5716 535.377C31.5336 523.745 28.865 503.554 48.1268 499.215C66.5793 495.052 74.9953 513.953 78.0332 525.585Z" fill="#FCAF17"/>
<path d="M71.2007 530.402C70.938 530.456 70.7299 530.593 70.5765 530.813C69.6622 532.273 67.6846 532.715 66.165 531.819C65.6837 531.543 65.0822 531.673 64.7891 532.132C64.5168 532.578 64.6647 533.162 65.1253 533.451C67.5868 534.913 70.7881 534.199 72.2679 531.833C72.5402 531.387 72.3922 530.803 71.9317 530.513C71.691 530.376 71.4289 530.341 71.1662 530.395L71.2007 530.402Z" fill="black"/>
<path d="M58.4118 533.276C58.1491 533.33 57.9411 533.467 57.7877 533.687C56.8733 535.147 54.8959 535.589 53.3763 534.693C52.8949 534.418 52.2934 534.547 52.0003 535.006C51.728 535.452 51.8759 536.036 52.3365 536.325C54.798 537.787 57.9993 537.073 59.4791 534.707C59.7513 534.261 59.6035 533.677 59.1429 533.388C58.9022 533.25 58.6401 533.215 58.3774 533.269L58.4118 533.276Z" fill="black"/>
<path d="M45.6152 536.126C45.3525 536.18 45.1444 536.317 44.991 536.536C44.0767 537.997 42.0992 538.439 40.5796 537.543C40.0982 537.267 39.4967 537.396 39.2036 537.856C38.9314 538.301 39.0792 538.885 39.5398 539.175C42.0013 540.636 45.2027 539.922 46.6824 537.556C46.9547 537.111 46.8068 536.527 46.3462 536.237C46.1055 536.099 45.8434 536.064 45.5807 536.119L45.6152 536.126Z" fill="black"/>
<path d="M66.7079 513.177C66.4452 513.232 66.2372 513.369 66.0838 513.588C65.1694 515.049 63.1919 515.491 61.6723 514.595C61.1909 514.319 60.5894 514.448 60.2963 514.907C60.024 515.353 60.1719 515.937 60.6325 516.227C63.094 517.688 66.2953 516.974 67.7751 514.608C68.0474 514.162 67.8995 513.578 67.4389 513.289C67.1982 513.151 66.9362 513.116 66.6735 513.17L66.7079 513.177Z" fill="black"/>
<path d="M53.9007 516.064C53.638 516.118 53.43 516.255 53.2766 516.474C52.3622 517.935 50.3847 518.377 48.8652 517.481C48.3838 517.205 47.7823 517.334 47.4892 517.794C47.2169 518.239 47.3648 518.824 47.8254 519.113C50.2869 520.574 53.4882 519.86 54.9679 517.494C55.2402 517.049 55.0924 516.465 54.6318 516.175C54.3911 516.037 54.129 516.002 53.8663 516.057L53.9007 516.064Z" fill="black"/>
<path d="M41.1141 518.937C40.8514 518.992 40.6434 519.128 40.49 519.348C39.5756 520.808 37.5981 521.251 36.0785 520.354C35.5972 520.079 34.9956 520.208 34.7025 520.667C34.4302 521.113 34.5782 521.697 35.0387 521.987C37.5003 523.448 40.7016 522.734 42.1813 520.368C42.4536 519.922 42.3057 519.338 41.8452 519.049C41.6045 518.911 41.3424 518.876 41.0797 518.93L41.1141 518.937Z" fill="black"/>
<path d="M63.2785 523.005C63.0157 523.059 62.8077 523.196 62.6543 523.416C62.2215 524.115 61.507 524.615 60.6773 524.805C59.8475 524.996 58.9786 524.857 58.2429 524.422C57.7615 524.147 57.16 524.276 56.8669 524.735C56.5946 525.181 56.7425 525.765 57.2031 526.054C58.3857 526.757 59.7925 526.987 61.1477 526.688C62.5028 526.389 63.6406 525.581 64.3594 524.456C64.6317 524.011 64.4838 523.427 64.0232 523.137C63.7825 522.999 63.5203 522.964 63.2576 523.019L63.2785 523.005Z" fill="black"/>
<path d="M50.4818 525.855C50.2191 525.909 50.011 526.046 49.8577 526.266C48.9433 527.726 46.9659 528.168 45.4463 527.272C44.9649 526.997 44.3634 527.126 44.0703 527.585C43.798 528.031 43.9458 528.615 44.4064 528.904C46.8679 530.366 50.0692 529.652 51.549 527.286C51.8213 526.84 51.6735 526.256 51.2129 525.967C50.9722 525.829 50.7101 525.794 50.4474 525.848L50.4818 525.855Z" fill="black"/>
<path d="M53.1665 507.765C52.9038 507.819 52.6957 507.956 52.5424 508.176C52.2701 508.621 52.418 509.205 52.8785 509.495C54.0612 510.198 55.4679 510.428 56.8231 510.128C58.1783 509.829 59.3161 509.022 60.0348 507.897C60.3071 507.451 60.1592 506.867 59.6986 506.578C59.2173 506.302 58.6158 506.431 58.3227 506.891C57.8899 507.59 57.1754 508.09 56.3456 508.28C55.5159 508.471 54.6469 508.331 53.9112 507.897C53.6705 507.759 53.4084 507.724 53.1457 507.779L53.1665 507.765Z" fill="black"/>
<path d="M46.1695 509.317C45.9068 509.371 45.6987 509.508 45.5453 509.728C44.6309 511.188 42.6534 511.63 41.1338 510.734C40.6525 510.458 40.051 510.588 39.7579 511.047C39.4856 511.493 39.6334 512.077 40.094 512.366C42.5555 513.828 45.7568 513.114 47.2366 510.748C47.5089 510.302 47.361 509.718 46.9005 509.428C46.6598 509.291 46.3977 509.256 46.135 509.31L46.1695 509.317Z" fill="black"/>
<path d="M67.5198 539.173C67.2571 539.228 67.0491 539.365 66.8957 539.584C66.4629 540.284 65.7484 540.783 64.9186 540.974C64.0889 541.164 63.2199 541.025 62.4842 540.591C62.0028 540.315 61.4013 540.444 61.1082 540.904C60.8359 541.349 60.9838 541.933 61.4444 542.223C62.627 542.926 64.0338 543.156 65.389 542.857C66.7442 542.557 67.8819 541.75 68.6007 540.625C68.873 540.179 68.7251 539.595 68.2645 539.306C68.0238 539.168 67.7617 539.133 67.499 539.187L67.5198 539.173Z" fill="black"/>
<path d="M54.7373 542.044C54.4746 542.098 54.2665 542.235 54.1131 542.455C53.1987 543.915 51.2213 544.357 49.7017 543.461C49.2203 543.186 48.6188 543.315 48.3257 543.774C48.0534 544.22 48.2013 544.804 48.6619 545.093C51.1234 546.555 54.3247 545.841 55.8045 543.475C56.0768 543.029 55.9289 542.445 55.4683 542.156C55.2276 542.018 54.9655 541.983 54.7028 542.037L54.7373 542.044Z" fill="black"/>
<path d="M120.622 501.425C120.254 498.402 120.04 496 119.595 493.617C119.517 493.171 118.529 492.745 117.909 492.629C117.638 492.59 116.979 493.326 116.921 493.772C116.747 495.264 116.786 496.775 116.708 498.267C116.65 499.352 116.495 500.437 116.379 501.735C114.499 502.238 112.756 502.684 110.334 503.323C111.38 504.098 111.826 504.621 112.407 504.815C113.628 505.241 114.887 505.513 116.185 505.861C117.057 508.147 116.708 510.434 117.037 512.623C117.347 514.735 117.057 517.059 118.645 519.036C119.808 516.788 119.789 516.788 119.905 512.681C119.963 510.647 120.118 508.612 120.234 506.365C122.54 506.113 124.574 505.978 126.531 505.59C127.034 505.493 127.538 504.602 127.693 504.001C127.771 503.711 127.17 502.936 126.763 502.82C124.787 502.277 122.772 501.89 120.622 501.405V501.425Z" fill="white"/>
<path d="M95.824 481.004C94.2353 481.082 92.8404 482.496 93.0148 483.872C93.2279 485.635 94.7584 487.01 96.4246 486.952C97.8777 486.894 99.2338 485.441 99.2145 483.988C99.1757 482.283 97.6258 480.908 95.824 481.004Z" fill="white"/>
</svg>
