<svg width="656" height="105" viewBox="0 0 656 105" fill="none" xmlns="http://www.w3.org/2000/svg">
<path d="M652.644 63.4875C655.863 43.4991 657.472 33.5049 653.77 25.6852C651.915 21.7647 649.088 18.2447 645.661 15.5858C638.826 10.2825 628.824 9.70107 608.82 8.53819C548.435 5.02778 444.116 0 341.956 0C222.304 0 109.218 5.60658 46.2979 9.40772C26.9825 10.5746 17.325 11.158 10.6266 16.1876C6.89941 18.9863 3.85345 22.7938 1.94122 27.0445C-1.49524 34.6835 0.0735474 44.3443 3.21118 63.6657C5.83545 79.8257 7.14752 87.9057 11.5938 93.5629C14.12 96.777 17.2765 99.3642 20.924 101.21C27.3439 104.46 35.5608 104.159 51.9945 103.557C118.419 101.124 250.615 96.963 353.004 98.0332C433.478 98.8744 544.135 102.027 603.764 103.859C620.483 104.373 628.843 104.63 635.378 101.16C638.714 99.3887 641.638 96.9737 644.009 94.0332C648.653 88.2727 649.983 80.011 652.644 63.4875Z" fill="#FFD200"/>
</svg>
