<svg width="299" height="50" viewBox="0 0 299 50" fill="none" xmlns="http://www.w3.org/2000/svg">
<path d="M0.920674 28.2857C-0.0965434 18.7816 -0.605152 14.0296 1.19846 10.3815C2.26467 8.22493 3.89111 6.35776 5.88108 5.00583C9.24732 2.7189 14.0018 2.57163 23.5108 2.27707C53.4163 1.3507 105.102 0 152.24 0C206.507 0 252.032 2.20359 277.443 3.7621C284.765 4.21117 288.426 4.43571 291.273 6.0738C293.918 7.59583 296.07 10.0492 297.233 12.8704C298.486 15.9068 298.226 19.6343 297.705 27.0891C297.191 34.457 296.934 38.1409 295.372 40.8995C293.893 43.5141 291.647 45.5575 288.904 46.7841C286.011 48.0782 282.308 47.9865 274.903 47.8033C247.064 47.1143 196.585 46.1309 151.738 46.6733C114.212 47.1272 56.2922 48.5805 25.0358 49.4083C16.6749 49.6297 12.4944 49.7404 9.2523 48.0287C7.31748 47.0072 5.65435 45.5519 4.38512 43.7698C2.25832 40.7835 1.81244 36.6176 0.920674 28.2857Z" fill="#FFD200"/>
</svg>
