<svg width="700" height="173" viewBox="0 0 700 173" fill="none" xmlns="http://www.w3.org/2000/svg">
<path d="M117.102 97.6494C115.676 82.1008 114.962 74.3265 117.42 68.1321C119.79 62.1595 124.231 57.1161 129.856 54.0096C135.69 50.7877 143.429 50.5141 158.906 49.9668C207.275 48.2564 286.234 45.9351 358.491 45.9351C441.598 45.9351 511.847 49.715 553.178 52.5823C564.851 53.392 570.688 53.7969 575.499 56.1061C582.209 59.3266 587.583 65.4434 589.913 72.5117C591.584 77.5799 591.226 83.5663 590.509 95.539C589.769 107.903 589.399 114.085 587.195 118.859C584.043 125.684 578.387 130.866 571.311 133.409C566.363 135.187 560.136 135.014 547.682 134.667C502.244 133.404 425.885 131.785 357.691 132.747C300.411 133.555 213.334 136.067 162.271 137.63C148.052 138.066 140.942 138.284 135.272 135.854C129.759 133.491 125.173 129.434 122.157 124.25C119.054 118.918 118.404 111.829 117.102 97.6494Z" fill="#FFD200"/>
<path d="M10.4097 137.333C14.4822 137.821 18.5669 137.406 22.6035 136.707C32.131 135.011 40.9573 131.526 48.9048 125.969C50.3163 125 51.5876 123.863 52.8589 122.725C53.6195 122.009 54.1245 121.032 53.7889 119.984C53.3663 118.663 52.1796 118.316 50.9363 118.331C49.7319 118.333 48.5401 118.374 47.3731 118.493C39.7607 119.315 32.0863 119.943 24.5344 121.089C19.3183 121.869 14.2107 123.256 9.09229 124.475C6.89669 125.011 5.01695 126.13 3.31304 127.664C0.559503 130.221 0.873075 133.891 4.76715 136.107C6.16139 136.43 8.30254 137.069 10.4878 137.308L10.4097 137.333ZM13.5367 128.143C18.1869 127.074 22.8477 126.174 27.5459 125.39C33.7747 124.413 40.0142 123.604 46.2537 122.795C46.7077 122.734 47.1849 122.881 47.6638 122.898C47.4901 123.297 47.4974 123.723 47.2757 123.837C37.2017 129.608 26.5096 133.178 14.7891 133.267C12.6004 133.286 10.4169 132.918 8.24578 132.588C8.20677 132.601 8.1553 132.575 8.10385 132.548C7.09806 132.229 7.01249 130.886 7.86186 130.313C9.63863 129.141 11.6142 128.59 13.5367 128.143Z" fill="white"/>
<path d="M74.8067 130.191C71.7313 133.371 68.5919 136.485 65.5289 139.704C59.8501 145.654 54.8906 152.102 51.5363 159.664C50.401 162.176 49.6013 164.794 49.8367 167.551C50.1185 170.722 52.546 172.386 55.5638 171.586C56.5135 171.323 57.4915 170.879 58.3541 170.343C59.5042 169.63 60.6295 168.838 61.6144 167.877C72.0389 157.908 77.0423 145.265 79.5597 131.449C79.8981 129.409 77.5451 127.978 75.8697 129.205C75.5555 129.435 75.2664 129.742 74.8192 130.23L74.8067 130.191ZM75.367 137.736C72.4379 147.436 68.0545 156.359 60.7766 163.64C59.4758 164.96 57.9192 166.02 56.3502 167.04C56.3112 167.053 56.2721 167.065 56.2331 167.078C55.4112 167.472 54.4612 166.79 54.5514 165.86C54.7155 163.275 55.2812 161.676 56.7679 159.051C59.4753 154.316 62.5679 149.843 66.2253 145.789C68.9227 142.774 71.787 139.877 74.9032 136.555C75.28 137.464 75.4078 137.594 75.3937 137.685L75.367 137.736Z" fill="white"/>
<path d="M52.2196 90.7096C48.0286 88.111 43.9033 85.4483 39.6059 83.0556C34.884 80.4134 30.0432 77.9383 25.2415 75.4506C22.6542 74.0951 19.8115 73.4229 16.9086 73.371C12.4381 73.2661 10.1173 77.19 12.2689 81.0896C12.5851 81.6745 12.992 82.2731 13.5177 82.7046C15.8513 84.614 18.0909 86.7683 20.728 88.2794C26.6574 91.7343 33.2042 93.617 39.9157 94.8026C43.7562 95.4968 47.6534 95.8293 51.5506 96.1618C51.9909 96.1916 52.4313 96.2214 52.8592 96.2123C55.1282 96.168 56.0094 93.2658 54.1731 91.9689C53.5569 91.5236 52.8873 91.1812 52.232 90.7485L52.2196 90.7096ZM45.5147 92.9127C37.9225 91.6675 30.5892 89.4805 23.8465 85.7724C21.7617 84.6414 19.8366 83.2013 18.0287 81.7235C17.9008 81.593 17.7462 81.5139 17.6184 81.3834C16.0803 80.0762 17.5654 77.5804 19.4743 78.296C22.6599 79.5016 25.9253 80.5528 28.9246 82.1189C34.6266 85.1321 40.1689 88.4542 45.7645 91.6734C45.88 91.7649 45.9955 91.8565 46.1109 91.948C46.4555 92.3521 46.1095 93.0216 45.5662 92.9391L45.5147 92.9127Z" fill="white"/>
<path d="M691.83 49.1548C688.92 52.0536 685.447 54.2477 681.836 56.1881C673.287 60.7326 664.192 63.4351 654.517 63.961C652.81 64.069 651.11 63.9572 649.41 63.8454C648.371 63.7505 647.373 63.2926 646.993 62.2589C646.516 60.9571 647.238 59.9517 648.227 59.1957C649.177 58.4539 650.142 57.7505 651.134 57.1236C657.638 53.0729 664.071 48.8306 670.726 45.0719C675.315 42.4664 680.191 40.4068 684.973 38.2082C687.032 37.2749 689.201 36.9966 691.485 37.1538C695.226 37.4695 697.231 40.555 695.524 44.7059C694.623 45.8206 693.328 47.6458 691.753 49.1831L691.83 49.1548ZM683.723 43.8423C679.403 45.8706 675.177 48.038 670.993 50.3201C665.485 53.3952 660.071 56.6091 654.658 59.8231C654.263 60.0557 653.976 60.4656 653.61 60.7748C653.991 60.9818 654.247 61.3221 654.492 61.2752C665.974 59.6048 676.592 55.8187 685.882 48.6535C687.619 47.3175 689.113 45.6795 690.622 44.0797C690.66 44.0655 690.685 44.013 690.709 43.9605C691.306 43.0883 690.549 41.9768 689.527 42.0492C687.408 42.2225 685.513 43.0082 683.723 43.8423Z" fill="white"/>
<path d="M636.745 83.2207C641.119 83.8267 645.504 84.3418 649.892 84.9862C658.018 86.167 665.882 88.1845 673.164 92.0715C675.6 93.3496 677.836 94.9189 679.342 97.2369C681.065 99.91 680.173 102.721 677.304 103.954C676.394 104.334 675.351 104.588 674.343 104.699C672.999 104.847 671.626 104.918 670.26 104.769C655.93 103.353 644.231 96.4813 633.771 87.1487C632.253 85.7497 633.229 83.1685 635.302 83.1001C635.691 83.0873 636.107 83.1512 636.759 83.2591L636.745 83.2207ZM640.932 89.5129C649.191 95.3471 658.12 99.6713 668.321 100.913C670.157 101.15 672.033 101.023 673.896 100.858C673.934 100.844 673.973 100.83 674.011 100.816C674.9 100.618 675.231 99.4945 674.589 98.817C672.874 96.8811 671.448 95.9708 668.665 94.8206C663.627 92.7615 658.446 91.1471 653.076 90.2117C649.101 89.5019 645.066 88.9882 640.573 88.2956C640.834 89.2444 640.813 89.4262 640.879 89.4887L640.932 89.5129Z" fill="white"/>
<path d="M630.185 38.2216C631.894 33.5848 633.511 28.938 635.43 24.3977C637.53 19.3985 639.827 14.4576 642.084 9.53086C643.292 6.86436 645.12 4.57854 647.375 2.74435C650.834 -0.099998 655.07 1.55861 655.767 5.96077C655.876 6.61704 655.923 7.34012 655.773 8.00495C655.106 10.9512 654.662 14.0324 653.511 16.8523C650.958 23.2379 646.954 28.7658 642.392 33.8462C639.792 36.7658 636.924 39.4353 634.057 42.1049C633.729 42.4004 633.4 42.6959 633.057 42.953C631.242 44.3198 628.767 42.5772 629.418 40.4207C629.631 39.6891 629.948 39.0057 630.199 38.2599L630.185 38.2216ZM636.821 35.8157C642.04 30.1443 646.477 23.8906 649.516 16.8032C650.465 14.6239 651.099 12.2999 651.617 10.0184C651.637 9.83659 651.711 9.67883 651.731 9.497C652.141 7.51671 649.44 6.46733 648.375 8.21046C646.604 11.1285 644.676 13.9741 643.273 17.0611C640.628 22.9581 638.298 28.9998 635.863 34.9934C635.829 35.1369 635.794 35.2804 635.759 35.4239C635.735 35.9551 636.419 36.269 636.796 35.8683L636.821 35.8157Z" fill="white"/>
</svg>
