<svg width="199" height="67" viewBox="0 0 199 67" fill="none" xmlns="http://www.w3.org/2000/svg">
<path d="M112.433 20.0005C92.4443 20.0005 64.8771 22.0893 54.5485 24.5958C44.22 27.1024 41.1371 33.8701 41.8034 42.5594C42.6363 53.4211 46.3868 67.7006 61.795 66.4473C72.1719 65.6033 96.1922 62.1941 119.096 62.1941C142 62.1941 156.279 63.6156 176.487 66.4473C188.846 68.1793 196.302 61.1118 198.673 43.6417C199.572 37.0188 198.551 34.28 195.22 30.9379C191.888 27.5958 184.894 23.7603 167.403 22.507C149.913 21.2538 132.422 20.0005 112.433 20.0005Z" fill="white"/>
<path fill-rule="evenodd" clip-rule="evenodd" d="M183.252 36.5148C182.569 42.853 181.887 49.1914 181.204 55.5298C181.145 56.0783 181.077 56.4978 180.999 56.7889C180.922 57.08 180.812 57.2904 180.672 57.4194C180.531 57.5488 180.345 57.6174 180.114 57.6261C179.883 57.6347 179.597 57.6211 179.255 57.5852C178.674 57.5242 178.093 57.4643 177.512 57.4051C177.192 57.3724 176.932 57.3352 176.729 57.2926C176.526 57.2502 176.368 57.1566 176.256 57.0124C176.144 56.8682 176.072 56.6564 176.043 56.3759C176.013 56.0962 176.022 55.7146 176.07 55.2315C176.374 52.1692 176.678 49.1071 176.982 46.0451C176.75 46.0221 176.517 45.999 176.285 45.9762C175.045 48.9466 173.818 51.9204 172.605 54.8978C172.423 55.3683 172.268 55.7302 172.141 55.9842C172.013 56.2384 171.875 56.4249 171.726 56.5441C171.577 56.6633 171.399 56.7299 171.19 56.7441C170.982 56.7582 170.707 56.7498 170.365 56.719C169.441 56.6358 168.517 56.5548 167.593 56.4757C166.909 56.4173 166.501 56.1457 166.369 55.6584C166.237 55.1718 166.208 54.4778 166.283 53.5762C166.805 47.278 167.327 40.9797 167.849 34.6814C167.857 34.4386 167.866 34.1958 167.874 33.953C167.89 33.7553 167.917 33.5749 167.955 33.4119C167.992 33.2489 168.069 33.1116 168.186 32.9994C168.302 32.8879 168.476 32.8079 168.707 32.7608C168.937 32.7137 169.254 32.7073 169.657 32.7417C170.392 32.8046 171.127 32.8688 171.862 32.9342C172.217 32.9659 172.492 33.0351 172.685 33.1408C172.878 33.2471 173.015 33.3869 173.095 33.5601C173.174 33.7335 173.209 33.9475 173.198 34.2008C173.186 34.4547 173.167 34.7354 173.139 35.0426C172.858 38.1181 172.577 41.1935 172.296 44.2689C172.528 44.2902 172.761 44.3115 172.994 44.3331C174.294 41.441 175.593 38.3406 176.893 35.0315C176.989 34.7857 177.085 34.5402 177.18 34.2947C177.279 34.0167 177.424 33.8148 177.616 33.6891C177.807 33.564 178.14 33.5244 178.614 33.5717C179.691 33.6795 180.769 33.7897 181.846 33.903C182.106 33.9302 182.34 33.9773 182.549 34.0437C182.757 34.1106 182.923 34.2332 183.048 34.4128C183.172 34.5927 183.253 34.8457 183.289 35.171C183.326 35.4968 183.314 35.9447 183.252 36.5148ZM180.5 31.102C180.257 31.4762 179.918 31.7965 179.484 32.0629C178.971 32.3884 178.424 32.594 177.841 32.6805C177.257 32.7675 176.587 32.7739 175.828 32.7016C175.211 32.6429 174.583 32.5232 173.942 32.3418C173.3 32.1612 172.728 31.8047 172.225 31.2725C171.854 30.863 171.61 30.4428 171.492 30.0114C171.374 29.5808 171.307 29.1762 171.292 28.7981C171.301 28.6993 171.31 28.6004 171.318 28.5016C171.35 28.4161 171.4 28.321 171.47 28.2159C171.539 28.1114 171.681 28.0685 171.896 28.0873C172.553 28.1455 173.21 28.2045 173.866 28.2647C174.081 28.2843 174.219 28.3527 174.281 28.4689C174.322 28.5392 174.35 28.6304 174.364 28.7424C174.377 28.8546 174.434 29.0261 174.533 29.2565C174.592 29.3947 174.725 29.5791 174.932 29.8087C175.139 30.0389 175.515 30.1789 176.063 30.2312C176.539 30.2765 176.905 30.2235 177.16 30.0706C177.415 29.9183 177.612 29.749 177.75 29.563C177.887 29.3992 177.971 29.2803 178.002 29.2055C178.033 29.1311 178.078 29.0414 178.137 28.9361C178.195 28.8311 178.256 28.7649 178.319 28.7379C178.382 28.7107 178.473 28.7032 178.593 28.7149C179.249 28.7801 179.905 28.846 180.561 28.9131C180.656 28.9228 180.756 28.9552 180.859 29.01C180.961 29.0652 181.025 29.205 181.05 29.4289C181.04 29.5275 181.03 29.6264 181.02 29.7252C180.915 30.2688 180.742 30.7277 180.5 31.102ZM162.964 55.7659C162.65 55.9629 162.265 56.0436 161.808 56.009C160.827 55.9346 159.845 55.8625 158.863 55.7927C158.589 55.7733 158.36 55.6799 158.177 55.5122C157.993 55.345 157.874 55.1596 157.819 54.9567C157.765 54.7538 157.737 54.5645 157.738 54.3874C157.738 54.2105 157.737 53.9783 157.734 53.6904C157.728 53.4471 157.725 53.237 157.726 53.0599C157.726 52.883 157.699 52.6932 157.644 52.4903C157.55 52.1744 157.411 51.9271 157.227 51.7488C157.043 51.5706 156.721 51.4658 156.261 51.4353C156.054 51.4217 155.834 51.4237 155.602 51.4418C155.37 51.4599 155.154 51.5012 154.954 51.5657C154.753 51.6306 154.586 51.7245 154.451 51.8486C154.316 51.9727 154.243 52.1338 154.23 52.332C154.217 52.718 154.205 53.104 154.192 53.49C154.185 53.9536 154.134 54.315 154.037 54.5742C153.94 54.8333 153.808 55.0239 153.64 55.146C153.471 55.2682 153.289 55.3398 153.093 55.3608C152.897 55.3819 152.684 55.3856 152.456 55.3717C151.405 55.3083 150.354 55.2476 149.303 55.1894C148.983 55.1718 148.739 55.1202 148.572 55.0335C148.405 54.9473 148.278 54.8519 148.192 54.7481C148.106 54.6441 148.06 54.537 148.054 54.426C148.049 54.3153 148.048 54.2268 148.051 54.1607C148.065 53.8963 148.101 53.6612 148.158 53.4541C148.215 53.2474 148.3 52.9479 148.413 52.5564C148.857 50.9232 149.304 49.2907 149.754 47.6588C149.784 47.5279 149.813 47.4135 149.842 47.3156C149.871 47.2177 149.9 47.1149 149.929 47.0057C149.958 46.8969 149.995 46.7557 150.04 46.581C150.085 46.4068 150.138 46.1779 150.2 45.894C150.393 44.9552 150.589 44.0492 150.79 43.1766C150.992 42.3044 151.205 41.4328 151.431 40.5617C151.657 39.6911 151.885 38.8039 152.115 37.9C152.344 36.9967 152.583 36.0438 152.832 35.0419C152.894 34.7914 152.956 34.5409 153.019 34.2904C153.11 33.9428 153.189 33.6047 153.257 33.2771C153.323 32.9496 153.418 32.6627 153.54 32.4157C153.662 32.1691 153.817 31.9739 154.004 31.8305C154.191 31.6875 154.439 31.6248 154.748 31.6439C156.208 31.7341 157.667 31.8292 159.127 31.9296C159.34 31.9444 159.576 31.9722 159.836 32.0121C160.095 32.0524 160.312 32.1895 160.487 32.4226C160.529 32.492 160.57 32.5836 160.61 32.6969C160.649 32.8106 160.7 33.0182 160.762 33.3212C160.823 33.6242 160.894 34.0496 160.974 34.5972C161.053 35.145 161.167 35.8664 161.315 36.7616C161.539 38.2375 161.761 39.7136 161.98 41.19C162.058 41.7264 162.113 42.1677 162.146 42.5128C162.178 42.8584 162.216 43.298 162.258 43.8319C162.3 44.366 162.357 45.0786 162.43 45.9685C162.503 46.859 162.629 48.1074 162.808 49.7139C162.864 50.1829 162.931 50.6693 163.008 51.173C163.085 51.6767 163.163 52.1588 163.243 52.6181C163.323 53.0782 163.387 53.5039 163.438 53.8946C163.488 54.2858 163.502 54.6133 163.482 54.8772C163.45 55.2729 163.277 55.5694 162.964 55.7659ZM157.693 44.6336C157.477 42.3084 157.256 39.9834 157.032 37.6585C156.937 37.6632 156.843 37.6679 156.748 37.6728C156.272 39.8853 155.8 42.0986 155.331 44.312C155.301 44.421 155.278 44.5023 155.263 44.5563C155.248 44.6108 155.239 44.6599 155.236 44.7037C155.233 44.7483 155.223 44.8189 155.205 44.9173C155.187 45.0157 155.159 45.1745 155.122 45.3928C155.119 45.448 155.115 45.503 155.112 45.558C155.127 45.6697 155.219 45.7969 155.384 45.9401C155.55 46.0835 155.888 46.1715 156.398 46.2049C156.699 46.225 156.993 46.1947 157.278 46.1145C157.563 46.0342 157.708 45.7845 157.713 45.3645C157.706 45.1207 157.699 44.8772 157.693 44.6336ZM147.866 42.4548C147.687 43.1966 147.491 43.8326 147.277 44.3628C147.063 44.8933 146.837 45.3291 146.6 45.6702C146.361 46.0119 146.156 46.2777 145.985 46.468C145.738 46.7656 145.434 47.0488 145.073 47.3183C144.712 47.5884 144.313 47.829 143.874 48.0408C143.436 48.2526 142.966 48.4137 142.463 48.5244C141.961 48.6349 141.456 48.6691 140.949 48.626C140.73 48.6059 140.511 48.5861 140.292 48.5663C140.108 48.5371 139.883 48.539 139.616 48.5727C139.348 48.6067 139.143 48.6761 139.001 48.7809C138.834 48.907 138.723 49.0796 138.669 49.2982C138.614 49.5169 138.584 49.7144 138.578 49.8908C138.57 50.089 138.56 50.365 138.547 50.7173C138.534 51.0701 138.537 51.5892 138.558 52.274C138.566 52.6605 138.575 53.0473 138.583 53.4338C138.584 54.0081 138.434 54.3552 138.132 54.4766C137.829 54.598 137.541 54.6537 137.267 54.6441C137.038 54.6359 136.816 54.6116 136.6 54.571C136.383 54.5306 136.173 54.5068 135.967 54.5001C135.646 54.4895 135.336 54.5125 135.037 54.5692C134.738 54.6257 134.428 54.6379 134.109 54.6066C133.652 54.5705 133.381 54.4253 133.298 54.1689C133.213 53.9129 133.174 53.6743 133.181 53.4538C133.202 53.1013 133.224 52.7487 133.245 52.3964C133.259 51.5141 133.273 50.6316 133.287 49.7493C133.437 46.1016 133.589 42.4536 133.741 38.8058C133.812 37.1528 133.838 35.8791 133.816 34.9847C133.794 34.0903 133.776 33.4887 133.762 33.179C133.757 32.9251 133.753 32.6711 133.748 32.4174C133.713 31.9751 133.819 31.581 134.067 31.2348C134.191 31.0399 134.332 30.9115 134.488 30.8501C134.644 30.7884 134.866 30.751 135.152 30.7376C135.509 30.7264 135.866 30.7158 136.223 30.7051C137.271 30.6729 138.295 30.6484 139.296 30.6303C140.296 30.6127 141.234 30.6665 142.11 30.7911C142.985 30.916 143.797 31.1283 144.545 31.4274C145.293 31.7264 145.938 32.1771 146.478 32.7774C146.952 33.2865 147.309 33.8569 147.55 34.4872C147.79 35.1177 147.964 35.7562 148.073 36.4023C148.181 37.0487 148.237 37.6699 148.241 38.2665C148.246 38.8631 148.236 39.3819 148.213 39.8222C148.16 40.8357 148.044 41.7133 147.866 42.4548ZM142.346 37.822C142.302 37.2021 142.146 36.7205 141.877 36.3781C141.541 35.945 141.078 35.7158 140.488 35.6925C140.111 35.6776 139.819 35.7383 139.614 35.8739C139.408 36.0099 139.248 36.1747 139.135 36.3689C139.021 36.5634 138.948 36.776 138.917 37.0066C138.884 37.237 138.865 37.4407 138.859 37.6169C138.822 38.598 138.786 39.5789 138.75 40.5597C138.717 41.4417 138.756 42.1218 138.867 42.6005C138.977 43.0797 139.417 43.3326 140.186 43.3631C140.698 43.3832 141.074 43.3108 141.314 43.1436C141.554 42.9771 141.738 42.7861 141.864 42.5705C142.065 42.2262 142.191 41.8781 142.241 41.5267C142.291 41.1759 142.325 40.8129 142.341 40.4381C142.389 39.314 142.391 38.4421 142.346 37.822ZM130.647 34.1567C130.641 34.3995 130.63 34.6361 130.612 34.8675C130.595 35.0986 130.531 35.307 130.421 35.4916C130.31 35.6769 130.13 35.8273 129.879 35.9425C129.629 36.0585 129.268 36.111 128.797 36.1011C128.22 36.0889 127.643 36.0778 127.066 36.0674C126.924 36.0649 126.783 36.0679 126.641 36.0763C126.499 36.0852 126.369 36.1162 126.251 36.169C126.131 36.2222 126.03 36.3198 125.945 36.4618C125.86 36.604 125.816 36.8072 125.812 37.0718C125.737 41.7254 125.661 46.3793 125.586 51.0332C125.609 51.7505 125.632 52.468 125.655 53.1853C125.673 53.4724 125.634 53.6979 125.541 53.8619C125.446 54.0257 125.33 54.151 125.191 54.2367C125.053 54.323 124.903 54.3755 124.743 54.3956C124.582 54.4149 124.433 54.424 124.296 54.4221C123.93 54.4169 123.576 54.3901 123.233 54.3418C122.891 54.2937 122.548 54.2675 122.205 54.2637C121.953 54.261 121.712 54.2751 121.483 54.3061C121.254 54.3371 121.014 54.3515 120.762 54.3492C120.67 54.3485 120.574 54.342 120.471 54.3304C120.368 54.3183 120.276 54.2742 120.197 54.1961C120.117 54.1183 120.05 53.9964 119.994 53.8307C119.938 53.6647 119.911 53.4278 119.913 53.1186C119.914 52.9645 119.92 52.8374 119.933 52.7383C119.945 52.6389 119.951 52.5346 119.952 52.4239C119.953 52.3139 119.959 52.1816 119.972 52.027C119.984 51.8731 119.992 51.6633 119.994 51.3984C120.035 45.4649 120.077 39.5313 120.119 33.5975C120.11 33.0792 120.102 32.5606 120.094 32.042C120.095 31.8436 120.102 31.6451 120.116 31.4467C120.129 31.2482 120.184 31.0723 120.28 30.9185C120.376 30.7651 120.532 30.6447 120.746 30.558C120.961 30.4717 121.27 30.4299 121.675 30.4338C121.983 30.4366 122.275 30.4452 122.548 30.4591C122.821 30.4735 123.184 30.4826 123.635 30.4883C125.097 30.5067 126.559 30.5302 128.021 30.5587C128.378 30.5656 128.729 30.5617 129.074 30.5468C129.419 30.5324 129.721 30.5664 129.981 30.6494C130.241 30.7329 130.445 30.8974 130.594 31.1434C130.742 31.3899 130.798 31.7772 130.762 32.3059C130.724 32.9228 130.685 33.5397 130.647 34.1567ZM116.027 53.2861C115.981 53.5839 115.895 53.8047 115.769 53.9479C115.643 54.0916 115.466 54.1793 115.237 54.2127C115.008 54.2459 114.722 54.2628 114.379 54.2635C113.796 54.2647 113.212 54.267 112.629 54.2697C112.308 54.2714 112.045 54.262 111.839 54.2412C111.633 54.2206 111.466 54.1443 111.34 54.013C111.213 53.8815 111.12 53.6785 111.061 53.4028C111.001 53.1278 110.97 52.7475 110.966 52.2619C110.942 49.1849 110.918 46.1078 110.895 43.0306C110.661 43.0324 110.429 43.0343 110.195 43.0363C109.279 46.1219 108.376 49.2092 107.488 52.2988C107.357 52.7861 107.242 53.1625 107.142 53.4286C107.043 53.6946 106.926 53.8948 106.79 54.0294C106.655 54.1637 106.484 54.2489 106.279 54.2851C106.073 54.3215 105.799 54.3423 105.456 54.348C104.529 54.3636 103.603 54.3812 102.676 54.401C101.99 54.4159 101.556 54.1892 101.373 53.7187C101.19 53.2487 101.087 52.5619 101.066 51.6573C100.915 45.3392 100.764 39.0214 100.613 32.7033C100.595 32.461 100.578 32.2187 100.56 31.9764C100.555 31.7779 100.563 31.5956 100.582 31.4298C100.602 31.2638 100.664 31.1191 100.768 30.995C100.872 30.8716 101.036 30.7735 101.261 30.7024C101.485 30.6311 101.799 30.5909 102.203 30.5822C102.94 30.5666 103.677 30.552 104.414 30.5389C104.771 30.5327 105.051 30.5723 105.254 30.6571C105.457 30.7421 105.608 30.8664 105.706 31.0302C105.803 31.1942 105.86 31.4033 105.876 31.6563C105.892 31.91 105.902 32.1912 105.907 32.4996C105.955 35.5875 106.003 38.6755 106.05 41.7633C106.284 41.7596 106.517 41.7562 106.751 41.7529C107.735 38.7387 108.696 35.5176 109.636 32.0889C109.705 31.8347 109.773 31.5802 109.842 31.326C109.911 31.0389 110.034 30.8226 110.211 30.6774C110.388 30.5327 110.714 30.4579 111.19 30.4547C112.271 30.447 113.353 30.442 114.435 30.4398C114.696 30.4393 114.934 30.4613 115.148 30.5049C115.362 30.5493 115.541 30.6536 115.683 30.8191C115.826 30.9846 115.933 31.2277 116.003 31.547C116.074 31.8671 116.11 32.3138 116.109 32.8871C116.105 39.2622 116.101 45.6373 116.097 52.0121C116.096 52.5639 116.073 52.9883 116.027 53.2861ZM96.7969 54.1743C96.641 54.323 96.4151 54.4293 96.12 54.4937C95.8242 54.5586 95.4476 54.5982 94.9905 54.6138C94.5901 54.6272 94.19 54.6413 93.7896 54.6557C93.4467 54.6681 93.1318 54.6745 92.8456 54.6738C92.559 54.6738 92.3226 54.6275 92.1361 54.5353C91.9487 54.4431 91.7996 54.2784 91.6869 54.0395C91.5744 53.8014 91.5087 53.4506 91.4904 52.9878C91.4669 52.3927 91.4433 51.7973 91.4198 51.2022C91.4091 50.9378 91.4072 50.7505 91.4146 50.6395C91.4218 50.529 91.4282 50.4071 91.4349 50.2746C91.4411 50.1418 91.4394 49.9488 91.4292 49.6953C91.4193 49.4421 91.4029 49.0289 91.3804 48.4553C91.368 48.1471 91.3492 47.6677 91.3234 47.0173C91.2979 46.3672 91.2687 45.6286 91.2359 44.8021C91.2032 43.9753 91.1745 43.1104 91.151 42.2058C91.1267 41.302 91.0987 40.4363 91.066 39.6098C91.0333 38.7833 91.0097 38.0447 90.9964 37.3939C90.9822 36.7435 90.9689 36.2527 90.956 35.9219C90.9429 35.5914 90.93 35.2607 90.9168 34.9302C90.9074 34.6879 90.8854 34.4403 90.8522 34.1876C90.8182 33.9354 90.8086 33.6874 90.8227 33.4436C90.8157 33.2675 90.8113 33.1517 90.8091 33.0965C90.8068 33.0417 90.8053 33.0031 90.8044 32.9808C90.8036 32.959 90.7969 32.9429 90.7848 32.932C90.7721 32.9216 90.7642 32.8614 90.7598 32.7509C90.7555 32.6406 90.7511 32.5304 90.7466 32.4201C90.7337 32.0896 90.7466 31.824 90.7865 31.6238C90.8262 31.4236 90.9153 31.271 91.0541 31.1662C91.1926 31.0617 91.398 30.9873 91.67 30.944C91.9416 30.9006 92.3035 30.8704 92.7555 30.854C93.302 30.8342 93.8486 30.8151 94.3951 30.7968C94.8703 30.7807 95.2452 30.7852 95.5197 30.8094C95.7937 30.834 96.0051 30.9266 96.1527 31.0877C96.3004 31.2487 96.4027 31.4994 96.4609 31.8396C96.2957 32.1803 96.5568 32.6478 96.5746 33.2429C96.698 38.4805 96.8222 43.7182 96.9473 48.9558C97.0072 50.1678 97.0672 51.3798 97.1269 52.5919C97.139 52.9885 97.1257 53.3148 97.0878 53.5695C97.0494 53.8247 96.9525 54.0261 96.7969 54.1743ZM89.8304 50.8038C89.7435 51.2047 89.6416 51.5238 89.5254 51.7604C89.4087 51.9973 89.3193 52.1833 89.2561 52.3186C88.9363 52.9068 88.5552 53.3815 88.1127 53.7437C87.6695 54.1062 87.2007 54.3814 86.7057 54.5707C86.2102 54.76 85.7067 54.8896 85.1944 54.9592C84.6822 55.0293 84.1974 55.0761 83.7405 55.1002C82.163 55.1829 80.5861 55.2719 79.0093 55.3668C78.7576 55.3821 78.4595 55.3784 78.1142 55.3551C77.7685 55.3326 77.5007 55.2721 77.3112 55.1733C77.191 55.0927 77.0827 54.9225 76.9861 54.6634C76.889 54.4042 76.8127 53.8346 76.7564 52.9538C76.7327 52.5797 76.7089 52.2054 76.6848 51.8313C76.6331 51.0171 76.6038 50.2008 76.5984 49.3832C76.5927 48.566 76.5642 47.7499 76.5124 46.9353C76.4133 45.3724 76.3246 44.0739 76.2476 43.0398C76.1698 42.0061 76.0984 41.1593 76.0332 40.5005C75.9676 39.8415 75.9044 39.3098 75.8432 38.9045C75.7823 38.4996 75.7283 38.1218 75.6824 37.771C75.6363 37.4206 75.5954 37.0584 75.5598 36.6845C75.5238 36.3114 75.4872 35.8273 75.4493 35.2329C75.4062 34.5615 75.3633 33.8901 75.3202 33.2186C75.2991 32.8884 75.3056 32.6228 75.3405 32.4216C75.3752 32.2204 75.4607 32.0658 75.5969 31.9576C75.733 31.8495 75.9364 31.7702 76.2074 31.7202C76.478 31.6702 76.8394 31.6313 77.2906 31.6038C77.8367 31.5706 78.383 31.5381 78.929 31.5064C79.404 31.4789 79.785 31.4737 80.0717 31.4908C80.3586 31.5076 80.5779 31.5951 80.7295 31.7522C80.8809 31.9095 80.984 32.1582 81.0382 32.4974C81.0925 32.8373 81.1358 33.3039 81.1685 33.8987C81.2518 35.4185 81.335 36.9382 81.4183 38.458C81.4438 38.9206 81.4862 39.2719 81.5466 39.5115C81.6066 39.7515 81.6863 39.918 81.7854 40.0119C81.8843 40.1061 82.0047 40.1549 82.1457 40.1581C82.2869 40.1621 82.4393 40.1591 82.6033 40.1502C83.0602 40.1262 83.5168 40.1024 83.9737 40.0791C84.7464 40.0397 85.4196 40.1177 85.9919 40.311C86.5645 40.5047 87.0434 40.7255 87.4299 40.9727C88.3473 41.5721 89.0024 42.383 89.3956 43.4037C89.789 44.425 90.018 45.7404 90.0846 47.3488C90.1166 48.1206 90.1037 48.7888 90.0465 49.3539C89.989 49.9193 89.9171 50.4027 89.8304 50.8038ZM84.6872 47.2656C84.6738 47.0012 84.6431 46.7376 84.595 46.475C84.547 46.2123 84.4531 45.9685 84.3141 45.7438C84.1743 45.5189 83.9848 45.3412 83.7452 45.2097C83.5054 45.0786 83.1994 45.0226 82.828 45.0424C82.549 45.057 82.336 45.1073 82.1895 45.1926C82.0424 45.2783 81.9378 45.3833 81.8746 45.508C81.8117 45.6331 81.7716 45.757 81.7552 45.8789C81.7386 46.0015 81.7329 46.107 81.7376 46.1947C81.7879 47.1087 81.8382 48.023 81.8885 48.9369C81.9054 49.2456 81.9591 49.4912 82.0506 49.6735C82.1412 49.8566 82.2465 49.9892 82.3669 50.0707C82.4869 50.1527 82.6107 50.2013 82.7388 50.2161C82.8664 50.2317 82.9878 50.2359 83.1035 50.2297C83.2646 50.2213 83.4474 50.1785 83.6513 50.1017C83.8552 50.0246 84.0386 49.8826 84.2013 49.6755C84.3641 49.4684 84.4935 49.175 84.5903 48.7942C84.6867 48.4142 84.7194 47.9048 84.6872 47.2656ZM71.8384 53.3205C71.4893 53.9209 71.0932 54.4084 70.6497 54.7838C70.206 55.1599 69.7389 55.449 69.2494 55.6524C68.759 55.8556 68.2534 56.0003 67.7318 56.0855C67.2098 56.1712 66.7098 56.2332 66.2304 56.2721C64.6554 56.4004 63.0807 56.5347 61.5064 56.6752C61.2552 56.6977 60.9569 56.7027 60.6108 56.6896C60.2644 56.6767 59.9948 56.6241 59.8023 56.5307C59.6797 56.4537 59.5667 56.2867 59.4627 56.0305C59.3579 55.7743 59.2652 55.207 59.1837 54.3284C59.1492 53.955 59.1146 53.5814 59.0799 53.208C59.0045 52.3959 58.9518 51.5808 58.923 50.7637C58.8936 49.9471 58.8418 49.1319 58.7667 48.319C58.6753 47.3307 58.5621 46.361 58.4273 45.4096C58.2917 44.4587 58.1788 43.4887 58.0871 42.5004C58.0363 41.9516 58.0014 41.4507 57.9833 40.998C57.9645 40.5461 57.937 40.0553 57.9 39.5271C57.8629 38.9989 57.8116 38.378 57.7454 37.6639C57.6795 36.9504 57.5614 36.0585 57.3907 34.9884C57.3763 34.835 57.3584 34.6425 57.3371 34.4118C57.3158 34.1812 57.3664 33.9555 57.4893 33.7332C57.6119 33.5117 57.8272 33.32 58.1352 33.1589C58.4431 32.9979 58.9062 32.9008 59.5248 32.8676C60.0367 32.844 60.5483 32.8212 61.06 32.7992C62.4709 32.677 63.8822 32.5596 65.2934 32.4469C65.9101 32.3978 66.5619 32.4129 67.248 32.493C67.9343 32.5732 68.5705 32.791 69.1567 33.1458C69.7422 33.5008 70.2454 34.0397 70.6656 34.7612C71.0853 35.4834 71.3387 36.4715 71.4274 37.7256C71.5362 39.2662 71.4227 40.4128 71.0887 41.1665C70.7547 41.9202 70.2025 42.4799 69.4327 42.8468C70.4919 43.2107 71.2456 43.8371 71.6942 44.7226C72.1429 45.6086 72.4246 46.8882 72.5418 48.5601C72.5958 49.3306 72.5939 50.1321 72.5369 50.9653C72.4796 51.7985 72.2463 52.5837 71.8384 53.3205ZM66.1643 38.9166C66.1313 38.4991 66.0342 38.1694 65.8729 37.9273C65.7119 37.6862 65.5315 37.5066 65.3328 37.3897C65.1336 37.273 64.9386 37.2058 64.7478 37.188C64.5563 37.1704 64.4139 37.1654 64.32 37.1731C64.2724 37.1771 64.1904 37.1838 64.0727 37.1934C63.9545 37.2033 63.8388 37.2351 63.7251 37.2886C63.6106 37.3428 63.5051 37.4231 63.4075 37.5309C63.3098 37.6387 63.2695 37.7915 63.2858 37.9892C63.3604 38.8797 63.435 39.7699 63.5095 40.6601C63.5187 40.7703 63.5759 40.8927 63.6817 41.0275C63.787 41.163 63.9684 41.2195 64.2261 41.1982C65.6291 41.0825 66.2753 40.3244 66.1643 38.9166ZM67.1437 48.6307C67.1229 48.3668 67.0832 48.0879 67.0252 47.7938C66.967 47.4994 66.8639 47.2314 66.7165 46.9883C66.5689 46.746 66.361 46.5518 66.0927 46.4076C65.8239 46.2631 65.4691 46.2086 65.0285 46.2448C64.4946 46.2886 64.181 46.4477 64.0873 46.7212C63.9929 46.9948 63.9548 47.2304 63.9714 47.4283C64.0479 48.3406 64.1245 49.2528 64.201 50.1651C64.2268 50.473 64.2878 50.7171 64.3841 50.8967C64.4803 51.0771 64.5895 51.2064 64.7122 51.2845C64.8343 51.363 64.9597 51.4081 65.0883 51.4192C65.2164 51.4309 65.338 51.4319 65.4535 51.4222C65.614 51.4091 65.8021 51.3719 66.0176 51.31C66.2324 51.2483 66.4304 51.1162 66.6112 50.9136C66.7916 50.7114 66.9375 50.4284 67.048 50.0655C67.1585 49.703 67.1905 49.2243 67.1437 48.6307Z" fill="#C10230"/>
<path d="M31.601 21.4776C31.1448 21.5058 30.6068 21.4092 30.2163 21.181C28.7888 20.3384 27.4114 19.4262 26.019 18.5164C23.3487 16.7397 20.6735 14.933 18.0032 13.1563C17.1081 12.5648 16.1779 12.0406 15.2929 11.4168C13.6597 10.2544 13.5144 9.08002 14.8086 7.50209C16.0528 5.99377 17.3018 4.51537 18.6354 3.08464C20.2042 1.40054 20.8946 1.39557 22.5216 2.89686C23.1724 3.49737 23.8082 4.10033 24.3766 4.76036C26.5108 7.30029 28.63 9.84266 30.7217 12.4049C31.8184 13.7622 32.85 15.1915 34.0629 16.791C35.2149 18.0164 33.0444 21.3806 31.5836 21.4651L31.601 21.4776ZM20.9399 4.69057C19.432 6.08827 18.223 7.52943 17.0777 9.2674C18.491 10.5885 20.2683 11.2205 21.7324 12.2875C23.3009 13.4297 24.8694 14.5719 26.4379 15.7141C27.9069 16.811 29.3758 17.908 31.0039 19.1326C31.5546 18.4592 32.0177 17.9076 32.5284 17.2714C28.7985 12.8565 25.1952 8.55912 20.925 4.69301L20.9399 4.69057Z" fill="white"/>
<path d="M27.8917 26.521C26.8927 29.1567 26.6404 29.3053 23.7901 29.0632C21.7495 28.8888 19.7166 28.6671 17.6858 28.5526C13.699 28.3113 9.72434 28.1449 5.73507 27.8887C3.88868 27.7748 3.28066 27.0598 3.43664 25.2833C3.6128 23.4421 3.8836 21.6163 4.15441 19.7904C4.68006 16.4177 5.86312 15.9484 8.68993 17.1774C12.5246 18.8413 16.3943 20.4379 20.2314 22.1167C22.8118 23.2476 25.3446 24.4631 28.0666 25.7091C27.9727 26.1699 27.9596 26.3717 27.8792 26.5384L27.8917 26.521ZM24.7963 25.8119C18.8849 23.6571 13.1648 20.9795 7.02826 19.0456C6.3079 21.1291 6.21841 23.1251 6.1307 25.3205C6.84547 25.4652 7.47777 25.6693 8.11563 25.719C11.5941 25.9509 15.0927 26.1182 18.5735 26.3651C20.4074 26.4963 22.2409 26.7198 24.0696 26.9134C24.5529 26.9575 25.046 27.0615 25.3177 26.3721C25.1663 26.1971 25.0104 25.8999 24.7988 25.8269L24.7963 25.8119Z" fill="white"/>
</svg>
