<svg width="200" height="99" viewBox="0 0 200 99" fill="none" xmlns="http://www.w3.org/2000/svg">
<path d="M37.8697 54.906C34.5605 40.6203 44.7392 26.7392 59.3316 25.292C68.5632 24.3765 78.3584 23.292 85.7289 22.1919C114.825 17.8489 156.068 23.9297 180.052 28.3998C191.259 30.4886 198.767 40.7718 197.886 52.1377C196.83 65.758 184.272 75.5536 170.731 73.7466C152.733 71.345 128.465 68.7671 109.605 69.1914C95.7651 69.5027 79.1652 71.5871 66.0139 73.5958C53.2129 75.5511 40.7919 67.5215 37.8697 54.906Z" fill="#C10230"/>
<path d="M63.3471 44.1343C63.3523 44.239 63.4005 44.3626 63.4917 44.5049C63.5817 44.6263 63.7419 44.6812 63.9723 44.6696C65.2285 44.6063 65.8229 43.9047 65.7554 42.5646C65.7354 42.1668 65.6567 41.8559 65.5195 41.6319C65.3812 41.387 65.2252 41.2059 65.0513 41.0887C64.8775 40.9715 64.7063 40.9067 64.5377 40.8942C64.3681 40.8608 64.2415 40.8462 64.1577 40.8504C64.1158 40.8525 64.0425 40.8562 63.9378 40.8614C63.8332 40.8667 63.7295 40.8929 63.6269 40.9401C63.5244 40.9872 63.4234 41.0658 63.3239 41.1758C63.2444 41.2637 63.2094 41.4019 63.2189 41.5904L63.3471 44.1343ZM63.7085 53.1843C63.7233 53.4775 63.7668 53.7167 63.8391 53.9019C63.9313 54.0652 64.0319 54.1861 64.1408 54.2646C64.2497 54.3431 64.357 54.3901 64.4628 54.4058C64.5894 54.4204 64.7051 54.4251 64.8098 54.4198C64.9564 54.4124 65.1228 54.383 65.3092 54.3317C65.5164 54.2793 65.6996 54.1651 65.8587 53.9891C66.0376 53.7912 66.1815 53.5216 66.2902 53.1802C66.399 52.8389 66.4391 52.3855 66.4106 51.8202C66.398 51.569 66.3639 51.3083 66.3083 51.0382C66.2726 50.7461 66.1861 50.4881 66.0489 50.2641C65.9315 50.0181 65.754 49.8277 65.5163 49.6927C65.2775 49.5368 64.9592 49.4689 64.5614 49.4889C64.0798 49.5132 63.793 49.6536 63.701 49.9101C63.609 50.1666 63.5677 50.3891 63.5772 50.5775L63.7085 53.1843ZM65.1297 36.3933C65.674 36.3658 66.2425 36.4002 66.8351 36.4963C67.4487 36.5913 68.0057 36.8151 68.5063 37.1677C69.0278 37.5193 69.4635 38.0431 69.8134 38.7392C70.1843 39.4342 70.3998 40.3785 70.4599 41.5719C70.5338 43.0376 70.4101 44.1249 70.089 44.8338C69.7888 45.5416 69.2901 46.06 68.593 46.389C69.5354 46.7614 70.1962 47.3788 70.5755 48.2413C70.9747 49.0818 71.2144 50.2978 71.2946 51.889C71.3315 52.6219 71.3176 53.3887 71.253 54.1897C71.1874 54.9697 70.962 55.7052 70.577 56.3963C70.2485 56.9586 69.8728 57.4184 69.45 57.7755C69.0471 58.1107 68.6195 58.3736 68.1673 58.5644C67.714 58.7341 67.2477 58.8521 66.7682 58.9182C66.2888 58.9844 65.8292 59.0285 65.3895 59.0507L61.0553 59.269C60.825 59.2806 60.5517 59.2734 60.2355 59.2473C59.9194 59.2213 59.6749 59.1601 59.5021 59.0639C59.3932 58.9854 59.2905 58.8226 59.1941 58.5756C59.1187 58.3275 59.0598 57.7847 59.0176 56.9472L58.9638 55.8793C58.9248 55.1046 58.9067 54.3289 58.9096 53.552C58.9124 52.7752 58.8943 51.9995 58.8553 51.2248C58.8078 50.2825 58.7405 49.3623 58.6532 48.4641C58.565 47.5449 58.4971 46.6142 58.4496 45.672C58.4232 45.1486 58.41 44.6769 58.4098 44.2571C58.4086 43.8164 58.3953 43.3447 58.37 42.8422C58.3656 42.3387 58.3466 41.7519 58.3128 41.0819C58.278 40.3909 58.2034 39.534 58.0889 38.5112C58.0815 38.3647 58.0725 38.1867 58.062 37.9773C58.0504 37.747 58.1026 37.5344 58.2188 37.3397C58.3338 37.124 58.5243 36.9464 58.7902 36.8071C59.077 36.6667 59.4931 36.5933 60.0385 36.5868L61.3922 36.5815L65.1297 36.3933Z" fill="white"/>
<path d="M79.1041 52.4836C79.1121 52.777 79.1502 53.0171 79.2182 53.204C79.3066 53.3694 79.4044 53.4925 79.5115 53.5735C79.6186 53.6544 79.7248 53.7039 79.8301 53.722C79.9565 53.7395 80.072 53.7468 80.1768 53.744C80.3235 53.7399 80.4903 53.7039 80.6772 53.6358C80.864 53.5678 81.0282 53.4375 81.1698 53.2448C81.3322 53.0516 81.461 52.7754 81.556 52.4163C81.651 52.0572 81.6902 51.5737 81.6735 50.966C81.6666 50.7145 81.6387 50.4636 81.5899 50.2133C81.5621 49.9624 81.4824 49.7338 81.3509 49.5277C81.2398 49.3001 81.0777 49.1263 80.8647 49.0063C80.6511 48.8653 80.3767 48.7994 80.0414 48.8087C79.7899 48.8156 79.5919 48.8629 79.4475 48.9508C79.3235 49.0171 79.2318 49.114 79.1724 49.2415C79.1124 49.348 79.0736 49.4644 79.0561 49.5907C79.0381 49.6961 79.0302 49.7906 79.0325 49.8745L79.1041 52.4836ZM76.3122 58.5059C76.0817 58.5122 75.8087 58.4987 75.4932 58.4655C75.1777 58.4322 74.9346 58.3654 74.7641 58.2653C74.657 58.1843 74.5581 58.0192 74.4674 57.7701C74.3976 57.5203 74.3512 56.9763 74.3282 56.138L74.2989 55.0692C74.2776 54.2938 74.2773 53.5179 74.2979 52.7413C74.3186 51.9648 74.3183 51.1888 74.297 50.4134C74.2562 48.9255 74.2117 47.6893 74.1638 46.7049C74.1367 45.7199 74.1041 44.9134 74.0659 44.2853C74.0277 43.6571 73.9825 43.155 73.9302 42.779C73.8983 42.3814 73.8673 42.0152 73.8371 41.6805C73.807 41.3457 73.7765 41.0005 73.7458 40.6448C73.736 40.2886 73.7234 39.8275 73.7078 39.2617L73.6552 37.3442C73.6466 37.0298 73.6606 36.7778 73.6974 36.588C73.7341 36.3982 73.8142 36.2597 73.9377 36.1724C74.0605 36.0642 74.2369 35.9964 74.4669 35.9692C74.7172 35.9203 75.0415 35.8905 75.4396 35.8795L76.8856 35.8399C77.3048 35.8284 77.6407 35.8401 77.8933 35.8751C78.1454 35.8892 78.3365 35.9783 78.4669 36.1425C78.5967 36.2858 78.6766 36.5248 78.7068 36.8595C78.7573 37.1727 78.7903 37.6122 78.8059 38.178L78.9249 42.5161C78.937 42.9562 78.9672 43.2909 79.0154 43.5203C79.0636 43.7497 79.1311 43.9156 79.2178 44.0181C79.3039 44.0996 79.4102 44.1491 79.5365 44.1666C79.6622 44.1632 79.7984 44.1594 79.9451 44.1554L81.1711 44.1218C81.8627 44.1028 82.4628 44.1912 82.9715 44.3869C83.4802 44.5827 83.9057 44.8017 84.2479 45.044C85.0609 45.6299 85.6381 46.411 85.9795 47.3874C86.3209 48.3637 86.5126 49.6168 86.5546 51.1466C86.5747 51.8801 86.5503 52.5204 86.4814 53.0676C86.4329 53.5933 86.3615 54.0461 86.267 54.4262C86.1936 54.8057 86.0971 55.1125 85.9777 55.3465C85.8787 55.5589 85.7995 55.7289 85.74 55.8563C85.4406 56.4098 85.086 56.86 84.676 57.2068C84.2655 57.5326 83.8321 57.7857 83.3756 57.966C82.9186 58.1254 82.4496 58.2326 81.9688 58.2878C81.5089 58.3423 81.0694 58.3754 80.6502 58.3869L76.3122 58.5059ZM90.5285 35.4655C90.9476 35.454 91.273 35.466 91.5047 35.5016C91.7567 35.5157 91.9479 35.6048 92.0783 35.769C92.208 35.9123 92.2985 36.151 92.3496 36.4851C92.4001 36.7983 92.4332 37.2378 92.4487 37.8037L92.7641 52.7379L92.9219 56.194C92.9322 56.5713 92.9199 56.8862 92.8849 57.1388C92.8493 57.3705 92.7602 57.5617 92.6175 57.7124C92.4743 57.8422 92.2673 57.9422 91.9966 58.0126C91.7253 58.062 91.3801 58.0924 90.9609 58.1039L89.8607 58.1341C89.5464 58.1427 89.253 58.1508 88.9805 58.1583C88.7285 58.1442 88.5175 58.0976 88.3475 58.0183C88.177 57.9182 88.0362 57.7542 87.9251 57.5266C87.8349 57.2984 87.7838 56.9642 87.7717 56.5241L87.7251 54.8266C87.7182 54.5751 87.7133 54.397 87.7105 54.2922C87.7286 54.1869 87.7359 54.0713 87.7324 53.9456C87.7499 53.8193 87.7555 53.6408 87.7492 53.4103C87.7423 53.1588 87.7314 52.7607 87.7164 52.2158C87.7084 51.9224 87.696 51.4718 87.6793 50.8641C87.6621 50.2354 87.6428 49.5333 87.6215 48.7579C87.5997 47.9616 87.577 47.1338 87.5534 46.2746C87.5508 45.4148 87.5388 44.5972 87.5175 43.8218C87.4957 43.0254 87.4764 42.3234 87.4597 41.7156C87.4634 41.0863 87.461 40.6145 87.4523 40.3002L87.4265 39.3571C87.4201 39.1266 87.4033 38.8964 87.3761 38.6664C87.3482 38.4155 87.3416 38.1745 87.3562 37.9434C87.3516 37.7758 87.3487 37.671 87.3476 37.6291C87.3459 37.5662 87.3447 37.5243 87.3441 37.5033C87.3436 37.4824 87.3328 37.4722 87.3118 37.4727C87.3113 37.4518 87.3095 37.3889 87.3067 37.2841L87.298 36.9698C87.2894 36.6554 87.3035 36.4034 87.3402 36.2136C87.3769 36.0239 87.457 35.8853 87.5805 35.7981C87.7033 35.6898 87.8797 35.6221 88.1097 35.5948C88.36 35.546 88.6843 35.5161 89.0825 35.5052L90.5285 35.4655Z" fill="white"/>
<path d="M110.041 55.7156C110.044 56.2397 110.025 56.6486 109.984 56.9423C109.944 57.2151 109.861 57.4251 109.736 57.5724C109.631 57.6987 109.474 57.7833 109.265 57.8261C109.055 57.8481 108.793 57.8598 108.479 57.8612L106.875 57.8685C106.582 57.8699 106.341 57.8605 106.152 57.8404C105.963 57.8203 105.805 57.7477 105.679 57.6224C105.574 57.4971 105.489 57.3088 105.425 57.0576C105.382 56.7852 105.359 56.4184 105.357 55.9572L105.317 47.1836L104.688 47.1865L102.181 55.9718C102.057 56.4336 101.944 56.7905 101.84 57.0425C101.757 57.2945 101.653 57.4837 101.528 57.61C101.403 57.7364 101.246 57.821 101.057 57.8638C100.869 57.8856 100.617 57.8972 100.303 57.8987L97.7557 57.9103C97.1268 57.9132 96.7274 57.6949 96.5577 57.2554C96.4088 56.7949 96.3324 56.1349 96.3285 55.2753L96.2459 37.2564L96.2113 36.5648C96.2104 36.3761 96.2201 36.2083 96.2404 36.0615C96.2606 35.8937 96.3124 35.7571 96.3958 35.6519C96.5 35.5257 96.6463 35.4307 96.8347 35.3669C97.0441 35.303 97.327 35.2703 97.6833 35.2687L99.633 35.2597C99.9475 35.2583 100.189 35.2991 100.357 35.3822C100.546 35.4652 100.683 35.5904 100.767 35.7577C100.852 35.9041 100.895 36.103 100.896 36.3546C100.918 36.5851 100.93 36.8471 100.931 37.1406L100.971 45.9457L101.6 45.9428C102.51 43.0874 103.387 40.033 104.231 36.7796L104.417 36.0554C104.478 35.7826 104.582 35.583 104.728 35.4565C104.895 35.309 105.189 35.2343 105.608 35.2323L108.47 35.2192C108.7 35.2182 108.91 35.2382 109.099 35.2792C109.288 35.3203 109.445 35.4244 109.572 35.5915C109.698 35.7377 109.794 35.9679 109.858 36.2821C109.922 36.5753 109.956 36.9944 109.958 37.5395L110.041 55.7156Z" fill="white"/>
<path d="M114.219 37.9619L114.204 36.4837C114.206 36.295 114.208 36.1063 114.21 35.9177C114.233 35.7292 114.287 35.5621 114.372 35.4162C114.458 35.2704 114.595 35.1565 114.785 35.0747C114.974 34.9928 115.247 34.9538 115.604 34.9576C115.876 34.9605 116.128 34.9736 116.358 34.997C116.609 34.9997 116.934 35.0032 117.333 35.0074L121.2 35.0485C121.515 35.0518 121.819 35.0445 122.113 35.0267C122.427 35.0091 122.7 35.0434 122.929 35.1297C123.159 35.1951 123.336 35.3437 123.459 35.5756C123.603 35.8078 123.662 36.1753 123.636 36.6782L123.555 38.4385C123.552 38.6691 123.539 38.8996 123.516 39.1299C123.514 39.3396 123.459 39.5382 123.352 39.7257C123.267 39.8925 123.108 40.0376 122.876 40.1609C122.665 40.2635 122.35 40.3126 121.931 40.3081L120.39 40.2918C120.264 40.2904 120.138 40.2996 120.012 40.3192C119.887 40.3179 119.771 40.3481 119.665 40.4099C119.56 40.4507 119.465 40.544 119.379 40.6899C119.315 40.815 119.282 41.0033 119.279 41.2549L119.138 54.5247L119.211 56.5697C119.229 56.8424 119.195 57.0622 119.109 57.229C119.024 57.3749 118.918 57.4891 118.791 57.5716C118.665 57.6541 118.528 57.7051 118.381 57.7245C118.234 57.7439 118.097 57.7529 117.972 57.7516C117.636 57.748 117.312 57.7236 116.998 57.6783C116.684 57.6331 116.369 57.6088 116.055 57.6054C115.824 57.603 115.604 57.6111 115.394 57.6298C115.184 57.6695 114.964 57.6882 114.733 57.6857C114.649 57.6848 114.555 57.6733 114.451 57.6513C114.367 57.6504 114.283 57.618 114.2 57.5543C114.138 57.4697 114.076 57.3538 114.015 57.2064C113.975 57.0382 113.956 56.8074 113.959 56.5139C113.961 56.3672 113.962 56.2519 113.963 56.168C113.985 56.0634 113.997 55.9587 113.998 55.8539C113.999 55.7491 114 55.6233 114.002 55.4765C114.024 55.33 114.037 55.131 114.04 54.8794L114.219 37.9619Z" fill="white"/>
<path d="M126.399 53.2426L126.833 42.8419C126.9 41.2709 126.925 40.0656 126.908 39.2262C126.892 38.3658 126.877 37.7886 126.865 37.4946L126.855 36.7707C126.825 36.3503 126.92 35.9756 127.14 35.6465C127.25 35.461 127.369 35.3387 127.497 35.2796C127.645 35.221 127.846 35.185 128.098 35.1715L129.043 35.1365C129.967 35.101 130.869 35.0753 131.751 35.0594C132.633 35.0226 133.46 35.0576 134.233 35.1643C135.006 35.2711 135.724 35.4601 136.387 35.7315C137.05 36.0028 137.625 36.4183 138.112 36.978C138.538 37.4521 138.858 37.9859 139.071 38.5794C139.305 39.1736 139.476 39.7765 139.584 40.3879C139.692 40.9993 139.748 41.5882 139.752 42.1547C139.777 42.7217 139.783 43.2148 139.771 43.6339C139.742 44.5978 139.655 45.4342 139.508 46.1429C139.361 46.8517 139.196 47.4655 139.013 47.9845C138.83 48.4824 138.629 48.896 138.41 49.2251C138.211 49.5548 138.036 49.8117 137.884 49.996C137.666 50.2832 137.395 50.5583 137.073 50.8214C136.75 51.0845 136.387 51.3255 135.982 51.5442C135.598 51.7426 135.174 51.8978 134.71 52.0099C134.266 52.1226 133.814 52.1617 133.353 52.1271L132.757 52.078C132.59 52.052 132.38 52.0563 132.127 52.0908C131.896 52.1259 131.715 52.1939 131.587 52.295C131.436 52.4164 131.337 52.5812 131.289 52.7895C131.241 52.9979 131.214 53.1858 131.209 53.3535C131.204 53.5421 131.196 53.804 131.186 54.1393C131.176 54.4746 131.182 54.9677 131.205 55.6185L131.235 56.7206C131.24 57.266 131.104 57.5976 130.828 57.7152C130.552 57.8329 130.288 57.888 130.037 57.8806C129.827 57.8744 129.618 57.8577 129.409 57.8305C129.222 57.7831 129.034 57.7565 128.845 57.7509C128.552 57.7422 128.268 57.7653 127.994 57.8201C127.719 57.8749 127.436 57.8875 127.143 57.8579C126.725 57.8245 126.477 57.6913 126.4 57.4583C126.324 57.2044 126.288 56.9726 126.295 56.7631L126.356 55.7581L126.399 53.2426ZM131.314 44.4847C131.289 45.3229 131.323 45.9741 131.414 46.4382C131.526 46.882 131.929 47.1141 132.62 47.1346C133.081 47.1482 133.419 47.0743 133.633 46.9129C133.848 46.7514 134.011 46.5675 134.122 46.361C134.299 46.0307 134.403 45.6982 134.434 45.3636C134.486 45.0295 134.517 44.6844 134.528 44.3281C134.56 43.2594 134.553 42.4307 134.507 41.8421C134.462 41.2535 134.318 40.7983 134.076 40.4765C133.773 40.0691 133.36 39.8576 132.836 39.8421C132.501 39.8322 132.237 39.8978 132.044 40.0389C131.872 40.1596 131.731 40.3128 131.621 40.4983C131.532 40.6844 131.473 40.8924 131.445 41.1223C131.418 41.3312 131.402 41.5195 131.397 41.6871L131.314 44.4847Z" fill="white"/>
<path d="M142.105 51.0028C142.132 50.8782 142.158 50.7745 142.183 50.6918C142.209 50.5881 142.235 50.4844 142.261 50.3807C142.287 50.277 142.315 50.1419 142.344 49.9754C142.394 49.81 142.447 49.5921 142.502 49.3219C142.671 48.4276 142.839 47.5647 143.005 46.7332C143.193 45.9027 143.38 45.0723 143.567 44.2418C143.775 43.4123 143.973 42.5719 144.162 41.7205C144.372 40.8491 144.584 39.9359 144.798 38.9808L144.959 38.2645C145.038 37.9325 145.106 37.6104 145.164 37.2984C145.221 36.9863 145.297 36.7171 145.392 36.4909C145.509 36.2447 145.644 36.0518 145.798 35.9124C145.972 35.7739 146.196 35.7113 146.468 35.7245L150.331 35.9122C150.52 35.9213 150.729 35.9419 150.958 35.9741C151.187 36.0062 151.381 36.131 151.538 36.3486C151.577 36.4134 151.615 36.4992 151.651 36.6059C151.688 36.7127 151.731 36.9141 151.779 37.2104C151.85 37.4866 151.925 37.8891 152.004 38.4177C152.084 38.9253 152.199 39.6025 152.346 40.4492L153.024 44.6381C153.105 45.1457 153.158 45.5681 153.183 45.9051C153.231 46.2223 153.274 46.6337 153.312 47.1393C153.372 47.6459 153.444 48.3211 153.529 49.1648C153.614 50.0085 153.756 51.1907 153.955 52.7116C154.017 53.1554 154.089 53.6207 154.17 54.1074C154.253 54.5732 154.335 55.0285 154.419 55.4733C154.503 55.8972 154.568 56.2991 154.612 56.6791C154.679 57.0391 154.706 57.3448 154.694 57.596C154.675 57.973 154.525 58.2595 154.242 58.4557C153.96 58.6519 153.61 58.7398 153.191 58.7195L150.489 58.5883C150.238 58.5761 150.022 58.4921 149.841 58.3364C149.68 58.1817 149.573 58.0086 149.519 57.8171C149.466 57.6255 149.433 57.4455 149.42 57.277C149.428 57.1095 149.428 56.8891 149.42 56.6159C149.411 56.3845 149.399 56.1845 149.387 56.016C149.395 55.8485 149.372 55.669 149.318 55.4775C149.228 55.1792 149.092 54.9522 148.91 54.7965C148.751 54.6209 148.462 54.5229 148.043 54.5025C147.855 54.4934 147.655 54.5047 147.443 54.5364C147.233 54.5471 147.031 54.5898 146.839 54.6644C146.668 54.7191 146.517 54.8062 146.385 54.9258C146.275 55.0463 146.215 55.2008 146.206 55.3893L146.184 56.4902C146.183 56.9309 146.135 57.2749 146.039 57.5221C145.964 57.7703 145.85 57.9537 145.697 58.0722C145.545 58.1908 145.373 58.2664 145.183 58.2991C145.014 58.3119 144.825 58.3132 144.616 58.3031L141.726 58.1627C141.433 58.1485 141.204 58.1059 141.04 58.035C140.897 57.9441 140.786 57.8547 140.706 57.7669C140.628 57.6581 140.591 57.5514 140.596 57.4467C140.58 57.341 140.574 57.2567 140.577 57.1939C140.589 56.9426 140.621 56.7238 140.672 56.5373C140.724 56.33 140.801 56.0399 140.903 55.667L142.105 51.0028ZM147.112 47.7512C147.086 47.8549 147.061 47.9376 147.037 47.9994C147.035 48.0413 147.033 48.0832 147.031 48.1251C147.029 48.167 147.015 48.2397 146.988 48.3434C146.984 48.4272 146.967 48.5732 146.936 48.7816L146.928 48.9387C146.944 49.0444 147.022 49.1636 147.163 49.2964C147.324 49.4302 147.635 49.5082 148.096 49.5306C148.368 49.5438 148.632 49.5147 148.887 49.4431C149.143 49.3506 149.271 49.1049 149.269 48.706L149.24 48.012L148.554 41.3985L148.301 41.4177L147.112 47.7512Z" fill="white"/>
<path d="M164.308 32.5622C164.496 32.5749 164.618 32.6357 164.674 32.7445C164.712 32.8101 164.737 32.8959 164.751 33.0019C164.765 33.1079 164.817 33.269 164.908 33.4852C164.962 33.6149 165.076 33.7908 165.25 34.0126C165.447 34.215 165.785 34.3324 166.267 34.3649C166.685 34.3932 167.004 34.3307 167.225 34.1775C167.445 34.0242 167.614 33.857 167.731 33.6758C167.847 33.5156 167.918 33.4048 167.943 33.3434C167.97 33.2612 168.007 33.1692 168.056 33.0674C168.105 32.9656 168.151 32.9057 168.194 32.8876C168.26 32.85 168.345 32.8348 168.45 32.8418L170.175 32.9583C170.259 32.964 170.341 32.9905 170.422 33.038C170.524 33.0869 170.589 33.2174 170.616 33.4294L170.597 33.7117C170.52 34.2318 170.375 34.6738 170.161 35.0376C169.968 35.4028 169.684 35.7198 169.309 35.9886C168.866 36.316 168.389 36.5359 167.877 36.6484C167.367 36.7401 166.777 36.7633 166.108 36.7181C165.564 36.6814 165.003 36.5909 164.424 36.4468C163.868 36.2832 163.365 35.955 162.915 35.4624C162.583 35.0828 162.357 34.6893 162.238 34.282C162.139 33.8761 162.081 33.494 162.063 33.1356L162.082 32.8532C162.109 32.7709 162.146 32.6789 162.195 32.5772C162.265 32.4768 162.394 32.433 162.582 32.4457L164.308 32.5622ZM171.528 58.2014C171.493 58.7244 171.445 59.1308 171.383 59.4208C171.323 59.6899 171.225 59.8935 171.09 60.0314C170.976 60.1498 170.814 60.2229 170.602 60.2506C170.391 60.2574 170.129 60.2502 169.815 60.2291L168.215 60.121C167.922 60.1012 167.683 60.0745 167.496 60.0409C167.309 60.0073 167.157 59.9235 167.04 59.7895C166.944 59.657 166.873 59.4631 166.827 59.2078C166.804 58.9331 166.807 58.5656 166.838 58.1054L167.429 49.3517L166.802 49.3093L163.67 57.8915C163.513 58.3432 163.374 58.691 163.252 58.935C163.152 59.1803 163.035 59.3615 162.901 59.4785C162.767 59.5956 162.604 59.6686 162.413 59.6978C162.223 59.706 161.972 59.6995 161.658 59.6783L159.116 59.5067C158.489 59.4643 158.106 59.2179 157.969 58.7673C157.853 58.2973 157.825 57.6334 157.882 56.7758L159.096 38.7977L159.111 38.1053C159.124 37.9171 159.146 37.7504 159.177 37.6054C159.209 37.4395 159.27 37.3071 159.361 37.2081C159.474 37.0897 159.627 37.0055 159.819 36.9554C160.033 36.9068 160.317 36.8945 160.673 36.9185L162.618 37.0498C162.932 37.071 163.17 37.1291 163.331 37.224C163.514 37.3204 163.641 37.4551 163.714 37.6281C163.788 37.7802 163.816 37.9817 163.799 38.2327C163.805 38.4642 163.797 38.7264 163.778 39.0192L163.184 47.8043L163.812 47.8467C164.924 45.0641 166.019 42.0807 167.095 38.8965L167.332 38.1876C167.413 37.9199 167.531 37.7282 167.686 37.6126C167.863 37.4775 168.161 37.4241 168.58 37.4523L171.435 37.6451C171.665 37.6606 171.873 37.6956 172.058 37.7502C172.243 37.8047 172.393 37.9199 172.507 38.0957C172.623 38.2506 172.702 38.487 172.743 38.805C172.786 39.1021 172.789 39.5226 172.753 40.0664L171.528 58.2014Z" fill="white"/>
<mask id="mask0_67_475" style="mask-type:luminance" maskUnits="userSpaceOnUse" x="0" y="19" width="30" height="27">
<path d="M29.8148 19.7964H0V45.6637H29.8148V19.7964Z" fill="white"/>
</mask>
<g mask="url(#mask0_67_475)">
<path d="M26.6592 39.528C26.2347 39.4857 25.7535 39.3165 25.4422 39.0485C24.2536 38.0612 23.1074 37.0175 21.9754 35.9737C19.7679 33.9427 17.5888 31.8976 15.3955 29.8525C14.6597 29.1755 13.8814 28.5549 13.1739 27.8497C11.8438 26.538 11.8862 25.4378 13.3154 24.1826C14.6738 22.9837 16.0606 21.813 17.5039 20.6988C19.1878 19.3871 19.8387 19.4858 21.1122 21.1078C21.6216 21.7566 22.1169 22.4054 22.5414 23.0965C24.1262 25.7481 25.6969 28.3997 27.2393 31.0654C28.06 32.4759 28.7817 33.9427 29.659 35.5929C30.5364 36.8905 28.0317 39.655 26.6733 39.5139M19.3576 22.5182C17.7586 23.5761 16.4285 24.7185 15.1125 26.143C16.2162 27.5676 17.7586 28.4138 18.9472 29.6127C20.2208 30.8962 21.4943 32.1797 22.7678 33.4632C23.9564 34.6902 25.1451 35.9173 26.4611 37.2854C27.0695 36.7495 27.5789 36.3122 28.1449 35.8045C25.3715 31.1924 22.6971 26.7072 19.3434 22.5182" fill="white"/>
<path d="M22.4851 43.604C21.1691 45.8748 20.9144 45.9736 18.3249 45.3248C16.4712 44.8593 14.6317 44.3657 12.778 43.9425C9.14134 43.1245 5.5047 42.377 1.86806 41.5448C0.184168 41.164 -0.268643 40.4165 0.141717 38.8086C0.580378 37.1443 1.10394 35.5082 1.6275 33.8721C2.60388 30.8538 3.77836 30.5999 6.19806 32.1513C9.48094 34.2529 12.8063 36.298 16.0892 38.4137C18.2966 39.8382 20.4475 41.3332 22.7681 42.8847C22.6125 43.2937 22.57 43.4771 22.471 43.6181M19.7399 42.4898C14.6175 39.6266 9.7498 36.3121 4.38682 33.6182C3.41045 35.4235 3.02839 37.243 2.63218 39.2458C3.26894 39.4856 3.82081 39.7677 4.40097 39.8946C7.57065 40.628 10.7545 41.305 13.9383 42.0526C15.608 42.4475 17.2636 42.927 18.9192 43.3784C19.3579 43.4912 19.7965 43.6604 20.1503 43.0681C20.0371 42.8847 19.938 42.5885 19.7541 42.4898" fill="white"/>
</g>
</svg>
