<svg width="519" height="229" viewBox="0 0 519 229" fill="none" xmlns="http://www.w3.org/2000/svg">
<path d="M439.898 54.0691C442.815 46.5376 440.583 43.263 425.52 36.9818C379.765 17.9596 331.659 6.05216 301.592 3.81951C285.428 2.212 258.904 -0.55649 232.499 0.0984213C212.078 0.0388838 155.964 1.49755 114.526 9.41603C72.9985 16.7094 50.1956 24.7469 32.9298 30.9388C13.729 37.6368 -4.69788 50.0205 1.07725 68.6557C3.72667 77.2887 14.0862 108.129 19.7125 118.637C25.5471 129.92 27.0951 151.8 67.1936 137.511C106.369 123.639 167.574 112.207 217.407 110.183C255.659 108.427 314.869 120.691 341.363 123.192C358.6 124.978 371.906 126.467 381.67 131.14C391.405 135.814 403.818 115.541 408.016 102.89C413.404 85.3262 436.951 61.6303 439.868 54.0988L439.898 54.0691Z" fill="#FFCE00"/>
<path d="M71.0039 199.46C88.359 209.432 107.768 194.935 135.989 189.398C147.271 187.135 177.457 179.485 196.062 177.044C224.908 172.549 283.344 175.466 309.451 179.038C323.949 179.872 349.073 189.189 354.164 174.037C359.254 158.885 366.28 129.116 368.512 120.751C370.745 112.386 367.887 103.991 324.723 96.8767C284.922 91.1909 242.918 87.6187 194.723 93.3045C157.69 96.6981 121.224 104.2 96.6645 111.791C52.9343 125.723 46.2065 136.41 50.4337 153.229C54.2143 168.53 62.6984 194.667 71.0039 199.43V199.46Z" fill="#C10230"/>
<path d="M84.6088 98.6324C85.5912 101.282 85.7103 103.604 78.2383 106.045C69.5161 108.873 61.6869 110.331 54.5127 105.926C46.8919 101.371 42.9624 91.9344 39.5986 81.5451C35.7286 69.6377 34.2997 60.201 38.5269 53.4732C42.9029 46.5074 51.9228 42.9947 58.3826 40.8811C61.5679 39.8392 64.902 38.9759 66.2713 43.5603L67.4025 47.46L68.7124 50.7048C70.1115 54.2175 67.5216 55.5571 66.0629 56.0334L63.6814 56.8073C62.6693 57.1348 61.6869 57.6409 60.9725 58.0874C55.0187 61.8085 57.1323 67.4645 59.9603 76.2463C63.0563 85.8318 64.8722 88.7194 66.5392 89.9697C67.8491 90.9223 70.171 91.8749 73.2074 90.7734L77.6727 89.1362C81.245 87.7668 81.8701 91.2497 82.793 93.7205L84.6386 98.6621L84.6088 98.6324Z" fill="#C10230"/>
<path d="M135.275 59.0402C136.674 65.2023 138.401 74.8474 136.913 80.5927C135.186 87.4693 128.637 94.1673 114.348 97.4418C108.9 98.6921 101.518 99.615 94.7302 95.0603C88.8063 91.1011 85.4722 83.9566 82.1381 69.4295C79.697 58.7723 78.1193 49.7524 80.8283 42.8758C84.6386 33.32 95.5638 29.7478 101.964 28.2891C108.364 26.8305 115.152 26.0565 121.641 29.7776C129.232 34.1238 131.316 41.6553 132.894 48.4723L135.305 59.0402H135.275ZM104.852 73.6269C105.774 77.6754 106.4 79.8485 108.096 80.8011C109.376 81.5751 110.954 81.5156 111.996 81.2774C114.199 80.7714 115.598 79.8783 116.372 77.9433C117.384 75.3832 116.64 72.7636 115.003 65.5L111.46 49.9905C110.567 46.0313 107.977 43.3521 104.256 44.1856C102.857 44.5131 101.22 45.3466 100.476 46.8946C99.2253 49.3951 100.267 53.4139 100.684 55.3489L104.852 73.6269Z" fill="#C10230"/>
<path d="M152.332 20.073C154.922 19.7158 156.946 19.4479 157.512 23.7346L157.601 24.3895L159.596 42.6675L161.382 42.4293L165.252 21.1745C165.579 19.2395 166.294 18.1976 169.479 17.7511L181.774 16.084C183.679 15.8459 185.108 15.9054 185.316 17.4236C185.495 18.6441 184.84 20.1623 184.483 21.0554L176.385 43.0545C176.147 43.8582 175.879 44.6322 175.879 45.5848C179.184 52.253 181.714 56.7778 184.066 60.8264L190.198 71.4836C192.074 74.7581 194.812 78.9258 195.08 80.8012C195.199 81.6347 194.872 82.7362 191.538 83.1827C189.662 83.4506 187.846 83.4804 185.971 83.7483C184.542 83.9269 183.054 84.3437 181.625 84.5223C175.969 85.2963 175.582 85.1474 173.498 80.5035L163.525 58.3853L161.977 58.5937L165.073 81.4561C165.758 86.5763 163.883 86.9335 160.459 87.4098L154.922 88.1541C147.361 89.1662 147.42 87.9457 146.766 82.885L140.544 35.91C140.365 34.6002 140.068 33.3201 139.889 32.0103C139.8 31.2661 139.681 30.4325 139.562 29.6883L139.055 25.8482C138.639 22.8713 139.353 21.8294 145.366 20.9959L152.332 20.0433V20.073Z" fill="#C10230"/>
<path d="M196.747 70.9476L195.825 43.8878C195.527 35.7014 194.902 31.5636 194.723 30.0156L194.515 28.1402C194.366 27.0983 194.515 26.1754 195.199 25.1633C195.884 24.1512 196.569 23.8535 198.236 23.7046L201.332 23.3772C213.507 22.1269 224.522 20.6682 231.517 25.967C237.441 30.4919 238.245 38.4104 238.483 42.8161C238.989 52.878 235.596 57.6112 233.72 59.7545C231.071 62.8505 225.534 66.3036 219.342 66.3632H217.377C216.246 66.3632 214.37 66.6013 213.596 67.2265C212.703 67.9409 212.555 69.2507 212.584 70.0545C212.644 71.0369 212.703 72.5848 213.09 75.9189L213.448 78.7767C213.775 81.5452 211.423 81.9917 209.786 82.0811C208.446 82.1406 207.077 81.962 205.857 82.0215C203.981 82.1108 202.165 82.7062 200.29 82.7062C197.492 82.7657 197.313 81.1285 197.253 80.0865V77.4669L196.807 70.9476H196.747ZM210.917 47.0433C211.126 51.3598 211.245 53.8306 215.799 53.5924C218.806 53.4436 219.997 52.3124 220.562 51.2109C221.515 49.4546 221.515 47.6387 221.426 45.8525C221.158 40.2858 220.8 37.5471 219.074 35.9693C217.883 34.8679 216.424 34.5404 214.847 34.6297C210.501 34.8381 210.441 38.0531 210.53 39.75L210.888 47.0135L210.917 47.0433Z" fill="#C10230"/>
<path d="M243.961 62.0171C244.318 60.7073 244.526 60.4691 245.151 57.6411C247.146 48.2937 249.498 40.6134 252.028 30.7302L252.504 28.8547C253.368 25.3718 253.784 22.0973 257.297 22.2461L270.008 22.7224C271.258 22.7819 273.015 22.7224 273.997 23.8536C274.593 24.449 274.861 25.61 276.915 34.5108L279.415 45.4061C280.665 50.705 280.07 50.4966 282.987 66.4229C283.851 71.1263 285.815 76.6037 285.726 79.1341C285.667 81.0988 283.553 82.1705 280.844 82.0514L271.943 81.724C270.276 81.6644 269.085 80.7118 268.698 79.7295C268.311 78.7471 268.341 78.0029 268.282 76.6037C268.222 75.3832 268.252 74.639 267.865 73.6269C267.299 72.1384 266.406 71.1858 263.608 71.0965C261.137 71.0072 257.595 71.4538 257.624 73.4185V76.2763C257.654 80.7714 255.273 81.0988 252.594 81.0095L243.068 80.6523C239.227 80.5034 239.198 78.8662 239.227 78.1517C239.287 76.8419 239.614 76.1274 240.21 74.1925L243.871 62.0469L243.961 62.0171ZM260.214 53.533C259.976 54.6642 259.976 54.0986 259.708 56.2122C259.708 56.3908 259.708 56.4503 259.708 56.629C259.798 57.135 260.601 58.0578 263.578 58.1769C265.454 58.2365 267.508 58.0876 267.389 56.0336L267.24 54.2177L264.561 37.0114L263.727 37.0709L260.214 53.5628V53.533Z" fill="#C10230"/>
<path d="M312.518 76.8418L312.161 82.2299C311.953 85.5045 309.363 85.3556 308.053 85.177L305.582 84.8793L299.093 84.2542C297.872 84.1053 294.27 83.6588 294.865 80.4438L295.61 76.1571L298.199 55.1404C298.825 50.1988 299.42 45.2274 300.134 40.3751C300.134 40.2262 300.164 40.0476 300.194 39.8988C300.283 39.2439 300.045 38.5592 297.277 38.2317L294.389 37.8745C289.567 37.2791 289.954 34.9274 290.4 31.2063C290.519 30.224 290.638 29.2714 290.787 28.1997C290.966 26.6517 291.531 23.8535 296.145 24.4191L300.462 24.9549L311.327 26.5326L318.829 27.3959C322.223 27.8127 326.926 27.8127 328.117 29.0332C328.683 29.5988 328.742 30.6705 328.534 32.4566L328.028 36.5945C327.432 41.3872 325.527 41.7147 323.771 41.5063L320.377 41.0895C317.698 40.7621 316.835 41.0895 316.656 42.6077L312.518 76.8715V76.8418Z" fill="#C10230"/>
<path d="M368.483 92.2919C367.114 97.5014 366.191 97.4419 362.083 96.3702L356.963 95.0306C353.361 94.078 352.2 93.6315 353.42 88.9578L359.166 66.8694L357.171 66.3633L343.299 86.3382C340.411 90.476 340.143 90.6844 336.035 89.6127L327.908 87.4991C323.89 86.4572 324.009 83.9567 325.14 79.67L336.958 34.3025L337.315 32.5461C337.702 30.6111 338.357 29.3609 342.882 30.5218L349.104 32.1293C353.212 33.201 352.765 34.9276 351.991 37.964L346.216 60.1417L348.211 60.6775C353.123 54.1879 357.886 47.3114 362.738 39.8394L363.81 38.1724C364.554 36.9221 365.447 36.3863 368.156 37.1007L377.265 39.4822C380.272 40.2562 381.879 41.0897 380.45 46.5672L368.543 92.3217L368.483 92.2919Z" fill="#C10230"/>
<path d="M114.288 169.244C115.538 173.263 114.883 173.62 111.698 174.573L107.738 175.793C104.94 176.657 103.988 176.805 102.886 173.203L97.6468 156.146L96.0988 156.622L95.0569 175.615C94.8188 179.574 94.7295 179.782 91.574 180.765L85.2928 182.7C82.1968 183.652 81.2442 181.926 80.2321 178.621L69.4558 143.583L68.9498 142.274C68.4139 140.845 68.3246 139.714 71.8076 138.642L76.6003 137.153C79.7856 136.171 80.2023 137.511 80.9168 139.862L86.1858 156.979L87.7338 156.503C88.3292 150.162 88.6864 143.613 88.8353 136.677V135.129C88.8353 133.998 89.2223 133.283 91.3358 132.629L98.391 130.455C100.713 129.741 102.112 129.652 103.422 133.849L114.288 169.185V169.244Z" fill="white"/>
<path d="M137.18 121.346C139.383 120.84 140.96 120.781 141.437 123.014C141.586 123.639 141.645 124.294 141.794 125.306C142.27 127.896 142.479 128.699 142.568 129.205L148.045 153.735C149.266 159.242 149.445 158.944 150.129 161.981C150.814 165.047 148.998 165.91 147.182 166.297L141.586 167.548C140.157 167.875 137.894 168.113 137.15 164.749L131.792 140.637C131.524 139.386 131.613 139.029 131.434 137.511C131.315 136.171 131.375 135.427 131.167 134.415C130.72 132.48 129.261 132.599 128.309 132.807C124.588 133.641 124.945 135.576 125.391 137.511L131.732 166C132.119 167.696 133.161 169.423 127.535 170.673L124.439 171.358C122.236 171.864 119.676 172.757 119.051 169.869C118.991 169.572 118.991 169.215 118.932 168.917C118.783 167.518 118.396 166.148 118.098 164.779L110.596 131.111C110.001 128.431 109.703 127.449 114.526 126.377L137.21 121.317L137.18 121.346Z" fill="white"/>
<path d="M187.817 138.166C188.442 142.423 189.067 149.031 187.727 152.842C186.179 157.396 181.387 161.594 171.533 163.023C167.752 163.559 162.722 163.767 158.375 160.344C154.595 157.337 152.719 152.306 151.261 142.304C150.189 134.951 149.623 128.759 151.826 124.234C154.922 117.953 162.513 116.167 166.919 115.512C171.325 114.857 175.969 114.708 180.136 117.596C185.048 120.96 186.03 126.169 186.715 130.873L187.757 138.166H187.817ZM166.443 146.382C166.859 149.18 167.157 150.669 168.229 151.413C169.062 152.008 170.134 152.038 170.848 151.949C172.367 151.74 173.349 151.205 174.004 149.954C174.837 148.287 174.48 146.471 173.766 141.47L172.218 130.783C171.831 128.045 170.223 126.08 167.663 126.467C166.711 126.616 165.55 127.092 164.954 128.074C163.972 129.712 164.448 132.48 164.627 133.82L166.443 146.412V146.382Z" fill="white"/>
<path d="M213.507 150.907L214.043 155.104C214.4 157.634 212.376 157.932 211.334 157.992L209.399 158.141L204.309 158.647C203.326 158.706 200.528 158.915 200.498 156.354L200.409 152.961L199.188 136.439C198.891 132.539 198.623 128.67 198.414 124.829C198.414 124.71 198.414 124.561 198.414 124.442C198.385 123.936 198.087 123.43 195.914 123.609L193.651 123.787C189.841 124.055 189.811 122.21 189.573 119.263C189.513 118.489 189.454 117.744 189.394 116.911C189.305 115.69 189.305 113.458 192.937 113.19L196.331 112.952L204.904 112.505L210.798 111.999C213.477 111.791 217.05 111.106 218.181 111.85C218.687 112.207 218.925 113.011 219.014 114.41L219.252 117.655C219.52 121.406 218.121 121.972 216.722 122.061L214.073 122.269C211.959 122.418 211.364 122.775 211.453 123.996L213.507 150.907Z" fill="white"/>
<path d="M224.402 115.839C224.402 114.232 223.896 112.654 225.414 111.671C226.069 111.284 227.2 111.076 230.355 111.046L245.895 110.927C249.288 110.927 250.122 111.671 250.211 114.232C250.211 114.559 250.211 114.857 250.211 115.184C250.211 115.899 250.3 116.524 250.3 117.238C250.3 117.357 250.3 117.447 250.3 117.566V118.131C250.241 121.197 248.395 121.287 246.371 121.287H239.643C238.512 121.287 237.291 121.346 237.321 123.847V125.901C237.351 127.568 238.81 127.925 240.179 127.866L245.686 127.627C248.752 127.479 249.913 127.925 249.943 131.884V133.73C249.943 135.278 249.765 138.136 246.669 138.047L241.906 137.898C237.291 137.749 237.708 138.374 237.708 140.041V143.822C237.768 145.935 237.917 146.173 240.447 146.173L247.562 146.054C250.062 146.054 251.134 146.144 251.164 150.877V153.229C251.223 157.009 248.455 156.95 246.907 156.979C243.424 156.979 240.03 156.771 236.607 156.801C233.689 156.801 230.772 157.099 227.765 157.128C224.699 157.128 223.955 155.551 224.015 154.479L224.223 151.413C224.283 150.073 224.61 150.907 224.58 146.858L224.342 115.839H224.402Z" fill="white"/>
<path d="M266.644 111.671C268.43 111.791 269.8 111.88 269.591 114.827V115.273L268.4 127.687L269.621 127.776L275.098 114.172C275.604 112.922 276.2 112.326 278.373 112.475L286.768 113.041C288.078 113.13 289.03 113.398 288.941 114.41C288.881 115.244 288.256 116.167 287.899 116.702L279.504 130.247C279.236 130.753 278.939 131.229 278.819 131.855C280.129 136.737 281.171 140.101 282.213 143.107L284.833 151.055C285.636 153.496 286.887 156.652 286.797 157.932C286.768 158.498 286.381 159.182 284.118 159.033C282.838 158.944 281.618 158.736 280.338 158.646C279.355 158.587 278.313 158.646 277.331 158.557C273.461 158.289 273.223 158.17 272.479 154.777L268.847 138.701L267.805 138.642L266.763 154.27C266.525 157.783 265.215 157.753 262.893 157.605L259.083 157.337C253.903 156.979 254.141 156.176 254.35 152.722L256.612 120.632C256.671 119.739 256.642 118.846 256.701 117.953C256.731 117.447 256.791 116.851 256.82 116.345L256.999 113.725C257.148 111.671 257.743 111.076 261.881 111.374L266.644 111.701V111.671Z" fill="white"/>
<path d="M325.735 118.727C329.664 119.352 329.01 120.215 328.474 121.614L323.741 134.445C320.674 142.839 317.578 149.388 315.167 154.777C314.125 157.128 313.143 159.182 310.285 160.671C306.981 162.397 302.813 162.278 299.211 161.683C296.978 161.326 293.168 160.522 291.471 159.748C289.804 158.974 289.655 158.23 289.864 156.89L290.757 150.817C290.846 150.192 290.906 149.418 291.531 149.001C291.888 148.734 292.483 148.704 292.96 148.763C293.287 148.823 293.734 149.001 294.061 149.121C294.448 149.299 294.805 149.567 295.46 149.656C296.353 149.805 297.157 149.805 297.693 149.508C297.961 149.359 298.348 149.031 298.437 148.406C298.556 147.662 298.288 146.828 297.961 145.221C297.752 144.417 297.455 143.197 297.306 142.214L292.841 118.131C292.751 117.655 292.573 117.238 292.483 116.792C292.424 116.196 292.483 115.631 292.602 115.006C292.692 114.38 292.751 113.487 296.204 114.023L304.927 115.422C306.594 115.69 307.278 116.047 307.517 116.732C308.201 118.578 308.32 131.17 307.517 141.649L309.184 141.916C310.404 137.332 312.28 129.711 313.262 125.544C314.066 122.031 314.274 121.704 314.84 119.769C315.018 119.084 315.227 118.34 316.03 117.893C317.013 117.328 318.144 117.506 318.948 117.655L325.735 118.727Z" fill="white"/>
<path d="M338.834 167.011C338.595 167.994 338.298 168.917 335.47 168.232L328.474 166.565C327.224 166.267 325.825 165.791 326.331 163.677L327.968 156.771C328.266 155.58 328.593 154.866 331.332 155.55L338.328 157.217C339.816 157.575 340.977 157.991 340.471 160.105L338.834 167.011ZM333.386 153.169C330.409 152.454 330.915 151.651 331.183 150.192L335.499 122.358C335.708 121.168 336.422 120.602 339.191 121.257L346.603 123.013C349.669 123.757 349.937 124.412 349.074 126.913L340.649 152.454C340.024 154.36 339.697 154.657 337.434 154.121L333.416 153.169H333.386Z" fill="white"/>
<path d="M514.796 60.0227L490.773 17.9298C486.665 10.7258 478.419 7.06421 470.351 8.85033L423.019 19.2098C419.387 20.0136 412.66 22.0676 408.522 27.0092C405.991 30.0456 404.414 33.7072 403.282 36.3864L402.776 37.5176C401.883 39.4526 352.973 149.448 347.407 161.981C344.102 169.423 344.4 177.222 348.27 183.92C351.187 189.011 356.069 193.178 362.231 195.917L427.931 225.924C430.015 226.847 434.242 228.335 439.213 227.978C445.971 227.472 454.127 223.542 460.111 210.057L515.391 85.8024C517.267 81.5753 519.202 76.6932 518.726 71.3944C518.428 66.8993 516.463 62.9698 514.796 60.0227Z" fill="#C10230"/>
<path d="M504.705 72.5257C504.705 70.68 503.186 68.0604 502.591 66.9887L478.568 24.8957C477.526 23.0798 475.442 22.157 473.388 22.6036L426.056 32.9631C425.817 33.0226 420.906 34.1836 419.358 36.0292C417.81 37.8749 416.5 41.4471 415.637 43.3523C414.773 45.2575 360.326 167.696 360.326 167.696C357.201 174.722 361.368 180.11 368.126 183.116L433.706 213.064C440.464 216.07 444.185 211.367 447.31 204.341L502.591 80.0869C504.05 76.8124 504.973 74.1927 504.734 72.5554L504.705 72.5257Z" fill="#FFCE00"/>
<path d="M433.892 54.4784L429.488 64.379C429.033 65.4005 429.493 66.5969 430.515 67.0512L439.463 71.0316C440.485 71.486 441.681 71.0263 442.136 70.0048L446.539 60.1043C446.994 59.0828 446.534 57.8864 445.513 57.432L436.564 53.4516C435.543 52.9972 434.346 53.457 433.892 54.4784Z" fill="#C10230"/>
<path d="M468.098 69.2379L463.113 78.8589C462.598 79.8516 462.986 81.0732 463.979 81.5875L472.675 86.0931C473.667 86.6075 474.889 86.2197 475.403 85.2271L480.388 75.606C480.903 74.6134 480.515 73.3917 479.522 72.8774L470.826 68.3718C469.834 67.8574 468.612 68.2452 468.098 69.2379Z" fill="#C10230"/>
<path d="M453.125 102.877L448.14 112.498C447.625 113.49 448.013 114.712 449.006 115.226L457.702 119.732C458.694 120.246 459.916 119.858 460.43 118.866L465.415 109.245C465.93 108.252 465.542 107.03 464.549 106.516L455.853 102.01C454.861 101.496 453.639 101.884 453.125 102.877Z" fill="#C10230"/>
<path d="M406.21 121.552L401.225 131.173C400.711 132.166 401.098 133.387 402.091 133.901L410.787 138.407C411.78 138.921 413.001 138.534 413.515 137.541L418.5 127.92C419.015 126.927 418.627 125.706 417.634 125.191L408.938 120.686C407.946 120.171 406.724 120.559 406.21 121.552Z" fill="#C10230"/>
<path d="M390.713 155.225L386.676 165.281C386.26 166.319 386.763 167.497 387.801 167.914L396.89 171.562C397.927 171.978 399.106 171.475 399.523 170.437L403.559 160.381C403.975 159.344 403.472 158.165 402.434 157.749L393.345 154.101C392.308 153.684 391.129 154.188 390.713 155.225Z" fill="#C10230"/>
<path d="M420.312 88.7157L415.908 98.6163C415.453 99.6378 415.913 100.834 416.935 101.289L425.883 105.269C426.905 105.723 428.101 105.264 428.555 104.242L432.959 94.3416C433.414 93.3201 432.954 92.1237 431.932 91.6693L422.984 87.6889C421.962 87.2345 420.766 87.6943 420.312 88.7157Z" fill="#C10230"/>
<path d="M438.396 136.731L433.992 146.631C433.538 147.653 433.997 148.849 435.019 149.304L443.967 153.284C444.989 153.738 446.185 153.279 446.64 152.257L451.043 142.357C451.498 141.335 451.038 140.139 450.017 139.684L441.068 135.704C440.047 135.25 438.85 135.709 438.396 136.731Z" fill="#C10230"/>
<path d="M424.252 169.726L419.09 179.253C418.557 180.236 418.922 181.464 419.905 181.997L428.517 186.663C429.5 187.195 430.728 186.83 431.261 185.847L436.423 176.32C436.955 175.337 436.59 174.109 435.607 173.576L426.996 168.91C426.013 168.378 424.785 168.743 424.252 169.726Z" fill="#C10230"/>
</svg>
