<svg width="184" height="7" viewBox="0 0 184 7" fill="none" xmlns="http://www.w3.org/2000/svg">
<path d="M73.2194 0.00159822C106.834 0.277053 140.344 1.86767 173.764 4.36293C176.793 4.60454 179.803 4.86094 182.83 5.15394C182.999 5.17043 183.154 5.23367 183.26 5.33168C183.366 5.42974 183.415 5.55395 183.395 5.67738C183.375 5.80073 183.288 5.91332 183.154 5.99086C183.02 6.06841 182.848 6.10497 182.678 6.09242C179.654 5.87017 176.644 5.68151 173.614 5.5055C140.196 3.73179 106.634 2.57885 73.2194 2.45863C64.1665 2.48043 55.1142 2.66329 46.0692 2.9889C33.9495 3.44177 21.8262 3.92739 9.75574 4.83656C6.76941 5.07277 3.72897 5.33799 0.790414 5.74379C0.624733 5.76713 0.45061 5.74628 0.30602 5.68129C0.161433 5.61631 0.0580655 5.51302 0.0180748 5.39418C-0.0218619 5.27537 0.00506569 5.14959 0.0920794 5.04359C0.179065 4.9376 0.319198 4.86056 0.48094 4.82582C3.43157 4.20212 6.46554 3.74679 9.453 3.34047C21.5224 1.75276 33.7008 0.92811 45.8969 0.472301C54.9982 0.14468 64.1054 -0.0181044 73.2194 0.00159822Z" fill="#FFCD03"/>
</svg>
