<svg width="113" height="93" viewBox="0 0 113 93" fill="none" xmlns="http://www.w3.org/2000/svg">
<path d="M70.8452 2.35659C80.285 -1.34401 91.8565 -0.264841 101.231 6.93917C109.882 13.5874 113.227 24.5243 112.004 34.6764C110.781 44.8294 104.947 54.5219 94.8481 58.5709C85.5966 62.28 72.5334 62.8426 62.9674 55.5784C62.2419 55.0274 62.1002 53.9925 62.6511 53.2668C63.2022 52.5411 64.2379 52.3993 64.9637 52.9504C73.3081 59.2868 85.0452 58.9459 93.6204 55.508C102.356 52.0057 107.615 43.525 108.728 34.2819C109.841 25.0376 106.764 15.3534 99.2198 9.5556C90.7896 3.07715 80.4432 2.13804 72.0495 5.42856C63.6782 8.71035 57.2571 16.1866 56.5672 26.6727C56.2436 31.5924 57.563 35.9556 59.3717 39.3797C61.196 42.8334 63.4602 45.2237 64.8699 46.2147C65.6154 46.7388 65.7942 47.7683 65.2702 48.5138C64.7461 49.259 63.7174 49.4388 62.972 48.915C61.0557 47.5678 58.4722 44.7407 56.4542 40.9205C54.4207 37.0707 52.9026 32.1024 53.274 26.4562C54.0547 14.5899 61.3833 6.06592 70.8452 2.35659Z" fill="white"/>
<path d="M104.316 30.7163C104.316 42.6996 94.6019 52.414 82.6185 52.414C70.6352 52.414 60.9208 42.6996 60.9208 30.7163C60.9208 18.733 70.6352 9.01855 82.6185 9.01855C94.6019 9.01855 104.316 18.733 104.316 30.7163Z" fill="#C10F2F"/>
<path d="M14.2688 65.5134C16.6389 65.7977 19.0159 65.556 21.3651 65.1489C26.9097 64.1618 32.0463 62.1343 36.6714 58.9C37.4928 58.3363 38.2327 57.6743 38.9725 57.0122C39.4152 56.5955 39.7091 56.0271 39.5138 55.4167C39.2678 54.6481 38.5772 54.4466 37.8536 54.4551C37.1528 54.4563 36.4592 54.4802 35.78 54.5492C31.3499 55.0278 26.8837 55.3934 22.4888 56.0602C19.4532 56.5138 16.4808 57.3211 13.5021 58.0306C12.2244 58.3422 11.1304 58.9936 10.1388 59.8863C8.53638 61.3746 8.71886 63.5101 10.9851 64.8002C11.7965 64.9878 13.0425 65.3596 14.3142 65.4988L14.2688 65.5134ZM16.0886 60.1652C18.7948 59.5433 21.5072 59.0192 24.2414 58.5629C27.8663 57.9944 31.4974 57.5236 35.1285 57.0528C35.3928 57.0176 35.6705 57.1028 35.9492 57.1128C35.8481 57.3448 35.8523 57.5928 35.7233 57.6592C29.8607 61.0177 23.6383 63.0956 16.8175 63.147C15.5437 63.1581 14.273 62.9439 13.0095 62.7522C12.9868 62.7595 12.9568 62.7442 12.9269 62.7289C12.3416 62.5433 12.2918 61.7615 12.7861 61.4278C13.8201 60.7459 14.9698 60.4256 16.0886 60.1652Z" fill="white"/>
<path d="M51.7459 61.3573C49.9561 63.2079 48.1291 65.0205 46.3466 66.8937C43.0418 70.3563 40.1555 74.1088 38.2035 78.5094C37.5428 79.9712 37.0774 81.4949 37.2144 83.0993C37.3784 84.9449 38.7911 85.9134 40.5473 85.4475C41.1 85.2944 41.6692 85.0362 42.1712 84.7245C42.8405 84.3091 43.4954 83.8483 44.0685 83.2889C50.1352 77.4877 53.047 70.1302 54.512 62.0898C54.7089 60.9023 53.3396 60.0696 52.3645 60.7834C52.1817 60.9172 52.0134 61.0963 51.7532 61.38L51.7459 61.3573ZM52.072 65.7484C50.3674 71.3931 47.8164 76.5862 43.581 80.8233C42.8239 81.5918 41.9181 82.2083 41.005 82.8022C40.9823 82.8096 40.9595 82.8169 40.9368 82.8242C40.4585 83.0532 39.9057 82.6569 39.9581 82.1154C40.0536 80.6109 40.3829 79.6806 41.2481 78.153C42.8236 75.3973 44.6234 72.7942 46.7519 70.4349C48.3217 68.6802 49.9886 66.9941 51.8021 65.061C52.0213 65.5899 52.0958 65.6658 52.0875 65.7184L52.072 65.7484Z" fill="white"/>
<path d="M38.6003 38.381C36.1613 36.8687 33.7606 35.3191 31.2597 33.9267C28.5117 32.3891 25.6945 30.9486 22.9001 29.5009C21.3944 28.7121 19.7401 28.3209 18.0508 28.2906C15.4491 28.2296 14.0985 30.5132 15.3506 32.7826C15.5347 33.1229 15.7714 33.4713 16.0774 33.7224C17.4355 34.8336 18.7388 36.0873 20.2735 36.9667C23.7242 38.9774 27.5341 40.073 31.44 40.763C33.675 41.1669 35.943 41.3605 38.211 41.554C38.4673 41.5713 38.7235 41.5886 38.9725 41.5834C40.293 41.5576 40.8059 39.8686 39.7372 39.1139C39.3786 38.8547 38.9889 38.6555 38.6076 38.4036L38.6003 38.381ZM34.6983 39.6632C30.28 38.9385 26.0123 37.6657 22.0883 35.5078C20.875 34.8495 19.7547 34.0115 18.7026 33.1514C18.6282 33.0755 18.5382 33.0295 18.4638 32.9536C17.5687 32.1928 18.433 30.7403 19.5439 31.1568C21.3978 31.8584 23.2981 32.4702 25.0436 33.3816C28.3619 35.1351 31.5873 37.0685 34.8437 38.9419C34.9109 38.9952 34.9782 39.0484 35.0453 39.1017C35.2459 39.3369 35.0445 39.7265 34.7283 39.6785L34.6983 39.6632Z" fill="white"/>
</svg>
