<svg width="96" height="87" viewBox="0 0 96 87" fill="none" xmlns="http://www.w3.org/2000/svg">
<path d="M59.769 48.1435C59.769 60.1068 50.0708 69.805 38.1075 69.805C26.1441 69.805 16.4459 60.1068 16.4459 48.1435C16.4459 36.1801 26.1441 26.4819 38.1075 26.4819C50.0708 26.4819 59.769 36.1801 59.769 48.1435Z" fill="#C10F2F"/>
<path d="M53.2216 21.3768C74.1343 31.1763 74.1167 60.5365 54.4704 73.0028C45.4121 78.7505 33.8827 78.7182 24.6455 74.1965C15.3626 69.6523 8.28156 60.5159 8.28147 48.0197C8.28147 37.8154 14.7177 26.5676 24.4804 20.2947C25.247 19.8023 26.2677 20.0247 26.7603 20.7912C27.2528 21.5579 27.0303 22.5785 26.2637 23.0711C17.333 28.8096 11.5821 39.067 11.5821 48.02C11.5822 59.1137 17.8111 67.1766 26.0959 71.2323C34.4268 75.3105 44.7246 75.2785 52.7022 70.2165C70.5124 58.9153 69.9957 32.8812 51.8208 24.3649C47.5458 22.3618 43.1739 22.0764 39.4565 22.5738C35.7068 23.0754 32.7465 24.356 31.3469 25.3289C30.5986 25.8489 29.5703 25.664 29.0502 24.9157C28.5302 24.1675 28.7152 23.1391 29.4633 22.619C31.3667 21.2961 34.8459 19.8607 39.0189 19.3024C43.224 18.7398 48.2585 19.0512 53.2216 21.3768Z" fill="white"/>
<path d="M88.3031 0.0927149C85.6238 -0.0505716 82.5061 0.188943 79.6625 1.36345C72.8476 4.17825 69.7459 8.66152 68.5567 10.2747C67.7257 11.402 66.0422 13.0321 65.2735 13.7269C64.767 14.1848 64.6335 14.9271 64.9488 15.5327C65.2644 16.1383 65.9493 16.4544 66.6148 16.3016C70.6429 15.3763 75.6069 13.5613 83.1924 10.3807C90.9216 7.13972 92.3992 5.65457 95.0801 3.9216C95.5636 3.60891 95.8252 3.04728 95.7537 2.47596C95.6821 1.90446 95.2899 1.4237 94.744 1.24005C93.3457 0.769691 90.9869 0.236284 88.3031 0.0927149ZM80.8077 4.13663C83.0955 3.19171 85.7239 2.9596 88.1422 3.08889C89.0009 3.13482 89.8189 3.22633 90.5676 3.34134C88.8832 4.43206 86.659 5.6745 82.0326 7.61441C77.52 9.50657 74.0065 10.8816 71.1097 11.8682C72.3143 10.2244 75.0257 6.52483 80.8077 4.13663Z" fill="white"/>
</svg>
