<svg width="221" height="172" viewBox="0 0 221 172" fill="none" xmlns="http://www.w3.org/2000/svg">
<g clip-path="url(#clip0_67_269)">
<path d="M16.0606 91.3098C16.8721 83.0705 30.3096 83.2462 29.4856 91.5517C28.5255 101.295 27.5653 111.039 26.5831 120.778C54.1832 123.691 81.8722 125.295 109.636 125.541C109.347 124.777 109.246 123.866 109.346 122.856C111.042 106.117 112.733 89.3995 114.406 72.656C115.791 58.991 116.686 45.1412 124.34 33.1482C128.864 26.072 140.377 32.7658 135.822 39.882C135.631 40.1658 135.484 40.4581 135.31 40.7682C135.906 41.7276 136.177 42.9456 135.936 44.455C131.43 73.6963 126.924 102.938 122.395 132.175C121.843 135.683 119.587 138.525 115.564 138.515C83.3285 138.448 51.1863 136.57 19.1768 132.909C15.7976 132.519 12.1875 130.094 12.5613 126.323C13.7277 114.652 14.8764 102.955 16.0428 91.2835L16.0606 91.3098Z" fill="#F6C359"/>
<path d="M22.109 22.7951C23.1126 22.2082 27.6164 28.2331 28.1295 28.9024C30.0129 31.3874 31.2613 33.8432 32.3807 36.6175C32.629 37.2365 33.474 37.1227 33.8228 36.7315C34.8261 35.6644 33.7018 33.7582 33.1454 32.7147C32.0369 30.6057 30.6298 28.623 29.1093 26.7559C28.0389 25.4089 23.9211 20.1206 21.7705 22.4105C21.6003 22.584 21.881 22.9118 22.1132 22.773L22.109 22.7951Z" fill="white"/>
<path d="M132.025 30.6296C129.592 29.2295 126.064 33.1102 124.189 34.6749C122.208 36.311 117.6 40.581 118.303 43.985C118.459 44.7238 119.313 45.0462 119.703 44.3198C120.417 42.9689 120.778 41.5509 121.66 40.2778C122.638 38.8628 123.772 37.5917 124.986 36.496C125.921 35.6675 126.852 34.861 127.77 34.0061C128.927 32.9683 130.396 31.2577 131.924 31.1594C132.202 31.1436 132.277 30.7462 132.029 30.6076L132.025 30.6296Z" fill="white"/>
<path d="M26.9179 120.223C25.7678 119.296 23.8577 120.923 22.8468 121.668C21.3811 122.762 20.217 124.073 19.0456 125.543C17.6085 127.328 14.3136 130.224 14.7497 132.982C14.8951 133.902 16.1396 134.093 16.3946 133.112C17.0442 130.537 19.1456 128.626 20.6783 126.699C21.8801 125.189 23.1157 123.983 24.6214 122.92C25.5187 122.29 26.8366 121.855 27.04 120.544C27.061 120.434 26.9936 120.307 26.9137 120.246L26.9179 120.223Z" fill="white"/>
<path d="M109.626 126.454C107.592 127.645 111.869 130.174 112.524 130.938C113.937 132.648 115.608 134.086 116.999 135.791C118.404 137.545 119.12 139.671 120.451 141.456C121.053 142.257 122.377 141.548 122.183 140.642C121.586 137.647 119.099 134.613 116.902 132.571C115.537 131.328 114.49 129.62 112.955 128.55C112.17 127.989 110.231 127.598 109.962 126.609C109.921 126.464 109.761 126.342 109.608 126.427L109.626 126.454Z" fill="white"/>
<path d="M115.361 101.815C116.616 97.1359 116.851 92.1718 117.308 87.3643C117.813 82.1772 118.182 76.9871 118.6 71.7833C119.009 66.6236 119.418 61.4639 119.845 56.3305C120.21 51.6428 121.184 46.6364 120.699 41.97C120.592 40.9663 118.97 40.8408 118.715 41.8215C117.507 46.3718 117.661 51.4556 117.296 56.1433C116.887 61.303 116.478 66.4627 116.095 71.6045C115.678 76.8083 115.242 81.9858 114.913 87.2064C114.616 92.0213 114.063 96.9708 114.563 101.8C114.598 102.218 115.273 102.278 115.397 101.867L115.361 101.815Z" fill="white"/>
<path d="M53.8669 37.2715C58.9785 38.6549 64.6058 38.6496 69.8632 39.1458C75.169 39.6283 80.4884 40.1592 85.8026 40.5976C96.7442 41.511 107.791 42.8332 118.775 43.1602C120.164 43.1954 120.317 41.1889 118.953 41.0212C108.064 39.5917 96.9377 39.1692 85.9973 38.3704C80.6747 37.9761 75.3617 37.6523 70.0307 37.3022C64.766 36.9647 59.2183 36.0703 53.9444 36.623C53.6186 36.6525 53.5579 37.2127 53.8848 37.2977L53.8669 37.2715Z" fill="white"/>
<path d="M67.3146 133.415C75.6517 134.314 83.9857 135.349 92.348 136.115C100.283 136.846 108.625 138.317 116.604 137.73C117.348 137.665 117.447 136.426 116.722 136.266C108.954 134.423 100.468 134.548 92.5133 134.042C84.1311 133.501 75.7469 133.211 67.3658 132.784C66.9559 132.775 66.9089 133.384 67.3104 133.437L67.3146 133.415Z" fill="white"/>
<path d="M40.2535 142.474C42.5132 142.377 44.8323 141.126 46.9047 140.33C49.5214 139.318 51.8577 138.939 54.5681 138.517C55.6548 138.334 55.6931 136.809 54.7334 136.444C52.6058 135.605 49.7412 136.959 47.7613 137.749C45.2109 138.773 42.1413 139.882 39.9631 141.595C39.6395 141.854 39.7911 142.5 40.2535 142.474Z" fill="white"/>
<path d="M51.1006 144.009C56.2234 141.484 61.7747 140.915 67.0754 139.018C68.1515 138.651 67.5318 136.978 66.4672 137.164C61.039 138.168 55.1655 140.07 50.622 143.278C50.2017 143.564 50.6487 144.221 51.1006 144.009Z" fill="white"/>
<path d="M64.8061 144.945C69.2975 143.214 73.7576 141.889 78.349 140.475C79.733 140.052 79.3948 137.861 77.913 138.197C73.2479 139.277 68.048 141.124 64.2066 144.008C63.6728 144.409 64.2617 145.162 64.8281 144.949L64.8061 144.945Z" fill="white"/>
<path d="M79.1396 145.68C81.4002 145.218 83.3904 144.132 85.4522 143.152C86.5839 142.612 87.7462 142.033 88.9863 141.766C90.0856 141.517 91.1367 141.763 92.1413 141.29C92.6678 141.047 92.9155 140.225 92.4486 139.794C89.0421 136.539 81.9228 143.19 78.705 144.477C78.0115 144.757 78.4007 145.837 79.1133 145.698L79.1396 145.68Z" fill="white"/>
<path d="M93.4907 146.235C95.0973 145.122 96.8732 144.202 98.6954 143.519C100.417 142.886 102.252 142.617 103.951 141.979C104.908 141.635 104.61 139.955 103.575 139.987C99.8702 140.106 95.0785 142.694 92.7883 145.598C92.4312 146.033 93.0746 146.499 93.4686 146.231L93.4907 146.235Z" fill="white"/>
<path d="M104.038 146.822C108.935 145.488 114.036 143.919 118.562 141.646C119.93 140.946 118.946 139.021 117.545 139.532C112.869 141.273 108 143.184 103.63 145.601C103.043 145.924 103.295 147.001 104.02 146.796L104.038 146.822Z" fill="white"/>
<path d="M112.385 147.654C115.985 147.607 118.838 145.473 122.019 144.019C125.928 142.224 130.032 140.968 133.994 139.252C135.039 138.81 134.489 137.013 133.355 137.323C129.755 138.331 126.235 139.766 122.888 141.371C119.567 142.959 116.064 146.227 112.353 146.619C111.794 146.673 111.839 147.642 112.411 147.636L112.385 147.654Z" fill="white"/>
<path d="M134.818 128.888C132.791 128.845 131.03 129.563 129.34 130.637C127.807 131.603 125.495 132.696 124.438 134.165C123.942 134.848 124.59 135.772 125.395 135.627C127.001 135.361 128.316 133.735 129.51 132.75C131.114 131.408 132.817 130.268 134.852 129.672C135.265 129.544 135.298 128.887 134.8 128.861L134.818 128.888Z" fill="white"/>
<path d="M132.687 124.25C130.982 124.681 129.239 124.944 127.574 125.52C126.226 125.995 124.194 126.821 124.024 128.436C123.951 129.062 124.706 129.663 125.302 129.296C125.867 128.969 126.166 128.477 126.638 128.041C127.254 127.449 128.039 127.049 128.793 126.689C130.131 126.029 131.554 125.521 132.891 124.861C133.22 124.695 133.048 124.159 132.687 124.25Z" fill="white"/>
<path d="M22.8173 21.7177C31.5678 23.4497 40.7139 23.7016 49.5828 24.4498C58.6987 25.222 67.8229 25.95 76.9472 26.6781C85.8865 27.4168 94.8342 28.1114 103.778 28.828C108.24 29.1731 112.721 29.5445 117.184 29.8897C121.779 30.26 126.532 31.0034 131.14 30.8272C132.638 30.7688 132.782 28.8065 131.325 28.5296C126.804 27.6474 121.983 27.6229 117.384 27.2746C113.102 26.9409 108.798 26.6031 104.516 26.2694C95.3914 25.5413 86.2849 24.8395 77.1565 24.1335C68.2088 23.439 59.2611 22.7445 50.3313 22.0762C41.2869 21.4091 32.0079 20.1713 22.9293 20.5268C22.1673 20.565 22.093 21.5572 22.8393 21.7219L22.8173 21.7177Z" fill="white"/>
<path d="M21.7806 21.6348C20.3463 25.5704 20.3354 29.9595 19.9869 34.0787C19.5861 38.7139 19.1675 43.3228 18.7667 47.958C17.8991 57.6961 17.1638 67.4594 16.3845 77.2143C15.6124 86.8105 14.8625 96.4109 14.0904 106.007C13.7117 110.647 13.3592 115.268 12.9805 119.907C12.6384 124.234 11.8929 128.758 12.2119 133.095C12.2974 134.209 14.1673 134.359 14.4433 133.268C15.4045 129.173 15.3976 124.758 15.7144 120.564C16.0669 115.943 16.4456 111.303 16.7981 106.682L19.092 77.4088C19.842 67.8084 20.6361 58.2164 21.2978 48.5993C21.6282 43.9736 21.9407 39.3216 22.2711 34.6959C22.5785 30.4317 23.302 25.9035 22.4817 21.6766C22.408 21.3424 21.936 21.2984 21.8069 21.6169L21.7806 21.6348Z" fill="white"/>
<path d="M132.054 30.109C130.241 39.1643 129.739 48.423 129.021 57.6177C128.281 66.9227 127.537 76.2498 126.798 85.5549C126.067 94.8158 125.335 104.077 124.6 113.36C123.883 122.303 122.447 131.544 122.713 140.492C122.754 141.963 124.712 142.13 124.989 140.673C126.663 131.865 126.701 122.519 127.396 113.571C128.127 104.31 128.858 95.0492 129.594 85.7662C130.333 76.4611 131.055 67.1298 131.794 57.8247C132.513 48.63 133.487 39.4153 133.117 30.1737C133.088 29.4822 132.184 29.4247 132.058 30.0869L132.054 30.109Z" fill="white"/>
<path d="M12.792 133.662C21.4754 135.748 30.7791 135.892 39.6701 136.645C48.7818 137.439 57.9103 138.145 67.0125 138.869C76.1367 139.597 85.2431 140.299 94.3674 141.027C99.011 141.383 103.672 141.766 108.316 142.123C112.96 142.48 117.641 143.118 122.275 142.924C123.702 142.875 123.852 141.005 122.439 140.737C117.878 139.824 113.145 139.702 108.523 139.349C103.902 138.997 99.2181 138.61 94.5745 138.253C85.4502 137.525 76.3438 136.823 67.2195 136.095C58.0952 135.367 48.9889 134.665 39.852 134.003C30.9622 133.366 21.7483 132.026 12.8316 132.732C12.3692 132.759 12.3106 133.548 12.77 133.658L12.792 133.662Z" fill="white"/>
<path d="M32.8984 35.3434C38.6711 36.7381 44.824 36.8556 50.7162 37.381C57.1509 37.9409 63.5938 38.4566 70.0327 38.9944C76.2907 39.5207 82.5571 40.0029 88.8194 40.5071C95.1257 41.0197 101.827 42.2249 108.16 41.8736C109.662 41.7931 109.798 39.8749 108.345 39.5759C102.322 38.2938 95.7092 38.4319 89.5615 37.9265C83.1185 37.4108 76.6712 36.9172 70.224 36.4235C63.9576 35.9413 57.6912 35.4592 51.4164 35.0212C45.3444 34.5988 39.039 33.7204 32.9579 34.1883C32.3767 34.2379 32.3108 35.186 32.8763 35.3392L32.8984 35.3434Z" fill="white"/>
<path d="M31.4689 36.3751C30.1699 39.2386 30.1806 42.6712 29.9106 45.7761C29.5925 49.3749 29.2564 52.9475 28.9383 56.5464C28.26 63.9648 27.6921 71.4042 27.1021 78.8394C26.5236 86.0938 25.9451 93.3482 25.3624 100.625C25.0663 104.228 24.7965 107.813 24.5004 111.416C24.2326 114.75 23.6233 118.316 23.9724 121.653C24.1032 122.89 25.8848 123.023 26.2038 121.826C27.0424 118.738 26.9833 115.319 27.2438 112.143C27.5137 108.558 27.8097 104.955 28.0796 101.37C28.6696 93.9347 29.2375 86.4953 29.8275 79.0601C30.3839 71.8015 31.0107 64.5334 31.4746 57.28C31.7266 53.6686 31.9523 50.075 32.2042 46.4636C32.4153 43.1875 33.0288 39.599 32.17 36.4168C32.0605 36.0301 31.6548 35.9987 31.4951 36.3572L31.4689 36.3751Z" fill="white"/>
<path d="M117.45 52.0786C115.886 58.1395 115.607 64.4215 115.107 70.6617C114.584 77.2634 114.061 83.8652 113.538 90.4669C113.023 97.0245 112.482 103.6 111.967 110.157C111.483 116.195 110.328 122.631 110.805 128.668C110.89 129.782 112.738 129.927 113.014 128.836C114.456 122.935 114.301 116.41 114.785 110.373C115.3 103.815 115.819 97.2357 116.333 90.6782C116.856 84.0764 117.379 77.4747 117.88 70.8688C118.376 64.6507 119.061 58.3999 118.486 52.1612C118.446 51.6505 117.59 51.5794 117.472 52.0828L117.45 52.0786Z" fill="white"/>
<path d="M24.9577 121.521C31.4622 123.398 38.7995 123.42 45.5474 124.017C52.9921 124.677 60.4273 125.267 67.8625 125.857C75.0948 126.431 82.3492 127.01 89.5816 127.584C96.5669 128.134 104.089 129.473 111.05 128.944C112.257 128.853 112.386 127.093 111.224 126.827C104.613 125.273 97.2018 125.396 90.3972 124.858C82.962 124.268 75.5268 123.678 68.0695 123.083C60.6122 122.489 53.5828 121.931 46.3378 121.423C39.3882 120.925 31.9076 119.732 25.0194 120.595C24.4824 120.653 24.4364 121.376 24.9577 121.521Z" fill="white"/>
<mask id="mask0_67_269" style="mask-type:luminance" maskUnits="userSpaceOnUse" x="26" y="5" width="180" height="122">
<path d="M33.0316 36.7879L26.5369 119.443C26.5369 119.443 26.4365 120.934 28.0318 120.482C29.6271 120.031 83.5182 124.443 87.817 124.688C92.1158 124.933 105.118 125.713 107.337 125.951C109.556 126.19 110.604 126.572 110.604 126.572L114.523 124.367L205.876 115.065L55.8567 5.74553L41.3328 37.1537L33.0358 36.7658L33.0316 36.7879Z" fill="white"/>
</mask>
<g mask="url(#mask0_67_269)">
<path d="M118.141 96.9007C117.462 94.5761 116.471 92.3294 115.384 90.11C115.156 83.3656 112.991 76.7103 109.479 70.2793C106.793 65.4004 104.023 59.6365 99.5349 56.1761C94.6473 52.411 87.8527 50.6163 82.127 48.6131C68.0802 43.7016 53.6314 40.0632 38.9518 37.6387C38.1351 37.4835 37.4047 37.5962 36.6879 37.7573C27.6835 34.3532 18.4565 31.6387 9.06375 29.5559C2.80627 27.7032 -3.44699 25.8285 -9.70447 23.9758C-10.3982 23.7753 -11.1035 23.7555 -11.7909 23.7621C-12.468 22.993 -13.2628 22.3616 -14.2446 21.992C-17.9153 20.6081 -22.0391 22.0885 -23.6521 25.7614C-27.232 33.8862 -31.2103 41.8209 -35.5387 49.5518C-36.401 51.0803 -36.214 53.5859 -35.5691 55.1264C-35.2577 55.8946 -34.7351 56.6343 -34.1074 57.3026C-34.8044 59.5257 -35.3911 61.7699 -35.8496 64.0613C-36.3264 64.8855 -36.6256 65.8578 -36.7334 67.0266C-36.8318 68.2658 -36.9343 69.5271 -37.0106 70.7705C-37.0483 70.9692 -37.0861 71.1679 -37.1238 71.3665C-39.224 87.7087 -40.1321 104.278 -40.8784 120.717C-41.0401 124.094 -39.1883 126.504 -36.8147 127.733C-37.4599 130.767 -38.1714 133.788 -38.7062 136.842C-39.2201 139.786 -38.0138 141.982 -36.1193 143.326C-36.7311 145.703 -37.303 148.11 -37.8308 150.525C-37.9651 151.231 -37.9018 151.861 -37.8206 152.517C-39.0462 155.234 -40.2896 157.925 -41.5151 160.643C-44.6183 167.463 -36.2363 173.059 -30.5801 169.171C-23.4528 164.282 -15.0312 163.413 -6.30844 164.087C-5.42023 164.348 -4.50686 164.476 -3.59146 164.352C-2.38272 164.491 -1.17399 164.629 0.0263557 164.811C0.430047 167.861 2.32922 170.624 5.87754 170.726C6.51656 170.733 7.16405 170.696 7.80308 170.704C7.80308 170.704 7.80308 170.704 7.79888 170.726C8.30547 170.708 8.83409 170.694 9.34068 170.676C11.5615 170.663 13.7865 170.629 16.0062 170.502C18.3721 170.448 20.7159 170.391 23.086 170.315C25.1665 174.53 31.1129 176.575 34.7761 172.103C37.3209 175.56 43.6253 176.324 46.6214 172.593C47.5228 171.461 48.42 170.351 49.3214 169.219C50.1275 169.189 50.9336 169.159 51.7397 169.129C54.3675 172.511 59.1923 173.839 62.3909 169.164C62.5474 168.942 62.7039 168.721 62.8383 168.495C71.6363 167.811 80.432 166.899 89.1962 165.912C92.3039 165.565 94.0354 163.675 94.7629 161.412C95.7631 160.482 96.7359 159.455 97.6004 158.155C103.722 149.05 106.852 136.677 110.981 126.507C114.679 117.398 121.101 106.955 118.149 96.8566L118.141 96.9007Z" fill="#5C0F8B"/>
<path d="M117.765 93.8333C110.234 87.3702 111.693 75.0001 108.007 66.4776C103.208 55.3879 92.0998 51.7439 81.2164 49.0805C80.4302 48.8853 79.7755 49.0811 79.2143 49.3861C71.616 45.5632 63.0905 43.8511 54.5031 42.5847C48.4853 40.9147 42.4718 39.2227 36.454 37.5528C34.133 36.7685 31.7858 36.0022 29.4606 35.24L-11.3369 22.2247C-11.6817 22.1134 -11.9991 22.0988 -12.3165 22.0842C-12.3523 22.0317 -12.3838 21.9571 -12.4374 21.8783C-13.4659 20.3105 -16.0379 20.0046 -17.4543 21.1991C-19.0282 22.5009 -19.2335 24.5431 -18.1335 26.2159C-17.655 26.9473 -17.1986 27.6744 -16.7464 28.4236C-16.6433 28.6033 -16.5182 28.7872 -16.4193 28.989C-16.3478 29.094 -16.3698 29.0898 -16.3341 29.1424C-16.3341 29.1424 -16.3341 29.1423 -16.3204 29.1907C-16.1185 29.5721 -15.8944 29.9578 -15.6883 30.3172C-14.8447 31.8955 -14.0538 33.5096 -13.3332 35.1332C-12.6305 36.7305 -11.9983 38.3372 -11.4406 39.9756C-11.1502 40.8541 -10.8597 41.7327 -10.5914 42.6071C-10.5409 42.8225 -10.4641 43.02 -10.4136 43.2355C-10.4041 43.3059 -10.2262 43.9344 -10.3178 43.5739C-10.4094 43.2134 -10.2536 43.8377 -10.222 43.9123C-10.1578 44.176 -10.0936 44.4399 -10.0294 44.7037C-9.91466 45.1829 -9.70741 45.6568 -9.42137 46.0771C-7.80585 51.896 -5.94444 57.6245 -3.91171 63.2941C-3.47774 65.8237 -2.89873 68.3124 -1.44336 70.2815C-1.42548 70.3077 -1.38551 70.3382 -1.36764 70.3645C-1.3182 70.4653 -1.29089 70.562 -1.26352 70.6587C-0.735412 71.9712 0.248622 72.5699 1.32072 72.7051C3.71867 74.1673 6.62394 74.7653 9.3716 75.4705C15.4587 77.0164 21.5195 78.5801 27.6066 80.126C39.189 83.0824 50.7494 86.0346 62.3276 89.0131C66.9526 90.1896 72.0077 92.111 76.8636 92.5538C77.2086 93.1454 77.7291 93.656 78.5385 93.97C81.6205 95.0819 84.6099 95.7187 87.9154 95.7753C88.3736 95.7709 88.7783 95.6877 89.165 95.5783C97.8491 96.8173 106.469 98.2729 115.027 100.174C118.715 100.989 120.226 95.925 117.725 93.8029L117.765 93.8333Z" fill="#8A54AB"/>
<path d="M80.0169 48.1668C77.8273 47.2932 74.411 46.2549 69.7724 45.0301C65.1337 43.8053 60.6211 42.3987 56.265 40.7702C51.9047 39.1637 45.9038 37.4055 38.262 35.4955C30.6161 33.6076 24.4659 31.9124 19.7588 30.4459C15.0518 28.9794 9.17906 27.2684 2.11855 25.3088C-4.91988 23.3534 -10.1347 21.7904 -13.469 20.5619C-16.8075 19.3555 -18.81 18.7005 -19.4585 18.623C-20.107 18.5454 -20.7712 18.6708 -21.4773 19.0168C-22.1835 19.3629 -23.2317 21.2677 -24.6703 24.745C-26.1089 28.2224 -27.9729 32.3737 -30.2886 37.2166C-32.6043 42.0596 -35.8858 50.0581 -40.1414 61.2563C-44.3971 72.4545 -49.0164 83.4007 -53.9775 94.0989C-58.9385 104.797 -99.7215 200.352 -102.637 207.025C-105.552 213.698 -108.723 221.237 -112.115 229.695C-115.506 238.153 -119.977 249.882 -125.465 264.917C-130.975 279.948 -133.726 287.681 -133.709 288.073C-133.692 288.465 -133.162 290.007 -132.07 292.685C-131 295.358 -129.751 298.775 -128.368 302.926C-126.984 307.077 -125.852 310.265 -124.967 312.469C-124.104 314.668 -122.931 317.156 -121.512 319.918C-120.071 322.685 -117.929 326.34 -115.07 330.909C-112.21 335.477 -103.087 340.299 -87.7209 345.37C-72.3329 350.445 -61.5197 354.078 -55.2368 356.279C-48.954 358.48 -43.6845 360.236 -39.4242 361.526C-35.1639 362.816 -30.5914 364.028 -25.7552 365.176C-20.9148 366.302 -15.116 367.199 -4.2023 369.342C6.71555 371.463 9.3357 371.275 10.2175 371.328C11.0952 371.404 22.8324 341.661 47.3401 282.396C69.0318 222.184 119.116 105.251 119.725 103.972C120.334 102.693 120.648 101.403 120.662 100.125C120.658 98.8206 120.049 96.8523 118.802 94.1453C117.552 91.4604 115.79 86.8944 113.485 80.4871C111.185 74.0577 109.463 69.5221 108.319 66.8802C107.174 64.2384 106.09 61.8824 105.039 59.8301C103.988 57.7778 103.311 56.5285 102.989 56.0556C102.667 55.5828 100.84 54.8466 97.5387 53.8074C95.8768 53.2856 94.2327 52.7902 92.5709 52.2684C93.1043 50.9061 81.0428 48.5447 79.9591 48.11L80.0169 48.1668ZM100.508 56.9562C100.742 57.0465 100.938 57.2209 101.081 57.431C101.224 57.6412 101.772 58.7288 102.76 60.6319C103.747 62.5349 105.148 65.7516 106.971 70.2378C107.87 72.4898 108.795 74.7239 109.715 76.9802C106.155 76.0976 102.591 75.237 99.0304 74.3545C91.9059 72.6114 64.349 64.5372 57.9171 62.8801C51.4853 61.2229 41.5793 58.4708 28.2077 54.5797C14.8361 50.6885 5.47778 48.0634 0.119099 46.656C-5.24378 45.2707 -8.00934 44.5391 -8.1996 44.4572C-8.38987 44.3753 -9.40815 42.0319 -11.2324 37.4312C-13.0566 32.8304 -14.6702 29.0474 -16.0293 26.0903C-16.7088 24.6117 -17.3884 23.1332 -18.0679 21.6547C-16.4365 22.2163 -14.8051 22.778 -13.1736 23.3397C-9.91082 24.4631 -5.01881 25.919 1.48039 27.7033C7.97958 29.4876 14.3296 31.3351 20.5566 33.2278C26.7836 35.1204 33.2166 36.8921 39.9038 38.5292C46.569 40.1621 52.1369 41.7923 56.6034 43.4418C61.0698 45.0913 65.2776 46.4171 69.2046 47.4152C73.1317 48.4132 76.3398 49.3432 78.8289 50.2052C80.2217 50.6986 94.8045 55.4375 96.0459 55.765C98.8156 56.4744 100.318 56.8743 100.552 56.9646L100.508 56.9562ZM30.4457 38.8355C21.7224 36.7199 12.771 34.2407 3.6259 31.3359C-5.52335 28.4532 -10.2871 27.0445 -10.6434 27.114C-10.9997 27.1835 -11.2666 27.3844 -11.3653 27.663C-11.464 27.9415 -11.4744 28.2369 -11.366 28.5091C-11.2577 28.7812 -10.6374 29.1278 -9.50953 29.5709C-8.38161 30.0141 -5.29113 31.0818 -0.207726 32.7342C4.87568 34.3866 9.47236 35.8321 13.6128 37.0309C17.7533 38.2296 22.4707 39.4008 27.7348 40.5844C32.9988 41.7679 36.952 42.7481 39.5767 43.4986C42.2014 44.2491 43.7823 44.5954 44.3194 44.5374C44.8564 44.4794 45.1938 44.269 45.3271 43.9284C45.4605 43.5878 45.453 43.2662 45.2784 42.9815C45.1038 42.6967 44.7842 42.453 44.2975 42.2461C43.8108 42.0393 39.1995 40.9111 30.4762 38.7955L30.4457 38.8355ZM-19.5867 24.1104C-18.1034 27.6171 -16.6202 31.1239 -15.1412 34.6527C-13.7252 38.0323 -11.3304 45.1658 -11.3304 45.1658C-11.3304 45.1658 -16.752 52.3916 -19.9457 56.1985C-23.0218 59.8678 -26.1241 63.5549 -29.2001 67.2242C-29.2359 67.1716 -29.2758 67.1411 -29.3116 67.0886C-29.3873 67.0056 -29.1807 65.5582 -28.6962 62.7686C-28.2117 59.979 -27.4721 56.2087 -26.5038 51.4755C-25.5354 46.7424 -24.6814 42.971 -23.9635 40.1571C-23.2457 37.3432 -22.4311 34.502 -21.5115 31.5893C-20.5919 28.6765 -20.0377 26.7234 -19.8363 25.6639C-19.7356 25.1342 -19.6391 24.6265 -19.5384 24.0968L-19.5867 24.1104ZM-22.5258 25.9761C-23.3224 28.8436 -24.1191 31.7111 -24.9116 34.5565C-26.5049 40.2915 -27.975 46.4616 -29.2999 53.071C-30.6249 59.6804 -31.3959 63.8564 -31.6307 65.5728C-31.8654 67.2893 -31.9501 68.5768 -31.8846 69.4355C-31.8192 70.2942 -31.8841 70.8764 -32.049 71.1424C-32.2139 71.4084 -32.2285 71.7258 -32.0844 72.0505C-31.9403 72.3752 -31.7132 72.6243 -31.4346 72.723C-31.156 72.8216 -30.7324 72.8793 -30.2258 72.8612C-29.9705 72.8412 -29.7193 72.8432 -29.4639 72.8231C-29.6697 73.4244 -29.8712 74.0036 -30.077 74.6048C-30.4844 75.7853 -31.611 78.7044 -33.4486 83.3181C-35.2862 87.9317 -38.7674 95.7779 -43.9364 106.848C-49.1054 117.919 -90.7072 215.857 -95.0701 226.897C-99.433 237.938 -105.803 252.92 -114.136 271.851C-118.311 281.303 -122.469 290.782 -126.644 300.234C-127.083 299.053 -127.499 297.876 -127.938 296.695C-128.793 294.337 -129.605 292.353 -130.312 290.777C-131.041 289.198 -131.252 287.9 -130.967 286.879C-130.681 285.859 -129.615 283.02 -127.769 278.362C-125.923 273.704 -123.66 267.57 -121.013 260.023C-118.366 252.476 -115.349 244.427 -111.972 235.921C-108.594 227.414 -105.441 219.734 -102.519 212.902C-99.5963 206.071 -58.6328 110.047 -53.322 98.5918C-48.0113 87.1367 -44.6791 79.8339 -43.3959 76.6929C-42.0907 73.5562 -39.9718 67.9439 -37.0036 59.9087C-34.0353 51.8736 -30.883 44.1935 -27.5509 36.8908C-25.8758 33.2525 -24.2229 29.6101 -22.5437 25.9498L-22.5258 25.9761ZM110.258 78.9359C110.258 78.9359 112.12 83.8183 112.759 85.6321C114.185 89.5625 115.475 92.7581 116.658 95.2013C117.84 97.6445 118.423 99.1505 118.398 99.7632C118.387 100.059 118.373 100.376 118.362 100.671C113.367 99.8818 108.353 99.066 103.357 98.2764C93.3475 96.6711 85.317 95.1217 79.1995 93.6158C73.104 92.1141 68.2751 90.8073 64.7043 89.7397C61.1336 88.6722 57.2253 87.3347 52.9491 85.7671C48.6772 84.1774 45.0737 82.9207 42.1168 81.9927C39.1641 81.0426 35.8898 80.1 32.2802 79.1166C28.6706 78.1331 22.6151 76.6618 14.1136 74.7028C5.61216 72.7437 1.26244 71.3222 1.10446 70.4689C0.946485 69.6155 0.500309 68.1126 -0.23412 65.9604C-0.968548 63.8082 -2.35208 60.1374 -4.40669 54.944C-5.42296 52.3494 -6.46129 49.7506 -7.47756 47.156C-5.36583 47.7175 -3.2499 48.257 -1.13817 48.8185C3.08949 49.9194 12.3774 52.554 26.7034 56.718C41.0295 60.8821 51.1961 63.7066 57.1728 65.2315C63.1496 66.7564 69.5742 68.5722 76.4466 70.6791C83.319 72.7859 90.7327 74.8127 98.6835 76.7814C102.986 77.8508 110.21 78.9496 110.21 78.9496L110.258 78.9359ZM109.289 83.5545C109.017 83.6629 108.816 83.8763 108.713 84.1769C108.61 84.4775 108.582 84.7466 108.65 84.9883C108.719 85.2301 109.362 87.0218 110.587 90.3195C111.813 93.6171 112.526 95.3995 112.709 95.6401C112.892 95.8807 113.136 96.0414 113.445 96.1001C113.754 96.1589 114.005 96.1609 114.229 96.0662C114.431 95.9674 114.605 95.7718 114.739 95.4312C114.872 95.0906 114.877 94.7028 114.776 94.2719C114.675 93.841 113.948 92.0104 112.639 88.7884C111.331 85.5664 110.512 83.8557 110.18 83.6782C109.848 83.5007 109.557 83.4682 109.285 83.5765L109.289 83.5545ZM-23.1277 40.9335C-23.444 41.0335 -23.7014 41.3048 -23.8736 41.7294C-24.0458 42.1541 -24.4717 44.1544 -25.1515 47.7302C-25.8312 51.3061 -26.1247 53.3315 -26.0667 53.8686C-26.0087 54.4056 -25.8026 54.765 -25.4704 54.9425C-25.1382 55.12 -24.847 55.1525 -24.5749 55.0441C-24.3027 54.9357 -24.0548 54.5941 -23.8395 54.0632C-23.6243 53.5324 -23.3325 52.2385 -22.9865 50.1773C-22.6404 48.1161 -22.3238 46.2094 -22.0848 44.4709C-21.8458 42.7324 -21.8693 41.653 -22.1942 41.3168C-22.5191 40.9806 -22.8155 40.8556 -23.1497 40.9293L-23.1277 40.9335ZM-9.84741 47.7118C-9.0079 49.7926 -8.16841 51.8733 -7.32471 53.932C-5.6457 58.0934 -4.198 62.028 -2.99 65.7797C-2.38601 67.6555 -1.78203 69.5314 -1.15176 71.3894C-3.32844 71.4101 -5.50091 71.4089 -7.65551 71.4338C-12.0047 71.4533 -16.5757 71.3163 -21.4043 70.9702C-23.8206 70.8082 -26.2149 70.6505 -28.6271 70.4664C-28.3445 70.0627 -28.0882 69.6769 -27.8056 69.2732C-27.2667 68.4836 -25.0837 65.9025 -21.2827 61.5477C-17.4817 57.1929 -14.6189 53.8033 -12.6901 51.3569C-11.7278 50.1447 -10.7614 48.9103 -9.79908 47.6981L-9.84741 47.7118ZM117.163 102.89C117.353 102.972 67.6476 219.359 45.8162 279.705C25.723 328.259 8.54002 368.242 8.54002 368.242C8.54002 368.242 -1.54181 367.378 -4.07603 366.873C-15.5236 364.651 -21.4728 363.703 -26.0925 362.619C-30.708 361.513 -35.2762 360.279 -39.7268 358.907C-44.1995 357.531 -49.1021 355.89 -54.483 353.998C-59.8597 352.084 -66.6987 349.801 -74.9776 347.152C-83.2565 344.503 -90.869 341.958 -97.7972 339.544C-104.725 337.129 -108.089 335.575 -107.929 334.85C-107.746 334.13 -105.251 327.743 -100.426 315.716C-95.5973 303.666 -91.1269 293.263 -86.9671 284.494C-82.8293 275.72 -79.4952 268.166 -76.9562 261.788C-74.4392 255.405 -70.9854 247.462 -66.5946 237.959C-62.1996 228.434 -21.7708 133.178 -18.9799 125.955C-16.1889 118.732 -13.2939 111.804 -10.3167 105.166C-7.33951 98.5272 -5.5028 94.2793 -4.76252 92.4302C-4.02224 90.5812 -3.20025 88.0616 -2.27863 84.8976C-1.35282 81.7116 -0.518225 79.1258 0.207281 77.1138C0.400469 76.5788 1.17522 74.1874 1.17522 74.1874C1.17522 74.1874 10.2022 76.2692 18.7889 78.3817C30.4364 81.2361 37.6063 83.1022 40.3067 83.9357C43.0071 84.7692 47.3221 86.2527 53.2297 88.3819C59.1415 90.4891 71.2234 94.0665 71.2234 94.0665C71.2234 94.0665 82.7049 97.0723 87.3761 98.006C92.0651 98.9659 98.1604 99.9873 105.654 101.114C113.151 102.219 116.995 102.813 117.185 102.895L117.163 102.89ZM109.573 108.652C109.174 108.942 107.102 113.946 103.379 123.667C99.6338 133.384 97.4982 139.085 96.946 140.787C96.3938 142.489 96.1208 143.443 96.1451 143.676C96.1694 143.91 96.3303 144.146 96.632 144.363C96.9296 144.603 97.2385 144.662 97.5549 144.562C97.8712 144.462 100.253 138.671 104.673 127.207C109.094 115.742 111.32 109.807 111.303 109.415C111.286 109.023 111.093 108.712 110.721 108.504C110.349 108.296 109.971 108.362 109.577 108.63L109.573 108.652ZM102.608 110.278C102.209 110.454 101.526 111.88 100.586 114.537C99.6467 117.194 99.2289 118.67 99.3372 118.942C99.4456 119.214 99.659 119.415 99.9597 119.518C100.26 119.621 100.534 119.627 100.806 119.519C101.078 119.41 101.722 118.069 102.702 115.557C103.683 113.044 104.171 111.559 104.114 111.137C104.057 110.714 103.883 110.429 103.617 110.264C103.351 110.099 103.007 110.103 102.608 110.278ZM-17.3378 68.1068C-21.7711 68.0874 -24.1369 68.1409 -24.4133 68.2713C-24.6896 68.4017 -24.8861 68.5931 -24.989 68.8937C-25.0919 69.1944 -25.0981 69.4676 -24.9056 69.7786C-24.7132 70.0897 -24.5618 70.2557 -24.3715 70.3376C-24.1812 70.4195 -21.911 70.508 -17.5565 70.581C-13.2021 70.654 -10.8226 70.6488 -10.4579 70.5352C-10.0933 70.4215 -9.82219 70.1986 -9.69723 69.9022C-9.57227 69.6058 -9.56603 69.3325 -9.63443 69.0908C-9.70284 68.8491 -9.88999 68.6305 -10.218 68.4309C-10.546 68.2314 -12.9088 68.1482 -17.3641 68.1247L-17.3378 68.1068ZM-1.32962 73.5283C-2.01299 75.7998 -2.6701 78.0535 -3.35346 80.325C-4.69393 84.8502 -5.91913 88.5282 -7.05108 91.3548C-8.16095 94.1857 -9.77813 97.8807 -11.8585 102.448C-13.9389 107.016 -16.5063 113.183 -19.5125 120.937C-22.5187 128.69 -63.042 224.203 -67.4244 233.662C-71.7847 243.125 -75.5704 251.851 -78.7952 259.792C-82.002 267.759 -85.4181 275.503 -89.0297 283.073C-92.6414 290.642 -96.9962 300.678 -102.05 313.188C-107.126 325.694 -109.729 332.29 -109.881 332.97C-109.944 333.301 -110.033 333.65 -110.118 333.977L-110.273 333.947C-110.273 333.947 -111.897 331.42 -114.856 326.535C-117.816 321.65 -120.004 317.643 -121.396 314.497C-122.788 311.351 -123.83 308.774 -124.502 306.771C-125.173 304.768 -125.207 303.023 -124.635 301.577C-124.063 300.13 -119.926 290.762 -112.252 273.49C-104.577 256.217 -98.181 241.218 -93.0894 228.509C-87.9935 215.778 -46.0209 116.973 -40.8435 105.858C-35.6661 94.7436 -32.3908 87.4987 -31.031 84.075C-29.6712 80.6512 -28.7094 77.9981 -28.1068 76.0314C-27.9273 75.448 -27.0517 73.0071 -27.0517 73.0071C-27.0517 73.0071 -22.8622 73.3461 -19.0132 73.5517C-13.5593 73.8566 -9.8565 73.9887 -7.89107 73.9964C-5.92564 74.004 -4.33122 73.9183 -3.15623 73.7529C-2.57083 73.6812 -1.96341 73.6137 -1.37381 73.5199L-1.32962 73.5283ZM-110.247 238.878C-110.562 239.093 -111.487 241.433 -113.018 245.876C-114.548 250.32 -116.206 254.83 -117.939 259.372C-119.671 263.914 -122.08 269.609 -125.117 276.442C-128.154 283.274 -129.526 286.879 -129.227 287.233C-128.928 287.587 -128.549 287.636 -128.119 287.421C-127.689 287.205 -127.055 286.274 -126.172 284.635C-125.314 283.014 -124.1 280.477 -122.578 277.039C-121.055 273.6 -119.237 269.211 -117.133 263.917C-115.029 258.622 -113.074 253.39 -111.276 248.266C-109.475 243.119 -108.594 240.29 -108.678 239.771C-108.736 239.234 -108.947 238.897 -109.287 238.763C-109.628 238.63 -109.954 238.66 -110.269 238.874L-110.247 238.878ZM-70.8306 267.824C-71.2288 268.114 -71.8328 269.005 -72.6384 270.476C-73.444 271.947 -76.7523 278.522 -82.559 290.18C-88.3658 301.838 -91.7717 308.807 -92.7808 311.108C-93.79 313.409 -94.8454 315.953 -95.8806 318.753C-96.938 321.548 -97.7999 324.037 -98.5148 326.234C-99.2077 328.435 -99.5036 329.751 -99.4025 330.182C-99.3015 330.613 -99.0344 330.892 -98.6192 330.994C-98.204 331.096 -97.874 331.044 -97.6208 330.795C-97.3676 330.546 -96.7827 329.033 -95.9104 326.248C-95.0338 323.442 -93.7749 320.068 -92.1515 316.099C-90.5281 312.131 -88.2797 307.161 -85.4105 301.211C-82.5414 295.261 -79.1386 288.429 -75.1759 280.697C-71.2175 272.988 -69.2557 268.924 -69.2506 268.536C-69.2676 268.144 -69.4159 267.841 -69.7481 267.664C-70.0803 267.486 -70.4324 267.533 -70.8306 267.824ZM-87.4313 313.406C-87.6646 313.43 -87.8706 313.551 -88.067 313.742C-88.2677 313.956 -88.9817 315.787 -90.2658 319.294C-91.5457 322.778 -92.226 324.913 -92.3644 325.642C-92.5029 326.37 -92.3703 326.876 -92.0286 327.123C-91.6869 327.371 -91.3295 327.416 -90.9827 327.277C-90.6359 327.137 -89.7917 325.101 -88.41 321.202C-87.0283 317.302 -86.3081 315.197 -86.2494 314.888C-86.1906 314.579 -86.3085 314.237 -86.6113 313.905C-86.932 313.547 -87.198 313.382 -87.4313 313.406Z" fill="#010101"/>
<path d="M56.4193 59.2091C56.4193 59.2091 56.4536 59.1477 56.4878 59.0864C56.4795 59.1301 56.4494 59.1696 56.4193 59.2091Z" fill="white"/>
<path d="M75.0046 70.199C78.0704 67.3054 81.1065 63.6057 82.2653 59.4348C82.1412 59.3655 81.9615 59.4686 81.8028 59.4613C81.8699 59.1081 82.0075 58.7454 82.0126 58.3576C82.0314 58.0181 81.9893 57.7585 81.9776 57.4589C86.9959 48.1439 66.0621 30.3736 55.4646 33.1848C53.3373 33.3065 51.4017 34.105 49.7352 35.4121C49.8739 35.164 50.0566 34.9242 50.1732 34.6719C45.3981 36.6917 42.4694 41.0294 40.1242 45.5465C38.9623 47.0867 37.9424 48.7226 37.263 50.4917C37.0005 51.1508 36.9188 51.8214 36.8633 52.4741C36.7336 51.3516 36.8331 50.227 37.4969 49.141C29.909 61.6269 54.3029 79.9635 66.0202 78.1198C69.829 77.8146 71.2039 75.5144 72.7932 73.0492C73.3637 72.3342 73.89 71.6109 74.3763 70.8572C74.5812 70.6217 74.764 70.382 74.9909 70.1507L75.0046 70.199Z" fill="white"/>
<path d="M82.2061 56.9763C82.6113 55.5667 82.4026 54.0176 81.9754 52.6556C81.4661 51.0036 80.5837 49.5094 79.6929 48.0593C78.8242 46.6134 77.9029 45.2033 76.8766 43.8647C74.8545 41.1475 72.495 38.6406 69.7658 36.6352C66.9167 34.5384 63.6412 33.0009 60.162 32.2938C58.4665 31.9487 56.7071 31.82 54.9719 31.9247C53.7695 31.9935 52.5241 32.1685 51.3334 32.5368C51.182 32.3708 50.9518 32.2584 50.7048 32.2343C49.2007 32.0857 48.3876 33.2347 47.9193 34.4951C47.893 34.513 47.8626 34.5529 47.8363 34.5707C47.6399 34.7621 47.5591 35.067 47.597 35.3486C44.1238 39.4227 40.9082 43.7058 37.9765 48.1801C37.2685 49.2577 36.5868 50.3174 35.9187 51.4254C35.7044 51.5905 35.5479 51.8123 35.5196 52.0814C35.424 52.2233 35.3242 52.3873 35.2507 52.5335C34.9472 53.0475 34.9054 53.7486 35.4468 54.1488C35.491 54.1572 35.5267 54.2097 35.5709 54.2181C35.864 56.7668 36.918 59.1627 38.2568 61.3841C39.7029 63.7631 41.5125 65.9138 43.5533 67.8112C47.6569 71.6102 52.7586 74.2496 58.1866 75.5329C61.2296 76.2486 64.3649 76.4786 67.4779 76.2242C67.5883 76.2451 67.6807 76.2398 67.8037 76.1946C69.2014 75.8199 70.433 75.1163 71.4857 74.15C72.5122 73.2016 73.3831 72.1092 74.2404 70.9685C76.146 68.4033 77.9055 65.7646 79.5714 63.0166C80.5388 61.4165 81.4704 59.764 82.3537 58.1251C82.5354 57.7708 82.4606 57.322 82.224 57.0026L82.2061 56.9763ZM48.5692 68.8562C47.6157 68.2175 46.6968 67.5168 45.8347 66.7583C45.3458 66.3223 44.8569 65.8863 44.3943 65.4324C44.3007 65.3231 44.1809 65.2318 44.0873 65.1225C44.0873 65.1225 44.0652 65.1183 44.0473 65.092C44.0115 65.0395 43.9496 65.0049 43.9138 64.9523C43.6646 64.6991 43.4196 64.4238 43.1746 64.1485C42.3103 63.1609 41.4985 62.1375 40.7697 61.0384C39.88 59.7028 39.1943 58.4976 38.58 56.9171C38.4222 56.544 38.2906 56.1531 38.1811 55.7663C38.1675 55.718 38.1538 55.6697 38.1401 55.6213C38.1401 55.6213 38.0896 55.4059 38.0759 55.3576C38.0212 55.1642 37.9927 54.9529 37.9601 54.7638C37.8769 54.3592 37.8378 53.9629 37.7988 53.5667C37.7924 53.3596 37.786 53.1526 37.7796 52.9456C37.7838 52.9235 37.788 52.9014 37.7922 52.8793C37.8006 52.8352 37.809 52.791 37.8174 52.7468C40.7249 48.0392 43.9204 43.5008 47.4135 39.2018C47.4726 39.8534 47.558 40.4872 47.7137 41.1114C47.8475 41.7315 48.0253 42.3599 48.2295 42.9705C48.0582 43.0294 47.8963 43.1587 47.7745 43.3185C45.2187 47.0181 42.6892 50.6998 40.1334 54.3993C39.7899 54.8829 39.806 55.6406 40.3295 56.0146C40.8131 56.3581 41.5709 56.3421 41.9449 55.8185C44.3483 52.3187 46.7476 48.841 49.1731 45.3454C49.5602 46.1966 49.9998 47.0121 50.4615 47.8317C50.2902 47.8906 50.1506 48.0242 50.0329 48.1619C46.9434 52.2631 44.1155 56.5513 41.5317 61.0003C41.2281 61.5143 41.6016 62.3172 42.1366 62.5104C42.7778 62.7466 43.3127 62.4595 43.6467 61.9055C43.9849 61.3294 44.1845 61.0014 44.5185 60.4474C44.8483 59.9154 45.1561 59.3793 45.4859 58.8474C46.1456 57.7835 46.8231 56.7458 47.5048 55.6861C48.821 53.695 50.2255 51.7206 51.6657 49.7988C51.876 50.1361 52.0906 50.4513 52.3009 50.7886C52.5291 51.1522 52.7836 51.4979 53.0339 51.8656C53.0297 51.8877 53.0034 51.9056 52.9729 51.9455C50.6841 55.4442 48.3952 58.9429 46.1064 62.4416C45.7807 62.9515 45.7568 63.6788 46.3024 64.057C46.7639 64.3963 47.5659 64.3886 47.9178 63.8609C50.111 60.5041 52.3044 57.1473 54.4934 53.8127C55.2558 54.7352 56.0969 55.604 56.9948 56.4151C56.7973 56.4919 56.6396 56.5992 56.4915 56.7769C53.7298 60.5974 51.1458 64.566 48.7079 68.6081C48.6469 68.688 48.6081 68.7721 48.5871 68.8824L48.5692 68.8562ZM60.872 72.9558C60.7418 73.1598 60.6472 73.4162 60.6452 73.6674C60.27 73.5961 59.8727 73.5206 59.4975 73.4492C58.8573 73.3276 58.2214 73.1838 57.5897 73.018C57.5455 73.0096 57.4572 72.9928 57.4352 72.9886C57.4131 72.9844 57.391 72.9802 57.3468 72.9718C57.1923 72.9425 57.0199 72.8868 56.8696 72.8354C56.5469 72.7283 56.22 72.6433 55.8794 72.51C54.6328 72.09 53.425 71.586 52.2518 71.0199C51.6673 70.7258 51.0828 70.4318 50.5067 70.0936C50.5067 70.0936 50.4846 70.0894 50.4625 70.0852C50.4625 70.0852 50.471 70.041 50.493 70.0452C52.9089 65.9989 55.515 62.0344 58.2767 58.214C58.3986 58.0542 58.4584 57.8598 58.4962 57.6611C58.758 57.8481 59.0197 58.035 59.3036 58.2262C59.7293 58.513 60.1814 58.7819 60.6376 59.0287C58.8181 61.3816 57.1805 63.8605 55.6627 66.4309C55.3592 66.9449 55.7326 67.7478 56.2677 67.941C56.9089 68.1772 57.4437 67.8901 57.7777 67.336C57.9164 67.088 58.0425 66.9061 58.242 66.5781C58.4154 66.268 58.6065 65.9841 58.8019 65.6782C59.1926 65.0663 59.5834 64.4545 59.992 63.869C60.7872 62.6936 61.6266 61.5267 62.5017 60.4122C62.5889 60.3145 62.6361 60.1862 62.6875 60.0359C63.1522 60.2386 63.643 60.4233 64.1119 60.6039C61.9248 63.6874 59.9196 66.897 58.0605 70.18C57.757 70.6941 58.1304 71.497 58.6654 71.6902C59.3066 71.9264 59.8636 71.6434 60.1755 71.0852C61.0767 69.4726 61.9443 68.0366 62.96 66.4229C63.9674 64.8533 64.9926 63.31 66.0841 61.7793C66.2059 61.6195 66.2657 61.4251 66.3035 61.2264C66.9394 61.3702 67.5754 61.5139 68.2018 61.5873C68.3122 61.6082 68.4447 61.6334 68.555 61.6544C65.9246 65.3855 63.3741 69.1775 60.8678 72.9779L60.872 72.9558ZM78.1149 60.9329L78.1065 60.977C78.0981 61.0212 78.0676 61.0612 78.0372 61.1011C77.2609 62.4173 76.4406 63.725 75.6024 65.0066C74.7379 66.306 73.8555 67.5791 72.9552 68.826C72.181 69.891 71.4026 70.978 70.4906 71.9253C70.4339 71.9832 70.4035 72.0231 70.3467 72.0809L70.3162 72.1209C70.3162 72.1209 70.312 72.143 70.2858 72.1608C70.1723 72.2765 70.0368 72.388 69.9233 72.5036C69.6481 72.7486 69.3549 72.9674 69.0617 73.1861C68.9567 73.2576 68.8253 73.3469 68.6981 73.4143L68.6456 73.4501C68.5668 73.5037 68.4701 73.531 68.3913 73.5847C68.2421 73.6478 68.0929 73.7109 67.9437 73.774C67.869 73.8056 67.7944 73.8371 67.7198 73.8687C67.6715 73.8824 67.3331 73.9782 67.5748 73.9098C67.5527 73.9056 67.5264 73.9234 67.4781 73.9371C67.3898 73.9203 67.3236 73.9077 67.2269 73.9351C66.5753 73.9942 65.9058 74.0271 65.2668 74.0199C65.1785 74.0032 65.108 74.0126 65.0156 74.0179C65.0156 74.0179 65.0155 74.0179 64.9935 74.0137C64.8348 74.0064 64.6719 74.0212 64.4911 74.0097C64.1737 73.9951 63.8342 73.9763 63.5168 73.9617C63.3622 73.9323 63.2215 73.9513 63.0669 73.9219C65.6426 69.9975 68.3023 66.1119 70.9978 62.2788C71.0934 62.1369 71.1669 61.9908 71.1963 61.8362C71.972 61.8465 72.7518 61.8346 73.5222 61.7523C71.6934 64.5151 69.8467 67.2517 68.0179 70.0144C67.6923 70.5243 67.6905 71.2558 68.214 71.6298C68.6976 71.9733 69.4775 71.9615 69.8294 71.4337C71.8714 68.3913 73.8956 65.3225 75.9377 62.2801C76.1247 62.0183 76.1876 61.6872 76.158 61.3614C76.7298 61.2414 77.3099 61.0772 77.89 60.913C78.035 60.872 78.1579 60.8267 78.3071 60.7636C78.2725 60.8256 78.2378 60.8877 78.2032 60.9497L78.1149 60.9329ZM80.0134 56.2394C80.0134 56.2394 80.0092 56.2614 80.005 56.2835C80.005 56.2835 80.0008 56.3056 79.9966 56.3277C79.9798 56.416 79.9368 56.5221 79.8979 56.6062C79.8811 56.6945 79.816 56.7964 79.7771 56.8805C79.7771 56.8805 79.712 56.9826 79.6773 57.0446C79.6427 57.1066 79.586 57.1644 79.6081 57.1686C79.5471 57.2485 79.4862 57.3284 79.4253 57.4083C79.3906 57.4703 79.338 57.5061 79.2813 57.5639C79.2813 57.5639 79.2771 57.586 79.2509 57.6039C79.2509 57.6039 79.2246 57.6217 79.1983 57.6396C79.0365 57.769 78.8968 57.9025 78.7171 58.0056C78.6645 58.0413 78.612 58.0771 78.5595 58.1128C78.5595 58.1128 78.5332 58.1307 78.507 58.1486C78.507 58.1486 78.4848 58.1444 78.4544 58.1843C78.301 58.2695 78.1518 58.3326 77.9983 58.4178C77.6474 58.5798 77.3048 58.6977 76.9401 58.8113C76.7951 58.8524 76.6721 58.8976 76.5271 58.9387C76.505 58.9345 76.36 58.9755 76.3337 58.9934C76.2633 59.0029 76.1887 59.0344 76.1403 59.0481C75.7799 59.1397 75.4015 59.205 75.0453 59.2745C74.3106 59.4093 73.5623 59.4958 72.8224 59.5381C72.4745 59.5635 72.153 59.5709 71.8093 59.5742C71.721 59.5574 71.6505 59.5669 71.558 59.5722C71.558 59.5722 71.536 59.568 71.5139 59.5638C71.3111 59.5481 71.104 59.5545 70.9011 59.5388C69.4507 59.4689 67.9813 59.2582 66.5633 58.8972C66.4971 58.8846 66.4309 58.872 66.3647 58.8595C66.3426 58.8553 66.1439 58.8175 66.1659 58.8217C66.0335 58.7965 65.9053 58.7493 65.777 58.702C65.4102 58.5866 65.0654 58.4753 64.7027 58.3377C64.0395 58.0973 63.3625 57.8085 62.7339 57.506C62.4196 57.3548 62.0874 57.1773 61.7773 57.004C61.6091 56.9263 61.4671 56.8307 61.3031 56.7309C61.3031 56.7309 61.3031 56.7309 61.281 56.7267C61.1791 56.6616 61.0771 56.5964 60.9751 56.5313C60.3633 56.1406 59.7557 55.7278 59.1785 55.275C58.6234 54.8264 58.0945 54.36 57.574 53.8494C57.552 53.8452 57.5341 53.8189 57.5162 53.7926C57.5162 53.7926 57.4942 53.7884 57.4805 53.7401C57.4227 53.6833 57.3648 53.6266 57.3069 53.5699C57.1734 53.4301 57.0399 53.2904 56.9106 53.1286C56.6077 52.7966 56.3091 52.4425 56.0326 52.0926C54.98 50.7718 54.0325 49.3796 53.1638 47.9337C52.9713 47.6227 52.761 47.2854 52.5727 46.9523C52.5548 46.926 52.537 46.8997 52.5412 46.8777C52.5412 46.8777 52.5275 46.8293 52.5097 46.803C52.456 46.7242 52.4244 46.6496 52.375 46.5487C52.254 46.3428 52.1552 46.141 52.0563 45.9393C51.6703 45.2026 51.3064 44.4702 50.995 43.702C50.6752 42.978 50.4079 42.2182 50.1848 41.4667L50.1343 41.2513C50.1427 41.2072 50.1069 41.1546 50.0932 41.1063C50.0564 40.9392 50.0017 40.7458 49.9691 40.5566C49.8859 40.152 49.8206 39.7737 49.7636 39.3512C49.7246 38.955 49.6855 38.5587 49.6728 38.1446C49.6728 38.1446 49.6854 38.0785 49.6896 38.0564C49.7063 37.9681 49.6969 37.8976 49.6916 37.8052C49.7115 37.5802 49.7051 37.3732 49.7471 37.1524C49.7837 36.8392 49.8161 36.5481 49.8749 36.2391C50.1932 35.8879 50.4937 35.5104 50.812 35.1593C50.9875 35.0783 51.141 34.9931 51.3123 34.9342C51.637 34.7901 51.9754 34.6943 52.2917 34.5943C52.2917 34.5943 52.3137 34.5985 52.3358 34.6027C52.3358 34.6027 52.3358 34.6027 52.3579 34.6069C52.4546 34.5796 52.525 34.5701 52.6217 34.5427C52.8371 34.4922 53.0263 34.4595 53.2417 34.409C54.0026 34.2563 54.7951 34.1782 55.5791 34.1443C55.7641 34.1337 55.9491 34.1232 56.1299 34.1347C56.152 34.1389 56.174 34.1431 56.1961 34.1473C56.1961 34.1473 56.2403 34.1557 56.2623 34.1598C56.3506 34.1766 56.4431 34.1713 56.5356 34.166C56.9676 34.1795 57.3954 34.2151 57.8011 34.2464C58.5862 34.3271 59.3409 34.4477 60.1093 34.6166C60.2859 34.6502 60.4845 34.6879 60.6569 34.7436C60.7673 34.7646 60.8776 34.7855 60.988 34.8065C60.988 34.8065 61.0322 34.8149 61.0763 34.8233C61.4432 34.9388 61.8321 35.0584 62.1989 35.1739C62.9726 35.4353 63.7158 35.7367 64.4506 36.0822C64.809 36.2418 65.1633 36.4235 65.5176 36.6052C65.6858 36.683 65.8498 36.7827 66.0138 36.8825C66.0978 36.9214 66.1777 36.9823 66.2618 37.0212C66.2839 37.0253 66.4479 37.1252 66.4879 37.1556C67.8219 37.9581 69.0824 38.9067 70.26 39.931C70.5533 40.1926 70.8246 40.45 71.1179 40.7116C71.2556 40.8292 71.3892 40.969 71.527 41.0867C71.5848 41.1434 71.6604 41.2264 71.7183 41.2831C71.7403 41.2873 71.8739 41.4271 71.8918 41.4533C72.4301 41.9902 72.9201 42.5408 73.428 43.1176C74.4574 44.3196 75.4258 45.6015 76.3197 46.9149C76.7488 47.5454 77.1736 48.1979 77.5943 48.8725C77.7868 49.1835 77.9792 49.4946 78.1674 49.8277C78.2705 50.0074 78.3736 50.1871 78.4809 50.3447C78.4809 50.3447 78.4987 50.371 78.4945 50.3931C78.4945 50.3931 78.4946 50.393 78.5082 50.4414C78.5577 50.5423 78.6113 50.621 78.6607 50.7219C79.0509 51.4365 79.4149 52.1689 79.6821 52.9287C79.741 53.1 79.7999 53.2713 79.8589 53.4426C79.8904 53.5172 79.9 53.5877 79.9315 53.6623C79.9273 53.6843 79.9452 53.7106 79.9631 53.7369C79.9631 53.7369 79.9547 53.781 79.9726 53.8073C80.0599 54.1898 80.1473 54.5724 80.1643 54.9644C80.1696 55.0569 80.1706 55.1714 80.1759 55.2639C80.1759 55.2639 80.1675 55.3081 80.1634 55.3302C80.1603 55.4668 80.1529 55.6255 80.1278 55.7579C80.0984 55.9124 80.0648 56.089 80.0354 56.2435L80.0134 56.2394Z" fill="#010101"/>
<path d="M72.9824 45.2283C72.9149 44.6208 72.4051 44.2952 71.8532 44.1903C70.8379 43.9973 70.0157 43.2692 69.2209 42.6378C68.302 41.9371 67.3831 41.2365 66.4685 40.5137C65.5717 39.8172 64.6559 38.9799 63.4494 39.0707C63.194 39.0908 63.0143 39.1939 62.8483 39.3453C62.9984 38.9164 62.8878 38.4151 62.4663 38.1062C62.2266 37.9235 61.9617 37.8731 61.6801 37.9111C61.6138 37.8985 61.5781 37.8459 61.516 37.8112L61.4719 37.8028C60.9883 37.4593 60.4395 37.2178 59.8656 37.1087C59.8257 37.0783 59.7899 37.0257 59.75 36.9953C59.5198 36.8829 59.2329 36.8283 58.9649 36.9146C58.8903 36.9462 58.8335 37.004 58.7768 37.0619C58.2839 37.1283 57.8594 37.4364 57.807 37.9525C57.7902 38.0408 57.8438 38.1195 57.8712 38.2162C57.8019 38.3403 57.7368 38.4423 57.6454 38.5621C57.4931 38.7619 57.3408 38.9616 57.1706 39.1351C56.9962 39.3306 56.8796 39.583 56.8955 39.8604C56.8935 40.1116 57.0239 40.388 57.1974 40.5582C57.3929 40.7326 57.6452 40.8492 57.9227 40.8333C58.1781 40.8132 58.4461 40.7269 58.6205 40.5314C58.9734 40.1182 59.3085 39.6787 59.5995 39.2309C59.6878 39.2477 59.7761 39.2644 59.8381 39.2991C59.8381 39.2991 59.8739 39.3516 59.8918 39.3779C59.8918 39.3779 59.8917 39.3779 59.8876 39.4C59.956 39.6417 60.1389 39.8823 60.3692 39.9947C60.5952 40.1291 60.9084 40.1658 61.1543 40.0753C61.2509 40.048 61.3077 39.9901 61.3866 39.9365C61.4307 39.9449 61.4885 40.0016 61.5326 40.01C61.8637 40.073 62.1896 40.0434 62.4743 39.8688C62.5269 39.833 62.5615 39.7711 62.6182 39.7132C62.4125 40.3145 62.7417 41.1089 63.5562 41.0351C64.1816 40.9938 64.8093 41.6621 65.2667 42.0235C65.7061 42.3586 66.1235 42.6895 66.563 43.0246C66.48 43.1003 66.4232 43.1581 66.3581 43.2601C66.2278 43.464 66.0934 43.69 65.9631 43.894C65.2946 43.5611 64.6522 43.2103 63.9836 42.8773C63.5274 42.6305 62.8633 42.7558 62.608 43.2562C62.4263 43.6105 62.4612 44.0288 62.6757 44.344L62.4108 44.2937C62.2217 44.3263 62.0766 44.3674 61.9232 44.4526C61.8706 44.4883 61.7918 44.5419 61.7393 44.5777C61.6121 44.645 61.5292 44.7207 61.4599 44.8448C61.3727 44.9426 61.3033 45.0666 61.2781 45.199C61.253 45.3314 61.2278 45.4639 61.273 45.5869C61.2699 45.7235 61.3152 45.8465 61.3867 45.9515C61.4225 46.0041 61.4802 46.0608 61.516 46.1133C61.4939 46.1091 61.4498 46.1008 61.4015 46.1144C61.1598 46.1829 60.9191 46.3658 60.8068 46.5961C60.7942 46.6623 60.7816 46.7285 60.769 46.7947C60.6807 46.7779 60.5882 46.7832 60.5136 46.8148C60.2677 46.9053 60.0576 47.0483 59.9189 47.2964C59.6679 47.7747 59.4169 48.253 59.148 48.7051C58.7842 48.4529 58.4247 48.1787 58.0651 47.9045C58.2984 47.8803 58.5222 47.7856 58.6704 47.6079C58.9015 47.3546 59.119 47.0528 59.2881 46.7648C59.4614 46.4546 59.5947 46.1141 59.7239 45.7956C59.7407 45.7073 59.7533 45.6411 59.7259 45.5444C59.7564 45.5044 59.8089 45.4686 59.8394 45.4287L60.5169 44.3911C60.5169 44.3911 60.6934 44.4247 60.7723 44.371C61.0182 44.2806 61.2504 44.1417 61.367 43.8894C61.4835 43.6371 61.5297 43.3943 61.4476 43.1043C61.3792 42.8625 61.2846 42.6387 61.1899 42.4149C61.091 42.2131 60.9837 42.0555 60.8544 41.8937C60.5778 41.5438 60.2267 41.2255 59.8062 41.0312C59.576 40.9188 59.289 40.8643 59.021 40.9506C58.7793 41.019 58.5387 41.202 58.4263 41.4322C58.314 41.6624 58.2594 41.9493 58.3457 42.2173C58.4362 42.4632 58.575 42.6954 58.8273 42.812C58.8935 42.8246 58.9514 42.8813 59.0313 42.9423C59.0313 42.9423 59.0533 42.9465 59.0712 42.9728L58.1027 44.4582C58.0071 44.6001 57.9957 44.7809 58.0062 44.9659C57.9411 45.0679 57.8539 45.1656 57.8287 45.2981C57.8287 45.2981 57.8329 45.276 57.8371 45.254C57.7079 45.5725 57.5389 45.8605 57.3519 46.1223C57.3435 46.1664 57.2909 46.2022 57.2647 46.2201C57.0903 46.4156 56.9736 46.6679 56.9895 46.9454C56.9769 47.0116 57.0085 47.0862 57.0401 47.1608C56.8182 47.0043 56.5964 46.8477 56.3924 46.7175C56.1706 46.561 55.9667 46.4308 55.7449 46.2742C55.665 46.2133 55.5809 46.1744 55.501 46.1135C55.6659 45.8475 55.8529 45.5858 55.961 45.3776C56.2341 44.9035 56.503 44.4515 56.7761 43.9774C57.4263 42.8431 55.6676 41.8683 55.0216 42.9806C54.5364 43.8489 53.967 44.6784 53.5259 45.5551C53.0459 46.5159 53.5149 47.1769 54.3265 47.7199C56.0296 48.867 57.7244 50.0582 59.3665 51.2852C61.0087 52.5122 62.5636 53.837 64.1753 55.1039C64.8324 55.6176 65.6913 56.0325 66.5246 55.6191C66.6034 55.5655 66.6601 55.5077 66.7389 55.454C67.07 55.517 67.4526 55.4296 67.6837 55.1762C67.6837 55.1762 67.6879 55.1541 67.7142 55.1363C67.9191 54.9007 67.9998 54.5959 67.9619 54.3142C67.9966 54.2522 68.0533 54.1943 68.0838 54.1544C68.1878 53.9683 68.3138 53.7865 68.4178 53.6004C68.6132 53.2945 68.7906 52.9623 68.986 52.6564C69.3894 51.9783 69.8148 51.3044 70.2182 50.6263C71.0469 49.2744 71.8578 47.8962 72.6865 46.5443C72.7905 46.3582 72.8199 46.2037 72.8093 46.0187C73.0184 45.7612 73.1255 45.4384 73.0959 45.1126L72.9824 45.2283ZM62.7259 46.3662C62.7259 46.3662 62.8572 46.2768 62.9098 46.241C63.0369 46.1737 63.1199 46.098 63.1892 45.974C63.2764 45.8762 63.3457 45.7522 63.3709 45.6197C63.3961 45.4873 63.4213 45.3549 63.376 45.2319C63.3571 45.0911 63.3339 44.9723 63.2624 44.8672C63.2624 44.8672 63.2624 44.8672 63.2445 44.841C63.7849 45.1267 64.3073 45.386 64.8476 45.6717C64.6176 46.0396 64.3918 46.3855 64.1617 46.7535C64.0315 46.9574 64.0032 47.2265 64.0716 47.4682C63.9696 47.4031 63.8456 47.3338 63.7436 47.2686C63.6858 47.2119 63.65 47.1594 63.588 47.1247C63.1938 46.9126 62.8258 46.6825 62.4316 46.4704C62.5283 46.443 62.6429 46.4419 62.7217 46.3883L62.7259 46.3662ZM67.8817 50.5253C67.4132 51.3054 66.9447 52.0854 66.45 52.8833C66.4153 52.9453 66.3544 53.0252 66.3198 53.0873C66.1169 53.0716 65.9277 53.1042 65.748 53.2072C65.5421 53.3282 65.416 53.5101 65.3603 53.6825C65.3603 53.6825 65.3162 53.6741 65.2983 53.6478C65.0986 53.4955 64.9031 53.3211 64.7075 53.1467C64.4678 52.9639 64.2543 52.7632 64.0146 52.5804C64.125 52.6014 64.2396 52.6004 64.3405 52.5509C64.4151 52.5194 64.4897 52.4878 64.5643 52.4562C64.7177 52.3711 64.8354 52.2333 64.931 52.0914C65.1873 51.7056 65.4699 51.3018 65.7262 50.916C65.7955 50.792 65.8427 50.6637 65.8458 50.5271C65.871 50.3947 65.8741 50.2581 65.8288 50.1351C65.7836 50.0121 65.7384 49.8892 65.6406 49.802C65.5691 49.6969 65.4713 49.6097 65.3473 49.5404C65.1171 49.428 64.8301 49.3735 64.5621 49.4598C64.4875 49.4913 64.4129 49.5229 64.3383 49.5544C64.1849 49.6396 64.0672 49.7774 63.9716 49.9193C63.7153 50.3051 63.4327 50.7088 63.1764 51.0946C63.1071 51.2187 63.0599 51.3469 63.0568 51.4835C63.0358 51.5939 63.0589 51.7126 63.0821 51.8314C62.2873 51.2 61.4883 50.5908 60.6893 49.9815C60.975 49.4411 61.2869 48.8829 61.5726 48.3426C61.5726 48.3426 61.5726 48.3426 61.5768 48.3205C62.1529 48.6587 62.7247 49.019 63.2788 49.353C63.7308 49.6219 64.4034 49.4525 64.6544 48.9742C64.7973 48.704 64.8035 48.4307 64.7172 48.1627C64.7834 48.1753 64.858 48.1437 64.9242 48.1563C64.8823 48.3771 64.9286 48.6146 65.0538 48.7984C65.2147 49.0349 65.4186 49.1651 65.6751 49.2596C65.7192 49.268 65.7413 49.2722 65.7854 49.2806C66.2101 49.4528 66.6222 49.6912 67.0038 49.9696C67.1016 50.0568 67.2036 50.1219 67.2972 50.2312C67.4528 50.3751 67.6872 50.4654 67.8901 50.4811C67.8901 50.4811 67.8859 50.5032 67.8817 50.5253ZM70.1767 46.7533C70.1483 46.542 70.0578 46.2962 69.9022 46.1522C69.7067 45.9778 69.4544 45.8613 69.1769 45.8771C69.0844 45.8824 69.0098 45.914 68.9173 45.9193C68.746 45.9782 68.5926 46.0634 68.4791 46.1791C68.144 46.6185 67.8131 47.0359 67.478 47.4753C67.3908 47.5731 67.3256 47.6751 67.2784 47.8033C66.9241 47.6216 66.5699 47.44 66.203 47.3245C66.828 46.3226 67.453 45.3207 68.1001 44.3231C68.5574 44.6845 68.9969 45.0195 69.4847 45.341C69.8305 45.5668 70.1806 45.7706 70.5653 45.9123C70.6094 45.9207 70.6536 45.9291 70.7198 45.9417L70.2209 46.7617L70.1767 46.7533Z" fill="#010101"/>
<path d="M90.6707 120.496C89.7731 111.863 75.9538 108.162 67.0674 105.581C55.5164 102.218 42.6511 100.596 29.3809 100.864C24.6754 100.953 18.8485 100.806 14.2353 103.177C9.89858 105.417 8.47783 108.921 7.3913 112.351C7.21271 112.568 7.0205 112.738 6.89973 113.012C1.71923 124.263 -4.20231 135.442 -8.19706 147.193C-9.63329 151.38 -11.9938 157.06 -9.79347 161.367C-7.44059 165.953 -2.32019 165.486 1.99303 164.934C13.7094 163.456 25.3869 164.829 36.8724 167.333C42.9794 168.654 48.9835 170.275 55.0055 171.923C55.1379 171.948 55.3061 172.026 55.4385 172.051C57.9804 173.358 60.7451 174.455 63.8173 174.536C68.5732 174.662 72.0458 171.914 73.9206 168.429C76.7259 163.175 79.0498 157.808 81.2508 152.486C83.5378 146.951 85.5779 141.393 87.3227 135.824C88.8795 130.882 91.1833 125.259 90.6749 120.474L90.6707 120.496Z" fill="#C10230"/>
<path d="M48.4127 115.299C45.9886 117.103 43.5646 118.906 41.1626 120.714C40.7173 118.845 40.3907 116.953 40.3458 115.024C40.3201 113.715 38.5899 112.952 37.4404 113.945C35.8802 115.296 34.7624 116.844 33.8571 118.479C33.4619 118.632 33.1078 118.931 32.9272 119.4C31.6482 122.519 30.3514 125.611 29.0724 128.73C28.392 130.385 31.2628 131.525 32.186 129.917C32.2553 129.793 32.3026 129.665 32.3719 129.54C32.3719 129.54 32.3761 129.518 32.3803 129.496C34.1773 126.179 35.1408 122.314 37.2427 119.077C37.4829 120.7 37.8377 122.323 38.3859 123.891C38.7626 125.038 40.1889 125.354 41.2523 124.573C42.8757 123.372 44.5033 122.149 46.1267 120.948C44.6578 124.946 43.1889 128.944 41.72 132.941C41.0071 134.887 44.2267 135.636 45.0416 133.756C45.3346 133.057 45.6275 132.357 45.9205 131.658C46.0108 131.424 46.0527 131.203 46.0422 131.018C47.7903 126.273 49.5343 121.55 51.2605 116.801C51.8358 115.218 49.7387 114.339 48.4347 115.303L48.4127 115.299Z" fill="white"/>
<path d="M59.4694 117.401C57.3221 117.268 55.09 117.941 53.6906 119.528C53.2283 120.034 52.9521 120.645 52.7421 121.269C52.3828 121.475 52.0771 121.76 51.9837 122.131C51.482 124.048 51.1169 125.968 50.9285 127.922C50.7462 129.603 50.5399 131.531 51.9404 132.826C54.532 135.194 59.2862 133.285 61.8343 131.551C64.5705 129.669 66.6178 126.719 66.8752 123.681C67.2216 119.813 63.3278 117.677 59.4431 117.419L59.4694 117.401ZM63.4059 124.005C63.0545 125.973 61.7445 127.691 60.0119 128.986C59.2417 129.548 58.1719 130.123 57.2492 130.405C56.81 130.55 56.0669 130.729 55.7895 130.745C55.5341 130.765 55.2346 130.776 54.9876 130.752C54.9655 130.748 54.9655 130.748 54.8551 130.727C54.6123 130.681 54.7584 130.754 54.5545 130.624C54.4126 130.529 54.3031 130.142 54.2998 129.798C54.2975 129.089 54.3655 128.37 54.4556 127.655C54.5446 126.826 54.7703 126 54.9297 125.161C55.1189 125.128 55.286 125.091 55.4615 125.01C56.2727 124.593 56.6686 123.593 56.1859 122.884C56.1323 122.805 56.0786 122.726 56.0471 122.652C56.0555 122.607 55.9882 122.48 55.9966 122.436C55.9882 122.48 55.9944 122.207 56.0028 122.163C56.0489 121.92 56.2432 121.5 56.5006 121.228C56.7538 120.979 56.9902 120.818 57.4558 120.655C58.0664 120.451 58.7096 120.436 59.3181 120.483C60.4207 120.578 61.5917 120.915 62.4611 121.515C63.3348 122.093 63.581 122.963 63.4059 124.005Z" fill="white"/>
<path d="M78.7308 119.187C78.7768 118.464 78.3309 117.922 77.5836 117.642C76.1287 117.114 74.277 117.471 72.9803 118.277C71.4997 119.208 70.609 120.525 69.9221 121.972C69.2395 123.398 68.7734 124.887 69.0126 126.396C69.1716 127.364 69.6912 128.241 70.4818 128.894C69.8955 129.332 69.2955 129.721 68.7092 130.158C67.7509 130.868 66.8105 131.604 65.888 132.366C65.4026 132.754 64.8509 133.13 64.5074 133.613C63.9076 134.483 63.9993 135.324 64.6323 136.084C65.1759 136.714 66.4708 136.64 67.0823 136.07C67.4406 135.749 67.6044 135.369 67.6274 135.007C67.7892 134.878 67.951 134.748 68.0866 134.637C68.4932 134.303 68.8956 133.99 69.3243 133.66C70.1554 133.018 70.9866 132.375 71.8135 131.755C72.2685 131.407 72.7633 131.089 73.2404 130.745C72.9129 131.986 72.6076 133.232 72.3505 134.464C72.3505 134.464 72.3463 134.486 72.3421 134.508C72.317 134.641 72.2876 134.795 72.2624 134.927C72.1198 135.678 72.9503 136.362 73.6913 136.434C74.5868 136.536 75.3182 136.057 75.6637 135.322C75.776 135.092 75.8706 134.836 75.983 134.606C76.1037 134.331 76.0879 134.054 76.0016 133.786C76.9385 129.458 78.3252 125.171 80.0747 121.021C80.5231 119.985 79.6968 119.279 78.7571 119.169L78.7308 119.187ZM73.427 126.755C73.427 126.755 73.405 126.751 73.3829 126.747C73.3829 126.747 73.3387 126.739 73.3167 126.734C73.2725 126.726 73.2504 126.722 73.2063 126.713C73.1621 126.705 73.1401 126.701 73.0959 126.692C73.0297 126.68 72.9498 126.619 72.8878 126.584C72.8478 126.554 72.8079 126.523 72.79 126.497C72.7543 126.444 72.6922 126.41 72.6565 126.357C72.7679 126.493 72.7858 126.519 72.7143 126.414C72.6648 126.313 72.5933 126.208 72.5439 126.107C72.5302 126.059 72.4987 125.984 72.4671 125.91C72.4398 125.813 72.4303 125.742 72.4029 125.646C72.4029 125.646 72.3839 125.505 72.3828 125.39C72.3901 125.232 72.3974 125.073 72.4089 124.892C72.4215 124.826 72.4257 124.804 72.4299 124.782C72.4299 124.782 72.4383 124.738 72.455 124.649C72.4844 124.495 72.5401 124.323 72.5915 124.172C72.6986 123.85 72.8278 123.531 72.9527 123.235C73.0262 123.088 73.0777 122.938 73.1512 122.792C73.1512 122.792 73.2552 122.606 73.2636 122.562C73.4023 122.314 73.5409 122.066 73.7237 121.826C73.8151 121.706 73.9064 121.586 74.002 121.444C74.0367 121.382 74.063 121.364 74.0672 121.342C74.0672 121.342 74.0714 121.32 74.146 121.289C74.2595 121.173 74.3729 121.057 74.5043 120.968C74.5568 120.932 74.6923 120.821 74.7186 120.803C74.8237 120.731 74.9246 120.682 75.0475 120.637C75.1221 120.605 75.2451 120.56 75.2934 120.546C75.4385 120.505 75.5572 120.482 75.7022 120.441C75.7464 120.449 75.8168 120.44 75.8651 120.426C75.9093 120.435 75.9535 120.443 76.0239 120.433C76.1784 120.463 76.355 120.496 76.5011 120.57C76.5232 120.574 76.5452 120.578 76.5673 120.582C75.848 122.321 75.217 124.077 74.6259 125.863C74.6259 125.863 74.6259 125.863 74.6038 125.858C74.2098 126.126 73.8599 126.403 73.4659 126.671C73.4659 126.671 73.4659 126.671 73.4218 126.663L73.427 126.755Z" fill="white"/>
<path d="M30.3038 111.057C30.0444 108.812 28.4419 106.655 25.8079 106.314C22.6178 105.891 19.9606 108.199 17.9392 110.17C15.5816 112.466 13.5256 114.98 11.7577 117.663C7.96147 123.437 5.18497 129.862 3.30289 136.274C1.47224 142.535 0.413432 149.79 2.87302 155.861C3.86613 158.337 6.3294 160.177 9.41364 158.751C11.2694 157.891 12.9968 156.505 14.6917 155.409C16.7764 154.067 18.8611 152.725 20.9238 151.379C22.7501 150.194 21.1557 147.512 19.3032 148.715C16.071 150.799 12.8346 152.906 9.60244 154.99C9.13379 155.29 8.14196 156.176 7.59542 156.164C6.68312 156.151 6.36646 155.29 6.11818 154.671C5.55431 153.306 5.29726 151.77 5.14221 150.3C4.3662 143.795 6.32073 137.122 8.78202 130.911C11.0238 125.254 13.8395 119.706 17.962 114.863C19.2605 113.326 22.9824 108.544 25.5873 109.52C27.082 110.078 27.0082 112.031 26.5567 113.203C25.7936 113.127 24.9854 113.408 24.6852 114.265C24.3209 115.34 23.9524 116.436 23.566 117.506C22.9487 119.31 25.4851 120.044 26.6796 118.693C28.6106 116.475 30.6003 113.949 30.2776 111.075L30.3038 111.057Z" fill="white"/>
</g>
<path d="M88.8398 54.5776C89.3486 54.7887 89.8353 54.9955 90.3482 55.1845C91.3342 55.532 92.3076 55.9458 93.3325 56.2092C94.8345 56.6091 96.3839 56.8807 97.8986 57.2144C98.8477 57.3948 99.7801 57.6635 100.738 57.7998C101.942 57.9601 103.159 58.0543 104.376 58.1484C105.413 58.231 106.453 58.2916 107.48 58.3038C108.392 58.3171 109.287 58.3042 110.194 58.225C110.52 58.1955 110.853 58.0072 111.12 57.8064C111.229 57.7128 111.147 57.4227 111.229 57.2325C111.409 56.7636 111.355 56.5703 110.912 56.3718C110.049 55.979 109.182 55.6083 108.319 55.2156C107.101 54.6411 105.884 54.0667 104.667 53.4922C104.308 53.3326 103.958 53.1288 103.6 52.9692C102.825 52.5932 102.068 52.2436 101.293 51.8676C101.293 51.8676 101.302 51.8234 101.292 51.753C101.455 51.7382 101.6 51.6971 101.759 51.7044C103.394 51.7637 105.034 51.801 106.679 51.9307C107.649 52.0007 108.586 52.2474 109.539 52.4057C110.643 52.6155 111.767 52.7149 112.854 53.013C114.4 53.4213 115.899 53.9578 117.411 54.4281C117.906 54.5908 118.401 54.7536 118.884 54.9825C119.618 55.328 120.327 55.6914 121.031 56.0768C122.006 56.6051 122.989 57.0893 123.929 57.6796C125.028 58.3918 126.124 59.1261 127.128 59.9802C128.367 61.0392 129.55 62.1559 130.654 63.3264C131.585 64.3266 132.537 65.331 133.245 66.5405C133.76 67.4389 134.451 68.2564 134.94 69.1727C135.636 70.4484 136.23 71.7735 136.846 73.1029C137.089 73.6293 137.231 74.2052 137.501 74.7138C137.617 74.9418 137.958 75.0752 138.171 75.2759C138.465 75.5375 138.782 75.552 138.964 75.1978C139.111 74.9055 139.248 74.5429 139.241 74.2213C139.218 73.2565 139.13 72.2791 139.037 71.3237C138.997 70.8129 138.838 70.3253 138.772 69.8324C138.705 69.3395 138.735 68.8192 138.643 68.3441C138.43 67.2974 138.173 66.2423 137.89 65.205C137.621 64.2161 137.307 63.2188 136.98 62.1731C137.09 62.1941 137.257 62.1573 137.381 62.2266C137.864 62.4556 138.342 62.7066 138.816 62.9796C139.414 63.3221 140.008 63.6865 140.598 64.0731C141.712 64.8336 142.829 65.5721 143.912 66.3726C145.11 67.2865 146.108 68.4139 147.49 69.0881C147.866 69.274 148.314 69.0847 148.283 68.6443C148.219 67.5344 147.914 66.493 147.363 65.542C147.314 65.4411 147.238 65.3581 147.211 65.2614C146.877 64.489 146.574 63.6767 146.188 62.9401C145.587 61.7737 144.937 60.6209 144.256 59.5081C143.679 58.575 143.075 57.6598 142.388 56.8203C141.626 55.8978 140.759 55.0468 139.918 54.1779C139.192 53.4225 138.471 52.645 137.658 51.9874C136.646 51.1774 135.55 50.4431 134.477 49.7131C133.869 49.3002 133.214 49.0157 132.576 48.6428C131.894 48.2615 131.224 47.814 130.511 47.4727C129.422 46.9455 128.321 46.4845 127.219 46.0235C126.67 45.782 126.095 45.5584 125.534 45.383C124.778 45.1479 123.988 44.9748 123.22 44.8059C121.811 44.5153 120.407 44.2025 119.012 43.9603C118.014 43.7935 116.996 43.7372 115.982 43.6588C115.285 43.5949 114.58 43.5752 113.892 43.5817C113.139 43.5757 112.377 43.6138 111.637 43.6562C109.902 43.7609 108.171 43.8435 106.431 43.9703C105.643 44.0263 104.856 44.1969 103.967 44.3023C104.066 44.1383 104.105 44.0542 104.158 44.0184C105.544 42.8639 106.912 41.6831 108.293 40.5506C109.268 39.7525 110.279 39.0069 111.294 38.2393C111.723 37.9091 112.178 37.561 112.629 37.235C113.556 36.5652 114.528 35.9037 115.438 35.2076C115.814 34.9131 115.854 34.4633 115.604 34.0955C115.349 33.7498 114.992 33.7048 114.637 33.8889C113.207 34.5547 111.759 35.1943 110.342 35.9084C109 36.5911 107.694 37.3262 106.366 38.0572C105.954 38.2991 105.56 38.5672 105.144 38.8312C104.417 39.2876 103.672 39.7178 102.98 40.2267C102.267 40.7315 101.607 41.3151 100.916 41.824C100.303 42.2794 99.6105 42.6737 99.0158 43.1553C98.0145 43.9713 97.0268 44.8357 96.0612 45.7042C95.2616 46.4213 94.4799 47.1646 93.7025 47.8859C93.0342 48.5136 92.3881 49.1456 91.7378 49.7995C91.0874 50.4535 90.4771 51.138 89.8667 51.8225C89.4349 52.2893 89.003 52.756 88.6112 53.2533C88.15 53.8747 88.2995 54.2919 88.9764 54.5807L88.8398 54.5776Z" fill="#84B240"/>
<path d="M135.447 63.7347C135.774 64.7803 136.088 65.7776 136.357 66.7666C136.64 67.8038 136.897 68.859 137.11 69.9057C137.202 70.3807 137.172 70.901 137.239 71.394C137.305 71.8869 137.437 72.3924 137.504 72.8853C137.597 73.8406 137.685 74.818 137.708 75.7829C137.715 76.1045 137.578 76.4671 137.431 76.7594C137.249 77.1136 136.927 77.1211 136.638 76.8375C136.425 76.6368 136.106 76.5076 135.967 76.2754C135.698 75.7668 135.556 75.1909 135.313 74.6644C134.697 73.3351 134.102 72.01 133.407 70.7343C132.918 69.818 132.227 69.0005 131.712 68.1021C131.004 66.8926 130.074 65.8924 129.121 64.8879C128.021 63.6954 126.816 62.5745 125.595 61.5418C124.591 60.6877 123.495 59.9534 122.395 59.2412C121.478 58.6551 120.477 58.1446 119.498 57.6384C118.794 57.2529 118.085 56.8896 117.351 56.5441C116.89 56.3193 116.373 56.1524 115.878 55.9897C114.37 55.4973 112.845 54.9786 111.321 54.5746C110.234 54.2765 109.114 54.155 108.006 53.9673C107.057 53.7869 106.116 53.5623 105.146 53.4922C103.501 53.3625 101.861 53.3253 100.226 53.266C100.067 53.2587 99.9222 53.2998 99.7593 53.3145C99.7509 53.3587 99.7383 53.4249 99.7604 53.4291C100.535 53.8051 101.292 54.1548 102.067 54.5308C102.421 54.7124 102.775 54.8942 103.134 55.0538C104.351 55.6282 105.568 56.2027 106.786 56.7772C107.649 57.17 108.516 57.5406 109.379 57.9333C109.822 58.1318 109.872 58.3473 109.696 58.794C109.618 58.9622 109.696 59.2744 109.587 59.368C109.32 59.5688 108.987 59.757 108.661 59.7866C107.754 59.8657 106.859 59.8787 105.947 59.8654C104.92 59.8532 103.88 59.7926 102.843 59.71C101.626 59.6158 100.409 59.5217 99.2045 59.3613C98.247 59.2251 97.3104 58.9784 96.3654 58.7759C94.8508 58.4423 93.3015 58.1707 91.7994 57.7708C90.7746 57.5074 89.8011 57.0936 88.8151 56.7461C88.3022 56.5571 87.8155 56.3502 87.3067 56.1392C86.6076 55.8462 86.4582 55.4289 86.9414 54.8118C87.3112 54.3103 87.7651 53.8478 88.1969 53.3809C88.8073 52.6965 89.4398 52.0162 90.068 51.358C90.6963 50.6998 91.3646 50.0721 92.0328 49.4444C92.8145 48.701 93.5961 47.9577 94.3915 47.2626C95.357 46.3941 96.3447 45.5298 97.3461 44.7138C97.9408 44.2322 98.6112 43.8336 99.25 43.3604C99.9456 42.8294 100.601 42.2679 101.315 41.7631C102.002 41.2762 102.747 40.8461 103.478 40.3676C103.894 40.1036 104.266 39.8313 104.7 39.5936C106.028 38.8626 107.335 38.1275 108.677 37.4448C110.093 36.7307 111.541 36.0911 112.971 35.4253C113.349 35.2454 113.706 35.2904 113.938 35.6319C114.193 35.9776 114.149 36.4495 113.773 36.744C112.841 37.4359 111.891 38.1016 110.963 38.7715C110.512 39.0974 110.084 39.4276 109.629 39.7757C108.636 40.5475 107.603 41.2889 106.628 42.087C105.224 43.2153 103.856 44.3961 102.492 45.5548C102.435 45.6126 102.401 45.6747 102.301 45.8387C103.172 45.707 103.955 45.5585 104.766 45.5067C106.505 45.3799 108.24 45.2752 109.971 45.1925C110.711 45.1502 111.473 45.1121 112.227 45.1181C112.936 45.1157 113.615 45.1534 114.316 45.1951C115.33 45.2736 116.349 45.3299 117.346 45.4966C118.767 45.721 120.15 46.0296 121.554 46.3422C122.327 46.4891 123.109 46.7064 123.869 46.9194C124.452 47.0989 125.005 47.3184 125.554 47.5599C126.655 48.0209 127.775 48.5082 128.846 49.0091C129.559 49.3504 130.228 49.7979 130.911 50.1792C131.553 50.53 132.204 50.8366 132.811 51.2495C133.907 51.9837 134.98 52.7138 135.993 53.5238C136.805 54.1814 137.527 54.9589 138.252 55.7143C139.093 56.5832 139.965 57.4121 140.723 58.3567C141.41 59.1962 142.035 60.1156 142.591 61.0445C143.271 62.1573 143.921 63.31 144.523 64.4765C144.904 65.2352 145.212 66.0254 145.545 66.7978C145.595 66.8987 145.644 66.9996 145.698 67.0784C146.271 68.0336 146.576 69.075 146.617 70.1807C146.648 70.6211 146.2 70.8104 145.824 70.6246C144.469 69.9324 143.449 68.8008 142.246 67.9089C141.19 67.0906 140.05 66.3479 138.933 65.6095C138.365 65.2271 137.771 64.8626 137.151 64.516C136.677 64.2429 136.194 64.014 135.716 63.763C135.592 63.6937 135.451 63.7126 135.314 63.7095L135.447 63.7347ZM107.969 39.4831C107.969 39.4831 107.915 39.4042 107.88 39.3517C107.187 39.7461 106.473 40.1363 105.776 40.5528C104.615 41.2469 103.436 41.9147 102.288 42.6572C101.163 43.4038 100.065 44.2472 98.9753 45.0464C98.3931 45.4618 97.8111 45.8771 97.2647 46.345C96.338 47.1295 95.447 47.9664 94.5644 48.7592C93.9046 49.3428 93.2227 49.9222 92.5986 50.5583C91.5028 51.6308 90.4469 52.7337 89.369 53.8324C88.7186 54.4864 88.0641 55.1625 87.3486 55.9184C94.3072 57.8129 101.255 59.0421 108.447 58.6253C108.273 58.4551 108.092 58.329 107.901 58.2471C106.574 57.6517 105.211 57.1183 103.892 56.4787C102.967 56.0513 102.085 55.5177 101.173 55.024C100.716 54.7772 100.238 54.5262 99.8122 54.2394C99.0143 53.7447 98.2605 53.2583 97.2548 53.6161C97.0351 53.6887 96.7692 53.5238 96.5001 53.4955C96.5085 53.4513 96.5169 53.4072 96.5253 53.3631C96.9204 53.2095 97.3197 53.0338 97.7107 52.9023C99.5907 52.2762 101.536 52.0285 103.503 52.1507C105.174 52.2626 106.837 52.4185 108.504 52.5524C108.817 52.5891 109.13 52.6258 109.461 52.6887C110.123 52.8146 110.773 53.0067 111.431 53.1546C111.934 53.2732 112.416 53.3875 112.915 53.5282C113.719 53.7497 114.532 53.927 115.301 54.2105C116.075 54.4719 116.828 54.8437 117.597 55.1272C118.535 55.4884 119.485 55.7833 120.384 56.2286C121.451 56.7516 122.453 57.3767 123.446 58.0458C124.36 58.654 125.216 59.32 126.069 60.0082C127.503 61.127 128.846 62.3656 130.053 63.7157C131.069 64.8694 132.137 65.9872 133.047 67.2124C133.833 68.2537 134.453 69.4464 135.107 70.5771C135.416 71.1161 135.673 71.6909 135.955 72.2479C136.004 72.2342 136.074 72.2247 136.123 72.211C136.085 71.9294 136.065 71.6739 136.022 71.4143C135.976 71.1768 135.934 70.9172 135.888 70.6797C135.803 70.1605 135.745 69.6235 135.613 69.1181C135.352 68.085 135.046 67.0435 134.741 66.0021C134.487 65.176 134.236 64.3279 133.911 63.5114C133.685 62.8966 133.792 62.0936 134.285 62.0272C134.637 61.9798 135.013 62.1657 135.366 62.2328C136.594 62.5119 137.636 63.1674 138.712 63.7608C139.621 64.2765 140.494 64.8542 141.307 65.5119C142.515 66.4963 143.636 67.5784 144.809 68.6248C144.708 68.1939 144.655 67.7493 144.458 67.3458C144.003 66.3675 143.474 65.4207 142.967 64.4781C142.712 64.0179 142.482 63.5397 142.2 63.0973C141.476 61.9761 140.751 60.855 139.996 59.7738C139.563 59.1654 139.051 58.6106 138.587 58.0422C138.177 57.5525 137.775 57.0188 137.309 56.587C136.606 55.9503 135.873 55.3536 135.114 54.7748C133.836 53.7999 132.562 52.803 131.227 51.8859C130.623 51.451 129.932 51.1139 129.264 50.781C128.6 50.426 127.913 50.0668 127.214 49.7738C126.267 49.3422 125.311 48.9547 124.356 48.5673C123.653 48.2963 122.931 47.9992 122.194 47.7903C121.279 47.5478 120.374 47.3759 119.451 47.1776C118.348 46.9678 117.23 46.7096 116.114 46.566C114.883 46.4235 113.64 46.3473 112.414 46.2973C110.986 46.2316 109.553 46.188 108.112 46.1886C107.152 46.1889 106.183 46.2334 105.214 46.2779C104.637 46.3055 104.064 46.311 103.513 46.3206C102.826 46.3272 102.165 46.3159 101.385 46.3277C103.231 43.5912 105.48 41.3884 107.999 39.4431L107.969 39.4831Z" fill="white"/>
</g>
<defs>
<clipPath id="clip0_67_269">
<rect width="220.7" height="171.916" fill="white"/>
</clipPath>
</defs>
</svg>
