<svg width="114" height="115" viewBox="0 0 114 115" fill="none" xmlns="http://www.w3.org/2000/svg">
<g clip-path="url(#clip0_70_5)">
<path d="M93.9095 24.5598C88.0216 49.7134 85.2545 59.7623 81.6344 85.332C81.4264 86.8716 81.2391 87.683 80.9062 88.1407C60.6835 84.271 40.3152 81.2957 19.822 79.2152C21.8401 70.5602 22.6932 61.6557 22.3187 52.647C22.0482 46.0725 11.7496 45.698 12.02 52.3349C12.6026 66.5865 10.0227 80.2556 4.3429 93.3421C3.07378 96.2756 6.00734 100.187 9.10732 99.9996C22.1106 99.2506 35.1347 98.793 48.1588 98.6265C58.8943 100.062 69.6714 101.102 80.4901 101.102C81.0935 101.102 81.6552 100.977 82.1962 100.769C82.9868 100.769 83.7774 100.769 84.568 100.769C84.8384 100.769 85.0673 100.728 85.3169 100.686C86.2116 101.914 87.6263 102.642 89.1243 102.684C89.9565 104.057 91.0176 105.305 92.3491 106.449C97.28 110.631 104.52 104.327 99.839 99.3963C91.9122 91.0118 104.936 75.1166 99.0276 66.2119C100.65 52.6053 100.338 54.2489 101.025 40.5383C101.025 40.2886 101.025 40.0806 100.983 39.8517C101.878 35.7531 102.793 31.6753 103.75 27.5766C105.248 21.1478 95.4075 18.0894 93.9095 24.539V24.5598Z" fill="#F99D22"/>
<path d="M65.8633 96.1297C74.7056 97.1907 83.6102 98.4598 92.5148 98.9591C93.3262 99.0007 93.4303 97.8149 92.6397 97.7109C83.7974 96.525 74.8096 96.088 65.9257 95.4639C65.4888 95.4431 65.4264 96.0881 65.8633 96.1505V96.1297Z" fill="white"/>
<path d="M93.2444 82.6686C92.6827 87.7451 91.372 92.884 91.3096 98.0021C91.3096 99.0423 92.7243 99.188 92.9116 98.1477C93.827 93.1128 93.4941 87.8074 93.9102 82.7101C93.9518 82.2732 93.286 82.2109 93.2236 82.6478L93.2444 82.6686Z" fill="white"/>
<path d="M71.9604 108.426C74.1033 107.344 76.2463 106.241 78.41 105.201C80.5529 104.181 83.0704 103.682 85.0885 102.475C85.6711 102.121 85.6918 100.998 84.8388 100.998C82.467 100.998 80.1368 102.35 78.0771 103.453C75.7677 104.681 73.604 106.158 71.5235 107.739C71.149 108.03 71.5235 108.654 71.9604 108.446V108.426Z" fill="white"/>
<path d="M78.8663 108.633C82.8401 108.009 87.7918 106.199 90.7253 103.37C91.3495 102.766 90.7253 101.664 89.8931 102.038C87.979 102.912 86.273 104.285 84.4005 105.284C82.528 106.283 80.6347 107.198 78.6166 107.843C78.1589 107.989 78.4086 108.696 78.8663 108.633Z" fill="white"/>
<path d="M94.035 112.191C97.9464 109.445 102.544 107.989 106.393 105.159C107.184 104.577 106.352 103.245 105.478 103.703C101.254 105.908 96.6356 107.968 93.3692 111.567C92.9947 111.983 93.6397 112.483 94.0558 112.212L94.035 112.191Z" fill="white"/>
<path d="M88.1857 109.965C90.4743 109.507 92.5548 107.822 94.3232 106.366C94.989 105.825 94.2816 104.597 93.491 105.055C91.4729 106.22 89.6421 107.801 87.8736 109.299C87.6032 109.528 87.8112 110.027 88.1857 109.944V109.965Z" fill="white"/>
<path d="M16.995 5.98076C21.0312 7.20827 25.4835 7.31231 29.6653 7.74922C34.0136 8.20693 72.7114 11.8894 77.0597 12.3263C81.408 12.7632 85.7563 13.1794 90.1046 13.5955C94.3072 13.9908 98.7388 14.8646 102.962 14.6357C103.961 14.5733 104.127 12.8673 103.149 12.6384C99.0508 11.6189 94.5153 11.6398 90.3126 11.2445C85.9643 10.8284 81.616 10.433 77.2469 10.0377C72.8986 9.64245 34.2009 5.95997 29.8318 5.60628C25.6499 5.25259 21.26 4.52435 17.0574 4.96126C16.5372 5.02368 16.4541 5.83512 16.9534 5.98076H16.995Z" fill="white"/>
<path d="M14.2694 7.33297C13.3331 8.83095 13.2499 10.4746 13.0626 12.2014C12.7922 14.5524 12.5426 16.9034 12.2721 19.2336C11.7312 23.9772 8.27746 60.8649 7.81974 65.6293C7.38283 70.2481 6.92515 74.8668 6.48824 79.4856C6.25938 81.8574 6.03049 84.2292 5.80163 86.5802C5.59358 88.6607 5.19831 90.8036 5.44798 92.8841C5.57281 93.9036 7.13318 94.0493 7.44526 93.0714C8.71438 89.0976 8.5271 84.2916 8.90159 80.1513C9.3385 75.3869 9.79625 70.6226 10.2332 65.879C10.6701 61.2602 14.1445 24.5181 14.4982 19.8994C14.6855 17.5484 14.8727 15.1766 15.0392 12.8256C15.1848 10.9739 15.4761 9.18466 14.7895 7.41621C14.7063 7.20816 14.3734 7.16651 14.2486 7.37456L14.2694 7.33297Z" fill="white"/>
<path d="M104.875 16.5078C103.523 20.5024 103.294 24.7467 102.899 28.9285C102.462 33.4017 99.0288 69.9981 98.5919 74.4713C98.1758 78.9236 97.7389 83.355 97.3228 87.8074C96.9483 91.802 95.9288 96.2543 96.4073 100.27C96.5322 101.268 98.0926 101.414 98.3839 100.457C99.6114 96.608 99.4658 92.0516 99.8402 88.057C100.256 83.6047 100.672 79.1732 101.089 74.7209C101.505 70.2478 104.958 33.6513 105.374 29.1782C105.77 24.9963 106.352 20.7937 105.77 16.6118C105.707 16.1541 105 16.0709 104.854 16.5286L104.875 16.5078Z" fill="white"/>
<path d="M8.27299 95.4012C12.0803 97.0241 16.8031 96.9409 20.881 97.3778C25.2293 97.8563 63.927 101.539 68.2753 101.934C72.6236 102.35 76.9719 102.766 81.341 103.182C85.4396 103.578 90.1 104.68 94.1986 104.098C95.1557 103.973 95.3014 102.496 94.3859 102.184C90.4745 100.852 85.6893 101.06 81.5699 100.665L68.5042 99.4166C64.1559 99.0005 25.4581 95.318 21.089 94.9643C16.9904 94.6314 12.3716 93.6535 8.3354 94.5273C7.91929 94.6106 7.85686 95.1932 8.25216 95.3596L8.27299 95.4012Z" fill="white"/>
<path d="M27.2924 21.2723C29.4353 22.1461 31.8695 22.2293 34.1581 22.4998C36.5715 22.7703 73.3343 26.2655 75.7477 26.5152C80.4081 26.9937 85.3806 27.9923 90.0618 27.7219C91.0604 27.6595 91.2269 25.9742 90.249 25.7246C85.7135 24.5803 80.637 24.6219 75.9766 24.2266C73.5632 24.0186 36.8004 20.5233 34.3661 20.336C32.0776 20.1488 29.685 19.7951 27.3964 20.2528C26.8762 20.3568 26.8139 21.085 27.2924 21.2723Z" fill="white"/>
<path d="M27.082 20.6897C25.6465 21.938 25.8753 24.601 25.6465 26.3695C25.3136 29.0325 22.0263 63.8189 21.7767 66.482C21.5062 69.1658 21.2565 71.8289 20.986 74.5128C20.7572 76.9054 20.0915 79.6309 20.5076 82.0027C20.674 83.0222 22.1512 83.1469 22.5048 82.1899C23.3579 79.9221 23.2331 77.1343 23.4411 74.7417C23.6908 72.0578 23.9404 69.3739 24.1901 66.7108C24.4397 64.0477 27.6854 29.2406 27.8726 26.5775C27.9767 24.8299 28.684 22.2292 27.5397 20.7312C27.4357 20.6064 27.2276 20.5856 27.1028 20.6897H27.082Z" fill="white"/>
<path d="M89.8321 26.5361C88.8334 28.367 88.6254 30.3851 88.4381 32.4448C88.1676 35.1703 84.9012 70.0399 84.6308 72.7862C84.3811 75.3661 84.1314 77.9458 83.8818 80.5257C83.6737 82.7935 82.9872 85.4774 83.4657 87.7243C83.6945 88.723 85.0468 88.8686 85.4421 87.9115C86.2952 85.9142 86.1495 83.3552 86.3576 81.1915C86.6072 78.466 86.8777 75.7405 87.1274 73.015C87.377 70.4352 90.6227 35.6904 90.8723 33.1106C91.0804 30.926 91.33 28.7414 90.6435 26.6193C90.5394 26.2864 89.9777 26.2448 89.8113 26.5361H89.8321Z" fill="white"/>
<path d="M21.1742 82.2736C22.8802 83.3554 25.0023 83.3762 26.9788 83.6258C29.6419 83.9587 66.6544 87.4957 69.3383 87.7453C71.8557 87.9742 74.3732 88.2238 76.8906 88.4527C79.4081 88.6815 81.8838 89.2641 84.2556 88.848C85.2127 88.6815 85.3583 87.2876 84.4429 86.9339C82.3207 86.1433 79.845 86.2057 77.598 85.9768C74.9141 85.7272 72.251 85.4775 69.5671 85.207C67.0497 84.9574 30.1828 81.4621 27.6654 81.2956C25.5641 81.15 23.2547 80.7132 21.2366 81.4829C20.9453 81.6078 20.9037 82.0655 21.1742 82.2319V82.2736Z" fill="white"/>
<path d="M103.688 14.9478C104.52 14.0739 104.354 13.0129 104.936 12.0142C105.602 10.8699 106.934 11.2236 107.703 12.1182C108.244 12.7424 108.369 13.637 107.932 14.3652C107.35 15.3223 106.413 15.2599 105.415 15.2182C103.917 15.135 103.23 17.4236 104.791 17.9021C109.201 19.296 112.967 13.741 109.617 10.3706C108.078 8.8102 105.415 8.14447 103.688 9.76728C102.419 10.9532 101.379 14.1155 103.438 14.9894C103.522 15.031 103.646 15.0102 103.709 14.9478H103.688Z" fill="white"/>
<path d="M16.3084 5.95943C17.2654 6.33392 18.2017 6.22991 18.6178 5.12723C18.9507 4.29502 18.597 3.42121 18.0145 2.79705C16.5581 1.21585 13.9158 0.591682 11.9601 1.54872C10.0044 2.50576 9.13065 4.66951 9.734 6.75004C10.2749 8.62251 12.4178 10.8487 14.5608 10.3285C15.7051 10.0581 15.8299 8.58086 14.7688 8.08154C13.791 7.62382 12.8964 7.62384 12.3347 6.54197C11.9186 5.75137 11.8977 4.75275 12.6051 4.10779C13.4373 3.3588 14.54 3.50442 15.4554 3.96214C15.8091 4.14939 16.2668 4.39902 16.4749 4.77351C16.6205 5.02317 16.5165 4.46148 16.4749 4.75275C16.4541 4.9608 16.2252 5.46011 16.142 5.64736C16.0796 5.77219 16.1628 5.93864 16.2876 5.98025L16.3084 5.95943Z" fill="white"/>
<path d="M5.69402 92.1353C5.69402 92.1353 5.69398 92.1353 5.7772 92.1769C5.98525 92.2601 6.19332 92.1769 6.31815 92.0104C6.35977 91.9688 6.38055 91.9272 6.42216 91.8856C6.6094 91.6568 6.56784 91.303 6.40139 91.0742C5.79804 90.242 4.46651 90.3667 3.6135 90.762C2.65646 91.199 1.96988 92.1352 1.59539 93.0922C0.825593 95.0687 1.15843 97.7111 2.78124 99.1883C4.48727 100.728 7.10873 100.561 8.89798 99.2506C10.5624 98.0439 11.5403 95.0688 9.12688 94.0493C8.29467 93.6956 7.46248 94.4862 7.58731 95.3184C7.73294 96.2754 7.98261 96.6292 7.00476 97.2118C6.11014 97.7319 4.82018 97.8983 4.17522 96.9621C3.57187 96.1091 3.55107 94.7775 3.92556 93.8413C4.40409 92.593 5.46512 92.7594 6.29733 91.9896C6.08928 92.0312 5.86042 92.052 5.65237 92.0936C5.42351 91.9688 5.56918 91.407 5.42354 91.8231C5.38193 91.9688 5.48595 92.1561 5.6732 92.1144L5.69402 92.1353Z" fill="white"/>
<path d="M93.9541 101.809C91.083 102.225 92.3938 106.823 93.871 108.03C95.8267 109.611 99.3011 109.133 100.924 107.26C102.276 105.7 102.422 103.328 101.486 101.497C100.591 99.7288 98.0528 98.1268 96.4508 100.062C96.0347 100.582 96.2635 101.622 96.9709 101.789C97.7407 101.976 98.3024 101.851 98.781 102.517C99.2595 103.203 99.3635 104.347 98.989 105.076C98.4897 106.074 97.0541 106.324 96.0347 106.158C94.5991 105.929 94.0582 103.869 94.6823 102.704C94.9528 102.225 94.3911 101.726 93.9334 101.789L93.9541 101.809Z" fill="white"/>
<mask id="mask0_70_5" style="mask-type:luminance" maskUnits="userSpaceOnUse" x="21" y="-24" width="116" height="126">
<path d="M52.985 101.83L34.8637 96.2335C34.8637 96.2335 20.8618 96.7745 21.1738 95.9215C21.4859 95.0684 25.3349 55.6424 25.3349 55.6424L30.9107 -8.50007L78.1594 -24L136.248 -7.54304L123.868 97.3986L91.2459 99.6039L52.985 101.83Z" fill="white"/>
</mask>
<g mask="url(#mask0_70_5)">
<path d="M107.807 60.7192C108.431 58.7427 109.014 56.7455 109.554 54.7274C110.012 53.0006 110.907 50.92 110.449 49.11C109.971 47.2375 107.952 46.4261 106.309 45.8643C105.31 45.5315 104.291 45.2818 103.271 45.1361C103.084 44.9489 102.834 44.8032 102.543 44.6992C85.8781 38.7697 69.2755 32.7362 52.6938 26.5987C52.3817 26.2034 51.9239 25.9121 51.2998 25.8496C51.1541 25.8496 51.0085 25.808 50.8629 25.7872C50.6132 25.6 50.3635 25.4128 50.1139 25.2255C49.3233 24.5806 48.4703 24.6638 47.8253 25.1007C45.7032 24.4765 43.6434 23.6443 41.5421 22.9578C41.2716 22.7497 40.918 22.5832 40.5019 22.4792H40.4394C40.2106 22.1463 39.8777 21.8759 39.4824 21.7094C38.8791 21.439 38.2549 21.2101 37.61 21.0228C37.3811 20.9604 37.1314 20.9188 36.9026 20.9188C35.8207 20.4611 34.5724 21.0228 34.0939 22.1255C33.865 22.6456 33.8026 23.1242 33.8442 23.5195C33.6154 23.7067 33.4073 23.9564 33.2617 24.2685C31.8261 27.2853 30.8482 30.4684 30.3073 33.7349C30.3073 33.7349 30.3073 33.7556 30.3073 33.7764C27.2697 42.2026 24.2322 50.6495 21.1946 59.0756C20.5288 60.9065 19.551 62.883 20.1751 64.8595C20.7161 66.5448 22.1309 67.6058 23.6497 68.3756C25.3557 69.2286 27.249 69.728 29.0382 70.3313C31.1811 71.0595 33.3241 71.746 35.467 72.4326C38.1925 73.2856 40.918 74.1178 43.6643 74.9084C43.8931 75.3869 44.2884 75.7614 44.7877 75.9486C58.8729 80.8171 72.8124 86.0809 86.5855 91.7607C88.1251 92.4057 89.6854 93.2171 91.2875 93.6956C93.2223 94.2781 94.5955 93.3419 95.4277 91.6151C97.0714 88.1822 98.5069 84.6037 100.005 81.0876C102.855 74.3675 105.539 67.585 107.744 60.636L107.807 60.7192Z" fill="#C10230"/>
<path d="M100.773 52.2932C96.591 50.7953 92.4508 49.1308 88.3938 47.3208C87.1455 46.759 85.6059 47.7786 85.5227 49.1101C85.5227 49.2557 85.5226 49.4013 85.481 49.5469C84.2951 50.2543 84.0871 51.8147 83.9623 53.2087C83.8582 54.2489 84.732 55.5596 85.8763 55.518C86.5421 55.4972 87.1455 55.5597 87.8112 55.7053C88.0817 55.7677 88.3314 55.7469 88.581 55.6637C89.1428 55.8509 89.7253 56.0174 90.2454 56.2255C93.0541 57.4114 95.5716 58.951 98.6508 59.4087C99.5662 59.5336 100.523 58.8885 100.835 58.0563C101.231 57.0369 101.605 56.0174 102 55.0187C102.396 53.9577 101.855 52.6677 100.773 52.2724V52.2932Z" fill="#FFC20E"/>
<path d="M98.3188 88.8062C99.9208 85.082 101.523 81.358 103.062 77.613C104.831 73.3272 106.516 69.0204 108.014 64.6305C109.346 60.7815 110.573 56.8493 111.343 52.8339C111.759 50.5661 112.092 48.0488 110.323 46.2595C109.429 45.3649 108.222 44.8655 107.057 44.4286C105.767 43.9501 104.477 43.4924 103.187 43.0138C97.8818 41.079 92.5765 39.1649 87.2712 37.23C81.8826 35.2743 76.4941 33.3186 71.0847 31.3837C65.7169 29.4488 60.37 27.5139 55.0022 25.579C49.7177 23.6649 44.4123 21.7717 39.1278 19.8784C37.8587 19.4207 36.5272 18.755 35.1541 19.1295C34.0306 19.4415 33.2608 20.3986 32.7406 21.3972C32.1581 22.5415 31.8252 23.7898 31.4091 24.9965C30.9306 26.4112 30.452 27.8052 29.9735 29.2199C28.0594 34.7958 26.1453 40.3508 24.2521 45.9266C23.295 48.7145 22.338 51.5024 21.3809 54.2695C20.9024 55.6842 20.4239 57.0783 19.9454 58.493C19.4877 59.8245 18.9883 61.1561 18.593 62.5084C18.281 63.6111 18.2393 64.7761 18.7179 65.8372C19.134 66.7526 19.7998 67.5017 20.5904 68.0842C22.1924 69.2493 24.0441 69.8734 25.9165 70.4767C28.746 71.3922 31.5547 72.37 34.3635 73.3479C37.7339 74.5338 40.7923 75.6156 44.1627 76.8431C47.7204 78.1331 51.2781 79.4438 54.815 80.7754C58.3519 82.1069 61.8888 83.4384 65.4257 84.7699C68.6505 85.9974 71.8753 87.2458 75.1001 88.4941C77.7632 89.5344 80.447 90.5747 83.0893 91.6566C84.941 92.4056 86.8135 93.1545 88.6443 93.9243C89.1853 94.1531 89.7054 94.3821 90.2255 94.6317C91.5987 95.2767 93.0134 96.192 94.553 95.443C95.6765 94.9021 96.3423 93.633 96.904 92.5719C97.5698 91.3028 98.0691 89.9504 98.402 88.5565C98.7141 87.3082 96.7584 86.8922 96.4463 88.1405C96.1134 89.472 95.6349 90.7411 94.9691 91.9478C94.553 92.7176 93.9912 93.9243 92.9718 93.6955C92.2228 93.529 91.4946 93.0297 90.7873 92.6968C89.3725 92.0519 87.9161 91.4692 86.4806 90.8867C81.2585 88.7645 75.9947 86.7257 70.731 84.6868C63.9069 82.0653 57.0412 79.4855 50.1755 76.9473C43.7258 74.5755 37.2553 72.2244 30.7433 69.9982C29.4326 69.5613 28.1219 69.1036 26.8111 68.6875C25.1675 68.1466 23.6487 67.7097 22.1715 66.7735C21.5474 66.3782 20.9441 65.858 20.5696 65.1714C20.528 65.0882 20.4655 64.9426 20.4031 64.7346C20.3407 64.5265 20.3407 64.5056 20.3199 64.256C20.2783 63.6734 20.4447 63.0909 20.632 62.5499C21.5058 59.8661 22.4629 57.203 23.3783 54.5191C25.2508 49.0682 27.1232 43.6172 28.9957 38.1454C29.9319 35.4407 30.8473 32.7361 31.7836 30.0522C32.2621 28.6791 32.7198 27.3059 33.1984 25.9119C33.6145 24.7052 33.9265 23.5193 34.4675 22.4167C34.8211 21.6885 35.2997 20.9603 36.0903 20.9811C36.6104 21.0019 37.1305 21.2308 37.6091 21.3972C38.2748 21.6469 38.9614 21.8757 39.6272 22.1253C42.1862 23.0408 44.7453 23.9562 47.3043 24.8717C52.5472 26.7441 57.7693 28.6374 63.0122 30.5307C73.4565 34.2964 83.9215 38.083 94.3658 41.8696C96.9872 42.8266 99.5879 43.7628 102.209 44.7199C103.458 45.1776 104.706 45.6145 105.933 46.0722C106.995 46.4675 108.18 46.842 108.992 47.6743C110.303 49.0474 109.616 51.4191 109.283 53.0627C108.888 54.956 108.409 56.8493 107.848 58.701C105.413 66.9815 102.064 74.9707 98.6932 82.8975C97.9859 84.562 97.2785 86.2056 96.5711 87.8492C96.3631 88.3485 96.4879 88.9311 97.008 89.1808C97.4657 89.4096 98.1315 89.2431 98.3396 88.7438L98.3188 88.8062Z" fill="black"/>
<path d="M101.106 53.7286C100.336 55.7467 99.5662 57.7855 98.7964 59.8037C98.6092 60.2822 98.6924 60.9064 99.2333 61.1352C99.6702 61.3433 100.378 61.2393 100.565 60.6984C101.335 58.6803 102.104 56.6413 102.874 54.6232C103.061 54.1446 102.978 53.5206 102.437 53.2917C102 53.0837 101.293 53.1876 101.106 53.7286Z" fill="black"/>
<path d="M102.688 51.9604C100.108 50.4832 97.4242 49.214 94.6363 48.1738C93.2007 47.6328 91.7444 47.1543 90.2672 46.7382C89.539 46.5302 88.79 46.3429 88.041 46.1764C87.7081 46.0932 87.3752 46.0308 87.0423 45.9476C86.6887 45.8644 86.3142 45.7603 85.9605 45.802C84.9618 45.8852 84.7122 46.8839 84.3793 47.6537L83.5263 49.6925C83.235 50.3791 82.9437 51.0656 82.6525 51.7522C82.382 52.3972 82.1531 53.0422 82.1739 53.7496C82.2363 55.31 83.5679 56.1213 84.8994 56.5582C86.2726 56.9951 87.6873 57.3281 89.0813 57.765C92.2645 58.7844 95.3853 60.0744 98.4021 61.5724C98.8598 61.8012 99.5047 61.6347 99.7336 61.1354C99.9624 60.6569 99.796 60.0327 99.2967 59.8038C96.7168 58.5347 94.0746 57.4113 91.3699 56.4542C90.0383 55.9965 88.7068 55.5596 87.3545 55.1851C86.7095 54.9979 86.0645 54.8523 85.4195 54.665C85.3571 54.665 85.2947 54.6233 85.2323 54.6025C85.2115 54.6025 85.0035 54.5194 85.1283 54.561C85.2323 54.6026 85.0659 54.5402 85.0659 54.5402C85.0035 54.5194 84.9411 54.4986 84.8786 54.457C84.7538 54.3946 84.6498 54.3321 84.5249 54.2697C84.3585 54.1657 84.4625 54.2281 84.5249 54.2697C84.4417 54.2073 84.3793 54.1448 84.3169 54.0824C84.2128 53.9368 84.2961 54.0616 84.3169 54.0824C84.2753 54.0408 84.2545 53.9785 84.2129 53.916C84.3169 54.0825 84.1505 53.7287 84.1713 53.8327C84.1713 53.916 84.1713 53.5207 84.1713 53.6039C84.1713 53.7079 84.1713 53.5207 84.1713 53.4999C84.1713 53.4167 84.1921 53.3335 84.2129 53.2503C84.2129 53.2087 84.3377 52.855 84.2753 53.0214C84.3169 52.8966 84.3793 52.7718 84.4209 52.647C84.5666 52.3141 84.6914 51.9811 84.837 51.6482C85.3779 50.3375 85.9189 49.0476 86.4806 47.7368C86.4806 47.7368 86.5639 47.5704 86.5639 47.5288C86.5639 47.5704 85.7525 48.2778 86.127 47.7993C85.9189 47.7369 86.1062 47.8201 86.127 47.7993C86.2102 47.8201 86.2934 47.8408 86.3766 47.8408C86.7303 47.924 87.084 47.9866 87.4376 48.0698C88.1242 48.2362 88.79 48.4027 89.4766 48.5899C90.7457 48.9436 92.0772 49.3597 93.2839 49.7758C96.2175 50.8369 99.047 52.1475 101.752 53.7079C102.209 53.9784 102.875 53.7496 103.083 53.2711C103.312 52.7718 103.146 52.21 102.646 51.9395L102.688 51.9604Z" fill="black"/>
<path d="M30.3076 59.5334C34.0317 60.428 37.5894 61.697 41.0431 63.3615C41.5008 63.5903 42.1458 63.4238 42.3747 62.9245C42.6035 62.446 42.4578 61.8219 41.9377 61.5931C38.3592 59.8662 34.5727 58.5138 30.7029 57.5984C30.1827 57.4735 29.6418 57.8481 29.517 58.3683C29.4129 58.9092 29.7666 59.4292 30.2867 59.5541L30.3076 59.5334Z" fill="black"/>
<path d="M46.6163 65.3797C50.4236 66.5032 54.1062 68.1051 57.5807 70.1024C58.0384 70.3521 58.7041 70.1441 58.9122 69.6656C59.141 69.1662 58.9746 68.6045 58.4753 68.334C54.8552 66.2535 51.0062 64.6099 47.0116 63.424C46.4914 63.2784 45.9297 63.6944 45.8257 64.1938C45.7008 64.7555 46.0754 65.2132 46.5955 65.3797H46.6163Z" fill="black"/>
<path d="M63.4071 72.1623C64.3434 72.2248 65.4669 72.6826 66.4239 73.0154C67.4434 73.3899 68.5252 73.8061 69.5655 74.2222C71.7292 75.1168 73.8306 76.1154 75.9111 77.1973C76.3688 77.447 77.0346 77.2597 77.2426 76.7604C77.4715 76.261 77.3051 75.6785 76.8057 75.4288C74.6628 74.3053 72.4782 73.2651 70.2313 72.3497C69.0662 71.8711 67.9011 71.4342 66.7152 71.0181C65.5917 70.6228 64.5098 70.2483 63.3031 70.1651C62.7622 70.1235 62.3253 70.7269 62.3669 71.2054C62.3877 71.7879 62.8662 72.1208 63.4071 72.1416V72.1623Z" fill="black"/>
<path d="M81.7799 79.2566C83.5692 79.7976 85.2752 80.4217 86.9813 81.1707C87.8551 81.5452 88.7081 81.9613 89.5611 82.3774C89.9564 82.5855 90.3725 82.7935 90.7678 83.0016C90.9759 83.1056 91.184 83.2305 91.392 83.3345C91.496 83.3969 91.6208 83.4593 91.7248 83.5217C91.7665 83.5425 91.8081 83.5634 91.8289 83.5842C92.0162 83.709 91.9954 83.6674 91.7041 83.4385C91.6625 83.2721 91.6 83.1264 91.5584 82.9599C91.5584 82.9807 91.5584 83.0016 91.5584 83.0224C91.6417 82.7727 91.7249 82.5439 91.8289 82.2943C91.8289 82.2943 91.8289 82.2941 91.8081 82.315C92.0369 82.2109 92.2658 82.107 92.4947 82.0029C92.5571 82.0029 92.6195 82.0029 92.6819 82.0029L93.1604 82.2526C93.1604 82.2526 93.1605 82.2526 93.1397 82.2318C93.2229 82.3774 93.3269 82.5231 93.4101 82.6687C93.4101 82.6687 93.4101 82.6687 93.4101 82.6479C93.3477 82.9808 93.2645 83.2928 93.2021 83.6257C93.2021 83.6257 93.202 83.6257 93.2228 83.6049C93.5765 83.2304 93.5765 82.5438 93.1604 82.1901C92.7443 81.8364 92.141 81.8365 91.7457 82.2526C91.7457 82.2526 91.7457 82.2526 91.7248 82.2734C91.496 82.5231 91.392 82.9183 91.5168 83.2512C91.8497 84.125 93.0148 84.2707 93.4933 83.4385C93.743 83.0224 93.5765 82.4607 93.2437 82.1278C93.0356 81.9197 92.7235 81.7741 92.453 81.6285C91.392 81.0251 90.2893 80.4634 89.1658 79.9432C86.9189 78.8822 84.5887 78.0083 82.2169 77.3009C81.6968 77.1553 81.135 77.5714 81.031 78.0707C80.9062 78.6325 81.2806 79.0902 81.8008 79.2566H81.7799Z" fill="black"/>
<path d="M108.391 47.2376C107.288 47.6537 106.207 48.1323 105.166 48.7148C104.896 48.8605 104.813 49.2765 104.979 49.547C105.166 49.8174 105.52 49.9007 105.811 49.7343C106.061 49.6094 106.31 49.4638 106.56 49.339C106.685 49.2766 106.81 49.2141 106.935 49.1517C106.997 49.1309 107.06 49.0893 107.122 49.0685C107.039 49.1101 107.205 49.0269 107.122 49.0685C107.164 49.0685 107.205 49.0268 107.226 49.0268C107.725 48.798 108.245 48.5899 108.766 48.3819C109.057 48.2779 109.265 47.945 109.161 47.6329C109.057 47.3417 108.724 47.1336 108.412 47.2376H108.391Z" fill="black"/>
<path d="M109.468 49.0062C108.137 49.2975 106.867 49.7551 105.64 50.3377C105.515 50.4001 105.411 50.5873 105.37 50.7122C105.349 50.8578 105.37 51.0451 105.453 51.1491C105.661 51.4404 105.973 51.4821 106.285 51.3364C106.389 51.2948 106.243 51.3364 106.306 51.3364C106.347 51.3364 106.389 51.2947 106.431 51.2739C106.493 51.2323 106.576 51.2116 106.639 51.1908C106.784 51.1284 106.93 51.0659 107.076 51.0035C107.367 50.8786 107.679 50.7747 107.991 50.6706C108.594 50.4626 109.219 50.2961 109.843 50.1505C110.155 50.0881 110.342 49.6927 110.238 49.4014C110.113 49.0685 109.822 48.9438 109.489 49.0062H109.468Z" fill="black"/>
<path d="M110.323 51.1282C108.596 51.3987 106.932 51.8981 105.351 52.6471C105.06 52.7719 104.997 53.2296 105.164 53.4792C105.372 53.7705 105.684 53.8122 105.996 53.6665C105.933 53.7081 106.037 53.6665 106.058 53.6457C106.1 53.6249 106.142 53.604 106.204 53.5832C106.287 53.5416 106.391 53.5 106.495 53.4584C106.682 53.3752 106.849 53.3128 107.036 53.2296C107.411 53.0839 107.785 52.9591 108.16 52.8343C108.534 52.7302 108.909 52.6262 109.283 52.5221C109.491 52.4805 109.678 52.4389 109.886 52.3973C109.928 52.3973 109.97 52.3974 110.011 52.3766C109.928 52.3766 110.053 52.3766 110.074 52.3766C110.178 52.3766 110.303 52.3349 110.407 52.3141C110.719 52.2725 111.01 52.0229 110.968 51.69C110.947 51.3987 110.677 51.0658 110.344 51.1282H110.323Z" fill="black"/>
<path d="M109.657 53.3333C107.909 53.9575 106.203 54.7273 104.58 55.6635C104.31 55.8299 104.227 56.2253 104.393 56.4958C104.58 56.787 104.934 56.8494 105.225 56.6829C106.744 55.8091 108.346 55.0601 110.01 54.4776C110.323 54.3736 110.489 54.0407 110.406 53.7286C110.302 53.4374 109.969 53.2293 109.657 53.3333Z" fill="black"/>
<path d="M108.431 56.7664C106.767 57.1825 105.144 57.8067 103.625 58.5765C103.355 58.7221 103.272 59.1591 103.438 59.4087C103.646 59.7 103.958 59.7415 104.27 59.5959C104.645 59.4087 104.936 59.263 105.311 59.0966C105.685 58.9302 106.059 58.7845 106.455 58.6388C107.225 58.3476 108.015 58.1187 108.806 57.9107C109.118 57.8275 109.305 57.453 109.201 57.1617C109.076 56.8497 108.785 56.6832 108.452 56.7664H108.431Z" fill="black"/>
<path d="M107.847 59.9702C105.933 60.1575 104.082 60.7193 102.355 61.5931C102.064 61.7387 102.001 62.1548 102.168 62.4252C102.355 62.7165 102.709 62.7582 103 62.6125C104.498 61.8635 106.225 61.3434 107.91 61.177C108.222 61.1353 108.492 60.8857 108.472 60.5528C108.472 60.2407 108.16 59.9494 107.847 59.991V59.9702Z" fill="black"/>
<path d="M106.309 62.3626C104.603 62.9244 102.939 63.5693 101.316 64.3183C101.025 64.464 100.816 64.7344 100.92 65.0673C101.004 65.3377 101.378 65.5874 101.67 65.4626C103.292 64.7136 104.957 64.0478 106.663 63.5069C106.975 63.4029 107.141 63.07 107.058 62.7579C106.954 62.4458 106.621 62.2794 106.309 62.3626Z" fill="black"/>
<path d="M105.661 64.6512C104.018 65.2129 102.395 65.7747 100.751 66.3364C100.46 66.4404 100.252 66.7733 100.356 67.0854C100.46 67.3767 100.793 67.5847 101.105 67.4807C102.749 66.9189 104.371 66.3572 106.015 65.7955C106.306 65.6914 106.514 65.3586 106.41 65.0465C106.306 64.7552 105.973 64.5472 105.661 64.6512Z" fill="black"/>
<path d="M105.164 68.6879C103.375 69.0208 101.606 69.5617 99.9213 70.2899C99.63 70.4147 99.4219 70.706 99.526 71.0389C99.6092 71.3301 99.9837 71.559 100.275 71.4342C101.96 70.706 103.708 70.1858 105.518 69.8321C105.83 69.7697 105.996 69.3536 105.913 69.0832C105.809 68.7503 105.476 68.6255 105.164 68.6879Z" fill="black"/>
<path d="M103.602 71.6836C101.938 71.9333 100.315 72.3286 98.7338 72.9112C98.4425 73.0152 98.2344 73.348 98.3385 73.6601C98.4425 73.9514 98.7753 74.1594 99.0874 74.0554C100.565 73.5145 102.146 73.1192 103.644 72.8903C103.956 72.8487 104.247 72.5991 104.205 72.2662C104.185 71.9749 103.914 71.6628 103.581 71.7044L103.602 71.6836Z" fill="black"/>
<path d="M102.208 74.2425C100.565 74.6586 98.9628 75.1996 97.4232 75.8862C97.1319 76.011 96.9239 76.3023 97.0279 76.6352C97.1319 76.9056 97.4648 77.1553 97.7769 77.0305C99.3165 76.3439 100.918 75.803 102.562 75.3869C102.874 75.3037 103.061 74.9291 102.957 74.6378C102.833 74.3257 102.541 74.1593 102.208 74.2425Z" fill="black"/>
<path d="M100.856 76.5106C99.3372 77.1972 97.7352 77.7382 96.1124 78.1127C95.8004 78.1751 95.6131 78.5703 95.7171 78.8616C95.842 79.1945 96.1333 79.3193 96.4661 79.2569C98.089 78.8824 99.691 78.3415 101.21 77.6549C101.501 77.53 101.709 77.2388 101.605 76.9059C101.501 76.6355 101.168 76.3858 100.856 76.5106Z" fill="black"/>
<path d="M100.026 80.0889C98.3619 80.3177 96.7599 80.8171 95.2619 81.5869C94.9915 81.7325 94.9083 82.1695 95.0747 82.4192C95.2828 82.7104 95.5948 82.752 95.9069 82.6063C95.9901 82.5647 96.0733 82.5231 96.1566 82.4815C96.1982 82.4607 96.2398 82.44 96.2814 82.4192C96.3022 82.4192 96.4063 82.3567 96.323 82.3983C96.4895 82.3151 96.6767 82.2318 96.8432 82.1694C97.1969 82.0238 97.5505 81.899 97.925 81.7742C98.2787 81.6702 98.6532 81.5661 99.0069 81.4829C99.0901 81.4621 99.1941 81.4412 99.2982 81.4204C99.3398 81.4204 99.4022 81.4204 99.4438 81.3996C99.6311 81.358 99.3814 81.3996 99.4854 81.3996C99.6935 81.358 99.8807 81.3372 100.089 81.3164C100.401 81.2748 100.692 81.0252 100.65 80.6923C100.63 80.401 100.359 80.0889 100.026 80.1305V80.0889Z" fill="black"/>
<path d="M99.1531 82.5645C97.6135 82.8973 96.1364 83.4383 94.7424 84.1873C94.4719 84.333 94.3887 84.7699 94.5552 85.0196C94.7424 85.3109 95.0753 85.3524 95.3874 85.2068C95.5538 85.1235 95.7202 85.0403 95.8867 84.9571C95.9283 84.9363 95.97 84.9156 96.0116 84.8948C96.0116 84.8948 96.1572 84.8323 96.0947 84.8531C96.0531 84.8739 96.1988 84.8115 96.178 84.8115C96.2196 84.8115 96.2404 84.7698 96.282 84.7698C96.6357 84.6242 96.9894 84.4786 97.3431 84.3538C98.0504 84.1041 98.7786 83.896 99.5068 83.7295C99.8189 83.6671 100.006 83.2719 99.9021 82.9806C99.7773 82.6477 99.486 82.5229 99.1531 82.5853V82.5645Z" fill="black"/>
<path d="M97.196 85.3529C95.8021 85.8106 94.3874 86.2891 92.9934 86.7468C92.7021 86.8508 92.4941 87.1838 92.5981 87.4959C92.7021 87.7871 93.035 87.9951 93.3471 87.891C94.7411 87.4333 96.1558 86.9548 97.5498 86.4971C97.841 86.3931 98.0491 86.0602 97.9451 85.7482C97.841 85.4569 97.5081 85.2488 97.196 85.3529Z" fill="black"/>
<path d="M96.279 87.8285C94.7186 88.1198 93.1998 88.4943 91.681 88.9936C91.3898 89.0976 91.1817 89.4305 91.2857 89.7425C91.3897 90.0546 91.7227 90.2419 92.0347 90.1378C93.5327 89.6593 95.0723 89.264 96.6327 88.9728C96.9448 88.9103 97.1112 88.4943 97.028 88.2238C96.9032 87.8909 96.6119 87.7661 96.279 87.8285Z" fill="black"/>
<path d="M95.2617 89.7841C94.0342 90.0545 92.8067 90.3459 91.5792 90.6163C91.2671 90.6787 91.0799 91.074 91.1839 91.3653C91.3088 91.6982 91.6 91.823 91.9329 91.7606L95.6154 90.9283C95.9275 90.8659 96.1148 90.4706 96.0108 90.1794C95.8859 89.8465 95.5946 89.7216 95.2617 89.7841Z" fill="black"/>
<path d="M94.6143 91.7607C94.0734 91.9272 93.5116 92.0728 92.9707 92.1768C92.9083 92.1768 92.8459 92.1976 92.7835 92.2184C92.7418 92.2184 92.7211 92.2184 92.6795 92.2184C92.5754 92.2184 92.617 92.2184 92.6795 92.2184C92.5338 92.2392 92.409 92.26 92.2633 92.2808C91.9721 92.3225 91.7016 92.3641 91.4103 92.4057C91.0982 92.4473 90.807 92.6969 90.8486 93.0298C90.8694 93.3419 91.1398 93.6332 91.4727 93.5916C92.6794 93.446 93.8653 93.217 95.0096 92.8633C95.3009 92.7801 95.509 92.4056 95.4049 92.1144C95.3009 91.8023 94.968 91.6358 94.6559 91.7191L94.6143 91.7607Z" fill="black"/>
<path d="M56.3555 33.3603C53.2555 32.0288 50.1139 30.7804 46.9515 29.6362C43.9764 28.5543 40.918 27.2644 37.714 27.1812C37.2563 27.1812 36.7778 27.1812 36.3616 27.4516C35.8831 27.7845 35.6543 28.3046 35.5919 28.8664C35.4878 29.8026 35.4046 30.7388 35.3006 31.6959C35.2381 32.2368 35.5086 32.7569 36.0703 32.8818C36.5489 32.9858 37.1938 32.6529 37.2563 32.112C37.3395 31.3422 37.4227 30.5724 37.4851 29.8026C37.4851 29.6361 37.5268 29.4697 37.5476 29.2824C37.5476 29.1992 37.61 29.0744 37.5891 29.012C37.5891 28.8872 37.6307 29.012 37.5683 29.012C37.5267 29.012 37.3603 29.22 37.3187 29.1576H37.5267C37.714 29.1576 37.922 29.1576 38.1093 29.1576C39.3784 29.22 40.814 29.5946 42.0831 29.9899C44.9334 30.8845 47.7421 31.9872 50.53 33.0898C52.1736 33.7348 53.8173 34.4214 55.4401 35.1079C55.9186 35.316 56.5427 35.1912 56.7716 34.6711C56.9796 34.2133 56.8548 33.5475 56.3347 33.3395L56.3555 33.3603Z" fill="black"/>
</g>
</g>
<defs>
<clipPath id="clip0_70_5">
<rect width="114" height="115" fill="white"/>
</clipPath>
</defs>
</svg>
