<svg width="126" height="134" viewBox="0 0 126 134" fill="none" xmlns="http://www.w3.org/2000/svg">
<path d="M36.2756 20.3715C36.9924 12.3298 49.5813 12.3969 48.9317 20.573C47.6101 37.642 46.2885 44.9893 44.9892 62.0359C44.3396 70.3016 43.7125 78.5897 43.0628 86.8554C42.682 91.7163 39.882 102.58 42.7716 107.643C57.3318 109.435 71.7352 111.317 86.2506 112.504C91.1562 112.392 96.0619 112.28 100.968 112.168C102.648 100.632 103.902 89.0282 104.753 77.4025C105.358 69.316 118.014 69.4504 117.409 77.6041C116.491 89.8347 115.102 101.998 113.355 114.139C119.201 116.245 118.328 126.437 110.98 126.392C101.326 126.347 91.6714 126.302 82.0169 126.28C80.6953 126.28 79.5976 125.899 78.724 125.339C63.3799 125.675 48.0357 126.034 32.6915 126.37C29.4435 126.437 26.1506 123.256 26.4642 119.941C29.7347 83.5178 32.9827 56.8167 36.2531 20.3939L36.2756 20.3715Z" fill="#C10230"/>
<path d="M103.407 114.856C105.602 117.342 108.223 119.134 110.709 121.33C112.658 123.055 114.943 125.698 114.338 128.498C114.137 129.461 112.613 129.439 112.255 128.61C111.673 127.243 111.493 125.966 110.508 124.757C109.477 123.48 108.201 122.405 106.969 121.307C105.199 119.739 102.825 117.79 102.601 115.237C102.556 114.811 103.049 114.498 103.362 114.856H103.407Z" fill="white"/>
<path d="M41.1552 111.742C38.9375 112.28 36.8543 115.551 35.3983 117.141C33.7406 118.911 31.9263 120.77 29.5518 121.464C27.6702 122.024 26.7069 119.023 28.4542 118.239C33.0238 116.155 35.7119 110.869 41.0655 110.6C41.7375 110.555 41.7375 111.608 41.1327 111.742H41.1552Z" fill="white"/>
<path d="M37.4181 2.74294C40.151 3.66135 42.615 4.96056 44.8326 6.79738C46.647 8.3206 49.1335 10.1798 49.7607 12.5318C50.0743 13.6967 48.5511 14.6375 47.6103 13.9431C45.8407 12.6215 44.6086 10.3813 43.0182 8.81332C41.1366 6.9541 39.1878 5.05013 36.9925 3.54931C36.5669 3.25811 36.9029 2.56371 37.4181 2.72051V2.74294Z" fill="white"/>
<path d="M122.652 9.68674C120.367 11.4788 117.903 13.0691 115.484 14.682C113.602 15.9588 111.295 18.1765 108.965 18.1541C108.293 18.1541 107.666 17.2804 107.98 16.6532C109.032 14.5476 111.9 13.4276 113.849 12.1956C116.29 10.6499 118.799 8.99238 121.487 7.91717C122.54 7.49156 123.66 8.88033 122.652 9.68674Z" fill="white"/>
<path d="M60.7146 133.538C58.945 132.037 57.1305 130.603 55.1593 129.394C54.0617 128.722 52.9417 128.05 51.7321 127.534C50.8137 127.131 49.94 126.93 49.2456 126.168C48.596 125.451 49.1113 124.51 49.9177 124.242C52.0233 123.57 55.0921 126.101 56.5929 127.288C58.5193 128.789 60.6026 130.491 61.6554 132.709C61.9242 133.246 61.2298 133.963 60.7146 133.515V133.538Z" fill="white"/>
<path d="M74.1083 133.515C71.8011 132.395 69.4715 131.275 67.1419 130.133C65.2154 129.17 62.8858 128.363 61.5194 126.639C60.8474 125.81 61.6762 124.757 62.6394 125.003C64.8794 125.563 66.985 127.288 68.9786 128.453C71.0395 129.663 72.9659 130.962 74.7355 132.575C75.1387 132.955 74.6235 133.717 74.1083 133.471V133.515Z" fill="white"/>
<path d="M49.7813 133.247C47.3845 132.731 45.0548 130.581 42.994 129.304C40.3956 127.669 37.5059 126.638 34.9299 125.07C33.8323 124.398 34.5043 122.606 35.7587 122.718C38.7379 123.01 41.6724 125.339 44.0244 127.019C46.0628 128.475 49.0868 130.357 50.2965 132.664C50.4757 133.023 50.1173 133.314 49.7813 133.247Z" fill="white"/>
<path d="M124.508 8.34266C125.65 12.6435 124.978 17.5939 124.732 22.0068C124.441 26.9348 124.105 31.8628 123.769 36.7909C123.097 46.871 122.335 56.9511 121.596 67.0312C120.857 76.8874 120.14 86.7435 119.401 96.5996C118.661 106.657 118.303 116.827 116.713 126.795C116.399 128.722 113.375 128.498 113.666 126.571C113.733 126.168 113.801 125.787 113.845 125.384C114.137 123.57 116.668 123.749 116.69 125.586C116.69 125.989 116.69 126.392 116.69 126.773C116.69 128.744 113.666 128.498 113.644 126.549C113.554 116.67 114.696 106.792 115.436 96.9581C116.197 86.878 116.959 76.7979 117.721 66.7177C118.46 56.8616 119.199 47.0055 120.005 37.1494C120.409 32.2213 120.789 27.2932 121.237 22.3875C121.663 17.7955 121.708 12.5314 123.545 8.25297C123.724 7.80497 124.329 7.84983 124.463 8.32024L124.508 8.34266Z" fill="white"/>
<path d="M37.5068 0.883411C38.1788 5.67707 37.7084 10.4931 37.3948 15.2868C37.0812 20.4164 36.7004 25.5237 36.3196 30.6533C35.5804 40.823 34.8411 50.9927 34.1243 61.1625C33.3851 71.3322 32.6235 81.502 31.8619 91.6493C31.1003 101.864 30.9659 112.37 29.2635 122.45C28.9275 124.443 25.7466 124.242 26.0826 122.203C26.1498 121.822 26.217 121.419 26.2842 121.038C26.5978 119.157 29.1963 119.336 29.2411 121.262C29.2411 121.666 29.2411 122.046 29.2411 122.45C29.2859 124.488 26.1051 124.242 26.0603 122.203C25.8811 111.966 27.3147 101.573 28.0763 91.3581C28.8379 81.1884 29.5995 71.0186 30.3835 60.8713C31.1675 50.7015 31.9515 40.5318 32.7355 30.3845C33.1163 25.4789 33.4748 20.5956 33.9004 15.7124C34.326 10.6947 34.5724 5.63229 36.006 0.771437C36.2076 0.0546287 37.3724 0.144202 37.462 0.883411H37.5068Z" fill="white"/>
<path d="M114.699 128.587C115.125 128.251 115.483 128.005 116.021 127.893C117.566 127.579 118.037 129.976 116.491 130.29C113.534 130.895 109.995 130.245 107.016 130.043C103.409 129.797 99.8028 129.528 96.1964 129.259C88.5355 128.699 80.8746 128.162 73.2137 127.602C65.7768 127.064 58.34 126.504 50.9031 125.944C43.6454 125.407 36.0741 125.451 28.9732 123.839C27.7188 123.547 27.898 121.397 29.1524 121.307C36.2084 120.77 43.4438 121.89 50.4775 122.427C58.1384 123.01 65.7992 123.57 73.4601 124.152C80.897 124.735 88.3339 125.295 95.7484 125.877C99.3548 126.146 102.961 126.415 106.568 126.706C109.726 126.952 113.646 126.84 116.648 127.938C118.126 128.475 117.297 130.76 115.819 130.223C115.304 130.043 114.99 129.73 114.609 129.327C114.408 129.125 114.453 128.744 114.677 128.565L114.699 128.587Z" fill="white"/>
<path d="M104.147 115.976C93.5521 116.58 82.7552 115.393 72.1823 114.699C61.5421 114.004 50.9244 113.176 40.2842 112.392C38.089 112.235 38.3354 108.808 40.5307 108.987C51.1484 109.816 61.7885 110.577 72.4063 111.451C82.9792 112.324 93.8433 112.75 104.215 114.945C104.864 115.08 104.819 115.953 104.147 115.976Z" fill="white"/>
<path d="M48.7956 13.5842C49.6468 21.2003 48.5268 29.1301 47.9668 36.7462C47.3844 44.8327 46.802 52.9192 46.2196 61.0057C45.6596 68.8682 45.0996 76.7306 44.5395 84.5931C43.9571 92.8364 43.8227 101.348 42.4115 109.502C42.0755 111.361 39.5219 111.182 39.4771 109.278C39.2755 101.237 40.3955 93.038 41.0227 84.9963C41.6499 76.9098 42.2771 68.8233 42.9043 60.7592C43.5091 52.8967 44.1363 45.0343 44.7411 37.1942C45.3459 29.3765 45.4131 21.1108 47.4291 13.4947C47.6083 12.8451 48.706 12.9123 48.7732 13.6067L48.7956 13.5842Z" fill="white"/>
<path d="M110.732 17.3924C111.829 20.9317 111.224 25.143 111 28.7942C110.776 32.8039 110.485 36.7911 110.172 40.7783C109.567 49.0888 108.94 57.3993 108.313 65.7098C107.103 81.95 106.588 98.4366 104.437 114.587C104.168 116.536 101.368 116.334 101.391 114.363C101.66 98.0781 103.608 81.7036 104.818 65.441C105.423 57.3321 106.028 49.2455 106.655 41.1366C106.968 36.9254 107.304 32.7143 107.685 28.5254C108.021 24.8966 108.044 20.6181 109.656 17.3029C109.903 16.7877 110.552 16.8324 110.732 17.3924Z" fill="white"/>
<path d="M123.637 8.09613C109.435 8.29773 95.144 6.72976 80.987 5.76655C66.8973 4.80334 52.3371 4.69136 38.4265 2.29453C36.9705 2.04813 37.1273 0.0544856 38.6057 0.0320853C52.7403 -0.281518 67.1437 1.77926 81.211 2.92167C95.3456 4.06408 109.727 4.6466 123.749 6.95383C124.488 7.06583 124.421 8.09613 123.659 8.09613H123.637Z" fill="white"/>
<path d="M109.254 18.3555C99.3759 18.5124 89.5422 17.7955 79.6861 17.2131C69.9868 16.6307 59.7499 16.6307 50.2074 14.8611C48.4378 14.5251 48.617 12.1507 50.409 12.0835C55.3146 11.9043 60.2875 12.5763 65.1707 12.9571C70.0764 13.338 75.0044 13.6963 79.9101 14.1219C89.7438 15.0179 99.5775 15.7571 109.322 17.3924C109.949 17.5044 109.882 18.3555 109.254 18.3555Z" fill="white"/>
<mask id="mask0_67_329" style="mask-type:luminance" maskUnits="userSpaceOnUse" x="0" y="5" width="110" height="114">
<path d="M5.45494 110.6C4.87254 118.709 36.9273 110.779 35.5609 118.799C45.5514 119.56 62.4636 110.6 72.4317 111.429C82.0414 112.235 91.92 112.661 101.44 114.386C101.44 114.386 101.44 114.363 101.44 114.341C101.709 98.056 103.658 81.6813 104.867 65.4187C105.472 57.3098 106.077 49.2234 106.704 41.1145C107.018 36.9033 107.354 32.692 107.735 28.5031C108.026 25.2327 108.093 21.4694 109.28 18.3109C99.4017 18.4677 89.5903 17.751 79.7342 17.1686C70.0349 16.5862 59.798 16.5861 50.2555 14.8165C49.6731 14.7045 49.3147 14.3686 49.1355 13.9654C49.0459 14.0102 13.4518 5.96837 13.3622 5.99077C14.1014 13.4501 6.88859 18.6021 6.88859 18.6021C6.88859 18.6021 0.616457 71.6012 0.03405 79.6877C-0.525957 87.5502 6.01495 102.693 5.45494 110.555V110.6Z" fill="white"/>
</mask>
<g mask="url(#mask0_67_329)">
<path d="M6.88818 74.7147C7.8514 74.5131 8.837 74.3115 9.82261 74.1547C9.19541 72.9227 8.65776 71.6459 8.09775 70.369C7.67214 69.4058 8.00813 68.9578 9.06094 68.9578C9.44175 68.9578 9.845 69.0025 10.2258 69.0249C10.629 69.0249 11.0322 69.0249 11.4354 69.0249C12.2866 69.0249 13.1378 69.025 13.989 68.9578C16.0275 68.801 18.0659 68.5322 20.0819 68.2634C25.3236 67.569 30.5652 66.7178 35.8069 66.1354C44.3638 65.1945 52.8087 63.7385 61.2312 62.0361C66.1592 61.0281 71.0649 59.7289 75.881 58.2953C80.6074 56.884 85.289 55.204 89.6347 52.8072C90.4187 52.3816 91.2028 51.9335 91.9868 51.5079C92.6364 51.1495 93.1292 51.284 93.7116 51.844C96.87 54.9128 100.006 57.9816 103.254 60.9385C106.502 63.8953 109.885 66.7401 113.581 69.1369C115.373 70.3017 117.209 71.4218 119.024 72.5866C120.189 73.3482 120.256 73.953 119.181 74.7594C119.024 74.8714 118.867 75.0059 118.688 75.1179C119.158 75.5211 119.629 75.9018 119.965 76.417C120.39 77.0666 120.525 77.8283 120.435 78.5899C120.077 82.2635 119.673 85.9596 119.248 89.6332C119.069 91.246 118.867 91.4029 117.232 91.7613C89.8139 97.7869 62.396 103.79 34.9781 109.838C33.9477 110.062 33.1412 109.906 32.3124 109.301C23.4643 103.029 14.6387 96.7341 5.76817 90.4844C5.00656 89.9468 4.7825 89.3421 4.87211 88.4461C5.07371 86.4076 5.18571 84.3691 5.36491 82.3083C5.54412 80.2251 5.74572 78.1195 5.92492 76.0362C5.96972 75.3866 6.14895 74.8267 6.86576 74.6923L6.88818 74.7147Z" fill="#C5D69D"/>
<path d="M5.96985 76.0806C5.79064 78.1638 5.58904 80.2694 5.40984 82.3526C5.23064 84.3911 5.11863 86.4519 4.91703 88.4903C4.82743 89.3639 5.05142 89.9912 5.81303 90.5288C14.6835 96.7785 23.5092 103.05 32.3573 109.345C33.1862 109.927 33.9926 110.107 35.023 109.882C62.4409 103.834 89.8588 97.8313 117.277 91.8056C118.912 91.4472 119.114 91.2904 119.293 89.6776C119.718 86.0039 120.099 82.3303 120.48 78.6342C120.547 77.8726 120.413 77.111 120.01 76.4613C119.674 75.9461 119.203 75.5653 118.733 75.1621C118.89 75.0501 119.046 74.9382 119.226 74.8038C120.323 73.9973 120.256 73.3925 119.069 72.6309C117.254 71.466 115.418 70.3461 113.625 69.1813C109.929 66.762 106.569 63.9397 103.299 60.9828C100.051 58.026 96.8925 54.9572 93.7565 51.8883C93.1965 51.3283 92.7036 51.2163 92.0316 51.5523C91.2476 51.9779 90.4636 52.4259 89.6796 52.8515C85.3116 55.2483 80.6523 56.9284 75.9258 58.3396C71.0874 59.7732 66.2042 61.0948 61.2761 62.0804C52.8536 63.7828 44.4087 65.2389 35.8518 66.1797C30.5877 66.7621 25.3684 67.5908 20.1268 68.3076C18.0883 68.5764 16.0723 68.8452 14.0339 69.002C13.1827 69.0692 12.3315 69.0693 11.4803 69.0693C11.0771 69.0693 10.6739 69.0693 10.2707 69.0693C9.88985 69.0693 9.48667 68.9796 9.10587 69.002C8.05306 69.002 7.71707 69.45 8.14267 70.4132C8.70268 71.6901 9.24026 72.9669 9.86747 74.1989C8.88186 74.3557 7.91865 74.5349 6.93304 74.7589C6.21623 74.9157 6.0594 75.4534 5.9922 76.103L5.96985 76.0806ZM6.91062 82.1734C6.91062 82.1734 7.00021 82.2183 7.04501 82.2631C9.66584 84.0775 12.3091 85.8919 14.9523 87.6839C20.6868 91.6039 27.4517 96.196 33.1861 100.116C33.3206 100.206 33.4773 100.318 33.6341 100.407L33.5221 101.482C32.9845 101.124 32.1557 100.542 31.9317 100.385C23.9124 94.8519 15.8932 89.3192 7.85146 83.8087C7.53786 83.5847 7.1794 83.4279 6.821 83.2487C6.8434 82.8903 6.88822 82.5542 6.91062 82.1958V82.1734ZM35.0006 98.7272C35.0006 98.7272 35.0454 98.7272 35.0678 98.7272C37.3302 98.2792 40.4438 97.5849 42.7063 97.1145C51.084 95.3224 59.5513 93.5304 68.0634 91.7383C68.041 92.0071 67.9962 92.2759 67.9738 92.5447V92.6344C57.5352 94.8744 47.1191 97.1145 36.703 99.3545C36.4118 99.4217 35.6054 99.5784 34.9109 99.7128L35.0006 98.7496V98.7272ZM67.8394 93.6423L67.7497 94.5832C57.3112 96.8904 46.8951 99.1976 36.4566 101.482C36.2102 101.55 35.3366 101.729 34.6646 101.863C34.6646 101.796 34.6646 101.751 34.6646 101.684L34.7541 100.766C38.5846 99.9369 43.7142 98.8392 47.4999 98.0328C54.22 96.5768 61.0073 95.1207 67.8169 93.6423H67.8394ZM67.5481 96.6664C57.1992 98.9513 46.8727 101.236 36.5238 103.498C36.2326 103.566 35.2022 103.745 34.463 103.879C34.5078 103.543 34.5302 103.207 34.575 102.894C36.2326 102.535 38.9206 101.93 40.399 101.617C49.3591 99.6232 58.476 97.6071 67.6601 95.5911L67.5481 96.6664ZM33.3205 103.431C32.7829 103.118 31.9989 102.647 31.7973 102.513C23.6212 96.868 15.4451 91.2007 7.24661 85.5783C7.06741 85.4439 6.86583 85.2646 6.64183 85.1302C6.66423 84.8166 6.70905 84.4806 6.73145 84.167C7.15705 84.4806 7.60505 84.7719 8.05305 85.0855C16.0723 90.6184 25.0325 96.8008 33.0518 102.334C33.1638 102.401 33.2757 102.491 33.3877 102.558C33.3653 102.871 33.3205 103.14 33.2981 103.431H33.3205ZM7.13463 79.5974C7.24664 79.6646 7.35862 79.7542 7.47062 79.8214C15.8035 85.6903 25.122 92.2312 33.4549 98.1001C33.5669 98.1897 33.7014 98.2568 33.8358 98.324L33.7462 99.2872C33.1413 98.884 32.1781 98.2568 31.8645 98.0552C23.8228 92.5448 15.7811 87.0343 7.73942 81.5463C7.49301 81.3895 7.26904 81.1431 7.00024 81.0087C7.04504 80.5383 7.08983 80.0454 7.13463 79.575V79.5974ZM35.2469 96.2857C35.4485 96.2633 35.6725 96.2184 35.8741 96.1735C36.4789 96.0616 37.0838 95.9272 37.6886 95.8152C38.9654 95.5464 40.2646 95.2776 41.5414 95.0088C50.4567 93.1048 59.3497 91.2008 68.265 89.2744C68.265 89.3864 68.265 89.4983 68.265 89.6327C68.2426 89.9687 68.2201 90.3048 68.1753 90.6632C57.804 92.8808 47.4327 95.0759 37.0613 97.2936C36.6805 97.3832 35.8294 97.5401 35.135 97.6745L35.2022 97.092L35.2918 96.3079L35.2469 96.2857ZM67.3017 98.9736C56.2584 101.415 45.2599 103.857 34.5525 106.231C34.4405 106.254 34.3285 106.276 34.2165 106.299L34.3286 105.201C34.3286 105.201 34.3285 105.044 34.3509 104.955C35.0453 104.798 36.0533 104.618 36.2997 104.574C46.5143 102.311 56.9528 100.026 67.4137 97.7192L67.2793 98.996L67.3017 98.9736ZM33.0741 105.739C24.8756 100.026 15.3332 93.4407 7.15706 87.751C6.93305 87.5942 6.70904 87.3702 6.44023 87.2134C6.46263 86.8774 6.50745 86.5638 6.52985 86.2278C7.26906 86.7654 8.00827 87.2582 8.76988 87.7735C16.498 93.1047 24.2484 98.436 31.9765 103.767C32.1333 103.879 32.7605 104.327 33.1861 104.618L33.0741 105.716V105.739ZM7.35865 77.1109C8.00826 77.5589 8.63544 78.0742 9.15064 78.4326C9.77785 78.8806 10.4051 79.351 11.0323 79.799C13.4963 81.591 15.9827 83.4055 18.4467 85.1975C20.9108 86.9895 23.3748 88.8039 25.8612 90.5959C27.0932 91.4919 28.3253 92.388 29.5573 93.3064C30.7669 94.18 31.9989 94.964 33.2309 95.7928C33.4773 95.972 33.7462 96.1288 34.0374 96.2184L33.9253 97.204C33.4101 96.868 32.5814 96.3079 32.3573 96.1511C24.2261 90.4391 16.0947 84.7047 7.96343 78.9926C7.71703 78.8134 7.47064 78.679 7.20183 78.5446C7.20183 78.455 7.20183 78.3654 7.20183 78.2982C7.22423 78.0294 7.20181 78.2981 7.31381 77.1109H7.35865ZM8.16503 75.9238C9.01624 75.7222 9.06106 75.7222 10.4947 75.4086C11.4803 77.1334 12.6675 78.7239 13.9667 80.1799C10.629 77.7382 8.29943 76.0358 8.16503 75.9238ZM43.5798 66.5829C43.871 66.8741 44.1623 67.1429 44.4759 67.4117C44.8567 67.7477 45.2375 68.0837 45.6183 68.4197C39.1446 69.3381 32.0885 70.4805 25.6373 71.3317C21.986 71.8245 18.29 72.1381 14.6163 72.5413C14.3027 72.5861 13.8547 72.5638 13.5859 72.743C13.0259 73.1014 13.6755 74.0198 13.8995 74.4006C15.7363 77.1782 18.0436 79.5302 20.4404 81.815C22.3668 83.6295 24.3829 85.3095 26.4885 86.8999C27.6309 87.7512 28.7957 88.5799 29.9605 89.3863C31.1477 90.1928 32.3349 91.0216 33.5669 91.7832C34.0149 92.052 34.4854 92.3431 35.0006 92.4327C35.4934 92.5223 36.0085 92.4552 36.5013 92.3656C46.3127 90.3272 56.124 88.3111 65.9129 86.2727C66.3833 86.6759 66.8537 87.079 67.3241 87.4822C67.5033 87.639 67.6825 87.7959 67.7945 87.9751C59.0808 89.8343 50.3447 91.716 41.631 93.5752C39.5702 94.0232 37.5318 94.4487 35.4934 94.9191C34.799 95.0759 34.2389 94.9864 33.6565 94.5608C29.8037 91.7384 24.114 87.5943 19.0964 83.9207C16.5203 81.1878 16.3635 80.9862 14.8403 79.239C13.1603 77.3125 11.8387 75.0726 10.7187 72.7654C10.4051 72.1158 9.93466 71.1749 9.64345 70.4581C16.0051 70.1669 15.8483 70.1669 18.7604 69.8085C23.218 69.2485 27.6757 68.5988 32.1109 68.0164C35.919 67.5236 39.7494 67.0757 43.5575 66.5829H43.5798ZM64.7929 85.2871C55.3624 87.2359 45.9319 89.1847 36.5013 91.1335C35.4933 91.3351 34.7093 91.2008 33.8581 90.6408C27.6533 86.6311 21.9188 82.0838 16.9907 76.5733C16.2739 75.7669 15.6467 74.8934 14.8403 73.863C16.9908 73.639 18.8724 73.4149 20.7316 73.2357C28.3253 72.4517 35.8966 71.3541 43.4007 69.9876C44.2071 69.8308 45.7303 69.5845 46.7159 69.4053C48.3287 70.8166 49.9191 72.2277 51.532 73.6613C51.5544 74.3333 51.6888 75.0278 51.9576 75.6998C52.6072 77.4246 53.7272 78.8134 55.116 80.0006C57.5129 82.0839 60.2681 83.3606 63.2921 83.9878C63.7849 84.4134 64.2777 84.8615 64.7705 85.2871H64.7929ZM56.796 79.7765C55.6536 78.8581 54.556 77.7382 53.772 76.5062C53.436 75.991 53.1895 75.4534 53.0327 74.9606C54.9816 76.663 56.9304 78.3878 58.8792 80.0902C59.7081 80.807 60.5368 81.5463 61.3656 82.2631C59.7304 81.7031 58.2072 80.8966 56.8184 79.7765H56.796ZM47.8583 65.978C51.1063 65.4852 54.3768 64.9252 57.6024 64.298C57.6024 64.298 57.6472 64.3429 57.6696 64.3653C57.9608 64.6341 58.2744 64.9028 58.588 65.1492C66.1593 71.5109 73.7306 77.8726 81.3467 84.1895C81.6379 84.4359 81.8619 84.6823 82.0411 84.9287C77.8747 85.8247 73.7082 86.7206 69.5417 87.6166C69.3849 87.3478 69.161 87.1239 68.8922 86.8775C66.7641 85.0631 64.6809 83.1814 62.5753 81.3446C56.908 76.3717 51.2408 71.3765 45.5735 66.4037C45.5511 66.4037 45.5287 66.3588 45.5063 66.3364C46.2903 66.2244 47.0743 66.1125 47.8583 66.0005V65.978ZM62.5081 66.5829C63.2697 66.4037 64.0313 66.2468 64.8153 66.0676C70.8634 64.746 76.889 63.3124 82.7355 61.2068C85.5579 60.1988 88.2908 58.9443 91.0684 57.8019C91.3372 57.6899 91.6284 57.5779 92.054 57.4211C97.6541 63.7604 104.038 69.226 111.341 74.0645C110.109 74.6917 109.168 75.3413 108.115 75.7221C106.054 76.4389 103.949 77.1782 101.821 77.6038C94.8764 79.0598 87.91 80.4934 80.9659 81.927C80.4731 81.5238 79.9803 81.0982 79.4874 80.695C78.1434 79.575 76.7994 78.455 75.4554 77.335C75.3658 76.8198 75.209 76.2821 74.985 75.7445C74.4026 74.4453 73.5738 73.1686 72.5658 72.183C69.9449 69.6741 66.9657 68.1284 63.6953 67.5012C63.3145 67.1876 62.9337 66.8741 62.5753 66.5605L62.5081 66.5829ZM66.2265 69.562C69.1162 70.682 71.6698 72.3397 73.3274 75.0725C73.529 75.3861 73.6858 75.7221 73.8202 76.0357C71.1994 73.8405 68.5785 71.6453 65.9353 69.4725C66.0249 69.5173 66.1369 69.5396 66.2265 69.5845V69.562ZM118.173 73.7286C117.747 74.1094 117.501 74.4005 117.187 74.6245C115.081 76.1477 112.998 77.6933 110.557 78.6565C110.512 78.6565 110.467 78.7014 110.422 78.7238C110.31 78.791 110.176 78.8358 110.041 78.903C101.35 80.7623 92.6588 82.6215 83.9899 84.4807C83.3403 83.9431 82.7131 83.4054 82.0635 82.8902C89.366 81.367 96.6685 79.8438 103.971 78.2758C105.673 77.9174 107.309 77.2454 108.921 76.6182C110.131 76.1478 111.811 75.6101 112.595 74.4901C113.043 73.8181 112.192 73.3029 111.721 72.9669C109.84 71.6453 107.936 70.3462 106.099 68.9797C101.261 65.3957 96.87 61.3188 92.9276 56.794C92.4796 56.3012 92.1212 55.9876 91.4044 56.346C83.9451 60.1316 75.9706 62.3268 67.8841 64.2085C65.6889 64.7237 63.4713 65.082 61.2761 65.5524C60.7833 65.1492 60.2905 64.7236 59.7977 64.3204C59.6633 64.2084 59.5065 64.0741 59.3721 63.9397C60.1113 63.7829 60.8505 63.626 61.5897 63.4468C69.0938 61.722 76.5979 59.9972 83.7436 57.0628C86.454 55.9428 89.0748 54.554 91.7404 53.2996C92.054 53.1428 92.3453 52.9635 92.6365 52.8067C100.432 60.6468 108.585 67.9717 118.218 73.7286H118.173ZM83.5195 92.0744C95.2349 89.476 106.905 86.8999 118.352 84.3687L118.24 85.5559C115.104 86.2055 111.318 87.0343 108.227 87.7063C99.9613 89.5207 91.6956 91.3576 83.4299 93.172C83.4523 92.8136 83.4971 92.4552 83.5195 92.0744ZM83.6764 90.2151C95.3693 87.6839 107.04 85.1751 118.509 82.6887L118.442 83.4055C117.232 83.6295 115.933 83.8982 114.746 84.167C104.374 86.4519 94.0029 88.7591 83.6092 91.0439C83.6316 90.7527 83.654 90.4839 83.6764 90.1927V90.2151ZM83.8555 88.3559C95.5261 85.8919 107.197 83.4055 118.71 80.9638L118.643 81.7255C115.686 82.3527 112.304 83.0694 109.369 83.6966C100.857 85.5334 92.3228 87.3703 83.8108 89.2071C83.8332 88.9383 83.8555 88.6471 83.8779 88.3783L83.8555 88.3559ZM117.993 87.7959C115.149 88.4007 111.542 89.1847 108.765 89.812C100.387 91.6712 91.83 93.5527 83.2059 95.4791C83.2507 95.0535 83.2731 94.6503 83.3179 94.2247C95.0333 91.6487 106.704 89.0727 118.106 86.5639L117.971 87.8183L117.993 87.7959ZM118.621 77.0438C117.837 77.223 117.321 77.335 116.806 77.447C116.157 77.5814 115.507 77.7158 114.857 77.8726C115.753 77.2678 116.65 76.6405 117.546 76.0133C117.904 76.3493 118.285 76.6854 118.643 77.0438H118.621ZM118.957 78.455L118.8 79.9109C115.104 80.6725 110.736 81.5686 107.085 82.3526C99.3789 83.9878 91.6508 85.6455 83.9451 87.2807C83.9899 86.8103 84.0347 86.3399 84.0795 85.8695C95.1453 83.4951 106.211 81.1206 117.299 78.7462C117.814 78.6342 118.352 78.5446 118.979 78.4326L118.957 78.455ZM116.224 90.4167C105.158 92.8359 94.0925 95.2775 83.0267 97.6968C83.0715 97.2935 83.0939 96.8904 83.1387 96.4872C94.9884 93.8664 106.726 91.2679 117.904 88.7815L117.77 90.0359C117.187 90.1703 116.694 90.3047 116.224 90.4167ZM76.4186 99.1528C73.8202 99.7352 71.1994 100.295 68.601 100.878L68.6457 100.474L69.0713 96.3304L69.2506 94.5608L69.5194 91.8952C69.609 90.9319 69.6986 89.9464 69.7882 88.9832C74.0218 88.0871 78.2555 87.1687 82.4891 86.2727C82.4891 86.4967 82.4891 86.7431 82.4667 87.0119C82.1307 90.036 81.9067 93.06 81.6827 96.084C81.6379 96.756 81.5707 97.4056 81.5035 98.0777C79.8235 98.4585 78.1211 98.8169 76.441 99.1977L76.4186 99.1528ZM33.9925 108.359L34.1046 107.351C34.3286 107.306 34.5301 107.239 34.7541 107.195C45.1926 104.887 56.124 102.468 67.1897 100.004L67.1001 100.833L67.0553 101.191C56.46 103.521 45.8647 105.85 35.2918 108.202C34.8438 108.292 34.4181 108.382 33.9925 108.359ZM6.39546 88.3783C6.39546 88.3783 6.52985 88.4679 6.59705 88.5127C11.5027 91.9623 16.4307 95.3895 21.3364 98.8168C24.8308 101.236 28.2805 103.722 31.7973 106.097C32.2229 106.388 32.6261 106.657 32.9621 106.903V107.172C32.9173 107.419 32.8726 107.687 32.8502 107.934C24.3605 101.886 15.8483 95.86 7.33623 89.8791C6.73142 89.4535 6.44026 89.0056 6.39546 88.4231V88.3783Z" fill="black"/>
<path d="M96.177 77.2234L97.1627 76.9546C97.3419 76.9098 97.5883 77.0218 97.6107 77.2234C97.6555 77.425 97.5434 77.6265 97.3418 77.6713C97.0058 77.7609 96.6922 77.8506 96.3562 77.9402C96.177 77.985 95.9306 77.8729 95.9082 77.6713C95.8634 77.4697 95.9754 77.2682 96.177 77.2234Z" fill="black"/>
<path d="M32.7845 73.5722L25.3252 74.4905C24.6084 74.5801 23.8916 74.6697 23.1748 74.7593C22.7044 74.8265 22.5476 74.0874 23.0404 74.0202L30.4997 73.1017C31.2165 73.0121 31.9333 72.9225 32.6501 72.8329C33.1205 72.7657 33.2773 73.505 32.7845 73.5722Z" fill="black"/>
<path d="M21.157 74.9833L20.0593 75.0729C20.0593 75.0729 19.8577 75.073 19.7681 75.0058C19.7009 74.961 19.6337 74.8489 19.6113 74.7593C19.6113 74.6697 19.6113 74.5577 19.6785 74.468C19.7457 74.4008 19.8129 74.3336 19.9249 74.3112L21.0226 74.2217C21.0226 74.2217 21.2241 74.2217 21.3137 74.2889C21.3809 74.3337 21.4481 74.4457 21.4705 74.5353C21.4705 74.6249 21.4705 74.7369 21.4033 74.8265C21.3361 74.8937 21.269 74.9609 21.157 74.9833Z" fill="black"/>
<path d="M98.9307 76.5513C101.372 76.0585 103.792 75.3866 106.121 74.5353C106.793 74.2889 107.443 74.0201 108.115 73.7513C108.563 73.572 108.854 74.2442 108.406 74.4458C106.054 75.4314 103.635 76.2154 101.148 76.8202C100.454 76.9994 99.7371 77.1561 99.0426 77.2905C98.5722 77.3801 98.4603 76.6409 98.9307 76.5513Z" fill="black"/>
<path d="M45.506 66.3144C45.506 66.3144 45.5508 66.3591 45.5732 66.3815C51.2404 71.3544 56.9077 76.3272 62.575 81.3224C64.6806 83.1593 66.7638 85.041 68.8919 86.8554C69.1607 87.1018 69.3846 87.3258 69.5414 87.5946C73.7079 86.6986 77.8744 85.8026 82.0408 84.9066C81.8616 84.6602 81.6376 84.4137 81.3464 84.1673C73.7303 77.8504 66.159 71.4888 58.5877 65.1271C58.2741 64.8807 57.9829 64.6119 57.6693 64.3431C57.6693 64.3431 57.6245 64.2983 57.6021 64.2759C54.3765 64.9255 51.106 65.4631 47.858 65.9559C47.074 66.0679 46.29 66.18 45.506 66.292V66.3144Z" fill="#F6C359"/>
<path d="M81.4807 98.033C81.5479 97.361 81.6151 96.7114 81.6599 96.0394C81.9063 93.0153 82.1079 89.9913 82.4439 86.9673C82.4663 86.6985 82.4887 86.452 82.4663 86.228C78.2327 87.124 73.999 88.0425 69.7653 88.9385C69.6757 89.9017 69.6085 90.8873 69.4965 91.8505L69.2278 94.5162L69.0486 96.2859L68.623 100.43L68.5781 100.833C71.1766 100.251 73.775 99.6906 76.3959 99.1082C78.0759 98.7274 79.7783 98.369 81.4583 97.9882L81.4807 98.033Z" fill="#F6C359"/>
<mask id="mask1_67_329" style="mask-type:luminance" maskUnits="userSpaceOnUse" x="9" y="52" width="110" height="44">
<path d="M9.64352 70.481C9.93472 71.1979 10.3827 72.1162 10.7188 72.7882C11.8388 75.0954 13.1604 77.3355 14.8404 79.2619C16.3636 81.0091 16.5428 81.2108 19.0964 83.9436C24.1141 87.6173 29.8038 91.7613 33.6566 94.5838C34.239 95.0094 34.799 95.0989 35.4934 94.9421C37.5319 94.4717 39.5927 94.0237 41.6311 93.5981C50.3448 91.7389 59.0809 89.8573 67.7946 87.9981L69.5418 87.6172C71.7818 87.1468 74.0219 86.6541 76.2843 86.1837L83.99 84.5261C92.6813 82.6668 101.373 80.8075 110.042 78.9483C110.154 78.8811 110.288 78.814 110.422 78.7692C110.467 78.7692 110.512 78.7243 110.557 78.7019C112.998 77.7387 115.082 76.1707 117.187 74.6699C117.501 74.4459 117.747 74.1546 118.173 73.7738C108.563 68.017 100.387 60.7145 92.5917 52.8521C92.3005 53.0089 91.9869 53.188 91.6733 53.3448C89.0076 54.5992 86.4093 55.988 83.6764 57.108C76.5307 60.0425 69.0266 61.7674 61.5225 63.4922C60.7833 63.6714 60.0441 63.8281 59.3049 63.9849L57.5801 64.3434L43.5127 66.5386L43.356 66.6506C39.6151 67.1434 35.8519 67.569 32.0886 68.0618C27.631 68.6442 23.1957 69.3162 18.738 69.8538C15.826 70.2122 15.9828 70.2123 9.62109 70.5035L9.64352 70.481Z" fill="white"/>
</mask>
<g mask="url(#mask1_67_329)">
<path d="M11.9062 69.3383C21.0455 69.0919 30.14 68.2184 39.1449 66.74C39.1449 66.6952 39.1448 66.6279 39.1672 66.5831C39.7272 64.6567 41.5193 64.0295 43.3113 64.2983C44.9689 64.5447 46.6713 64.6343 48.3514 64.5671C48.9562 63.9399 49.785 63.559 50.6586 63.6934C69.094 66.3591 87.3278 70.1447 105.27 75.1624C109.504 76.3496 107.533 82.308 103.389 81.5912C84.9534 78.3656 66.518 75.1401 48.105 71.9144C36.1432 74.3337 23.9799 75.7 11.7718 76.036C7.47091 76.148 7.58288 69.4503 11.8837 69.3383H11.9062Z" fill="#6F7D49"/>
</g>
<path d="M15.9357 17.1461C16.8989 17.3925 17.8621 17.6613 18.8029 17.9525C18.8029 16.5637 18.8702 15.1749 18.9598 13.7861C19.0046 12.7332 19.4974 12.4868 20.4606 12.9348C20.819 13.114 21.1326 13.3381 21.4686 13.5173C21.827 13.7189 22.1854 13.8981 22.5438 14.0773C23.3054 14.4581 24.067 14.8388 24.851 15.1524C26.7551 15.914 28.6815 16.5861 30.6303 17.2581C35.6255 18.9829 40.688 20.5733 45.6385 22.3877C53.7026 25.3669 61.9235 27.8309 70.2116 30.071C75.0724 31.3926 80.0229 32.4007 84.9958 33.2743C89.8566 34.1255 94.7847 34.7079 99.7575 34.5063C100.654 34.4615 101.55 34.4167 102.446 34.3943C103.185 34.3943 103.566 34.7079 103.834 35.4695C105.29 39.6135 106.724 43.7799 108.314 47.8792C109.905 51.9784 111.652 56.0105 113.87 59.8186C114.945 61.6778 116.087 63.4921 117.185 65.3514C117.902 66.5386 117.678 67.121 116.356 67.3674C116.155 67.4122 115.953 67.4346 115.774 67.4794C116.02 68.0394 116.267 68.5995 116.334 69.2043C116.423 69.9659 116.199 70.7052 115.796 71.3548C113.825 74.4908 111.831 77.6044 109.815 80.6956C108.942 82.0396 108.695 82.1069 107.06 81.7037C79.8436 74.8268 52.6273 67.9723 25.3886 61.1178C24.3582 60.849 23.731 60.3562 23.2382 59.4602C18.131 49.8953 13.0237 40.3304 7.89402 30.7655C7.44602 29.9367 7.53564 29.287 7.98364 28.5478C9.05885 26.8005 10.0892 25.031 11.1644 23.2837C12.2621 21.4917 13.3821 19.722 14.4573 17.9076C14.7933 17.3476 15.1965 16.9221 15.8909 17.1237L15.9357 17.1461Z" fill="#C5D69D"/>
<path d="M14.4806 17.9526C13.383 19.7446 12.2854 21.5367 11.1877 23.3287C10.1125 25.0759 9.10456 26.8455 8.00695 28.5927C7.53655 29.3319 7.46933 29.9815 7.91733 30.8103C13.047 40.3528 18.1543 49.9401 23.2615 59.505C23.7319 60.4011 24.3815 60.9162 25.4119 61.1626C52.6282 67.9947 79.8445 74.8716 107.083 81.7485C108.718 82.1517 108.943 82.107 109.839 80.7406C111.855 77.6494 113.848 74.5356 115.819 71.3996C116.223 70.75 116.447 70.0108 116.357 69.2492C116.29 68.6444 116.043 68.0844 115.797 67.5244C115.999 67.4796 116.2 67.4572 116.379 67.4124C117.723 67.166 117.925 66.6059 117.208 65.3963C116.111 63.5595 114.968 61.7227 113.893 59.8635C111.675 56.0555 109.928 52.001 108.338 47.9241C106.747 43.8249 105.314 39.6809 103.858 35.5144C103.589 34.7752 103.208 34.4167 102.469 34.4391C101.573 34.4615 100.677 34.5287 99.7808 34.5511C94.8079 34.7303 89.8798 34.1703 85.019 33.3191C80.0461 32.4455 75.0957 31.4375 70.2349 30.1159C61.9468 27.8759 53.7259 25.3895 45.6618 22.4326C40.6889 20.5958 35.6488 19.0054 30.6536 17.303C28.7272 16.631 26.7784 15.959 24.8743 15.1974C24.0903 14.8838 23.3287 14.5029 22.5671 14.1221C22.2087 13.9429 21.8503 13.7637 21.4919 13.5621C21.1559 13.3829 20.8198 13.1366 20.4838 12.9798C19.5206 12.5318 19.0503 12.7781 18.9831 13.8309C18.9159 15.2197 18.8262 16.6086 18.8262 17.9974C17.8854 17.6838 16.9222 17.4373 15.959 17.1909C15.2646 17.0117 14.8614 17.415 14.5254 17.975L14.4806 17.9526ZM12.6214 23.8214C12.6214 23.8214 12.6662 23.911 12.711 23.9558C14.2566 26.7559 15.8022 29.5559 17.3702 32.3559C20.7527 38.4264 24.7399 45.5498 28.1223 51.6202C28.2119 51.777 28.3015 51.9337 28.3911 52.0681L27.8088 52.9866C27.4952 52.4266 27.0023 51.5306 26.8679 51.3066C22.1639 42.7721 17.4598 34.2376 12.7334 25.7031C12.5542 25.3671 12.3078 25.0535 12.0614 24.7399C12.2406 24.4487 12.4198 24.1351 12.6214 23.8439V23.8214ZM30.3399 51.1946C30.3399 51.1946 30.3848 51.1946 30.4072 51.1946C32.6248 51.7994 35.7385 52.5834 37.9561 53.1434C46.2442 55.2939 54.6218 57.4666 63.0443 59.6619C62.9099 59.8859 62.7531 60.1098 62.6187 60.3338L62.574 60.4011C52.2474 57.7579 41.9209 55.0923 31.5944 52.449C31.3032 52.3818 30.5192 52.1578 29.8248 51.9786L30.3399 51.1722V51.1946ZM62.014 61.297L61.5211 62.0811C51.1722 59.4827 40.8009 56.8843 30.452 54.2859C30.2056 54.2187 29.332 53.9946 28.6824 53.8154C28.7048 53.7706 28.7496 53.7258 28.772 53.681L29.2648 52.8969C33.0728 53.8601 38.1352 55.1818 41.8985 56.145C48.5514 57.8474 55.2715 59.5722 62.0364 61.297H62.014ZM60.3787 63.8731C50.1194 61.2971 39.8377 58.721 29.5783 56.1226C29.2871 56.0554 28.3015 55.7642 27.5623 55.5626C27.7415 55.2714 27.9207 55.0026 28.0999 54.7114C29.7575 55.137 32.4008 55.7866 33.8792 56.1674C42.7945 58.4075 51.8442 60.6699 60.9611 62.9548L60.3787 63.8731ZM26.7335 54.6442C26.3975 54.1066 25.9047 53.345 25.7927 53.1434C20.999 44.4297 16.2054 35.7159 11.3893 27.0022C11.2773 26.8006 11.1878 26.5543 11.0534 26.3527C11.2326 26.0839 11.3894 25.8151 11.5686 25.5239C11.815 25.9943 12.0838 26.4647 12.3302 26.9351C17.0342 35.4696 22.2759 45.0121 27.0023 53.5466C27.0695 53.6586 27.1367 53.793 27.2039 53.905C27.0471 54.1738 26.8904 54.3978 26.756 54.6442H26.7335ZM13.9654 21.6263C14.0326 21.7383 14.0998 21.8726 14.167 21.9846C19.0055 30.9671 24.4263 40.9577 29.2424 49.9402C29.3096 50.0522 29.3992 50.1866 29.4664 50.321L28.9511 51.1498C28.5927 50.5226 28.0103 49.537 27.8311 49.201C23.1047 40.6889 18.3782 32.1543 13.6294 23.6422C13.495 23.3958 13.383 23.0822 13.2038 22.8358C13.4502 22.4326 13.6966 22.007 13.9654 21.6038V21.6263ZM31.6616 49.1113C31.8632 49.1785 32.0648 49.2457 32.2664 49.2905C32.8488 49.4697 33.4536 49.6266 34.0584 49.7834C35.3352 50.1194 36.5897 50.4553 37.8665 50.7913C46.6922 53.0537 55.4955 55.3386 64.3212 57.6011C64.2764 57.7131 64.2092 57.8027 64.1644 57.9147C63.9852 58.2059 63.806 58.497 63.6268 58.7882C53.3675 56.1226 43.0857 53.4794 32.8264 50.8137C32.4456 50.7241 31.6168 50.4777 30.9448 50.2761L31.2584 49.7834L31.684 49.1113H31.6616ZM59.1243 65.8444C48.1482 63.0891 37.2168 60.3563 26.5767 57.6906C26.4647 57.6682 26.3527 57.6235 26.2407 57.6011L26.8232 56.6826C26.8232 56.6826 26.9128 56.5483 26.9576 56.4811C27.652 56.6603 28.6375 56.9514 28.8839 56.9962C39.0313 59.5499 49.3802 62.1484 59.7963 64.7692L59.1019 65.8444H59.1243ZM25.5016 56.593C20.7303 47.8345 15.1302 37.6649 10.359 28.9288C10.2245 28.6824 10.1126 28.3687 9.95576 28.1223C10.135 27.8534 10.3141 27.5623 10.4709 27.2935C10.8965 28.0999 11.3446 28.8839 11.7702 29.6903C16.3174 37.9112 20.8647 46.1321 25.3895 54.3754C25.4791 54.5322 25.8375 55.2267 26.0839 55.6747L25.5016 56.6155V56.593ZM15.287 19.4982C15.6678 20.1926 16.0038 20.9319 16.295 21.4919C16.6534 22.1863 17.0118 22.8807 17.3702 23.5751C18.7815 26.2855 20.1703 28.9959 21.5815 31.7064C22.9927 34.4168 24.3815 37.1273 25.7927 39.8601C26.4871 41.2265 27.2039 42.5704 27.8983 43.9368C28.5703 45.2584 29.3319 46.513 30.0712 47.8122C30.228 48.081 30.3848 48.3497 30.6088 48.5513L30.0712 49.4025C29.7576 48.8649 29.2648 47.9913 29.1304 47.7449C24.4039 38.9864 19.6999 30.228 14.9734 21.4919C14.839 21.2231 14.6822 20.999 14.503 20.7526C14.5478 20.6854 14.5926 20.6183 14.6374 20.5287C14.7942 20.2823 14.6374 20.5286 15.287 19.5206V19.4982ZM16.519 18.7814C17.3702 18.983 17.3926 19.0054 18.8262 19.3414C18.9382 21.335 19.2966 23.2615 19.7894 25.1655C17.9078 21.4919 16.5638 18.9158 16.4966 18.7814H16.519ZM52.3819 26.2631C52.5163 26.6439 52.6507 27.0247 52.8075 27.3831C52.9867 27.8535 53.1883 28.324 53.3675 28.7944C47.1626 26.7111 40.3529 24.5831 34.1928 22.4775C30.6984 21.2903 27.2711 19.9238 23.7991 18.647C23.5079 18.535 23.1047 18.3334 22.7911 18.3782C22.1191 18.4454 22.2759 19.5654 22.3431 20.0134C22.7463 23.3062 23.7543 26.4647 24.8743 29.5559C25.7928 32.0423 26.8456 34.4391 28.0104 36.8136C28.6376 38.0904 29.3095 39.3448 30.004 40.5992C30.6984 41.8536 31.3928 43.1304 32.1544 44.3624C32.4232 44.8104 32.7368 45.2586 33.1624 45.5946C33.5656 45.9082 34.036 46.0649 34.5289 46.1993C44.2058 48.7529 53.8827 51.3289 63.582 53.8826C63.8284 54.465 64.0523 55.025 64.2988 55.6074C64.3884 55.8314 64.4555 56.0554 64.5003 56.257C55.8538 54.0394 47.2298 51.7994 38.5833 49.5817C36.5449 49.0665 34.5288 48.5289 32.4904 48.0361C31.796 47.8793 31.348 47.5209 31.012 46.8937C28.8168 42.66 25.5911 36.4104 22.7239 30.8776C21.6487 27.2711 21.5815 27.0471 20.9991 24.7846C20.3495 22.2982 20.1702 19.7222 20.1926 17.1462C20.1926 16.407 20.1926 15.3766 20.2598 14.615C26.0839 17.191 25.9495 17.1238 28.7048 18.1094C32.9384 19.6102 37.2169 20.9991 41.4505 22.4775C45.0794 23.7319 48.7082 25.0534 52.337 26.3078L52.3819 26.2631ZM62.9996 52.4713C53.7035 50.0073 44.385 47.5209 35.0889 45.0568C34.1032 44.788 33.4536 44.3177 32.9384 43.4441C29.1751 37.0824 26.0615 30.452 24.1351 23.3063C23.8439 22.2759 23.6871 21.2006 23.4183 19.9238C25.4567 20.6854 27.2263 21.335 28.9736 21.9846C36.1192 24.6726 43.377 27.0696 50.7018 29.22C51.5083 29.444 52.9643 29.9144 53.9275 30.1832C54.7339 32.1768 55.5403 34.148 56.3467 36.1416C56.0779 36.7464 55.8987 37.4409 55.8091 38.1577C55.6299 39.9945 56.0107 41.7416 56.7051 43.4217C57.9371 46.3561 59.8187 48.7305 62.238 50.6569C62.4844 51.2617 62.7307 51.8665 62.9771 52.4713H62.9996ZM58.3179 43.9593C57.6907 42.6152 57.2203 41.1369 57.0635 39.6809C56.9963 39.0537 57.0187 38.4936 57.1083 37.956C58.0939 40.3528 59.0571 42.7497 60.0427 45.1465C60.4459 46.1545 60.8716 47.1849 61.2748 48.1929C60.0652 46.9609 59.0571 45.5497 58.3179 43.9368V43.9593ZM56.4811 27.6295C59.6171 28.6375 62.7756 29.6008 65.9564 30.4744C65.9564 30.4968 65.9564 30.5191 65.9788 30.5415C66.1132 30.9223 66.2924 31.2807 66.4492 31.6391C70.3917 40.7112 74.3117 49.8058 78.2989 58.8555C78.4557 59.2139 78.5453 59.5275 78.5901 59.8187C74.4685 58.7659 70.3469 57.6907 66.2252 56.6379C66.2252 56.3243 66.1132 56.0107 65.9564 55.6747C64.8588 53.0987 63.8508 50.5002 62.7756 47.9017C59.9307 40.9128 57.0859 33.924 54.2411 26.9575C54.2411 26.9351 54.2187 26.8902 54.1963 26.8678C54.9579 27.1142 55.6971 27.3607 56.4587 27.6071L56.4811 27.6295ZM69.3165 34.7304C70.0781 34.9096 70.8397 35.1112 71.6013 35.3128C77.6045 36.836 83.6526 38.2473 89.7903 38.9865C92.7695 39.3449 95.7711 39.4568 98.7504 39.6584C99.0416 39.6584 99.3328 39.7032 99.8032 39.748C101.976 47.9241 105.246 55.6746 109.637 63.2683C108.248 63.2683 107.106 63.4475 106.008 63.2907C103.835 63.0219 101.64 62.7307 99.5344 62.1707C92.6575 60.3563 85.803 58.5418 78.9261 56.705C78.6573 56.1226 78.411 55.5178 78.1422 54.9354C77.4478 53.3226 76.7309 51.7321 76.0365 50.1193C76.1933 49.6041 76.3054 49.0666 76.3278 48.4842C76.395 47.0729 76.2157 45.5497 75.7453 44.228C74.5133 40.8232 72.5645 38.0905 69.8988 36.0745C69.6972 35.6264 69.5181 35.1784 69.3165 34.7304ZM71.31 39.0312C73.3933 41.3384 74.9165 43.9593 75.1853 47.1178C75.2077 47.4986 75.2301 47.8569 75.1853 48.1929C73.8189 45.0569 72.4525 41.9208 71.0637 38.7848C71.1309 38.852 71.1981 38.9417 71.2653 39.0089L71.31 39.0312ZM115.931 65.9788C115.394 66.1356 115.035 66.2699 114.655 66.3371C112.101 66.7627 109.525 67.2108 106.904 66.9868C106.859 66.9868 106.814 66.9868 106.747 66.9868C106.613 66.9868 106.456 66.9868 106.322 66.9868C97.72 64.7692 89.1183 62.5515 80.5166 60.3338C80.1806 59.5722 79.8446 58.8107 79.5085 58.0491C86.7214 59.9531 93.9343 61.8571 101.17 63.6939C102.872 64.1195 104.619 64.2763 106.344 64.4331C107.643 64.5451 109.39 64.8363 110.578 64.1643C111.272 63.7835 110.757 62.9323 110.466 62.417C109.368 60.401 108.27 58.3851 107.218 56.3242C104.485 50.9482 102.402 45.3481 100.878 39.524C100.699 38.8744 100.52 38.4489 99.7136 38.4489C91.3583 38.5161 83.227 36.9031 75.1405 34.9767C72.9452 34.4615 70.7949 33.7896 68.6221 33.2296C68.3533 32.6472 68.1068 32.0424 67.838 31.46C67.7708 31.2808 67.6812 31.1015 67.614 30.9447C68.3532 31.1463 69.0701 31.3255 69.8093 31.5047C77.291 33.3191 84.7726 35.1111 92.4783 35.6936C95.4128 35.9176 98.3696 35.8504 101.304 35.8952C101.64 35.8952 101.998 35.8952 102.334 35.8728C105.784 46.3785 109.839 56.5707 115.864 66.0012L115.931 65.9788ZM76.7309 66.9195C88.3567 69.8316 99.9824 72.7436 111.339 75.5884L110.712 76.5965C107.621 75.79 103.858 74.8044 100.789 74.0428C92.5903 71.982 84.3694 69.9213 76.1709 67.8604C76.3725 67.5468 76.5517 67.2331 76.7533 66.9195H76.7309ZM77.7166 65.3292C89.2975 68.286 100.878 71.2653 112.235 74.1549L111.855 74.782C110.667 74.446 109.39 74.1101 108.203 73.8188C97.8992 71.2428 87.5951 68.6443 77.2909 66.0683C77.4477 65.8219 77.5821 65.5755 77.7389 65.3515L77.7166 65.3292ZM78.6797 63.7387C90.2383 66.7404 101.774 69.742 113.154 72.6988L112.751 73.3484C109.838 72.5868 106.478 71.7132 103.566 70.9515C95.1215 68.7787 86.6766 66.6284 78.2317 64.4556C78.3661 64.2315 78.5229 63.9852 78.6573 63.7612L78.6797 63.7387ZM109.48 78.4781C106.68 77.7613 103.074 76.8428 100.341 76.1484C92.0079 74.0652 83.5182 71.9373 74.9613 69.7868C75.1853 69.4284 75.3869 69.0699 75.6109 68.7115C87.2367 71.646 98.84 74.558 110.175 77.4028L109.503 78.4557L109.48 78.4781ZM114.834 69.1596C114.05 68.958 113.535 68.8459 113.019 68.7115C112.37 68.5547 111.743 68.3756 111.093 68.2188C112.168 68.0844 113.243 67.9275 114.319 67.7483C114.498 68.2187 114.677 68.6891 114.834 69.1596ZM114.498 70.5708L113.714 71.8252C110.062 70.8396 105.739 69.6972 102.133 68.7788C94.4943 66.8076 86.8783 64.8363 79.2398 62.8427C79.4862 62.4395 79.7325 62.0363 79.9789 61.6331C90.9327 64.4555 101.909 67.278 112.863 70.1005C113.378 70.2349 113.893 70.3916 114.498 70.5708ZM106.725 80.0462C95.7487 77.2686 84.7502 74.5133 73.7741 71.7356C73.9981 71.3996 74.1997 71.0412 74.4237 70.6828C86.1839 73.6172 97.8767 76.5517 108.965 79.3069L108.293 80.3821C107.71 80.2477 107.218 80.1582 106.747 80.0238L106.725 80.0462ZM67.2108 70.078C64.6348 69.4284 62.0363 68.7788 59.4603 68.1292L59.6843 67.7932L61.902 64.2763L62.8652 62.7755L64.2988 60.5131C64.814 59.6843 65.3292 58.8555 65.8444 58.0267C70.0332 59.1019 74.2221 60.1771 78.411 61.2748C78.3214 61.4764 78.2094 61.7003 78.0525 61.9243C76.3949 64.4779 74.8493 67.0764 73.2813 69.6749C72.9453 70.2573 72.5869 70.8172 72.2285 71.3772C70.5484 70.9516 68.8684 70.5261 67.2108 70.1005V70.078ZM25.1431 59.3482L25.6807 58.497C25.9047 58.5418 26.1063 58.5866 26.3303 58.6538C36.7017 61.2523 47.5658 63.9628 58.5643 66.718L58.1163 67.4348L57.9147 67.7483C47.409 65.1051 36.8808 62.4619 26.3527 59.8187C25.9047 59.7067 25.4791 59.5947 25.1207 59.3706L25.1431 59.3482ZM9.37333 29.1527C9.37333 29.1527 9.46291 29.2872 9.48531 29.3544C12.3301 34.6184 15.2198 39.8825 18.0871 45.169C20.1255 48.9098 22.1191 52.6506 24.2023 56.3467C24.4487 56.7947 24.6951 57.2202 24.8743 57.5787L24.7399 57.8026C24.6055 58.0266 24.4711 58.2283 24.3143 58.4523C19.4311 49.2458 14.503 40.0617 9.55251 30.9C9.1941 30.2504 9.14931 29.7127 9.35091 29.1751L9.37333 29.1527Z" fill="black"/>
<path d="M94.6734 59.2811L95.6814 59.4826C95.883 59.5274 96.0174 59.729 95.9726 59.9307C95.9278 60.1323 95.7262 60.2667 95.5246 60.2219C95.1886 60.1547 94.8526 60.0875 94.5166 60.0203C94.315 59.9755 94.1806 59.7739 94.2254 59.5723C94.2702 59.3707 94.4718 59.2363 94.6734 59.2811Z" fill="black"/>
<path d="M39.5902 27.6965L32.4893 25.1877C31.8173 24.9413 31.1229 24.7173 30.4509 24.4709C30.0029 24.3141 30.2045 23.5974 30.6525 23.7542L37.7534 26.263C38.4254 26.5094 39.1198 26.7335 39.7918 26.9799C40.2398 27.1367 40.0382 27.8533 39.5902 27.6965Z" fill="black"/>
<path d="M28.5708 23.7766L27.5403 23.351C27.5403 23.351 27.3612 23.2615 27.3164 23.1719C27.2716 23.0823 27.2491 22.9703 27.2939 22.8807C27.3163 22.7911 27.3835 22.7014 27.4731 22.6566C27.5627 22.6118 27.6747 22.5895 27.7643 22.6343L28.7948 23.0599C28.7948 23.0599 28.9739 23.1494 29.0187 23.239C29.0635 23.3286 29.086 23.4406 29.0412 23.5302C29.0188 23.6199 28.9516 23.7095 28.862 23.7543C28.7724 23.7991 28.6604 23.8214 28.5708 23.7766Z" fill="black"/>
<path d="M97.4507 59.9081C99.8475 60.5577 102.312 61.0506 104.798 61.3194C105.515 61.409 106.209 61.4538 106.926 61.4986C107.419 61.521 107.374 62.2826 106.881 62.2378C104.35 62.0586 101.819 61.7003 99.3323 61.1403C98.6379 60.9835 97.9211 60.8041 97.2267 60.6025C96.7563 60.4681 97.0027 59.7514 97.4507 59.8858V59.9081Z" fill="black"/>
<path d="M54.2168 26.8901C54.2168 26.8901 54.2392 26.9574 54.2616 26.9798C57.1065 33.9687 59.9513 40.9575 62.7961 47.924C63.8489 50.5224 64.8793 53.1208 65.9769 55.6968C66.1113 56.0328 66.2234 56.3466 66.2458 56.6602C70.3674 57.713 74.4891 58.7882 78.6107 59.841C78.5659 59.5274 78.4763 59.2138 78.3195 58.8778C74.3323 49.8281 70.4122 40.7335 66.4697 31.6614C66.3129 31.303 66.1562 30.9222 65.9994 30.5638C65.9994 30.5414 65.9993 30.5189 65.9769 30.4965C62.7961 29.6229 59.6377 28.6598 56.5017 27.6518C55.7401 27.4054 55.0008 27.159 54.2392 26.9126L54.2168 26.8901Z" fill="#F6C359"/>
<path d="M72.2504 71.3321C72.6088 70.772 72.9672 70.212 73.3032 69.6296C74.8712 67.0312 76.4168 64.4103 78.0744 61.8791C78.2088 61.6551 78.3432 61.4535 78.4328 61.2295C74.2439 60.1543 70.0551 59.0791 65.8663 57.9814C65.3511 58.8103 64.8358 59.639 64.3206 60.4678L62.8871 62.7303L61.9238 64.2311L59.7062 67.7479L59.4822 68.084C62.0582 68.7336 64.6566 69.3832 67.2326 70.0328C68.9127 70.4584 70.5927 70.884 72.2504 71.3096V71.3321Z" fill="#F6C359"/>
</g>
</svg>
