<svg width="88" height="86" viewBox="0 0 88 86" fill="none" xmlns="http://www.w3.org/2000/svg">
<path d="M77.8653 48.213C76.6561 58.232 70.3921 68.0226 59.9035 73.1447C50.2098 77.8786 39.2834 75.9827 31.1422 70.3452C22.999 64.7062 17.4298 55.1747 18.6479 44.4062C19.7637 34.5425 25.322 22.6981 35.9444 17.4355C36.761 17.0311 37.7507 17.3654 38.1552 18.1819C38.5597 18.9984 38.2261 19.9885 37.4097 20.3931C28.1219 24.9944 22.9649 35.6042 21.9272 44.7764C20.8702 54.1198 25.6827 62.5504 33.0214 67.6322C40.3624 72.7155 50.0192 74.2991 58.4554 70.1794C67.8975 65.5684 73.5081 56.7712 74.5888 47.8179C75.6665 38.8883 72.2435 29.8794 63.6592 24.6241C59.6327 22.1591 55.3187 21.3903 51.569 21.4723C47.7872 21.555 44.7036 22.4998 43.2047 23.3114C42.4035 23.7452 41.402 23.4472 40.968 22.646C40.5341 21.8447 40.832 20.8432 41.6333 20.4093C43.6717 19.3057 47.2886 18.265 51.4978 18.173C55.7393 18.0803 60.7076 18.9478 65.3819 21.8094C75.2053 27.8231 79.0774 38.1704 77.8653 48.213Z" fill="white"/>
<path d="M70.0602 46.5192C70.0602 58.4104 60.4205 68.0502 48.5292 68.0502C36.638 68.0502 26.9983 58.4104 26.9983 46.5192C26.9983 34.628 36.638 24.9883 48.5292 24.9883C60.4205 24.9883 70.0602 34.628 70.0602 46.5192Z" fill="#C10F2F"/>
<path d="M6.56279 0.0451443C8.89084 -0.110633 11.6203 0.101631 14.1214 1.2385C20.0344 3.92627 22.7315 8.24744 23.7483 9.77268C24.4602 10.8405 25.9022 12.3855 26.5608 13.0442C27.0375 13.5209 27.1381 14.2573 26.806 14.844C26.4737 15.4306 25.7901 15.7233 25.136 15.5598C21.6538 14.6892 17.3754 12.9679 10.8714 9.96604C7.57621 8.44517 5.58981 7.32743 4.11455 6.35862C2.71388 5.43878 1.65266 4.55716 0.628221 3.82542C0.179104 3.50462 -0.0576165 2.96277 0.0120102 2.41526C0.0816663 1.86773 0.447048 1.40246 0.962206 1.20432C2.18463 0.734217 4.23228 0.201106 6.56279 0.0451443ZM12.8792 3.96995C10.9805 3.107 8.79308 2.90246 6.76299 3.03831C6.10731 3.08219 5.48078 3.16348 4.90068 3.26194C5.1614 3.44746 5.44262 3.6417 5.76103 3.85081C7.07735 4.71525 8.92481 5.76346 12.1292 7.24241C15.7594 8.91788 18.6275 10.1602 21.0071 11.0696C19.907 9.41805 17.5845 6.10872 12.8792 3.96995Z" fill="white"/>
</svg>
