<svg width="90" height="107" viewBox="0 0 90 107" fill="none" xmlns="http://www.w3.org/2000/svg">
<path d="M34.9377 92.3562C25.7221 88.1279 18.4685 79.0477 17.1495 67.2989C15.9324 56.4565 21.4853 46.4581 29.643 40.2928C37.8015 34.1269 48.8289 31.6008 58.7528 36.062C67.8438 40.1489 77.3146 49.1636 78.7234 61.0922C78.8301 61.997 78.1834 62.8172 77.2786 62.9242C76.3736 63.0311 75.5528 62.3838 75.4459 61.4788C74.2169 51.0736 65.826 42.8596 57.3995 39.0716C48.8157 35.2129 39.0601 37.3121 31.6327 42.9253C24.2045 48.5394 19.3674 57.4755 20.4289 66.9309C21.615 77.4965 28.1193 85.5974 36.3136 89.3571C44.4861 93.1067 54.325 92.5413 62.3536 85.7607C66.1202 82.5795 68.3459 78.6015 69.556 74.9229C70.7765 71.2126 70.9261 67.9236 70.6613 66.2209C70.5213 65.3204 71.1384 64.4771 72.0389 64.3371C72.9391 64.1972 73.7824 64.8131 73.9226 65.7133C74.2826 68.0279 74.0401 71.8501 72.6901 75.9541C71.3295 80.09 68.806 84.631 64.4831 88.282C55.3979 95.9551 44.1748 96.5942 34.9377 92.3562Z" fill="white"/>
<path d="M68.633 64.3746C68.633 76.4235 58.8654 86.1911 46.8165 86.1911C34.7676 86.1911 25 76.4235 25 64.3746C25 52.3257 34.7676 42.5581 46.8165 42.5581C58.8654 42.5581 68.633 52.3257 68.633 64.3746Z" fill="#C10F2F"/>
<path d="M11.1566 0.0248825C14.0611 0.115646 15.899 1.99899 15.8536 4.83536C15.7856 9.64585 9.954 15.2505 5.09813 15.1371C1.78524 15.069 -0.642674 11.7335 0.15151 8.3525C1.08184 4.24543 6.86805 -0.111285 11.1566 0.00216939V0.0248825ZM11.5651 2.92932C7.93451 2.27129 3.26019 6.46911 3.28288 9.87276C3.28288 10.7804 4.37201 11.8923 5.23427 11.8923C8.52446 11.8923 12.5408 8.05748 12.5408 4.69922C12.5408 4.01849 11.9054 2.9974 11.5651 2.92932Z" fill="white"/>
<path d="M18.7584 33.4034C18.2138 36.807 14.9236 39.6208 11.6334 39.4846C9.25087 39.3938 8.00287 37.6239 8.66091 35.2868C9.56854 32.042 11.588 29.9543 14.969 29.4325C17.6238 29.024 19.1895 30.7259 18.7584 33.3807V33.4034ZM15.264 32.9042C13.9706 31.9738 12.9949 32.5865 12.0873 33.3353C11.225 34.0387 11.3611 34.6287 12.6318 35.9902C14.0387 35.4229 15.1732 34.606 15.264 32.9042Z" fill="white"/>
<path d="M31.0096 23.5554C31.5315 20.4921 34.4813 18.2004 37.5672 18.4726C39.1329 18.6088 40.3128 20.0156 40.1767 21.604C39.8817 24.69 36.773 27.549 33.6644 27.5944C31.8264 27.6171 30.6238 25.8018 31.0096 23.5554ZM36.6369 21.5132C35.0939 20.9913 34.2089 21.7401 33.4375 22.6478C33.2786 22.852 33.2332 23.3058 33.3694 23.5327C33.5055 23.7823 33.9367 24.1227 34.1636 24.0546C35.4797 23.7142 36.6142 23.147 36.6596 21.4905L36.6369 21.5132Z" fill="white"/>
</svg>
