<svg width="113" height="118" viewBox="0 0 113 118" fill="none" xmlns="http://www.w3.org/2000/svg">
<g clip-path="url(#clip0_70_2)">
<path d="M81.9036 16.3423C81.0965 40.7737 81.8249 65.0871 83.203 89.4791C83.2817 90.936 83.2818 91.7432 83.0455 92.2156C63.5555 92.3731 44.1048 93.3771 24.7132 95.2474C24.9691 86.8411 24.1226 78.4151 22.1145 70.1269C20.638 64.0634 11.0308 65.6383 12.5073 71.7412C15.6966 84.8724 15.8344 98.0036 12.9798 111.214C12.3301 114.167 15.795 117.257 18.6299 116.509C30.5602 113.399 42.5495 110.564 54.5979 108.005C64.8351 107.355 75.0329 106.311 85.0536 104.323C85.6245 104.205 86.1166 103.988 86.5694 103.713C87.2978 103.575 88.046 103.417 88.7744 103.28C89.0107 103.221 89.2272 103.142 89.4634 103.063C90.5265 104.028 91.9637 104.441 93.3614 104.205C94.3852 105.327 95.6058 106.292 97.0626 107.099C102.417 110.072 107.969 102.886 102.713 99.1651C93.7945 92.8653 102.949 75.6983 95.8223 68.5126C94.7986 55.5783 93.3811 42.6834 91.4715 29.8278C91.4321 29.5916 91.373 29.4144 91.314 29.1978C91.373 25.2408 91.4715 21.264 91.6093 17.3069C91.8062 11.0662 82.1202 10.0424 81.9036 16.3226V16.3423Z" fill="#8C44F0"/>
<path d="M70.6048 103.241C79.0112 102.571 87.5159 102.118 95.8631 100.918C96.6112 100.819 96.5128 99.697 95.745 99.7364C87.319 100.268 78.9127 101.528 70.5458 102.591C70.1324 102.65 70.1914 103.26 70.6048 103.241Z" fill="white"/>
<path d="M93.518 85.6802C93.9315 90.5035 93.6755 95.5237 94.5811 100.268C94.7583 101.233 96.1167 101.095 96.097 100.111C95.9986 95.2677 94.7386 90.4051 94.1677 85.6015C94.1283 85.188 93.4983 85.2471 93.518 85.6605V85.6802Z" fill="white"/>
<path d="M78.5164 113.517C80.3079 112.119 82.0798 110.682 83.9107 109.324C85.7022 107.985 87.9661 107.04 89.6001 105.544C90.0726 105.111 89.8955 104.048 89.0883 104.205C86.8834 104.638 84.9737 106.331 83.2807 107.729C81.371 109.304 79.6386 111.076 77.9849 112.927C77.6896 113.261 78.1817 113.773 78.5361 113.497L78.5164 113.517Z" fill="white"/>
<path d="M84.9748 112.434C88.5381 111.115 92.8102 108.517 95.0151 105.347C95.4876 104.678 94.7198 103.753 93.9914 104.264C92.3771 105.446 91.0384 107.021 89.4831 108.281C87.9278 109.541 86.3332 110.741 84.6007 111.726C84.207 111.942 84.5614 112.553 84.9748 112.415V112.434Z" fill="white"/>
<path d="M99.7009 112.927C102.811 109.659 106.828 107.434 109.859 104.107C110.489 103.418 109.466 102.335 108.737 102.926C105.213 105.761 101.315 108.517 98.9527 112.454C98.6771 112.907 99.3859 113.262 99.7009 112.927Z" fill="white"/>
<path d="M93.8711 111.943C95.9185 111.076 97.5131 109.147 98.8912 107.474C99.4031 106.844 98.5368 105.84 97.8871 106.411C96.2334 107.867 94.816 109.659 93.4773 111.391C93.2607 111.667 93.5364 112.08 93.8711 111.943Z" fill="white"/>
<path d="M7.09382 14.1574C11.0509 14.5511 15.2245 13.8228 19.1619 13.4684C23.2765 13.0943 59.8745 9.3341 63.9891 8.94037C68.1036 8.52694 72.2182 8.11351 76.3327 7.70008C80.3095 7.28666 84.5816 7.26697 88.4599 6.28262C89.3852 6.04638 89.208 4.43207 88.263 4.3927C84.2665 4.21551 80.0733 5.06209 76.0965 5.47551C71.9819 5.90862 67.8673 6.322 63.7528 6.77479C59.6382 7.20791 23.0599 10.9682 18.9454 11.4406C15.008 11.8934 10.7753 12.0116 6.97571 13.2125C6.50322 13.3503 6.58201 14.1377 7.07418 14.1771L7.09382 14.1574Z" fill="white"/>
<path d="M4.81137 15.9098C4.22076 17.4651 4.43732 19.0006 4.57513 20.6543C4.772 22.879 4.9492 25.1036 5.14607 27.3282C5.52012 31.8365 10.5993 81.1719 11.0521 85.6605C11.4853 90.031 11.9381 94.4015 12.3712 98.7523C12.6074 100.997 12.8239 103.221 13.0602 105.466C13.2571 107.434 13.2768 109.501 13.9068 111.372C14.2021 112.277 15.6983 112.139 15.7967 111.175C16.2495 107.257 15.1667 102.828 14.7533 98.9098C14.2808 94.4015 13.8083 89.9129 13.3555 85.4046C12.9027 81.0538 7.86285 31.8365 7.351 27.4857C7.07538 25.2611 6.81944 23.0364 6.54382 20.8118C6.32727 19.0597 6.26822 17.3469 5.32325 15.831C5.20512 15.6538 4.89011 15.6735 4.81137 15.8901V15.9098Z" fill="white"/>
<path d="M90.5834 7.66075C90.0715 11.6178 90.6425 15.6143 91.0559 19.5517C91.489 23.7844 96.5092 72.8638 96.9423 77.0768C97.3754 81.2701 97.7888 85.4831 98.2219 89.6764C98.6156 93.4563 98.4975 97.7874 99.6787 101.41C99.974 102.315 101.451 102.158 101.549 101.213C101.982 97.4134 100.998 93.2201 100.604 89.4402L99.3047 76.8406C98.8716 72.6079 93.8317 23.5284 93.3986 19.3154C92.9852 15.3781 92.7489 11.3422 91.4299 7.58199C91.2921 7.16856 90.6228 7.22766 90.5637 7.68046L90.5834 7.66075Z" fill="white"/>
<path d="M17.0152 113.222C20.8541 114.01 25.2246 113.065 29.0832 112.73C33.1978 112.356 69.7958 108.615 73.9103 108.182C78.0249 107.749 82.1395 107.336 86.2541 106.922C90.1324 106.529 94.6604 106.686 98.3615 105.406C99.2277 105.111 99.0899 103.713 98.1843 103.595C94.306 103.083 89.8961 104.166 86.0178 104.56C81.9032 104.973 77.7887 105.406 73.6741 105.82C69.5595 106.233 32.9615 109.993 28.8667 110.466C25.008 110.919 20.5391 110.86 16.9364 112.435C16.5623 112.592 16.6214 113.143 17.0152 113.222Z" fill="white"/>
<path d="M19.4763 26.4422C21.6419 26.8556 23.8862 26.4816 26.0715 26.3044C28.3552 26.1075 63.1222 22.5442 65.4059 22.3277C69.8158 21.9142 74.6194 21.9142 78.9111 20.8117C79.8364 20.5755 79.6592 18.9612 78.7143 18.9218C74.2847 18.7052 69.5795 19.6896 65.1894 20.1621C62.9057 20.418 28.1386 23.9813 25.8746 24.2569C23.709 24.5129 21.4253 24.631 19.3976 25.4579C18.9251 25.6547 19.0039 26.3438 19.4961 26.4225L19.4763 26.4422Z" fill="white"/>
<path d="M19.1809 25.9302C18.0784 27.3673 18.7871 29.7888 18.9052 31.4622C19.0824 33.9821 23.9254 81.3685 24.1814 83.8688C24.4373 86.4084 24.6932 88.9283 24.9491 91.4679C25.1657 93.7319 25.0673 96.3896 25.8941 98.5158C26.2485 99.4214 27.6265 99.2836 27.784 98.319C28.1581 96.055 27.5281 93.4957 27.2722 91.2317C26.9965 88.6921 26.7406 86.1721 26.465 83.6325C26.2091 81.1126 21.3267 33.7459 20.992 31.2457C20.7755 29.592 20.9527 27.0524 19.5943 25.8711C19.4762 25.7727 19.2793 25.7924 19.1809 25.9105V25.9302Z" fill="white"/>
<path d="M78.4781 19.7486C77.8875 21.6385 78.0844 23.5481 78.2616 25.4774C78.5175 28.0564 83.3802 75.5019 83.6558 78.0809C83.9117 80.522 84.148 82.9632 84.4039 85.4044C84.6205 87.5503 84.4826 90.1687 85.3489 92.1571C85.7426 93.043 87.0223 92.9248 87.2191 91.9602C87.6522 89.9324 87.0419 87.5897 86.8254 85.5619L86.0182 77.8446C85.7623 75.4035 80.9193 28.0958 80.6634 25.635C80.4468 23.5678 80.2894 21.5007 79.246 19.6501C79.0885 19.3745 78.5569 19.4139 78.4584 19.7289L78.4781 19.7486Z" fill="white"/>
<path d="M26.5627 98.6539C28.3543 99.3233 30.3229 98.9689 32.1932 98.8311C34.7328 98.6539 69.7361 95.0709 72.256 94.8149C74.6382 94.5787 77.0203 94.3228 79.4024 94.0865C81.6664 93.8503 84.1863 93.9094 86.3125 93.1022C87.1788 92.7675 87.041 91.4485 86.1354 91.291C84.0092 90.9367 81.7451 91.4682 79.6189 91.6847C77.099 91.9407 74.5594 92.1966 72.0395 92.4722C69.6574 92.7084 34.8115 96.2915 32.4294 96.6065C30.441 96.8624 28.2164 96.8821 26.5037 97.9649C26.2478 98.1224 26.2871 98.5752 26.5824 98.6736L26.5627 98.6539Z" fill="white"/>
<path d="M89.2062 6.42051C89.8165 5.45585 89.4621 4.51087 89.8165 3.46747C90.2299 2.28625 91.5292 2.36502 92.3955 3.05406C93.0058 3.54623 93.2814 4.35341 93.0255 5.10152C92.6711 6.10555 91.7852 6.22364 90.8599 6.36145C89.4621 6.578 89.2259 8.80266 90.7811 8.97984C95.1319 9.45233 97.6125 3.60529 93.872 1.08537C92.1395 -0.0761588 89.5605 -0.194283 88.2415 1.6366C87.2768 2.97531 86.9028 6.10551 88.9699 6.53862C89.0486 6.53862 89.1668 6.53865 89.2062 6.44021V6.42051Z" fill="white"/>
<path d="M6.44441 14.2758C7.40907 14.453 8.23594 14.1774 8.43281 13.0749C8.59031 12.2481 8.09813 11.4999 7.44847 11.0274C5.79477 9.82655 3.23546 9.74782 1.60145 10.9881C-0.0325631 12.2481 -0.445983 14.4136 0.498988 16.2248C1.34553 17.8588 3.7473 19.5322 5.63724 18.6463C6.64128 18.1738 6.48381 16.7958 5.42072 16.5398C4.41668 16.3036 3.5898 16.4611 2.86138 15.5555C2.32983 14.9058 2.13295 13.9608 2.6645 13.2521C3.29448 12.4055 4.33792 12.3268 5.28289 12.5827C5.63726 12.6812 6.10974 12.8387 6.38536 13.134C6.56254 13.3308 6.38536 12.819 6.38536 13.0946C6.38536 13.2915 6.28689 13.8033 6.22783 14.0002C6.20814 14.138 6.30659 14.2562 6.42471 14.2758H6.44441Z" fill="white"/>
<path d="M14.0243 110.663C14.0243 110.663 14.0243 110.663 14.1227 110.682C14.3393 110.722 14.4967 110.604 14.5952 110.426C14.6149 110.387 14.6543 110.328 14.6739 110.289C14.8118 110.033 14.674 109.718 14.4968 109.54C13.7684 108.871 12.5675 109.245 11.8587 109.757C11.0516 110.328 10.5987 111.332 10.4216 112.297C10.0672 114.285 10.8744 116.667 12.6659 117.73C14.5362 118.852 16.9379 118.203 18.3554 116.667C19.6744 115.23 20.0485 112.297 17.6073 111.785C16.7804 111.608 16.1308 112.494 16.4064 113.242C16.7214 114.108 17.0167 114.383 16.2095 115.112C15.4811 115.762 14.3196 116.155 13.5321 115.407C12.8234 114.738 12.5478 113.498 12.7053 112.553C12.9218 111.312 13.9456 111.273 14.5755 110.407C14.3787 110.485 14.1818 110.544 13.9849 110.623C13.7486 110.544 13.7683 109.993 13.729 110.407C13.729 110.545 13.8471 110.702 14.0046 110.623L14.0243 110.663Z" fill="white"/>
<path d="M97.7107 103.3C95.1317 104.225 97.1989 108.241 98.7935 109.088C100.9 110.19 104.03 109.107 105.211 107.08C106.176 105.367 105.861 103.142 104.68 101.626C103.518 100.15 100.861 99.1261 99.7385 101.233C99.4432 101.784 99.8566 102.729 100.546 102.749C101.294 102.768 101.806 102.552 102.357 103.083C102.928 103.634 103.243 104.658 103.026 105.426C102.731 106.43 101.451 106.942 100.487 106.981C99.1085 107.021 98.2226 105.229 98.5967 104.028C98.7542 103.536 98.1439 103.162 97.7304 103.319L97.7107 103.3Z" fill="white"/>
<mask id="mask0_70_2" style="mask-type:luminance" maskUnits="userSpaceOnUse" x="17" y="-25" width="107" height="122">
<path d="M58.259 96.4289L40.403 94.598C40.403 94.598 27.5081 97.7085 27.6262 96.8423C27.7443 95.9761 24.0431 58.6891 24.0431 58.6891L17.3496 -1.86788L58.3377 -25L115.272 -20.4917L123.226 79.1635L93.3607 87.2548L58.2787 96.4092L58.259 96.4289Z" fill="white"/>
</mask>
<g mask="url(#mask0_70_2)">
<path d="M47.918 35.6752L50.497 35.1633C50.5757 34.6711 50.6348 34.2773 50.6742 33.9033C51.3435 27.2294 52.2885 20.595 53.3516 13.9605C53.6469 12.0509 53.8831 10.1412 54.0997 8.21189C54.1784 7.48348 54.1588 6.73538 54.1194 6.00697C54.1194 5.67229 54.0013 5.31795 53.8831 4.98327C53.7847 4.68797 53.5681 4.53043 53.2532 4.51074C52.9578 4.51074 52.8004 4.70761 52.7019 4.94386C52.5444 5.29822 52.387 5.65262 52.3082 6.02667C52.0917 6.91258 51.8751 7.79847 51.7373 8.70406C51.186 12.1296 50.6348 15.5748 50.1426 19.0003C49.3552 24.4142 48.6268 29.8478 47.8787 35.2617C47.8787 35.3798 47.918 35.5176 47.9377 35.6555L47.918 35.6752Z" fill="white"/>
<path d="M58.4523 10.5349C61.9763 17.2482 65.5199 23.9418 69.0635 30.6353C69.1817 30.8519 69.3392 31.0291 69.477 31.2456C70.2054 31.1472 70.8945 31.1078 71.6032 30.714C70.9929 29.6509 70.4613 28.706 69.9298 27.761C67.4099 23.2527 65.1656 18.6066 62.8819 13.9802C61.9369 12.0705 60.9329 10.1609 59.9289 8.29067C59.5942 7.68038 59.1807 7.10943 58.7476 6.53851C58.5311 6.26289 58.2555 6.02664 57.9602 5.84945C57.5271 5.59352 57.1333 5.81008 56.9955 6.28257C56.8773 6.67631 56.9955 7.05037 57.1333 7.40474C57.5467 8.44814 57.9011 9.51127 58.4326 10.5153L58.4523 10.5349Z" fill="white"/>
<path d="M70.8955 33.7658C69.8914 34.6124 69.4189 35.6951 69.5371 36.8173C69.7339 37.9001 70.3836 38.5497 71.2301 38.7269C72.0766 38.8844 72.8641 38.5497 73.3366 37.841C74.2028 36.5023 73.8878 34.7698 72.6476 33.7855C72.0373 33.2933 71.2892 33.4508 70.8955 33.7855V33.7658Z" fill="white"/>
<path d="M108.616 25.2804C108.478 25.2214 108.34 25.182 108.241 25.1033C107.69 24.7292 107.06 24.6898 106.411 24.7095C105.702 24.7292 105.013 24.7883 104.304 24.9064C100.485 25.5167 96.6656 26.1073 92.866 26.7963C87.1174 27.8397 81.4082 28.9816 75.6794 30.0841C75.2659 30.1628 74.8525 30.2415 74.3997 30.3399C74.1438 29.9462 73.9272 29.5919 73.7107 29.2178C71.8798 26.0876 70.1867 22.8983 68.5724 19.6697C66.8793 16.3032 65.2453 12.9367 63.5522 9.57026C62.9419 8.34968 62.2332 7.16845 61.5442 5.98723C61.0914 5.23913 60.5401 4.55013 59.8511 3.99889C58.9652 3.30985 58.0005 3.03422 56.8783 3.30984C56.6224 3.3689 56.3468 3.42794 56.0712 3.46731C55.8546 3.23107 55.6774 3.0145 55.4806 2.83731C54.3387 1.73485 51.8385 1.38049 50.5982 3.52637C50.3226 4.01854 50.1061 4.53042 49.9486 5.08165C49.6729 6.066 49.4367 7.05036 49.2792 8.05439C48.9248 10.1018 48.6099 12.1493 48.2949 14.1967C47.1924 21.3037 46.2277 28.45 45.3418 35.5964C45.3221 35.8326 45.2631 36.0689 45.204 36.3445C44.9087 36.4232 44.6528 36.5019 44.3772 36.561C42.1526 37.0532 39.9279 37.5651 37.6836 38.0572C32.0531 39.2975 26.4424 40.5968 20.871 42.093C18.6661 42.6836 16.4611 43.2743 14.3152 44.0421C13.6853 44.2586 13.075 44.5342 12.4253 44.672C11.815 44.8098 11.3229 45.1248 10.9094 45.5579C9.80697 46.621 9.17695 47.9401 8.96039 49.456C8.62572 51.7396 9.33448 53.6886 11.0866 55.2045C11.9331 55.9329 12.9372 56.3267 14.079 56.3267C14.2759 56.3267 14.4924 56.3267 14.6893 56.3267C14.8271 56.622 14.9649 56.8582 15.0831 57.1338C16.3627 60.2247 17.9573 63.158 19.6307 66.0323C21.3435 68.9853 23.0759 71.899 24.769 74.8718C26.8164 78.4745 28.7654 82.1362 30.4191 85.9358C30.7932 86.802 31.1475 87.6879 31.4822 88.5738C31.7972 89.381 32.3288 89.9322 33.1359 90.2275C33.6281 90.4047 34.1203 90.3653 34.5928 90.326C36.6599 90.1488 38.727 89.9913 40.7744 89.7551C43.4322 89.4401 46.0702 89.0857 48.7083 88.692C52.7047 88.121 56.7011 87.5107 60.6976 86.8807C63.1978 86.487 65.6981 86.0736 68.1983 85.6799C72.7066 84.9908 77.2346 84.2624 81.7036 83.3962C86.6056 82.4512 91.5076 81.5456 96.3309 80.2266C97.5121 79.9116 98.6737 79.4982 99.8352 79.1044C100.327 78.9273 100.8 78.6713 101.174 78.2973C101.548 77.9232 101.725 77.5098 101.627 76.9586C101.568 76.6633 101.568 76.3286 101.607 76.0333C101.981 72.4306 102.375 68.8475 102.749 65.2448C103.694 55.9132 104.914 46.621 106.332 37.3485C106.391 36.9744 106.489 36.6004 106.568 36.1869C107.828 36.3051 108.753 35.6948 109.679 35.0254C111.076 34.0017 111.805 32.6433 111.903 30.9109C112.08 28.1153 110.486 26.0482 108.596 25.3198L108.616 25.2804ZM53 38.0966C53 38.0966 52.9016 37.9981 52.8819 37.9194C52.685 37.6044 52.7638 37.3682 53.0985 37.2698C53.2363 37.2304 53.3741 37.191 53.5119 37.1713C57.9217 36.2657 62.3119 35.3798 66.7218 34.4742C66.899 34.4348 67.0565 34.4348 67.2534 34.4151C67.1746 35.2026 67.0368 35.9704 67.0171 36.7185C66.9778 37.5454 67.2336 38.3131 67.6471 39.0219C68.0408 39.7109 68.6117 40.2031 69.2417 40.6559C69.0842 41.03 68.7692 40.9512 68.5133 41.0103C63.8278 41.9355 59.1423 42.8608 54.4765 43.7861C54.1812 43.8452 53.8663 43.8846 53.4135 43.9633C53.5513 43.5302 53.6497 43.2743 53.7285 42.9987C54.2206 41.2662 54.1419 39.5928 53.0394 38.0769L53 38.0966ZM56.4649 12.3658L66.8005 31.6393C66.6627 31.9543 66.3478 31.9149 66.0918 31.974C63.5916 32.5055 61.0717 32.9977 58.5714 33.5096C57.154 33.8049 55.7562 34.1002 54.3388 34.3758C54.0041 34.4545 53.6497 34.5136 53.315 34.5727C53.0788 33.1158 55.6381 14.9842 56.2877 12.3068C56.4059 12.3461 56.4453 12.3658 56.4846 12.3658H56.4649ZM46.6608 40.6165C46.7002 39.8684 47.0939 39.3172 48.098 39.0416C48.7477 38.8644 49.417 38.9432 50.0667 39.1203C50.736 39.2975 51.1495 39.7503 51.307 40.4C51.3857 40.7346 51.4054 41.089 51.3857 41.4434C51.2873 43.1758 49.8698 44.2389 48.1964 43.9042C47.6058 43.7861 47.1727 43.4515 46.9562 42.8805C46.8577 42.6246 46.7986 42.349 46.6805 41.9553C46.6805 41.5812 46.6805 41.089 46.6805 40.6165H46.6608ZM14.8468 53.5115C14.0593 54.0036 13.3703 53.728 12.7206 53.2162C12.0119 52.6452 11.5787 51.8774 11.4803 50.9718C11.3425 49.8891 11.5788 48.885 12.0513 47.9204C12.3269 47.3495 12.7403 46.9754 13.3899 46.8376C14.1774 46.6407 14.9452 46.4045 15.713 46.1682C21.2844 44.5539 26.8952 43.1168 32.5453 41.8371C36.2465 40.9906 39.9476 40.1637 43.6291 39.3172C43.8653 39.2581 44.1016 39.2187 44.4953 39.14C43.7866 41.5812 44.0622 43.6877 45.7159 45.5382C45.4009 45.6367 45.1647 45.7155 44.9284 45.7745C43.4322 46.1289 41.9163 46.4439 40.4201 46.8179C36.1284 47.8613 31.8169 48.9047 27.5251 49.9678C24.9068 50.6175 22.2885 51.3262 19.6898 52.0349C18.1936 52.4484 16.7367 52.9011 15.2405 53.3539C15.1027 53.3933 14.9649 53.4327 14.8468 53.5115ZM103.91 37.2501C103.162 40.6953 102.769 44.1799 102.276 47.6644C101.115 55.8739 100.308 64.1227 99.4611 72.3715C99.3233 73.7693 99.1461 75.167 98.9689 76.6239C98.6736 76.7617 98.3587 76.9192 98.0437 77.0373C97.2759 77.2932 96.5081 77.5492 95.7206 77.7263C93.2204 78.3169 90.7398 78.9469 88.2199 79.4588C84.4597 80.2266 80.6995 80.9747 76.9393 81.6244C72.431 82.4118 67.9227 83.0812 63.4144 83.8096C60.9929 84.2033 58.5518 84.5971 56.1303 84.9515C52.4882 85.5027 48.8264 86.0342 45.1843 86.5461C41.7391 87.0186 38.2939 87.4517 34.829 87.8848C34.5928 87.9242 34.3369 87.9045 34.0416 87.9241C33.7659 87.2548 33.5297 86.6051 33.254 85.9752C31.6988 82.1953 29.8285 78.5729 27.8401 75.0292C25.8321 71.4856 23.7847 67.9616 21.7175 64.4574C20.0638 61.6422 18.666 58.6891 17.1502 55.7952C17.0911 55.677 17.0714 55.5392 17.0123 55.3817C17.2092 55.3226 17.3667 55.2439 17.5439 55.2045C20.4379 54.4367 23.3122 53.6492 26.2061 52.9208C29.5332 52.0743 32.88 51.2278 36.2268 50.4206C49.2398 47.2707 62.4104 44.7507 75.5612 42.2702C84.7157 40.5377 93.8701 38.7856 102.985 36.8957C103.28 36.8366 103.576 36.6988 103.93 36.8563C103.93 36.9941 103.93 37.1319 103.891 37.2501H103.91ZM109.068 31.8952C108.517 32.8796 107.671 33.5292 106.489 33.667C105.761 33.7458 105.033 33.8442 104.304 33.982C98.2011 35.2026 92.1179 36.4626 86.015 37.6635C82.806 38.2934 79.5971 38.8841 76.3684 39.4747C76.0731 39.5337 75.7581 39.5534 75.2462 39.6322C75.9943 38.4116 76.329 37.3091 76.3881 36.0885C76.4274 34.8679 75.9353 33.8442 75.3644 32.7614C75.7778 32.663 76.1125 32.5843 76.4668 32.5055C83.5147 31.1865 90.5626 29.8478 97.6105 28.5288C99.8942 28.1153 102.178 27.761 104.481 27.4066C105.17 27.3082 105.879 27.2885 106.568 27.1901C107.297 27.0916 107.867 27.3869 108.379 27.8594C109.344 28.7847 109.738 30.714 109.068 31.8755V31.8952Z" fill="black"/>
<path d="M56.2659 54.1807C54.4547 54.4563 52.6633 54.7712 50.8717 55.0665C50.5568 55.1256 50.2614 55.2437 49.9858 55.3815C49.5724 55.5784 49.4937 55.8147 49.5921 56.2478C50.1827 59.0039 50.7536 61.7404 51.1867 63.7485C51.9939 67.0362 52.6042 69.5955 53.2538 72.1548C53.6476 73.6904 54.0807 75.2062 54.4941 76.7221C54.5729 76.9978 54.6713 77.2537 54.8091 77.49C54.9863 77.8049 55.3013 77.9428 55.6163 77.7459C56.0691 77.4703 56.5416 77.4703 57.0338 77.3915C57.7622 77.2734 58.4906 77.1553 59.219 76.9978C59.5536 76.919 59.8883 76.8009 60.223 76.6828C60.5577 76.5647 60.7152 76.289 60.6758 75.9347C60.6365 75.5606 60.5971 75.1669 60.5183 74.7929C60.0458 72.1942 59.5143 69.6152 59.1403 67.0165C58.6875 63.9257 58.3725 60.8151 57.959 57.7243C57.8409 56.7793 57.644 55.8541 57.4275 54.9288C57.2503 54.2004 56.9944 54.0428 56.2856 54.161L56.2659 54.1807ZM56.3447 56.484C56.5613 58.0393 56.7975 59.6142 56.955 61.1892C57.4078 65.5991 58.0378 69.9696 58.9237 74.3007C59.0024 74.7141 59.1403 75.1078 59.0812 75.5213C58.3134 75.8756 56.8959 76.0922 55.8919 76.0134C55.8525 76.0134 55.8328 75.9741 55.7935 75.9544C55.7738 75.9347 55.7541 75.8953 55.7344 75.8756C55.6163 75.4819 55.4982 75.0685 55.3801 74.6747C53.8051 68.808 52.4467 62.9019 51.1277 56.9762C51.108 56.8777 51.1277 56.7794 51.1277 56.6612C51.7773 56.3266 54.8091 55.6965 56.0494 55.6375C56.2857 55.8737 56.2856 56.1887 56.325 56.5037L56.3447 56.484Z" fill="black"/>
<path d="M45.0655 73.9268C44.3764 71.5053 43.7071 69.0642 43.0574 66.623C42.4275 64.2803 41.8369 61.9375 41.2266 59.5948C41.1478 59.3192 41.069 59.0435 40.9509 58.8073C40.6753 58.2954 40.2029 58.0789 39.6319 58.197C39.4548 58.2364 39.2973 58.3151 39.1398 58.3545C38.2145 58.6498 37.2695 58.9648 36.3442 59.2601C35.2614 59.5947 34.1787 59.8901 33.1156 60.2051C32.9187 60.2641 32.7021 60.3232 32.5249 60.4019C32.1509 60.5594 32.0328 60.8941 32.1903 61.2682C33.0368 63.2762 33.8439 65.304 34.7299 67.2727C36.541 71.2691 38.3917 75.2459 40.2422 79.2226C40.38 79.5376 40.5572 79.8526 40.7344 80.1479C41.1478 80.7976 41.7581 81.1126 42.5259 81.0141C43.0181 80.9551 43.4905 80.8369 43.963 80.7385C43.963 80.7582 43.963 80.7976 43.9827 80.8173C44.7111 80.581 45.4592 80.3448 46.1679 80.0691C46.6207 79.892 46.7389 79.6163 46.6601 79.1439C46.6207 78.947 46.5617 78.7304 46.5026 78.5336C46.0302 76.998 45.5183 75.4624 45.0852 73.9071L45.0655 73.9268ZM45.0064 78.947C44.0615 79.2817 43.1362 79.5376 42.1519 79.5573C41.8369 79.321 41.699 78.9864 41.5612 78.6714C39.0807 73.2772 36.6198 67.883 34.1393 62.4887C34.0015 62.1738 33.903 61.8391 33.7652 61.4847C34.7496 61.0516 35.7536 60.9138 36.7183 60.6382C37.6829 60.3626 38.6475 60.0476 39.6516 59.7326C39.9469 60.2051 40.065 60.7169 40.2028 61.2091C40.6556 63.0203 41.0887 64.8315 41.5612 66.623C42.2109 69.0642 42.8803 71.5054 43.5693 73.9465C44.0024 75.4624 44.4749 76.9783 44.9474 78.4745C44.9867 78.6123 44.9868 78.7501 45.0261 78.947H45.0064Z" fill="black"/>
<path d="M90.2055 49.1998C90.107 49.1998 89.9889 49.2195 89.8905 49.2391C87.8037 49.436 85.6972 49.6526 83.6103 49.8494C83.3741 49.8691 83.1182 49.8888 82.8819 49.9282C82.2323 50.066 81.9369 50.4401 81.9172 51.1094C81.9172 51.2866 81.937 51.4638 81.9566 51.6409C82.1929 53.4128 82.4094 55.1846 82.6456 56.9761C82.9016 58.8266 83.1969 60.6576 83.4528 62.5082C83.6103 63.6303 83.7087 64.7327 83.8269 65.8549C84.0237 67.8039 84.2009 69.7726 84.3781 71.7216C84.4372 72.4303 84.6931 72.6863 85.3822 72.6469C86.1499 72.6272 86.9178 72.5288 87.8037 72.45C88.2368 72.3122 88.7683 72.1547 89.2998 71.9579C89.8314 71.761 90.1267 71.3279 90.2645 70.7766C90.3236 70.501 90.363 70.2254 90.3826 69.9498C90.422 69.2214 90.4417 68.4732 90.4613 67.7448C90.6188 63.9256 90.8158 60.1063 90.9339 56.2871C90.9929 54.1806 90.9732 52.074 90.9732 49.9675C90.9732 49.436 90.6976 49.1801 90.2055 49.1998ZM89.6345 51.7591C89.4573 56.2477 89.2998 60.7363 89.1227 65.2249C89.0636 66.5833 89.0242 67.9614 88.9848 69.3198C88.9848 69.5364 88.9849 69.7333 88.9455 69.9498C88.8667 70.6192 88.8077 70.7373 88.1383 70.8554C87.4296 71.0129 86.7012 71.2098 85.8546 71.1113C85.7956 70.7176 85.7365 70.4223 85.7169 70.1073C85.4216 66.7211 85.0474 63.335 84.5553 59.9685C84.2009 57.547 83.8465 55.1058 83.5119 52.6843C83.4528 52.2709 83.3544 51.8575 83.4528 51.4835C83.5512 51.4244 83.6104 51.3654 83.6891 51.3654C83.7875 51.3457 83.8859 51.326 84.004 51.3063C85.8546 51.1094 87.6855 50.9322 89.5361 50.7354C89.7132 51.07 89.6542 51.4244 89.6345 51.7591Z" fill="black"/>
<path d="M72.312 51.2671C72.0758 51.2671 71.8198 51.2671 71.5836 51.3065C70.678 51.464 69.7921 51.6608 68.9062 51.838C68.9062 51.838 68.9062 51.8774 68.9062 51.8971C68.5322 51.9758 68.1384 52.0349 67.7643 52.1333C67.3903 52.2121 67.0163 52.3105 66.6422 52.3893C65.2051 52.7239 65.087 52.9011 65.3429 54.3382C65.6972 56.3069 66.2681 58.2363 66.78 60.1656C67.3903 62.4099 68.0597 64.6345 68.6109 66.8788C69.1228 68.9656 69.5165 71.0721 69.9496 73.1589C70.0087 73.4739 70.0677 73.7889 70.1465 74.0842C70.304 74.7733 70.7174 75.0292 71.3868 74.8914C72.253 74.7142 73.0995 74.5371 73.9658 74.3796C74.517 74.2811 75.0288 74.0448 75.6195 74.1433C75.9738 74.2023 76.2297 73.9661 76.2691 73.592C76.3085 73.218 76.3085 72.8243 76.2691 72.4502C75.9344 69.9106 75.6194 67.371 75.206 64.8314C74.6154 61.1106 73.9657 57.4094 73.3358 53.7083C73.2373 53.1177 73.1192 52.5468 73.0208 51.9561C72.9617 51.5624 72.7254 51.3262 72.3317 51.2868L72.312 51.2671ZM74.7335 71.6431C74.7729 71.958 74.7729 72.273 74.7729 72.6077C73.7295 72.9817 72.7255 73.3558 71.564 73.4543C71.4655 73.0802 71.3671 72.7456 71.308 72.4109C70.934 70.6587 70.6189 68.8869 70.1661 67.1544C69.5755 64.7723 68.9062 62.4099 68.2565 60.0278C67.7643 58.1969 67.2328 56.366 66.7406 54.5351C66.6816 54.3186 66.7012 54.0626 66.6619 53.8067C66.8391 53.728 66.9572 53.6492 67.0753 53.6295C68.4928 53.3342 69.8906 53.0586 71.308 52.783C71.4064 52.783 71.5048 52.8224 71.6427 52.8421C71.7017 52.9602 71.7608 53.098 71.8002 53.2161C72.9027 59.3388 73.887 65.4811 74.7138 71.6431H74.7335Z" fill="black"/>
<path d="M102.986 36.896C93.871 38.786 84.7166 40.5381 75.5622 42.2705C62.3917 44.7511 49.2408 47.271 36.2278 50.4209C32.881 51.2281 29.5342 52.0746 26.2071 52.9211C23.3131 53.6692 20.4389 54.437 17.5449 55.2048C17.3677 55.2442 17.2102 55.3229 17.0133 55.382C17.0527 55.5395 17.0921 55.6774 17.1511 55.7955C18.6473 58.6895 20.0451 61.6425 21.7185 64.4577C23.7856 67.962 25.833 71.4859 27.8411 75.0296C29.8492 78.5732 31.7194 82.1956 33.255 85.9755C33.5109 86.6252 33.7669 87.2748 34.0425 87.9245C34.3575 87.9245 34.5938 87.9245 34.83 87.8851C38.2752 87.4323 41.7401 87.0189 45.1853 86.5464C48.847 86.0346 52.4892 85.503 56.1313 84.9518C58.5724 84.5777 60.9939 84.184 63.4154 83.8099C67.9237 83.0815 72.4517 82.4122 76.9403 81.6247C80.7202 80.975 84.4804 80.2269 88.2209 79.4591C90.7408 78.9473 93.2214 78.3173 95.7216 77.7267C96.5091 77.5298 97.2769 77.2739 98.0446 77.0376C98.3793 76.9392 98.6746 76.762 98.9699 76.6242C99.1471 75.1477 99.3046 73.7696 99.4621 72.3718C100.309 64.123 101.116 55.8742 102.277 47.6648C102.769 44.1802 103.163 40.6956 103.911 37.2504C103.931 37.1126 103.931 36.9747 103.951 36.8566C103.596 36.6991 103.301 36.837 103.006 36.896H102.986ZM46.1696 80.0694C45.4609 80.345 44.7128 80.5616 43.9844 80.8175C43.9844 80.7978 43.9844 80.7584 43.9647 80.7388C43.4922 80.8372 43.0001 80.9553 42.5276 81.0144C41.7598 81.1128 41.1495 80.8175 40.7361 80.1482C40.5589 79.8529 40.3817 79.5379 40.2439 79.2229C38.3933 75.2461 36.5427 71.2694 34.7315 67.2729C33.8259 65.2845 33.0385 63.2765 32.192 61.2684C32.0345 60.8747 32.1526 60.5597 32.5266 60.4022C32.7235 60.3235 32.9204 60.2644 33.1172 60.2053C34.2 59.8903 35.2828 59.5753 36.3459 59.2603C37.2908 58.965 38.2162 58.6501 39.1414 58.3547C39.2989 58.2957 39.4761 58.2367 39.6336 58.1973C40.2045 58.0792 40.6967 58.276 40.9526 58.8076C41.0904 59.0438 41.1692 59.3194 41.2282 59.595C41.8385 61.9378 42.4291 64.2805 43.0591 66.6233C43.7088 69.0645 44.3781 71.5056 45.0672 73.9271C45.5003 75.4824 46.0121 77.018 46.4846 78.5535C46.5437 78.7504 46.6225 78.9473 46.6421 79.1638C46.7209 79.6363 46.6028 79.8922 46.15 80.0891L46.1696 80.0694ZM57.9424 57.7445C58.3558 60.8353 58.6708 63.9458 59.1236 67.0367C59.5174 69.6354 60.0489 72.2144 60.5017 74.813C60.5608 75.1871 60.6198 75.5808 60.6592 75.9549C60.6986 76.3092 60.5214 76.5652 60.2064 76.703C59.8717 76.8211 59.5371 76.9392 59.2024 77.018C58.474 77.1755 57.7455 77.2739 57.0171 77.4117C56.5446 77.4904 56.0525 77.4905 55.5997 77.7661C55.2847 77.9433 54.9697 77.8251 54.7925 77.5101C54.6547 77.2739 54.5366 76.9982 54.4775 76.7423C54.0444 75.2264 53.6113 73.7105 53.2373 72.1749C52.5876 69.6156 51.9773 67.0564 51.1701 63.7687C50.737 61.7606 50.1661 59.0044 49.5755 56.2679C49.477 55.8348 49.5755 55.6183 49.9692 55.4017C50.2449 55.2639 50.5598 55.1458 50.8551 55.0867C52.6466 54.7717 54.4579 54.4765 56.2494 54.2008C56.9581 54.0827 57.214 54.2402 57.3912 54.9686C57.6274 55.8939 57.8046 56.8192 57.9227 57.7642L57.9424 57.7445ZM73.3179 53.689C73.9479 57.3901 74.5976 61.0912 75.1882 64.8121C75.5819 67.3517 75.9165 69.8913 76.2512 72.4309C76.3103 72.8049 76.3103 73.1987 76.2512 73.5728C76.2118 73.9271 75.9559 74.183 75.6016 74.124C75.011 74.0256 74.4991 74.2618 73.9479 74.3602C73.0817 74.5177 72.2154 74.6949 71.3689 74.8721C70.6996 75.0099 70.3058 74.7737 70.1286 74.0649C70.0499 73.7499 69.9908 73.4546 69.9317 73.1396C69.4789 71.0331 69.1049 68.9266 68.593 66.8595C68.0418 64.6152 67.3725 62.3906 66.7622 60.1463C66.2503 58.2169 65.6597 56.2876 65.325 54.319C65.0691 52.9015 65.1675 52.7243 66.6244 52.3699C66.9984 52.2715 67.3725 52.1927 67.7465 52.114C68.1206 52.0352 68.4946 51.9565 68.8883 51.8777C68.8883 51.8777 68.8883 51.8384 68.8883 51.8187C69.7742 51.6415 70.6799 51.4643 71.5658 51.2872C71.802 51.2478 72.0579 51.2281 72.2942 51.2478C72.6879 51.2675 72.9045 51.5037 72.9832 51.9172C73.0817 52.5078 73.1997 53.0786 73.2982 53.6693L73.3179 53.689ZM90.9968 49.9681C90.9968 52.0746 91.0361 54.1811 90.9574 56.2876C90.8392 60.1069 90.6424 63.9261 90.4849 67.7454C90.4455 68.4738 90.4455 69.222 90.4061 69.9504C90.4061 70.226 90.3667 70.5016 90.288 70.7772C90.1699 71.3284 89.8549 71.7419 89.3234 71.9584C88.8115 72.1553 88.2602 72.3128 87.8271 72.4506C86.9412 72.5293 86.1735 72.6278 85.4057 72.6475C84.7166 72.6672 84.4607 72.4112 84.4016 71.7222C84.2048 69.7732 84.0276 67.8045 83.8504 65.8555C83.7323 64.7333 83.6338 63.6112 83.4763 62.5087C83.2204 60.6581 82.9251 58.8272 82.6692 56.9766C82.4132 55.2048 82.1967 53.433 81.9801 51.6415C81.9604 51.4643 81.9408 51.2872 81.9408 51.11C81.9408 50.4406 82.2557 50.0469 82.9054 49.9288C83.1416 49.8697 83.3976 49.8697 83.6338 49.85C85.7206 49.6531 87.8271 49.4366 89.9139 49.2397C90.0124 49.2397 90.1305 49.2003 90.2289 49.2003C90.7211 49.2003 90.9968 49.4366 90.9968 49.9681Z" fill="#8CC747"/>
<path d="M27.525 49.9679C31.8167 48.8852 36.1085 47.8615 40.4199 46.8181C41.9161 46.4637 43.432 46.129 44.9283 45.7747C45.1645 45.7156 45.381 45.6368 45.7157 45.5384C44.062 43.6878 43.7864 41.5813 44.4951 39.1401C44.1014 39.2189 43.8652 39.2583 43.6289 39.3173C39.9278 40.1638 36.2266 41.0104 32.5452 41.8373C26.895 43.1169 21.2842 44.5541 15.7128 46.1684C14.945 46.3849 14.1576 46.6409 13.3898 46.8377C12.7598 46.9952 12.3267 47.3496 12.0511 47.9205C11.5786 48.8852 11.3423 49.9089 11.4801 50.972C11.5983 51.8776 12.0117 52.6454 12.7204 53.2163C13.3701 53.7282 14.0592 54.0038 14.8467 53.5116C14.9648 53.4329 15.1025 53.3935 15.2404 53.3541C16.7169 52.9013 18.1934 52.4485 19.6896 52.0351C22.2883 51.3264 24.9066 50.6176 27.525 49.9679Z" fill="#8CC747"/>
<path d="M108.379 27.8987C107.887 27.4262 107.296 27.1309 106.568 27.2294C105.879 27.3278 105.17 27.3474 104.481 27.4459C102.197 27.8002 99.8941 28.1349 97.6104 28.568C90.5625 29.8674 83.5146 31.2061 76.4667 32.5448C76.132 32.6039 75.7973 32.7023 75.3642 32.8007C75.9351 33.8835 76.4273 34.9269 76.3879 36.1278C76.3485 37.3484 75.9942 38.4706 75.2461 39.6715C75.758 39.5927 76.073 39.573 76.3683 39.514C79.5772 38.9037 82.8059 38.3328 86.0148 37.7028C92.1178 36.4822 98.2207 35.242 104.304 34.0214C105.032 33.8836 105.761 33.7851 106.489 33.7064C107.67 33.5686 108.517 32.9188 109.068 31.9345C109.718 30.773 109.344 28.8437 108.379 27.9184V27.8987Z" fill="#8CC747"/>
<path d="M53.3722 43.9637C53.825 43.8849 54.14 43.8456 54.4353 43.7865C59.1208 42.8612 63.8063 41.9359 68.4721 41.0107C68.728 40.9516 69.043 41.0304 69.2005 40.6563C68.5705 40.2035 67.9996 39.6916 67.6058 39.0223C67.1924 38.3135 66.9365 37.5458 66.9758 36.7189C67.0152 35.9511 67.1333 35.203 67.2121 34.4155C67.0152 34.4155 66.838 34.4352 66.6805 34.4746C62.2707 35.3802 57.8805 36.2661 53.4706 37.1717C53.3328 37.1914 53.195 37.2308 53.0572 37.2702C52.7422 37.3686 52.6635 37.6245 52.8406 37.9198C52.88 37.9789 52.9194 38.0379 52.9588 38.097C54.0612 39.6129 54.14 41.2666 53.6478 43.0187C53.5691 43.2943 53.4706 43.5503 53.3328 43.9834L53.3722 43.9637Z" fill="#8CC747"/>
<path d="M48.1984 43.8847C49.8915 44.239 51.309 43.1563 51.3877 41.4238C51.3877 41.0694 51.3877 40.7151 51.3089 40.3804C51.1514 39.7111 50.738 39.2583 50.0687 39.1008C49.419 38.9236 48.7496 38.8645 48.1 39.022C47.0959 39.2779 46.6825 39.8489 46.6628 40.597C46.6431 41.0892 46.6628 41.5616 46.6628 41.9357C46.7809 42.3294 46.84 42.605 46.9384 42.861C47.1747 43.4122 47.6078 43.7469 48.1787 43.8847H48.1984Z" fill="#8CC747"/>
<path d="M72.6476 33.7656C73.8878 34.75 74.2028 36.4824 73.3366 37.8211C72.8838 38.5299 72.0766 38.8645 71.2301 38.707C70.3836 38.5495 69.7339 37.8802 69.5371 36.7974C69.4189 35.6752 69.8914 34.5728 70.8955 33.7459C71.2892 33.4113 72.0176 33.2538 72.6476 33.7459V33.7656Z" fill="#8CC747"/>
<path d="M57.0355 6.30218C57.1733 5.81 57.5473 5.59345 58.0001 5.86906C58.2954 6.04624 58.5907 6.2825 58.7876 6.55812C59.2207 7.10935 59.6341 7.68024 59.9688 8.31022C60.9728 10.2002 61.9768 12.0901 62.9218 13.9998C65.2055 18.6262 67.4498 23.2723 69.9698 27.7806C70.5013 28.7256 71.0328 29.6705 71.6431 30.7336C70.9344 31.1274 70.2454 31.1667 69.5169 31.2652C69.3594 31.0486 69.202 30.8714 69.1035 30.6549C65.5599 23.9613 61.9965 17.2678 58.4923 10.5546C57.9804 9.57021 57.6063 8.48746 57.1929 7.44405C57.0551 7.08969 56.9567 6.71562 57.0551 6.32188L57.0355 6.30218Z" fill="#8CC747"/>
<path d="M47.8829 35.3012C48.631 29.8677 49.3791 24.4537 50.1468 19.0398C50.639 15.5946 51.1902 12.1691 51.7415 8.74355C51.8793 7.83796 52.0959 6.95207 52.3124 6.06616C52.4109 5.69211 52.5486 5.33777 52.7061 4.98341C52.8046 4.74716 52.9621 4.55029 53.2574 4.55029C53.5723 4.55029 53.7889 4.72746 53.8873 5.02276C53.9858 5.35744 54.1039 5.69209 54.1236 6.04646C54.163 6.77487 54.1826 7.52297 54.1039 8.25138C53.8873 10.161 53.6511 12.0904 53.3558 14C52.2927 20.6148 51.3674 27.269 50.6784 33.9428C50.639 34.3169 50.5799 34.7106 50.5012 35.2028L47.9222 35.7146C47.9025 35.5768 47.8632 35.4587 47.8632 35.3209L47.8829 35.3012Z" fill="#8CC747"/>
</g>
</g>
<defs>
<clipPath id="clip0_70_2">
<rect width="113" height="118" fill="white"/>
</clipPath>
</defs>
</svg>
