<svg width="109" height="114" viewBox="0 0 109 114" fill="none" xmlns="http://www.w3.org/2000/svg">
<g clip-path="url(#clip0_71_2727)">
<path d="M86.7349 83.7852C81.5151 82.9904 76.5971 81.0691 71.8384 78.8111C60.6221 73.426 50.9018 66.0617 42.9978 56.4246C41.5875 54.736 40.4103 52.8857 39.2331 51.0353C38.5412 49.8842 38.2575 48.4974 39.0412 47.3104C40.028 45.8156 41.6205 45.7938 43.1567 46.2398C44.6489 46.6568 46.112 47.1179 47.5171 47.6668C56.6654 51.3078 65.9589 54.7289 74.919 58.7507C81.1119 61.5136 86.9574 64.9941 92.875 68.2697C95.4091 69.6903 97.347 71.7272 98.9215 74.2186C101.439 78.3423 99.7636 82.7917 94.1592 84.2049C92.3178 84.1255 89.4396 84.1821 86.6469 83.7271L86.7349 83.7852ZM86.0798 71.2956C80.6898 68.3683 75.2276 65.6459 69.6784 63.0554C62.2993 59.6987 54.848 56.5468 47.3968 53.3949C46.8552 53.1636 46.2123 53.1811 45.6126 53.0377C45.6881 53.5926 45.5298 54.1193 45.7645 54.3374C56.23 64.9713 68.2329 73.0851 82.7312 77.2281C85.4377 78.005 88.2736 78.2992 91.0805 78.6372C91.1244 78.6663 91.1975 78.6512 91.2705 78.6363C92.6291 78.5864 93.206 76.9474 92.3541 75.943C90.5623 73.8763 88.3062 72.5129 86.0798 71.2956Z" fill="white"/>
<path d="M9.52293 52.631C12.2192 57.6306 15.0175 62.5714 17.6847 67.6149C22.6359 76.9438 26.522 86.6428 28.0304 97.1707C28.5575 100.675 28.6318 104.196 27.3755 107.533C25.917 111.368 22.3282 112.596 18.8708 110.566C17.7867 109.914 16.7307 109.027 15.8497 108.067C14.6751 106.786 13.5586 105.418 12.675 103.888C3.25238 87.9453 1.47947 70.5514 3.19597 52.5573C3.49094 49.9113 6.9057 48.9462 8.55155 51.0429C8.86015 51.436 9.11058 51.917 9.49387 52.675L9.52293 52.631ZM6.18887 61.7927C6.42263 74.8249 8.7291 87.3948 15.1951 98.9232C16.3441 101.007 17.9012 102.856 19.4873 104.661C19.5313 104.69 19.5752 104.719 19.6192 104.748C20.4993 105.518 21.9142 105 22.1281 103.816C22.8294 100.555 22.6882 98.3783 21.7654 94.6127C20.0692 87.8115 17.8041 81.2028 14.693 74.9193C12.4073 70.254 9.87364 65.6774 7.17652 60.4879C6.39199 61.485 6.188 61.6027 6.17392 61.7197L6.18887 61.7927Z" fill="white"/>
<path d="M51.1225 11.6036C57.222 9.82294 63.2626 7.94014 69.4218 6.4514C76.194 4.79919 83.0551 3.395 89.8721 1.96175C93.5506 1.17086 97.3062 1.3148 100.919 2.24833C106.493 3.65523 107.994 9.31754 103.965 13.4121C103.368 14.0285 102.655 14.6307 101.853 14.985C98.295 16.5497 94.7677 18.4504 90.9731 19.4172C82.4211 21.6618 73.6546 21.745 64.928 20.9075C59.9289 20.4478 54.9861 19.5202 50.0434 18.5926C49.4877 18.4782 48.9319 18.3637 48.4052 18.2054C45.6107 17.3704 45.5347 13.4697 48.2627 12.4931C49.1816 12.1529 50.1306 11.9587 51.0936 11.6475L51.1225 11.6036ZM58.6553 16.6399C68.4934 17.7062 78.3405 17.516 87.9882 15.2372C90.9659 14.5518 93.8538 13.4283 96.6099 12.2178C96.8139 12.1 97.033 12.0552 97.237 11.9374C99.5991 10.8455 98.6332 7.24095 96.0188 7.47184C91.6518 7.87132 87.24 8.05184 82.9776 8.96224C74.8618 10.7374 66.8357 12.9504 58.7796 15.0175C58.6045 15.0914 58.4294 15.1651 58.2544 15.2389C57.6863 15.6214 57.8806 16.5703 58.5823 16.6548L58.6553 16.6399Z" fill="white"/>
</g>
<defs>
<clipPath id="clip0_71_2727">
<rect width="109" height="114" fill="white"/>
</clipPath>
</defs>
</svg>
